<?xml version="1.0" encoding="UTF-8"?><svg id="Icons" xmlns="http://www.w3.org/2000/svg" viewBox="0 0 563.74 283.12"><defs><style>.cls-1,.cls-2{letter-spacing:-.01em;}.cls-3{letter-spacing:0em;}.cls-4{stroke-linejoin:round;stroke-width:3.51px;}.cls-4,.cls-5{fill:none;stroke:#bfd730;}.cls-6{letter-spacing:0em;}.cls-2,.cls-7,.cls-8,.cls-9{fill:#011520;}.cls-2,.cls-7,.cls-9{font-family:Montserrat-ExtraBold, Montserrat;font-weight:700;}.cls-8{font-family:Montserrat-SemiBold, Montserrat;font-size:46px;font-weight:600;}.cls-10{font-size:62px;}.cls-11{letter-spacing:-.01em;}.cls-12{font-family:Calps-Medium, 'Calps Medium';font-weight:500;}.cls-12,.cls-13{fill:#007236;}.cls-5{stroke-miterlimit:10;stroke-width:3.51px;}.cls-14{fill:#bfd730;}.cls-14,.cls-13{stroke-width:0px;}.cls-15{letter-spacing:-.02em;}.cls-9{letter-spacing:-.02em;}.cls-16{letter-spacing:0em;}</style></defs><circle class="cls-13" cx="194.31" cy="132.8" r="99.52"/><line class="cls-4" x1="228.25" y1="191.45" x2="228.25" y2="207.04"/><line class="cls-4" x1="161.44" y1="207.04" x2="161.44" y2="191.45"/><path class="cls-4" d="m194.84,96.17c-15.99,0-28.95,12.96-28.95,28.95s12.96,28.96,28.95,28.96,28.96-12.96,28.96-28.96-12.96-28.95-28.96-28.95Z"/><path class="cls-4" d="m176.25,148.06c-17.03,4.48-32.01,15.21-34.55,31.07l-2.7,21.81"/><path class="cls-4" d="m213.44,148.06c17.03,4.48,32.01,15.21,34.55,31.07l2.7,21.81"/><line class="cls-4" x1="154.43" y1="119.42" x2="131.51" y2="116.6"/><line class="cls-4" x1="154.43" y1="127.06" x2="131.51" y2="131.08"/><path class="cls-4" d="m136.14,137.33s-1.91,6.25-7.99,4.43c-6.08-1.82-6.08-8.85-4.88-10.46,0,0-7.64-.51-7.64-7.35s7.64-7.35,7.64-7.35c-1.21-1.61-1.21-8.64,4.88-10.46,6.08-1.82,7.99,4.43,7.99,4.43"/><line class="cls-4" x1="236.26" y1="119.42" x2="259.18" y2="116.6"/><line class="cls-4" x1="236.26" y1="127.06" x2="259.18" y2="131.08"/><path class="cls-4" d="m254.55,137.33s1.91,6.25,7.99,4.43,6.08-8.85,4.88-10.46c0,0,7.64-.51,7.64-7.35,0-6.84-7.64-7.35-7.64-7.35,1.21-1.61,1.21-8.64-4.88-10.46-6.08-1.82-7.99,4.43-7.99,4.43"/><path class="cls-14" d="m242.63,72.81c-.16.19-.36.3-.61.32-.25.03-.48-.04-.68-.21l-2.87-2.41c-.19-.16-.3-.36-.32-.61-.03-.25.04-.48.21-.68,1.9-2.1,3.91-3.15,6.04-3.13,2.12.01,4.17.84,6.14,2.5s3,3.5,3.34,5.75c.34,2.25-.24,4.26-1.73,6.05l-.93,1.11c-1.54,1.84-4,2.93-7.38,3.29-1.13.12-1.98.24-2.56.34-.57.1-1.23.32-1.98.65-.75.33-1.36.79-1.84,1.36l-.56.66c-.16.19-.37.29-.62.32-.26.02-.48-.05-.67-.2l-2.87-2.41c-.19-.16-.29-.37-.32-.62s.05-.48.2-.67l1.38-1.65c.48-.58,1.11-1.04,1.88-1.4.77-.36,1.42-.58,1.96-.67.54-.08,1.32-.18,2.36-.3,1.16-.1,2.06-.21,2.72-.32.65-.11,1.41-.38,2.28-.8.86-.42,1.59-.98,2.19-1.69l.49-.58c.59-.76.89-1.58.89-2.47,0-.89-.37-1.65-1.12-2.28-.82-.69-1.61-1-2.38-.96-.77.05-1.64.63-2.61,1.73Zm-8.72,18.51l-2.93,3.5c-.16.19-.37.29-.62.32-.26.02-.48-.05-.67-.2l-2.87-2.41c-.19-.16-.3-.36-.32-.61-.03-.25.04-.48.21-.68l2.93-3.5c.16-.19.36-.3.61-.32.25-.03.48.04.68.21l2.87,2.41c.19.16.29.37.32.62.02.26-.05.48-.2.67Z"/><path class="cls-14" d="m146.02,66.12l14.33,17.08c.16.19.23.41.21.66-.02.25-.13.46-.33.63l-2.87,2.41c-.19.16-.41.22-.67.2-.26-.03-.47-.13-.62-.32l-14.33-17.08c-.16-.19-.22-.41-.2-.67.03-.26.13-.47.32-.62l2.87-2.41c.19-.16.41-.22.67-.2s.47.13.63.32Zm17.24,20.54l2.93,3.5c.16.19.23.41.21.66-.02.25-.13.46-.33.63l-2.87,2.41c-.19.16-.41.23-.66.21-.25-.02-.46-.13-.63-.33l-2.93-3.5c-.16-.19-.22-.41-.2-.67.03-.26.13-.47.32-.62l2.87-2.41c.19-.16.41-.22.67-.2s.47.13.63.32Z"/><polyline class="cls-5" points="196.64 43.1 188.31 67.49 202.74 61.39 199.04 79.25"/><polygon class="cls-14" points="194.2 76.68 197.51 86.66 204.5 78.81 194.2 76.68"/><text class="cls-8" transform="translate(18.93 82.96)"><tspan class="cls-16" x="0" y="0">L</tspan><tspan x="27.78" y="0">ast</tspan><tspan class="cls-15" x="0" y="37">v</tspan><tspan x="25.81" y="37">an </tspan><tspan x="0" y="74">een</tspan></text><text class="cls-10" transform="translate(261.03 211.43)"><tspan class="cls-12" x="0" y="0" xml:space="preserve">   </tspan><tspan class="cls-9" x="39.43" y="0">K</tspan><tspan class="cls-7" x="84.5" y="0">O</tspan><tspan class="cls-2" x="136.96" y="0">R</tspan><tspan class="cls-7" x="182.22" y="0">T</tspan><tspan class="cls-7"><tspan class="cls-11" x="0" y="46">L</tspan><tspan class="cls-6" x="37.14" y="46">ON</tspan><tspan class="cls-1" x="139.56" y="46">T</tspan><tspan x="178.31" y="46">J</tspan><tspan class="cls-3" x="212.84" y="46">E</tspan><tspan class="cls-6" x="254.32" y="46">?</tspan></tspan></text></svg>