<?xml version="1.0" encoding="UTF-8"?>
<svg xmlns="http://www.w3.org/2000/svg" version="1.1" viewBox="0 0 99.21 99.21">
  <defs>
    <style>
      .cls-1 {
        fill: #007236;
      }

      .cls-2, .cls-3 {
        fill: none;
        stroke: #bfd730;
        stroke-linejoin: round;
        stroke-width: 1.7px;
      }

      .cls-3 {
        stroke-linecap: round;
      }
    </style>
  </defs>
  <!-- Generator: Adobe Illustrator 28.7.1, SVG Export Plug-In . SVG Version: 1.2.0 Build 142)  -->
  <g>
    <g id="Laag_1">
      <circle class="cls-1" cx="49.61" cy="49.61" r="48.16"/>
      <g>
        <path class="cls-2" d="M46.36,40.28c-4.65,0-8.42,3.77-8.42,8.42s3.77,8.42,8.42,8.42,8.42-3.77,8.42-8.42-3.77-8.42-8.42-8.42Z"/>
        <line class="cls-3" x1="40.55" y1="67.07" x2="40.55" y2="74.65"/>
        <path class="cls-2" d="M42.25,56.05c-7.1,1-9.28,3.31-9.86,10.1l-.04,3.93c-5.47-4.99-10.94-10.5-14-15.02-8.55-12.66.95-28.83,15.41-28.83,6.16,0,11.6,3.01,14.98,7.63,3.37-4.62,8.81-7.63,14.97-7.63,14.21,0,23.29,15,15.72,28.43-4.44,7.86-14.26,16.58-21.61,22.43l.02-14.4s9.15-5.58,13.56-19.34c.73-1.9.77-3.81-.72-4.8-1.18-.78-3.42-1.03-4.47,1.13,0,0-4.58,10.96-13.63,14.69"/>
      </g>
    </g>
  </g>
</svg>