<?xml version="1.0" encoding="UTF-8"?>
<svg xmlns="http://www.w3.org/2000/svg" version="1.1" viewBox="0 0 99.21 99.21">
  <defs>
    <style>
      .cls-1 {
        fill: #007236;
      }

      .cls-2, .cls-3, .cls-4 {
        fill: none;
        stroke: #bfd730;
        stroke-width: 1.7px;
      }

      .cls-2, .cls-4 {
        stroke-linejoin: round;
      }

      .cls-3 {
        stroke-miterlimit: 10;
      }

      .cls-4 {
        stroke-linecap: round;
      }
    </style>
  </defs>
  <!-- Generator: Adobe Illustrator 28.7.1, SVG Export Plug-In . SVG Version: 1.2.0 Build 142)  -->
  <g>
    <g id="Laag_1">
      <circle class="cls-1" cx="49.61" cy="49.61" r="48.16"/>
      <g>
        <path class="cls-2" d="M14.9,46.62c-3.12.83-3.57,3.71-3.63,8.12-.03,2.89.57,5.32,1.4,6.89.41.79,1.01,1.37,2.43,1.37.33,0,.71-.03,1.14-.1,2.87-.46,5.24-3.21,5.28-7.58.04-4.19-2.04-7.88-4.25-8.64-.42-.14-1.58-.27-2.37-.06Z"/>
        <path class="cls-3" d="M40.73,29.78c0-6.76,5.48-12.24,12.25-12.24s12.25,5.48,12.25,12.24-5.49,12.25-12.25,12.25-12.25-5.49-12.25-12.25Z"/>
        <path class="cls-2" d="M37.53,46.8h7.99l7.45,5.69,7.46-5.69c9.37.61,14.33,5.29,14.33,16.79v17.67"/>
        <path class="cls-3" d="M48.64,62.54c0,1.98-1.6,3.58-3.58,3.58s-3.58-1.61-3.58-3.58,1.6-3.58,3.58-3.58,3.58,1.6,3.58,3.58Z"/>
        <path class="cls-4" d="M55.91,67.32l-.91-.9v-5.2c0-3.29,2.67-5.95,5.95-5.95s5.95,2.67,5.95,5.95v5.2l-1.08,1.08"/>
        <path class="cls-3" d="M60.96,55.26v-4.15s0-2.67-.59-4.13"/>
        <path class="cls-3" d="M45.06,58.96v-7.84s0-2.64.58-4.09"/>
        <path class="cls-4" d="M24.86,55.63v-7.95s3.5,0,3.5,0c1.1,0,1.98.89,1.98,1.99,0,1.09-.89,1.98-1.99,1.98h-.75l5.82,7.07"/>
        <line class="cls-4" x1="33.43" y1="51.66" x2="27.6" y2="58.73"/>
        <polyline class="cls-2" points="18.02 47.02 18.02 42.52 37.53 42.52 37.53 65.06 18.02 65.06 18.02 62.2"/>
        <line class="cls-2" x1="39.27" y1="81.25" x2="39.27" y2="67.96"/>
      </g>
    </g>
  </g>
</svg>