<?xml version="1.0" encoding="UTF-8"?>
<svg xmlns="http://www.w3.org/2000/svg" version="1.1" viewBox="0 0 99.21 99.21">
  <defs>
    <style>
      .cls-1 {
        stroke-miterlimit: 10;
      }

      .cls-1, .cls-2 {
        fill: none;
        stroke: #007236;
        stroke-width: 1.7px;
      }

      .cls-2 {
        stroke-linejoin: round;
      }

      .cls-3 {
        fill: #bfd730;
      }
    </style>
  </defs>
  <!-- Generator: Adobe Illustrator 28.7.1, SVG Export Plug-In . SVG Version: 1.2.0 Build 142)  -->
  <g>
    <g id="Laag_1">
      <circle class="cls-3" cx="49.61" cy="49.61" r="48.16"/>
      <g>
        <path class="cls-1" d="M16.29,52.19c12.1,3.69,16.77,11.78,14.31,24.7"/>
        <path class="cls-1" d="M22.46,37.95c4.74,1.16,9.1,2.64,13.05,4.43"/>
        <path class="cls-1" d="M83.32,52.19c-12.1,3.69-16.77,11.78-14.31,24.7"/>
        <path class="cls-1" d="M77.14,37.95c-4.75,1.16-9.1,2.64-13.05,4.43"/>
        <path class="cls-2" d="M53.81,34.33h-8.03c-5.04.33-7.72,2.85-7.72,9.04l.03,12.01c0,1.92,1.36,3.46,3.9,3.46v18.28c0,2.14,1.74,3.88,3.89,3.88s3.88-1.74,3.88-3.88c0,2.14,1.74,3.88,3.89,3.88s3.88-1.74,3.88-3.88l.04-18.28c2.61,0,3.92-1.54,3.92-3.46l.03-12.01c0-6.19-2.67-8.71-7.72-9.04Z"/>
        <path class="cls-2" d="M49.8,30.62c3.64,0,6.6-2.95,6.6-6.6s-2.95-6.59-6.6-6.59-6.59,2.95-6.59,6.59,2.95,6.6,6.59,6.6Z"/>
      </g>
    </g>
  </g>
</svg>