<?xml version="1.0" encoding="UTF-8"?>
<svg xmlns="http://www.w3.org/2000/svg" version="1.1" viewBox="0 0 99.21 99.21">
  <defs>
    <style>
      .cls-1 {
        fill: none;
        stroke: #007236;
        stroke-linejoin: round;
        stroke-width: 1.7px;
      }

      .cls-2 {
        fill: #bfd730;
      }
    </style>
  </defs>
  <!-- Generator: Adobe Illustrator 28.7.1, SVG Export Plug-In . SVG Version: 1.2.0 Build 142)  -->
  <g>
    <g id="Laag_1">
      <circle class="cls-2" cx="49.61" cy="49.61" r="48.16"/>
      <g>
        <path class="cls-1" d="M78.07,72.09s-1.87-18.02-3.33-21.92"/>
        <line class="cls-1" x1="67.44" y1="61.22" x2="68.64" y2="72.09"/>
        <path class="cls-1" d="M46.77,72.09l1.49-17.8s5.48-.27,11.58-.67c9.07-.58,11.8-1.88,13.78-2.83,1.38-.66,3.19-1.84,2.85-4.03-.32-2.07-1.86-3.63-4.12-3.29-5.87.89-9.43,1.42-13.09,1.4-7.97-.05-13.17-2.34-21.77-2.34-11.3,0-14.48,1.71-16.86,5.7-2.65,4.44-3.62,23.85-3.62,23.85"/>
        <line class="cls-1" x1="27.21" y1="58.97" x2="26.61" y2="72.09"/>
        <path class="cls-1" d="M36.53,18.54c-5.61,0-10.16,4.55-10.16,10.16s4.55,10.16,10.16,10.16,10.16-4.55,10.16-10.16-4.55-10.16-10.16-10.16Z"/>
        <path class="cls-1" d="M60.46,22.42c-5.24,0-9.49,4.25-9.49,9.49s4.25,9.49,9.49,9.49,9.49-4.25,9.49-9.49-4.25-9.49-9.49-9.49Z"/>
      </g>
    </g>
  </g>
</svg>