<?xml version="1.0" encoding="UTF-8"?>
<svg xmlns="http://www.w3.org/2000/svg" version="1.1" viewBox="0 0 99.21 99.21">
  <defs>
    <style>
      .cls-1 {
        fill: #007236;
      }

      .cls-2 {
        fill: none;
        stroke: #bfd730;
        stroke-linejoin: round;
        stroke-width: 1.7px;
      }
    </style>
  </defs>
  <!-- Generator: Adobe Illustrator 28.7.1, SVG Export Plug-In . SVG Version: 1.2.0 Build 142)  -->
  <g>
    <g id="Laag_1">
      <circle class="cls-1" cx="49.61" cy="49.61" r="48.16"/>
      <g>
        <path class="cls-2" d="M82.95,64.27l-9.84-.55c7.46-9.22,7.65-12.38,6.76-14.8-1.03-4.52-4.95-12.14-7.59-15.49-1.75-2.22-4.59-3.14-7.39-2.03-1.24.49-3.05,2.06-4.29,3.66-1.42,1.83-5.43,7.49-5.43,7.49,0,0-6.57,2.24-8.63,2.95-1.86.64-2.39,2.13-1.89,3.64.55,1.66,1.83,2.04,3.57,1.68,7.84-1.8,7.46-1.75,9.54-2.34,1.2-.34,1.8-.99,2.38-1.47,1.17-.96,2.65-2.19,4.62-4.06l4.58,9.08c-1.72,4.03-4.2,9.79-5.14,11.84-1.12,2.45-1.07,3.87-.46,5,.61,1.13,1.8,1.84,3.08,1.84h16.13c1.94,0,3.22-1.34,3.22-3.28s-1.28-3.16-3.22-3.16Z"/>
        <path class="cls-2" d="M68.24,49.85l-12.24,1.99c-1.37.26-2.52,1.5-2.5,3.73l.23,11.88c0,1.94,1.29,3.27,3.23,3.27s3.2-1.33,3.2-3.27l.31-9.58,6.71-.77"/>
        <path class="cls-2" d="M33.69,32.44c0-3.58,2.9-6.49,6.49-6.49s6.49,2.9,6.49,6.49-2.91,6.49-6.49,6.49-6.49-2.9-6.49-6.49Z"/>
        <path class="cls-2" d="M13.83,65.74c-1.59-.44-2.71-1.5-2.71-3.12,0-2.57,2.01-3.78,4.5-3.79h1.38"/>
        <path class="cls-2" d="M40.13,59.02c-4.95-6.53-4.03-13.07-5.47-17.4-.71-2.12-2.7-4.27-5.14-4.87-2.45-.6-5.9.08-8.27,3.33-2.66,3.66-3.54,5.59-4.67,8.83-.93,2.67-1.14,4.93-1.04,6.53.1,1.53.62,2.88,2.18,3.97,1.61,1.12,5.37,2.94,8.54,4.54l-7.97.02c-2.5,0-4.29,1.32-4.29,3.62s1.79,3.14,4.29,3.14h14.12c1.19,0,3.32-.14,4.2-2.49.57-1.52.52-3.02-.24-3.98-3.05-3.82-10.54-10.88-10.54-10.88l2.15-5.98s3.12,11.04,6.47,14.63c2.63,2.82,4.11,2.61,5.54,1.44,1.32-1.08,1.17-3.09.14-4.46Z"/>
        <path class="cls-2" d="M64.32,24.19c0,3.74-3.03,6.76-6.76,6.76s-6.76-3.03-6.76-6.76,3.03-6.76,6.76-6.76,6.76,3.03,6.76,6.76Z"/>
      </g>
    </g>
  </g>
</svg>