<?xml version="1.0" encoding="UTF-8"?>
<svg xmlns="http://www.w3.org/2000/svg" version="1.1" viewBox="0 0 99.21 99.21">
  <defs>
    <style>
      .cls-1 {
        fill: #007236;
      }

      .cls-2, .cls-3 {
        fill: none;
        stroke: #bfd730;
        stroke-linejoin: round;
        stroke-width: 1.7px;
      }

      .cls-3 {
        stroke-linecap: round;
      }
    </style>
  </defs>
  <!-- Generator: Adobe Illustrator 28.7.1, SVG Export Plug-In . SVG Version: 1.2.0 Build 142)  -->
  <g>
    <g id="Laag_1">
      <circle class="cls-1" cx="49.61" cy="49.61" r="48.16"/>
      <g>
        <path class="cls-2" d="M51.46,62.79l4.43-13.58c1.44-4.16,5.15-6.75,9.64-6.75,6.03,0,10.91,4.89,10.91,10.91l-1.56,20.85"/>
        <path class="cls-2" d="M63.91,56.54l-7.48,18.31c-.61,1.42-2.06,2.24-3.65,2.24-.55,0-1.12-.1-1.68-.31-2.14-.82-3.34-3.02-2.67-4.99l.85-2.52"/>
        <path class="cls-3" d="M78.79,42.71c-5.21,0-9.44-4.23-9.44-9.44s4.23-9.44,9.44-9.44,9.44,4.23,9.44,9.44-4.23,9.44-9.44,9.44Z"/>
        <line class="cls-2" x1="32.46" y1="74.08" x2="32.81" y2="68.83"/>
        <path class="cls-2" d="M26.23,56c1.22,2.91,3.18,7.54,4.33,10.23.84,1.96,2.28,3.07,4.25,3.07h13.79c2.28.05,3.95-.98,4.09-3.35.12-1.91-.71-3.65-3.39-3.9l-10.46-1.11-3.4-10.95c-1.62-4.21-4.79-6.86-9.41-6.99-5.68-.16-9.45,3.54-10.28,7.94-1.29,6.82-1.84,23.14-1.84,23.14"/>
        <path class="cls-3" d="M58.03,70.86c-3.04-.49-5.13-1.65-6.34-2.54"/>
        <path class="cls-2" d="M47.27,27.03l-19.92-4.75-1.07,2.52c-.14.33.08.75.5.93l10.49,2.57,9.62,5.95c.29.12.62.1.84-.06.21-.16.28-.43.17-.69l-1.7-3.94,1.07-2.52Z"/>
        <path class="cls-2" d="M47.27,27.03l1.29-3.03c.66-1.55.08-2.85-1.24-3.09l-17.15-3.18c-2-.37-3.44.35-3.22,2.21l.41,2.35"/>
        <path class="cls-3" d="M26.76,25.7c-1.05,1.53-1.67,3.38-1.67,5.38,0,5.23,4.24,9.47,9.47,9.47,4.78,0,8.73-3.54,9.38-8.14"/>
      </g>
    </g>
  </g>
</svg>