<?xml version="1.0" encoding="UTF-8"?>
<svg xmlns="http://www.w3.org/2000/svg" version="1.1" viewBox="0 0 99.21 99.21">
  <defs>
    <style>
      .cls-1 {
        fill: #007236;
      }

      .cls-2 {
        fill: none;
        stroke: #bfd730;
        stroke-linejoin: round;
        stroke-width: 1.7px;
      }
    </style>
  </defs>
  <!-- Generator: Adobe Illustrator 28.7.1, SVG Export Plug-In . SVG Version: 1.2.0 Build 142)  -->
  <g>
    <g id="Laag_1">
      <circle class="cls-1" cx="49.61" cy="49.61" r="48.16"/>
      <path class="cls-2" d="M26.49,21.5c.96-5.36,5.63-9.43,11.27-9.43,1.83,0,3.56.44,5.09,1.21,3-2.44,6.82-3.91,10.99-3.91,6.09,0,11.44,3.12,14.56,7.85.43-.04.86-.07,1.29-.07,7.48,0,13.54,6.06,13.54,13.54s-6.07,13.54-13.54,13.54H27.78c-6.3,0-11.41-5.11-11.41-11.41,0-5.86,4.43-10.69,10.12-11.33Z"/>
      <g>
        <line class="cls-2" x1="62.32" y1="84.04" x2="62.32" y2="89.88"/>
        <g>
          <line class="cls-2" x1="37.28" y1="89.88" x2="37.28" y2="84.04"/>
          <path class="cls-2" d="M49.8,53.05c-5.99,0-10.85,4.86-10.85,10.85s4.86,10.85,10.85,10.85,10.85-4.86,10.85-10.85-4.86-10.85-10.85-10.85Z"/>
          <path class="cls-2" d="M39.66,67.78c-6.38,1.68-8.83,5.7-9.78,11.65l-1.01,10.46"/>
          <path class="cls-2" d="M59.94,67.78c6.38,1.68,8.83,5.7,9.78,11.65l1.01,10.46"/>
        </g>
      </g>
      <g>
        <path class="cls-2" d="M59.56,24.79c0,4.7-3.81,11.69-8.51,11.69s-8.51-6.99-8.51-11.69,3.81-8.51,8.51-8.51,8.51,3.81,8.51,8.51Z"/>
        <polygon class="cls-2" points="51.13 36.55 52.78 39.86 49.47 39.86 51.13 36.55"/>
      </g>
      <ellipse class="cls-2" cx="72.73" cy="49.94" rx="6.25" ry="2.56"/>
      <ellipse class="cls-2" cx="66.96" cy="57.46" rx="4.07" ry="2.42"/>
    </g>
  </g>
</svg>