<?xml version="1.0" encoding="UTF-8"?>
<svg xmlns="http://www.w3.org/2000/svg" version="1.1" viewBox="0 0 99.21 99.21">
  <defs>
    <style>
      .cls-1 {
        fill: #007236;
      }

      .cls-2 {
        fill: none;
        stroke: #bfd730;
        stroke-linejoin: round;
        stroke-width: 1.7px;
      }
    </style>
  </defs>
  <!-- Generator: Adobe Illustrator 28.7.1, SVG Export Plug-In . SVG Version: 1.2.0 Build 142)  -->
  <g>
    <g id="Laag_1">
      <circle class="cls-1" cx="49.61" cy="49.61" r="48.16"/>
      <g>
        <g>
          <rect class="cls-2" x="15" y="30.81" width="22.14" height="17.04"/>
          <polygon class="cls-2" points="26.07 20.35 37.14 30.81 15 30.81 26.07 20.35"/>
          <rect class="cls-2" x="19.04" y="36.49" width="5.68" height="11.35"/>
        </g>
        <g>
          <line class="cls-2" x1="12.67" y1="23.76" x2="40.6" y2="51.68"/>
          <line class="cls-2" x1="41.05" y1="23.31" x2="12.22" y2="52.14"/>
        </g>
      </g>
      <g>
        <g>
          <polygon class="cls-2" points="50.13 29.06 81.66 25.72 83.77 44.71 51.99 48.07 50.13 29.06"/>
          <path class="cls-2" d="M82.22,30.82c-2.8.3-5.33-1.75-5.65-4.57"/>
          <path class="cls-2" d="M83.22,39.74c-2.81.3-4.82,2.83-4.51,5.65"/>
          <path class="cls-2" d="M51.45,42.96c2.8-.3,5.33,1.75,5.65,4.57"/>
          <path class="cls-2" d="M55.22,28.38c.31,2.82-1.71,5.35-4.51,5.65"/>
          <ellipse class="cls-2" cx="66.82" cy="36.9" rx="5.32" ry="5.36" transform="translate(-9.44 33.75) rotate(-26.54)"/>
        </g>
        <g>
          <line class="cls-2" x1="52.44" y1="23.12" x2="80.36" y2="51.04"/>
          <line class="cls-2" x1="80.82" y1="22.67" x2="51.99" y2="51.5"/>
        </g>
      </g>
      <g>
        <line class="cls-2" x1="59.66" y1="84.68" x2="59.66" y2="89.91"/>
        <g>
          <line class="cls-2" x1="37.23" y1="89.91" x2="37.23" y2="84.68"/>
          <path class="cls-2" d="M48.44,56.92c-5.37,0-9.72,4.35-9.72,9.72s4.35,9.72,9.72,9.72,9.72-4.35,9.72-9.72-4.35-9.72-9.72-9.72Z"/>
          <path class="cls-2" d="M39.36,70.11c-5.72,1.5-7.91,5.11-8.76,10.43l-.91,9.37"/>
          <path class="cls-2" d="M57.53,70.11c5.72,1.5,7.91,5.11,8.76,10.43l.91,9.37"/>
        </g>
      </g>
    </g>
  </g>
</svg>