<?xml version="1.0" encoding="UTF-8"?>
<svg xmlns="http://www.w3.org/2000/svg" version="1.1" viewBox="0 0 99.21 99.21">
  <defs>
    <style>
      .cls-1 {
        stroke-miterlimit: 10;
      }

      .cls-1, .cls-2 {
        fill: none;
        stroke: #007236;
        stroke-width: 1.7px;
      }

      .cls-3 {
        fill: #007236;
      }

      .cls-2 {
        stroke-linejoin: round;
      }

      .cls-4 {
        fill: #bfd730;
      }
    </style>
  </defs>
  <!-- Generator: Adobe Illustrator 28.7.1, SVG Export Plug-In . SVG Version: 1.2.0 Build 142)  -->
  <g>
    <g id="Laag_1">
      <circle class="cls-4" cx="49.61" cy="49.61" r="48.16"/>
      <g>
        <line class="cls-2" x1="66.03" y1="77.98" x2="66.03" y2="85.53"/>
        <line class="cls-2" x1="33.7" y1="85.53" x2="33.7" y2="77.98"/>
        <path class="cls-2" d="M49.86,31.88c-7.74,0-14.01,6.27-14.01,14.01s6.27,14.01,14.01,14.01,14.01-6.27,14.01-14.01-6.27-14.01-14.01-14.01Z"/>
        <path class="cls-2" d="M40.86,56.99c-8.24,2.17-15.49,7.36-16.72,15.04l-1.31,10.55"/>
        <path class="cls-2" d="M58.86,56.99c8.24,2.17,15.49,7.36,16.72,15.04l1.31,10.55"/>
      </g>
      <g>
        <line class="cls-2" x1="30.31" y1="43.13" x2="19.22" y2="41.77"/>
        <line class="cls-2" x1="30.31" y1="46.83" x2="19.22" y2="48.77"/>
        <path class="cls-2" d="M21.45,51.8s-.92,3.02-3.87,2.14-2.94-4.28-2.36-5.06c0,0-3.7-.25-3.7-3.56s3.7-3.56,3.7-3.56c-.58-.78-.58-4.18,2.36-5.06s3.87,2.14,3.87,2.14"/>
      </g>
      <g>
        <line class="cls-2" x1="69.9" y1="43.13" x2="80.99" y2="41.77"/>
        <line class="cls-2" x1="69.9" y1="46.83" x2="80.99" y2="48.77"/>
        <path class="cls-2" d="M78.75,51.8s.92,3.02,3.87,2.14c2.94-.88,2.94-4.28,2.36-5.06,0,0,3.7-.25,3.7-3.56s-3.7-3.56-3.7-3.56c.58-.78.58-4.18-2.36-5.06-2.94-.88-3.87,2.14-3.87,2.14"/>
      </g>
      <path class="cls-3" d="M72.98,20.58c-.08.09-.17.14-.3.16-.12.01-.23-.02-.33-.1l-1.39-1.17c-.09-.08-.14-.17-.16-.3-.01-.12.02-.23.1-.33.92-1.02,1.89-1.52,2.92-1.52,1.03,0,2.02.41,2.97,1.21.91.77,1.45,1.7,1.62,2.78.17,1.09-.11,2.06-.84,2.93l-.45.53c-.75.89-1.94,1.42-3.57,1.59-.55.06-.96.11-1.24.16-.28.05-.6.15-.96.31-.36.16-.66.38-.89.66l-.27.32c-.08.09-.18.14-.3.15-.13,0-.23-.02-.32-.1l-1.39-1.17c-.09-.08-.14-.18-.15-.3s.02-.23.1-.32l.67-.8c.23-.28.54-.51.91-.68.37-.17.69-.28.95-.32.26-.04.64-.09,1.14-.14.56-.05,1-.1,1.32-.16.32-.05.68-.18,1.1-.39.42-.2.77-.47,1.06-.82l.24-.28c.29-.37.43-.77.43-1.2,0-.43-.18-.8-.54-1.1-.4-.33-.78-.49-1.15-.46-.37.02-.8.3-1.27.84ZM68.77,29.53l-1.42,1.69c-.08.09-.18.14-.3.15-.13,0-.23-.02-.32-.1l-1.39-1.17c-.09-.08-.14-.18-.16-.3-.01-.12.02-.23.1-.33l1.42-1.69c.08-.09.17-.14.3-.16.12-.01.23.02.33.1l1.39,1.17c.09.08.14.18.15.3,0,.13-.02.23-.1.32Z"/>
      <path class="cls-3" d="M26.24,17.34l6.94,8.27c.08.09.11.2.1.32,0,.12-.06.22-.16.31l-1.39,1.17c-.09.08-.2.11-.32.1-.13-.01-.23-.06-.3-.15l-6.94-8.27c-.08-.09-.11-.2-.1-.32.01-.13.06-.23.15-.3l1.39-1.17c.09-.08.2-.11.32-.1s.23.06.3.15ZM34.58,27.28l1.42,1.69c.08.09.11.2.1.32,0,.12-.06.22-.16.31l-1.39,1.17c-.09.08-.2.11-.32.1-.12,0-.22-.06-.31-.16l-1.42-1.69c-.08-.09-.11-.2-.1-.32.01-.13.06-.23.15-.3l1.39-1.17c.09-.08.2-.11.32-.1s.23.06.3.15Z"/>
      <g>
        <polyline class="cls-1" points="50.73 6.2 46.7 18 53.68 15.05 51.89 23.69"/>
        <polygon class="cls-3" points="49.55 22.45 51.15 27.28 54.54 23.48 49.55 22.45"/>
      </g>
    </g>
  </g>
</svg>