<?xml version="1.0" encoding="UTF-8"?>
<svg xmlns="http://www.w3.org/2000/svg" version="1.1" viewBox="0 0 99.21 99.21">
  <defs>
    <style>
      .cls-1 {
        stroke-linecap: round;
        stroke-miterlimit: 10;
      }

      .cls-1, .cls-2 {
        fill: none;
        stroke: #007236;
        stroke-width: 1.7px;
      }

      .cls-2 {
        stroke-linejoin: round;
      }

      .cls-3 {
        fill: #bfd730;
      }
    </style>
  </defs>
  <!-- Generator: Adobe Illustrator 28.7.1, SVG Export Plug-In . SVG Version: 1.2.0 Build 142)  -->
  <g>
    <g id="Laag_1">
      <circle class="cls-3" cx="49.61" cy="49.61" r="48.16"/>
      <g>
        <path class="cls-2" d="M67.28,59.79c4.27-.08,13.03-.71,17.1-.85,0,0,4.05-.05,3.86-4.48-.21-4.92-5.3-4.39-5.3-4.39l-10.49.59-3.16-6.67"/>
        <path class="cls-2" d="M42.66,39.63l-7.88,15.25c-.49.93-1.48,1.09-2.53.8l-16.8-5.28s-2.4-.9-1.57-3.83c.57-1.99,2.02-3.04,3.77-2.73l11.48,2.96s3.02-7.55,4.7-12.75c1.45-4.48,4.89-7.28,11.17-6.55,7.27.85,18.05,6.57,18.05,6.57,8.48,4.31,6.03,11.69,5.53,15.71-.37,2.96-1.54,11.84-1.54,11.84l9.53,4.41s4.72,1.92,2.61,6.37c-1.13,2.37-3.16,3.13-5.51,2.14-4.31-2.12-12.86-5.68-15.89-7.5-1.1-.67-2.14-2.08-1.9-5.82l.51-13.04c-2.84-1.36-9.22-3.38-15.63-4.86"/>
        <path class="cls-2" d="M33.46,33.38c0,4.78-3.88,8.66-8.66,8.66s-8.66-3.88-8.66-8.66,3.88-8.66,8.66-8.66,8.66,3.88,8.66,8.66Z"/>
        <line class="cls-1" x1="19.68" y1="61.27" x2="20.76" y2="61.27"/>
        <line class="cls-1" x1="28.55" y1="66.87" x2="29.62" y2="66.87"/>
        <line class="cls-1" x1="27.41" y1="61.5" x2="28.48" y2="61.5"/>
        <line class="cls-1" x1="31.45" y1="60.34" x2="32.53" y2="60.34"/>
        <path class="cls-2" d="M39.86,45.16c1.58,1.44,3.76,3.46,3.76,3.46l-6.67,9.04s-1.28,2.31,1.29,4.28c2.41,1.87,4.14-.01,4.14-.01l10.15-11.94c.99-1.1.83-2.6-.01-3.33"/>
      </g>
    </g>
  </g>
</svg>