<?xml version="1.0" encoding="UTF-8"?>
<svg xmlns="http://www.w3.org/2000/svg" version="1.1" viewBox="0 0 99.21 99.21">
  <defs>
    <style>
      .cls-1 {
        stroke-linecap: round;
      }

      .cls-1, .cls-2 {
        fill: none;
        stroke: #007236;
        stroke-linejoin: round;
        stroke-width: 1.7px;
      }

      .cls-3 {
        fill: #bfd730;
      }
    </style>
  </defs>
  <!-- Generator: Adobe Illustrator 28.7.1, SVG Export Plug-In . SVG Version: 1.2.0 Build 142)  -->
  <g>
    <g id="Laag_1">
      <circle class="cls-3" cx="49.61" cy="49.61" r="48.16"/>
      <g>
        <path class="cls-1" d="M33.36,30.82c2.89-1.4,4.1-4.89,2.7-7.78"/>
        <path class="cls-1" d="M22.42,16.41c-3.43.14-6.12,3.05-5.98,6.48"/>
        <path class="cls-2" d="M36.64,43l-9.43-2.9.74-9.64,4.08-3.63c.36-.33.51-.82.38-1.29l-1.17-4.47c-.12-.45-.46-.8-.9-.92-.08-.02-2.18-.61-4.68-.38-2.32.21-4.17,1.13-4.25,1.17-.43.22-.71.66-.71,1.15v7.43s-3.61,14.54-3.61,14.54c-.27,1.1.35,2.38,1.37,2.85l13.04,7.74-3.84,19.46"/>
        <path class="cls-2" d="M81.3,82.8l1.12-5.67c1.31-5.64-1.06-9.5-6.44-11.94-4.68-2.12-16.69-6.34-19.37-7.27l2.91-.9"/>
        <line class="cls-2" x1="72.64" y1="77.36" x2="71.84" y2="82.8"/>
        <path class="cls-2" d="M63.29,48.8l-16.36,2.07c-1.51.23-2.77,1.28-3.26,2.72-.5,1.44-.15,3.04.9,4.15l11.02,11.61-3.03,13.46"/>
        <path class="cls-1" d="M58.35,37.6c0-5.36-4.43-9.7-9.9-9.7s-9.9,4.34-9.9,9.7,4.43,9.7,9.9,9.7,9.9-4.34,9.9-9.7Z"/>
        <path class="cls-1" d="M64.96,60.9c-1.87-1.74-3.03-4.23-3.03-6.98,0-5.28,4.28-9.56,9.55-9.56s9.55,4.28,9.55,9.56-4.11,9.38-9.24,9.55"/>
      </g>
    </g>
  </g>
</svg>