<?xml version="1.0" encoding="UTF-8"?>
<svg xmlns="http://www.w3.org/2000/svg" version="1.1" viewBox="0 0 99.21 99.21">
  <defs>
    <style>
      .cls-1 {
        fill: #007236;
      }

      .cls-2 {
        fill: none;
        stroke: #bfd730;
        stroke-linejoin: round;
        stroke-width: 1.7px;
      }
    </style>
  </defs>
  <!-- Generator: Adobe Illustrator 28.7.1, SVG Export Plug-In . SVG Version: 1.2.0 Build 142)  -->
  <g>
    <g id="Laag_1">
      <circle class="cls-1" cx="49.61" cy="49.61" r="48.16"/>
      <g>
        <path class="cls-2" d="M37.54,72.28c.82,3.18,4.85,3.79,6.76,3.03l1.17-5.09c1.85,1.09,4.32.59,4.32.59l.72-7.26"/>
        <path class="cls-2" d="M14.33,76.32h15.46c3.51-.21,5.3-1.37,6.81-2.99l9.1-9.69,11.88-10.12c1.71-1.56,1.77-4.11-.01-6.16-2.02-2.33-4.21-2.42-5.83-1.18l-11.91,9.92.23-10.17s6.45-3.53,7.47-4.08"/>
        <polyline class="cls-2" points="50.28 31.33 32.28 39.51 19.47 56.72 14.36 58.6"/>
        <polyline class="cls-2" points="77.09 27.75 78.47 22.48 54.1 16.1 44.77 51.8"/>
        <polyline class="cls-2" points="48.87 48.57 58.89 21.54 82.51 30.3 67.77 70.04 47.24 62.33"/>
        <path class="cls-2" d="M56.34,46.23c-.06-.95.07-1.93.42-2.88,1.34-3.63,5.38-5.48,9.01-4.13,3.63,1.35,5.48,5.38,4.13,9.01-1.35,3.63-5.38,5.48-9.01,4.13-.77-.29-1.46-.69-2.06-1.19"/>
        <path class="cls-2" d="M65.25,23.89c-1.3,3.51-5.2,5.3-8.71,4"/>
        <path class="cls-2" d="M76.34,28.01c-1.3,3.51.49,7.41,4,8.71"/>
        <path class="cls-2" d="M61.43,67.64c1.3-3.51,5.2-5.3,8.71-4"/>
      </g>
    </g>
  </g>
</svg>