<?xml version="1.0" encoding="UTF-8"?>
<svg xmlns="http://www.w3.org/2000/svg" version="1.1" viewBox="0 0 99.21 99.21">
  <defs>
    <style>
      .cls-1 {
        stroke-linecap: round;
      }

      .cls-1, .cls-2 {
        fill: none;
        stroke: #007236;
        stroke-linejoin: round;
        stroke-width: 1.7px;
      }

      .cls-3 {
        fill: #bfd730;
      }
    </style>
  </defs>
  <!-- Generator: Adobe Illustrator 28.7.1, SVG Export Plug-In . SVG Version: 1.2.0 Build 142)  -->
  <g>
    <g id="Laag_1">
      <circle class="cls-3" cx="49.61" cy="49.61" r="48.16"/>
      <g>
        <path class="cls-2" d="M60.15,55.55c-2.06.84-4.11.59-4.11.59l-.29,2.2c-1.09-.69-2.51-1.41-3.48-1.6-.28-.06-.55-.08-.81-.08-.84,0-2.04.3-2.99,1.74-.28.43-.46.96-.54,1.5-.15-.02-.3-.03-.46-.03-.87,0-1.68.33-2.41.99-.64.58-1.13,1.54-1.22,2.52-1.25.07-2.39.77-3.01,1.86-.58,1.02-.69,2.27-.36,3.28-.88.71-1.38,1.64-1.41,2.7-.05,1.55.94,3.2,2.46,4.12,1.75,1.06,3.28,1.6,4.54,1.6.82,0,1.52-.23,2.09-.68.82-.65,1.22-1.36,1.38-1.97.66-.09,1.56-.36,2.35-1.16.78-.79,1.1-1.58,1.21-2.2.67-.1,1.53-.36,2.3-1.04.94-.83,1.29-1.88,1.41-2.67.67-.11,1.57-.5,2.43-1.54,2.67-3.26,1.57-7.64.93-10.12Z"/>
        <line class="cls-2" x1="37.66" y1="80.8" x2="41.81" y2="75.51"/>
        <line class="cls-2" x1="27.27" y1="61.2" x2="16.53" y2="74.31"/>
        <path class="cls-2" d="M60.18,55.56c2.72-.98,5.11-2.9,6.22-4.73,1.01-1.67,1.02-3.24.12-4.45.12-.06,3.44-1.33,2.45-4.76.12-.08,3.4-1.96,1.72-5.28.02-.01,1.74-1.71,1.88-3.89.19-1.92-.8-2.97-2.74-3.27-3.42,2.84-11.97,7.25-19.27,7.15-4.75-.06-8.17-.58-8.48-4.75-.01-.72.06-1.47-1.21-1.44-2.91,0-4.2,5.31-4.47,8.11-.45,4.57,1.43,9.97,1.46,10.03l-4.07,4.97"/>
        <path class="cls-1" d="M32.87,50.93c.63,1.16,2.08,4.64,2.35,7.76.27,3.18-.42,5.37-1.93,6.16-.52.27-1.07.4-1.64.4h0c-1.38,0-2.67-.79-3.3-2.01l-4.07-7.71c-.81-1.63-.51-2.93-.14-4.13l2.25-7.26c1.05-2.6,3.16-4.45,6.13-5.43l3.93-1"/>
        <line class="cls-2" x1="51.72" y1="18.41" x2="42.34" y2="32.96"/>
        <line class="cls-2" x1="68.18" y1="30.38" x2="74.21" y2="22.53"/>
      </g>
    </g>
  </g>
</svg>