<?xml version="1.0" encoding="UTF-8"?>
<svg xmlns="http://www.w3.org/2000/svg" version="1.1" viewBox="0 0 99.21 99.21">
  <defs>
    <style>
      .cls-1 {
        fill: #007236;
      }

      .cls-2 {
        fill: none;
        stroke: #bfd730;
        stroke-linecap: round;
        stroke-linejoin: round;
        stroke-width: 1.7px;
      }
    </style>
  </defs>
  <!-- Generator: Adobe Illustrator 28.7.1, SVG Export Plug-In . SVG Version: 1.2.0 Build 142)  -->
  <g>
    <g id="Laag_1">
      <circle class="cls-1" cx="49.61" cy="49.61" r="48.16"/>
      <g>
        <path class="cls-2" d="M20.04,52.99c-1.66.03-3.07.94-3.89,2.5-.79,1.52-.83,3.31-.13,4.57"/>
        <path class="cls-2" d="M82.09,53.57c.66-1.08,1.13-2.25,1.38-3.48.58-2.84.02-5.74-1.57-8.16-1.6-2.42-4.04-4.07-6.88-4.66-3.14-.64-6.45.16-8.95,2.16"/>
        <path class="cls-2" d="M43.79,57.54l-22.78,2.29c-1.78.39-3.68,1.91-3.62,4.99.05,2.65,1.97,4.63,4.67,4.82l23.93-.4c2.35-.03,6.45-.55,7.53-3.68"/>
        <path class="cls-2" d="M38.04,41.63c3.66,2.12,11.5,6.88,14.5,9.62l4.25,15.3c.53,1.62,2.1,3.28,5.36,2.41l16.8-5.82c2.56-.94,3.42-2.68,2.6-5.42-.7-2.32-3.12-3.28-5.41-2.58l-11.05,3.35-.05-5.87c0-6.91,0-10.07-3.13-14.42-2.02-2.81-10.09-8.62-22.11-8.62s-18.9,4.03-20.79,11.35c-.6,2.34-.6,12.06,14.74,17.61"/>
      </g>
    </g>
  </g>
</svg>