<?xml version="1.0" encoding="UTF-8"?>
<svg xmlns="http://www.w3.org/2000/svg" version="1.1" viewBox="0 0 99.21 99.21">
  <defs>
    <style>
      .cls-1 {
        fill: none;
        stroke: #007236;
        stroke-linejoin: round;
        stroke-width: 1.7px;
      }

      .cls-2 {
        fill: #bfd730;
      }
    </style>
  </defs>
  <!-- Generator: Adobe Illustrator 28.7.1, SVG Export Plug-In . SVG Version: 1.2.0 Build 142)  -->
  <g>
    <g id="Laag_1">
      <circle class="cls-2" cx="49.61" cy="49.61" r="48.16"/>
      <g>
        <path class="cls-1" d="M47.19,65.55c-.59.05-1.2.08-1.83.08-9.99,0-14.06-3.47-17.74-12.74-1.93-4.85-4.36-8.62-5.82-10.18-1.11-1.18-1.84-1.97-1.5-2.95.47-1.37,2.4-2.45,4.4-2.45,1.47,0,4.26.58,6.41,4.44.04.07.08.14.12.21v-16.18c0-1.77,1.4-3.67,3.67-3.67.98,0,1.9.38,2.59,1.08.69.7,1.07,1.62,1.07,2.6v12.73s.02-16.37.02-16.37c0-1.76,1.43-3.67,3.7-3.67,2.02,0,3.67,1.64,3.67,3.67v17.43s0-15.43,0-15.43c0-1.76,1.4-3.67,3.67-3.67.98,0,1.95.38,2.64,1.07.7.69,1.08,1.62,1.08,2.6v16.67-11.77c0-1.64,1.31-3.41,3.42-3.42,1.89,0,3.47,1.54,3.47,3.42v21.15"/>
        <path class="cls-1" d="M43.6,79.07c2.64,2.38,6.72,2.17,9.1-.47l19.86-21.12s3.08-4.33,2.89-7.98c-.09-1.68,3.34-4.19,3.34-4.19,0,0,.94-1.92-1.26-3.9-2.2-1.98-4.01-.85-4.01-.85,0,0-2.14,3.67-3.82,3.76-3.66.19-7.64,3.7-7.64,3.7l-18.94,21.95c-2.38,2.64-2.17,6.72.47,9.1Z"/>
      </g>
    </g>
  </g>
</svg>