<?xml version="1.0" encoding="utf-8"?>
<!-- Generator: Adobe Illustrator 28.0.0, SVG Export Plug-In . SVG Version: 6.00 Build 0)  -->
<svg version="1.1" id="Laag_1" xmlns="http://www.w3.org/2000/svg" xmlns:xlink="http://www.w3.org/1999/xlink" x="0px" y="0px"
	 viewBox="0 0 1982 998" style="enable-background:new 0 0 1982 998;" xml:space="preserve">
<style type="text/css">
	.st0{opacity:0.5;}
	.st1{fill:#999999;}
	.st2{opacity:0.8;fill:#999999;enable-background:new    ;}
	.st3{opacity:0.6;fill:#999999;enable-background:new    ;}
</style>
<g class="st0">
	<circle class="st1" cx="32" cy="596.4" r="2"/>
	<circle class="st1" cx="92.6" cy="596.4" r="2"/>
	<circle class="st1" cx="156.2" cy="596.4" r="2"/>
	<circle class="st1" cx="216.8" cy="596.4" r="2"/>
	<circle class="st1" cx="32.7" cy="652.1" r="2"/>
	<circle class="st1" cx="32.7" cy="717" r="2"/>
	<circle class="st1" cx="93.2" cy="652.1" r="2"/>
	<circle class="st1" cx="93.2" cy="717" r="2"/>
	<circle class="st1" cx="156.9" cy="652.1" r="2"/>
	<circle class="st1" cx="156.9" cy="717" r="2"/>
	<circle class="st1" cx="217.4" cy="652.1" r="2"/>
	<circle class="st1" cx="217.4" cy="717" r="2"/>
	<circle class="st1" cx="32.4" cy="776.1" r="2"/>
	<circle class="st1" cx="32.4" cy="840.9" r="2"/>
	<circle class="st1" cx="92.9" cy="776.1" r="2"/>
	<circle class="st1" cx="92.9" cy="840.9" r="2"/>
	<circle class="st1" cx="156.6" cy="776.1" r="2"/>
	<circle class="st1" cx="156.6" cy="840.9" r="2"/>
	<circle class="st1" cx="217.1" cy="776.1" r="2"/>
	<circle class="st1" cx="217.1" cy="840.9" r="2"/>
	<circle class="st1" cx="33" cy="896.7" r="2"/>
	<circle class="st1" cx="93.6" cy="896.7" r="2"/>
	<circle class="st1" cx="157.2" cy="896.7" r="2"/>
	<circle class="st1" cx="217.8" cy="896.7" r="2"/>
	<circle class="st1" cx="217.8" cy="961.5" r="2"/>
	<circle class="st1" cx="277.9" cy="595.8" r="2"/>
	<circle class="st1" cx="338.4" cy="595.8" r="2"/>
	<circle class="st1" cx="402.1" cy="531" r="2"/>
	<circle class="st1" cx="402.1" cy="595.8" r="2"/>
	<circle class="st1" cx="462.6" cy="531" r="2"/>
	<circle class="st1" cx="462.6" cy="595.8" r="2"/>
	<circle class="st1" cx="278.6" cy="651.6" r="2"/>
	<circle class="st1" cx="278.6" cy="716.4" r="2"/>
	<circle class="st1" cx="339.1" cy="651.6" r="2"/>
	<circle class="st1" cx="339.1" cy="716.4" r="2"/>
	<circle class="st1" cx="402.7" cy="651.6" r="2"/>
	<circle class="st1" cx="402.7" cy="716.4" r="2"/>
	<circle class="st1" cx="463.3" cy="651.6" r="2"/>
	<circle class="st1" cx="463.3" cy="716.4" r="2"/>
	<circle class="st1" cx="278.2" cy="775.5" r="2"/>
	<circle class="st1" cx="278.2" cy="840.4" r="2"/>
	<circle class="st1" cx="338.8" cy="775.5" r="2"/>
	<circle class="st1" cx="338.8" cy="840.4" r="2"/>
	<circle class="st1" cx="402.4" cy="775.5" r="2"/>
	<circle class="st1" cx="402.4" cy="840.4" r="2"/>
	<circle class="st1" cx="462.9" cy="775.5" r="2"/>
	<circle class="st1" cx="462.9" cy="840.4" r="2"/>
	<circle class="st1" cx="278.9" cy="896.1" r="2"/>
	<circle class="st1" cx="278.9" cy="961" r="2"/>
	<circle class="st1" cx="339.4" cy="896.1" r="2"/>
	<circle class="st1" cx="339.4" cy="961" r="2"/>
	<circle class="st1" cx="403.1" cy="896.1" r="2"/>
	<circle class="st1" cx="403.1" cy="961" r="2"/>
	<circle class="st1" cx="463.6" cy="896.1" r="2"/>
	<circle class="st1" cx="463.6" cy="961" r="2"/>
	<circle class="st1" cx="711.5" cy="463.3" r="2"/>
	<circle class="st1" cx="772.6" cy="462.8" r="2"/>
	<circle class="st1" cx="833.1" cy="462.8" r="2"/>
	<circle class="st1" cx="896.8" cy="397.9" r="2"/>
	<circle class="st1" cx="896.8" cy="462.8" r="2"/>
	<circle class="st1" cx="957.3" cy="397.9" r="2"/>
	<circle class="st1" cx="957.3" cy="462.8" r="2"/>
	<circle class="st1" cx="525.8" cy="531.5" r="2"/>
	<circle class="st1" cx="525.8" cy="596.4" r="2"/>
	<circle class="st1" cx="586.3" cy="531.5" r="2"/>
	<circle class="st1" cx="586.3" cy="596.4" r="2"/>
	<circle class="st1" cx="649.9" cy="531.5" r="2"/>
	<circle class="st1" cx="649.9" cy="596.4" r="2"/>
	<circle class="st1" cx="710.5" cy="531.5" r="2"/>
	<circle class="st1" cx="710.5" cy="596.4" r="2"/>
	<circle class="st1" cx="526.4" cy="652.1" r="2"/>
	<circle class="st1" cx="526.4" cy="717" r="2"/>
	<circle class="st1" cx="587" cy="652.1" r="2"/>
	<circle class="st1" cx="587" cy="717" r="2"/>
	<circle class="st1" cx="650.6" cy="652.1" r="2"/>
	<circle class="st1" cx="650.6" cy="717" r="2"/>
	<circle class="st1" cx="711.1" cy="652.1" r="2"/>
	<circle class="st1" cx="711.1" cy="717" r="2"/>
	<circle class="st1" cx="526.1" cy="776.1" r="2"/>
	<circle class="st1" cx="526.1" cy="840.9" r="2"/>
	<circle class="st1" cx="586.6" cy="776.1" r="2"/>
	<circle class="st1" cx="586.6" cy="840.9" r="2"/>
	<circle class="st1" cx="650.3" cy="776.1" r="2"/>
	<circle class="st1" cx="650.3" cy="840.9" r="2"/>
	<circle class="st1" cx="710.8" cy="776.1" r="2"/>
	<circle class="st1" cx="710.8" cy="840.9" r="2"/>
	<circle class="st1" cx="526.8" cy="896.7" r="2"/>
	<circle class="st1" cx="526.8" cy="961.5" r="2"/>
	<circle class="st1" cx="587.3" cy="896.7" r="2"/>
	<circle class="st1" cx="587.3" cy="961.5" r="2"/>
	<circle class="st1" cx="650.9" cy="896.7" r="2"/>
	<circle class="st1" cx="650.9" cy="961.5" r="2"/>
	<circle class="st1" cx="711.5" cy="896.7" r="2"/>
	<circle class="st1" cx="711.5" cy="961.5" r="2"/>
	<circle class="st1" cx="771.6" cy="531" r="2"/>
	<circle class="st1" cx="771.6" cy="595.8" r="2"/>
	<circle class="st1" cx="832.1" cy="531" r="2"/>
	<circle class="st1" cx="832.1" cy="595.8" r="2"/>
	<circle class="st1" cx="895.8" cy="531" r="2"/>
	<circle class="st1" cx="895.8" cy="595.8" r="2"/>
	<circle class="st1" cx="956.3" cy="531" r="2"/>
	<circle class="st1" cx="956.3" cy="595.8" r="2"/>
	<circle class="st1" cx="772.3" cy="651.6" r="2"/>
	<circle class="st1" cx="772.3" cy="716.4" r="2"/>
	<circle class="st1" cx="832.8" cy="651.6" r="2"/>
	<circle class="st1" cx="832.8" cy="716.4" r="2"/>
	<circle class="st1" cx="896.5" cy="651.6" r="2"/>
	<circle class="st1" cx="896.5" cy="716.4" r="2"/>
	<circle class="st1" cx="957" cy="651.6" r="2"/>
	<circle class="st1" cx="957" cy="716.4" r="2"/>
	<circle class="st1" cx="771.9" cy="775.5" r="2"/>
	<circle class="st1" cx="771.9" cy="840.4" r="2"/>
	<circle class="st1" cx="832.5" cy="775.5" r="2"/>
	<circle class="st1" cx="832.5" cy="840.4" r="2"/>
	<circle class="st1" cx="896.1" cy="775.5" r="2"/>
	<circle class="st1" cx="896.1" cy="840.4" r="2"/>
	<circle class="st1" cx="956.7" cy="775.5" r="2"/>
	<circle class="st1" cx="956.7" cy="840.4" r="2"/>
	<circle class="st1" cx="772.6" cy="896.1" r="2"/>
	<circle class="st1" cx="772.6" cy="961" r="2"/>
	<circle class="st1" cx="833.1" cy="896.1" r="2"/>
	<circle class="st1" cx="833.1" cy="961" r="2"/>
	<circle class="st1" cx="896.8" cy="896.1" r="2"/>
	<circle class="st1" cx="896.8" cy="961" r="2"/>
	<circle class="st1" cx="957.3" cy="896.1" r="2"/>
	<circle class="st1" cx="957.3" cy="961" r="2"/>
	<circle class="st1" cx="1021.5" cy="343" r="2"/>
	<circle class="st1" cx="1082.1" cy="343" r="2"/>
	<circle class="st1" cx="1145.7" cy="343" r="2"/>
	<circle class="st1" cx="1206.2" cy="278.1" r="2"/>
	<circle class="st1" cx="1206.2" cy="343" r="2"/>
	<path class="st1" d="M1022.2,396.7c1.1,0,2,0.9,2,2s-0.9,2-2,2s-2-0.9-2-2S1021.1,396.7,1022.2,396.7z"/>
	<path class="st1" d="M1022.2,461.5c1.1,0,2,0.9,2,2s-0.9,2-2,2s-2-0.9-2-2S1021.1,461.5,1022.2,461.5z"/>
	<circle class="st1" cx="1082.7" cy="398.7" r="2"/>
	<circle class="st1" cx="1082.7" cy="463.5" r="2"/>
	<circle class="st1" cx="1146.4" cy="398.7" r="2"/>
	<circle class="st1" cx="1146.4" cy="463.5" r="2"/>
	<circle class="st1" cx="1206.9" cy="398.7" r="2"/>
	<circle class="st1" cx="1206.9" cy="463.5" r="2"/>
	<circle class="st2" cx="1328.2" cy="218.4" r="2"/>
	<circle class="st2" cx="1391.9" cy="218.4" r="2"/>
	<circle class="st2" cx="1452.4" cy="153.6" r="2"/>
	<circle class="st2" cx="1452.4" cy="218.4" r="2"/>
	<circle class="st1" cx="1267.4" cy="277.5" r="2"/>
	<circle class="st1" cx="1267.4" cy="342.4" r="2"/>
	<circle class="st1" cx="1327.9" cy="277.5" r="2"/>
	<circle class="st1" cx="1327.9" cy="342.4" r="2"/>
	<circle class="st1" cx="1391.6" cy="277.5" r="2"/>
	<circle class="st1" cx="1391.6" cy="342.4" r="2"/>
	<circle class="st1" cx="1452.1" cy="277.5" r="2"/>
	<circle class="st1" cx="1452.1" cy="342.4" r="2"/>
	<circle class="st1" cx="1268.1" cy="398.1" r="2"/>
	<circle class="st1" cx="1268.1" cy="463" r="2"/>
	<circle class="st1" cx="1328.6" cy="398.1" r="2"/>
	<circle class="st1" cx="1328.6" cy="463" r="2"/>
	<circle class="st1" cx="1392.2" cy="398.1" r="2"/>
	<circle class="st1" cx="1392.2" cy="463" r="2"/>
	<circle class="st1" cx="1452.8" cy="398.1" r="2"/>
	<circle class="st1" cx="1452.8" cy="463" r="2"/>
	<circle class="st1" cx="1021.2" cy="531.8" r="2"/>
	<circle class="st1" cx="1021.2" cy="596.6" r="2"/>
	<circle class="st1" cx="1081.7" cy="531.8" r="2"/>
	<circle class="st1" cx="1081.7" cy="596.6" r="2"/>
	<circle class="st1" cx="1145.4" cy="531.8" r="2"/>
	<circle class="st1" cx="1145.4" cy="596.6" r="2"/>
	<circle class="st1" cx="1205.9" cy="531.8" r="2"/>
	<circle class="st1" cx="1205.9" cy="596.6" r="2"/>
	<circle class="st1" cx="1021.9" cy="652.3" r="2"/>
	<circle class="st1" cx="1021.9" cy="717.2" r="2"/>
	<circle class="st1" cx="1082.4" cy="652.3" r="2"/>
	<circle class="st1" cx="1082.4" cy="717.2" r="2"/>
	<circle class="st1" cx="1146.1" cy="652.3" r="2"/>
	<circle class="st1" cx="1146.1" cy="717.2" r="2"/>
	<circle class="st1" cx="1206.6" cy="652.3" r="2"/>
	<circle class="st1" cx="1206.6" cy="717.2" r="2"/>
	<circle class="st1" cx="1021.5" cy="776.3" r="2"/>
	<circle class="st1" cx="1021.5" cy="841.1" r="2"/>
	<circle class="st1" cx="1082.1" cy="776.3" r="2"/>
	<circle class="st1" cx="1082.1" cy="841.1" r="2"/>
	<circle class="st1" cx="1145.7" cy="776.3" r="2"/>
	<circle class="st1" cx="1145.7" cy="841.1" r="2"/>
	<circle class="st1" cx="1206.2" cy="776.3" r="2"/>
	<circle class="st1" cx="1206.2" cy="841.1" r="2"/>
	<path class="st1" d="M1022.2,894.9c1.1,0,2,0.9,2,2s-0.9,2-2,2s-2-0.9-2-2S1021.1,894.9,1022.2,894.9z"/>
	<path class="st1" d="M1022.2,959.7c1.1,0,2,0.9,2,2s-0.9,2-2,2s-2-0.9-2-2S1021.1,959.7,1022.2,959.7z"/>
	<circle class="st1" cx="1082.7" cy="896.9" r="2"/>
	<circle class="st1" cx="1082.7" cy="961.7" r="2"/>
	<circle class="st1" cx="1146.4" cy="896.9" r="2"/>
	<circle class="st1" cx="1146.4" cy="961.7" r="2"/>
	<circle class="st1" cx="1206.9" cy="896.9" r="2"/>
	<circle class="st1" cx="1206.9" cy="961.7" r="2"/>
	<circle class="st1" cx="1267.1" cy="531.2" r="2"/>
	<circle class="st1" cx="1267.1" cy="596" r="2"/>
	<circle class="st1" cx="1327.6" cy="531.2" r="2"/>
	<circle class="st1" cx="1327.6" cy="596" r="2"/>
	<circle class="st1" cx="1391.2" cy="531.2" r="2"/>
	<circle class="st1" cx="1391.2" cy="596" r="2"/>
	<circle class="st1" cx="1451.8" cy="531.2" r="2"/>
	<circle class="st1" cx="1451.8" cy="596" r="2"/>
	<circle class="st1" cx="1267.7" cy="651.8" r="2"/>
	<circle class="st1" cx="1267.7" cy="716.6" r="2"/>
	<circle class="st1" cx="1328.2" cy="651.8" r="2"/>
	<circle class="st1" cx="1328.2" cy="716.6" r="2"/>
	<circle class="st1" cx="1391.9" cy="651.8" r="2"/>
	<circle class="st1" cx="1391.9" cy="716.6" r="2"/>
	<circle class="st1" cx="1452.4" cy="651.8" r="2"/>
	<circle class="st1" cx="1452.4" cy="716.6" r="2"/>
	<circle class="st1" cx="1267.4" cy="775.8" r="2"/>
	<circle class="st1" cx="1267.4" cy="840.6" r="2"/>
	<circle class="st1" cx="1327.9" cy="775.8" r="2"/>
	<circle class="st1" cx="1327.9" cy="840.6" r="2"/>
	<circle class="st1" cx="1391.6" cy="775.8" r="2"/>
	<circle class="st1" cx="1452.1" cy="775.8" r="2"/>
	<circle class="st1" cx="1268.1" cy="896.3" r="2"/>
	<path class="st1" d="M1326.6,896.3c0-1.1,0.9-2,2-2"/>
	<circle class="st3" cx="1514.9" cy="98.4" r="2"/>
	<circle class="st3" cx="1575.4" cy="98.4" r="2"/>
	<circle class="st3" cx="1639.1" cy="33.5" r="2"/>
	<circle class="st3" cx="1639.1" cy="98.4" r="2"/>
	<circle class="st3" cx="1699.6" cy="33.5" r="2"/>
	<circle class="st3" cx="1699.6" cy="98.4" r="2"/>
	<circle class="st2" cx="1515.6" cy="154.1" r="2"/>
	<circle class="st2" cx="1515.6" cy="219" r="2"/>
	<circle class="st2" cx="1576.1" cy="154.1" r="2"/>
	<circle class="st2" cx="1576.1" cy="219" r="2"/>
	<circle class="st2" cx="1639.8" cy="154.1" r="2"/>
	<circle class="st2" cx="1639.8" cy="219" r="2"/>
	<circle class="st2" cx="1700.3" cy="154.1" r="2"/>
	<circle class="st2" cx="1700.3" cy="219" r="2"/>
	<circle class="st1" cx="1515.2" cy="278.1" r="2"/>
	<circle class="st1" cx="1515.2" cy="343" r="2"/>
	<circle class="st1" cx="1575.8" cy="278.1" r="2"/>
	<circle class="st1" cx="1575.8" cy="343" r="2"/>
	<circle class="st1" cx="1639.4" cy="278.1" r="2"/>
	<circle class="st1" cx="1639.4" cy="343" r="2"/>
	<circle class="st1" cx="1699.9" cy="278.1" r="2"/>
	<circle class="st1" cx="1699.9" cy="343" r="2"/>
	<circle class="st1" cx="1515.9" cy="398.7" r="2"/>
	<circle class="st1" cx="1515.9" cy="463.5" r="2"/>
	<circle class="st1" cx="1576.4" cy="398.7" r="2"/>
	<circle class="st1" cx="1576.4" cy="463.5" r="2"/>
	<circle class="st1" cx="1640.1" cy="398.7" r="2"/>
	<circle class="st1" cx="1640.1" cy="463.5" r="2"/>
	<circle class="st1" cx="1700.6" cy="398.7" r="2"/>
	<circle class="st1" cx="1700.6" cy="463.5" r="2"/>
	<circle class="st3" cx="1760.8" cy="33" r="2"/>
	<circle class="st3" cx="1760.8" cy="97.8" r="2"/>
	<circle class="st3" cx="1821.3" cy="33" r="2"/>
	<circle class="st3" cx="1821.3" cy="97.8" r="2"/>
	<circle class="st3" cx="1884.9" cy="33" r="2"/>
	<circle class="st3" cx="1884.9" cy="97.8" r="2"/>
	<circle class="st3" cx="1945.5" cy="33" r="2"/>
	<circle class="st3" cx="1945.5" cy="97.8" r="2"/>
	<circle class="st2" cx="1761.4" cy="153.6" r="2"/>
	<circle class="st2" cx="1761.4" cy="218.4" r="2"/>
	<circle class="st2" cx="1822" cy="153.6" r="2"/>
	<circle class="st2" cx="1822" cy="218.4" r="2"/>
	<circle class="st2" cx="1885.6" cy="153.6" r="2"/>
	<circle class="st2" cx="1885.6" cy="218.4" r="2"/>
	<circle class="st2" cx="1946.1" cy="153.6" r="2"/>
	<circle class="st2" cx="1946.1" cy="218.4" r="2"/>
	<circle class="st1" cx="1761.1" cy="277.5" r="2"/>
	<circle class="st1" cx="1761.1" cy="342.4" r="2"/>
	<circle class="st1" cx="1821.6" cy="277.5" r="2"/>
	<circle class="st1" cx="1821.6" cy="342.4" r="2"/>
	<circle class="st1" cx="1885.3" cy="277.5" r="2"/>
	<circle class="st1" cx="1885.3" cy="342.4" r="2"/>
	<circle class="st1" cx="1945.8" cy="277.5" r="2"/>
	<circle class="st1" cx="1945.8" cy="342.4" r="2"/>
	<circle class="st1" cx="1761.8" cy="398.1" r="2"/>
	<circle class="st1" cx="1761.8" cy="463" r="2"/>
	<circle class="st1" cx="1822.3" cy="398.1" r="2"/>
	<circle class="st1" cx="1822.3" cy="463" r="2"/>
	<circle class="st1" cx="1885.9" cy="398.1" r="2"/>
	<circle class="st1" cx="1885.9" cy="463" r="2"/>
	<circle class="st1" cx="1946.5" cy="398.1" r="2"/>
	<circle class="st1" cx="1946.5" cy="463" r="2"/>
	<circle class="st1" cx="1514.9" cy="531.8" r="2"/>
	<circle class="st1" cx="1514.9" cy="596.6" r="2"/>
	<circle class="st1" cx="1575.4" cy="531.8" r="2"/>
	<circle class="st1" cx="1575.4" cy="596.6" r="2"/>
	<circle class="st1" cx="1639.1" cy="531.8" r="2"/>
	<circle class="st1" cx="1639.1" cy="596.6" r="2"/>
	<circle class="st1" cx="1699.6" cy="531.8" r="2"/>
	<circle class="st1" cx="1699.6" cy="596.6" r="2"/>
	<circle class="st1" cx="1515.6" cy="652.3" r="2"/>
	<circle class="st1" cx="1515.6" cy="717.2" r="2"/>
	<circle class="st1" cx="1576.1" cy="652.3" r="2"/>
	<circle class="st1" cx="1639.8" cy="652.3" r="2"/>
	<circle class="st1" cx="1576.4" cy="961.7" r="2"/>
	<circle class="st1" cx="1640.1" cy="961.7" r="2"/>
	<circle class="st1" cx="1700.6" cy="896.9" r="2"/>
	<circle class="st1" cx="1700.6" cy="961.7" r="2"/>
	<circle class="st1" cx="1760.8" cy="531.2" r="2"/>
	<circle class="st1" cx="1760.8" cy="596" r="2"/>
	<circle class="st1" cx="1821.3" cy="531.2" r="2"/>
	<circle class="st1" cx="1884.9" cy="531.2" r="2"/>
	<path class="st1" d="M1887.6,716.6c0,1.1-0.9,2-2,2"/>
	<circle class="st1" cx="1946.1" cy="716.6" r="2"/>
	<circle class="st1" cx="1761.1" cy="840.6" r="2"/>
	<circle class="st1" cx="1821.6" cy="775.8" r="2"/>
	<circle class="st1" cx="1821.6" cy="840.6" r="2"/>
	<circle class="st1" cx="1885.3" cy="775.8" r="2"/>
	<circle class="st1" cx="1885.3" cy="840.6" r="2"/>
	<circle class="st1" cx="1945.8" cy="775.8" r="2"/>
	<circle class="st1" cx="1945.8" cy="840.6" r="2"/>
	<circle class="st1" cx="1761.8" cy="896.3" r="2"/>
	<circle class="st1" cx="1761.8" cy="961.2" r="2"/>
	<circle class="st1" cx="1822.3" cy="896.3" r="2"/>
	<circle class="st1" cx="1822.3" cy="961.2" r="2"/>
	<circle class="st1" cx="1885.9" cy="896.3" r="2"/>
	<circle class="st1" cx="1885.9" cy="961.2" r="2"/>
	<circle class="st1" cx="1946.5" cy="896.3" r="2"/>
	<circle class="st1" cx="1946.5" cy="961.2" r="2"/>
</g>
</svg>
