<?xml version="1.0" encoding="UTF-8"?><svg id="Icons" xmlns="http://www.w3.org/2000/svg" viewBox="0 0 487.74 446.79"><defs><style>.cls-1,.cls-2,.cls-3,.cls-4{fill:none;stroke:#007236;stroke-width:1.7px;}.cls-1,.cls-4{stroke-linejoin:round;}.cls-2,.cls-3{stroke-miterlimit:10;}.cls-2,.cls-4{stroke-linecap:round;}.cls-5{fill:#bfd730;}.cls-5,.cls-6{stroke-width:0px;}.cls-6{fill:#007236;}</style></defs><circle class="cls-5" cx="439.58" cy="48.16" r="48.16"/><circle class="cls-5" cx="309.27" cy="48.16" r="48.16"/><circle class="cls-5" cx="179.34" cy="48.16" r="48.16"/><circle class="cls-5" cx="49.54" cy="48.16" r="48.16"/><circle class="cls-5" cx="439.58" cy="164.1" r="48.16"/><circle class="cls-5" cx="309.27" cy="164.1" r="48.16"/><circle class="cls-5" cx="179.34" cy="164.1" r="48.16"/><circle class="cls-5" cx="49.54" cy="164.1" r="48.16"/><circle class="cls-5" cx="439.58" cy="282.03" r="48.16"/><circle class="cls-5" cx="309.27" cy="282.03" r="48.16"/><circle class="cls-5" cx="179.34" cy="282.03" r="48.16"/><circle class="cls-5" cx="49.54" cy="282.03" r="48.16"/><circle class="cls-5" cx="439.58" cy="398.63" r="48.16"/><circle class="cls-5" cx="309.27" cy="398.63" r="48.16"/><circle class="cls-5" cx="179.34" cy="398.63" r="48.16"/><circle class="cls-5" cx="49.54" cy="398.63" r="48.16"/><path class="cls-1" d="m207.8,186.59s-1.87-18.02-3.33-21.92"/><line class="cls-1" x1="197.17" y1="175.72" x2="198.38" y2="186.59"/><path class="cls-1" d="m176.5,186.59l1.49-17.8s5.48-.27,11.58-.67c9.07-.58,11.8-1.88,13.78-2.83,1.38-.66,3.19-1.84,2.85-4.03-.32-2.07-1.86-3.63-4.12-3.29-5.87.89-9.43,1.42-13.09,1.4-7.97-.05-13.17-2.34-21.77-2.34-11.3,0-14.48,1.71-16.86,5.7-2.65,4.44-3.62,23.85-3.62,23.85"/><line class="cls-1" x1="156.95" y1="173.46" x2="156.34" y2="186.59"/><path class="cls-1" d="m166.27,133.04c-5.61,0-10.16,4.55-10.16,10.16s4.55,10.16,10.16,10.16,10.16-4.55,10.16-10.16-4.55-10.16-10.16-10.16Z"/><path class="cls-1" d="m190.2,136.92c-5.24,0-9.49,4.25-9.49,9.49s4.25,9.49,9.49,9.49,9.49-4.25,9.49-9.49-4.25-9.49-9.49-9.49Z"/><path class="cls-1" d="m286.15,20.05c.96-5.36,5.63-9.43,11.27-9.43,1.83,0,3.56.44,5.09,1.21,3-2.44,6.82-3.91,10.99-3.91,6.09,0,11.44,3.12,14.56,7.85.43-.04.86-.07,1.29-.07,7.48,0,13.54,6.06,13.54,13.54s-6.07,13.54-13.54,13.54h-41.91c-6.3,0-11.41-5.11-11.41-11.41,0-5.86,4.43-10.69,10.12-11.33Z"/><line class="cls-1" x1="321.98" y1="82.59" x2="321.98" y2="88.43"/><line class="cls-1" x1="296.94" y1="88.43" x2="296.94" y2="82.59"/><path class="cls-1" d="m309.46,51.6c-5.99,0-10.85,4.86-10.85,10.85s4.86,10.85,10.85,10.85,10.85-4.86,10.85-10.85-4.86-10.85-10.85-10.85Z"/><path class="cls-1" d="m299.32,66.33c-6.38,1.68-8.83,5.7-9.78,11.65l-1.01,10.46"/><path class="cls-1" d="m319.61,66.33c6.38,1.68,8.83,5.7,9.78,11.65l1.01,10.46"/><path class="cls-1" d="m60.08,287.97c-2.06.84-4.11.59-4.11.59l-.29,2.2c-1.09-.69-2.51-1.41-3.48-1.6-.28-.06-.55-.08-.81-.08-.84,0-2.04.3-2.99,1.74-.28.43-.46.96-.54,1.5-.15-.02-.3-.03-.46-.03-.87,0-1.68.33-2.41.99-.64.58-1.13,1.54-1.22,2.52-1.25.07-2.39.77-3.01,1.86-.58,1.02-.69,2.27-.36,3.28-.88.71-1.38,1.64-1.41,2.7-.05,1.55.94,3.2,2.46,4.12,1.75,1.06,3.28,1.6,4.54,1.6.82,0,1.52-.23,2.09-.68.82-.65,1.22-1.36,1.38-1.97.66-.09,1.56-.36,2.35-1.16.78-.79,1.1-1.58,1.21-2.2.67-.1,1.53-.36,2.3-1.04.94-.83,1.29-1.88,1.41-2.67.67-.11,1.57-.5,2.43-1.54,2.67-3.26,1.57-7.64.93-10.12Z"/><line class="cls-1" x1="37.59" y1="313.22" x2="41.75" y2="307.93"/><line class="cls-1" x1="27.21" y1="293.62" x2="16.47" y2="306.72"/><path class="cls-1" d="m60.11,287.98c2.72-.98,5.11-2.9,6.22-4.73,1.01-1.67,1.02-3.24.12-4.45.12-.06,3.44-1.33,2.45-4.76.12-.08,3.4-1.96,1.72-5.28.02-.01,1.74-1.71,1.88-3.89.19-1.92-.8-2.97-2.74-3.27-3.42,2.84-11.97,7.25-19.27,7.15-4.75-.06-8.17-.58-8.48-4.75-.01-.72.06-1.47-1.21-1.44-2.91,0-4.2,5.31-4.47,8.11-.45,4.57,1.43,9.97,1.46,10.03l-4.07,4.97"/><path class="cls-4" d="m32.81,283.35c.63,1.16,2.08,4.64,2.35,7.76.27,3.18-.42,5.37-1.93,6.16-.52.27-1.07.4-1.64.4h0c-1.38,0-2.67-.79-3.3-2.01l-4.07-7.71c-.81-1.63-.51-2.93-.14-4.13l2.25-7.26c1.05-2.6,3.16-4.45,6.13-5.43l3.93-1"/><line class="cls-1" x1="51.66" y1="250.83" x2="42.27" y2="265.38"/><line class="cls-1" x1="68.11" y1="262.8" x2="74.15" y2="254.95"/><path class="cls-4" d="m19.97,167.49c-1.66.03-3.07.94-3.89,2.5-.79,1.52-.83,3.31-.13,4.57"/><path class="cls-4" d="m82.02,168.07c.66-1.08,1.13-2.25,1.38-3.48.58-2.84.02-5.74-1.57-8.16-1.6-2.42-4.04-4.07-6.88-4.66-3.14-.64-6.45.16-8.95,2.16"/><path class="cls-4" d="m43.73,172.03l-22.78,2.29c-1.78.39-3.68,1.91-3.62,4.99.05,2.65,1.97,4.63,4.67,4.82l23.93-.4c2.35-.03,6.45-.55,7.53-3.68"/><path class="cls-4" d="m37.98,156.13c3.66,2.12,11.5,6.88,14.5,9.62l4.25,15.3c.53,1.62,2.1,3.28,5.36,2.41l16.8-5.82c2.56-.94,3.42-2.68,2.6-5.42-.7-2.32-3.12-3.28-5.41-2.58l-11.05,3.35-.05-5.87c0-6.91,0-10.07-3.13-14.42-2.02-2.81-10.09-8.62-22.11-8.62s-18.9,4.03-20.79,11.35c-.6,2.34-.6,12.06,14.74,17.61"/><path class="cls-4" d="m163.09,29.37c2.89-1.4,4.1-4.89,2.7-7.78"/><path class="cls-4" d="m152.16,14.96c-3.43.14-6.12,3.05-5.98,6.48"/><path class="cls-1" d="m166.38,41.55l-9.43-2.9.74-9.64,4.08-3.63c.36-.33.51-.82.38-1.29l-1.17-4.47c-.12-.45-.46-.8-.9-.92-.08-.02-2.18-.61-4.68-.38-2.32.21-4.17,1.13-4.25,1.17-.43.22-.71.66-.71,1.15v7.43s-3.61,14.54-3.61,14.54c-.27,1.1.35,2.38,1.37,2.85l13.04,7.74-3.84,19.46"/><path class="cls-1" d="m211.04,81.35l1.12-5.67c1.31-5.64-1.06-9.5-6.44-11.94-4.68-2.12-16.69-6.34-19.37-7.27l2.91-.9"/><line class="cls-1" x1="202.38" y1="75.91" x2="201.58" y2="81.35"/><path class="cls-1" d="m193.02,47.35l-16.36,2.07c-1.51.23-2.77,1.28-3.26,2.72-.5,1.44-.15,3.04.9,4.15l11.02,11.61-3.03,13.46"/><path class="cls-4" d="m188.08,36.15c0-5.36-4.43-9.7-9.9-9.7s-9.9,4.34-9.9,9.7,4.43,9.7,9.9,9.7,9.9-4.34,9.9-9.7Z"/><path class="cls-4" d="m194.7,59.45c-1.87-1.74-3.03-4.23-3.03-6.98,0-5.28,4.28-9.56,9.55-9.56s9.55,4.28,9.55,9.56-4.11,9.38-9.24,9.55"/><path class="cls-1" d="m37.48,70.83c.82,3.18,4.85,3.79,6.76,3.03l1.17-5.09c1.85,1.09,4.32.59,4.32.59l.72-7.26"/><path class="cls-1" d="m14.27,74.87h15.46c3.51-.21,5.3-1.37,6.81-2.99l9.1-9.69,11.88-10.12c1.71-1.56,1.77-4.11-.01-6.16-2.02-2.33-4.21-2.42-5.83-1.18l-11.91,9.92.23-10.17s6.45-3.53,7.47-4.08"/><polyline class="cls-1" points="50.21 29.88 32.22 38.06 19.4 55.27 14.3 57.15"/><polyline class="cls-1" points="77.03 26.3 78.41 21.03 54.04 14.65 44.7 50.35"/><polyline class="cls-1" points="48.8 47.12 58.83 20.09 82.45 28.84 67.71 68.59 47.18 60.88"/><path class="cls-1" d="m56.27,44.78c-.06-.95.07-1.93.42-2.88,1.34-3.63,5.38-5.48,9-4.13,3.63,1.35,5.48,5.38,4.13,9.01-1.35,3.63-5.38,5.48-9.01,4.13-.77-.29-1.46-.69-2.06-1.19"/><path class="cls-1" d="m65.18,22.44c-1.3,3.51-5.2,5.3-8.71,4"/><path class="cls-1" d="m76.27,26.56c-1.3,3.51.49,7.41,4,8.71"/><path class="cls-1" d="m61.36,66.19c1.3-3.51,5.2-5.3,8.71-4"/><path class="cls-1" d="m441.43,61.34l4.43-13.58c1.44-4.16,5.15-6.75,9.64-6.75,6.03,0,10.91,4.89,10.91,10.91l-1.56,20.85"/><path class="cls-1" d="m453.89,55.09l-7.48,18.31c-.61,1.42-2.06,2.24-3.65,2.24-.55,0-1.12-.1-1.68-.31-2.14-.82-3.34-3.02-2.67-4.99l.85-2.52"/><path class="cls-4" d="m468.77,41.26c-5.21,0-9.44-4.23-9.44-9.44s4.23-9.44,9.44-9.44,9.44,4.23,9.44,9.44-4.23,9.44-9.44,9.44Z"/><line class="cls-1" x1="422.44" y1="72.63" x2="422.79" y2="67.38"/><path class="cls-1" d="m416.21,54.55c1.22,2.91,3.18,7.54,4.33,10.23.84,1.96,2.28,3.07,4.25,3.07h13.79c2.28.05,3.95-.98,4.09-3.35.12-1.91-.71-3.65-3.39-3.9l-10.46-1.11-3.4-10.95c-1.62-4.21-4.79-6.86-9.41-6.99-5.68-.16-9.45,3.54-10.28,7.94-1.29,6.82-1.84,23.14-1.84,23.14"/><path class="cls-4" d="m448.01,69.41c-3.04-.49-5.13-1.65-6.34-2.54"/><path class="cls-1" d="m437.25,25.58l-19.92-4.75-1.07,2.52c-.14.33.08.75.5.93l10.49,2.57,9.62,5.95c.29.12.62.1.84-.06.21-.16.28-.43.17-.69l-1.7-3.94,1.07-2.52Z"/><path class="cls-1" d="m437.25,25.58l1.29-3.03c.66-1.55.08-2.85-1.24-3.09l-17.15-3.18c-2-.37-3.44.35-3.22,2.21l.41,2.35"/><path class="cls-4" d="m416.74,24.25c-1.05,1.53-1.67,3.38-1.67,5.38,0,5.23,4.24,9.47,9.47,9.47,4.78,0,8.73-3.54,9.38-8.14"/><path class="cls-1" d="m274.57,161.11c-3.12.83-3.57,3.71-3.63,8.12-.03,2.89.57,5.32,1.4,6.89.41.79,1.01,1.37,2.43,1.37.33,0,.71-.03,1.14-.1,2.87-.46,5.24-3.21,5.28-7.58.04-4.19-2.04-7.88-4.25-8.64-.42-.14-1.58-.27-2.37-.06Z"/><path class="cls-3" d="m300.4,144.27c0-6.76,5.48-12.24,12.25-12.24s12.25,5.48,12.25,12.24-5.49,12.25-12.25,12.25-12.25-5.49-12.25-12.25Z"/><path class="cls-1" d="m297.2,161.3h7.99l7.45,5.69,7.46-5.69c9.37.61,14.33,5.29,14.33,16.79v17.67"/><path class="cls-3" d="m308.3,177.03c0,1.98-1.6,3.58-3.58,3.58s-3.58-1.61-3.58-3.58,1.6-3.58,3.58-3.58,3.58,1.6,3.58,3.58Z"/><path class="cls-4" d="m315.57,181.81l-.91-.9v-5.2c0-3.29,2.67-5.95,5.95-5.95s5.95,2.67,5.95,5.95v5.2l-1.08,1.08"/><path class="cls-3" d="m320.62,169.76v-4.15s0-2.67-.59-4.13"/><path class="cls-3" d="m304.72,173.45v-7.84s0-2.64.58-4.09"/><path class="cls-4" d="m284.52,170.13v-7.95s3.5,0,3.5,0c1.1,0,1.98.89,1.98,1.99,0,1.09-.89,1.98-1.99,1.98h-.75l5.82,7.07"/><line class="cls-4" x1="293.09" y1="166.16" x2="287.27" y2="173.22"/><polyline class="cls-1" points="277.68 161.52 277.68 157.01 297.2 157.01 297.2 179.55 277.68 179.55 277.68 176.7"/><line class="cls-1" x1="298.94" y1="195.75" x2="298.94" y2="182.46"/><path class="cls-1" d="m197.02,292.21c4.27-.08,13.03-.71,17.1-.85,0,0,4.05-.05,3.86-4.48-.21-4.92-5.3-4.39-5.3-4.39l-10.49.59-3.16-6.67"/><path class="cls-1" d="m172.39,272.05l-7.88,15.25c-.49.93-1.48,1.09-2.53.8l-16.8-5.28s-2.4-.9-1.57-3.83c.57-1.99,2.02-3.04,3.77-2.73l11.48,2.96s3.02-7.55,4.7-12.75c1.45-4.48,4.89-7.28,11.17-6.55,7.27.85,18.05,6.57,18.05,6.57,8.48,4.31,6.03,11.69,5.53,15.71-.37,2.96-1.54,11.84-1.54,11.84l9.53,4.41s4.72,1.92,2.61,6.37c-1.13,2.37-3.16,3.13-5.51,2.14-4.31-2.12-12.86-5.68-15.89-7.5-1.1-.67-2.14-2.08-1.9-5.82l.51-13.04c-2.84-1.36-9.22-3.38-15.63-4.86"/><path class="cls-1" d="m163.2,265.8c0,4.78-3.88,8.66-8.66,8.66s-8.66-3.88-8.66-8.66,3.88-8.66,8.66-8.66,8.66,3.88,8.66,8.66Z"/><line class="cls-2" x1="149.42" y1="293.69" x2="150.49" y2="293.69"/><line class="cls-2" x1="158.29" y1="299.29" x2="159.36" y2="299.29"/><line class="cls-2" x1="157.14" y1="293.92" x2="158.22" y2="293.92"/><line class="cls-2" x1="161.19" y1="292.76" x2="162.26" y2="292.76"/><path class="cls-1" d="m169.59,277.58c1.58,1.44,3.76,3.46,3.76,3.46l-6.67,9.04s-1.28,2.31,1.29,4.28c2.41,1.87,4.14-.01,4.14-.01l10.15-11.94c.99-1.1.83-2.6-.01-3.33"/><path class="cls-3" d="m275.95,284.61c12.1,3.69,16.77,11.78,14.31,24.7"/><path class="cls-3" d="m282.12,270.37c4.74,1.16,9.1,2.64,13.05,4.43"/><path class="cls-3" d="m342.98,284.61c-12.1,3.69-16.77,11.78-14.31,24.7"/><path class="cls-3" d="m336.8,270.37c-4.75,1.16-9.1,2.64-13.05,4.43"/><path class="cls-1" d="m313.47,266.75h-8.03c-5.04.33-7.72,2.85-7.72,9.04l.03,12.01c0,1.92,1.36,3.46,3.9,3.46v18.28c0,2.14,1.74,3.88,3.89,3.88s3.88-1.74,3.88-3.88c0,2.14,1.74,3.88,3.89,3.88s3.88-1.74,3.88-3.88l.04-18.28c2.61,0,3.92-1.54,3.92-3.46l.03-12.01c0-6.19-2.67-8.71-7.72-9.04Z"/><path class="cls-1" d="m309.46,263.04c3.64,0,6.6-2.95,6.6-6.6s-2.95-6.59-6.6-6.59-6.59,2.95-6.59,6.59,2.95,6.6,6.59,6.6Z"/><path class="cls-1" d="m436.34,154.77c-4.65,0-8.42,3.77-8.42,8.42s3.77,8.42,8.42,8.42,8.42-3.77,8.42-8.42-3.77-8.42-8.42-8.42Z"/><line class="cls-4" x1="430.53" y1="181.57" x2="430.53" y2="189.15"/><path class="cls-1" d="m432.23,170.54c-7.1,1-9.28,3.31-9.86,10.1l-.04,3.93c-5.47-4.99-10.94-10.5-14-15.02-8.55-12.66.95-28.83,15.41-28.83,6.16,0,11.6,3.01,14.98,7.63,3.37-4.62,8.81-7.63,14.97-7.63,14.21,0,23.29,15,15.72,28.43-4.44,7.86-14.26,16.58-21.61,22.43l.02-14.4s9.15-5.58,13.56-19.34c.73-1.9.77-3.81-.72-4.8-1.18-.78-3.42-1.03-4.47,1.13,0,0-4.58,10.96-13.63,14.69"/><path class="cls-1" d="m472.93,296.69l-9.84-.55c7.46-9.22,7.65-12.38,6.76-14.8-1.03-4.52-4.95-12.14-7.59-15.49-1.75-2.22-4.59-3.14-7.39-2.03-1.24.49-3.05,2.06-4.29,3.66-1.42,1.83-5.43,7.49-5.43,7.49,0,0-6.57,2.24-8.63,2.95-1.86.64-2.39,2.13-1.89,3.64.55,1.66,1.83,2.04,3.57,1.68,7.84-1.8,7.46-1.75,9.54-2.34,1.2-.34,1.8-.99,2.38-1.47,1.17-.96,2.65-2.19,4.62-4.06l4.58,9.08c-1.72,4.03-4.2,9.79-5.14,11.84-1.12,2.45-1.07,3.87-.46,5,.61,1.13,1.8,1.84,3.08,1.84h16.13c1.94,0,3.22-1.34,3.22-3.28s-1.28-3.16-3.22-3.16Z"/><path class="cls-1" d="m458.21,282.27l-12.24,1.99c-1.37.26-2.52,1.5-2.5,3.73l.23,11.88c0,1.94,1.29,3.27,3.23,3.27s3.2-1.33,3.2-3.27l.31-9.58,6.71-.77"/><path class="cls-1" d="m423.66,264.86c0-3.58,2.9-6.49,6.49-6.49s6.49,2.9,6.49,6.49-2.91,6.49-6.49,6.49-6.49-2.9-6.49-6.49Z"/><path class="cls-1" d="m403.81,298.16c-1.59-.44-2.71-1.5-2.71-3.12,0-2.57,2.01-3.78,4.5-3.79h1.38"/><path class="cls-1" d="m430.11,291.44c-4.95-6.53-4.03-13.07-5.47-17.4-.71-2.12-2.7-4.27-5.14-4.87-2.45-.6-5.9.08-8.27,3.33-2.66,3.66-3.54,5.59-4.67,8.83-.93,2.67-1.14,4.93-1.04,6.53.1,1.53.62,2.88,2.18,3.97,1.61,1.12,5.37,2.94,8.54,4.54l-7.97.02c-2.5,0-4.29,1.32-4.29,3.62s1.79,3.14,4.29,3.14h14.12c1.19,0,3.32-.14,4.2-2.49.57-1.52.52-3.02-.24-3.98-3.05-3.82-10.54-10.88-10.54-10.88l2.15-5.98s3.12,11.04,6.47,14.63c2.63,2.82,4.11,2.61,5.54,1.44,1.32-1.08,1.17-3.09.14-4.46Z"/><path class="cls-1" d="m454.3,256.61c0,3.74-3.03,6.76-6.76,6.76s-6.76-3.03-6.76-6.76,3.03-6.76,6.76-6.76,6.76,3.03,6.76,6.76Z"/><path class="cls-1" d="m319.22,23.34c0,4.7-3.81,11.69-8.51,11.69s-8.51-6.99-8.51-11.69,3.81-8.51,8.51-8.51,8.51,3.81,8.51,8.51Z"/><polygon class="cls-1" points="310.79 35.1 312.45 38.41 309.13 38.41 310.79 35.1"/><path class="cls-1" d="m47.13,414.58c-.59.05-1.2.08-1.83.08-9.99,0-14.06-3.47-17.74-12.74-1.93-4.85-4.36-8.62-5.82-10.18-1.11-1.18-1.84-1.97-1.5-2.95.47-1.37,2.4-2.45,4.4-2.45,1.47,0,4.26.58,6.41,4.44.04.07.08.14.12.21v-16.18c0-1.77,1.4-3.67,3.67-3.67.98,0,1.9.38,2.59,1.08.69.7,1.07,1.62,1.07,2.6v12.73s.02-16.37.02-16.37c0-1.76,1.43-3.67,3.7-3.67,2.02,0,3.67,1.64,3.67,3.67v17.43s0-15.43,0-15.43c0-1.76,1.4-3.67,3.67-3.67.98,0,1.95.38,2.64,1.07.7.69,1.08,1.62,1.08,2.6v16.67-11.77c0-1.64,1.31-3.41,3.42-3.42,1.89,0,3.47,1.54,3.47,3.42v21.15"/><path class="cls-1" d="m43.54,428.1c2.64,2.38,6.72,2.17,9.1-.47l19.86-21.12s3.08-4.33,2.89-7.98c-.09-1.68,3.34-4.19,3.34-4.19,0,0,.94-1.92-1.26-3.9-2.2-1.98-4.01-.85-4.01-.85,0,0-2.14,3.67-3.82,3.76-3.66.19-7.64,3.7-7.64,3.7l-18.94,21.95c-2.38,2.64-2.17,6.72.47,9.1Z"/><rect class="cls-1" x="144.73" y="379.83" width="22.14" height="17.04"/><polygon class="cls-1" points="155.8 369.38 166.87 379.83 144.73 379.83 155.8 369.38"/><rect class="cls-1" x="148.77" y="385.52" width="5.68" height="11.35"/><line class="cls-1" x1="142.41" y1="372.78" x2="170.33" y2="400.71"/><line class="cls-1" x1="170.78" y1="372.33" x2="141.95" y2="401.16"/><polygon class="cls-1" points="179.87 378.08 211.39 374.74 213.51 393.73 181.72 397.1 179.87 378.08"/><path class="cls-1" d="m211.96,379.85c-2.8.3-5.33-1.75-5.65-4.57"/><path class="cls-1" d="m212.95,388.77c-2.81.3-4.82,2.83-4.51,5.65"/><path class="cls-1" d="m181.19,391.98c2.8-.3,5.33,1.75,5.65,4.57"/><path class="cls-1" d="m184.96,377.41c.31,2.82-1.71,5.35-4.51,5.65"/><ellipse class="cls-1" cx="196.56" cy="385.92" rx="5.32" ry="5.36" transform="translate(-151.74 128.51) rotate(-26.54)"/><line class="cls-1" x1="182.18" y1="372.14" x2="210.1" y2="400.07"/><line class="cls-1" x1="210.55" y1="371.69" x2="181.72" y2="400.52"/><line class="cls-1" x1="325.69" y1="427.01" x2="325.69" y2="434.55"/><line class="cls-1" x1="293.36" y1="434.55" x2="293.36" y2="427.01"/><path class="cls-1" d="m309.52,380.91c-7.74,0-14.01,6.27-14.01,14.01s6.27,14.01,14.01,14.01,14.01-6.27,14.01-14.01-6.27-14.01-14.01-14.01Z"/><path class="cls-1" d="m300.52,406.01c-8.24,2.17-15.49,7.36-16.72,15.04l-1.31,10.55"/><path class="cls-1" d="m318.52,406.01c8.24,2.17,15.49,7.36,16.72,15.04l1.31,10.55"/><ellipse class="cls-1" cx="332.39" cy="48.49" rx="6.25" ry="2.56"/><ellipse class="cls-1" cx="326.62" cy="56.01" rx="4.07" ry="2.42"/><line class="cls-1" x1="189.4" y1="433.7" x2="189.4" y2="438.94"/><line class="cls-1" x1="166.96" y1="438.94" x2="166.96" y2="433.7"/><path class="cls-1" d="m178.18,405.95c-5.37,0-9.72,4.35-9.72,9.72s4.35,9.72,9.72,9.72,9.72-4.35,9.72-9.72-4.35-9.72-9.72-9.72Z"/><path class="cls-1" d="m169.1,419.14c-5.72,1.5-7.91,5.11-8.76,10.43l-.91,9.37"/><path class="cls-1" d="m187.27,419.14c5.72,1.5,7.91,5.11,8.76,10.43l.91,9.37"/><line class="cls-1" x1="289.97" y1="392.15" x2="278.88" y2="390.79"/><line class="cls-1" x1="289.97" y1="395.85" x2="278.88" y2="397.8"/><path class="cls-1" d="m281.12,400.82s-.92,3.02-3.87,2.14-2.94-4.28-2.36-5.06c0,0-3.7-.25-3.7-3.56s3.7-3.56,3.7-3.56c-.58-.78-.58-4.18,2.36-5.06s3.87,2.14,3.87,2.14"/><line class="cls-1" x1="329.56" y1="392.15" x2="340.65" y2="390.79"/><line class="cls-1" x1="329.56" y1="395.85" x2="340.65" y2="397.8"/><path class="cls-1" d="m338.42,400.82s.92,3.02,3.87,2.14,2.94-4.28,2.36-5.06c0,0,3.7-.25,3.7-3.56s-3.7-3.56-3.7-3.56c.58-.78.58-4.18-2.36-5.06s-3.87,2.14-3.87,2.14"/><path class="cls-6" d="m332.65,369.6c-.08.09-.17.14-.3.16-.12.01-.23-.02-.33-.1l-1.39-1.17c-.09-.08-.14-.17-.16-.3-.01-.12.02-.23.1-.33.92-1.02,1.89-1.52,2.92-1.52,1.03,0,2.02.41,2.97,1.21s1.45,1.7,1.62,2.78c.17,1.09-.11,2.06-.84,2.93l-.45.53c-.75.89-1.94,1.42-3.57,1.59-.55.06-.96.11-1.24.16-.28.05-.6.15-.96.31-.36.16-.66.38-.89.66l-.27.32c-.08.09-.18.14-.3.15-.13,0-.23-.02-.32-.1l-1.39-1.17c-.09-.08-.14-.18-.15-.3s.02-.23.1-.32l.67-.8c.23-.28.54-.51.91-.68.37-.17.69-.28.95-.32.26-.04.64-.09,1.14-.14.56-.05,1-.1,1.32-.16.32-.05.68-.18,1.1-.39.42-.2.77-.47,1.06-.82l.24-.28c.29-.37.43-.77.43-1.2,0-.43-.18-.8-.54-1.1-.4-.33-.78-.49-1.15-.46-.37.02-.8.3-1.27.84Zm-4.22,8.96l-1.42,1.69c-.08.09-.18.14-.3.15-.13,0-.23-.02-.32-.1l-1.39-1.17c-.09-.08-.14-.18-.16-.3-.01-.12.02-.23.1-.33l1.42-1.69c.08-.09.17-.14.3-.16.12-.01.23.02.33.1l1.39,1.17c.09.08.14.18.15.3,0,.13-.02.23-.1.32Z"/><path class="cls-6" d="m285.9,366.36l6.94,8.27c.08.09.11.2.1.32,0,.12-.06.22-.16.31l-1.39,1.17c-.09.08-.2.11-.32.1-.13-.01-.23-.06-.3-.15l-6.94-8.27c-.08-.09-.11-.2-.1-.32.01-.13.06-.23.15-.3l1.39-1.17c.09-.08.2-.11.32-.1s.23.06.3.15Zm8.34,9.94l1.42,1.69c.08.09.11.2.1.32,0,.12-.06.22-.16.31l-1.39,1.17c-.09.08-.2.11-.32.1-.12,0-.22-.06-.31-.16l-1.42-1.69c-.08-.09-.11-.2-.1-.32.01-.13.06-.23.15-.3l1.39-1.17c.09-.08.2-.11.32-.1s.23.06.3.15Z"/><polyline class="cls-3" points="310.39 355.22 306.36 367.03 313.34 364.08 311.56 372.72"/><polygon class="cls-6" points="309.22 371.47 310.81 376.3 314.2 372.5 309.22 371.47"/></svg>