<?xml version="1.0" encoding="utf-8"?>
<!-- Generator: Adobe Illustrator 28.0.0, SVG Export Plug-In . SVG Version: 6.00 Build 0)  -->
<svg version="1.1" id="Laag_1" xmlns="http://www.w3.org/2000/svg" xmlns:xlink="http://www.w3.org/1999/xlink" x="0px" y="0px"
	 viewBox="0 0 456 327" style="enable-background:new 0 0 456 327;" xml:space="preserve">
<style type="text/css">
	.st0{fill:#FFFFFF;}
	.st1{fill:#02C5D1;}
	.st2{clip-path:url(#SVGID_00000135677548610038686920000011849334285432175797_);}
	.st3{fill:#E7A69D;}
	.st4{opacity:0.1;fill:#272323;enable-background:new    ;}
	.st5{fill:#B1B1B1;}
	.st6{clip-path:url(#SVGID_00000013161123706852991310000015300687941217789594_);}
	.st7{fill:#F5F5F5;}
	.st8{fill:#1B243F;}
	.st9{fill:#DC7255;}
	.st10{fill:#5FB5C6;}
	.st11{fill:none;stroke:#1B243F;stroke-width:1.35;stroke-linecap:round;stroke-miterlimit:10;}
	.st12{fill:#FFFFFF;stroke:#ECECEC;stroke-width:1.35;stroke-miterlimit:10;}
	.st13{fill:none;stroke:#1B243F;stroke-width:0.38;stroke-miterlimit:10;}
	.st14{fill:none;stroke:#1B243F;stroke-width:1.91;stroke-linecap:round;stroke-miterlimit:10;}
	.st15{opacity:0.5;fill:#DC7255;enable-background:new    ;}
</style>
<path class="st0" d="M57,37.1h388.4c1.2,0,2.3,1,2.3,2.3v275.8c0,1.2-1,2.3-2.3,2.3H57c-1.2,0-2.3-1-2.3-2.3V39.4
	C54.8,38.1,55.8,37.1,57,37.1z"/>
<path d="M76,150h294c1.1,0,2,0.9,2,2v119c0,1.1-0.9,2-2,2H76c-1.1,0-2-0.9-2-2V152C74,150.9,74.9,150,76,150z"/>
<path class="st1" d="M12,10h391c1.1,0,2,0.9,2,2v107c0,1.1-0.9,2-2,2H12c-1.1,0-2-0.9-2-2V12C10,10.9,10.9,10,12,10z"/>
<path class="st0" d="M38.7,37.1H376c1.9,0,3.4,1.5,3.4,3.4v4.7c0,1.9-1.5,3.4-3.4,3.4H38.7c-1.9,0-3.4-1.5-3.4-3.4v-4.7
	C35.3,38.6,36.8,37.1,38.7,37.1z"/>
<path class="st0" d="M38.7,59.7H376c1.9,0,3.4,1.5,3.4,3.4v4.6c0,1.9-1.5,3.4-3.4,3.4H38.7c-1.9,0-3.4-1.5-3.4-3.4v-4.6
	C35.3,61.2,36.8,59.7,38.7,59.7z"/>
<path class="st0" d="M38.7,81.9h103.6c1.9,0,3.4,1.5,3.4,3.4V90c0,1.9-1.5,3.4-3.4,3.4H38.7c-1.9,0-3.4-1.5-3.4-3.4v-4.6
	C35.3,83.4,36.8,81.9,38.7,81.9z"/>
<path class="st0" d="M275.9,185.6c3.3,2.8,5,6.8,5,12c0,4.6-1.5,8.2-4.5,10.8c-3,2.7-7,4-12,4.1l-0.4,5.5h-13l-0.5-15h5.4
	c3.4,0,6-0.4,7.8-1.2c1.8-0.8,2.7-2.2,2.7-4.2c0-1.4-0.4-2.4-1.1-3.2s-1.7-1.2-3-1.2c-1.4,0-2.5,0.4-3.2,1.2
	c-0.7,0.8-1.1,1.9-1.1,3.4h-13.9c-0.1-3.1,0.5-5.9,1.9-8.4c1.4-2.5,3.5-4.5,6.3-6s6.3-2.2,10.4-2.2
	C268.1,181.4,272.5,182.8,275.9,185.6L275.9,185.6L275.9,185.6L275.9,185.6z M251.2,236.8c-1.6-1.4-2.4-3.2-2.4-5.5s0.8-4,2.4-5.5
	s3.7-2.2,6.3-2.2c2.6,0,4.6,0.7,6.2,2.2s2.4,3.3,2.4,5.5s-0.8,4-2.4,5.4s-3.6,2.2-6.2,2.2S252.8,238.2,251.2,236.8L251.2,236.8
	L251.2,236.8z"/>
<path class="st0" d="M208.6,185.6c3.3,2.8,5,6.8,5,12c0,4.6-1.5,8.2-4.6,10.8c-3,2.7-7,4-12,4.1l-0.4,5.5h-13l-0.5-15h5.4
	c3.4,0,6-0.4,7.8-1.2c1.8-0.8,2.7-2.2,2.7-4.2c0-1.4-0.4-2.4-1.1-3.2s-1.7-1.2-3-1.2c-1.4,0-2.5,0.4-3.2,1.2
	c-0.7,0.8-1.1,1.9-1.1,3.4h-13.9c-0.1-3.1,0.5-5.9,1.9-8.4c1.4-2.5,3.5-4.5,6.3-6s6.3-2.2,10.4-2.2
	C200.9,181.4,205.3,182.8,208.6,185.6L208.6,185.6L208.6,185.6L208.6,185.6z M184,236.8c-1.6-1.4-2.4-3.2-2.4-5.5s0.8-4,2.4-5.5
	s3.7-2.2,6.3-2.2s4.6,0.7,6.2,2.2s2.4,3.3,2.4,5.5s-0.8,4-2.4,5.4s-3.6,2.2-6.2,2.2S185.6,238.2,184,236.8L184,236.8L184,236.8z"/>
<path class="st0" d="M141.4,185.6c3.3,2.8,5,6.8,5,12c0,4.6-1.5,8.2-4.6,10.8c-3,2.7-7,4-12,4.1l-0.4,5.5h-13l-0.5-15h5.4
	c3.4,0,6-0.4,7.8-1.2c1.8-0.8,2.7-2.2,2.7-4.2c0-1.4-0.4-2.4-1.1-3.2s-1.7-1.2-3-1.2c-1.4,0-2.5,0.4-3.2,1.2
	c-0.7,0.8-1.1,1.9-1.1,3.4h-13.9c-0.1-3.1,0.5-5.9,1.9-8.4c1.4-2.5,3.5-4.5,6.3-6s6.3-2.2,10.4-2.2
	C133.7,181.4,138,182.8,141.4,185.6L141.4,185.6L141.4,185.6L141.4,185.6z M116.7,236.8c-1.6-1.4-2.4-3.2-2.4-5.5s0.8-4,2.4-5.5
	c1.6-1.4,3.7-2.2,6.3-2.2s4.6,0.7,6.2,2.2s2.4,3.3,2.4,5.5s-0.8,4-2.4,5.4s-3.7,2.2-6.2,2.2S118.3,238.2,116.7,236.8L116.7,236.8
	L116.7,236.8z"/>
<g>
	<defs>
		<path id="SVGID_1_" d="M57.1,37.1h388.3c1.3,0,2.3,1,2.3,2.3v275.7c0,1.3-1,2.3-2.3,2.3H57.1c-1.3,0-2.3-1-2.3-2.3V39.4
			C54.8,38.2,55.8,37.1,57.1,37.1z"/>
	</defs>
	<clipPath id="SVGID_00000067201735385848293490000003007900817928861575_">
		<use xlink:href="#SVGID_1_"  style="overflow:visible;"/>
	</clipPath>
	<g style="clip-path:url(#SVGID_00000067201735385848293490000003007900817928861575_);">
		<path class="st3" d="M391.2,125.6c0,0-2.1-11.1,9.1-12.2s10.5,51.4,25.9,75.7c19.1,30.3,0.5,48.9,16.4,72.9
			c15.8,24,146.2,85.4,146.2,85.4l-111.3,78c0,0-31.9-84.3-80.1-108.7c-48.2-24.4-49.4-9.5-80.3-71.7
			C285.9,182.7,391.2,125.6,391.2,125.6L391.2,125.6L391.2,125.6L391.2,125.6z"/>
		<polygon class="st3" points="292.2,217.6 302,199.8 290.5,182.8 308.8,166.9 321.3,191.7 312.2,223 		"/>
		<polygon class="st3" points="320.7,224.6 299.3,242.7 310.7,249.7 324.7,243.7 		"/>
		<polygon class="st3" points="311.9,135.3 286.8,156.6 300.1,164.8 316.6,157.7 		"/>
		<path class="st4" d="M392.9,119.8c0,0,26.5,128.8,18,151.1c-8.5,22.3-67.7,13.6-67.7,13.6L392.9,119.8L392.9,119.8L392.9,119.8z"
			/>
		<path class="st5" d="M310.4,97.5l62.4-7.4c9-1.1,17.2,5.4,18.3,14.4L409.6,260c1.1,9-5.4,17.2-14.4,18.3l-62.4,7.4
			c-9,1.1-17.2-5.4-18.3-14.4L296,115.8C294.9,106.7,301.4,98.6,310.4,97.5z"/>
		<path class="st0" d="M313.1,100l57.6-6.9c9-1.1,17.2,5.4,18.3,14.4l17.9,150c1.1,9-5.4,17.2-14.4,18.3l-57.6,6.9
			c-9,1.1-17.2-5.4-18.3-14.4l-17.9-150C297.7,109.2,304.1,101,313.1,100z"/>
		<g>
			<defs>
				<path id="SVGID_00000127043235988647079020000012288475945936496823_" d="M313.4,100.4l57.2-6.8c9-1.1,17.2,5.4,18.3,14.4
					l17.8,149.2c1.1,9-5.4,17.2-14.4,18.3l-57.2,6.8c-9,1.1-17.2-5.4-18.3-14.4L299,118.6C297.9,109.6,304.4,101.4,313.4,100.4z"/>
			</defs>
			<clipPath id="SVGID_00000144311380226015728050000006512926633539528853_">
				<use xlink:href="#SVGID_00000127043235988647079020000012288475945936496823_"  style="overflow:visible;"/>
			</clipPath>
			<g style="clip-path:url(#SVGID_00000144311380226015728050000006512926633539528853_);">
				<path class="st7" d="M313.4,100.4l57.2-6.8c9-1.1,17.2,5.4,18.3,14.4l17.8,149.2c1.1,9-5.4,17.2-14.4,18.3l-57.2,6.8
					c-9,1.1-17.2-5.4-18.3-14.4L299,118.6C297.9,109.6,304.4,101.4,313.4,100.4z"/>
				
					<rect x="285.3" y="87.7" transform="matrix(0.993 -0.1184 0.1184 0.993 -10.2426 41.4996)" class="st0" width="117.8" height="38.6"/>
				<path class="st8" d="M322.2,112.4c-1.4,0.2-2.3,1.4-2.2,2.9s1.4,2.4,2.8,2.3s2.3-1.4,2.2-2.9S323.5,112.2,322.2,112.4z
					 M322.7,116.4c-0.8,0.1-1.5-0.5-1.6-1.3s0.4-1.5,1.2-1.6s1.5,0.5,1.6,1.3S323.4,116.3,322.7,116.4z"/>
				<path class="st8" d="M327.4,111.7c-1.4,0.2-2.3,1.4-2.2,2.9l0.4,3.3c0,0.3,0.3,0.5,0.6,0.5s0.5-0.3,0.5-0.6l-0.1-1.1
					c0.4,0.2,0.9,0.3,1.4,0.3c1.4-0.2,2.3-1.4,2.2-2.9S328.8,111.6,327.4,111.7L327.4,111.7L327.4,111.7z M327.9,115.8
					c-0.6,0.1-1.2-0.3-1.5-0.9c0-0.1-0.1-0.2-0.1-0.3c-0.1-0.8,0.4-1.5,1.2-1.6s1.5,0.5,1.6,1.3S328.7,115.7,327.9,115.8z"/>
				<path class="st8" d="M332.8,111.1c-1.4,0.2-2.3,1.4-2.2,2.9l0.4,3.3c0,0.3,0.3,0.5,0.6,0.5s0.5-0.3,0.5-0.6L332,116
					c0.4,0.2,0.9,0.3,1.4,0.3c1.4-0.2,2.3-1.4,2.2-2.9S334.2,110.9,332.8,111.1L332.8,111.1L332.8,111.1z M333.3,115.1
					c-0.6,0.1-1.2-0.3-1.5-0.9c0-0.1-0.1-0.2-0.1-0.3c-0.1-0.8,0.4-1.5,1.2-1.6s1.5,0.5,1.6,1.3S334,115,333.3,115.1z"/>
				<path class="st8" d="M338.7,111c0-0.3-0.3-0.5-0.6-0.5c-1.4,0.2-2.3,1.4-2.2,2.9l0.2,2c0,0.3,0.3,0.5,0.6,0.5s0.5-0.3,0.5-0.6
					l-0.2-2c-0.1-0.8,0.4-1.5,1.2-1.6C338.5,111.6,338.7,111.3,338.7,111L338.7,111L338.7,111L338.7,111z"/>
				
					<ellipse transform="matrix(0.993 -0.1184 0.1184 0.993 -11.2078 41.0235)" class="st9" cx="339.6" cy="114.8" rx="0.7" ry="0.7"/>
				<path class="st10" d="M315.8,111.9c0.1,0.4,0.1,0.8-0.1,1.1c-0.2,0.5-0.6,0.8-1.1,0.8l0,0c0.5,0.5,0.9,1.1,0.9,1.9
					c0.2,1.6-0.9,3.1-2.5,3.3c-1.1,0.1-2.1-0.4-2.7-1.3l0.3,2.7c0,0.2,0,0.3,0,0.4c0.8,0.4,1.7,0.5,2.7,0.4c2.8-0.3,4.8-3,4.5-5.9
					C317.6,114.1,316.9,112.8,315.8,111.9L315.8,111.9L315.8,111.9z"/>
				<path class="st10" d="M312.3,113.1c0.5-0.1,1.1,0,1.6,0.3l0,0c0.6,0.3,1.2,0.1,1.5-0.5c0.3-0.6,0-1.3-0.5-1.6l0,0
					c-0.9-0.5-1.9-0.7-2.9-0.5c-2.7,0.3-4.7,2.8-4.5,5.7l0,0l0,0.3l0.5,4.1c0.1,0.7,0.6,1.1,1.3,1c0.5-0.1,0.9-0.5,1-1.1v-0.2
					l-0.5-4.1C309.6,114.8,310.7,113.3,312.3,113.1L312.3,113.1L312.3,113.1z"/>
				
					<ellipse transform="matrix(0.993 -0.1184 0.1184 0.993 -11.5458 37.834)" class="st9" cx="312.6" cy="116.1" rx="1.9" ry="1.9"/>
				<line class="st11" x1="372.8" y1="105" x2="382.4" y2="103.8"/>
				<line class="st11" x1="373.2" y1="108.9" x2="382.9" y2="107.7"/>
				<line class="st11" x1="373.7" y1="112.8" x2="383.4" y2="111.7"/>
			</g>
		</g>
		<path d="M317.3,220.1l2.8-0.3c1.5-0.2,2.8,0.9,3,2.4l0.7,5.8c0.2,1.5-0.9,2.8-2.4,3l-2.8,0.3c-1.5,0.2-2.8-0.9-3-2.4l-0.7-5.8
			C314.8,221.6,315.8,220.3,317.3,220.1z"/>
		<path d="M326.7,219l2.8-0.3c1.5-0.2,2.8,0.9,3,2.4l0.7,5.8c0.2,1.5-0.9,2.8-2.4,3l-2.8,0.3c-1.5,0.2-2.8-0.9-3-2.4l-0.7-5.8
			C324.1,220.5,325.2,219.2,326.7,219z"/>
		<path d="M336,217.9l2.8-0.3c1.5-0.2,2.8,0.9,3,2.4l0.7,5.8c0.2,1.5-0.9,2.8-2.4,3l-2.8,0.3c-1.5,0.2-2.8-0.9-3-2.4l-0.7-5.8
			C333.5,219.4,334.5,218,336,217.9z"/>
		<path d="M345.4,216.7l2.8-0.3c1.5-0.2,2.8,0.9,3,2.4l0.7,5.8c0.2,1.5-0.9,2.8-2.4,3l-2.8,0.3c-1.5,0.2-2.8-0.9-3-2.4l-0.7-5.8
			C342.8,218.3,343.9,216.9,345.4,216.7z"/>
		<path d="M354.7,215.6l2.8-0.3c1.5-0.2,2.8,0.9,3,2.4l0.7,5.8c0.2,1.5-0.9,2.8-2.4,3l-2.8,0.3c-1.5,0.2-2.8-0.9-3-2.4l-0.7-5.8
			C352.2,217.1,353.3,215.8,354.7,215.6z"/>
		<path d="M364.1,214.5l2.8-0.3c1.5-0.2,2.8,0.9,3,2.4l0.7,5.8c0.2,1.5-0.9,2.8-2.4,3l-2.8,0.3c-1.5,0.2-2.8-0.9-3-2.4l-0.7-5.8
			C361.5,216,362.6,214.7,364.1,214.5z"/>
		<path d="M373.4,213.4l2.8-0.3c1.5-0.2,2.8,0.9,3,2.4l0.7,5.8c0.2,1.5-0.9,2.8-2.4,3l-2.8,0.3c-1.5,0.2-2.8-0.9-3-2.4l-0.7-5.8
			C370.9,214.9,372,213.6,373.4,213.4z"/>
		<path d="M382.8,212.3l2.8-0.3c1.5-0.2,2.8,0.9,3,2.4l0.7,5.8c0.2,1.5-0.9,2.8-2.4,3l-2.8,0.3c-1.5,0.2-2.8-0.9-3-2.4l-0.7-5.8
			C380.3,213.8,381.3,212.4,382.8,212.3z"/>
		<path d="M392.2,211.2l2.8-0.3c1.5-0.2,2.8,0.9,3,2.4l0.7,5.8c0.2,1.5-0.9,2.8-2.4,3l-2.8,0.3c-1.5,0.2-2.8-0.9-3-2.4l-0.7-5.8
			C389.6,212.7,390.7,211.4,392.2,211.2z"/>
		<path d="M318.9,233.3l2.8-0.3c1.5-0.2,2.8,0.9,3,2.4l0.7,5.8c0.2,1.5-0.9,2.8-2.4,3l-2.8,0.3c-1.5,0.2-2.8-0.9-3-2.4l-0.7-5.8
			C316.4,234.8,317.4,233.4,318.9,233.3z"/>
		<path d="M328.3,232.2l2.8-0.3c1.5-0.2,2.8,0.9,3,2.4l0.7,5.8c0.2,1.5-0.9,2.8-2.4,3l-2.8,0.3c-1.5,0.2-2.8-0.9-3-2.4l-0.7-5.8
			C325.7,233.7,326.8,232.3,328.3,232.2z"/>
		<path d="M337.6,231l2.8-0.3c1.5-0.2,2.8,0.9,3,2.4l0.7,5.8c0.2,1.5-0.9,2.8-2.4,3l-2.8,0.3c-1.5,0.2-2.8-0.9-3-2.4l-0.7-5.8
			C335.1,232.5,336.1,231.2,337.6,231z"/>
		<path d="M347,229.9l2.8-0.3c1.5-0.2,2.8,0.9,3,2.4l0.7,5.8c0.2,1.5-0.9,2.8-2.4,3l-2.8,0.3c-1.5,0.2-2.8-0.9-3-2.4l-0.7-5.8
			C344.5,231.4,345.5,230.1,347,229.9z"/>
		<path d="M356.3,228.8l2.8-0.3c1.5-0.2,2.8,0.9,3,2.4l0.7,5.8c0.2,1.5-0.9,2.8-2.4,3l-2.8,0.3c-1.5,0.2-2.8-0.9-3-2.4l-0.7-5.8
			C353.8,230.3,354.9,229,356.3,228.8z"/>
		<path d="M365.7,227.7l2.8-0.3c1.5-0.2,2.8,0.9,3,2.4l0.7,5.8c0.2,1.5-0.9,2.8-2.4,3l-2.8,0.3c-1.5,0.2-2.8-0.9-3-2.4l-0.7-5.8
			C363.2,229.2,364.2,227.9,365.7,227.7z"/>
		<path d="M375,226.6l2.8-0.3c1.5-0.2,2.8,0.9,3,2.4l0.7,5.8c0.2,1.5-0.9,2.8-2.4,3l-2.8,0.3c-1.5,0.2-2.8-0.9-3-2.4l-0.7-5.8
			C372.5,228.1,373.6,226.7,375,226.6z"/>
		<path d="M384.4,225.5l2.8-0.3c1.5-0.2,2.8,0.9,3,2.4l0.7,5.8c0.2,1.5-0.9,2.8-2.4,3l-2.8,0.3c-1.5,0.2-2.8-0.9-3-2.4l-0.7-5.8
			C381.9,227,382.9,225.6,384.4,225.5z"/>
		<path d="M393.8,224.3l2.8-0.3c1.5-0.2,2.8,0.9,3,2.4l0.7,5.8c0.2,1.5-0.9,2.8-2.4,3l-2.8,0.3c-1.5,0.2-2.8-0.9-3-2.4l-0.7-5.8
			C391.3,225.8,392.3,224.5,393.8,224.3z"/>
		<path d="M320.5,246.4l2.8-0.3c1.5-0.2,2.8,0.9,3,2.4l0.7,5.8c0.2,1.5-0.9,2.8-2.4,3l-2.8,0.3c-1.5,0.2-2.8-0.9-3-2.4l-0.7-5.8
			C317.9,248,319,246.6,320.5,246.4z"/>
		<path d="M329.8,245.3l2.8-0.3c1.5-0.2,2.8,0.9,3,2.4l0.7,5.8c0.2,1.5-0.9,2.8-2.4,3l-2.8,0.3c-1.5,0.2-2.8-0.9-3-2.4l-0.7-5.8
			C327.3,246.8,328.4,245.5,329.8,245.3z"/>
		<path d="M339.2,244.2l2.8-0.3c1.5-0.2,2.8,0.9,3,2.4l0.7,5.8c0.2,1.5-0.9,2.8-2.4,3l-2.8,0.3c-1.5,0.2-2.8-0.9-3-2.4l-0.7-5.8
			C336.7,245.7,337.7,244.4,339.2,244.2z"/>
		<path d="M348.6,243.1l2.8-0.3c1.5-0.2,2.8,0.9,3,2.4l0.7,5.8c0.2,1.5-0.9,2.8-2.4,3l-2.8,0.3c-1.5,0.2-2.8-0.9-3-2.4l-0.7-5.8
			C346,244.6,347.1,243.3,348.6,243.1z"/>
		<path d="M357.9,242l2.8-0.3c1.5-0.2,2.8,0.9,3,2.4l0.7,5.8c0.2,1.5-0.9,2.8-2.4,3l-2.8,0.3c-1.5,0.2-2.8-0.9-3-2.4l-0.7-5.8
			C355.4,243.5,356.4,242.1,357.9,242z"/>
		<path d="M367.3,240.8l2.8-0.3c1.5-0.2,2.8,0.9,3,2.4l0.7,5.8c0.2,1.5-0.9,2.8-2.4,3l-2.8,0.3c-1.5,0.2-2.8-0.9-3-2.4l-0.7-5.8
			C364.7,242.3,365.8,241,367.3,240.8z"/>
		<path d="M376.6,239.7l2.8-0.3c1.5-0.2,2.8,0.9,3,2.4l0.7,5.8c0.2,1.5-0.9,2.8-2.4,3l-2.8,0.3c-1.5,0.2-2.8-0.9-3-2.4l-0.7-5.8
			C374.1,241.2,375.1,239.9,376.6,239.7z"/>
		<path d="M386,238.6l2.8-0.3c1.5-0.2,2.8,0.9,3,2.4l0.7,5.8c0.2,1.5-0.9,2.8-2.4,3l-2.8,0.3c-1.5,0.2-2.8-0.9-3-2.4l-0.7-5.8
			C383.5,240.1,384.5,238.8,386,238.6z"/>
		<path d="M395.4,237.5l2.8-0.3c1.5-0.2,2.8,0.9,3,2.4l0.7,5.8c0.2,1.5-0.9,2.8-2.4,3l-2.8,0.3c-1.5,0.2-2.8-0.9-3-2.4l-0.7-5.8
			C392.8,239,393.9,237.7,395.4,237.5z"/>
		<path d="M322,259.6l12.2-1.4c1.5-0.2,2.8,0.9,3,2.4l0.7,5.8c0.2,1.5-0.9,2.8-2.4,3l-12.2,1.4c-1.5,0.2-2.8-0.9-3-2.4l-0.7-5.8
			C319.5,261.1,320.5,259.8,322,259.6z"/>
		<path d="M340.7,257.4l2.8-0.3c1.5-0.2,2.8,0.9,3,2.4l0.7,5.8c0.2,1.5-0.9,2.8-2.4,3l-2.8,0.3c-1.5,0.2-2.8-0.9-3-2.4l-0.7-5.8
			C338.2,258.9,339.2,257.6,340.7,257.4z"/>
		<path d="M350.1,256.3l30.9-3.7c1.5-0.2,2.8,0.9,3,2.4l0.7,5.8c0.2,1.5-0.9,2.8-2.4,3l-30.9,3.7c-1.5,0.2-2.8-0.9-3-2.4l-0.7-5.8
			C347.6,257.8,348.6,256.4,350.1,256.3z"/>
		<path d="M387.5,251.8l2.8-0.3c1.5-0.2,2.8,0.9,3,2.4l0.7,5.8c0.2,1.5-0.9,2.8-2.4,3l-2.8,0.3c-1.5,0.2-2.8-0.9-3-2.4l-0.7-5.8
			C385,253.3,386.1,252,387.5,251.8z"/>
		<path d="M396.9,250.7l2.8-0.3c1.5-0.2,2.8,0.9,3,2.4l0.7,5.8c0.2,1.5-0.9,2.8-2.4,3l-2.8,0.3c-1.5,0.2-2.8-0.9-3-2.4l-0.7-5.8
			C394.3,252.2,395.4,250.9,396.9,250.7z"/>
		<path class="st12" d="M313.2,185.5l77.6-9.3c1.5-0.2,2.8,0.9,3,2.4l2.8,23.7c0.2,1.5-0.9,2.8-2.4,3l-77.6,9.3
			c-1.5,0.2-2.8-0.9-3-2.4l-2.8-23.7C310.7,187,311.7,185.7,313.2,185.5z"/>
		<line class="st13" x1="314.2" y1="189" x2="315.1" y2="196.6"/>
		<line class="st14" x1="347.8" y1="276.1" x2="378.5" y2="272.5"/>
		<path class="st15" d="M385.8,152.1l-67.1,8c-2.6,0.3-4.5,2.7-4.2,5.3l0.6,5.4c0.3,2.6,2.7,4.5,5.3,4.2l60.2-7.2
			c0.9,1.1,2.8,2.8,5.3,3.7c0.3,0.1,0.6-0.2,0.4-0.5c-0.5-0.7-0.9-1.9-0.8-3.8l2-0.2c2.6-0.3,4.5-2.7,4.2-5.3l-0.6-5.4
			C390.9,153.7,388.5,151.8,385.8,152.1L385.8,152.1L385.8,152.1z"/>
		<path class="st3" d="M317.1,249c0.7,5.8-3.4,11-9.2,11.7c-5.8,0.7-11-3.4-11.7-9.2c-0.4-3.4,0.8-6.5,3-8.7
			c1.6-1.6,3.7-2.7,6.1-2.9C311.2,239.1,316.5,243.2,317.1,249L317.1,249L317.1,249z"/>
		<circle class="st3" cx="303.6" cy="224.1" r="13.1"/>
		<circle class="st3" cx="298.9" cy="194.3" r="14.3"/>
		<path class="st3" d="M307.7,163.9c0.8,6.8-4,12.9-10.8,13.7s-12.9-4-13.7-10.8c-0.5-3.9,1-7.7,3.6-10.2c1.9-1.9,4.4-3.1,7.2-3.5
			C300.8,152.3,306.9,157.1,307.7,163.9L307.7,163.9z"/>
	</g>
</g>
</svg>
