<svg width="374" height="269" viewBox="0 0 374 269" fill="none" xmlns="http://www.w3.org/2000/svg">
<path opacity="0.5" d="M332.92 39.02C331.5 33.39 326.35 29.56 320.61 29.5C318.34 29.47 316.08 29.5 313.81 29.5H54.17C53.45 29.5 52.73 29.48 52.02 29.53C45.38 29.97 40.3 35.57 40.21 42.16C40.17 45.08 40.21 48.01 40.21 50.93V219.59C40.21 222.95 39.77 226.92 40.81 230.16C42.51 235.43 47.45 238.87 52.93 238.93C53.65 238.93 54.36 238.93 55.08 238.93H320.69C327.64 238.82 333.22 233.26 333.32 226.29C333.33 225.49 333.32 224.69 333.32 223.89V43.67C333.32 42.1 333.32 40.57 332.93 39.02H332.92Z" fill="#34B9CA"/>
<path d="M306.05 145.13C306.05 145.13 307.99 176.91 310.24 188.48C310.24 188.48 264.7 176.27 254.63 176.27C254.63 176.27 247.99 191.7 246.71 201.76C246.71 201.76 313.53 229.17 323.81 230.03C334.09 230.89 344.37 227.67 347.37 211.82C350.37 195.97 343.61 146.7 339.82 132.54C336.02 118.38 333.82 111.87 333.82 111.87C333.82 111.87 313.58 121.26 306.06 145.12L306.05 145.13Z" fill="#192441"/>
<g filter="url(#filter0_d_220_14)">
<path d="M19.08 189.42C19.08 194.97 23.58 199.47 29.13 199.47H235.55C241.1 199.47 245.6 194.97 245.6 189.42V74.96H19.08V189.42Z" fill="#F6F6F6"/>
<path d="M235.55 55.98H29.14C23.59 55.98 19.09 60.48 19.09 66.03V74.95H245.61V66.03C245.61 60.48 241.11 55.98 235.56 55.98H235.55Z" fill="#DADADA"/>
<g opacity="0.5">
<path d="M63.96 116.93H48.69L46.16 124.23H38.08L51.87 85.84H60.82L74.61 124.23H66.48L63.95 116.93H63.96ZM61.87 110.77L56.32 94.73L50.77 110.77H61.86H61.87Z" fill="#ED6A4C"/>
<path d="M87.4599 118.14H100.09V124.24H79.7699V85.9H87.4599V118.14Z" fill="#ED6A4C"/>
<path d="M112.67 92.1V101.71H125.58V107.81H112.67V117.97H127.23V124.23H104.98V85.84H127.23V92.1H112.67Z" fill="#ED6A4C"/>
<path d="M153.98 124.23L145.52 109.29H141.89V124.23H134.2V85.89H148.59C151.56 85.89 154.08 86.41 156.17 87.45C158.26 88.5 159.82 89.9 160.87 91.68C161.91 93.46 162.43 95.44 162.43 97.64C162.43 100.17 161.7 102.45 160.23 104.47C158.77 106.5 156.59 107.9 153.69 108.67L162.86 124.22H153.96L153.98 124.23ZM141.89 103.52H148.32C150.41 103.52 151.96 103.02 152.99 102.01C154.02 101 154.53 99.6 154.53 97.8C154.53 96 154.02 94.68 152.99 93.71C151.97 92.74 150.41 92.25 148.32 92.25H141.89V103.51V103.52Z" fill="#ED6A4C"/>
<path d="M195.51 85.89V92.1H185.29V124.23H177.6V92.1H167.38V85.89H195.5H195.51Z" fill="#ED6A4C"/>
<path d="M203.66 123.33C202.76 122.47 202.31 121.4 202.31 120.12C202.31 118.84 202.76 117.77 203.66 116.91C204.56 116.05 205.7 115.62 207.09 115.62C208.48 115.62 209.56 116.05 210.44 116.91C211.32 117.77 211.76 118.84 211.76 120.12C211.76 121.4 211.32 122.48 210.44 123.33C209.56 124.19 208.44 124.62 207.09 124.62C205.74 124.62 204.56 124.19 203.66 123.33ZM211.05 85.24L210.17 111.77H203.69L202.76 85.24H211.05Z" fill="#ED6A4C"/>
</g>
<path d="M31.0299 69.83C32.9574 69.83 34.5199 68.2675 34.5199 66.34C34.5199 64.4125 32.9574 62.85 31.0299 62.85C29.1024 62.85 27.5399 64.4125 27.5399 66.34C27.5399 68.2675 29.1024 69.83 31.0299 69.83Z" fill="#ED6A4C"/>
<path d="M42.9199 69.83C44.8474 69.83 46.4099 68.2675 46.4099 66.34C46.4099 64.4125 44.8474 62.85 42.9199 62.85C40.9925 62.85 39.4299 64.4125 39.4299 66.34C39.4299 68.2675 40.9925 69.83 42.9199 69.83Z" fill="#34B9CA"/>
<path d="M54.8099 69.83C56.7374 69.83 58.2999 68.2675 58.2999 66.34C58.2999 64.4125 56.7374 62.85 54.8099 62.85C52.8825 62.85 51.3199 64.4125 51.3199 66.34C51.3199 68.2675 52.8825 69.83 54.8099 69.83Z" fill="#192441"/>
<path d="M174.57 162.76L153.83 138.32L133.09 113.88C128.49 108.45 119.06 109.77 116.11 116.25L102.86 145.45L89.6099 174.65C86.6699 181.13 92.4199 187.91 99.9699 186.86L133.96 182.11L167.95 177.36C175.49 176.3 179.17 168.2 174.57 162.78V162.76ZM120.51 130.31C120.08 127.24 122.46 124.37 125.83 123.9C129.2 123.43 132.28 125.53 132.71 128.6L136.29 154.26C136.72 157.33 134.34 160.2 130.97 160.67C127.6 161.14 124.52 159.04 124.09 155.97L120.51 130.31ZM132.9 174.43C129.47 174.91 126.31 172.76 125.87 169.63C125.43 166.5 127.86 163.56 131.3 163.08C134.73 162.6 137.89 164.75 138.33 167.88C138.77 171.01 136.34 173.95 132.9 174.43Z" fill="#ED6A4C"/>
<path d="M120.51 130.31C120.08 127.24 122.46 124.37 125.83 123.9C129.2 123.43 132.28 125.53 132.71 128.6L136.29 154.26C136.72 157.33 134.34 160.2 130.97 160.67C127.6 161.14 124.52 159.04 124.09 155.97L120.51 130.31Z" fill="black"/>
<path d="M132.903 174.433C136.342 173.948 138.773 171.015 138.332 167.881C137.89 164.748 134.744 162.6 131.304 163.085C127.864 163.57 125.433 166.503 125.875 169.637C126.316 172.77 129.463 174.918 132.903 174.433Z" fill="black"/>
<path d="M91.1 145.95L85.04 131.23L78.98 116.51C77.63 113.24 72.98 112.42 70.6 115.04L59.88 126.81L49.16 138.58C46.78 141.19 48.46 145.28 52.19 145.93L68.97 148.88L85.75 151.83C89.48 152.49 92.45 149.22 91.11 145.95H91.1ZM70.52 122.35C70.79 120.84 72.35 119.84 74.01 120.13C75.67 120.42 76.81 121.89 76.54 123.4L74.31 136.07C74.04 137.58 72.48 138.58 70.82 138.29C69.16 138 68.02 136.53 68.29 135.02L70.52 122.35ZM69.63 145.09C67.93 144.79 66.77 143.3 67.04 141.75C67.31 140.2 68.91 139.19 70.61 139.49C72.31 139.79 73.47 141.28 73.2 142.83C72.93 144.38 71.33 145.39 69.63 145.09Z" fill="#ED6A4C"/>
<path d="M70.53 122.35C70.8 120.84 72.36 119.84 74.02 120.13C75.68 120.42 76.82 121.89 76.55 123.4L74.32 136.07C74.05 137.58 72.49 138.58 70.83 138.29C69.17 138 68.03 136.53 68.3 135.02L70.53 122.35Z" fill="black"/>
<path d="M73.1882 142.81C73.459 141.259 72.3026 139.762 70.6052 139.465C68.9078 139.169 67.3122 140.185 67.0413 141.736C66.7704 143.286 67.9268 144.784 69.6242 145.08C71.3216 145.377 72.9173 144.36 73.1882 142.81Z" fill="black"/>
<path d="M210.36 142.94L202.2 131.31L194.04 119.68C192.23 117.1 188.01 117.3 186.45 120.04L179.42 132.38L172.39 144.72C170.83 147.46 173.09 150.69 176.46 150.53L191.65 149.81L206.84 149.09C210.21 148.93 212.16 145.51 210.35 142.92L210.36 142.94ZM187.82 126.43C187.76 125.06 188.92 123.89 190.43 123.82C191.94 123.75 193.21 124.8 193.27 126.17L193.81 137.64C193.87 139.01 192.71 140.18 191.2 140.25C189.69 140.32 188.42 139.27 188.36 137.9L187.82 126.43ZM191.5 146.4C189.97 146.47 188.66 145.4 188.59 144C188.52 142.6 189.72 141.4 191.25 141.33C192.78 141.26 194.09 142.33 194.16 143.73C194.23 145.13 193.03 146.33 191.5 146.4Z" fill="#ED6A4C"/>
<path d="M187.82 126.43C187.76 125.06 188.92 123.89 190.43 123.82C191.94 123.75 193.21 124.8 193.27 126.17L193.81 137.64C193.87 139.01 192.71 140.18 191.2 140.25C189.69 140.32 188.42 139.27 188.36 137.9L187.82 126.43Z" fill="black"/>
<path d="M191.511 146.38C193.05 146.306 194.243 145.109 194.175 143.708C194.108 142.307 192.805 141.232 191.266 141.306C189.727 141.381 188.534 142.577 188.602 143.978C188.67 145.379 189.972 146.455 191.511 146.38Z" fill="black"/>
</g>
<mask id="mask0_220_14" style="mask-type:luminance" maskUnits="userSpaceOnUse" x="40" y="0" width="294" height="239">
<path d="M230.18 0L207.29 29.5H54.17C53.45 29.5 52.73 29.48 52.02 29.53C45.38 29.97 40.3 35.57 40.21 42.16C40.17 45.08 40.21 48.01 40.21 50.93V219.59C40.21 222.95 39.77 226.92 40.81 230.16C42.51 235.43 47.45 238.87 52.93 238.93C53.65 238.93 54.36 238.93 55.08 238.93H320.69C327.64 238.82 333.22 233.26 333.32 226.29C333.33 225.49 333.32 224.69 333.32 223.89V0H230.18Z" fill="white"/>
</mask>
<g mask="url(#mask0_220_14)">
<path d="M193.67 169.14C191.26 166.98 190.01 164 188.77 161.07C187.37 157.79 185.84 154.59 183.99 151.53C180.26 145.36 175.57 139.77 170.15 135.02C167.6 132.79 163.14 135.67 165.2 138.84C166.39 140.67 168.03 142.18 169.17 144.03C169.59 144.72 170.29 146.31 169.78 146.87C168.92 147.82 165.86 147.02 164.71 146.96C162.02 146.84 159.34 147.1 156.69 147.55C153.21 148.15 153.99 154.01 157.53 153.74C161.07 153.47 164.39 154.18 167.42 155.89C167.4 155.93 167.37 155.97 167.34 156.03C167.3 156.09 167.19 156.24 167.15 156.3C166.67 156.93 166.09 157.23 165.45 157.66C163.74 158.81 161.98 159.9 160.31 161.1C159.3 161.83 158.53 162.67 158.37 163.97C158.19 165.41 158.91 166.77 160.13 167.53C162.11 168.77 164.35 168.29 166.49 167.94C167.72 167.74 168.53 168.1 169.51 169.13C170.65 170.32 171.43 171.81 172.39 173.14C174.74 176.39 177.51 179.13 180.72 181.53C181.97 182.47 183.88 181.86 184.8 180.71C185.06 180.64 185.33 180.54 185.58 180.39C187.02 179.5 188.39 178.44 189.61 177.27C190.48 176.43 191.22 175.43 192.11 174.62C192.26 174.52 192.4 174.43 192.56 174.35C193.21 174.08 193.79 173.64 194.15 173.02C194.27 172.82 194.36 172.59 194.43 172.35C194.88 171.33 194.77 170.13 193.68 169.14H193.67Z" fill="#F4A39B"/>
<path d="M220.04 112.26C220.04 112.26 205.16 126.66 205.16 166.1C205.16 166.1 207.42 172.79 192.69 163.62C192.69 163.62 182.26 172.19 175.58 181.51C175.58 181.51 194.21 212.53 215.56 216.53C236.91 220.53 250.62 180.4 250.62 180.4L220.04 112.25V112.26Z" fill="#192441"/>
<path d="M211.57 172.87C211.57 172.87 212.45 128.27 220.04 112.26L226.54 140.27L211.57 172.88V172.87Z" fill="#ED6A4C"/>
<path d="M273.3 135.39C276.66 123.44 281.97 110.93 285.69 102.81C288.19 97.36 289.98 93.88 289.98 93.88C289.98 93.88 330.59 105.75 333.81 111.88C333.81 111.88 319.99 120.19 311.42 133.5C311.01 134.14 310.63 134.8 310.24 135.46C297.83 135.13 285.55 135.13 273.3 135.39Z" fill="#ED6A4C"/>
<path d="M270.24 150.92C270.43 148.59 270.81 146.1 271.32 143.54C271.85 140.89 272.52 138.16 273.3 135.39C285.55 135.13 297.83 135.13 310.24 135.46C308.49 138.47 307.02 141.7 306.05 145.13C307.35 149.77 308.63 154.52 309.85 159.3C296.48 159.3 283.12 159.34 269.75 159.43C269.88 156.27 270.04 153.39 270.24 150.93V150.92Z" fill="#ED6A4C"/>
<path d="M331 207.33C336.48 221.31 329.8 256.94 329.8 256.94L275.65 256.1C272.88 242.81 271.15 224.99 270.24 207.33C285.87 206.64 325.35 192.92 331 207.33Z" fill="#ED6A4C"/>
<path d="M314.58 179.61C316.21 187.44 317.52 194.98 318.28 201.77L316.94 206.17C301.47 206.1 285.87 206.65 270.24 207.34C269.76 198.09 269.5 188.89 269.45 180.41C284.44 179.93 299.45 179.52 314.59 179.62L314.58 179.61Z" fill="#ED6A4C"/>
<path d="M269.75 159.43C283.12 159.34 296.48 159.31 309.85 159.3C311.59 166.11 313.21 172.97 314.59 179.61C299.46 179.52 284.45 179.92 269.45 180.4C269.4 172.63 269.5 165.46 269.75 159.42V159.43Z" fill="#ED6A4C"/>
<path d="M258.66 93.88H276.97L253.59 96.07C255.19 95.38 256.86 94.66 258.66 93.88Z" fill="#192441"/>
<path d="M253.59 96.07C251.45 96.99 249.47 97.85 247.65 98.63C247.82 98.24 247.89 98.1 247.89 98.1" fill="#192441"/>
<path d="M287.86 92.86L289.98 93.88H276.97L287.86 92.86Z" fill="#192441"/>
<path d="M211.56 173.32L211.43 172.97C211.48 172.94 211.53 172.91 211.57 172.87C211.57 173.02 211.57 173.17 211.57 173.32H211.56Z" fill="#192441"/>
<path d="M229.85 256.1H275.66C269.4 226.13 268.44 173.06 270.24 150.92C270.43 148.59 270.81 146.1 271.32 143.54C274.12 129.47 281.1 112.81 285.69 102.8C288.19 97.35 289.98 93.87 289.98 93.87H276.98L253.6 96.06C251.46 96.98 249.48 97.84 247.66 98.62C247.5 98.99 247.27 99.59 246.95 100.51C250.25 103.31 247.67 115.47 243.88 127.87C239.37 142.62 233.17 157.69 233.17 157.69C231.06 170.14 229.89 183.47 229.28 196.17C227.76 228.11 229.86 256.09 229.86 256.09L229.85 256.1Z" fill="#192441"/>
<path d="M250.36 138.6L252.63 142.35L247.71 142.04L250.36 138.6Z" fill="#192441"/>
<path d="M246.94 100.53C250.24 103.33 247.66 115.49 243.87 127.89L240.81 122.83C243.98 109.81 245.91 103.48 246.94 100.53Z" fill="#192441"/>
<path d="M211.57 172.87C211.57 172.87 211.47 172.93 211.43 172.97C211.48 172.83 211.53 172.69 211.58 172.55C211.58 172.66 211.58 172.77 211.58 172.88L211.57 172.87Z" fill="#192441"/>
<path d="M221.09 118.82C220.72 114.5 220.06 112.32 220.04 112.26C220.04 112.26 220.04 112.26 220.05 112.25C226.92 106.22 234.66 101.52 244.55 99.98C245.53 99.56 246.56 99.11 247.64 98.64C247.48 99.01 247.25 99.61 246.93 100.53C245.9 103.48 243.97 109.81 240.8 122.83C239.83 126.84 238.73 131.48 237.51 136.85C231.82 137.19 226.11 137.58 220.37 138C221.5 129.48 221.45 123.09 221.08 118.82H221.09Z" fill="#ED6A4C"/>
<path d="M220.38 137.99C226.12 137.57 231.83 137.18 237.52 136.84C236.71 140.42 235.84 144.31 234.91 148.57C234.26 151.54 233.68 154.59 233.16 157.7C233.04 158.42 232.93 159.14 232.82 159.86C227.07 159.96 221.32 160.09 215.57 160.23C218.05 151.65 219.55 144.23 220.39 137.98L220.38 137.99Z" fill="#ED6A4C"/>
<path d="M211.45 181.66C211.47 178.85 211.5 176.06 211.56 173.32C211.56 173.17 211.56 173.02 211.56 172.87C211.56 172.76 211.56 172.65 211.56 172.54C213.13 168.19 214.43 164.11 215.55 160.24C221.3 160.09 227.05 159.97 232.8 159.87C231.67 166.93 230.86 174.23 230.24 181.52C223.99 181.63 217.72 181.69 211.43 181.66H211.45Z" fill="#ED6A4C"/>
<path d="M229.85 256.1H213.67C213.67 256.1 212.32 234.92 211.72 209.49C217.41 209.42 223.12 209.28 228.84 209.09C228.3 235.3 229.85 256.1 229.85 256.1Z" fill="#ED6A4C"/>
<path d="M211.45 181.66C217.74 181.69 224.01 181.63 230.26 181.52C229.84 186.44 229.5 191.36 229.27 196.18C229.06 200.58 228.92 204.9 228.84 209.09C223.12 209.28 217.41 209.42 211.72 209.49C211.51 200.49 211.39 190.97 211.45 181.66Z" fill="#ED6A4C"/>
<path d="M240.8 122.82L243.86 127.88C239.35 142.63 233.15 157.7 233.15 157.7C233.68 154.59 234.26 151.54 234.9 148.57C237.22 137.92 239.17 129.5 240.79 122.82H240.8Z" fill="#192441"/>
<path d="M286.93 60.46C286.93 60.46 290.13 59.18 293.03 47.41C295.94 35.64 290.71 35.54 289.98 26.1C289.25 16.66 279.08 10.99 266.88 13.32C254.68 15.64 257.57 21.53 250.45 15.14C243.33 8.75 233.16 13.06 233.16 20.91C233.16 28.76 228.72 38.21 236.66 45.67C242.23 50.91 268.48 66.3 268.48 66.3L286.93 60.46Z" fill="black"/>
<path d="M281.56 60.41C281.56 60.41 283.29 87.46 284.3 92.74C284.8 95.36 278.7 102.06 272.41 108.16C266.34 114.04 256.25 111.85 253.21 103.96L251.29 98.96C251.29 98.96 252.57 88.06 250.54 81.56C248.51 75.05 281.56 60.41 281.56 60.41Z" fill="#F4A39B"/>
<path opacity="0.1" d="M281.56 60.41C281.56 60.41 281.68 62.28 281.87 65.11H281.7C284.06 82.78 267.46 92.03 251.67 92.86C251.74 89.29 251.57 84.86 250.54 81.56C248.51 75.05 281.56 60.41 281.56 60.41Z" fill="#282323"/>
<path d="M235.48 36.46C235.48 36.46 230.26 51.84 235.48 70.78C240.7 89.73 249.48 89.73 253.88 89.73C258.27 89.73 278.04 89.46 282.16 68.04C282.16 68.04 288.2 61.72 286.55 53.49C284.9 45.26 279.69 53.49 279.69 53.49C279.69 53.49 280.24 58.43 278.32 58.43C276.4 58.43 278.59 51.29 277.22 43.6C275.85 35.91 265.96 29.87 256.35 32.07C246.74 34.27 245.18 31.76 242.07 31.61C239.86 31.5 236.62 31.86 235.48 36.46Z" fill="#F4A39B"/>
<path d="M261.8 52.67C262.21 52.62 262.65 52.58 263 52.79C263.34 53 263.51 53.4 263.62 53.79C263.77 54.31 263.83 54.96 263.43 55.33C263.21 55.53 262.9 55.6 262.61 55.64C262.22 55.7 261.81 55.72 261.45 55.55C261.02 55.34 260.77 54.89 260.6 54.45C260.39 53.94 260.28 53.28 260.69 52.92C260.82 52.81 260.99 52.74 261.15 52.7C261.47 52.61 261.82 52.58 262.15 52.61" fill="#1D1D1B"/>
<path d="M261.8 52.06C262.28 52 262.77 52 263.22 52.22C263.67 52.45 263.93 52.88 264.11 53.33C264.41 54.09 264.52 55.15 263.86 55.76C263.47 56.12 262.96 56.22 262.45 56.27C261.94 56.32 261.44 56.27 261.02 56.01C260.65 55.77 260.37 55.41 260.18 55.01C259.99 54.61 259.84 54.18 259.8 53.73C259.76 53.18 259.98 52.62 260.46 52.32C260.94 52.02 261.6 51.95 262.15 51.99C262.47 52.02 262.78 52.25 262.76 52.6C262.75 52.91 262.49 53.24 262.15 53.21C261.96 53.19 261.78 53.21 261.59 53.21C261.61 53.21 261.7 53.21 261.59 53.21C261.53 53.22 261.48 53.23 261.42 53.24C261.33 53.26 261.25 53.29 261.16 53.31C261.01 53.36 261.25 53.25 261.12 53.33C261.04 53.4 261.09 53.35 261.12 53.33C261.09 53.35 261.07 53.38 261.05 53.4C260.99 53.45 261.11 53.28 261.06 53.39L261.02 53.46L261.05 53.39C261.05 53.39 261.03 53.44 261.03 53.47L261.01 53.55C261.02 53.45 261.02 53.44 261.01 53.51V53.55C261.01 53.61 261.03 53.71 261.01 53.76V53.68C261.01 53.68 261.01 53.72 261.01 53.74C261.01 53.78 261.02 53.81 261.03 53.85C261.07 54 261.12 54.14 261.17 54.29C261.11 54.16 261.21 54.38 261.17 54.29C261.18 54.32 261.2 54.35 261.21 54.37C261.24 54.44 261.28 54.51 261.32 54.58C261.35 54.63 261.4 54.74 261.45 54.77C261.37 54.7 261.41 54.72 261.44 54.75C261.48 54.79 261.51 54.83 261.55 54.87C261.57 54.89 261.6 54.93 261.63 54.95C261.51 54.89 261.59 54.92 261.62 54.93C261.66 54.95 261.7 54.98 261.74 55C261.63 54.96 261.72 54.99 261.74 55C261.78 55.01 261.82 55.02 261.86 55.03C261.89 55.03 262.01 55.07 261.87 55.03C261.96 55.05 262.06 55.04 262.15 55.04C262.23 55.04 262.31 55.04 262.38 55.02C262.4 55.02 262.58 55.01 262.42 55.02C262.45 55.02 262.48 55.02 262.51 55.01C262.59 55 262.67 54.98 262.74 54.96C262.77 54.96 262.8 54.94 262.83 54.93C262.86 54.93 262.89 54.91 262.92 54.9C262.85 54.93 262.84 54.93 262.88 54.91C262.9 54.9 262.97 54.88 262.98 54.85C262.96 54.9 262.92 54.91 262.97 54.85L263 54.82C263 54.82 263.04 54.78 262.99 54.85C263 54.85 263.03 54.79 263.04 54.78C263.04 54.76 263.12 54.67 263.06 54.74C263.01 54.81 263.06 54.73 263.07 54.7C263.07 54.67 263.08 54.65 263.09 54.62C263.09 54.59 263.1 54.56 263.11 54.54C263.1 54.63 263.1 54.64 263.11 54.6C263.11 54.53 263.11 54.47 263.11 54.4C263.11 54.36 263.11 54.31 263.11 54.27C263.11 54.22 263.13 54.18 263.11 54.3C263.11 54.24 263.08 54.14 263.07 54.08C263.05 53.99 263.03 53.91 263 53.83C262.98 53.76 262.95 53.69 262.93 53.62C262.88 53.48 262.99 53.73 262.93 53.6C262.91 53.56 262.89 53.52 262.87 53.48C262.86 53.45 262.84 53.43 262.82 53.4C262.76 53.3 262.9 53.48 262.8 53.37C262.78 53.34 262.75 53.32 262.72 53.29C262.63 53.2 262.82 53.34 262.7 53.29C262.7 53.29 262.55 53.22 262.64 53.26C262.72 53.29 262.55 53.24 262.53 53.23C262.51 53.22 262.45 53.21 262.44 53.21C262.52 53.22 262.53 53.22 262.46 53.21H262.41C262.21 53.2 262.01 53.22 261.82 53.24C261.5 53.28 261.19 52.93 261.21 52.63C261.23 52.27 261.48 52.06 261.82 52.02L261.8 52.06Z" fill="#1D1D1B"/>
<path d="M242.49 53.54C243.06 53.4 243.7 53.76 243.88 54.32C243.94 54.51 243.95 54.71 243.95 54.92C243.95 55.13 243.94 55.35 243.86 55.54C243.76 55.79 243.56 55.99 243.32 56.11C242.82 56.35 242.18 56.23 241.76 55.87C241.34 55.51 241.13 54.93 241.14 54.37C241.14 54.2 241.17 54.04 241.23 53.88C241.39 53.5 241.81 53.26 242.23 53.26C242.65 53.26 243.04 53.46 243.34 53.76" fill="#1D1D1B"/>
<path d="M242.32 52.95C243.22 52.74 244.14 53.25 244.45 54.12C244.53 54.35 244.55 54.62 244.55 54.86C244.55 55.1 244.54 55.35 244.48 55.58C244.36 56.04 244.01 56.45 243.58 56.65C243.15 56.85 242.64 56.9 242.17 56.77C241.7 56.64 241.31 56.35 241.01 55.96C240.46 55.24 240.3 54.05 240.87 53.31C241.19 52.89 241.74 52.64 242.27 52.66C242.84 52.68 243.36 52.94 243.76 53.34C243.99 53.57 244 53.98 243.76 54.21C243.52 54.44 243.14 54.45 242.89 54.21C242.86 54.18 242.82 54.15 242.79 54.11C242.77 54.09 242.7 54.03 242.81 54.11C242.75 54.06 242.68 54.02 242.62 53.98C242.59 53.97 242.57 53.95 242.54 53.94C242.41 53.87 242.66 53.97 242.52 53.94C242.46 53.92 242.36 53.87 242.3 53.88H242.37C242.37 53.88 242.31 53.88 242.28 53.88C242.25 53.88 242.22 53.88 242.19 53.88C242.05 53.88 242.29 53.85 242.21 53.88C242.18 53.88 242.14 53.89 242.11 53.9C242.08 53.9 242.06 53.92 242.03 53.92C241.9 53.95 242.14 53.85 242.03 53.92C242.01 53.93 241.98 53.95 241.96 53.96C241.94 53.97 241.91 53.99 241.89 54.01L241.95 53.96C241.95 53.96 241.87 54.03 241.86 54.04C241.8 54.09 241.84 54.02 241.88 54.01C241.86 54.01 241.84 54.08 241.82 54.1C241.74 54.19 241.8 54.14 241.82 54.1C241.8 54.13 241.79 54.19 241.78 54.22C241.73 54.36 241.78 54.26 241.78 54.22C241.76 54.29 241.77 54.4 241.77 54.48C241.77 54.54 241.77 54.62 241.78 54.68V54.6C241.78 54.6 241.78 54.66 241.78 54.69C241.78 54.72 241.79 54.75 241.8 54.78C241.82 54.85 241.84 54.92 241.87 54.99C241.91 55.1 241.86 54.98 241.86 54.97C241.86 55.01 241.91 55.07 241.93 55.11C241.96 55.17 242 55.22 242.03 55.28C242.11 55.4 241.94 55.19 242.04 55.29C242.06 55.31 242.08 55.33 242.1 55.35C242.13 55.38 242.15 55.4 242.18 55.43C242.23 55.43 242.26 55.5 242.18 55.43C242.18 55.43 242.24 55.47 242.25 55.48C242.29 55.51 242.34 55.53 242.38 55.55C242.45 55.55 242.46 55.59 242.38 55.55C242.4 55.55 242.44 55.57 242.46 55.58C242.53 55.6 242.6 55.62 242.67 55.63C242.81 55.66 242.57 55.63 242.66 55.63C242.7 55.63 242.73 55.63 242.77 55.63C242.8 55.63 242.83 55.63 242.85 55.63C242.88 55.63 242.91 55.63 242.93 55.63C242.84 55.64 242.83 55.64 242.87 55.63C242.93 55.61 242.99 55.6 243.05 55.58C242.94 55.65 243.18 55.54 243.05 55.58C243.07 55.56 243.1 55.55 243.12 55.54C243.13 55.54 243.23 55.45 243.16 55.51C243.09 55.57 243.19 55.48 243.19 55.47C243.21 55.45 243.23 55.43 243.25 55.41C243.33 55.33 243.19 55.51 243.27 55.38C243.29 55.35 243.31 55.32 243.32 55.29C243.3 55.42 243.3 55.34 243.31 55.31C243.31 55.27 243.35 55.21 243.34 55.17C243.34 55.18 243.33 55.31 243.34 55.19C243.34 55.11 243.34 55.03 243.34 54.95C243.34 54.87 243.36 54.73 243.33 54.65C243.33 54.66 243.36 54.78 243.33 54.66C243.32 54.61 243.31 54.56 243.29 54.51V54.47C243.25 54.41 243.26 54.42 243.29 54.51C243.28 54.51 243.24 54.42 243.24 54.41L243.2 54.35C243.26 54.42 243.27 54.43 243.23 54.39C243.22 54.38 243.2 54.36 243.19 54.35C243.17 54.33 243.14 54.31 243.12 54.28C243.03 54.19 243.23 54.35 243.12 54.28C243.09 54.26 242.93 54.19 242.92 54.17C242.92 54.18 243.06 54.22 242.96 54.19C242.92 54.18 242.89 54.17 242.85 54.16H242.81C242.74 54.14 242.76 54.14 242.86 54.16C242.83 54.16 242.78 54.16 242.75 54.16C242.72 54.16 242.7 54.16 242.67 54.16C242.6 54.16 242.62 54.16 242.72 54.16C242.69 54.16 242.67 54.16 242.65 54.18C242.34 54.25 241.97 54.09 241.9 53.75C241.83 53.44 241.99 53.07 242.33 53L242.32 52.95Z" fill="#1D1D1B"/>
<path d="M253.37 51.15C253.37 54.26 252.72 57.33 251.43 60.16C250.8 61.54 249.85 62.73 249.21 64.09C248.92 64.72 248.73 65.61 249.25 66.18C249.77 66.75 250.73 66.62 251.42 66.55C252.2 66.48 252.2 67.7 251.42 67.78C250 67.91 248.36 67.74 247.85 66.17C247.33 64.58 248.3 63.19 249.1 61.91C251.11 58.69 252.15 54.96 252.14 51.17C252.14 50.38 253.36 50.38 253.36 51.17L253.37 51.15Z" fill="#1D1D1B"/>
<path d="M245.69 50.9C245.14 50.32 244.48 50 243.67 49.88C243.73 49.88 243.64 49.88 243.63 49.88C243.58 49.88 243.54 49.88 243.49 49.87C243.39 49.87 243.28 49.86 243.18 49.86C243.08 49.86 242.97 49.86 242.87 49.87C242.81 49.87 242.76 49.87 242.7 49.89C242.59 49.9 242.77 49.88 242.66 49.89C242.23 49.96 241.9 50.08 241.55 50.28C240.86 50.67 240.25 49.61 240.93 49.22C242.72 48.2 245.13 48.54 246.55 50.04C247.09 50.61 246.23 51.48 245.69 50.91V50.9Z" fill="#1D1D1B"/>
<path d="M259.35 48.16C261.61 47.51 264.24 47.58 266.01 49.32C266.57 49.87 265.71 50.74 265.15 50.19C263.69 48.76 261.52 48.82 259.68 49.34C258.92 49.56 258.6 48.37 259.35 48.16Z" fill="#1D1D1B"/>
<path d="M247.39 43.33C247.8 43.98 247.52 44.84 246.8 45.11C246.14 45.35 245.63 44.88 245.03 44.7C244.48 44.53 243.89 44.49 243.33 44.61C242.68 44.75 242.1 45.11 241.45 45.26C241.21 45.31 240.87 45.23 240.76 44.98C240.44 44.27 240.96 43.82 241.56 43.55C242.12 43.3 242.7 43.1 243.3 42.97C244.49 42.72 245.71 42.71 246.9 42.94C247.22 43 247.41 43.39 247.33 43.69C247.24 44.03 246.9 44.18 246.58 44.12C245.76 43.96 244.89 43.94 244.06 44.07C243.64 44.14 243.22 44.24 242.82 44.37C242.62 44.43 242.42 44.51 242.23 44.59C242.14 44.63 242.05 44.67 241.96 44.71C241.7 44.84 241.89 44.82 241.88 44.61L241.8 44.3L241.83 44.36L241.14 44.08C241.67 43.96 242.14 43.69 242.65 43.53C243.16 43.37 243.73 43.3 244.27 43.33C244.82 43.36 245.34 43.49 245.84 43.7C245.97 43.75 246.09 43.81 246.21 43.87C246.24 43.89 246.42 43.95 246.43 43.96C246.36 43.87 246.46 44.13 246.35 43.96C245.93 43.29 246.99 42.67 247.41 43.34L247.39 43.33Z" fill="#1D1D1B"/>
<path d="M267.65 43.61C266.33 42.87 264.92 42.33 263.43 42.01C262.77 41.87 262.1 41.75 261.42 41.74C261.02 41.74 260.08 41.77 259.9 42.24C259.89 42.27 259.79 42.26 259.95 42.3C260.13 42.34 260.31 42.27 260.48 42.22C260.82 42.12 261.14 42.01 261.49 41.93C262.17 41.78 262.87 41.7 263.57 41.72C264.27 41.74 264.97 41.83 265.64 42C265.98 42.09 266.31 42.19 266.63 42.32C266.82 42.39 267 42.47 267.19 42.56C267.28 42.6 267.37 42.65 267.46 42.69C267.74 42.78 267.76 43.02 267.52 43.41C266.84 43.01 267.45 41.95 268.14 42.35C268.78 42.73 268.64 43.73 267.93 43.95C267.6 44.05 267.27 43.95 266.97 43.81C266.59 43.64 266.23 43.46 265.83 43.33C264.35 42.85 262.75 42.82 261.25 43.27C260.53 43.49 259.77 43.74 259.12 43.21C258.49 42.7 258.56 41.9 259.08 41.34C260.08 40.26 261.77 40.48 263.08 40.7C264.91 41.01 266.67 41.65 268.28 42.56C268.97 42.95 268.35 44.01 267.66 43.62L267.65 43.61Z" fill="#1D1D1B"/>
<path d="M259.99 41.78C260.52 41.81 261.06 41.8 261.59 41.73L261.43 41.75C261.61 41.73 261.78 41.7 261.96 41.66C262.12 41.63 262.28 41.64 262.43 41.72C262.56 41.79 262.68 41.94 262.71 42.09C262.78 42.39 262.62 42.78 262.28 42.84C261.53 42.99 260.76 43.05 259.99 43C259.67 42.98 259.36 42.73 259.38 42.39C259.39 42.08 259.65 41.75 259.99 41.78Z" fill="#1D1D1B"/>
<path opacity="0.29" d="M304.95 182.7L305.87 145.75L314.58 193.47L254.62 176.28L304.95 182.7Z" fill="#121A2D"/>
<path d="M257.07 1.89001C247.31 5.10001 239.52 13.99 236.25 24.7L231.34 23.08C231.34 23.08 234.89 3.73001 257.06 1.89001H257.07Z" fill="white"/>
<path d="M267.03 2.20001C267.36 2.24001 267.67 2.27001 268.01 2.32001C304.81 7.70001 294.36 43.85 294.36 43.85L243.95 27.24C247.31 15.28 255.47 5.22001 267.04 2.21001L267.03 2.20001Z" fill="white"/>
<path d="M257.07 1.89C260.04 1.64 263.36 1.73 267.03 2.2C255.46 5.21 247.3 15.28 243.94 27.23L236.25 24.7C239.51 13.99 247.31 5.11 257.07 1.89Z" fill="#EDEDED"/>
<path d="M294.35 43.85C294.35 43.85 271.09 27.82 242.44 19.87C214.66 12.16 223.47 24.39 228.16 29.65C229.34 30.97 231.1 31.63 232.86 31.36C237.78 30.59 249.22 29.64 262.85 34.18C281.11 40.27 294.35 43.85 294.35 43.85Z" fill="#F6F6F6"/>
<path opacity="0.2" d="M270.24 150.92C270.43 148.59 270.81 146.1 271.32 143.54C271.85 140.89 272.52 138.16 273.3 135.39C285.55 135.13 297.83 135.13 310.24 135.46C308.49 138.47 307.02 141.7 306.05 145.13C307.35 149.77 308.63 154.52 309.85 159.3C296.48 159.3 283.12 159.34 269.75 159.43C269.88 156.27 270.04 153.39 270.24 150.93V150.92Z" fill="#F6F6F6"/>
<path opacity="0.2" d="M314.58 179.61C316.21 187.44 317.52 194.98 318.28 201.77L316.94 206.17C301.47 206.1 285.87 206.65 270.24 207.34C269.76 198.09 269.5 188.89 269.45 180.41C284.44 179.93 299.45 179.52 314.59 179.62L314.58 179.61Z" fill="#F6F6F6"/>
<path opacity="0.2" d="M214.13 137.63C219.87 137.21 231.83 137.18 237.52 136.84C236.71 140.42 235.84 144.31 234.91 148.57C234.26 151.54 233.68 154.59 233.16 157.7C233.04 158.42 232.93 159.14 232.82 159.86C227.07 159.96 217.86 160.09 212.11 160.23C212.74 151.23 213.3 143.87 214.13 137.62V137.63Z" fill="#F6F6F6"/>
<path opacity="0.2" d="M211.45 181.66C217.74 181.69 224.01 181.63 230.26 181.52C229.84 186.44 229.5 191.36 229.27 196.18C229.06 200.58 228.92 204.9 228.84 209.09C223.12 209.28 217.41 209.42 211.72 209.49C211.51 200.49 211.39 190.97 211.45 181.66Z" fill="#F6F6F6"/>
<path opacity="0.5" d="M218.88 169.9C218.88 170.05 218.97 170.32 218.88 169.9V169.9Z" fill="#192441"/>
<path d="M138.21 151.74L141.51 150.01C141.71 149.9 141.94 149.85 142.17 149.85L212.79 149.73C213.34 149.73 213.85 150.04 214.1 150.53L237.42 196.79C237.6 197.15 237.57 197.57 237.33 197.9L235.78 200.07L138.21 151.74Z" fill="#B2B2B2"/>
<path opacity="0.5" d="M205.47 187.48C205.47 187.56 205.48 187.62 205.56 187.58C205.57 187.58 205.53 187.53 205.47 187.48Z" fill="#192441"/>
<path d="M137.78 153.23L163.78 199.86C163.97 200.2 164.34 200.42 164.73 200.42H234.99C235.8 200.42 236.33 199.56 235.96 198.84L212.03 152.21C211.84 151.85 211.47 151.62 211.06 151.62H138.74C137.91 151.62 137.39 152.51 137.79 153.24L137.78 153.23Z" fill="#DADADA"/>
<path d="M218.88 169.9C218.88 170.05 218.97 170.32 218.88 169.9V169.9Z" fill="#F4A39B"/>
<path d="M261.51 179.33C252.78 179.3 244.21 176.87 236.74 172.35C234.94 171.26 233.19 170.08 231.56 168.75C229.84 167.35 230.62 164.6 228.87 163.25C226.66 161.55 221.23 156.96 219.47 159.6C219.3 159.86 219.16 160.13 219.05 160.4L223.02 168.14C223.02 168.14 220.72 169.29 220.71 169.36C219.37 170.06 215.52 170.72 214.54 170.91C212.34 171.33 210.15 171.36 207.93 171.55C205.73 171.73 203.55 172.17 201.83 173.65C199.87 175.35 199.21 177.98 199.72 180.47C200.21 182.88 201.91 184.68 203.95 185.92C204.03 185.97 205.03 186.63 205.54 187C205.22 187.53 205.03 188.19 204.98 188.79C204.72 191.82 207.2 193.28 209.72 194.11C212.32 194.96 214.99 195.49 217.71 195.82C223.21 196.49 228.6 195.58 234.07 195.33C234.24 195.33 234.41 195.31 234.58 195.31C239.16 195.18 244.34 196.11 247.66 199.58C248.47 200.43 249.42 200.64 250.29 200.47C251 200.42 251.67 200.15 252.12 199.58C255.99 194.63 259.86 189.67 263.74 184.72C265.34 182.67 264.48 179.35 261.51 179.34V179.33ZM205.75 187.15C205.81 187.2 205.85 187.24 205.84 187.25C205.76 187.29 205.75 187.24 205.75 187.15Z" fill="#F4A39B"/>
<path d="M306.05 145.13C306.05 145.13 307.99 176.91 310.24 188.48C310.24 188.48 264.7 176.27 254.63 176.27C254.63 176.27 247.99 191.7 246.71 201.76C246.71 201.76 313.53 229.17 323.81 230.03C334.09 230.89 344.37 227.67 347.37 211.82C350.37 195.97 343.61 146.7 339.82 132.54C336.02 118.38 333.82 111.87 333.82 111.87C333.82 111.87 313.58 121.26 306.06 145.12L306.05 145.13Z" fill="#192441"/>
</g>
<path d="M246.95 77.26C247.55 76.62 248.52 76.77 249.31 76.86C250.24 76.97 251.21 77.12 252.12 76.84C252.99 76.57 253.63 75.93 254.41 75.49C255.23 75.03 256.21 74.85 257.14 74.97C257.85 75.07 258.16 73.97 257.44 73.88C256.42 73.74 255.42 73.82 254.46 74.21C253.5 74.6 252.79 75.43 251.82 75.74C249.98 76.32 247.7 74.81 246.15 76.45C245.65 76.98 246.45 77.78 246.95 77.25V77.26Z" fill="#1D1D1B"/>
<defs>
<filter id="filter0_d_220_14" x="11.08" y="47.98" width="242.53" height="159.49" filterUnits="userSpaceOnUse" color-interpolation-filters="sRGB">
<feFlood flood-opacity="0" result="BackgroundImageFix"/>
<feColorMatrix in="SourceAlpha" type="matrix" values="0 0 0 0 0 0 0 0 0 0 0 0 0 0 0 0 0 0 127 0" result="hardAlpha"/>
<feOffset/>
<feGaussianBlur stdDeviation="4"/>
<feColorMatrix type="matrix" values="0 0 0 0 0.113725 0 0 0 0 0.113725 0 0 0 0 0.105882 0 0 0 0.5 0"/>
<feBlend mode="normal" in2="BackgroundImageFix" result="effect1_dropShadow_220_14"/>
<feBlend mode="normal" in="SourceGraphic" in2="effect1_dropShadow_220_14" result="shape"/>
</filter>
</defs>
</svg>
