<svg width="374" height="269" viewBox="0 0 374 269" fill="none" xmlns="http://www.w3.org/2000/svg">
<path opacity="0.5" d="M332.92 39.02C331.5 33.39 326.35 29.56 320.61 29.5C318.34 29.47 316.08 29.5 313.81 29.5H54.17C53.45 29.5 52.73 29.48 52.02 29.53C45.38 29.97 40.3 35.57 40.21 42.16C40.17 45.08 40.21 48.01 40.21 50.93V219.59C40.21 222.95 39.77 226.92 40.81 230.16C42.51 235.43 47.45 238.87 52.93 238.93C53.65 238.93 54.36 238.93 55.08 238.93H320.69C327.64 238.82 333.22 233.26 333.32 226.29C333.33 225.49 333.32 224.69 333.32 223.89V43.67C333.32 42.1 333.32 40.57 332.93 39.02H332.92Z" fill="#34B9CA"/>
<path d="M232.21 46.14H18.59C10.19 46.14 3.38 52.95 3.38 61.35V83.35C3.38 91.75 10.19 98.56 18.59 98.56H28.92C28.69 102.86 28.06 109.36 26.32 114.67C25.46 117.31 28.19 119.68 30.7 118.52C38.65 114.84 45.51 108.74 52.24 98.56H232.21C240.61 98.56 247.42 91.75 247.42 83.35V61.35C247.42 52.95 240.61 46.14 232.21 46.14Z" fill="#192441"/>
<path d="M77.65 65.3L73.68 78.69H71.19L68.38 68.55L65.39 78.69L62.92 78.71L59.12 65.3H61.45L64.23 76.21L67.24 65.3H69.71L72.5 76.15L75.29 65.3H77.64H77.65Z" fill="white"/>
<path d="M87.13 68.42C87.77 68.77 88.27 69.28 88.63 69.96C89 70.64 89.18 71.46 89.18 72.43V78.69H87V72.75C87 71.8 86.76 71.07 86.29 70.56C85.81 70.05 85.17 69.8 84.34 69.8C83.51 69.8 82.87 70.05 82.38 70.56C81.9 71.07 81.66 71.8 81.66 72.75V78.69H79.46V64.43H81.66V69.31C82.03 68.86 82.51 68.51 83.08 68.27C83.65 68.03 84.28 67.9 84.96 67.9C85.77 67.9 86.49 68.07 87.13 68.42Z" fill="white"/>
<path d="M91.91 70.5C92.35 69.68 92.96 69.04 93.72 68.58C94.48 68.12 95.33 67.9 96.25 67.9C97.08 67.9 97.81 68.06 98.44 68.39C99.07 68.72 99.56 69.13 99.93 69.61V68.07H102.15V78.69H99.93V77.11C99.56 77.61 99.05 78.03 98.41 78.36C97.77 78.69 97.03 78.86 96.21 78.86C95.3 78.86 94.46 78.62 93.71 78.16C92.95 77.69 92.35 77.04 91.91 76.2C91.47 75.36 91.25 74.4 91.25 73.34C91.25 72.28 91.47 71.33 91.91 70.51V70.5ZM99.48 71.46C99.18 70.92 98.78 70.51 98.29 70.23C97.8 69.95 97.28 69.81 96.71 69.81C96.14 69.81 95.62 69.95 95.13 70.22C94.64 70.5 94.25 70.9 93.94 71.44C93.64 71.97 93.49 72.61 93.49 73.34C93.49 74.07 93.64 74.72 93.94 75.27C94.24 75.82 94.64 76.24 95.13 76.53C95.62 76.82 96.15 76.96 96.7 76.96C97.25 76.96 97.79 76.82 98.28 76.54C98.77 76.26 99.16 75.84 99.47 75.3C99.77 74.75 99.92 74.11 99.92 73.38C99.92 72.65 99.77 72.01 99.47 71.47L99.48 71.46Z" fill="white"/>
<path d="M107.6 69.87V75.75C107.6 76.15 107.69 76.43 107.88 76.61C108.07 76.78 108.38 76.87 108.83 76.87H110.18V78.7H108.45C107.46 78.7 106.7 78.47 106.18 78.01C105.65 77.55 105.39 76.79 105.39 75.75V69.87H104.14V68.08H105.39V65.44H107.61V68.08H110.19V69.87H107.61H107.6Z" fill="white"/>
<path d="M124.88 68.42C125.52 68.77 126.02 69.28 126.38 69.96C126.75 70.64 126.93 71.46 126.93 72.43V78.69H124.75V72.75C124.75 71.8 124.51 71.07 124.04 70.56C123.56 70.05 122.92 69.8 122.09 69.8C121.26 69.8 120.62 70.05 120.13 70.56C119.65 71.07 119.41 71.8 119.41 72.75V78.69H117.21V64.43H119.41V69.31C119.78 68.86 120.26 68.51 120.83 68.27C121.4 68.03 122.03 67.9 122.71 67.9C123.52 67.9 124.24 68.07 124.88 68.42Z" fill="white"/>
<path d="M129.66 70.5C130.1 69.68 130.71 69.04 131.47 68.58C132.23 68.12 133.08 67.9 134 67.9C134.83 67.9 135.56 68.06 136.19 68.39C136.82 68.72 137.31 69.13 137.68 69.61V68.07H139.9V78.69H137.68V77.11C137.31 77.61 136.8 78.03 136.16 78.36C135.52 78.69 134.78 78.86 133.96 78.86C133.05 78.86 132.21 78.62 131.46 78.16C130.7 77.69 130.1 77.04 129.66 76.2C129.22 75.36 129 74.4 129 73.34C129 72.28 129.22 71.33 129.66 70.51V70.5ZM137.23 71.46C136.93 70.92 136.53 70.51 136.04 70.23C135.55 69.95 135.03 69.81 134.46 69.81C133.89 69.81 133.37 69.95 132.88 70.22C132.39 70.5 132 70.9 131.69 71.44C131.39 71.97 131.24 72.61 131.24 73.34C131.24 74.07 131.39 74.72 131.69 75.27C131.99 75.82 132.39 76.24 132.88 76.53C133.37 76.82 133.9 76.96 134.45 76.96C135 76.96 135.54 76.82 136.03 76.54C136.52 76.26 136.91 75.84 137.22 75.3C137.52 74.75 137.67 74.11 137.67 73.38C137.67 72.65 137.52 72.01 137.22 71.47L137.23 71.46Z" fill="white"/>
<path d="M146.51 68.4C147.15 68.07 147.88 67.9 148.69 67.9C149.62 67.9 150.46 68.13 151.22 68.58C151.98 69.04 152.58 69.67 153.02 70.5C153.46 71.32 153.67 72.27 153.67 73.33C153.67 74.39 153.45 75.35 153.02 76.19C152.58 77.03 151.98 77.69 151.22 78.15C150.45 78.62 149.61 78.85 148.69 78.85C147.88 78.85 147.16 78.69 146.53 78.36C145.9 78.03 145.39 77.62 144.99 77.14V83.73H142.79V68.06H144.99V69.62C145.36 69.13 145.87 68.72 146.51 68.39V68.4ZM150.99 71.44C150.69 70.91 150.29 70.5 149.8 70.22C149.31 69.94 148.78 69.81 148.21 69.81C147.64 69.81 147.13 69.95 146.64 70.23C146.15 70.51 145.75 70.92 145.45 71.46C145.15 72 145 72.64 145 73.37C145 74.1 145.15 74.74 145.45 75.29C145.75 75.84 146.15 76.25 146.64 76.53C147.13 76.81 147.66 76.95 148.21 76.95C148.76 76.95 149.3 76.81 149.8 76.52C150.3 76.23 150.69 75.81 150.99 75.26C151.29 74.71 151.44 74.07 151.44 73.33C151.44 72.59 151.29 71.97 150.99 71.43V71.44Z" fill="white"/>
<path d="M159.57 68.4C160.21 68.07 160.94 67.9 161.75 67.9C162.68 67.9 163.52 68.13 164.28 68.58C165.04 69.04 165.64 69.67 166.08 70.5C166.52 71.32 166.73 72.27 166.73 73.33C166.73 74.39 166.51 75.35 166.08 76.19C165.64 77.03 165.04 77.69 164.28 78.15C163.51 78.62 162.67 78.85 161.75 78.85C160.94 78.85 160.22 78.69 159.59 78.36C158.96 78.03 158.45 77.62 158.05 77.14V83.73H155.85V68.06H158.05V69.62C158.42 69.13 158.93 68.72 159.57 68.39V68.4ZM164.05 71.44C163.75 70.91 163.35 70.5 162.86 70.22C162.37 69.94 161.84 69.81 161.27 69.81C160.7 69.81 160.19 69.95 159.7 70.23C159.21 70.51 158.81 70.92 158.51 71.46C158.21 72 158.06 72.64 158.06 73.37C158.06 74.1 158.21 74.74 158.51 75.29C158.81 75.84 159.21 76.25 159.7 76.53C160.19 76.81 160.72 76.95 161.27 76.95C161.82 76.95 162.36 76.81 162.86 76.52C163.36 76.23 163.75 75.81 164.05 75.26C164.35 74.71 164.5 74.07 164.5 73.33C164.5 72.59 164.35 71.97 164.05 71.43V71.44Z" fill="white"/>
<path d="M178.57 74.2H170.46C170.52 75.05 170.84 75.73 171.4 76.24C171.96 76.75 172.66 77.01 173.48 77.01C174.66 77.01 175.5 76.52 175.98 75.53H178.35C178.03 76.51 177.45 77.31 176.61 77.93C175.77 78.55 174.72 78.86 173.48 78.86C172.47 78.86 171.56 78.63 170.75 78.17C169.95 77.72 169.32 77.07 168.86 76.24C168.4 75.41 168.18 74.45 168.18 73.36C168.18 72.27 168.4 71.31 168.84 70.48C169.28 69.65 169.9 69.01 170.71 68.56C171.51 68.11 172.43 67.89 173.47 67.89C174.51 67.89 175.36 68.11 176.15 68.55C176.93 68.99 177.54 69.6 177.98 70.39C178.42 71.18 178.64 72.09 178.64 73.12C178.64 73.52 178.61 73.88 178.56 74.2H178.57ZM176.35 72.43C176.34 71.62 176.05 70.97 175.48 70.48C174.91 69.99 174.21 69.75 173.38 69.75C172.62 69.75 171.97 69.99 171.43 70.47C170.89 70.95 170.57 71.6 170.47 72.43H176.35Z" fill="white"/>
<path d="M188.41 68.42C189.07 68.77 189.59 69.28 189.96 69.96C190.33 70.64 190.52 71.46 190.52 72.43V78.69H188.34V72.75C188.34 71.8 188.1 71.07 187.63 70.56C187.15 70.05 186.51 69.8 185.68 69.8C184.85 69.8 184.21 70.05 183.72 70.56C183.24 71.07 183 71.8 183 72.75V78.69H180.8V68.07H183V69.28C183.36 68.84 183.82 68.5 184.38 68.26C184.94 68.02 185.53 67.89 186.16 67.89C186.99 67.89 187.74 68.06 188.4 68.41L188.41 68.42Z" fill="white"/>
<path d="M202.97 74.2H194.86C194.92 75.05 195.24 75.73 195.8 76.24C196.36 76.75 197.06 77.01 197.88 77.01C199.06 77.01 199.9 76.52 200.38 75.53H202.75C202.43 76.51 201.85 77.31 201.01 77.93C200.17 78.55 199.12 78.86 197.88 78.86C196.87 78.86 195.96 78.63 195.15 78.17C194.35 77.72 193.72 77.07 193.26 76.24C192.8 75.41 192.58 74.45 192.58 73.36C192.58 72.27 192.8 71.31 193.24 70.48C193.68 69.65 194.3 69.01 195.11 68.56C195.91 68.11 196.83 67.89 197.87 67.89C198.91 67.89 199.76 68.11 200.55 68.55C201.33 68.99 201.94 69.6 202.38 70.39C202.82 71.18 203.04 72.09 203.04 73.12C203.04 73.52 203.01 73.88 202.96 74.2H202.97ZM200.75 72.43C200.74 71.62 200.45 70.97 199.88 70.48C199.31 69.99 198.61 69.75 197.78 69.75C197.02 69.75 196.37 69.99 195.83 70.47C195.29 70.95 194.97 71.6 194.87 72.43H200.75Z" fill="white"/>
<path d="M205.14 70.5C205.58 69.68 206.19 69.04 206.95 68.58C207.71 68.12 208.57 67.9 209.5 67.9C210.19 67.9 210.88 68.05 211.55 68.35C212.23 68.65 212.76 69.05 213.16 69.55V64.43H215.38V78.69H213.16V77.09C212.8 77.6 212.3 78.03 211.67 78.36C211.03 78.69 210.31 78.86 209.48 78.86C208.55 78.86 207.71 78.62 206.95 78.16C206.18 77.69 205.58 77.04 205.14 76.2C204.7 75.36 204.48 74.4 204.48 73.34C204.48 72.28 204.7 71.33 205.14 70.51V70.5ZM212.71 71.46C212.41 70.92 212.01 70.51 211.52 70.23C211.03 69.95 210.51 69.81 209.94 69.81C209.37 69.81 208.85 69.95 208.36 70.22C207.87 70.5 207.48 70.9 207.17 71.44C206.87 71.97 206.72 72.61 206.72 73.34C206.72 74.07 206.87 74.72 207.17 75.27C207.47 75.82 207.87 76.24 208.36 76.53C208.85 76.82 209.38 76.96 209.93 76.96C210.48 76.96 211.02 76.82 211.51 76.54C212 76.26 212.39 75.84 212.7 75.3C213 74.75 213.15 74.11 213.15 73.38C213.15 72.65 213 72.01 212.7 71.47L212.71 71.46Z" fill="white"/>
<path d="M225.03 66.19C225.82 66.91 226.21 67.89 226.21 69.14C226.21 70.39 225.8 71.41 224.98 72.07C224.16 72.73 223.07 73.05 221.7 73.05L221.62 74.57H219.71L219.61 71.54H220.25C221.5 71.54 222.45 71.37 223.11 71.04C223.77 70.71 224.1 70.07 224.1 69.13C224.1 68.45 223.9 67.92 223.51 67.53C223.12 67.14 222.58 66.95 221.88 66.95C221.18 66.95 220.64 67.14 220.24 67.51C219.84 67.88 219.64 68.4 219.64 69.07H217.58C217.58 68.3 217.75 67.61 218.1 67.01C218.45 66.41 218.95 65.94 219.59 65.6C220.24 65.27 220.99 65.1 221.85 65.1C223.16 65.1 224.21 65.46 225 66.18L225.03 66.19ZM219.64 78.43C219.37 78.16 219.24 77.83 219.24 77.43C219.24 77.03 219.37 76.7 219.64 76.43C219.91 76.16 220.24 76.03 220.64 76.03C221.04 76.03 221.35 76.16 221.62 76.43C221.89 76.7 222.02 77.03 222.02 77.43C222.02 77.83 221.89 78.16 221.62 78.43C221.35 78.7 221.02 78.83 220.64 78.83C220.26 78.83 219.91 78.7 219.64 78.43Z" fill="white"/>
<path d="M49.66 78.96L44.07 70.12L38.48 61.28C37.24 59.32 34.13 59.32 32.89 61.28L27.28 70.11L21.67 78.94C20.43 80.9 21.98 83.35 24.46 83.35H35.65L46.84 83.37C49.32 83.37 50.88 80.92 49.64 78.96H49.66ZM33.68 66.02C33.68 65.01 34.58 64.19 35.69 64.19C36.8 64.19 37.7 65.01 37.7 66.02V74.47C37.69 75.48 36.79 76.3 35.68 76.3C34.57 76.3 33.67 75.48 33.67 74.47V66.02H33.68ZM35.67 80.83C34.54 80.83 33.62 79.99 33.62 78.96C33.62 77.93 34.54 77.09 35.67 77.09C36.8 77.09 37.72 77.93 37.72 78.96C37.72 79.99 36.8 80.83 35.67 80.83Z" fill="#ED6A4C"/>
<path d="M33.67 66.02C33.67 65.01 34.57 64.19 35.68 64.19C36.79 64.19 37.69 65.01 37.69 66.02V74.47C37.68 75.48 36.78 76.3 35.67 76.3C34.56 76.3 33.66 75.48 33.66 74.47V66.02H33.67Z" fill="black"/>
<path d="M35.67 80.83C36.8022 80.83 37.72 79.9928 37.72 78.96C37.72 77.9272 36.8022 77.09 35.67 77.09C34.5378 77.09 33.62 77.9272 33.62 78.96C33.62 79.9928 34.5378 80.83 35.67 80.83Z" fill="black"/>
<path d="M73.98 111.34H167.35C172.68 111.34 177 115.66 177 120.99V150.74C177 156.07 172.68 160.39 167.35 160.39H160.8C160.95 163.12 161.35 167.24 162.45 170.61C163 172.28 161.27 173.79 159.67 173.05C154.63 170.72 150.28 166.85 146.01 160.39H73.99C68.66 160.39 64.34 156.07 64.34 150.74V120.99C64.34 115.66 68.66 111.34 73.99 111.34H73.98Z" fill="#ED6A4D"/>
<path d="M95.17 140.85C98.8759 140.85 101.88 137.846 101.88 134.14C101.88 130.434 98.8759 127.43 95.17 127.43C91.4642 127.43 88.46 130.434 88.46 134.14C88.46 137.846 91.4642 140.85 95.17 140.85Z" fill="white"/>
<path d="M121.09 140.85C124.796 140.85 127.8 137.846 127.8 134.14C127.8 130.434 124.796 127.43 121.09 127.43C117.384 127.43 114.38 130.434 114.38 134.14C114.38 137.846 117.384 140.85 121.09 140.85Z" fill="white"/>
<path d="M147.01 140.85C150.716 140.85 153.72 137.846 153.72 134.14C153.72 130.434 150.716 127.43 147.01 127.43C143.304 127.43 140.3 130.434 140.3 134.14C140.3 137.846 143.304 140.85 147.01 140.85Z" fill="white"/>
<mask id="mask0_220_97" style="mask-type:luminance" maskUnits="userSpaceOnUse" x="40" y="29" width="294" height="210">
<path d="M332.92 39.02C331.5 33.39 326.35 29.56 320.61 29.5C318.34 29.47 316.08 29.5 313.81 29.5H54.17C53.45 29.5 52.73 29.48 52.02 29.53C45.38 29.97 40.3 35.57 40.21 42.16C40.17 45.08 40.21 48.01 40.21 50.93V219.59C40.21 222.95 39.77 226.92 40.81 230.16C42.51 235.43 47.45 238.87 52.93 238.93C53.65 238.93 54.36 238.93 55.08 238.93H320.69C327.64 238.82 333.22 233.26 333.32 226.29C333.33 225.49 333.32 224.69 333.32 223.89V43.67C333.32 42.1 333.32 40.57 332.93 39.02H332.92Z" fill="white"/>
</mask>
<g mask="url(#mask0_220_97)">
<path d="M256.9 84.45C256.9 84.45 234.22 106.4 234.22 166.5C234.22 166.5 249.41 219.68 226.97 205.72C226.97 205.72 211.07 218.77 200.9 232.98C200.9 232.98 217.54 237.26 250.08 243.36C282.62 249.46 303.5 188.3 303.5 188.3L256.9 84.44V84.45Z" fill="#192441"/>
<path d="M243.99 176.82C243.99 176.82 245.33 108.85 256.9 84.45L266.81 127.13L243.99 176.82Z" fill="#ED6A4C"/>
<path d="M333.41 143.37C333.7 139.81 334.28 136.03 335.05 132.12C335.85 128.09 336.88 123.91 338.06 119.7C356.72 119.3 375.44 119.31 394.35 119.81C391.68 124.4 389.44 129.31 387.97 134.55C389.95 141.62 391.9 148.86 393.76 156.14C373.39 156.15 353.02 156.2 332.65 156.33C332.85 151.51 333.1 147.13 333.4 143.37H333.41Z" fill="#ED6A4C"/>
<path d="M400.99 187.09C403.48 199.02 405.47 210.51 406.63 220.86L404.58 227.56C381 227.45 357.23 228.29 333.41 229.34C332.68 215.25 332.29 201.22 332.2 188.3C355.05 187.57 377.92 186.95 400.99 187.09Z" fill="#ED6A4C"/>
<path d="M332.65 156.33C353.02 156.2 373.39 156.15 393.76 156.14C396.42 166.53 398.88 176.97 400.98 187.1C377.92 186.96 355.04 187.58 332.19 188.31C332.11 176.47 332.27 165.54 332.64 156.34L332.65 156.33Z" fill="#ED6A4C"/>
<path d="M315.76 56.44H343.67L308.03 59.78C310.48 58.73 313.02 57.63 315.76 56.44Z" fill="#192441"/>
<path d="M308.03 59.78C304.76 61.19 301.75 62.49 298.97 63.69C299.22 63.09 299.34 62.88 299.34 62.88" fill="#192441"/>
<path d="M256.9 84.43H256.92C256.92 84.43 256.91 84.43 256.9 84.44V84.43Z" fill="#192441"/>
<path d="M243.98 177.5L243.78 176.97C243.85 176.92 243.93 176.87 244 176.82C244 177.05 244 177.27 243.99 177.5H243.98Z" fill="#192441"/>
<path d="M271.85 303.66H341.66C332.12 257.99 330.66 177.11 333.41 143.37C333.7 139.81 334.28 136.03 335.05 132.12C339.31 110.67 349.96 85.29 356.95 70.04C360.76 61.73 363.48 56.43 363.48 56.43H343.66L308.02 59.77C304.75 61.18 301.74 62.48 298.96 63.68C298.72 64.24 298.36 65.16 297.88 66.56C302.91 70.82 298.97 89.36 293.2 108.25C286.33 130.73 276.88 153.7 276.88 153.7C273.67 172.67 271.88 192.99 270.96 212.35C268.65 261.03 271.84 303.66 271.84 303.66H271.85Z" fill="#192441"/>
<path d="M303.1 124.59L306.57 130.31L299.07 129.83L303.1 124.59Z" fill="#192441"/>
<path d="M297.89 66.56C302.92 70.82 298.98 89.36 293.21 108.25L288.54 100.54C293.37 80.7 296.32 71.05 297.89 66.56Z" fill="#192441"/>
<path d="M243.99 176.82C243.92 176.87 243.84 176.92 243.77 176.97C243.85 176.75 243.92 176.54 244 176.32C244 176.49 244 176.65 243.99 176.82Z" fill="#192441"/>
<path d="M258.5 94.44C257.94 87.85 256.93 84.54 256.9 84.45C256.9 84.45 256.91 84.44 256.92 84.43C267.39 75.24 279.19 68.08 294.26 65.72C295.75 65.07 297.32 64.39 298.97 63.68C298.73 64.24 298.37 65.16 297.89 66.56C296.32 71.06 293.37 80.7 288.54 100.54C287.05 106.65 285.39 113.73 283.53 121.91C274.86 122.42 266.15 123.02 257.41 123.66C259.14 110.68 259.05 100.94 258.5 94.44Z" fill="#ED6A4C"/>
<path d="M257.42 123.66C266.16 123.02 274.87 122.42 283.54 121.91C282.3 127.36 280.98 133.29 279.57 139.79C278.58 144.32 277.7 148.97 276.9 153.7C276.72 154.79 276.55 155.9 276.38 157C267.62 157.16 258.85 157.35 250.09 157.57C253.88 144.5 256.16 133.19 257.43 123.66H257.42Z" fill="#ED6A4C"/>
<path d="M243.81 190.22C243.84 185.94 243.89 181.69 243.98 177.5C243.98 177.27 243.99 177.05 243.99 176.82C243.99 176.65 243.99 176.49 244 176.32C246.39 169.69 248.37 163.47 250.08 157.57C258.84 157.35 267.61 157.16 276.37 157C274.65 167.76 273.41 178.89 272.47 190C262.94 190.17 253.39 190.26 243.8 190.21L243.81 190.22Z" fill="#ED6A4C"/>
<path d="M271.85 303.66H247.19C247.19 303.66 245.13 271.39 244.21 232.63C252.89 232.52 261.59 232.3 270.3 232.02C269.47 271.96 271.84 303.66 271.84 303.66H271.85Z" fill="#ED6A4C"/>
<path d="M243.81 190.22C253.39 190.26 262.95 190.18 272.48 190.01C271.85 197.51 271.33 205 270.98 212.36C270.66 219.07 270.45 225.65 270.32 232.03C261.61 232.32 252.91 232.53 244.23 232.64C243.9 218.93 243.72 204.42 243.82 190.22H243.81Z" fill="#ED6A4C"/>
<path d="M288.54 100.55L293.21 108.26C286.34 130.74 276.89 153.71 276.89 153.71C277.69 148.98 278.58 144.33 279.56 139.8C283.1 123.56 286.06 110.73 288.54 100.56V100.55Z" fill="#192441"/>
<path d="M350.66 5.42999C350.66 5.42999 353.29 46.65 354.84 54.71C355.61 58.7 346.31 68.91 336.72 78.21C327.48 87.18 312.09 83.83 307.47 71.81L304.54 64.18C304.54 64.18 306.49 47.57 303.39 37.66C300.3 27.74 350.66 5.42999 350.66 5.42999Z" fill="#F4A39B"/>
<path opacity="0.1" d="M350.66 5.42999C350.66 5.42999 350.84 8.26999 351.14 12.6H350.88C354.47 39.54 329.18 53.62 305.12 54.89C305.23 49.46 304.96 42.7 303.39 37.67C300.3 27.75 350.66 5.43999 350.66 5.43999V5.42999Z" fill="#282323"/>
<path d="M280.43 -31.07C280.43 -31.07 272.48 -7.63999 280.43 21.24C288.38 50.11 301.77 50.11 308.47 50.11C315.17 50.11 345.29 49.69 351.57 17.05C351.57 17.05 360.78 7.43001 358.27 -5.12999C355.76 -17.68 347.81 -5.12999 347.81 -5.12999C347.81 -5.12999 348.65 2.40001 345.72 2.40001C342.79 2.40001 346.14 -8.47999 344.05 -20.2C341.96 -31.92 326.89 -41.12 312.25 -37.78C297.6 -34.43 295.22 -38.25 290.49 -38.48C287.12 -38.64 282.19 -38.1 280.45 -31.09L280.43 -31.07Z" fill="#F4A39B"/>
<path opacity="0.2" d="M333.41 143.37C333.7 139.81 334.28 136.03 335.05 132.12C335.85 128.09 336.88 123.91 338.06 119.7C356.72 119.3 375.44 119.31 394.35 119.81C391.68 124.4 389.44 129.31 387.97 134.55C389.95 141.62 391.9 148.86 393.76 156.14C373.39 156.15 353.02 156.2 332.65 156.33C332.85 151.51 333.1 147.13 333.4 143.37H333.41Z" fill="#F6F6F6"/>
<path opacity="0.2" d="M400.99 187.09C403.48 199.02 405.47 210.51 406.63 220.86L404.58 227.56C381 227.45 357.23 228.29 333.41 229.34C332.68 215.25 332.29 201.22 332.2 188.3C355.05 187.57 377.92 186.95 400.99 187.09Z" fill="#F6F6F6"/>
<path opacity="0.2" d="M247.89 123.11C256.63 122.47 274.87 122.43 283.53 121.91C282.29 127.36 280.97 133.29 279.56 139.79C278.57 144.32 277.69 148.97 276.89 153.7C276.71 154.79 276.54 155.9 276.37 157C267.61 157.16 253.57 157.35 244.81 157.57C245.76 143.85 246.63 132.63 247.9 123.11H247.89Z" fill="#F6F6F6"/>
<path opacity="0.2" d="M243.81 190.22C253.39 190.26 262.95 190.18 272.48 190.01C271.85 197.51 271.33 205 270.98 212.36C270.66 219.07 270.45 225.65 270.32 232.03C261.61 232.32 252.91 232.53 244.23 232.64C243.9 218.93 243.72 204.42 243.82 190.22H243.81Z" fill="#F6F6F6"/>
<path d="M154.75 134.85L220.04 222.54L277.76 232.56C280.59 232.9 283.93 226.93 282.33 224.57L226.84 142.76C225.64 140.99 223.76 139.78 221.65 139.43L159.71 129C157.59 128.64 153.52 133.08 154.75 134.85Z" fill="#B2B2B2"/>
<path d="M154.8 135.66L217.52 225.41L276.67 232.61C279.5 232.95 281.42 229.81 279.82 227.45L224.33 145.64C223.13 143.87 221.25 142.66 219.14 142.31L157.2 131.88C155.08 131.52 153.57 133.9 154.81 135.67L154.8 135.66Z" fill="#DADADA"/>
<path d="M364.88 204.22C356.43 200.73 348.14 196.85 340.05 192.59C320.55 182.33 302.17 169.89 281.94 161.16C267.37 154.88 250.64 150.62 235.81 156.25C234.43 156.77 233.02 157.42 232.15 158.61C231.27 159.79 231.15 161.65 232.25 162.63C233.04 163.33 234.18 163.4 235.23 163.44C241.8 163.66 248.37 163.72 254.94 163.63C257.52 163.6 261.08 164.54 260.78 167.1C260.67 168.04 260 168.79 259.38 169.5C257 172.21 254.82 175.19 253.71 178.63C252.6 182.07 252.7 186.03 254.65 189.06C255.95 191.09 257.96 192.55 259.91 193.96C267.84 199.68 276.57 205.66 286.34 205.3C288.32 205.23 290.31 204.89 292.27 205.22C295.58 205.77 298.26 208.12 300.81 210.31C321.82 228.32 347.11 241.29 373.99 247.85" fill="#F4A39B"/>
<path d="M189.69 221.35C189.25 215.16 188.95 208.46 192.38 203.29C196.15 197.61 214.18 188.14 220.31 191.13C222.68 192.28 224.68 194.07 226.53 195.95C229.34 198.8 231.96 202.04 233.07 205.89C233.8 208.42 233.84 211.09 233.86 213.72C233.88 216.39 224 226.4 222.89 228.82C221.01 232.92 216.31 235.17 211.81 235.28C207.3 235.39 202.95 233.71 198.89 231.74C194.4 229.57 189.52 226.07 189.62 221.08" fill="#F4A39B"/>
<path d="M189.79 222.77C189.79 222.77 181.17 179.31 186.34 180.77C191.51 182.23 198.26 198.82 196.41 203.42C194.56 208.02 189.79 222.76 189.79 222.76V222.77Z" fill="#F4A39B"/>
<path d="M387.97 134.55C387.97 134.55 390.93 182.99 394.35 200.62C394.35 200.62 324.19 172.22 308.85 172.22C308.85 172.22 298.73 195.73 296.77 211.07C296.77 211.07 381.35 267.84 415.03 263.94C430.65 262.13 446.37 260.35 450.93 236.2C455.5 212.05 445.2 136.95 439.42 115.37C433.63 93.79 430.27 83.88 430.27 83.88C430.27 83.88 399.42 98.18 387.96 134.55H387.97Z" fill="#192441"/>
</g>
</svg>
