<svg width="374" height="269" viewBox="0 0 374 269" fill="none" xmlns="http://www.w3.org/2000/svg">
<g clip-path="url(#clip0_220_219)">
<path opacity="0.5" d="M332.92 39.02C331.5 33.39 326.35 29.56 320.61 29.5C318.34 29.47 316.08 29.5 313.81 29.5H54.17C53.45 29.5 52.73 29.48 52.02 29.53C45.38 29.97 40.3 35.57 40.21 42.16C40.17 45.08 40.21 48.01 40.21 50.93V219.59C40.21 222.95 39.77 226.92 40.81 230.16C42.51 235.43 47.45 238.87 52.93 238.93C53.65 238.93 54.36 238.93 55.08 238.93H320.69C327.64 238.82 333.22 233.26 333.32 226.29C333.33 225.49 333.32 224.69 333.32 223.89V43.67C333.32 42.1 333.32 40.57 332.93 39.02H332.92Z" fill="#34B9CA"/>
<path d="M100.24 117.45L90.28 105.03L80.32 92.61C78.11 89.85 73.41 90.38 71.86 93.56L64.88 107.87L57.9 122.18C56.35 125.36 59.11 128.8 62.87 128.38L79.81 126.49L96.75 124.6C100.51 124.18 102.44 120.21 100.23 117.45H100.24ZM73.85 100.6C73.68 99.07 74.9 97.68 76.58 97.49C78.26 97.3 79.76 98.39 79.93 99.92L81.36 112.71C81.53 114.24 80.31 115.63 78.63 115.82C76.95 116.01 75.45 114.92 75.28 113.39L73.85 100.6ZM79.39 122.67C77.68 122.86 76.14 121.75 75.97 120.19C75.79 118.63 77.04 117.21 78.75 117.01C80.46 116.81 82 117.93 82.17 119.49C82.35 121.05 81.1 122.47 79.39 122.67Z" fill="#ED6A4C"/>
<path d="M73.85 100.6C73.68 99.07 74.9 97.68 76.58 97.49C78.26 97.3 79.76 98.39 79.93 99.92L81.36 112.71C81.53 114.24 80.31 115.63 78.63 115.82C76.95 116.01 75.45 114.92 75.28 113.39L73.85 100.6Z" fill="black"/>
<path d="M79.4022 122.666C81.1145 122.473 82.3594 121.048 82.1829 119.484C82.0063 117.92 80.4752 116.809 78.7629 117.002C77.0507 117.195 75.8057 118.62 75.9823 120.184C76.1588 121.748 77.69 122.859 79.4022 122.666Z" fill="black"/>
<path d="M40.62 196.11L25.99 197.8C21.67 198.3 17.77 195.2 17.28 190.88L1.94998 57.17C1.28998 51.43 5.40998 46.25 11.15 45.59L79.42 37.77L116.95 54.28L205.15 45.15C207.67 44.89 209.93 46.73 210.19 49.25L222.91 175.09L40.62 196.11Z" fill="white"/>
<path opacity="0.5" d="M40.62 196.11L25.99 197.8C21.67 198.3 17.77 195.2 17.28 190.88L1.94998 57.17C1.28998 51.43 5.40998 46.25 11.15 45.59L79.42 37.77L116.95 54.28L205.15 45.15C207.67 44.89 209.93 46.73 210.19 49.25L222.91 175.09L40.62 196.11Z" fill="#34B9CA"/>
<path d="M86.0544 69.8511L201.74 56.7932C204.401 56.4927 206.316 54.0915 206.015 51.4298L201.336 9.97304C201.035 7.31136 198.634 5.3972 195.972 5.69764L80.287 18.7556C77.6253 19.0561 75.7112 21.4573 76.0116 24.119L80.691 65.5757C80.9915 68.2374 83.3928 70.1516 86.0544 69.8511Z" fill="#F4F4F4"/>
<path d="M86.4574 30.528L193.289 18.4694C193.695 18.4236 193.987 18.0572 193.941 17.6511L193.713 15.624C193.667 15.2178 193.3 14.9258 192.894 14.9716L86.0626 27.0302C85.6565 27.0761 85.3644 27.4425 85.4103 27.8486L85.6391 29.8757C85.6849 30.2818 86.0513 30.5739 86.4574 30.528Z" fill="#192441"/>
<path d="M87.6017 40.7113L194.433 28.6527C194.839 28.6069 195.131 28.2405 195.086 27.8344L194.857 25.8072C194.811 25.4011 194.445 25.1091 194.038 25.1549L87.2069 37.2135C86.8008 37.2594 86.5087 37.6257 86.5546 38.0319L86.7834 40.059C86.8292 40.4651 87.1956 40.7572 87.6017 40.7113Z" fill="#192441"/>
<path d="M88.735 50.7313L195.567 38.6727C195.973 38.6268 196.265 38.2604 196.219 37.8543L195.99 35.8272C195.944 35.4211 195.578 35.129 195.172 35.1749L88.3402 47.2335C87.9341 47.2793 87.642 47.6457 87.6878 48.0518L87.9167 50.0789C87.9625 50.4851 88.3289 50.7771 88.735 50.7313Z" fill="#192441"/>
<path d="M126.52 56.6158L196.694 48.6949C197.1 48.6491 197.392 48.2827 197.346 47.8766L197.118 45.8495C197.072 45.4433 196.705 45.1513 196.299 45.1971L126.125 53.118C125.719 53.1639 125.427 53.5303 125.473 53.9364L125.701 55.9635C125.747 56.3696 126.114 56.6617 126.52 56.6158Z" fill="#192441"/>
<path d="M137.28 141.41L30.84 147.84C28.04 148.01 25.63 145.88 25.46 143.08L17.9 15.29C17.73 12.49 19.86 10.08 22.66 9.91L129.1 3.48C131.9 3.31 134.31 5.44 134.48 8.24L142.05 136.03C142.22 138.83 140.09 141.24 137.29 141.41H137.28Z" fill="#192441"/>
<path d="M125.373 11.9298L69.4154 15.3132C68.8365 15.3482 68.3957 15.8458 68.4307 16.4246L68.5007 17.5825C68.5357 18.1613 69.0333 18.6022 69.6121 18.5672L125.57 15.1839C126.149 15.1489 126.59 14.6513 126.555 14.0724L126.485 12.9146C126.45 12.3357 125.952 11.8948 125.373 11.9298Z" fill="white"/>
<path d="M125.954 21.4075L69.9965 24.7908C69.4176 24.8258 68.9767 25.3235 69.0117 25.9023L69.0817 27.0602C69.1167 27.639 69.6144 28.0799 70.1932 28.0449L126.151 24.6616C126.73 24.6266 127.171 24.129 127.136 23.5501L127.066 22.3922C127.031 21.8134 126.533 21.3725 125.954 21.4075Z" fill="white"/>
<path d="M126.516 30.7267L70.5579 34.1101C69.9791 34.1451 69.5382 34.6427 69.5732 35.2215L69.6432 36.3794C69.6782 36.9582 70.1758 37.3991 70.7547 37.3641L126.712 33.9808C127.291 33.9458 127.732 33.4482 127.697 32.8694L127.627 31.7115C127.592 31.1326 127.095 30.6917 126.516 30.7267Z" fill="white"/>
<path d="M107.419 41.232L71.1149 43.427C70.5361 43.462 70.0952 43.9596 70.1302 44.5385L70.2002 45.6964C70.2352 46.2752 70.7328 46.7161 71.3117 46.6811L107.615 44.4861C108.194 44.4511 108.635 43.9535 108.6 43.3746L108.53 42.2167C108.495 41.6379 107.997 41.197 107.419 41.232Z" fill="white"/>
<path d="M47.72 38.48L55.07 26.85L60.29 28.7L59.68 18.67C59.58 16.98 58.13 15.7 56.44 15.8L28.66 17.48C26.97 17.58 25.69 19.03 25.79 20.72L26.88 38.78L38.03 27.69L47.72 38.48Z" fill="white"/>
<path d="M36.95 31.54C40.3465 31.54 43.1 28.7865 43.1 25.39C43.1 21.9934 40.3465 19.24 36.95 19.24C33.5534 19.24 30.8 21.9934 30.8 25.39C30.8 28.7865 33.5534 31.54 36.95 31.54Z" fill="white"/>
<path opacity="0.5" d="M36.95 31.54C40.3465 31.54 43.1 28.7865 43.1 25.39C43.1 21.9934 40.3465 19.24 36.95 19.24C33.5534 19.24 30.8 21.9934 30.8 25.39C30.8 28.7865 33.5534 31.54 36.95 31.54Z" fill="#ED6A4C"/>
<path d="M30.71 51.37L58.49 49.69C60.18 49.59 61.46 48.14 61.36 46.45L60.29 28.7L57.24 25.42C56.23 24.33 54.44 24.6 53.8 25.94L49.09 35.66C48.44 37.01 46.62 37.26 45.62 36.15L39.51 29.35C38.7 28.45 37.31 28.41 36.45 29.26L26.88 38.79L27.47 48.51C27.57 50.2 29.02 51.48 30.71 51.38V51.37Z" fill="#ED6A4C"/>
<path d="M101.65 74.23L218.07 74.23C220.749 74.23 222.92 72.0586 222.92 69.38V27.66C222.92 24.9814 220.749 22.81 218.07 22.81L101.65 22.81C98.9714 22.81 96.8 24.9814 96.8 27.66V69.38C96.8 72.0586 98.9714 74.23 101.65 74.23Z" fill="#EDEDED"/>
<path d="M143.34 35.2L213.96 35.2C214.369 35.2 214.7 34.8687 214.7 34.46V32.42C214.7 32.0113 214.369 31.68 213.96 31.68L143.34 31.68C142.931 31.68 142.6 32.0113 142.6 32.42V34.46C142.6 34.8687 142.931 35.2 143.34 35.2Z" fill="#192441"/>
<path d="M143.34 45.45L213.96 45.45C214.369 45.45 214.7 45.1187 214.7 44.71V42.67C214.7 42.2613 214.369 41.93 213.96 41.93L143.34 41.93C142.931 41.93 142.6 42.2613 142.6 42.67V44.71C142.6 45.1187 142.931 45.45 143.34 45.45Z" fill="#192441"/>
<path d="M143.34 55.54L213.96 55.54C214.369 55.54 214.7 55.2087 214.7 54.8V52.76C214.7 52.3513 214.369 52.02 213.96 52.02L143.34 52.02C142.931 52.02 142.6 52.3513 142.6 52.76V54.8C142.6 55.2087 142.931 55.54 143.34 55.54Z" fill="#192441"/>
<path d="M143.34 65.62L213.96 65.62C214.369 65.62 214.7 65.2887 214.7 64.88V62.84C214.7 62.4313 214.369 62.1 213.96 62.1L143.34 62.1C142.931 62.1 142.6 62.4313 142.6 62.84V64.88C142.6 65.2887 142.931 65.62 143.34 65.62Z" fill="#192441"/>
<path d="M123.72 52.01L132.03 39.9L136.86 43V32.96C136.86 31.27 135.49 29.9 133.8 29.9H105.97C104.28 29.9 102.91 31.27 102.91 32.96V51.05L114.7 40.65L123.72 52V52.01Z" fill="#192441"/>
<path d="M113.76 44.45C117.157 44.45 119.91 41.6965 119.91 38.3C119.91 34.9034 117.157 32.15 113.76 32.15C110.363 32.15 107.61 34.9034 107.61 38.3C107.61 41.6965 110.363 44.45 113.76 44.45Z" fill="white"/>
<path opacity="0.5" d="M113.76 44.45C117.157 44.45 119.91 41.6965 119.91 38.3C119.91 34.9034 117.157 32.15 113.76 32.15C110.363 32.15 107.61 34.9034 107.61 38.3C107.61 41.6965 110.363 44.45 113.76 44.45Z" fill="#ED6A4C"/>
<path d="M105.96 63.86H133.79C135.48 63.86 136.85 62.49 136.85 60.8V43.01L133.69 39.17C132.9 38.21 131.38 38.34 130.77 39.43L125 49.71C124.38 50.81 122.85 50.93 122.06 49.94L115.84 42.12C115.21 41.32 114.04 41.22 113.28 41.89L102.89 51.05V60.79C102.89 62.48 104.26 63.85 105.95 63.85L105.96 63.86Z" fill="#ED6A4C"/>
<path d="M23.14 191.73L20.19 59.83C20.07 54.48 24.06 49.93 29.38 49.34L88.81 42.81C93.25 42.32 97.37 45.18 98.47 49.5L99.49 53.5C100.39 57.06 103.75 59.42 107.4 59.08L221.61 48.33C225.43 47.97 228.76 50.91 228.88 54.74L232.26 164.27C232.43 169.75 228.37 174.45 222.92 175.08L29.62 197.37C26.22 197.76 23.21 195.14 23.14 191.72V191.73Z" fill="#34B9CA"/>
<path d="M87.4394 47.6822L31.7133 53.9723C28.7113 54.3111 26.5525 57.0193 26.8913 60.0213L27.1022 61.8894C27.441 64.8913 30.1492 67.0502 33.1512 66.7114L88.8773 60.4213C91.8792 60.0824 94.0381 57.3742 93.6993 54.3723L93.4884 52.5041C93.1496 49.5022 90.4413 47.3433 87.4394 47.6822Z" fill="#ED6A4C"/>
<path d="M37.2982 56.5232C37.0369 56.134 36.7038 55.8577 36.2989 55.694C35.8931 55.5225 35.4398 55.465 34.9389 55.5215C34.3904 55.5834 33.9154 55.7618 33.514 56.0567C33.1125 56.3516 32.8141 56.7395 32.6189 57.2204C32.4315 57.7005 32.3715 58.2386 32.4388 58.8348C32.5061 59.431 32.685 59.9462 32.9755 60.3804C33.2731 60.8057 33.6504 61.1173 34.1075 61.3153C34.5646 61.5133 35.0674 61.5813 35.6159 61.5194C36.3553 61.436 36.9321 61.1615 37.3465 60.6961C37.7609 60.2307 37.9799 59.6384 38.0034 58.9192L34.8911 59.2705L34.7687 58.1854L39.3357 57.6699L39.4554 58.7312C39.4407 59.3849 39.277 60.0032 38.9644 60.5859C38.6597 61.1678 38.2277 61.6553 37.6683 62.0486C37.1159 62.4329 36.478 62.666 35.7546 62.7476C34.9755 62.8355 34.2439 62.737 33.5596 62.4519C32.8744 62.1589 32.3047 61.712 31.8504 61.1112C31.4041 60.5094 31.1352 59.8032 31.0437 58.9923C30.9521 58.1814 31.0568 57.433 31.3578 56.7469C31.6667 56.0599 32.1229 55.5012 32.7264 55.0708C33.337 54.6316 34.0279 54.3684 34.799 54.2814C35.6814 54.1818 36.4891 54.312 37.2221 54.6721C37.9621 55.0233 38.532 55.5788 38.9318 56.3388L37.2982 56.5232ZM46.3978 54.8198L47.1394 61.3901L45.78 61.5435L45.6926 60.7684C45.5084 61.063 45.2504 61.3094 44.9186 61.5079C44.5938 61.6975 44.2367 61.8143 43.8472 61.8583C43.3304 61.9166 42.8533 61.8618 42.4157 61.6938C41.986 61.525 41.6282 61.2433 41.3421 60.8489C41.064 60.4536 40.8913 59.9578 40.824 59.3616L40.388 55.4982L41.7354 55.3461L42.1486 59.0068C42.215 59.5951 42.4132 60.0316 42.7432 60.3164C43.0724 60.5932 43.4913 60.7029 44.0001 60.6455C44.5089 60.5881 44.8928 60.3877 45.1519 60.0445C45.4181 59.6924 45.518 59.2223 45.4516 58.634L45.0384 54.9732L46.3978 54.8198ZM48.7847 53.6688C48.5383 53.6966 48.3222 53.6365 48.1364 53.4884C47.9506 53.3403 47.8438 53.143 47.816 52.8966C47.7882 52.6502 47.8483 52.4341 47.9964 52.2483C48.1445 52.0625 48.3418 51.9557 48.5882 51.9279C48.8267 51.901 49.0388 51.9615 49.2246 52.1096C49.4104 52.2577 49.5172 52.455 49.545 52.7014C49.5728 52.9479 49.5127 53.164 49.3646 53.3498C49.2165 53.5356 49.0232 53.6419 48.7847 53.6688ZM49.5507 54.4639L50.2924 61.0342L48.933 61.1876L48.1914 54.6174L49.5507 54.4639ZM51.2498 57.5689C51.1753 56.9091 51.2445 56.3096 51.4574 55.7703C51.6782 55.2301 52.0074 54.7945 52.445 54.4633C52.8897 54.1233 53.4022 53.9205 53.9825 53.855C54.4117 53.8065 54.8438 53.8544 55.2787 53.9985C55.7207 54.1338 56.0824 54.3425 56.3638 54.6248L56.0058 51.4529L57.3771 51.2981L58.3731 60.1221L57.0018 60.2769L56.8901 59.2872C56.7034 59.6303 56.423 59.9276 56.0488 60.1791C55.6826 60.4298 55.2452 60.5838 54.7364 60.6413C54.164 60.7059 53.6232 60.622 53.1139 60.3897C52.6117 60.1485 52.1923 59.7852 51.8558 59.2999C51.5263 58.8057 51.3243 58.2288 51.2498 57.5689ZM56.6303 56.9858C56.5792 56.5326 56.4394 56.1499 56.2109 55.8376C55.9904 55.5243 55.7192 55.2973 55.3974 55.1565C55.0756 55.0157 54.7398 54.9651 54.39 55.0046C54.0402 55.044 53.7241 55.1683 53.4418 55.3773C53.1586 55.5783 52.9404 55.8565 52.7873 56.2119C52.6412 56.5585 52.5938 56.9583 52.6449 57.4115C52.6961 57.8646 52.8324 58.2517 53.0538 58.5729C53.2832 58.8932 53.5592 59.1278 53.8819 59.2765C54.2117 59.4164 54.5475 59.467 54.8893 59.4285C55.2391 59.389 55.5552 59.2647 55.8375 59.0558C56.1198 58.8468 56.3336 58.565 56.4787 58.2105C56.6309 57.8471 56.6815 57.4389 56.6303 56.9858ZM65.7914 55.7947C65.8192 56.0412 65.8284 56.2655 65.819 56.4679L60.7989 57.0345C60.8979 57.5547 61.1402 57.954 61.5259 58.2325C61.9115 58.511 62.3588 58.6216 62.8675 58.5641C63.5989 58.4816 64.0811 58.1172 64.3141 57.471L65.7807 57.3055C65.6502 57.932 65.3446 58.4697 64.8639 58.9185C64.3902 59.3584 63.7678 59.6218 62.9967 59.7089C62.3687 59.7798 61.7886 59.7044 61.2564 59.4827C60.7312 59.2521 60.2968 58.8986 59.9532 58.4221C59.6167 57.9368 59.4102 57.3563 59.334 56.6806C59.2577 56.0049 59.326 55.3974 59.5389 54.8581C59.7588 54.31 60.0994 53.869 60.5609 53.5351C61.0303 53.2004 61.587 52.9966 62.2309 52.924C62.851 52.854 63.4187 52.9268 63.9341 53.1423C64.4496 53.3578 64.8702 53.6968 65.1962 54.1592C65.5212 54.6136 65.7196 55.1588 65.7914 55.7947ZM64.3239 55.5256C64.2594 55.0257 64.0353 54.6444 63.6514 54.3818C63.2675 54.1192 62.8172 54.0171 62.3005 54.0754C61.8315 54.1284 61.4471 54.3247 61.1473 54.6645C60.8466 54.9963 60.6932 55.4202 60.687 55.9361L64.3239 55.5256ZM66.6908 55.826C66.6163 55.1662 66.6855 54.5667 66.8984 54.0274C67.1192 53.4872 67.4484 53.0516 67.886 52.7204C68.3307 52.3804 68.8432 52.1776 69.4235 52.1121C69.8527 52.0636 70.2848 52.1115 70.7198 52.2556C71.1617 52.3909 71.5234 52.5996 71.8048 52.8819L71.4468 49.71L72.8181 49.5552L73.8141 58.3792L72.4428 58.534L72.3311 57.5443C72.1444 57.8874 71.864 58.1847 71.4898 58.4362C71.1236 58.6869 70.6862 58.8409 70.1774 58.8984C69.605 58.963 69.0642 58.8791 68.5549 58.6468C68.0527 58.4056 67.6333 58.0423 67.2968 57.557C66.9673 57.0628 66.7653 56.4859 66.6908 55.826ZM72.0713 55.2429C72.0202 54.7897 71.8804 54.407 71.6519 54.0947C71.4314 53.7814 71.1602 53.5544 70.8384 53.4136C70.5166 53.2728 70.1808 53.2222 69.831 53.2616C69.4812 53.3011 69.1651 53.4254 68.8828 53.6343C68.5996 53.8354 68.3814 54.1136 68.2283 54.469C68.0822 54.8156 68.0348 55.2154 68.0859 55.6686C68.1371 56.1217 68.2734 56.5088 68.4948 56.83C68.7242 57.1503 69.0002 57.3848 69.3229 57.5336C69.6527 57.6735 69.9885 57.7241 70.3303 57.6856C70.6801 57.6461 70.9962 57.5218 71.2785 57.3129C71.5609 57.1039 71.7746 56.8221 71.9198 56.4676C72.072 56.1042 72.1225 55.696 72.0713 55.2429ZM79.2449 50.4842L79.5194 52.9168L82.3813 52.5938L82.5064 53.7027L79.6446 54.0257L79.9313 56.5656L83.1509 56.2022L83.276 57.3112L78.6971 57.828L77.7603 49.5287L82.3392 49.0119L82.4644 50.1208L79.2449 50.4842ZM85.6758 51.3524C85.8368 50.9961 86.07 50.7081 86.3753 50.4885C86.6876 50.26 87.0704 50.1202 87.5235 50.0691L87.6823 51.4761L87.3365 51.5152C86.8039 51.5753 86.4137 51.7562 86.166 52.0579C85.9262 52.3587 85.844 52.8429 85.9194 53.5107L86.3097 56.9687L84.9504 57.1222L84.2087 50.5519L85.5681 50.3985L85.6758 51.3524ZM90.2522 50.8358C90.4132 50.4795 90.6464 50.1916 90.9517 49.9719C91.2641 49.7435 91.6468 49.6036 92.0999 49.5525L92.2587 50.9596L91.9129 50.9986C91.3803 51.0587 90.9901 51.2396 90.7424 51.5413C90.5026 51.8421 90.4204 52.3264 90.4958 52.9941L90.8861 56.4522L89.5268 56.6056L88.7852 50.0353L90.1445 49.8819L90.2522 50.8358ZM96.9652 55.8747C96.3451 55.9447 95.769 55.8688 95.2368 55.6471C94.7036 55.4175 94.2653 55.0644 93.9217 54.5879C93.5772 54.1035 93.3668 53.5235 93.2905 52.8478C93.2151 52.18 93.2953 51.5712 93.5311 51.0212C93.767 50.4713 94.1235 50.0285 94.6009 49.6929C95.0783 49.3572 95.631 49.1539 96.259 49.083C96.887 49.0122 97.4711 49.0871 98.0112 49.3079C98.5514 49.5287 98.9977 49.8809 99.3502 50.3644C99.7027 50.8479 99.9166 51.4236 99.9919 52.0913C100.067 52.7591 99.9831 53.3684 99.7394 53.9192C99.4956 54.47 99.1275 54.9181 98.6352 55.2635C98.1499 55.6001 97.5932 55.8038 96.9652 55.8747ZM96.8319 54.6942C97.1817 54.6547 97.4982 54.5344 97.7815 54.3334C98.0727 54.1315 98.2948 53.8528 98.4479 53.4974C98.601 53.142 98.6506 52.7258 98.5968 52.2488C98.543 51.7718 98.4062 51.3807 98.1866 51.0754C97.9661 50.7622 97.6954 50.5391 97.3744 50.4063C97.0535 50.2734 96.7181 50.2268 96.3684 50.2662C96.0186 50.3057 95.7021 50.426 95.4188 50.627C95.1436 50.8272 94.9373 51.104 94.8001 51.4577C94.662 51.8033 94.6199 52.2147 94.6737 52.6916C94.7536 53.3991 94.9944 53.9275 95.396 54.2766C95.8048 54.6169 96.2834 54.7561 96.8319 54.6942ZM102.433 49.461C102.594 49.1047 102.827 48.8167 103.132 48.5971C103.445 48.3686 103.827 48.2288 104.28 48.1776L104.439 49.5847L104.093 49.6237C103.561 49.6838 103.171 49.8648 102.923 50.1664C102.683 50.4672 102.601 50.9515 102.676 51.6193L103.067 55.0773L101.707 55.2307L100.966 48.6605L102.325 48.507L102.433 49.461ZM110.617 53.1141L113.419 52.7978L113.543 53.8948L109.381 54.3646L108.446 46.0772L109.805 45.9237L110.617 53.1141ZM117.542 53.5521C116.921 53.6221 116.345 53.5463 115.813 53.3246C115.28 53.0949 114.842 52.7419 114.498 52.2654C114.154 51.781 113.943 51.2009 113.867 50.5252C113.791 49.8574 113.872 49.2486 114.108 48.6987C114.343 48.1488 114.7 47.706 115.177 47.3703C115.655 47.0346 116.207 46.8314 116.835 46.7605C117.463 46.6896 118.047 46.7646 118.588 46.9854C119.128 47.2062 119.574 47.5583 119.927 48.0419C120.279 48.5254 120.493 49.101 120.568 49.7688C120.644 50.4365 120.559 51.0458 120.316 51.5966C120.072 52.1475 119.704 52.5956 119.212 52.941C118.726 53.2775 118.17 53.4812 117.542 53.5521ZM117.408 52.3716C117.758 52.3321 118.075 52.2119 118.358 52.0109C118.649 51.8089 118.871 51.5302 119.024 51.1748C119.177 50.8194 119.227 50.4032 119.173 49.9262C119.119 49.4493 118.983 49.0581 118.763 48.7529C118.542 48.4396 118.272 48.2166 117.951 48.0837C117.63 47.9509 117.295 47.9042 116.945 47.9437C116.595 47.9832 116.278 48.1034 115.995 48.3045C115.72 48.5046 115.514 48.7815 115.376 49.1351C115.238 49.4808 115.196 49.8921 115.25 50.3691C115.33 51.0766 115.571 51.6049 115.972 51.954C116.381 52.2944 116.86 52.4335 117.408 52.3716ZM124.177 45.9318C124.686 45.8744 125.147 45.927 125.559 46.0897C125.979 46.2436 126.318 46.459 126.574 46.736L126.467 45.782L127.838 45.6273L128.592 52.3048C128.66 52.909 128.593 53.46 128.392 53.9577C128.191 54.4634 127.864 54.8787 127.409 55.2037C126.963 55.5279 126.406 55.7276 125.738 55.803C124.848 55.9035 124.085 55.7763 123.449 55.4214C122.814 55.0744 122.416 54.5476 122.256 53.8412L123.604 53.6891C123.745 54.0192 123.995 54.2688 124.352 54.4378C124.718 54.6139 125.136 54.6754 125.605 54.6225C126.153 54.5606 126.576 54.3438 126.872 53.9723C127.176 53.5998 127.292 53.0956 127.22 52.4596L127.097 51.3626C126.901 51.6986 126.617 51.9964 126.243 52.2559C125.877 52.5066 125.444 52.6602 124.943 52.7167C124.371 52.7813 123.83 52.6974 123.32 52.4651C122.818 52.2239 122.399 51.8607 122.062 51.3753C121.733 50.8812 121.531 50.3042 121.456 49.6444C121.382 48.9846 121.451 48.385 121.664 47.8458C121.885 47.3056 122.214 46.8699 122.652 46.5387C123.096 46.1987 123.605 45.9964 124.177 45.9318ZM126.837 49.0612C126.786 48.6081 126.646 48.2254 126.417 47.913C126.197 47.5998 125.926 47.3728 125.604 47.232C125.282 47.0912 124.946 47.0405 124.596 47.08C124.247 47.1195 123.931 47.2437 123.648 47.4527C123.365 47.6537 123.147 47.932 122.994 48.2874C122.848 48.6339 122.8 49.0338 122.851 49.4869C122.903 49.94 123.039 50.3272 123.26 50.6484C123.49 50.9687 123.766 51.2032 124.088 51.3519C124.418 51.4918 124.754 51.5425 125.096 51.5039C125.446 51.4644 125.762 51.3402 126.044 51.1312C126.326 50.9222 126.54 50.6405 126.685 50.2859C126.837 49.9226 126.888 49.5143 126.837 49.0612ZM132.259 45.0196C132.767 44.9622 133.228 45.0148 133.641 45.1775C134.061 45.3314 134.399 45.5468 134.656 45.8238L134.548 44.8698L135.919 44.7151L136.673 51.3926C136.741 51.9968 136.675 52.5478 136.473 53.0455C136.273 53.5512 135.945 53.9665 135.491 54.2916C135.044 54.6157 134.487 54.8154 133.82 54.8908C132.929 54.9913 132.166 54.8641 131.53 54.5092C130.895 54.1622 130.498 53.6355 130.338 52.929L131.685 52.7769C131.827 53.107 132.077 53.3566 132.434 53.5256C132.8 53.7017 133.217 53.7632 133.686 53.7103C134.235 53.6484 134.657 53.4316 134.953 53.0601C135.258 52.6876 135.374 52.1834 135.302 51.5474L135.178 50.4504C134.983 50.7865 134.698 51.0842 134.325 51.3437C133.959 51.5944 133.525 51.748 133.024 51.8045C132.452 51.8691 131.911 51.7852 131.402 51.5529C130.9 51.3117 130.48 50.9485 130.144 50.4631C129.814 49.969 129.612 49.392 129.538 48.7322C129.463 48.0724 129.533 47.4728 129.745 46.9336C129.966 46.3934 130.295 45.9577 130.733 45.6265C131.178 45.2865 131.686 45.0842 132.259 45.0196ZM134.918 48.149C134.867 47.6959 134.727 47.3132 134.499 47.0008C134.278 46.6876 134.007 46.4606 133.685 46.3198C133.364 46.179 133.028 46.1283 132.678 46.1678C132.328 46.2073 132.012 46.3315 131.73 46.5405C131.447 46.7415 131.228 47.0198 131.075 47.3752C130.929 47.7217 130.882 48.1216 130.933 48.5747C130.984 49.0278 131.12 49.415 131.342 49.7362C131.571 50.0565 131.847 50.291 132.17 50.4397C132.5 50.5796 132.836 50.6303 133.177 50.5917C133.527 50.5522 133.843 50.428 134.126 50.219C134.408 50.01 134.622 49.7283 134.767 49.3737C134.919 49.0104 134.969 48.6021 134.918 48.149ZM138.298 43.565C138.052 43.5928 137.836 43.5327 137.65 43.3846C137.464 43.2365 137.357 43.0392 137.33 42.7928C137.302 42.5463 137.362 42.3302 137.51 42.1444C137.658 41.9587 137.855 41.8519 138.102 41.824C138.34 41.7971 138.552 41.8577 138.738 42.0058C138.924 42.1539 139.031 42.3512 139.059 42.5976C139.086 42.844 139.026 43.0601 138.878 43.2459C138.73 43.4317 138.537 43.5381 138.298 43.565ZM139.064 44.3601L139.806 50.9304L138.447 51.0838L137.705 44.5135L139.064 44.3601ZM144.152 43.6771C144.669 43.6188 145.142 43.6741 145.571 43.843C146.009 44.0109 146.367 44.2926 146.645 44.6879C146.923 45.0832 147.096 45.5789 147.163 46.1752L147.601 50.0505L146.253 50.2026L145.839 46.53C145.772 45.9417 145.574 45.5091 145.245 45.2323C144.915 44.9475 144.496 44.8339 143.987 44.8913C143.478 44.9487 143.091 45.1535 142.825 45.5055C142.565 45.8488 142.469 46.3145 142.535 46.9028L142.95 50.5755L141.591 50.7289L140.849 44.1586L142.208 44.0052L142.293 44.7564C142.485 44.461 142.744 44.2185 143.069 44.0289C143.401 43.8383 143.762 43.7211 144.152 43.6771ZM151.228 42.8784C151.737 42.821 152.198 42.8736 152.61 43.0364C153.03 43.1902 153.369 43.4057 153.625 43.6826L153.518 42.7287L154.889 42.5739L155.643 49.2515C155.711 49.8556 155.644 50.4066 155.443 50.9043C155.242 51.41 154.915 51.8254 154.46 52.1504C154.014 52.4745 153.457 52.6743 152.789 52.7496C151.899 52.8501 151.136 52.7229 150.5 52.368C149.865 52.021 149.467 51.4943 149.307 50.7878L150.654 50.6357C150.796 50.9659 151.046 51.2155 151.403 51.3845C151.769 51.5605 152.187 51.6221 152.656 51.5691C153.204 51.5072 153.627 51.2905 153.923 50.9189C154.227 50.5464 154.343 50.0422 154.271 49.4063L154.147 48.3092C153.952 48.6453 153.668 48.9431 153.294 49.2026C152.928 49.4532 152.495 49.6068 151.994 49.6633C151.421 49.7279 150.881 49.6441 150.371 49.4117C149.869 49.1705 149.45 48.8073 149.113 48.322C148.784 47.8278 148.582 47.2508 148.507 46.591C148.433 45.9312 148.502 45.3317 148.715 44.7924C148.936 44.2522 149.265 43.8165 149.702 43.4854C150.147 43.1453 150.656 42.943 151.228 42.8784ZM153.888 46.0078C153.837 45.5547 153.697 45.172 153.468 44.8596C153.248 44.5464 152.977 44.3194 152.655 44.1786C152.333 44.0378 151.997 43.9871 151.647 44.0266C151.298 44.0661 150.982 44.1903 150.699 44.3993C150.416 44.6004 150.198 44.8786 150.045 45.234C149.899 45.5806 149.851 45.9804 149.902 46.4335C149.953 46.8867 150.09 47.2738 150.311 47.595C150.541 47.9153 150.817 48.1498 151.139 48.2986C151.469 48.4385 151.805 48.4891 152.147 48.4505C152.496 48.4111 152.813 48.2868 153.095 48.0778C153.377 47.8688 153.591 47.5871 153.736 47.2326C153.888 46.8692 153.939 46.461 153.888 46.0078Z" fill="white"/>
<path d="M152.59 126.46L140.42 110.62L128.25 94.78C125.55 91.26 119.64 91.8 117.61 95.75L108.48 113.52L99.35 131.29C97.32 135.24 100.7 139.63 105.43 139.2L126.73 137.26L148.03 135.32C152.76 134.89 155.29 129.96 152.59 126.44V126.46ZM119.92 104.63C119.75 102.71 121.31 100.99 123.42 100.8C125.53 100.61 127.38 102.01 127.56 103.94L129.02 120.02C129.19 121.94 127.63 123.66 125.52 123.85C123.41 124.04 121.56 122.64 121.38 120.71L119.92 104.63ZM126.3 132.46C124.15 132.66 122.25 131.22 122.07 129.26C121.89 127.3 123.49 125.54 125.65 125.35C127.81 125.16 129.7 126.59 129.88 128.55C130.06 130.51 128.46 132.27 126.3 132.46Z" fill="#ED6A4C"/>
<path d="M119.92 104.63C119.75 102.71 121.31 100.99 123.42 100.8C125.53 100.61 127.38 102.01 127.56 103.94L129.02 120.02C129.19 121.94 127.63 123.66 125.52 123.85C123.41 124.04 121.56 122.64 121.38 120.71L119.92 104.63Z" fill="black"/>
<path d="M126.294 132.468C128.45 132.27 130.051 130.517 129.871 128.554C129.69 126.591 127.796 125.16 125.64 125.358C123.484 125.556 121.883 127.308 122.063 129.271C122.244 131.235 124.138 132.666 126.294 132.468Z" fill="black"/>
<mask id="mask0_220_219" style="mask-type:luminance" maskUnits="userSpaceOnUse" x="40" y="29" width="294" height="210">
<path d="M332.92 39.02C331.5 33.39 326.35 29.56 320.61 29.5C318.34 29.47 316.08 29.5 313.81 29.5H54.17C53.45 29.5 52.73 29.48 52.02 29.53C45.38 29.97 40.3 35.57 40.21 42.16C40.17 45.08 40.21 48.01 40.21 50.93V219.59C40.21 222.95 39.77 226.92 40.81 230.16C42.51 235.43 47.45 238.87 52.93 238.93C53.65 238.93 54.36 238.93 55.08 238.93H320.69C327.64 238.82 333.22 233.26 333.32 226.29C333.33 225.49 333.32 224.69 333.32 223.89V43.67C333.32 42.1 333.32 40.57 332.93 39.02H332.92Z" fill="white"/>
</mask>
<g mask="url(#mask0_220_219)">
<path d="M147.12 127.61C141.34 127.13 136.69 132.68 135.21 138.28C133.73 143.88 134.3 149.85 133.08 155.51C131.72 161.82 128.16 167.71 128.17 174.17C128.18 182.45 133.96 189.43 137.2 197.04C140.79 205.46 141.3 214.95 140.14 224.03C138.98 233.11 136.23 241.91 133.49 250.65L179.11 255.47C172.44 245.53 169.8 232.96 171.91 221.17C173.33 213.25 176.77 205.78 177.93 197.83C179.04 190.21 177.99 182.3 175.02 175.2C173.51 171.61 171.54 168.24 169.57 164.88C162.25 152.4 154.92 139.92 147.6 127.44L147.12 127.62V127.61Z" fill="#F4A39B"/>
<path d="M136.43 117.58L171.64 228.74C172.7 232.03 181.28 235.85 184.52 234.64L317.1 187.66C320.14 186.52 321.74 183.19 320.73 180.1L291.07 73.16C290.09 70.15 281.57 68.18 278.49 68.92L143.76 104.5C137.98 105.9 134.61 111.92 136.43 117.58Z" fill="#B2B2B2"/>
<path d="M141.2 115.08L177.79 230.51C178.85 233.8 182.44 235.54 185.68 234.33L323.25 189.43C326.29 188.29 327.89 184.96 326.88 181.87L291.83 74.7C290.85 71.69 287.72 69.95 284.64 70.7L145.54 107.33C142.12 108.16 140.12 111.72 141.2 115.07V115.08Z" fill="#DADADA"/>
<path d="M147.83 118.1L181.53 224.57C182.51 227.62 185.85 229.24 188.85 228.11L316.59 186.89C319.41 185.83 320.9 182.74 319.96 179.88L287.44 80.47C286.53 77.68 283.63 76.06 280.77 76.76L151.84 110.93C148.67 111.7 146.81 115 147.81 118.11L147.83 118.1Z" fill="#192441"/>
<path d="M171.38 229.65C171.73 198.02 189.09 190.95 176.56 176.48C172.47 171.76 169.39 166.24 166.71 160.6C162.69 152.14 164.04 141.75 159.45 133.58C158.07 131.12 155.82 128.76 153 128.71C150.21 128.65 147.8 130.98 146.91 133.64C146.02 136.3 146.35 139.18 146.85 141.94C148.01 148.33 150.04 154.56 150.97 160.99C151.9 167.42 151.62 174.3 148.42 179.96L171.37 229.66L171.38 229.65Z" fill="#F4A39B"/>
<path d="M197.493 123.963L284.086 99.0681C284.478 98.9551 284.705 98.5452 284.592 98.1524L284.178 96.7108C284.065 96.318 283.655 96.0911 283.262 96.2041L196.67 121.099C196.277 121.212 196.05 121.622 196.163 122.015L196.578 123.457C196.691 123.85 197.1 124.076 197.493 123.963Z" fill="#EDEDED"/>
<path d="M199.892 132.301L286.485 107.406C286.877 107.293 287.104 106.883 286.991 106.49L286.577 105.049C286.464 104.656 286.054 104.429 285.661 104.542L199.069 129.437C198.676 129.55 198.449 129.96 198.562 130.353L198.977 131.795C199.09 132.187 199.5 132.414 199.892 132.301Z" fill="#EDEDED"/>
<path d="M202.248 140.5L288.84 115.604C289.233 115.492 289.46 115.082 289.347 114.689L288.933 113.247C288.82 112.854 288.41 112.628 288.017 112.74L201.425 137.636C201.032 137.749 200.805 138.159 200.918 138.551L201.332 139.993C201.445 140.386 201.855 140.613 202.248 140.5Z" fill="#EDEDED"/>
<path d="M204.604 148.701L291.197 123.806C291.589 123.693 291.816 123.283 291.703 122.89L291.289 121.448C291.176 121.056 290.766 120.829 290.373 120.942L203.781 145.837C203.388 145.95 203.161 146.36 203.274 146.753L203.689 148.194C203.801 148.587 204.211 148.814 204.604 148.701Z" fill="#EDEDED"/>
<path d="M185.35 142.23L189.28 130.45L193.94 131.84L191.59 123.67C191.19 122.29 189.76 121.5 188.38 121.9L165.75 128.4C164.37 128.8 163.58 130.23 163.97 131.61L168.2 146.32L175.36 135.11L185.35 142.23Z" fill="#EDEDED"/>
<path d="M174.05 138.62C176.922 138.62 179.25 136.292 179.25 133.42C179.25 130.548 176.922 128.22 174.05 128.22C171.178 128.22 168.85 130.548 168.85 133.42C168.85 136.292 171.178 138.62 174.05 138.62Z" fill="white"/>
<path opacity="0.5" d="M174.05 138.62C176.922 138.62 179.25 136.292 179.25 133.42C179.25 130.548 176.922 128.22 174.05 128.22C171.178 128.22 168.85 130.548 168.85 133.42C168.85 136.292 171.178 138.62 174.05 138.62Z" fill="#ED6A4C"/>
<path d="M173.68 156.01L196.31 149.51C197.69 149.11 198.48 147.68 198.08 146.3L193.92 131.84L190.46 129.46C189.59 128.86 188.39 129.32 188.15 130.35L185.86 140.06C185.61 141.1 184.4 141.56 183.53 140.94L176.65 136.03C175.95 135.53 174.98 135.72 174.51 136.44L168.2 146.32L170.48 154.24C170.88 155.62 172.31 156.41 173.69 156.01H173.68Z" fill="#ED6A4C"/>
<path d="M206.637 155.778L293.229 130.882C293.622 130.769 293.849 130.359 293.736 129.967L293.322 128.525C293.209 128.132 292.799 127.905 292.406 128.018L205.814 152.914C205.421 153.027 205.194 153.437 205.307 153.829L205.721 155.271C205.834 155.664 206.244 155.891 206.637 155.778Z" fill="#EDEDED"/>
<path d="M209.031 164.118L254.23 151.123C254.623 151.011 254.849 150.601 254.736 150.208L254.322 148.766C254.209 148.373 253.799 148.147 253.406 148.259L208.207 161.254C207.814 161.367 207.588 161.777 207.701 162.17L208.115 163.612C208.228 164.004 208.638 164.231 209.031 164.118Z" fill="#EDEDED"/>
<path d="M211.385 172.316L297.977 147.421C298.37 147.308 298.597 146.898 298.484 146.505L298.069 145.064C297.957 144.671 297.547 144.444 297.154 144.557L210.562 169.452C210.169 169.565 209.942 169.975 210.055 170.368L210.469 171.81C210.582 172.202 210.992 172.429 211.385 172.316Z" fill="#EDEDED"/>
<path d="M213.751 180.515L300.343 155.62C300.736 155.507 300.963 155.097 300.85 154.704L300.435 153.262C300.322 152.87 299.912 152.643 299.52 152.756L212.927 177.651C212.534 177.764 212.308 178.174 212.421 178.567L212.835 180.008C212.948 180.401 213.358 180.628 213.751 180.515Z" fill="#EDEDED"/>
<path d="M216.052 188.556L302.644 163.661C303.037 163.548 303.264 163.138 303.151 162.745L302.736 161.303C302.623 160.91 302.214 160.684 301.821 160.797L215.228 185.692C214.836 185.805 214.609 186.215 214.722 186.608L215.136 188.049C215.249 188.442 215.659 188.669 216.052 188.556Z" fill="#EDEDED"/>
<path d="M218.413 196.748L277.759 179.686C278.151 179.573 278.378 179.164 278.265 178.771L277.851 177.329C277.738 176.936 277.328 176.709 276.935 176.822L217.589 193.884C217.196 193.997 216.97 194.407 217.082 194.8L217.497 196.242C217.61 196.635 218.02 196.861 218.413 196.748Z" fill="#EDEDED"/>
<path d="M304.68 163.33C307.66 159.23 311.17 155.51 315.08 152.28C315.92 151.59 316.84 150.89 317.92 150.75C319.94 150.49 321.64 152.19 323.59 152.77C326.93 153.77 331.13 151.53 333.74 153.84C334.78 154.77 335.23 156.21 336.19 157.22C338.26 159.41 341.85 158.93 344.63 160.1C348.71 161.82 350.29 166.65 351.52 170.89C355.02 182.96 359.37 194.78 364.52 206.24C366.67 211.01 369 215.8 372.53 219.65C379.23 226.98 389.29 230.03 398.83 232.77L391.93 283.33C375.87 277.65 350.74 242.62 335.15 235.76C330.84 233.86 326.53 231.85 322.77 229.02C315.77 223.74 311.15 215.99 306.71 208.44C302.65 201.55 293.75 191.16 289.69 184.27C288.03 181.46 287.9 174.1 294.01 175.22C304.49 177.99 306.42 198.36 316.89 201.2C310.41 185.02 296.08 173 280.35 165.5C278.17 164.46 275.88 163.44 274.28 161.63C272.68 159.81 272 156.93 273.43 154.97C275.54 152.07 280.05 153.21 283.34 154.64C290.35 157.68 297.35 160.72 304.36 163.76" fill="#F4A39B"/>
<path d="M195.56 110.92C195.37 110.72 195.15 110.59 194.9 110.54C194.65 110.49 194.38 110.49 194.1 110.58C193.79 110.67 193.53 110.82 193.33 111.03C193.13 111.24 192.99 111.49 192.93 111.79C192.87 112.09 192.88 112.4 192.98 112.74C193.08 113.08 193.23 113.36 193.44 113.58C193.65 113.8 193.9 113.94 194.18 114.01C194.46 114.08 194.76 114.07 195.07 113.98C195.49 113.86 195.8 113.64 195.99 113.33C196.18 113.02 196.25 112.66 196.2 112.24L194.44 112.75L194.26 112.13L196.85 111.39L197.02 111.99C197.08 112.37 197.04 112.74 196.92 113.11C196.8 113.48 196.6 113.8 196.31 114.08C196.03 114.36 195.68 114.56 195.27 114.68C194.83 114.81 194.4 114.82 193.97 114.72C193.55 114.62 193.17 114.42 192.86 114.11C192.54 113.81 192.32 113.42 192.18 112.96C192.04 112.5 192.04 112.06 192.15 111.63C192.26 111.2 192.47 110.83 192.78 110.52C193.09 110.21 193.46 109.99 193.9 109.87C194.4 109.73 194.88 109.72 195.34 109.85C195.8 109.98 196.18 110.25 196.49 110.65L195.56 110.92Z" fill="#EDEDED"/>
<path d="M200.65 109.04L201.72 112.77L200.95 112.99L200.82 112.55C200.74 112.74 200.62 112.9 200.45 113.05C200.28 113.19 200.08 113.3 199.86 113.36C199.57 113.44 199.29 113.46 199.02 113.4C198.75 113.34 198.52 113.22 198.32 113.02C198.12 112.82 197.97 112.55 197.87 112.21L197.24 110.02L198 109.8L198.6 111.88C198.7 112.21 198.85 112.45 199.07 112.58C199.29 112.71 199.54 112.73 199.83 112.65C200.12 112.57 200.32 112.41 200.44 112.19C200.56 111.96 200.57 111.68 200.47 111.35L199.87 109.27L200.64 109.05L200.65 109.04Z" fill="#EDEDED"/>
<path d="M201.53 108.11C201.41 108.04 201.33 107.94 201.29 107.8C201.25 107.66 201.26 107.53 201.33 107.41C201.4 107.29 201.5 107.21 201.64 107.17C201.78 107.13 201.9 107.15 202.03 107.21C202.16 107.27 202.23 107.38 202.27 107.52C202.31 107.66 202.3 107.79 202.23 107.91C202.16 108.03 202.06 108.11 201.93 108.15C201.8 108.19 201.66 108.18 201.54 108.11H201.53ZM202.44 108.54L203.51 112.27L202.74 112.49L201.67 108.76L202.44 108.54Z" fill="#EDEDED"/>
<path d="M203.68 109.1C203.75 108.77 203.9 108.48 204.12 108.24C204.34 108 204.62 107.84 204.95 107.74C205.19 107.67 205.45 107.65 205.72 107.69C205.99 107.73 206.22 107.81 206.41 107.95L205.89 106.15L206.67 105.93L208.11 110.93L207.33 111.15L207.17 110.59C207.1 110.81 206.96 111.01 206.77 111.19C206.58 111.37 206.34 111.5 206.05 111.59C205.73 111.68 205.4 111.69 205.09 111.59C204.77 111.5 204.5 111.33 204.26 111.08C204.02 110.83 203.85 110.52 203.74 110.14C203.63 109.76 203.61 109.41 203.69 109.08L203.68 109.1ZM206.43 108.67C206.27 108.51 206.09 108.41 205.89 108.36C205.69 108.31 205.49 108.31 205.29 108.37C205.09 108.43 204.92 108.53 204.78 108.67C204.64 108.82 204.54 109 204.49 109.22C204.44 109.44 204.45 109.67 204.52 109.93C204.59 110.19 204.71 110.4 204.87 110.56C205.03 110.72 205.21 110.83 205.42 110.88C205.62 110.93 205.82 110.93 206.01 110.88C206.2 110.83 206.38 110.72 206.52 110.57C206.66 110.42 206.76 110.24 206.81 110.01C206.86 109.79 206.85 109.55 206.78 109.29C206.71 109.03 206.59 108.82 206.43 108.67Z" fill="#EDEDED"/>
<path d="M212.04 108.1L209.19 108.92C209.3 109.21 209.48 109.42 209.73 109.54C209.98 109.66 210.25 109.68 210.54 109.6C210.95 109.48 211.2 109.22 211.27 108.83L212.1 108.59C212.09 108.96 211.96 109.3 211.73 109.61C211.5 109.91 211.16 110.13 210.73 110.25C210.37 110.35 210.03 110.36 209.7 110.28C209.37 110.2 209.09 110.04 208.84 109.79C208.6 109.54 208.42 109.23 208.31 108.85C208.2 108.47 208.18 108.11 208.25 107.77C208.32 107.43 208.48 107.15 208.71 106.91C208.95 106.67 209.25 106.5 209.61 106.39C209.97 106.28 210.3 106.28 210.62 106.35C210.94 106.42 211.22 106.58 211.45 106.81C211.68 107.04 211.85 107.34 211.96 107.7C212 107.84 212.03 107.97 212.04 108.09V108.1ZM211.08 107.7C210.99 107.42 210.83 107.22 210.58 107.1C210.33 106.99 210.06 106.97 209.77 107.05C209.5 107.13 209.3 107.28 209.16 107.5C209.02 107.72 208.97 107.98 209.02 108.28L211.08 107.69V107.7Z" fill="#EDEDED"/>
<path d="M212.43 106.58C212.5 106.25 212.65 105.96 212.87 105.72C213.09 105.48 213.37 105.32 213.7 105.22C213.94 105.15 214.2 105.13 214.47 105.17C214.74 105.21 214.97 105.29 215.16 105.43L214.64 103.63L215.42 103.41L216.86 108.41L216.08 108.63L215.92 108.07C215.85 108.29 215.71 108.49 215.52 108.67C215.33 108.85 215.09 108.98 214.8 109.07C214.48 109.16 214.15 109.17 213.84 109.07C213.52 108.98 213.25 108.81 213.01 108.56C212.77 108.31 212.6 108 212.49 107.62C212.38 107.24 212.36 106.89 212.44 106.56L212.43 106.58ZM215.18 106.15C215.02 105.99 214.84 105.89 214.64 105.84C214.44 105.79 214.24 105.79 214.04 105.85C213.84 105.91 213.67 106.01 213.53 106.15C213.39 106.3 213.29 106.48 213.24 106.7C213.19 106.92 213.2 107.15 213.27 107.41C213.34 107.67 213.46 107.88 213.62 108.04C213.78 108.2 213.96 108.31 214.17 108.36C214.37 108.41 214.57 108.41 214.76 108.36C214.95 108.31 215.13 108.2 215.27 108.05C215.41 107.9 215.51 107.72 215.56 107.49C215.61 107.27 215.6 107.03 215.53 106.77C215.46 106.51 215.34 106.3 215.18 106.15Z" fill="#EDEDED"/>
<path d="M219.22 103.33L219.62 104.71L221.24 104.24L221.42 104.87L219.8 105.34L220.21 106.78L222.04 106.26L222.22 106.89L219.62 107.64L218.27 102.93L220.87 102.18L221.05 102.81L219.22 103.33Z" fill="#EDEDED"/>
<path d="M223.35 102.63C223.51 102.47 223.71 102.35 223.97 102.28L224.2 103.08L224 103.14C223.7 103.23 223.49 103.37 223.38 103.57C223.27 103.77 223.27 104.06 223.38 104.43L223.94 106.39L223.17 106.61L222.1 102.88L222.87 102.66L223.03 103.2C223.09 102.98 223.2 102.79 223.35 102.63Z" fill="#EDEDED"/>
<path d="M225.94 101.88C226.1 101.72 226.3 101.6 226.56 101.53L226.79 102.33L226.59 102.39C226.29 102.48 226.08 102.62 225.97 102.82C225.86 103.02 225.86 103.31 225.97 103.68L226.53 105.64L225.76 105.86L224.69 102.13L225.46 101.91L225.62 102.45C225.68 102.23 225.79 102.04 225.94 101.88Z" fill="#EDEDED"/>
<path d="M228.97 104.74C228.64 104.66 228.35 104.5 228.11 104.26C227.86 104.02 227.69 103.7 227.58 103.32C227.47 102.94 227.46 102.58 227.54 102.24C227.62 101.9 227.79 101.61 228.03 101.37C228.27 101.13 228.57 100.96 228.93 100.86C229.29 100.76 229.63 100.74 229.96 100.82C230.29 100.9 230.59 101.05 230.84 101.3C231.09 101.54 231.27 101.86 231.38 102.24C231.49 102.62 231.5 102.98 231.41 103.32C231.32 103.66 231.15 103.96 230.91 104.2C230.66 104.45 230.36 104.62 230 104.72C229.64 104.82 229.31 104.83 228.98 104.75L228.97 104.74ZM230.32 103.73C230.47 103.59 230.57 103.4 230.62 103.18C230.67 102.96 230.66 102.71 230.58 102.44C230.5 102.17 230.38 101.96 230.23 101.8C230.07 101.64 229.89 101.54 229.7 101.5C229.5 101.45 229.3 101.46 229.1 101.52C228.9 101.58 228.73 101.68 228.59 101.82C228.45 101.96 228.35 102.14 228.31 102.36C228.26 102.58 228.28 102.82 228.36 103.09C228.48 103.49 228.67 103.77 228.93 103.93C229.2 104.09 229.49 104.12 229.8 104.04C230 103.98 230.17 103.88 230.32 103.74V103.73Z" fill="#EDEDED"/>
<path d="M232.85 99.9C233.01 99.74 233.21 99.62 233.47 99.55L233.7 100.35L233.5 100.41C233.2 100.5 232.99 100.64 232.88 100.84C232.77 101.04 232.77 101.33 232.88 101.7L233.44 103.66L232.67 103.88L231.6 100.15L232.37 99.93L232.53 100.47C232.59 100.25 232.7 100.06 232.85 99.9Z" fill="#EDEDED"/>
<path d="M237.62 101.78L239.21 101.32L239.39 101.94L237.03 102.62L235.68 97.92L236.45 97.7L237.62 101.78Z" fill="#EDEDED"/>
<path d="M240.64 101.39C240.31 101.31 240.02 101.15 239.78 100.91C239.53 100.67 239.36 100.35 239.25 99.97C239.14 99.59 239.13 99.23 239.21 98.89C239.29 98.55 239.46 98.26 239.7 98.02C239.94 97.78 240.24 97.61 240.6 97.51C240.96 97.41 241.3 97.39 241.63 97.47C241.96 97.55 242.26 97.7 242.51 97.95C242.76 98.19 242.94 98.51 243.05 98.89C243.16 99.27 243.17 99.63 243.08 99.97C242.99 100.31 242.82 100.61 242.58 100.85C242.33 101.1 242.03 101.27 241.67 101.37C241.31 101.47 240.98 101.48 240.65 101.4L240.64 101.39ZM241.99 100.38C242.14 100.24 242.24 100.05 242.29 99.83C242.34 99.61 242.33 99.36 242.25 99.09C242.17 98.82 242.05 98.61 241.9 98.45C241.74 98.29 241.56 98.19 241.37 98.15C241.17 98.1 240.97 98.11 240.77 98.17C240.57 98.23 240.4 98.33 240.26 98.47C240.12 98.61 240.02 98.79 239.98 99.01C239.93 99.23 239.95 99.47 240.03 99.74C240.15 100.14 240.34 100.42 240.6 100.58C240.87 100.74 241.16 100.77 241.47 100.69C241.67 100.63 241.84 100.53 241.99 100.39V100.38Z" fill="#EDEDED"/>
<path d="M245.58 96.25C245.84 96.3 246.05 96.39 246.23 96.53L246.07 95.99L246.85 95.77L247.94 99.56C248.04 99.9 248.05 100.23 247.99 100.54C247.92 100.85 247.77 101.12 247.55 101.35C247.32 101.58 247.02 101.75 246.64 101.86C246.14 102.01 245.68 102.01 245.28 101.86C244.88 101.72 244.6 101.45 244.43 101.06L245.19 100.84C245.3 101.02 245.47 101.14 245.7 101.2C245.93 101.26 246.17 101.26 246.44 101.18C246.75 101.09 246.98 100.92 247.11 100.68C247.24 100.44 247.26 100.13 247.16 99.77L246.98 99.15C246.9 99.36 246.76 99.56 246.58 99.75C246.39 99.93 246.16 100.07 245.87 100.15C245.55 100.24 245.22 100.25 244.91 100.15C244.59 100.06 244.32 99.89 244.08 99.64C243.84 99.39 243.67 99.08 243.56 98.7C243.45 98.32 243.43 97.97 243.51 97.64C243.58 97.31 243.73 97.02 243.95 96.78C244.17 96.54 244.45 96.38 244.77 96.28C245.06 96.2 245.33 96.18 245.59 96.23L245.58 96.25ZM246.26 97.22C246.1 97.06 245.92 96.96 245.72 96.91C245.52 96.86 245.32 96.86 245.12 96.92C244.92 96.98 244.75 97.08 244.61 97.22C244.47 97.37 244.37 97.55 244.32 97.77C244.27 97.99 244.28 98.22 244.35 98.48C244.42 98.74 244.54 98.95 244.7 99.11C244.86 99.27 245.04 99.38 245.25 99.43C245.45 99.48 245.65 99.48 245.84 99.43C246.03 99.38 246.21 99.27 246.35 99.12C246.49 98.97 246.59 98.79 246.64 98.56C246.69 98.34 246.68 98.1 246.61 97.84C246.54 97.58 246.42 97.37 246.26 97.22Z" fill="#EDEDED"/>
<path d="M250.16 94.94C250.42 94.99 250.63 95.08 250.81 95.22L250.65 94.68L251.43 94.46L252.52 98.25C252.62 98.59 252.63 98.92 252.57 99.23C252.5 99.54 252.35 99.81 252.13 100.04C251.9 100.27 251.6 100.44 251.22 100.55C250.72 100.7 250.26 100.7 249.86 100.55C249.46 100.41 249.18 100.14 249.01 99.75L249.77 99.53C249.88 99.71 250.05 99.83 250.28 99.89C250.51 99.95 250.75 99.95 251.02 99.87C251.33 99.78 251.56 99.61 251.69 99.37C251.82 99.13 251.84 98.82 251.74 98.46L251.56 97.84C251.48 98.05 251.34 98.25 251.16 98.44C250.97 98.62 250.74 98.76 250.45 98.84C250.13 98.93 249.8 98.94 249.49 98.84C249.17 98.75 248.9 98.58 248.66 98.33C248.42 98.08 248.25 97.77 248.14 97.39C248.03 97.01 248.01 96.66 248.09 96.33C248.16 96 248.31 95.71 248.53 95.47C248.75 95.23 249.03 95.07 249.35 94.97C249.64 94.89 249.91 94.87 250.17 94.92L250.16 94.94ZM250.84 95.91C250.68 95.75 250.5 95.65 250.3 95.6C250.1 95.55 249.9 95.55 249.7 95.61C249.5 95.67 249.33 95.77 249.19 95.91C249.05 96.06 248.95 96.24 248.9 96.46C248.85 96.68 248.86 96.91 248.93 97.17C249 97.43 249.12 97.64 249.28 97.8C249.44 97.96 249.62 98.07 249.83 98.12C250.03 98.17 250.23 98.17 250.42 98.12C250.61 98.07 250.79 97.96 250.93 97.81C251.07 97.66 251.17 97.48 251.22 97.25C251.27 97.03 251.26 96.79 251.19 96.53C251.12 96.27 251 96.06 250.84 95.91Z" fill="#EDEDED"/>
<path d="M252.3 93.51C252.18 93.44 252.1 93.34 252.06 93.2C252.02 93.06 252.03 92.93 252.1 92.81C252.17 92.69 252.27 92.61 252.41 92.57C252.55 92.53 252.67 92.55 252.8 92.61C252.93 92.67 253 92.78 253.04 92.92C253.08 93.06 253.07 93.19 253 93.31C252.93 93.43 252.83 93.51 252.7 93.55C252.57 93.59 252.43 93.58 252.31 93.51H252.3ZM253.21 93.94L254.28 97.67L253.51 97.89L252.44 94.16L253.21 93.94Z" fill="#EDEDED"/>
<path d="M256.93 93C257.2 93.06 257.43 93.18 257.63 93.39C257.83 93.59 257.98 93.86 258.08 94.2L258.71 96.4L257.95 96.62L257.35 94.54C257.25 94.21 257.1 93.97 256.88 93.84C256.66 93.71 256.41 93.69 256.12 93.77C255.83 93.85 255.63 94.01 255.51 94.23C255.39 94.46 255.38 94.74 255.48 95.07L256.08 97.15L255.31 97.37L254.24 93.64L255.01 93.42L255.13 93.85C255.21 93.66 255.34 93.49 255.51 93.35C255.68 93.21 255.88 93.11 256.1 93.04C256.39 92.96 256.67 92.94 256.94 93H256.93Z" fill="#EDEDED"/>
<path d="M260.92 91.84C261.18 91.89 261.39 91.98 261.57 92.12L261.41 91.58L262.19 91.36L263.28 95.15C263.38 95.49 263.39 95.82 263.33 96.13C263.26 96.44 263.11 96.71 262.89 96.94C262.66 97.17 262.36 97.34 261.98 97.45C261.48 97.6 261.02 97.6 260.62 97.45C260.22 97.31 259.94 97.04 259.77 96.65L260.53 96.43C260.64 96.61 260.81 96.73 261.04 96.79C261.27 96.85 261.51 96.85 261.78 96.77C262.09 96.68 262.32 96.51 262.45 96.27C262.58 96.03 262.6 95.72 262.5 95.36L262.32 94.74C262.24 94.95 262.1 95.15 261.92 95.34C261.73 95.52 261.5 95.66 261.21 95.74C260.89 95.83 260.56 95.84 260.25 95.74C259.93 95.65 259.66 95.48 259.42 95.23C259.18 94.98 259.01 94.67 258.9 94.29C258.79 93.91 258.77 93.56 258.85 93.23C258.92 92.9 259.07 92.61 259.29 92.37C259.51 92.13 259.79 91.97 260.11 91.87C260.4 91.79 260.67 91.77 260.93 91.82L260.92 91.84ZM261.6 92.81C261.44 92.65 261.26 92.55 261.06 92.5C260.86 92.45 260.66 92.45 260.46 92.51C260.26 92.57 260.09 92.67 259.95 92.81C259.81 92.96 259.71 93.14 259.66 93.36C259.61 93.58 259.62 93.81 259.69 94.07C259.76 94.33 259.88 94.54 260.04 94.7C260.2 94.86 260.38 94.97 260.59 95.02C260.79 95.07 260.99 95.07 261.18 95.02C261.37 94.97 261.55 94.86 261.69 94.71C261.83 94.56 261.93 94.38 261.98 94.15C262.03 93.93 262.02 93.69 261.95 93.43C261.88 93.17 261.76 92.96 261.6 92.81Z" fill="#EDEDED"/>
</g>
</g>
<defs>
<clipPath id="clip0_220_219">
<rect width="373.51" height="268.42" fill="white"/>
</clipPath>
</defs>
</svg>
