<svg width="374" height="269" viewBox="0 0 374 269" fill="none" xmlns="http://www.w3.org/2000/svg">
<g clip-path="url(#clip0_220_162)">
<path opacity="0.5" d="M332.92 39.02C331.5 33.39 326.35 29.56 320.61 29.5C318.34 29.47 316.08 29.5 313.81 29.5H54.17C53.45 29.5 52.73 29.48 52.02 29.53C45.38 29.97 40.3 35.57 40.21 42.16C40.17 45.08 40.21 48.01 40.21 50.93V219.59C40.21 222.95 39.77 226.92 40.81 230.16C42.51 235.43 47.45 238.87 52.93 238.93C53.65 238.93 54.36 238.93 55.08 238.93H320.69C327.64 238.82 333.22 233.26 333.32 226.29C333.33 225.49 333.32 224.69 333.32 223.89V43.67C333.32 42.1 333.32 40.57 332.93 39.02H332.92Z" fill="#34B9CA"/>
<path d="M88.17 149.94C127.52 149.94 159.42 118.04 159.42 78.69C159.42 39.3397 127.52 7.44 88.17 7.44C48.8197 7.44 16.92 39.3397 16.92 78.69C16.92 118.04 48.8197 149.94 88.17 149.94Z" fill="#34B9CA"/>
<path d="M74.36 115.39C74.23 115.39 74.1 115.39 73.97 115.38C71.73 115.27 69.63 114.25 68.16 112.55L43.11 83.53C40.15 80.11 40.53 74.93 43.96 71.98C47.38 69.02 52.56 69.4 55.51 72.83L74.93 95.33L121.37 50.92C124.64 47.79 129.83 47.91 132.95 51.18C136.08 54.45 135.96 59.63 132.69 62.76L80.03 113.13C78.5 114.59 76.47 115.4 74.37 115.4L74.36 115.39Z" fill="white"/>
<path d="M89.26 161.5C89.26 161.5 91.88 153.53 101.73 153.53C111.58 153.53 121.91 157.29 121.91 157.29L115.59 179.5L91.3 181.03L89.26 161.5Z" fill="#192441"/>
<path d="M110.28 116.78C109.32 110.42 111.06 102.87 116.79 99.93C117.79 99.42 118.91 99.07 120.01 99.21C122.67 99.55 124.2 102.58 124.18 105.26C124.16 107.94 123.09 110.5 122.73 113.15C121.46 122.45 128.85 131.82 126.02 140.77C124.96 144.11 122.58 146.89 121.38 150.18C120.06 153.8 120.27 157.76 120.27 161.61C120.27 162.37 120.25 163.17 119.87 163.83C119.58 164.33 119.11 164.69 118.65 165.03C114.28 168.17 108.86 169.8 103.49 169.59C99.95 169.46 96.02 168.21 94.48 165.02C93.48 162.95 93.66 160.39 92.37 158.49C91 156.47 88.33 155.73 86.74 153.88C84.53 151.32 84.97 147.49 85.53 144.16C86.1 140.76 86.67 137.36 87.25 133.97C87.62 131.79 88.01 129.53 89.24 127.68C90.43 125.89 92.3 124.65 93.61 122.94C95 121.11 95.71 118.76 97.41 117.21C100.7 114.21 105.88 115.46 110.1 116.88" fill="#F4A39B"/>
<path d="M356.6 156.87C356.6 156.87 350.34 142.9 335.23 143.69C320.12 144.48 316.85 149.32 316.85 149.32L339.77 184L356.6 170.24V156.87Z" fill="#192441"/>
<path d="M179.48 89.43C179.48 89.43 178.45 85.71 176.33 87.35C174.21 88.99 174.77 105.32 179.48 104.22C184.18 103.12 179.48 89.42 179.48 89.42V89.43Z" fill="#F4A39B"/>
<path opacity="0.1" d="M179.48 89.43C179.48 89.43 178.45 85.71 176.33 87.35C174.21 88.99 174.77 105.32 179.48 104.22C184.18 103.12 179.48 89.42 179.48 89.42V89.43Z" fill="#282323"/>
<path d="M190.14 175.55C187.36 163.94 183.96 152.52 179.38 141.46C174.73 143.71 169.36 144.4 164.24 145.41C156.03 147.04 148.07 149.67 140.13 152.3C136.93 153.36 133.52 154.57 131.52 157.29C128.86 160.91 129.57 165.9 130.4 170.31C131.29 175.02 132.17 179.74 133.06 184.45C133.22 185.29 133.38 186.14 133.54 186.98C152.35 183.41 170.8 175.31 190.15 175.55H190.14Z" fill="#ED6A4C"/>
<path d="M196.42 206.57C194.56 196.18 192.6 185.8 190.15 175.55C170.8 175.32 152.35 183.41 133.54 186.98C134.67 192.91 135.85 198.83 137.54 204.63C138.05 206.38 138.61 208.12 139.19 209.85C156.89 204.27 177.43 206.5 196.43 206.56L196.42 206.57Z" fill="#ED6A4C"/>
<path d="M239.35 206.2C237.93 206.24 236.51 206.28 235.1 206.32C236.52 206.28 237.94 206.24 239.35 206.2C239.67 195.9 240.34 185.58 241.12 175.25C242.16 161.51 243.39 147.77 244.26 134.09C243.28 133.89 242.33 133.61 241.41 133.2C238.95 132.11 236.91 130.21 234.47 129.07C226.2 125.19 216.78 130.9 207.66 131.51C202.41 131.86 196.88 130.52 192.02 132.55C188.15 134.17 185.42 137.66 181.93 140C181.11 140.55 180.25 141.03 179.38 141.45C183.96 152.51 187.36 163.94 190.14 175.54C192.74 175.57 195.35 175.74 197.99 176.11C195.36 175.75 192.74 175.57 190.14 175.54C192.59 185.78 194.56 196.17 196.41 206.56C199.87 206.57 203.28 206.51 206.61 206.32C203.28 206.52 199.87 206.57 196.41 206.56C196.81 208.82 197.21 211.08 197.61 213.35C211.54 212.97 225.39 212.43 239.21 211.92C239.24 210.02 239.29 208.11 239.35 206.21V206.2Z" fill="#192441"/>
<path d="M295.74 164.8C295.94 160.08 296.48 155.34 295.96 150.64C295.44 145.94 293.71 141.17 290.14 138.08C285.03 133.65 277.57 133.64 270.81 133.85C264.54 134.05 258.27 134.25 252.01 134.45C249.43 134.53 246.77 134.59 244.26 134.08C243.39 147.76 242.16 161.5 241.12 175.24H295.78C295.63 171.76 295.59 168.28 295.74 164.79V164.8Z" fill="#ED6A4C"/>
<path d="M241.13 175.26C240.35 185.59 239.68 195.91 239.36 206.21C259.03 205.64 278.71 204.59 298.38 204C297.53 194.41 296.21 184.85 295.79 175.26H241.13Z" fill="#ED6A4C"/>
<g opacity="0.2">
<path d="M196.42 206.57C194.56 196.18 192.6 185.8 190.15 175.55C170.8 175.32 152.35 183.41 133.54 186.98C134.67 192.91 135.85 198.83 137.54 204.63C138.05 206.38 138.61 208.12 139.19 209.85C156.89 204.27 177.43 206.5 196.43 206.56L196.42 206.57Z" fill="#F6F6F6"/>
</g>
<g opacity="0.2">
<path d="M241.13 175.26C240.35 185.59 239.68 195.91 239.36 206.21C259.03 205.64 278.71 204.59 298.38 204C297.53 194.41 296.21 184.85 295.79 175.26H241.13Z" fill="#F6F6F6"/>
</g>
<path d="M190.62 137.04C190.4 137.88 190.14 138.61 189.8 139.14C187.67 142.52 194.33 152.1 209.24 149.71C224.15 147.31 232.41 142.39 233.47 137.26C233.92 135.09 234.2 132.17 234.3 129.04C222.78 139.88 204.94 143.83 190.62 137.04Z" fill="#F4A39B"/>
<path d="M233.6 116.42L191.4 124.43C191.4 124.43 191.78 132.49 190.62 137.04C204.94 143.83 222.78 139.88 234.3 129.04C234.43 124.77 234.22 120.11 233.6 116.42Z" fill="#F4A39B"/>
<path opacity="0.1" d="M233.6 116.42L191.4 124.43C191.4 124.43 191.78 132.49 190.62 137.04C204.77 147.05 228.91 139.14 234.3 129.04C234.43 124.77 234.22 120.11 233.6 116.42Z" fill="#282323"/>
<path d="M211.91 50.47C211.91 50.47 179.04 44.06 178.24 86.15C177.44 128.24 189.06 138.26 205.5 139.07C221.94 139.88 235.25 134.26 237.01 115.02C238.77 95.78 249.59 86.56 242.38 68.52C235.16 50.48 211.91 50.48 211.91 50.48V50.47Z" fill="#F4A39B"/>
<path d="M249.05 76.46C249.05 76.46 251.31 83.1 247.63 90.68C243.96 98.27 241.23 92.34 241.23 92.34L242.53 74.09L249.05 76.46Z" fill="black"/>
<path d="M243.01 90.21C243.01 90.21 245.14 87.25 247.87 88.08C250.6 88.91 248.2 103.37 244.83 105.98C241.47 108.59 236.01 107.28 236.01 107.28L243 90.21H243.01Z" fill="#F4A39B"/>
<path d="M234.33 70.16C234.33 70.16 241.2 81.57 238.14 91.59C235.08 101.61 240.54 99.18 241.29 96.9C242.04 94.62 247.29 85.17 244.84 76.84C242.39 68.51 234.34 70.16 234.34 70.16H234.33Z" fill="black"/>
<path d="M216.42 91.95C216.98 91.95 217.58 91.97 218.02 92.31C218.45 92.65 218.61 93.22 218.7 93.76C218.82 94.49 218.79 95.37 218.19 95.81C217.86 96.05 217.44 96.09 217.03 96.1C216.5 96.12 215.93 96.08 215.48 95.79C214.94 95.44 214.67 94.79 214.5 94.16C214.3 93.44 214.25 92.52 214.87 92.1C215.06 91.97 215.3 91.91 215.53 91.88C215.98 91.81 216.45 91.83 216.9 91.92" fill="#1D1D1B"/>
<path d="M216.52 91.12C217.18 91.12 217.85 91.19 218.41 91.56C218.98 91.94 219.27 92.56 219.43 93.2C219.71 94.27 219.69 95.73 218.7 96.45C218.11 96.88 217.42 96.92 216.72 96.92C216.06 96.92 215.35 96.77 214.83 96.33C214.36 95.94 214.05 95.41 213.85 94.84C213.65 94.26 213.52 93.67 213.54 93.05C213.57 92.3 213.96 91.58 214.65 91.25C215.34 90.92 216.25 90.93 216.99 91.07C217.42 91.16 217.8 91.52 217.72 91.99C217.65 92.41 217.25 92.81 216.8 92.72C216.55 92.67 216.3 92.65 216.04 92.64C216.07 92.64 216.19 92.64 216.04 92.64C215.96 92.64 215.89 92.64 215.81 92.66C215.69 92.67 215.57 92.69 215.45 92.72C215.24 92.76 215.58 92.65 215.39 92.74C215.35 92.76 215.27 92.82 215.39 92.73C215.35 92.76 215.32 92.79 215.28 92.82C215.2 92.88 215.39 92.66 215.3 92.81L215.24 92.9L215.29 92.81C215.29 92.81 215.26 92.88 215.25 92.91C215.25 92.92 215.21 93.01 215.21 93.01C215.24 92.88 215.25 92.86 215.23 92.96V93.02C215.21 93.1 215.23 93.23 215.2 93.31V93.2C215.2 93.2 215.2 93.26 215.2 93.29C215.2 93.34 215.2 93.39 215.21 93.44C215.23 93.65 215.28 93.85 215.33 94.05C215.27 93.86 215.36 94.18 215.33 94.05C215.34 94.09 215.36 94.13 215.37 94.17C215.4 94.27 215.44 94.37 215.48 94.47C215.51 94.55 215.56 94.69 215.62 94.75C215.52 94.65 215.57 94.68 215.61 94.73C215.65 94.79 215.69 94.85 215.74 94.9C215.77 94.94 215.8 94.99 215.84 95.01C215.69 94.91 215.79 94.96 215.82 94.99C215.87 95.03 215.92 95.06 215.97 95.1C215.82 95.03 215.94 95.08 215.97 95.1C216.02 95.12 216.07 95.15 216.13 95.17C216.17 95.19 216.32 95.25 216.15 95.18C216.27 95.22 216.41 95.23 216.53 95.24C216.64 95.24 216.74 95.25 216.85 95.26C216.88 95.26 217.12 95.28 216.91 95.26C216.95 95.26 217 95.26 217.04 95.26C217.15 95.26 217.26 95.25 217.36 95.23C217.4 95.23 217.44 95.22 217.49 95.21C217.53 95.21 217.57 95.19 217.61 95.18C217.51 95.21 217.5 95.21 217.55 95.19C217.58 95.17 217.68 95.16 217.69 95.13C217.66 95.19 217.59 95.2 217.67 95.14L217.72 95.1C217.79 95.04 217.78 95.05 217.7 95.14C217.72 95.14 217.77 95.06 217.77 95.05C217.79 95.03 217.9 94.91 217.81 95C217.73 95.08 217.81 94.98 217.83 94.94C217.84 94.91 217.86 94.87 217.87 94.83C217.88 94.79 217.89 94.76 217.9 94.72C217.87 94.83 217.86 94.86 217.88 94.8C217.89 94.71 217.91 94.62 217.92 94.54C217.92 94.48 217.92 94.42 217.92 94.36C217.92 94.29 217.96 94.25 217.92 94.4C217.94 94.32 217.91 94.18 217.9 94.1C217.89 93.98 217.87 93.86 217.85 93.74C217.83 93.64 217.81 93.54 217.78 93.44C217.73 93.24 217.85 93.6 217.77 93.41C217.75 93.35 217.73 93.3 217.7 93.24C217.68 93.2 217.66 93.17 217.65 93.13C217.59 92.98 217.74 93.25 217.62 93.08C217.59 93.04 217.56 93 217.53 92.96C217.42 92.82 217.66 93.04 217.51 92.94C217.51 92.94 217.33 92.82 217.44 92.88C217.54 92.94 217.32 92.83 217.3 92.82C217.28 92.81 217.19 92.77 217.17 92.78C217.28 92.81 217.29 92.81 217.19 92.79H217.12C216.85 92.74 216.58 92.73 216.31 92.73C215.87 92.73 215.51 92.21 215.58 91.81C215.66 91.32 216.04 91.08 216.5 91.08L216.52 91.12Z" fill="#1D1D1B"/>
<path d="M190.16 90.03C190.95 89.93 191.77 90.52 191.91 91.31C191.96 91.58 191.94 91.85 191.91 92.13C191.88 92.41 191.83 92.7 191.69 92.96C191.52 93.28 191.21 93.52 190.86 93.64C190.14 93.89 189.3 93.63 188.79 93.06C188.28 92.49 188.09 91.69 188.2 90.94C188.23 90.72 188.29 90.49 188.41 90.3C188.69 89.81 189.3 89.56 189.86 89.62C190.42 89.68 190.93 90.02 191.27 90.47" fill="#1D1D1B"/>
<path d="M190.04 89.21C191.29 89.07 192.46 89.91 192.73 91.13C192.8 91.46 192.79 91.82 192.75 92.15C192.71 92.48 192.66 92.81 192.54 93.11C192.3 93.71 191.77 94.21 191.15 94.41C190.53 94.61 189.85 94.6 189.23 94.34C188.61 94.08 188.13 93.63 187.79 93.05C187.16 91.99 187.14 90.36 188.03 89.44C188.53 88.92 189.31 88.68 190.02 88.78C190.78 88.89 191.45 89.33 191.93 89.93C192.2 90.27 192.16 90.84 191.79 91.1C191.42 91.36 190.91 91.33 190.62 90.96C190.58 90.91 190.54 90.86 190.5 90.82C190.48 90.79 190.4 90.7 190.52 90.83C190.45 90.75 190.36 90.69 190.28 90.63C190.25 90.61 190.21 90.58 190.18 90.56C190.02 90.44 190.34 90.62 190.15 90.54C190.08 90.51 189.94 90.41 189.86 90.43L189.96 90.45C189.96 90.45 189.88 90.43 189.84 90.43C189.8 90.43 189.76 90.43 189.72 90.42C189.53 90.4 189.86 90.4 189.75 90.42C189.7 90.42 189.66 90.42 189.61 90.43C189.57 90.43 189.54 90.44 189.5 90.45C189.31 90.48 189.66 90.38 189.49 90.45C189.46 90.47 189.42 90.48 189.39 90.49C189.36 90.51 189.32 90.52 189.29 90.54L189.38 90.49C189.38 90.49 189.27 90.57 189.24 90.59C189.15 90.65 189.22 90.57 189.27 90.55C189.24 90.55 189.2 90.63 189.18 90.66C189.14 90.71 189.06 90.77 189.18 90.65C189.15 90.68 189.13 90.76 189.11 90.81C189.09 90.86 189.02 90.99 189.1 90.82C189.05 90.92 189.05 91.07 189.04 91.17C189.04 91.25 189.01 91.36 189.03 91.44V91.34C189.03 91.34 189.03 91.42 189.03 91.46C189.03 91.5 189.03 91.54 189.04 91.58C189.05 91.68 189.07 91.78 189.1 91.88C189.13 92.03 189.09 91.86 189.09 91.85C189.09 91.91 189.14 91.99 189.16 92.05C189.19 92.13 189.24 92.21 189.28 92.29C189.37 92.47 189.17 92.16 189.29 92.31C189.31 92.34 189.34 92.37 189.36 92.41C189.39 92.45 189.42 92.49 189.46 92.52C189.53 92.52 189.55 92.62 189.46 92.52C189.47 92.52 189.53 92.58 189.55 92.6C189.6 92.64 189.66 92.68 189.71 92.72C189.81 92.78 189.81 92.72 189.7 92.72C189.72 92.72 189.78 92.76 189.8 92.77C189.89 92.81 189.98 92.84 190.07 92.87C190.25 92.93 189.93 92.85 190.05 92.87C190.1 92.87 190.15 92.89 190.19 92.89C190.23 92.89 190.27 92.89 190.31 92.9C190.35 92.9 190.39 92.9 190.43 92.9C190.31 92.9 190.29 92.9 190.35 92.9C190.44 92.89 190.52 92.88 190.61 92.86C190.8 92.83 190.46 92.94 190.62 92.86C190.65 92.84 190.69 92.83 190.73 92.81C190.75 92.81 190.9 92.7 190.79 92.78C190.68 92.86 190.83 92.75 190.84 92.74C190.87 92.72 190.9 92.69 190.93 92.67C191.06 92.57 190.83 92.8 190.96 92.63C190.99 92.6 191.03 92.55 191.04 92.51C190.99 92.69 191.01 92.57 191.02 92.53C191.04 92.48 191.09 92.4 191.09 92.34C191.09 92.36 191.05 92.53 191.09 92.36C191.11 92.25 191.13 92.14 191.14 92.03C191.15 91.92 191.2 91.73 191.17 91.62C191.17 91.64 191.19 91.81 191.17 91.64C191.17 91.57 191.16 91.5 191.14 91.44V91.39C191.11 91.3 191.11 91.32 191.14 91.45C191.13 91.45 191.09 91.32 191.08 91.31L191.03 91.22C191.1 91.33 191.11 91.35 191.06 91.27C191.05 91.25 191.03 91.23 191.01 91.21C190.98 91.18 190.95 91.14 190.93 91.11C190.82 90.97 191.07 91.22 190.93 91.11C190.89 91.08 190.69 90.96 190.68 90.93C190.68 90.95 190.86 91.02 190.73 90.96C190.68 90.94 190.64 90.92 190.59 90.9L190.54 90.88C190.45 90.85 190.47 90.86 190.61 90.89C190.57 90.89 190.5 90.87 190.46 90.86C190.43 90.86 190.39 90.86 190.36 90.86C190.27 90.86 190.29 90.86 190.43 90.86C190.4 90.86 190.36 90.86 190.33 90.86C189.9 90.91 189.43 90.62 189.38 90.16C189.33 89.73 189.61 89.26 190.08 89.21H190.04Z" fill="#1D1D1B"/>
<path d="M205.27 88.55C204.78 92.76 203.4 96.8 201.21 100.42C200.14 102.18 198.66 103.64 197.58 105.38C197.08 106.18 196.69 107.36 197.3 108.21C197.91 109.07 199.23 109.04 200.18 109.06C201.25 109.09 201.05 110.74 199.99 110.72C198.05 110.67 195.87 110.17 195.42 107.96C194.97 105.73 196.51 104 197.79 102.4C201.03 98.37 203.03 93.49 203.62 88.36C203.74 87.29 205.4 87.48 205.27 88.55Z" fill="#1D1D1B"/>
<path d="M194.92 86.98C194.27 86.12 193.43 85.57 192.36 85.27C192.44 85.29 192.32 85.27 192.3 85.26C192.24 85.25 192.18 85.23 192.12 85.22C191.98 85.19 191.84 85.17 191.7 85.15C191.56 85.13 191.42 85.12 191.28 85.12C191.2 85.12 191.12 85.12 191.05 85.12C190.9 85.12 191.15 85.12 190.99 85.12C190.39 85.15 189.94 85.25 189.42 85.47C188.43 85.89 187.76 84.36 188.75 83.94C191.34 82.85 194.54 83.69 196.22 85.95C196.86 86.81 195.56 87.85 194.91 86.99L194.92 86.98Z" fill="#1D1D1B"/>
<path d="M213.83 85.45C216.99 84.94 220.53 85.45 222.65 88.08C223.32 88.92 222.02 89.95 221.34 89.12C219.6 86.95 216.65 86.69 214.08 87.1C213.02 87.27 212.77 85.62 213.83 85.45Z" fill="#1D1D1B"/>
<path d="M198.44 77.01C198.89 77.95 198.37 79.08 197.35 79.32C196.42 79.54 195.8 78.82 195.03 78.48C194.32 78.16 193.53 78.01 192.75 78.08C191.84 78.16 191.01 78.57 190.11 78.66C189.77 78.69 189.34 78.53 189.22 78.17C188.9 77.16 189.67 76.63 190.52 76.37C191.32 76.12 192.13 75.95 192.96 75.87C194.61 75.72 196.26 75.9 197.84 76.4C198.27 76.54 198.46 77.09 198.3 77.49C198.12 77.94 197.65 78.09 197.21 77.95C196.12 77.61 194.96 77.44 193.81 77.48C193.23 77.5 192.65 77.57 192.08 77.68C191.8 77.74 191.52 77.8 191.25 77.88C191.12 77.92 190.99 77.96 190.87 78C190.5 78.13 190.76 78.13 190.78 77.85L190.72 77.42L190.75 77.51L189.86 77.02C190.59 76.95 191.27 76.66 191.99 76.52C192.71 76.38 193.49 76.38 194.21 76.51C194.94 76.64 195.63 76.89 196.28 77.26C196.44 77.35 196.6 77.45 196.75 77.56C196.79 77.59 197.02 77.7 197.03 77.72C196.95 77.59 197.04 77.95 196.92 77.69C196.46 76.72 197.99 76.05 198.45 77.02L198.44 77.01Z" fill="#1D1D1B"/>
<path d="M225.78 80.63C224.11 79.42 222.29 78.46 220.34 77.79C219.47 77.49 218.58 77.22 217.67 77.11C217.14 77.04 215.85 76.93 215.54 77.55C215.52 77.59 215.39 77.56 215.6 77.64C215.83 77.72 216.1 77.66 216.33 77.62C216.8 77.54 217.26 77.44 217.74 77.39C218.68 77.3 219.65 77.31 220.59 77.44C221.53 77.57 222.46 77.81 223.35 78.15C223.79 78.32 224.22 78.52 224.64 78.74C224.88 78.87 225.12 79.01 225.35 79.15C225.46 79.22 225.58 79.29 225.69 79.37C226.05 79.54 226.04 79.87 225.65 80.35C224.79 79.7 225.79 78.37 226.65 79.02C227.46 79.63 227.1 80.97 226.11 81.14C225.65 81.22 225.22 81.03 224.83 80.8C224.35 80.51 223.89 80.21 223.37 79.97C221.44 79.08 219.28 78.79 217.19 79.15C216.18 79.33 215.11 79.55 214.31 78.73C213.55 77.94 213.76 76.87 214.55 76.19C216.08 74.89 218.33 75.46 220.05 75.96C222.47 76.67 224.75 77.82 226.78 79.3C227.65 79.93 226.65 81.27 225.78 80.63Z" fill="#1D1D1B"/>
<path d="M215.71 76.93C216.43 77.06 217.15 77.12 217.88 77.11H217.66C217.9 77.11 218.15 77.1 218.39 77.08C218.62 77.06 218.83 77.1 219.02 77.24C219.18 77.36 219.32 77.58 219.34 77.78C219.39 78.2 219.11 78.69 218.64 78.73C217.6 78.81 216.54 78.78 215.51 78.59C215.08 78.51 214.7 78.13 214.78 77.67C214.85 77.25 215.24 76.85 215.7 76.94L215.71 76.93Z" fill="#1D1D1B"/>
<path d="M193.63 118.86C193.63 118.86 203.2 127.18 211.51 118.86" stroke="#1D1D1B" stroke-width="2.13" stroke-miterlimit="10" stroke-linecap="round"/>
<path d="M199.69 64.51C199.69 64.51 182.42 62.83 179.48 74.42C179.48 74.42 179.54 62.24 184.05 57.81C188.56 53.38 199.68 64.51 199.68 64.51H199.69Z" fill="black"/>
<path d="M208.37 34.08C197.41 37.69 188.66 47.67 184.99 59.69L179.48 57.87C179.48 57.87 183.47 36.14 208.37 34.07V34.08Z" fill="white"/>
<path d="M219.56 34.43C219.93 34.48 220.28 34.51 220.66 34.56C261.98 40.6 250.25 81.2 250.25 81.2L193.64 62.55C197.41 49.12 206.58 37.82 219.57 34.44L219.56 34.43Z" fill="white"/>
<path d="M208.37 34.08C211.71 33.8 215.43 33.9 219.56 34.43C206.57 37.81 197.4 49.11 193.63 62.54L184.99 59.69C188.65 47.67 197.41 37.68 208.37 34.08Z" fill="#EDEDED"/>
<path d="M250.24 81.19C250.24 81.19 224.12 63.19 191.94 54.27C160.74 45.62 170.64 59.35 175.9 65.25C177.23 66.74 179.2 67.48 181.17 67.17C186.69 66.3 199.54 65.24 214.85 70.34C235.35 77.17 250.23 81.19 250.23 81.19H250.24Z" fill="#F6F6F6"/>
<path d="M321.75 157.25C322.01 154.2 320.15 151.44 318.68 148.75C315.67 143.27 314.04 137.04 313.96 130.79C313.92 127.84 314.22 124.87 313.76 121.95C313.35 119.38 312.34 116.94 311.17 114.61C310.56 113.39 309.89 112.14 309.86 110.78C309.8 107.76 313.21 105.51 316.19 106.01C319.17 106.51 321.47 109.02 322.67 111.78C323.87 114.55 324.18 117.6 324.7 120.58C324.82 121.28 324.98 122.03 325.5 122.51C325.89 122.87 326.42 123.02 326.93 123.1C328.89 123.42 330.87 122.93 332.85 122.74C334.83 122.55 337.02 122.74 338.45 124.11C339.03 124.66 339.44 125.38 340.07 125.87C342.15 127.5 345.91 126.3 347.28 128.55C348.18 130.02 347.37 132.12 348.38 133.52C348.85 134.18 349.62 134.53 350.27 135.01C351.72 136.08 352.58 137.9 352.49 139.69C352.43 141 351.91 142.38 352.49 143.55C352.93 144.45 353.9 144.97 354.51 145.77C355.6 147.19 355.36 149.22 354.78 150.91C354.2 152.6 353.33 154.25 353.28 156.04C353.21 159.04 355.51 161.69 355.56 164.7C355.57 165.23 355.5 165.8 355.16 166.21C354.9 166.54 354.5 166.73 354.12 166.91C349.32 169.16 344 170.82 338.76 170.03C331.58 168.95 325.81 163.45 321.87 157.36" fill="#F4A39B"/>
<path d="M290.14 138.09C290.14 138.09 309.33 146.47 325.94 170.28C342.55 194.09 375.49 230.96 368.85 242.56C362.21 254.16 332.92 248 322.68 242.74C312.44 237.48 304.05 210.83 298.38 204C274.73 175.55 290.14 138.09 290.14 138.09Z" fill="#192441"/>
<path d="M316.85 149.32C316.85 149.32 328.71 170 343.66 168.89C358.61 167.78 356.6 156.86 356.6 156.86C356.6 156.86 381.39 209.6 368.85 242.55C364.45 254.12 322.06 209.85 322.06 209.85L316.84 149.31L316.85 149.32Z" fill="#192441"/>
<mask id="mask0_220_162" style="mask-type:luminance" maskUnits="userSpaceOnUse" x="40" y="29" width="294" height="210">
<path d="M332.92 39.02C331.5 33.39 326.35 29.56 320.61 29.5C318.34 29.47 316.08 29.5 313.81 29.5H54.17C53.45 29.5 52.73 29.48 52.02 29.53C45.38 29.97 40.3 35.57 40.21 42.16C40.17 45.08 40.21 48.01 40.21 50.93V219.59C40.21 222.95 39.77 226.92 40.81 230.16C42.51 235.43 47.45 238.87 52.93 238.93C53.65 238.93 54.36 238.93 55.08 238.93H320.69C327.64 238.82 333.22 233.26 333.32 226.29C333.33 225.49 333.32 224.69 333.32 223.89V43.67C333.32 42.1 333.32 40.57 332.93 39.02H332.92Z" fill="white"/>
</mask>
<g mask="url(#mask0_220_162)">
<path d="M139.18 209.86C142.96 221.08 147.93 231.98 149.58 243.69L203.06 242.56C200.6 230.69 198.58 218.63 196.42 206.57C177.42 206.51 156.88 204.28 139.18 209.86Z" fill="#ED6A4C"/>
<path d="M197.62 213.35C199.35 223.14 201.05 232.91 203.05 242.55L240 241.77C239.22 231.87 239.03 221.9 239.21 211.91C225.39 212.42 211.54 212.96 197.61 213.34L197.62 213.35Z" fill="#192441"/>
<path d="M240 241.78L297.71 240.56C298.95 231.63 299.4 222.6 299.03 213.59C298.9 210.39 298.67 207.19 298.38 203.99C278.71 204.58 259.03 205.63 239.36 206.2C238.99 218.11 239.08 229.98 240.01 241.77L240 241.78Z" fill="#ED6A4C"/>
<path d="M131.52 157.29C131.52 157.29 150.78 208.61 146.8 231.6C142.83 254.59 138.98 260.93 133.53 257.78C128.09 254.63 85.16 267.67 79.44 228.64C74.08 192.09 89.27 161.5 89.27 161.5C89.27 161.5 97 168.95 108.75 167.51C120.49 166.08 121.93 159.95 121.93 157.28C121.93 154.61 123.93 164.93 122.5 181.83C121.07 198.73 122.51 159.66 131.53 157.28L131.52 157.29Z" fill="#192441"/>
</g>
</g>
<defs>
<clipPath id="clip0_220_162">
<rect width="373.51" height="268.42" fill="white"/>
</clipPath>
</defs>
</svg>
