<?xml version="1.0" encoding="UTF-8"?>
<svg id="Capa_1" data-name="Capa 1" xmlns="http://www.w3.org/2000/svg" xmlns:xlink="http://www.w3.org/1999/xlink" viewBox="0 0 373.51 268.42">
  <defs>
    <style>
      .cls-1, .cls-2, .cls-3 {
        fill: none;
      }

      .cls-4 {
        fill: #282323;
        opacity: .1;
      }

      .cls-5 {
        filter: url(#outer-glow-10);
      }

      .cls-5, .cls-6, .cls-7, .cls-8 {
        fill: #fff;
      }

      .cls-2 {
        stroke-width: 1.42px;
      }

      .cls-2, .cls-3 {
        stroke-linecap: round;
      }

      .cls-2, .cls-3, .cls-7, .cls-8 {
        stroke-miterlimit: 10;
      }

      .cls-2, .cls-3, .cls-8 {
        stroke: #192441;
      }

      .cls-9 {
        clip-path: url(#clippath);
      }

      .cls-10 {
        fill: #f4a39b;
      }

      .cls-11 {
        fill: #f6f6f6;
      }

      .cls-12 {
        fill: #ed6a4d;
      }

      .cls-13, .cls-14 {
        fill: #ed6a4c;
      }

      .cls-15 {
        fill: #b2b2b2;
      }

      .cls-16, .cls-17 {
        fill: #34b9ca;
      }

      .cls-18 {
        fill: #192441;
      }

      .cls-19 {
        clip-path: url(#clippath-1);
      }

      .cls-3 {
        stroke-width: 1px;
      }

      .cls-7 {
        stroke: #ededed;
      }

      .cls-8 {
        stroke-width: .28px;
      }

      .cls-17, .cls-14 {
        opacity: .5;
      }
    </style>
    <clipPath id="clippath">
      <rect class="cls-1" x="40.71" y="34.84" width="292.1" height="208.42" rx="12.13" ry="12.13"/>
    </clipPath>
    <clipPath id="clippath-1">
      <rect class="cls-1" x="228.64" y="78.85" width="67.3" height="136.17" rx="12.22" ry="12.22" transform="translate(-15.54 32.07) rotate(-6.8)"/>
    </clipPath>
    <filter id="outer-glow-10" filterUnits="userSpaceOnUse">
      <feOffset dx="0" dy="0"/>
      <feGaussianBlur result="blur" stdDeviation="2"/>
      <feFlood flood-color="#1d1d1b" flood-opacity=".5"/>
      <feComposite in2="blur" operator="in"/>
      <feComposite in="SourceGraphic"/>
    </filter>
  </defs>
  <rect class="cls-17" x="40.71" y="34.84" width="292.1" height="208.42" rx="12.13" ry="12.13"/>
  <g>
    <path class="cls-18" d="m282.83,14.83H25.47c-10.12,0-18.32,8.2-18.32,18.32v46.5c0,10.12,8.2,18.32,18.32,18.32h12.44c-.28,5.18-1.04,13.01-3.13,19.41-1.04,3.18,2.25,6.04,5.28,4.63,9.58-4.43,17.84-11.78,25.95-24.04h216.81c10.12,0,18.32-8.2,18.32-18.32v-46.5c0-10.12-8.2-18.32-18.32-18.32Z"/>
    <g>
      <rect class="cls-6" x="26.2" y="34.82" width="255.89" height="8.57" rx="2.56" ry="2.56"/>
      <rect class="cls-6" x="26.2" y="51.58" width="255.89" height="8.57" rx="2.56" ry="2.56"/>
      <rect class="cls-6" x="26.2" y="68.1" width="82.18" height="8.57" rx="2.56" ry="2.56"/>
    </g>
  </g>
  <g>
    <path class="cls-12" d="m73.45,117.42h177.35c10.12,0,18.32,8.2,18.32,18.32v56.5c0,10.12-8.2,18.32-18.32,18.32h-12.44c.28,5.18,1.04,13.01,3.13,19.41,1.04,3.18-2.25,6.04-5.28,4.63-9.58-4.43-17.84-11.78-25.95-24.04H73.45c-10.12,0-18.32-8.2-18.32-18.32v-56.5c0-10.12,8.2-18.32,18.32-18.32Z"/>
    <path class="cls-6" d="m205.08,145.22c2.46,2.09,3.69,5.07,3.69,8.95,0,3.39-1.13,6.08-3.38,8.05-2.26,1.98-5.23,3-8.92,3.08l-.28,4.08h-9.67l-.34-11.13h4.03c2.54,0,4.47-.29,5.82-.86,1.34-.58,2.01-1.61,2.01-3.1,0-1.01-.27-1.8-.81-2.38-.54-.58-1.28-.87-2.21-.87-1.04,0-1.83.31-2.38.92-.54.61-.81,1.45-.81,2.49h-10.34c-.08-2.27.4-4.35,1.42-6.24,1.02-1.88,2.58-3.37,4.67-4.47,2.09-1.1,4.66-1.65,7.72-1.65,4.06,0,7.32,1.04,9.79,3.13Zm-18.31,38.06c-1.17-1.06-1.76-2.41-1.76-4.06s.59-3,1.76-4.08c1.17-1.08,2.73-1.62,4.67-1.62s3.44.54,4.61,1.62c1.17,1.08,1.76,2.44,1.76,4.08s-.59,2.95-1.76,4.03-2.71,1.62-4.61,1.62-3.5-.53-4.67-1.6Z"/>
    <path class="cls-6" d="m155.08,145.22c2.46,2.09,3.69,5.07,3.69,8.95,0,3.39-1.13,6.08-3.38,8.05-2.26,1.98-5.23,3-8.92,3.08l-.28,4.08h-9.67l-.34-11.13h4.03c2.54,0,4.47-.29,5.82-.86,1.34-.58,2.01-1.61,2.01-3.1,0-1.01-.27-1.8-.81-2.38-.54-.58-1.28-.87-2.21-.87-1.04,0-1.83.31-2.38.92-.54.61-.81,1.45-.81,2.49h-10.34c-.08-2.27.4-4.35,1.42-6.24,1.02-1.88,2.58-3.37,4.67-4.47,2.09-1.1,4.66-1.65,7.72-1.65,4.06,0,7.32,1.04,9.79,3.13Zm-18.31,38.06c-1.17-1.06-1.76-2.41-1.76-4.06s.59-3,1.76-4.08c1.17-1.08,2.73-1.62,4.67-1.62s3.44.54,4.61,1.62c1.17,1.08,1.76,2.44,1.76,4.08s-.59,2.95-1.76,4.03-2.71,1.62-4.61,1.62-3.5-.53-4.67-1.6Z"/>
    <path class="cls-6" d="m105.08,145.22c2.46,2.09,3.69,5.07,3.69,8.95,0,3.39-1.13,6.08-3.38,8.05-2.26,1.98-5.23,3-8.92,3.08l-.28,4.08h-9.67l-.34-11.13h4.03c2.54,0,4.47-.29,5.82-.86,1.34-.58,2.01-1.61,2.01-3.1,0-1.01-.27-1.8-.81-2.38-.54-.58-1.28-.87-2.21-.87-1.04,0-1.83.31-2.38.92-.54.61-.81,1.45-.81,2.49h-10.34c-.08-2.27.4-4.35,1.42-6.24,1.02-1.88,2.58-3.37,4.67-4.47,2.09-1.1,4.66-1.65,7.72-1.65,4.06,0,7.32,1.04,9.79,3.13Zm-18.31,38.06c-1.17-1.06-1.76-2.41-1.76-4.06s.59-3,1.76-4.08c1.17-1.08,2.73-1.62,4.67-1.62s3.44.54,4.61,1.62c1.17,1.08,1.76,2.44,1.76,4.08s-.59,2.95-1.76,4.03-2.71,1.62-4.61,1.62-3.5-.53-4.67-1.6Z"/>
  </g>
  <g class="cls-9">
    <g>
      <path class="cls-10" d="m290.8,100.58s-1.57-8.22,6.74-9.05c8.31-.83,7.82,38.21,19.23,56.28,14.22,22.51.41,36.33,12.17,54.19,11.76,17.86,108.67,63.46,108.67,63.46l-82.76,58.01s-23.71-62.7-59.58-80.82c-35.86-18.13-36.69-7.06-59.71-53.34-23.02-46.28,55.23-88.72,55.23-88.72Z"/>
      <polygon class="cls-10" points="217.25 168.99 224.47 155.77 215.97 143.14 229.57 131.33 238.83 149.73 232.12 173.04 217.25 168.99"/>
      <polygon class="cls-10" points="238.4 174.22 222.53 187.69 230.95 192.91 241.39 188.39 238.4 174.22"/>
      <polygon class="cls-10" points="231.83 107.83 213.18 123.65 223.07 129.78 235.34 124.47 231.83 107.83"/>
      <path class="cls-4" d="m292.1,96.29s19.73,95.74,13.39,112.33c-6.34,16.59-50.34,10.14-50.34,10.14l36.96-122.47Z"/>
      <rect class="cls-15" x="226.69" y="76.46" width="71.19" height="140.94" rx="12.22" ry="12.22" transform="translate(-15.54 32.07) rotate(-6.8)"/>
      <rect class="cls-6" x="228.49" y="78.54" width="67.6" height="136.78" rx="12.22" ry="12.22" transform="translate(-15.54 32.07) rotate(-6.8)"/>
      <g>
        <g class="cls-19">
          <rect class="cls-11" x="228.64" y="78.85" width="67.3" height="136.17" rx="12.22" ry="12.22" transform="translate(-15.54 32.07) rotate(-6.8)"/>
          <rect class="cls-5" x="212.05" y="72.42" width="87.56" height="28.68" transform="translate(-8.47 30.88) rotate(-6.8)"/>
          <g>
            <g>
              <path class="cls-18" d="m239.5,90.79c-1.02.12-1.74,1.08-1.61,2.14s1.05,1.82,2.07,1.7,1.74-1.08,1.61-2.14-1.05-1.82-2.07-1.7Zm.36,2.99c-.57.07-1.09-.36-1.16-.95s.33-1.13.9-1.2,1.09.36,1.16.95-.33,1.13-.9,1.2Z"/>
              <path class="cls-18" d="m243.42,90.32c-1.02.12-1.74,1.08-1.61,2.14l.29,2.44c.03.23.23.4.46.37s.38-.24.36-.47l-.1-.85c.32.17.69.25,1.07.2,1.02-.12,1.74-1.08,1.61-2.14s-1.05-1.82-2.07-1.7Zm.36,2.99c-.48.06-.93-.23-1.1-.7-.03-.08-.05-.17-.06-.25-.07-.59.33-1.13.9-1.2s1.09.36,1.16.95-.33,1.13-.9,1.2Z"/>
              <path class="cls-18" d="m247.4,89.85c-1.02.12-1.74,1.08-1.61,2.14l.29,2.44c.03.23.23.4.46.37s.38-.24.36-.47l-.1-.85c.32.17.69.25,1.07.2,1.02-.12,1.74-1.08,1.61-2.14s-1.05-1.82-2.07-1.7Zm.36,2.99c-.48.06-.93-.23-1.1-.7-.03-.08-.05-.17-.06-.25-.07-.59.33-1.13.9-1.2s1.09.36,1.16.95-.33,1.13-.9,1.2Z"/>
              <path class="cls-18" d="m251.8,89.75c-.03-.23-.23-.4-.46-.37-1.02.12-1.74,1.08-1.61,2.14l.18,1.49c.03.23.23.4.46.37s.38-.24.36-.47l-.18-1.49c-.07-.59.33-1.13.9-1.2.22-.03.38-.24.36-.47Z"/>
              <ellipse class="cls-13" cx="252.49" cy="92.63" rx=".49" ry=".51" transform="translate(-9.19 30.53) rotate(-6.8)"/>
            </g>
            <g>
              <g>
                <path class="cls-16" d="m234.76,90.44c.08.27.07.58-.06.85-.16.35-.48.58-.85.63,0,0,0,0,0,0,.38.36.63.85.69,1.39.15,1.22-.69,2.33-1.86,2.47-.81.1-1.57-.29-2.01-.94l.24,2.03c.01.11.01.23,0,.33.6.28,1.28.4,1.98.31,2.1-.25,3.59-2.23,3.33-4.41-.13-1.06-.65-2.02-1.45-2.67Z"/>
                <path class="cls-16" d="m232.15,91.35c.41-.05.83.03,1.2.22h0c.42.22.92.04,1.13-.39.2-.43.03-.96-.39-1.18,0,0,0,0,0,0-.67-.34-1.41-.48-2.15-.39-2.03.24-3.5,2.1-3.35,4.2h0s.02.2.02.2l.37,3.08c.06.48.48.83.94.77.4-.05.7-.39.74-.79,0-.06,0-.12,0-.18l-.37-3.08c-.15-1.22.69-2.33,1.86-2.47Z"/>
              </g>
              <ellipse class="cls-13" cx="232.41" cy="93.56" rx="1.38" ry="1.44" transform="translate(-9.44 28.16) rotate(-6.8)"/>
            </g>
          </g>
          <g>
            <line class="cls-3" x1="277.13" y1="85.27" x2="284.31" y2="84.42"/>
            <line class="cls-3" x1="277.48" y1="88.19" x2="284.66" y2="87.34"/>
            <line class="cls-3" x1="277.83" y1="91.11" x2="285" y2="90.25"/>
          </g>
        </g>
        <g>
          <rect class="cls-18" x="234.35" y="170.74" width="6.1" height="8.37" rx="2" ry="2" transform="translate(-19.03 29.32) rotate(-6.8)"/>
          <rect class="cls-18" x="241.31" y="169.91" width="6.1" height="8.37" rx="2" ry="2" transform="translate(-18.88 30.14) rotate(-6.8)"/>
          <rect class="cls-18" x="248.26" y="169.08" width="6.1" height="8.37" rx="2" ry="2" transform="translate(-18.74 30.95) rotate(-6.8)"/>
          <rect class="cls-18" x="255.22" y="168.25" width="6.1" height="8.37" rx="2" ry="2" transform="translate(-18.59 31.77) rotate(-6.8)"/>
          <rect class="cls-18" x="262.18" y="167.42" width="6.1" height="8.37" rx="2" ry="2" transform="translate(-18.44 32.59) rotate(-6.8)"/>
          <rect class="cls-18" x="269.14" y="166.59" width="6.1" height="8.37" rx="2" ry="2" transform="translate(-18.3 33.41) rotate(-6.8)"/>
          <rect class="cls-18" x="276.1" y="165.76" width="6.1" height="8.37" rx="2" ry="2" transform="translate(-18.15 34.22) rotate(-6.8)"/>
          <rect class="cls-18" x="283.06" y="164.93" width="6.1" height="8.37" rx="2" ry="2" transform="translate(-18 35.04) rotate(-6.8)"/>
          <rect class="cls-18" x="290.01" y="164.11" width="6.1" height="8.37" rx="2" ry="2" transform="translate(-17.85 35.86) rotate(-6.8)"/>
          <rect class="cls-18" x="235.55" y="180.53" width="6.1" height="8.37" rx="2" ry="2" transform="translate(-20.18 29.53) rotate(-6.8)"/>
          <rect class="cls-18" x="242.51" y="179.7" width="6.1" height="8.37" rx="2" ry="2" transform="translate(-20.03 30.35) rotate(-6.8)"/>
          <rect class="cls-18" x="249.46" y="178.87" width="6.1" height="8.37" rx="2" ry="2" transform="translate(-19.89 31.17) rotate(-6.8)"/>
          <rect class="cls-18" x="256.42" y="178.04" width="6.1" height="8.37" rx="2" ry="2" transform="translate(-19.74 31.98) rotate(-6.8)"/>
          <rect class="cls-18" x="263.38" y="177.21" width="6.1" height="8.37" rx="2" ry="2" transform="translate(-19.59 32.8) rotate(-6.8)"/>
          <rect class="cls-18" x="270.34" y="176.38" width="6.1" height="8.37" rx="2" ry="2" transform="translate(-19.45 33.62) rotate(-6.8)"/>
          <rect class="cls-18" x="277.3" y="175.55" width="6.1" height="8.37" rx="2" ry="2" transform="translate(-19.3 34.44) rotate(-6.8)"/>
          <rect class="cls-18" x="284.26" y="174.72" width="6.1" height="8.37" rx="2" ry="2" transform="translate(-19.15 35.25) rotate(-6.8)"/>
          <rect class="cls-18" x="291.21" y="173.89" width="6.1" height="8.37" rx="2" ry="2" transform="translate(-19 36.07) rotate(-6.8)"/>
          <rect class="cls-18" x="236.71" y="190.32" width="6.1" height="8.37" rx="2" ry="2" transform="translate(-21.33 29.74) rotate(-6.8)"/>
          <rect class="cls-18" x="243.67" y="189.49" width="6.1" height="8.37" rx="2" ry="2" transform="translate(-21.18 30.55) rotate(-6.8)"/>
          <rect class="cls-18" x="250.63" y="188.66" width="6.1" height="8.37" rx="2" ry="2" transform="translate(-21.04 31.37) rotate(-6.8)"/>
          <rect class="cls-18" x="257.59" y="187.83" width="6.1" height="8.37" rx="2" ry="2" transform="translate(-20.89 32.19) rotate(-6.8)"/>
          <rect class="cls-18" x="264.55" y="187" width="6.1" height="8.37" rx="2" ry="2" transform="translate(-20.74 33.01) rotate(-6.8)"/>
          <rect class="cls-18" x="271.51" y="186.17" width="6.1" height="8.37" rx="2" ry="2" transform="translate(-20.6 33.82) rotate(-6.8)"/>
          <rect class="cls-18" x="278.46" y="185.34" width="6.1" height="8.37" rx="2" ry="2" transform="translate(-20.45 34.64) rotate(-6.8)"/>
          <rect class="cls-18" x="285.42" y="184.52" width="6.1" height="8.37" rx="2" ry="2" transform="translate(-20.3 35.46) rotate(-6.8)"/>
          <rect class="cls-18" x="292.38" y="183.69" width="6.1" height="8.37" rx="2" ry="2" transform="translate(-20.15 36.28) rotate(-6.8)"/>
          <rect class="cls-18" x="237.82" y="199.7" width="13.1" height="8.37" rx="2" ry="2" transform="translate(-22.41 30.35) rotate(-6.8)"/>
          <rect class="cls-18" x="251.76" y="198.46" width="6.1" height="8.37" rx="2" ry="2" transform="translate(-22.19 31.58) rotate(-6.8)"/>
          <rect class="cls-18" x="258.65" y="196.38" width="27.15" height="8.37" rx="2" ry="2" transform="translate(-21.82 33.62) rotate(-6.8)"/>
          <rect class="cls-18" x="286.56" y="194.31" width="6.1" height="8.37" rx="2" ry="2" transform="translate(-21.45 35.66) rotate(-6.8)"/>
          <rect class="cls-18" x="293.51" y="193.48" width="6.1" height="8.37" rx="2" ry="2" transform="translate(-21.31 36.48) rotate(-6.8)"/>
        </g>
        <rect class="cls-7" x="231.91" y="141.63" width="62.12" height="21.73" rx="2" ry="2" transform="translate(-16.2 32.19) rotate(-6.8)"/>
        <line class="cls-8" x1="233.61" y1="147.75" x2="234.28" y2="153.41"/>
        <line class="cls-2" x1="258.52" y1="212.53" x2="281.36" y2="209.81"/>
        <path class="cls-14" d="m286.82,120.31l-49.86,5.94c-1.96.23-3.36,2.01-3.12,3.97l.48,3.99c.23,1.96,2.01,3.36,3.97,3.12l44.75-5.33c.64.82,2.05,2.09,3.97,2.74.23.08.44-.18.3-.38-.34-.51-.69-1.4-.6-2.8l1.45-.17c1.96-.23,3.36-2.01,3.12-3.97l-.48-3.99c-.23-1.96-2.01-3.36-3.97-3.12Z"/>
      </g>
      <path class="cls-10" d="m235.77,192.33c.51,4.28-2.55,8.17-6.83,8.68-4.28.51-8.17-2.55-8.68-6.83-.3-2.49.61-4.85,2.27-6.49,1.19-1.18,2.77-1.98,4.56-2.19,4.28-.51,8.17,2.55,8.68,6.83Z"/>
      <circle class="cls-10" cx="225.7" cy="173.81" r="9.73"/>
      <circle class="cls-10" cx="222.19" cy="151.71" r="10.6"/>
      <path class="cls-10" d="m228.74,129.1c.6,5.03-2.99,9.6-8.03,10.2s-9.6-2.99-10.2-8.03c-.35-2.93.72-5.7,2.67-7.62,1.4-1.38,3.25-2.33,5.36-2.58,5.03-.6,9.6,2.99,10.2,8.03Z"/>
    </g>
  </g>
</svg>