<?xml version="1.0" encoding="UTF-8"?><svg id="Laag_1" xmlns="http://www.w3.org/2000/svg" xmlns:xlink="http://www.w3.org/1999/xlink" viewBox="0 0 1444 1104"><defs><style>.cls-1{stroke-width:1.24px;}.cls-1,.cls-2,.cls-3,.cls-4,.cls-5,.cls-6,.cls-7,.cls-8,.cls-9,.cls-10,.cls-11{stroke:#1a1a1a;}.cls-1,.cls-2,.cls-3,.cls-4,.cls-10,.cls-11{stroke-miterlimit:10;}.cls-1,.cls-4,.cls-5,.cls-12{fill:#ed6a4c;}.cls-13{fill:#282323;opacity:.1;}.cls-13,.cls-14{isolation:isolate;}.cls-13,.cls-14,.cls-15,.cls-16,.cls-17,.cls-18,.cls-19,.cls-20,.cls-21,.cls-22,.cls-23,.cls-24,.cls-25,.cls-26,.cls-27,.cls-28,.cls-29,.cls-30,.cls-12,.cls-31{stroke-width:0px;}.cls-32{letter-spacing:-.03em;}.cls-33{letter-spacing:-.03em;}.cls-34{stroke-linecap:round;}.cls-34,.cls-35{stroke:#fff;stroke-linejoin:round;stroke-width:1.86px;}.cls-34,.cls-35,.cls-36{fill:none;}.cls-37{letter-spacing:-.03em;}.cls-38{letter-spacing:0em;}.cls-39{letter-spacing:-.01em;}.cls-14{opacity:.2;}.cls-14,.cls-20{fill:#f6f6f6;}.cls-40{letter-spacing:0em;}.cls-41{letter-spacing:-.02em;}.cls-42{filter:url(#drop-shadow-1);}.cls-15{opacity:.1;}.cls-15,.cls-3,.cls-6,.cls-11{fill:#f2f2f2;}.cls-43{letter-spacing:-.01em;}.cls-44{letter-spacing:-.07em;}.cls-2,.cls-9,.cls-17,.cls-18,.cls-45,.cls-29{fill:#fff;}.cls-46{letter-spacing:-.01em;}.cls-47{letter-spacing:-.03em;}.cls-48{letter-spacing:0em;}.cls-4{stroke-width:.84px;}.cls-49{letter-spacing:-.03em;}.cls-50{letter-spacing:0em;}.cls-5{stroke-width:1.05px;}.cls-7,.cls-8,.cls-21{fill:#1a1a1a;}.cls-8{stroke-width:1.25px;}.cls-51{letter-spacing:0em;}.cls-52{font-family:SpaceGrotesk-Medium, 'Space Grotesk';font-weight:500;}.cls-52,.cls-53,.cls-45{font-size:7.43px;}.cls-52,.cls-53,.cls-28{fill:#333;}.cls-54{letter-spacing:-.01em;}.cls-55{letter-spacing:-.01em;}.cls-9{stroke-width:.96px;}.cls-36{stroke:#000;}.cls-17{filter:url(#drop-shadow-3);}.cls-18{filter:url(#drop-shadow-4);}.cls-56{letter-spacing:0em;}.cls-53,.cls-45{font-family:SpaceGrotesk-Bold, 'Space Grotesk';font-weight:700;}.cls-10,.cls-31{fill:#02c5d1;}.cls-10,.cls-11{stroke-width:.75px;}.cls-57{letter-spacing:-.03em;}.cls-19{fill:#f4a39b;}.cls-22{fill:#192441;}.cls-23{fill:#34b9ca;}.cls-24{fill:#1d1d1b;}.cls-25{fill:#414a5e;}.cls-26{fill:#dadada;}.cls-27{fill:#9d9d9c;}.cls-30{fill:#ededed;}.cls-58{letter-spacing:-.02em;}.cls-59{letter-spacing:-.03em;}</style><filter id="drop-shadow-1" filterUnits="userSpaceOnUse"><feOffset dx="7" dy="7"/><feGaussianBlur result="blur" stdDeviation="5"/><feFlood flood-color="#000" flood-opacity=".25"/><feComposite in2="blur" operator="in"/><feComposite in="SourceGraphic"/></filter><filter id="drop-shadow-3" filterUnits="userSpaceOnUse"><feOffset dx="13.01" dy="13.01"/><feGaussianBlur result="blur-2" stdDeviation="9.29"/><feFlood flood-color="#000" flood-opacity=".4"/><feComposite in2="blur-2" operator="in"/><feComposite in="SourceGraphic"/></filter><filter id="drop-shadow-4" filterUnits="userSpaceOnUse"><feOffset dx="13.01" dy="13.01"/><feGaussianBlur result="blur-3" stdDeviation="9.29"/><feFlood flood-color="#000" flood-opacity=".4"/><feComposite in2="blur-3" operator="in"/><feComposite in="SourceGraphic"/></filter></defs><path class="cls-11" d="m1046.98,362.82l33.28,12.15c2.15.79,3.27,3.16,2.5,5.31l-6.31,17.82c-1.6,4.52,4.43,7.73,7.29,3.88l20.33-27.44c1.58-2.14.79-5.19-1.63-6.29l-46.28-21c-1.77-.8-3.85-.28-5.03,1.26l-6.03,7.84c-1.72,2.24-.77,5.5,1.88,6.46Z"/><ellipse class="cls-15" cx="127" cy="1069" rx="118" ry="10"/><rect class="cls-7" x="1079.5" y="891.5" width="16" height="94" rx="1.97" ry="1.97"/><rect class="cls-7" x="1314.5" y="890.5" width="16" height="94" rx="1.97" ry="1.97"/><rect class="cls-7" x="845" y="891" width="16" height="94" rx="1.97" ry="1.97"/><path class="cls-6" d="m1346.5,797.5h-549c-26.95,0-49,22.05-49,49h0c0,26.95,22.05,49,49,49h549c26.95,0,49-22.05,49-49h0c0-26.95-22.05-49-49-49Zm40,49.26c0,22.62-18.51,41.13-41.13,41.13h-546.73c-22.62,0-41.13-18.51-41.13-41.13v-.13c0-22.62,18.51-41.13,41.13-41.13h546.73c22.62,0,41.13,18.51,41.13,41.13v.13Z"/><path class="cls-8" d="m794.58,616.65l26.94,11.04c1.2.49,1.98,1.66,1.98,2.96v261.16c0,1.76-1.43,3.19-3.19,3.19h-36.23c-1.76,0-3.19-1.43-3.19-3.19v-272.2c0-1.76,1.43-3.19,3.19-3.19h9.29c.42,0,.83.08,1.21.24Z"/><rect class="cls-8" x="322.5" y="850.5" width="426" height="135" rx="4" ry="4"/><rect class="cls-11" x="1028.5" y="106.5" width="20" height="42"/><rect class="cls-3" x="979" y="76" width="120" height="34" rx="4" ry="4"/><rect class="cls-21" x="241" y="35" width="1150" height="25" rx="4" ry="4"/><rect class="cls-12" x="957" y="2" width="162" height="91" rx="5" ry="5"/><rect class="cls-11" x="1028.5" y="145.5" width="20" height="42"/><rect class="cls-11" x="1028.5" y="183.5" width="20" height="42"/><rect class="cls-11" x="1028.5" y="222.5" width="20" height="42"/><rect class="cls-11" x="1028.5" y="260.5" width="20" height="42"/><rect class="cls-11" x="1028.5" y="299.5" width="20" height="42"/><rect class="cls-4" x="1001.3" y="388.5" width="74" height="59" rx="2.24" ry="2.24"/><path class="cls-11" d="m1029.67,363.93l-33.28,12.15c-2.15.79-3.27,3.16-2.5,5.31l6.31,17.82c1.6,4.52-4.43,7.73-7.29,3.88l-20.33-27.44c-1.58-2.14-.79-5.19,1.63-6.29l46.28-21c1.77-.8,3.85-.28,5.03,1.26l6.03,7.84c1.72,2.24.77,5.5-1.88,6.46Z"/><circle class="cls-10" cx="1039" cy="347" r="15.5"/><line class="cls-2" x1="977.44" y1="222.5" x2="917.44" y2="222.5"/><line class="cls-2" x1="977" y1="188" x2="827" y2="188"/><line class="cls-2" x1="977" y1="154" x2="727" y2="154"/><rect class="cls-31" x="267" y="495" width="527" height="403" rx="8" ry="8"/><rect class="cls-29" x="438.5" y="565.5" width="296" height="198" rx="6" ry="6"/><path class="cls-36" d="m487.5,733.5l13.37-53.49c1.59-6.36,10.54-6.61,12.48-.34l2.99,9.66c1.71,5.55,9.3,6.21,11.95,1.05l35.56-69.09c2.88-5.6,11.25-4.21,12.17,2.02l3.64,24.58c.9,6.09,8.98,7.61,12.04,2.27l22.6-39.54c2.92-5.1,10.57-4,11.93,1.71l20.76,87.17c1.54,6.46,10.65,6.7,12.52.32l25.63-87.32"/><rect class="cls-29" x="322.5" y="797.5" width="60" height="30" rx="2.18" ry="2.18"/><rect class="cls-29" x="322.5" y="848.5" width="60" height="30" rx="2.18" ry="2.18"/><rect class="cls-29" x="403.5" y="797.5" width="60" height="30" rx="2.18" ry="2.18"/><rect class="cls-29" x="403.5" y="848.5" width="60" height="30" rx="2.18" ry="2.18"/><rect class="cls-29" x="484.5" y="797.5" width="60" height="30" rx="2.18" ry="2.18"/><rect class="cls-29" x="484.5" y="848.5" width="60" height="30" rx="2.18" ry="2.18"/><rect class="cls-9" x="619" y="798" width="15" height="80" rx="2" ry="2"/><rect class="cls-9" x="677.5" y="797.5" width="15" height="80" rx="2" ry="2"/><rect class="cls-5" x="671.5" y="856.5" width="28" height="8" rx="3.74" ry="3.74"/><rect class="cls-5" x="612.5" y="829.5" width="28" height="8" rx="3.74" ry="3.74"/><circle class="cls-21" cx="1340.5" cy="849.5" r="7.5"/><circle class="cls-21" cx="1145.5" cy="846.5" r="7.5"/><circle class="cls-21" cx="980.5" cy="846.5" r="7.5"/><rect class="cls-30" x="323" y="567.06" width="75.45" height="108.69" rx="5.29" ry="5.29"/><rect class="cls-29" x="327.29" y="570.97" width="66.87" height="66.87" rx="2.53" ry="2.53"/><rect class="cls-24" x="330.69" y="574.37" width="2.4" height="14.42"/><rect class="cls-24" x="330.69" y="588.78" width="2.4" height="2.4"/><rect class="cls-24" x="330.69" y="593.59" width="2.4" height="7.21"/><rect class="cls-24" x="330.69" y="608" width="2.4" height="2.4"/><rect class="cls-24" x="330.69" y="612.81" width="2.4" height="2.4"/><rect class="cls-24" x="330.69" y="617.61" width="2.4" height="4.81"/><rect class="cls-24" x="330.69" y="622.42" width="2.4" height="7.21"/><rect class="cls-24" x="330.69" y="629.63" width="2.4" height="4.81"/><rect class="cls-24" x="333.09" y="574.37" width="2.4" height="2.4"/><rect class="cls-24" x="333.09" y="588.78" width="2.4" height="2.4"/><rect class="cls-24" x="333.09" y="600.8" width="2.4" height="2.4"/><rect class="cls-24" x="333.09" y="610.4" width="2.4" height="2.4"/><rect class="cls-24" x="333.09" y="617.61" width="2.4" height="2.4"/><rect class="cls-24" x="333.09" y="632.03" width="2.4" height="2.4"/><rect class="cls-24" x="335.5" y="574.37" width="2.4" height="2.4"/><rect class="cls-24" x="335.5" y="579.17" width="2.4" height="7.21"/><rect class="cls-24" x="335.5" y="588.78" width="2.4" height="2.4"/><rect class="cls-24" x="335.5" y="593.59" width="2.4" height="2.4"/><rect class="cls-24" x="335.5" y="600.8" width="2.4" height="2.4"/><rect class="cls-24" x="335.5" y="608" width="2.4" height="7.21"/><rect class="cls-24" x="335.5" y="617.61" width="2.4" height="2.4"/><rect class="cls-24" x="335.5" y="622.42" width="2.4" height="7.21"/><rect class="cls-24" x="335.5" y="632.03" width="2.4" height="2.4"/><rect class="cls-24" x="337.9" y="574.37" width="2.4" height="2.4"/><rect class="cls-24" x="337.9" y="579.17" width="2.4" height="7.21"/><rect class="cls-24" x="337.9" y="588.78" width="2.4" height="2.4"/><rect class="cls-24" x="337.9" y="598.39" width="2.4" height="2.4"/><rect class="cls-24" x="337.9" y="603.2" width="2.4" height="4.81"/><rect class="cls-24" x="337.9" y="610.4" width="2.4" height="4.81"/><rect class="cls-24" x="337.9" y="617.61" width="2.4" height="2.4"/><rect class="cls-24" x="337.9" y="622.42" width="2.4" height="7.21"/><rect class="cls-24" x="337.9" y="632.03" width="2.4" height="2.4"/><rect class="cls-24" x="340.3" y="574.37" width="2.4" height="2.4"/><rect class="cls-24" x="340.3" y="579.17" width="2.4" height="7.21"/><rect class="cls-24" x="340.3" y="588.78" width="2.4" height="2.4"/><rect class="cls-24" x="340.3" y="593.59" width="2.4" height="2.4"/><rect class="cls-24" x="340.3" y="598.39" width="2.4" height="2.4"/><rect class="cls-24" x="340.3" y="600.8" width="2.4" height="2.4"/><rect class="cls-24" x="340.3" y="612.81" width="2.4" height="2.4"/><rect class="cls-24" x="340.3" y="617.61" width="2.4" height="2.4"/><rect class="cls-24" x="340.3" y="622.42" width="2.4" height="7.21"/><rect class="cls-24" x="340.3" y="632.03" width="2.4" height="2.4"/><rect class="cls-24" x="342.71" y="574.37" width="2.4" height="2.4"/><rect class="cls-24" x="342.71" y="588.78" width="2.4" height="2.4"/><rect class="cls-24" x="342.71" y="595.99" width="2.4" height="2.4"/><rect class="cls-24" x="342.71" y="603.2" width="2.4" height="2.4"/><rect class="cls-24" x="342.71" y="608" width="2.4" height="2.4"/><rect class="cls-24" x="342.71" y="612.81" width="2.4" height="2.4"/><rect class="cls-24" x="342.71" y="617.61" width="2.4" height="2.4"/><rect class="cls-24" x="342.71" y="632.03" width="2.4" height="2.4"/><rect class="cls-24" x="345.11" y="574.37" width="2.4" height="14.42"/><rect class="cls-24" x="345.11" y="588.78" width="2.4" height="2.4"/><rect class="cls-24" x="345.11" y="593.59" width="2.4" height="2.4"/><rect class="cls-24" x="345.11" y="598.39" width="2.4" height="2.4"/><rect class="cls-24" x="345.11" y="603.2" width="2.4" height="2.4"/><rect class="cls-24" x="345.11" y="608" width="2.4" height="2.4"/><rect class="cls-24" x="345.11" y="612.81" width="2.4" height="2.4"/><rect class="cls-24" x="345.11" y="617.61" width="2.4" height="4.81"/><rect class="cls-24" x="345.11" y="622.42" width="2.4" height="7.21"/><rect class="cls-24" x="345.11" y="629.63" width="2.4" height="4.81"/><rect class="cls-24" x="347.51" y="600.8" width="2.4" height="2.4"/><rect class="cls-24" x="347.51" y="608" width="2.4" height="2.4"/><rect class="cls-24" x="349.92" y="576.77" width="2.4" height="2.4"/><rect class="cls-24" x="349.92" y="583.97" width="2.4" height="2.4"/><rect class="cls-24" x="349.92" y="588.78" width="2.4" height="2.4"/><rect class="cls-24" x="349.92" y="595.99" width="2.4" height="4.81"/><rect class="cls-24" x="349.92" y="603.2" width="2.4" height="2.4"/><rect class="cls-24" x="349.92" y="608" width="2.4" height="4.81"/><rect class="cls-24" x="349.92" y="615.21" width="2.4" height="2.4"/><rect class="cls-24" x="349.92" y="622.42" width="2.4" height="2.4"/><rect class="cls-24" x="349.92" y="627.23" width="2.4" height="2.4"/><rect class="cls-24" x="349.92" y="632.03" width="2.4" height="2.4"/><rect class="cls-24" x="352.32" y="574.37" width="2.4" height="2.4"/><rect class="cls-24" x="352.32" y="581.57" width="2.4" height="2.4"/><rect class="cls-24" x="352.32" y="595.99" width="2.4" height="4.81"/><rect class="cls-24" x="352.32" y="600.8" width="2.4" height="14.42"/><rect class="cls-24" x="352.32" y="615.21" width="2.4" height="2.4"/><rect class="cls-24" x="352.32" y="629.63" width="2.4" height="2.4"/><rect class="cls-24" x="354.72" y="574.37" width="2.4" height="2.4"/><rect class="cls-24" x="354.72" y="579.17" width="2.4" height="9.61"/><rect class="cls-24" x="354.72" y="588.78" width="2.4" height="9.61"/><rect class="cls-24" x="354.72" y="605.6" width="2.4" height="4.81"/><rect class="cls-24" x="354.72" y="617.61" width="2.4" height="4.81"/><rect class="cls-24" x="354.72" y="622.42" width="2.4" height="2.4"/><rect class="cls-24" x="357.13" y="576.77" width="2.4" height="7.21"/><rect class="cls-24" x="357.13" y="586.38" width="2.4" height="2.4"/><rect class="cls-24" x="357.13" y="591.18" width="2.4" height="7.21"/><rect class="cls-24" x="357.13" y="600.8" width="2.4" height="2.4"/><rect class="cls-24" x="357.13" y="605.6" width="2.4" height="4.81"/><rect class="cls-24" x="357.13" y="612.81" width="2.4" height="2.4"/><rect class="cls-24" x="357.13" y="615.21" width="2.4" height="2.4"/><rect class="cls-24" x="357.13" y="620.02" width="2.4" height="2.4"/><rect class="cls-24" x="357.13" y="624.82" width="2.4" height="4.81"/><rect class="cls-24" x="357.13" y="632.03" width="2.4" height="2.4"/><rect class="cls-24" x="359.52" y="586.38" width="2.4" height="2.4"/><rect class="cls-24" x="359.52" y="588.78" width="2.4" height="2.4"/><rect class="cls-24" x="359.52" y="593.59" width="2.4" height="7.21"/><rect class="cls-24" x="359.52" y="603.2" width="2.4" height="9.61"/><rect class="cls-24" x="359.52" y="622.42" width="2.4" height="7.21"/><rect class="cls-24" x="359.52" y="629.63" width="2.4" height="2.4"/><rect class="cls-24" x="361.93" y="576.77" width="2.4" height="2.4"/><rect class="cls-24" x="361.93" y="583.97" width="2.4" height="4.81"/><rect class="cls-24" x="361.93" y="591.18" width="2.4" height="4.81"/><rect class="cls-24" x="361.93" y="598.39" width="2.4" height="2.4"/><rect class="cls-24" x="361.93" y="600.8" width="2.4" height="2.4"/><rect class="cls-24" x="361.93" y="610.4" width="2.4" height="2.4"/><rect class="cls-24" x="361.93" y="617.61" width="2.4" height="2.4"/><rect class="cls-24" x="361.93" y="624.82" width="2.4" height="2.4"/><rect class="cls-24" x="361.93" y="629.63" width="2.4" height="2.4"/><rect class="cls-24" x="364.33" y="574.37" width="2.4" height="2.4"/><rect class="cls-24" x="364.33" y="581.57" width="2.4" height="4.81"/><rect class="cls-24" x="364.33" y="588.78" width="2.4" height="7.21"/><rect class="cls-24" x="364.33" y="600.8" width="2.4" height="4.81"/><rect class="cls-24" x="364.33" y="610.4" width="2.4" height="4.81"/><rect class="cls-24" x="364.33" y="627.23" width="2.4" height="2.4"/><rect class="cls-24" x="364.33" y="629.63" width="2.4" height="4.81"/><rect class="cls-24" x="366.73" y="574.37" width="2.4" height="7.21"/><rect class="cls-24" x="366.73" y="583.97" width="2.4" height="4.81"/><rect class="cls-24" x="366.73" y="600.8" width="2.4" height="2.4"/><rect class="cls-24" x="366.73" y="610.4" width="2.4" height="2.4"/><rect class="cls-24" x="366.73" y="617.61" width="2.4" height="2.4"/><rect class="cls-24" x="366.73" y="627.23" width="2.4" height="2.4"/><rect class="cls-24" x="366.73" y="629.63" width="2.4" height="4.81"/><rect class="cls-24" x="369.14" y="583.97" width="2.4" height="2.4"/><rect class="cls-24" x="369.14" y="588.78" width="2.4" height="2.4"/><rect class="cls-24" x="369.14" y="595.99" width="2.4" height="4.81"/><rect class="cls-24" x="369.14" y="605.6" width="2.4" height="4.81"/><rect class="cls-24" x="369.14" y="612.81" width="2.4" height="2.4"/><rect class="cls-24" x="369.14" y="615.21" width="2.4" height="7.21"/><rect class="cls-24" x="369.14" y="622.42" width="2.4" height="4.81"/><rect class="cls-24" x="369.14" y="629.63" width="2.4" height="4.81"/><rect class="cls-24" x="371.54" y="598.39" width="2.4" height="2.4"/><rect class="cls-24" x="371.54" y="603.2" width="2.4" height="2.4"/><rect class="cls-24" x="371.54" y="608" width="2.4" height="2.4"/><rect class="cls-24" x="371.54" y="612.81" width="2.4" height="2.4"/><rect class="cls-24" x="371.54" y="622.42" width="2.4" height="4.81"/><rect class="cls-24" x="373.94" y="574.37" width="2.4" height="14.42"/><rect class="cls-24" x="373.94" y="588.78" width="2.4" height="2.4"/><rect class="cls-24" x="373.94" y="595.99" width="2.4" height="4.81"/><rect class="cls-24" x="373.94" y="600.8" width="2.4" height="14.42"/><rect class="cls-24" x="373.94" y="617.61" width="2.4" height="2.4"/><rect class="cls-24" x="373.94" y="622.42" width="2.4" height="2.4"/><rect class="cls-24" x="373.94" y="629.63" width="2.4" height="2.4"/><rect class="cls-24" x="376.35" y="574.37" width="2.4" height="2.4"/><rect class="cls-24" x="376.35" y="588.78" width="2.4" height="2.4"/><rect class="cls-24" x="376.35" y="598.39" width="2.4" height="2.4"/><rect class="cls-24" x="376.35" y="603.2" width="2.4" height="2.4"/><rect class="cls-24" x="376.35" y="608" width="2.4" height="2.4"/><rect class="cls-24" x="376.35" y="612.81" width="2.4" height="2.4"/><rect class="cls-24" x="376.35" y="622.42" width="2.4" height="4.81"/><rect class="cls-24" x="376.35" y="632.03" width="2.4" height="2.4"/><rect class="cls-24" x="378.75" y="574.37" width="2.4" height="2.4"/><rect class="cls-24" x="378.75" y="579.17" width="2.4" height="7.21"/><rect class="cls-24" x="378.75" y="588.78" width="2.4" height="2.4"/><rect class="cls-24" x="378.75" y="593.59" width="2.4" height="2.4"/><rect class="cls-24" x="378.75" y="610.4" width="2.4" height="4.81"/><rect class="cls-24" x="378.75" y="615.21" width="2.4" height="7.21"/><rect class="cls-24" x="378.75" y="622.42" width="2.4" height="7.21"/><rect class="cls-24" x="378.75" y="629.63" width="2.4" height="2.4"/><rect class="cls-24" x="381.15" y="574.37" width="2.4" height="2.4"/><rect class="cls-24" x="381.15" y="579.17" width="2.4" height="7.21"/><rect class="cls-24" x="381.15" y="588.78" width="2.4" height="2.4"/><rect class="cls-24" x="381.15" y="603.2" width="2.4" height="4.81"/><rect class="cls-24" x="381.15" y="612.81" width="2.4" height="2.4"/><rect class="cls-24" x="381.15" y="615.21" width="2.4" height="7.21"/><rect class="cls-24" x="381.15" y="622.42" width="2.4" height="4.81"/><rect class="cls-24" x="381.15" y="629.63" width="2.4" height="2.4"/><rect class="cls-24" x="383.56" y="574.37" width="2.4" height="2.4"/><rect class="cls-24" x="383.56" y="579.17" width="2.4" height="7.21"/><rect class="cls-24" x="383.56" y="588.78" width="2.4" height="2.4"/><rect class="cls-24" x="383.56" y="598.39" width="2.4" height="2.4"/><rect class="cls-24" x="383.56" y="608" width="2.4" height="2.4"/><rect class="cls-24" x="383.56" y="624.82" width="2.4" height="2.4"/><rect class="cls-24" x="385.96" y="574.37" width="2.4" height="2.4"/><rect class="cls-24" x="385.96" y="588.78" width="2.4" height="2.4"/><rect class="cls-24" x="385.96" y="593.59" width="2.4" height="2.4"/><rect class="cls-24" x="385.96" y="598.39" width="2.4" height="2.4"/><rect class="cls-24" x="385.96" y="600.8" width="2.4" height="4.81"/><rect class="cls-24" x="385.96" y="608" width="2.4" height="4.81"/><rect class="cls-24" x="385.96" y="615.21" width="2.4" height="4.81"/><rect class="cls-24" x="385.96" y="622.42" width="2.4" height="2.4"/><rect class="cls-24" x="385.96" y="629.63" width="2.4" height="4.81"/><rect class="cls-24" x="388.35" y="574.37" width="2.4" height="14.42"/><rect class="cls-24" x="388.35" y="588.78" width="2.4" height="2.4"/><rect class="cls-24" x="388.35" y="595.99" width="2.4" height="4.81"/><rect class="cls-24" x="388.35" y="603.2" width="2.4" height="7.21"/><rect class="cls-24" x="388.35" y="615.21" width="2.4" height="4.81"/><rect class="cls-24" x="388.35" y="622.42" width="2.4" height="2.4"/><rect class="cls-24" x="388.35" y="627.23" width="2.4" height="2.4"/><rect class="cls-24" x="388.35" y="632.03" width="2.4" height="2.4"/><path class="cls-22" d="m329.67,653.87c-.32-.14-.56-.34-.74-.59-.18-.25-.27-.54-.28-.86h.83c.03.28.14.52.35.71s.5.29.89.29.67-.09.88-.28c.22-.19.32-.43.32-.72,0-.23-.06-.41-.19-.56s-.29-.26-.47-.33-.44-.16-.77-.24c-.4-.11-.71-.21-.95-.31-.24-.11-.44-.26-.61-.49-.17-.22-.26-.52-.26-.89,0-.33.08-.62.25-.87s.4-.45.7-.59.65-.21,1.04-.21c.56,0,1.02.14,1.38.42s.56.65.61,1.12h-.86c-.03-.23-.15-.43-.36-.61s-.5-.26-.84-.26-.59.08-.8.26c-.21.17-.31.41-.31.71,0,.22.06.4.19.53.12.14.28.24.46.32.18.08.44.15.76.25.4.11.71.22.95.32s.45.27.62.49.26.52.26.9c0,.29-.08.57-.23.83s-.38.47-.69.63-.66.24-1.07.24-.75-.07-1.07-.21h.02Z"/><path class="cls-22" d="m333.88,650.37c.2-.37.47-.65.81-.85s.74-.3,1.19-.3c.58,0,1.06.14,1.43.42s.62.67.74,1.17h-.84c-.08-.29-.24-.51-.47-.68-.23-.17-.52-.25-.86-.25-.45,0-.81.15-1.08.46-.28.31-.41.74-.41,1.31s.14,1.01.41,1.31c.28.31.64.47,1.08.47.35,0,.63-.08.86-.24s.39-.39.47-.69h.84c-.13.48-.38.87-.76,1.16-.38.29-.86.44-1.42.44-.45,0-.84-.1-1.19-.3-.35-.2-.62-.49-.81-.86s-.29-.8-.29-1.29.1-.92.29-1.28h0Z"/><path class="cls-22" d="m339.1,650.37c.2-.37.47-.65.8-.85s.72-.3,1.14-.3.77.09,1.07.27.53.4.68.67v-.86h.79v4.72h-.79v-.88c-.16.28-.38.5-.69.68s-.66.27-1.07.27-.8-.11-1.13-.31-.61-.5-.8-.87c-.2-.38-.29-.8-.29-1.28s.1-.91.29-1.27h0Zm3.48.35c-.14-.26-.34-.47-.58-.61s-.51-.21-.8-.21-.56.07-.8.21c-.24.14-.44.34-.58.6s-.22.57-.22.93.08.68.22.94c.14.27.34.47.58.61.24.14.51.21.8.21s.56-.07.8-.21.44-.35.58-.61c.14-.27.22-.58.22-.93s-.08-.67-.22-.93Z"/><path class="cls-22" d="m348.62,649.74c.35.35.53.85.53,1.5v2.78h-.77v-2.67c0-.47-.12-.83-.35-1.08s-.56-.38-.96-.38-.74.13-.98.39c-.25.26-.37.63-.37,1.13v2.61h-.78v-4.72h.78v.67c.16-.24.37-.43.63-.56.26-.14.56-.2.88-.2.57,0,1.04.17,1.4.52h0Z"/><path class="cls-22" d="m352.73,650.37c.2-.37.47-.65.8-.85.34-.2.72-.3,1.14-.3s.77.09,1.07.27.53.4.68.67v-.86h.79v4.72h-.79v-.88c-.16.28-.38.5-.69.68s-.66.27-1.07.27-.8-.11-1.13-.31-.61-.5-.8-.87c-.2-.38-.29-.8-.29-1.28s.1-.91.29-1.27h0Zm3.48.35c-.14-.26-.34-.47-.58-.61-.24-.14-.51-.21-.8-.21s-.56.07-.8.21c-.24.14-.44.34-.58.6s-.22.57-.22.93.08.68.22.94c.14.27.34.47.58.61.24.14.51.21.8.21s.56-.07.8-.21.44-.35.58-.61c.14-.27.22-.58.22-.93s-.08-.67-.22-.93Z"/><path class="cls-22" d="m362.24,649.74c.35.35.53.85.53,1.5v2.78h-.77v-2.67c0-.47-.12-.83-.35-1.08s-.56-.38-.96-.38-.74.13-.98.39c-.25.26-.37.63-.37,1.13v2.61h-.78v-4.72h.78v.67c.16-.24.37-.43.63-.56s.56-.2.88-.2c.57,0,1.04.17,1.4.52h0Z"/><path class="cls-22" d="m364.06,650.37c.2-.37.47-.65.8-.85s.72-.3,1.15-.3c.37,0,.71.08,1.02.26.32.17.56.39.72.67v-2.49h.79v6.37h-.79v-.89c-.16.28-.38.51-.69.69-.3.18-.66.27-1.07.27s-.8-.11-1.14-.31-.61-.5-.8-.87-.29-.8-.29-1.28.1-.91.29-1.27h0Zm3.48.35c-.14-.26-.34-.47-.58-.61-.24-.14-.51-.21-.8-.21s-.56.07-.8.21c-.24.14-.44.34-.58.6s-.22.57-.22.93.08.68.22.94c.14.27.34.47.58.61.24.14.51.21.8.21s.56-.07.8-.21.44-.35.58-.61c.14-.27.22-.58.22-.93s-.08-.67-.22-.93Z"/><path class="cls-22" d="m373.03,653.8c-.36-.2-.64-.49-.84-.86s-.31-.8-.31-1.28.11-.91.32-1.28.5-.65.86-.85c.36-.2.77-.3,1.22-.3s.86.1,1.22.3c.36.2.65.48.86.85s.32.8.32,1.28-.11.92-.32,1.28c-.22.37-.5.65-.87.86s-.77.3-1.22.3-.84-.1-1.2-.3h0Zm1.99-.59c.25-.14.44-.33.6-.59.15-.26.23-.59.23-.96s-.08-.7-.23-.96c-.15-.26-.35-.46-.59-.59-.24-.13-.5-.2-.78-.2s-.55.07-.79.2c-.24.13-.43.32-.57.59-.14.26-.22.59-.22.96s.07.71.21.97c.14.26.33.46.56.59s.5.2.77.2.55-.07.79-.2h0Z"/><path class="cls-22" d="m379.16,649.49c.31-.18.66-.27,1.07-.27s.8.1,1.14.3c.34.2.61.48.8.85s.29.79.29,1.27-.1.9-.29,1.28-.47.66-.8.87c-.35.21-.72.31-1.14.31s-.76-.09-1.06-.27c-.31-.18-.54-.41-.7-.68v3.11h-.78v-6.95h.78v.87c.16-.27.38-.5.69-.68h0Zm2.29,1.22c-.14-.26-.34-.47-.58-.6-.24-.14-.51-.21-.8-.21s-.56.07-.8.21-.44.35-.59.61-.22.58-.22.92.08.67.22.93.34.47.59.61c.24.14.51.21.8.21s.56-.07.8-.21.44-.35.58-.61.22-.58.22-.94-.08-.67-.22-.93h0Z"/><path class="cls-22" d="m387.78,651.96h-3.77c.03.47.19.83.48,1.09.29.26.64.39,1.05.39.34,0,.62-.08.85-.24.23-.16.38-.37.48-.63h.84c-.13.45-.38.82-.76,1.1-.38.29-.85.43-1.41.43-.45,0-.85-.1-1.2-.3-.35-.2-.63-.49-.83-.86s-.3-.8-.3-1.28.1-.92.29-1.28.47-.65.82-.85c.35-.2.76-.3,1.22-.3s.84.1,1.19.29.61.47.8.8c.19.35.28.73.28,1.16,0,.15,0,.31-.02.47h0Zm-.98-1.4c-.14-.22-.31-.38-.54-.49-.23-.11-.48-.17-.75-.17-.4,0-.74.13-1.01.38-.28.26-.44.6-.48,1.05h2.98c0-.3-.07-.56-.2-.77h0Z"/><path class="cls-22" d="m392.53,649.74c.35.35.53.85.53,1.5v2.78h-.77v-2.67c0-.47-.12-.83-.35-1.08s-.56-.38-.96-.38-.74.13-.98.39c-.25.26-.37.63-.37,1.13v2.61h-.78v-4.72h.78v.67c.16-.24.37-.43.63-.56s.56-.2.88-.2c.57,0,1.04.17,1.4.52h0Z"/><path class="cls-22" d="m329.78,660.28v2.78c0,.23.05.39.14.49s.27.14.51.14h.58v.66h-.71c-.44,0-.77-.1-.98-.3-.22-.2-.33-.53-.33-.99v-2.78h-.61v-.65h.61v-1.19h.78v1.19h1.23v.65h-1.23,0Z"/><path class="cls-22" d="m335.26,659.78c.29.15.51.38.68.68.17.3.25.68.25,1.11v2.78h-.77v-2.67c0-.47-.12-.83-.35-1.08s-.56-.38-.96-.38-.74.13-.98.39c-.25.26-.37.63-.37,1.13v2.61h-.78v-6.37h.78v2.32c.16-.24.37-.43.64-.56s.58-.2.92-.2.68.08.96.23h0Z"/><path class="cls-22" d="m341.75,662.28h-3.77c.03.47.19.83.48,1.09.29.26.64.39,1.05.39.34,0,.62-.08.85-.24.23-.16.38-.37.48-.63h.84c-.13.45-.38.82-.76,1.1-.38.29-.85.43-1.41.43-.45,0-.85-.1-1.2-.3-.35-.2-.63-.49-.83-.86s-.3-.8-.3-1.28.1-.92.29-1.28.47-.65.82-.85c.35-.2.76-.3,1.22-.3s.84.1,1.19.29.61.47.8.8c.19.35.28.73.28,1.16,0,.15,0,.31-.02.47h0Zm-.98-1.4c-.14-.22-.31-.38-.54-.49-.23-.11-.48-.17-.75-.17-.4,0-.74.13-1.01.38-.28.26-.44.6-.48,1.05h2.98c0-.3-.07-.56-.2-.77Z"/><path class="cls-22" d="m368.92,660.71c.2-.37.47-.65.8-.85s.72-.3,1.14-.3.77.09,1.07.27.53.4.68.67v-.86h.79v4.72h-.79v-.88c-.16.28-.38.5-.69.68s-.66.27-1.07.27-.8-.11-1.13-.31-.61-.5-.8-.87-.29-.8-.29-1.28.1-.91.29-1.27h0Zm3.48.35c-.14-.26-.34-.47-.58-.61-.24-.14-.51-.21-.8-.21s-.56.07-.8.21c-.24.14-.44.34-.58.6s-.22.57-.22.93.08.68.22.94c.14.27.34.47.58.61.24.14.51.21.8.21s.56-.07.8-.21.44-.35.58-.61c.14-.27.22-.58.22-.93s-.08-.67-.22-.93Z"/><path class="cls-22" d="m376.22,659.83c.31-.18.66-.27,1.07-.27s.8.1,1.14.3c.34.2.61.48.8.85s.29.79.29,1.27-.1.9-.29,1.28-.47.66-.8.87c-.35.21-.72.31-1.14.31s-.76-.09-1.06-.27c-.31-.18-.54-.41-.7-.68v3.11h-.78v-6.95h.78v.87c.16-.27.38-.5.69-.68h0Zm2.29,1.22c-.14-.26-.34-.47-.58-.6-.24-.14-.51-.21-.8-.21s-.56.07-.8.21-.44.35-.59.61-.22.58-.22.92.08.67.22.93.34.47.59.61c.24.14.51.21.8.21s.56-.07.8-.21.44-.35.58-.61.22-.58.22-.94-.08-.67-.22-.93h0Z"/><path class="cls-22" d="m382.04,659.83c.31-.18.66-.27,1.07-.27s.8.1,1.14.3c.34.2.61.48.8.85s.29.79.29,1.27-.1.9-.29,1.28-.47.66-.8.87c-.35.21-.72.31-1.14.31s-.76-.09-1.06-.27c-.31-.18-.54-.41-.7-.68v3.11h-.78v-6.95h.78v.87c.16-.27.38-.5.69-.68h0Zm2.29,1.22c-.14-.26-.34-.47-.58-.6-.24-.14-.51-.21-.8-.21s-.56.07-.8.21-.44.35-.59.61-.22.58-.22.92.08.67.22.93.34.47.59.61c.24.14.51.21.8.21s.56-.07.8-.21.44-.35.58-.61.22-.58.22-.94-.08-.67-.22-.93h0Z"/><path class="cls-22" d="m386.63,664.24c-.11-.11-.16-.23-.16-.38s.05-.28.16-.38.23-.16.38-.16.26.05.37.16c.1.11.15.23.15.38s-.05.28-.15.38c-.1.11-.23.16-.37.16s-.28-.05-.38-.16Zm.77-5.9l-.1,4.3h-.65l-.1-4.3h.85Z"/><path class="cls-22" d="m347.78,658.99c-1.43,0-2.6,1.21-2.6,2.7s1.16,2.7,2.6,2.7,2.6-1.21,2.6-2.7-1.16-2.7-2.6-2.7Zm0,4.21c-.8,0-1.46-.68-1.46-1.51s.65-1.51,1.46-1.51,1.46.68,1.46,1.51-.65,1.51-1.46,1.51Z"/><path class="cls-22" d="m353.31,658.99c-1.43,0-2.6,1.21-2.6,2.7v3.45c0,.33.26.59.57.59s.57-.26.57-.59v-1.2c.42.29.92.46,1.46.46,1.43,0,2.6-1.21,2.6-2.7s-1.16-2.7-2.6-2.7h0Zm0,4.21c-.67,0-1.25-.47-1.41-1.15-.03-.12-.05-.24-.05-.36,0-.83.65-1.51,1.46-1.51s1.46.68,1.46,1.51-.65,1.51-1.46,1.51Z"/><path class="cls-22" d="m358.93,658.99c-1.43,0-2.6,1.21-2.6,2.7v3.45c0,.33.26.59.57.59s.57-.26.57-.59v-1.2c.42.29.92.46,1.46.46,1.43,0,2.6-1.21,2.6-2.7s-1.16-2.7-2.6-2.7h0Zm0,4.21c-.67,0-1.25-.47-1.41-1.15-.03-.12-.05-.24-.05-.36,0-.83.65-1.51,1.46-1.51s1.46.68,1.46,1.51-.65,1.51-1.46,1.51Z"/><path class="cls-22" d="m365.07,659.59c0-.33-.26-.59-.57-.59-1.43,0-2.6,1.21-2.6,2.7v2.11c0,.33.26.59.57.59s.57-.26.57-.59v-2.11c0-.83.65-1.51,1.46-1.51.32,0,.57-.26.57-.59h0Z"/><ellipse class="cls-12" cx="365.55" cy="663.7" rx=".68" ry=".71"/><g class="cls-42"><path class="cls-22" d="m93.73,668.04s-19.02,70.45-16.48,84.61c2.57,14.16,21.8,58.48,21.8,58.48l13.54-130.97-18.91-12.17h.02l.02.05Z"/><path class="cls-19" d="m145.96,623.97c.3-.65.46-1.27.53-1.92-2.87-.72-4.79-1.09-4.79-1.09,0,0-3.91,22.52-7.38,26.41l25.97,16.89s1.71-3.19,5.18-9.4c-12.08-6.16-19.49-17.77-19.49-30.9h-.02Z"/><path class="cls-19" d="m146.49,622.05c-.07.65-.19,1.27-.53,1.92,0,13.1,7.41,24.72,19.49,30.9,1.83-3.26,4.12-7.34,6.97-12.24,6.41-11.13-15.76-18.03-25.92-20.57Z"/><path class="cls-13" d="m146.49,622.05c-.07.65-.19,1.27-.53,1.92,0,13.1,7.41,24.72,19.49,30.9,1.83-3.26,4.12-7.34,6.97-12.24,6.41-11.13-15.76-18.03-25.92-20.57Z"/><path class="cls-19" d="m184.96,585.02s11.25,15.16,11.25,35.94-8.12,32.56-22.5,32.22-27.38-19.86-26.43-34.18c2.68-40.06,37.68-34,37.68-34v.02Z"/><path class="cls-24" d="m191.55,597.54s1.74-39.14-42.14-20.39c-28.84,12.29-10.28,56.19-10.28,56.19,0,0,10.37,5.42,11.53-6.23,1.16-11.64.28-27.05,9.51-30.34,9.21-3.29,31.41.74,31.41.74h-.02v.02Z"/><polygon class="cls-19" points="156.21 1038.83 155.29 1050.88 163.43 1057.41 173.15 1049.98 174.87 1032.28 156.21 1038.83"/><polygon class="cls-19" points="69.86 1000.75 59.06 1015.22 75.33 1029.29 86.62 1006.52 69.86 1000.75"/><path class="cls-25" d="m93.19,812.18s-8.86,6.62-3.31,31.54c5.55,24.9,17.73,71.93,17.73,71.93l-46.47,87.99,23.24,18.82,55.96-93.78c2.5-4.19,3.82-8.96,3.82-13.82v-32.4s6.62,14.37,7.2,29.35c.56,14.93,0,130.07,0,130.07,0,0,7.2,6.06,25.46-2.75l13.84-125.07s9.42-61.82-14.37-98.43c-23.79-36.61-82.99-3.4-82.99-3.4h-.07l-.02-.05Z"/><path class="cls-12" d="m172.71,758.44h-3.77c-2.08,13.75-3.45,26.62-2.99,35.92,0,.39.07.76.07,1.16h13.08c-1.74-11.04-2.86-24.53-5.1-37.52l-1.29.46v-.02Z"/><path class="cls-12" d="m160,794.66c.87,12.28,2.64,23.5,3.74,32.18,7.5-.52,12.98-1.26,15.26-2.02,3.99-1.38,2.58-13.61-.81-30.18h-18.19v.02Z"/><path class="cls-12" d="m170.77,746.91c-.67,3.86-1.3,7.75-1.85,11.53h3.77c-.65-3.86-1.3-7.75-1.92-11.53Z"/><path class="cls-26" d="m352.02,676.72l-22.24-4.75c-4.94-.8-5.9-4.08-5.29-6.92l10.9-43.37c.61-2.84,3.29-4.68,5.99-4.1l21.5,3.48c2.7.58,5.14,4.61,4.54,7.45l-9.41,44.1c-.61,2.84-3.29,4.68-5.99,4.1h0Z"/><rect class="cls-27" x="317.51" y="629.31" width="55.61" height="32.75" rx="7.14" ry="7.14" transform="translate(-358.2 848.72) rotate(-77.96)"/><rect class="cls-22" x="318.37" y="630.07" width="53.89" height="31.24" rx="6.12" ry="6.12" transform="translate(-358.2 848.72) rotate(-77.96)"/><path class="cls-29" d="m344.64,643.61c-1.07-.23-2.13.46-2.36,1.53s.46,2.13,1.53,2.36,2.13-.46,2.36-1.53-.46-2.13-1.53-2.36Zm-.65,3.04c-.6-.13-.98-.72-.86-1.32s.72-.98,1.32-.86.98.72.86,1.32-.72.98-1.32.86Z"/><path class="cls-29" d="m348.77,644.49c-1.07-.23-2.13.46-2.36,1.53l-.53,2.48c-.05.24.1.47.34.52s.47-.1.52-.34l.18-.87c.27.28.62.48,1.02.56,1.07.23,2.13-.46,2.36-1.53s-.46-2.13-1.53-2.36h0Zm-.65,3.04c-.5-.11-.87-.54-.88-1.05,0-.09,0-.18.02-.27.13-.6.72-.98,1.32-.86s.98.72.86,1.32-.72.98-1.32.86Z"/><path class="cls-29" d="m352.98,645.39c-1.07-.23-2.13.46-2.36,1.53l-.53,2.48c-.05.24.1.47.34.52s.47-.1.52-.34l.18-.87c.27.28.62.48,1.02.56,1.07.23,2.13-.46,2.36-1.53s-.46-2.13-1.53-2.36h0Zm-.65,3.04c-.5-.11-.87-.54-.88-1.05,0-.09,0-.18.02-.27.13-.6.72-.98,1.32-.86s.98.72.86,1.32-.72.98-1.32.86Z"/><path class="cls-29" d="m357.49,646.8c.05-.24-.1-.47-.34-.52-1.07-.23-2.13.46-2.36,1.53l-.32,1.52c-.05.24.1.47.34.52s.47-.1.52-.34l.32-1.52c.13-.6.72-.98,1.32-.86.24.05.47-.1.52-.34h0Z"/><circle class="cls-12" cx="357.22" cy="649.84" r=".52"/><path class="cls-23" d="m339.94,641.66c0,.29-.12.59-.35.81-.28.28-.69.4-1.08.32h0c.26.48.35,1.04.24,1.59-.26,1.24-1.49,2.03-2.73,1.77-.85-.18-1.49-.82-1.73-1.6l-.44,2.06c-.02.12-.07.22-.12.32.52.48,1.17.83,1.91.98,2.21.47,4.4-.94,4.87-3.16.23-1.08.02-2.19-.57-3.09Z"/><path class="cls-23" d="m336.97,641.64c.44.09.83.31,1.15.62h0c.35.35.93.35,1.28,0s.35-.92,0-1.28h0c-.56-.56-1.27-.95-2.05-1.11-2.15-.46-4.26.86-4.82,2.95h0l-.04.21-.67,3.13c-.1.49.21.97.7,1.07.43.09.85-.13,1.02-.52.02-.06.04-.12.06-.18l.67-3.13c.26-1.24,1.49-2.03,2.73-1.77h-.03Z"/><circle class="cls-12" cx="336.49" cy="643.89" r="1.49"/><path class="cls-19" d="m320.5,679.26h0s-9.41-8.37-6.36-13.77,17.11,1.62,22.94,2.54,12.14-3.27,14.23-2.56-.55,9.14-7.83,13.13-22.95.65-22.95.65l-.03.02Z"/><path class="cls-22" d="m139.39,700.38l-.04.19s.82-2.54,5.62-2.67c3.57-.09,9.31,1.11,18.58,5.67,17.4,8.55,106.04-6.52,143.31-14.44,9.5-2.04,15.72-3.58,16.49-4.17,3.39-2.55-1.33-15.42-4.27-20.72-.39-.69-.74-1.29-1.04-1.69-1.35-1.75-7.37-.53-16.24,1.79-8.19,2.13-18.82,5.17-30.55,7.6-11.59,2.41-29.4,2.88-47.62,2.61-20.15-.31-40.78-1.44-54.09-1.74-24.35-.52-29.81,25.53-30.21,27.56h.05Z"/><path class="cls-12" d="m147.65,690.74c.64-1.62,1.33-2.99,2.06-4,.26-.37.45-.67.69-1.02.4-.19.78-.39,1.28-.56,0,0,18.76-14.92,25.32-11.17,0,0-5.92-17.51-30.86-25.19,0,0-.54-.19-1.47-.37-1.11-.28-2.08-.44-2.94-.46-4.53-.46-11.92-.09-18.72,5.32-10.85,8.63-26.58,7.8-29.14,14.79-.57,1.57-1.85,9.7-3.34,21.41,19.07-1.3,38.12-.46,57.14,1.3h-.02v-.05Z"/><path class="cls-12" d="m181,690c-31.1-1.76-57.19-1.85-88.21-.55-1.82,8.96-3.82,20.04-5.68,31.94h89.93c1.93-13.19-.21-24.91,3.96-31.39h0Z"/><path class="cls-12" d="m172,758.44h-87.19c-1.18,13.61-1.76,26.52-1.21,37.05h88.37c-.29-11.8-.33-24.53.04-37.05Z"/><path class="cls-14" d="m174,759l-89.08-.56c-1.27,13.61-1.9,26.52-1.31,37.05h95.35c-.96-11.49-2.96-23.49-4.96-36.49Z"/><path class="cls-12" d="m83.5,795.49c.56,12.89,2.7,22.15,7.04,24.39,9.91,5.05,43.02,6.87,73.46,6.94-.56-8.7-1.09-19.56-1.35-31.31h-79.12l-.03-.02Z"/><path class="cls-12" d="m177,721.39h-88.17c-1.82,11.99-3.45,24.76-4.54,37.05h89.84c.42-13.08,1.33-25.87,2.88-37.05Z"/><path class="cls-24" d="m61.63,1011.49s-7.48,2.82-7.48,7.94,1.83,36.15,14.26,38.7c12.43,2.55,20.46-1.46,20.07-4.74s-12.06-8.4-13.15-24.09c-1.09-15.71-5.46-10.46-13.72-17.77l.02-.02Z"/><path class="cls-24" d="m155.29,1050.88s-6.2,18.1,11.69,18.47c17.87.37,39.44-13.19,32.12-18.47s-30.67,0-30.67,0h-13.15Z"/><path class="cls-24" d="m169.22,619.05c-.39,0-.81,0-1.11.21s-.44.58-.49.95c-.09.49-.09,1.06.3,1.37.21.16.53.19.81.21.37,0,.76,0,1.09-.19.39-.21.58-.65.72-1.06.16-.46.21-1.09-.21-1.37-.12-.09-.3-.12-.46-.16-.3-.07-.65-.07-.95,0"/><path class="cls-24" d="m169.17,618.49c-.46,0-.93,0-1.34.25s-.62.65-.74,1.09c-.21.72-.25,1.67.44,2.18.39.28.9.35,1.37.35s.95-.07,1.34-.35c.35-.25.56-.58.72-.95s.25-.76.25-1.18c0-.49-.25-1-.74-1.2s-1.11-.25-1.64-.16c-.3.07-.58.28-.53.58.02.28.3.56.62.49.19,0,.35-.02.53-.02-.09,0,0,0,0,0h.16s.16,0,.25.02c.16.02-.09-.07.02,0,0,0,.09.07,0,0,0,0,.07.02.07.07.07.02-.07-.09,0,0v.07l.02-.07v.12s0-.09,0-.02h0v.21-.07.16c0,.12-.07.28-.09.39,0,.09.07-.12,0,0,0,0,0,.07-.02.09,0,.07-.07.12-.09.19,0,.07-.07.16-.09.19.07-.07.02-.02,0,0s-.07.07-.09.12l-.07.07s.02,0,0,0-.07.07-.09.07c0,0,.09-.02,0,0-.02,0-.07,0-.12.02-.02,0-.12.07,0,0-.09,0-.19,0-.28.02h-.21s-.19,0-.02,0h-.49s.09,0,.02,0c0,0-.09,0-.09-.02,0,.02.07.07,0,0h-.02s-.02-.07,0,0c0,0-.02-.07-.07-.07,0,0-.09-.09,0,0,.07.07,0,0,0-.02v-.12s0,.09,0,.07v-.3s0-.07,0,0v-.19s0-.16.02-.25c0-.07.02-.12.07-.19.02-.12-.07.09,0,0,0-.02.02-.07.07-.12,0,0,0-.07.02-.07.07-.09-.07.09,0-.02,0,0,.02-.07.07-.07.09-.09-.09.07,0,0,0,0,.12-.09.07-.02-.07.02.09,0,.09-.02s.07,0,.09,0t0,0h.58c.3,0,.56-.35.53-.58-.02-.3-.3-.49-.62-.49h0l.09-.19-.07-.05Z"/><path class="cls-24" d="m187.62,618.28c-.56-.09-1.16.3-1.27.81-.02.19-.02.37,0,.53,0,.19.02.37.12.56.12.21.3.37.56.46.49.19,1.09,0,1.46-.35s.53-.9.46-1.39c0-.16-.07-.3-.12-.44-.19-.35-.58-.49-1-.46s-.74.25-1.02.53"/><path class="cls-24" d="m187.71,617.73c-.86-.12-1.71.39-1.92,1.2-.07.21-.07.46-.02.67s.07.44.12.65c.16.39.53.74.93.9s.9.16,1.34,0,.76-.46,1.06-.83c.46-.67.53-1.76-.07-2.38-.35-.35-.86-.53-1.37-.46-.53.07-1.02.35-1.37.72-.19.21-.19.58.07.76s.62.16.83-.07c0-.02.07-.07.09-.09,0,0,.07-.09,0,0,.07-.07.12-.09.19-.12,0,0,.07,0,.07-.02.12-.07-.12.02,0,0,.07,0,.16-.09.21-.07h-.07.19c.12,0-.09,0,0,0h.19c.12,0-.12-.07,0,0h.07s.07,0,.07.02h-.07s.07,0,.09.02c.07.02,0,0,0,0l.07.07s.09.07,0,0c0,0,.02.07.02.09s.07.12,0,0v.44-.07.19s0,.12-.02.19c0,.09,0,0,0,0,0,.02-.02.09-.07.12,0,.07-.07.09-.09.16-.07.12.09-.09,0,0l-.07.07s-.02.07-.07.07c-.07.07-.07,0,0,0,0,0-.07.02-.07.07-.02,0-.09.07-.12.07-.07.02-.07,0,0,0,0,0-.07,0-.07.02-.07,0-.12.02-.19.07-.12.02.09,0,0,0h-.28s.09,0,.07,0c-.07,0-.12,0-.19-.02-.12,0,.09.07,0,0,0,0-.07,0-.07-.02,0,0-.12-.07-.02,0s0,0-.02,0l-.07-.07s.07.09,0,0c0,0-.02-.07-.07-.09.02.12,0,.02,0,0s-.02-.09-.02-.12c0,0,0,.12,0,0v-.21s-.02-.19,0-.28c0,0,0,.12,0,0v-.12h0s0-.09,0,0v-.09l.07-.07c-.07.07-.07.09,0,.02h.02s.02-.07.07-.09c.09-.09-.09.07,0,0,0,0,.19-.09.19-.12,0,0-.12.07-.02,0,.02,0,.07,0,.09-.02h.02s.02,0-.07,0h.16s.07,0-.07,0h.07c.3.02.65-.16.67-.44s-.16-.58-.46-.65h-.02v-.07Z"/><path class="cls-24" d="m177.09,617.01c.21,2.78,1.09,5.49,2.55,7.94.72,1.18,1.71,2.18,2.41,3.36.35.53.56,1.34.12,1.9s-1.37.53-2.04.49c-.74,0-.65,1.09.09,1.11,1.37,0,2.87-.28,3.26-1.74s-.65-2.64-1.53-3.73c-2.18-2.73-3.45-6.02-3.73-9.42-.07-.72-1.2-.62-1.16.09h.02Z"/><path class="cls-24" d="m173.32,636.45c.12.58.56,1.09,1.02,1.53.44.39.93.72,1.46.95,1.16.56,2.48.81,3.75.93.3,0,.62-.12.67-.44.07-.28-.16-.62-.46-.65-1.16-.09-2.29-.28-3.31-.74-.83-.37-1.83-1.06-2.04-1.94-.07-.28-.46-.44-.74-.3-.35.12-.39.44-.35.72h0v-.05Z"/><path class="cls-24" d="m184.38,616.18c.46-.56,1.09-.9,1.83-1.09-.07,0,0,0,.02,0h.12s.19,0,.28-.02.19,0,.3,0h.16s-.07,0,.02,0c.39.02.74.09,1.09.25.67.3,1.18-.72.49-1-1.76-.76-4.03-.28-5.28,1.18-.46.56.39,1.27.9.72h.02l.05-.05Z"/><path class="cls-24" d="m171.21,614.81c-2.2-.39-4.68-.12-6.23,1.57-.49.56.39,1.25.9.72,1.27-1.39,3.36-1.53,5.11-1.2.74.12.95-.95.21-1.09h0Z"/><path class="cls-24" d="m182.18,609.51c-.35.62,0,1.37.72,1.55.65.16,1.09-.3,1.64-.53.49-.19,1.06-.28,1.62-.21.62.07,1.2.35,1.83.44.25,0,.56-.07.62-.3.25-.65-.28-1.02-.86-1.2-.56-.19-1.11-.3-1.71-.37-1.16-.12-2.29-.02-3.4.25-.3.09-.46.44-.35.72.12.3.44.39.74.3.76-.21,1.57-.3,2.38-.25.39,0,.81.09,1.2.16.19.02.39.09.58.16.09,0,.19.07.28.09.25.09.07.09.07-.09l.07-.28v.07c.19-.09.39-.21.62-.3-.49-.07-1-.28-1.48-.37s-1.06-.12-1.55-.07-1,.21-1.46.46c-.12.07-.21.12-.35.19l-.19.09s0,.16.07,0c.35-.62-.72-1.11-1.06-.46h-.02l-.02-.05Z"/><path class="cls-24" d="m162.97,611.38c1.2-.76,2.5-1.37,3.86-1.76.62-.19,1.25-.35,1.9-.39.37-.02,1.27-.09,1.48.35,0,0,.09,0-.02.07-.16.07-.35,0-.49,0-.35-.07-.65-.12-1-.19-.65-.09-1.34-.09-1.99,0s-1.34.21-1.94.39c-.3.09-.62.21-.9.37-.19.09-.35.16-.49.25-.09.02-.16.09-.25.12-.25.09-.25.3,0,.65.62-.39-.07-1.3-.65-.9s-.37,1.27.3,1.43c.3.07.62-.07.9-.21.35-.19.67-.37,1.06-.53,1.37-.56,2.87-.72,4.33-.44.72.12,1.46.3,2.01-.21s.44-1.2-.09-1.67c-1.02-.9-2.64-.56-3.84-.25-1.71.44-3.31,1.16-4.79,2.08-.62.39.02,1.3.65.9h-.02l-.02-.07Z"/><path class="cls-24" d="m170.1,609.09c-.49.07-1.02.09-1.53.09h.16-.49c-.16,0-.3,0-.44.09-.12.07-.21.21-.25.35-.02.28.12.62.46.65.72.07,1.46.07,2.2-.02.3-.02.58-.28.53-.58-.02-.28-.3-.56-.62-.49h0v-.07l-.02-.02Z"/><path class="cls-29" d="m165.36,566.14c9.42,3.1,16.99,11.71,20.11,22.03l4.74-1.55s-3.45-18.72-24.86-20.48Z"/><path class="cls-29" d="m155.73,566.44c-.3.02-.62.07-.93.12-35.57,5.21-25.46,40.13-25.46,40.13l48.69-16.04c-3.26-11.55-11.13-21.29-22.31-24.21Z"/><path class="cls-30" d="m165.36,566.14c-2.87-.25-6.06-.16-9.63.3,11.18,2.92,19.05,12.64,22.31,24.21l7.43-2.45c-3.17-10.35-10.69-18.93-20.11-22.03h0v-.02Z"/><path class="cls-20" d="m129.3,606.69s22.5-15.48,50.15-23.17c26.87-7.43,18.35,4.37,13.79,9.44-1.16,1.27-2.85,1.92-4.51,1.64-4.74-.74-15.81-1.67-29,2.73-17.66,5.88-30.46,9.35-30.46,9.35,0,0,.02,0,.02,0Z"/><path class="cls-19" d="m151.45,616.36s-.67-4.28-3.45-3.38-2.99,8.68,0,9.49,5.02,0,5.02,0l-1.55-6.11h-.02Z"/><path class="cls-12" d="m181.45,689.22l-4.45-15.13-9-6.09-20.77,13.95-2.33,7.48,35.19,1.56c.93.04,1.63-.86,1.36-1.77Z"/><path class="cls-14" d="m181,689c-31.1-1.76-57.19-.85-88.21.45-1.82,8.96-3.82,20.04-5.68,31.94h89.93c1.93-13.19-.21-24.91,3.96-31.39v-1Z"/></g><rect class="cls-1" x="872.5" y="737.5" width="162" height="59" rx="3.31" ry="3.31"/><rect class="cls-29" x="878.5" y="745.5" width="128" height="21"/><path class="cls-16" d="m920.02,760.64v-9.1h3.74c.57,0,1.08.11,1.51.34.44.23.78.55,1.03.97s.37.91.37,1.48v.18c0,.56-.13,1.06-.38,1.48-.26.42-.6.75-1.04.97-.44.23-.93.34-1.49.34h-2.03v3.33h-1.72Zm1.72-4.89h1.86c.41,0,.74-.11.99-.34.25-.23.38-.53.38-.92v-.13c0-.39-.13-.7-.38-.92s-.58-.34-.99-.34h-1.86v2.65Z"/><path class="cls-16" d="m930.7,760.82c-.64,0-1.21-.14-1.7-.41s-.87-.66-1.14-1.16c-.27-.5-.41-1.08-.41-1.76v-.16c0-.68.13-1.26.4-1.76s.65-.88,1.13-1.16c.49-.27,1.05-.41,1.69-.41s1.18.14,1.65.42c.47.28.83.67,1.09,1.17.26.5.39,1.08.39,1.74v.56h-4.69c.02.44.18.8.49,1.08.31.28.69.42,1.14.42s.8-.1,1.01-.3.38-.42.49-.66l1.34.7c-.12.23-.3.47-.53.73s-.54.49-.92.68c-.38.19-.87.28-1.46.28Zm-1.57-4.15h3.02c-.04-.37-.18-.67-.45-.9-.26-.22-.61-.34-1.03-.34s-.79.11-1.05.34c-.26.23-.42.52-.48.9Z"/><path class="cls-16" d="m937.53,760.64c-.42,0-.77-.13-1.03-.4-.26-.26-.4-.62-.4-1.06v-3.64h-1.61v-1.35h1.61v-2h1.64v2h1.77v1.35h-1.77v3.35c0,.26.12.39.36.39h1.25v1.35h-1.82Z"/><path class="cls-16" d="m945.35,760.64v-5.1h-1.64v-1.35h1.64v-1.2c0-.44.13-.8.4-1.06s.61-.4,1.03-.4h1.69v1.35h-1.12c-.24,0-.36.13-.36.39v.91h1.69v1.35h-1.69v5.1h-1.64Z"/><path class="cls-16" d="m952.82,760.82c-.64,0-1.22-.13-1.73-.39s-.91-.64-1.21-1.13-.44-1.09-.44-1.78v-.21c0-.69.15-1.29.44-1.78.29-.49.7-.87,1.21-1.13s1.09-.39,1.73-.39,1.22.13,1.73.39.91.64,1.21,1.13c.29.49.44,1.09.44,1.78v.21c0,.69-.15,1.29-.44,1.78s-.7.87-1.21,1.13-1.09.39-1.73.39Zm0-1.46c.5,0,.92-.16,1.25-.49.33-.33.49-.79.49-1.4v-.13c0-.61-.16-1.07-.49-1.4s-.74-.49-1.25-.49-.92.16-1.25.49c-.33.33-.49.79-.49,1.4v.13c0,.61.16,1.07.49,1.4.33.33.75.49,1.25.49Z"/><path class="cls-16" d="m960.77,760.82c-.64,0-1.22-.13-1.73-.39s-.91-.64-1.21-1.13-.44-1.09-.44-1.78v-.21c0-.69.15-1.29.44-1.78.29-.49.7-.87,1.21-1.13s1.09-.39,1.73-.39,1.22.13,1.73.39.91.64,1.21,1.13c.29.49.44,1.09.44,1.78v.21c0,.69-.15,1.29-.44,1.78s-.7.87-1.21,1.13-1.09.39-1.73.39Zm0-1.46c.5,0,.92-.16,1.25-.49.33-.33.49-.79.49-1.4v-.13c0-.61-.16-1.07-.49-1.4s-.74-.49-1.25-.49-.92.16-1.25.49c-.33.33-.49.79-.49,1.4v.13c0,.61.16,1.07.49,1.4.33.33.75.49,1.25.49Z"/><path class="cls-16" d="m968.26,760.82c-.51,0-.99-.13-1.44-.38-.45-.26-.8-.63-1.07-1.12s-.4-1.09-.4-1.79v-.21c0-.7.13-1.3.4-1.79s.62-.87,1.07-1.12c.44-.26.92-.38,1.44-.38.39,0,.72.04.98.14.26.09.48.21.64.34.17.14.29.29.38.44h.23v-3.39h1.64v9.1h-1.61v-.78h-.23c-.15.24-.38.46-.68.66s-.76.3-1.35.3Zm.49-1.43c.5,0,.92-.16,1.26-.49s.51-.8.51-1.42v-.13c0-.62-.17-1.1-.5-1.42-.33-.32-.76-.49-1.27-.49s-.92.16-1.26.49c-.34.33-.51.8-.51,1.42v.13c0,.62.17,1.1.51,1.42s.76.49,1.26.49Z"/><rect class="cls-1" x="1091.18" y="737.41" width="162" height="59" rx="3.31" ry="3.31"/><rect class="cls-29" x="1097.18" y="745.41" width="128" height="21"/><path class="cls-16" d="m1138.69,760.55v-9.1h3.74c.57,0,1.08.11,1.51.34.44.23.78.55,1.03.97s.37.91.37,1.48v.18c0,.56-.13,1.06-.38,1.48-.26.42-.6.75-1.04.97-.44.23-.93.34-1.49.34h-2.03v3.33h-1.72Zm1.72-4.89h1.86c.41,0,.74-.11.99-.34.25-.23.38-.53.38-.92v-.13c0-.39-.13-.7-.38-.92s-.58-.34-.99-.34h-1.86v2.65Z"/><path class="cls-16" d="m1149.38,760.73c-.64,0-1.21-.14-1.7-.41s-.87-.66-1.14-1.16c-.27-.5-.41-1.08-.41-1.76v-.16c0-.68.13-1.26.4-1.76s.65-.88,1.13-1.16c.49-.27,1.05-.41,1.69-.41s1.18.14,1.65.42c.47.28.83.67,1.09,1.17.26.5.39,1.08.39,1.74v.56h-4.69c.02.44.18.8.49,1.08.31.28.69.42,1.14.42s.8-.1,1.01-.3.38-.42.49-.66l1.34.7c-.12.23-.3.47-.53.73s-.54.49-.92.68c-.38.19-.87.28-1.46.28Zm-1.57-4.15h3.02c-.04-.37-.18-.67-.45-.9-.26-.22-.61-.34-1.03-.34s-.79.11-1.05.34c-.26.23-.42.52-.48.9Z"/><path class="cls-16" d="m1156.2,760.55c-.42,0-.77-.13-1.03-.4-.26-.26-.4-.62-.4-1.06v-3.64h-1.61v-1.35h1.61v-2h1.64v2h1.77v1.35h-1.77v3.35c0,.26.12.39.36.39h1.25v1.35h-1.82Z"/><path class="cls-16" d="m1164.03,760.55v-5.1h-1.64v-1.35h1.64v-1.2c0-.44.13-.8.4-1.06s.61-.4,1.03-.4h1.69v1.35h-1.12c-.24,0-.36.13-.36.39v.91h1.69v1.35h-1.69v5.1h-1.64Z"/><path class="cls-16" d="m1171.49,760.73c-.64,0-1.22-.13-1.73-.39s-.91-.64-1.21-1.13-.44-1.09-.44-1.78v-.21c0-.69.15-1.29.44-1.78.29-.49.7-.87,1.21-1.13s1.09-.39,1.73-.39,1.22.13,1.73.39.91.64,1.21,1.13c.29.49.44,1.09.44,1.78v.21c0,.69-.15,1.29-.44,1.78s-.7.87-1.21,1.13-1.09.39-1.73.39Zm0-1.46c.5,0,.92-.16,1.25-.49.33-.33.49-.79.49-1.4v-.13c0-.61-.16-1.07-.49-1.4s-.74-.49-1.25-.49-.92.16-1.25.49c-.33.33-.49.79-.49,1.4v.13c0,.61.16,1.07.49,1.4.33.33.75.49,1.25.49Z"/><path class="cls-16" d="m1179.45,760.73c-.64,0-1.22-.13-1.73-.39s-.91-.64-1.21-1.13-.44-1.09-.44-1.78v-.21c0-.69.15-1.29.44-1.78.29-.49.7-.87,1.21-1.13s1.09-.39,1.73-.39,1.22.13,1.73.39.91.64,1.21,1.13c.29.49.44,1.09.44,1.78v.21c0,.69-.15,1.29-.44,1.78s-.7.87-1.21,1.13-1.09.39-1.73.39Zm0-1.46c.5,0,.92-.16,1.25-.49.33-.33.49-.79.49-1.4v-.13c0-.61-.16-1.07-.49-1.4s-.74-.49-1.25-.49-.92.16-1.25.49c-.33.33-.49.79-.49,1.4v.13c0,.61.16,1.07.49,1.4.33.33.75.49,1.25.49Z"/><path class="cls-16" d="m1186.94,760.73c-.51,0-.99-.13-1.44-.38-.45-.26-.8-.63-1.07-1.12s-.4-1.09-.4-1.79v-.21c0-.7.13-1.3.4-1.79s.62-.87,1.07-1.12c.44-.26.92-.38,1.44-.38.39,0,.72.04.98.14.26.09.48.21.64.34.17.14.29.29.38.44h.23v-3.39h1.64v9.1h-1.61v-.78h-.23c-.15.24-.38.46-.68.66s-.76.3-1.35.3Zm.49-1.43c.5,0,.92-.16,1.26-.49s.51-.8.51-1.42v-.13c0-.62-.17-1.1-.5-1.42-.33-.32-.76-.49-1.27-.49s-.92.16-1.26.49c-.34.33-.51.8-.51,1.42v.13c0,.62.17,1.1.51,1.42s.76.49,1.26.49Z"/><rect class="cls-17" x="267.41" y="123.05" width="375.41" height="204.43" rx="1" ry="1"/><rect class="cls-31" x="286" y="145.35" width="37.17" height="37.17" rx="1.86" ry="1.86"/><path class="cls-16" d="m335.9,157.64l2.05-7.81h2.56l2.05,7.81h-1.52l-.42-1.72h-2.79l-.42,1.72h-1.52Zm2.28-3.08h2.1l-.95-3.8h-.2l-.95,3.8Z"/><path class="cls-16" d="m343.51,157.64v-7.81h2.73l1.35,6.8h.2l1.35-6.8h2.73v7.81h-1.43v-6.72h-.2l-1.34,6.72h-2.43l-1.34-6.72h-.2v6.72h-1.43Z"/><path class="cls-16" d="m356.05,157.79c-.6,0-1.13-.11-1.59-.32s-.82-.52-1.08-.93-.39-.89-.39-1.45v-.31h1.45v.31c0,.47.14.82.43,1.05s.68.35,1.18.35.88-.1,1.13-.3c.25-.2.37-.46.37-.77,0-.21-.06-.39-.18-.52-.12-.13-.3-.24-.54-.33-.23-.09-.52-.17-.85-.24l-.26-.05c-.54-.12-.99-.27-1.38-.45-.38-.18-.68-.42-.88-.72-.21-.3-.31-.68-.31-1.16s.11-.88.34-1.22c.23-.34.55-.6.96-.78.41-.18.9-.27,1.46-.27s1.05.09,1.49.28c.44.19.78.47,1.03.85s.37.85.37,1.41v.33h-1.45v-.33c0-.3-.06-.54-.17-.72-.11-.18-.28-.32-.5-.4-.22-.09-.47-.13-.77-.13-.45,0-.77.08-.99.25s-.32.4-.32.69c0,.19.05.36.15.49.1.13.25.25.45.34.2.09.46.17.77.23l.26.05c.56.12,1.04.27,1.46.46.41.19.73.43.96.74s.35.7.35,1.17-.12.89-.36,1.25-.58.64-1.03.85c-.44.21-.97.31-1.57.31Z"/><path class="cls-16" d="m360.12,155.43v-1.27h3.3v1.27h-3.3Z"/><path class="cls-16" d="m367.95,157.79c-.98,0-1.76-.27-2.34-.81-.58-.54-.87-1.31-.87-2.31v-1.87c0-1,.29-1.77.87-2.31.58-.54,1.36-.81,2.34-.81s1.76.27,2.34.81c.58.54.87,1.31.87,2.31v1.87c0,1-.29,1.77-.87,2.31-.58.54-1.36.81-2.34.81Zm0-1.32c.55,0,.98-.16,1.28-.48s.46-.75.46-1.28v-1.96c0-.54-.15-.96-.46-1.28-.3-.32-.73-.48-1.28-.48s-.97.16-1.28.48c-.31.32-.46.75-.46,1.28v1.96c0,.54.15.96.46,1.28s.74.48,1.28.48Z"/><path class="cls-16" d="m372.45,157.64v-7.81h3.21c.49,0,.92.1,1.3.3.38.2.67.47.88.83.21.36.32.78.32,1.27v.16c0,.48-.11.91-.33,1.27-.22.36-.52.64-.89.83-.37.2-.8.3-1.28.3h-1.74v2.85h-1.47Zm1.47-4.19h1.59c.35,0,.63-.1.85-.29.22-.19.32-.46.32-.79v-.11c0-.33-.11-.6-.32-.79-.22-.19-.5-.29-.85-.29h-1.59v2.28Z"/><path class="cls-16" d="m381.89,157.79c-.6,0-1.13-.11-1.59-.32s-.82-.52-1.08-.93-.39-.89-.39-1.45v-.31h1.45v.31c0,.47.14.82.43,1.05s.68.35,1.18.35.88-.1,1.13-.3c.25-.2.37-.46.37-.77,0-.21-.06-.39-.18-.52-.12-.13-.3-.24-.54-.33-.23-.09-.52-.17-.85-.24l-.26-.05c-.54-.12-.99-.27-1.38-.45-.38-.18-.68-.42-.88-.72-.21-.3-.31-.68-.31-1.16s.11-.88.34-1.22c.23-.34.55-.6.96-.78.41-.18.9-.27,1.46-.27s1.05.09,1.49.28c.44.19.78.47,1.03.85s.37.85.37,1.41v.33h-1.45v-.33c0-.3-.06-.54-.17-.72-.11-.18-.28-.32-.5-.4-.22-.09-.47-.13-.77-.13-.45,0-.77.08-.99.25s-.32.4-.32.69c0,.19.05.36.15.49.1.13.25.25.45.34.2.09.46.17.77.23l.26.05c.56.12,1.04.27,1.46.46.41.19.73.43.96.74s.35.7.35,1.17-.12.89-.36,1.25-.58.64-1.03.85c-.44.21-.97.31-1.57.31Z"/><path class="cls-16" d="m385.97,155.43v-1.27h3.3v1.27h-3.3Z"/><path class="cls-16" d="m393.47,157.79c-.6,0-1.13-.11-1.59-.32s-.82-.52-1.08-.93-.39-.89-.39-1.45v-.31h1.45v.31c0,.47.14.82.43,1.05s.68.35,1.18.35.88-.1,1.13-.3c.25-.2.37-.46.37-.77,0-.21-.06-.39-.18-.52-.12-.13-.3-.24-.54-.33-.23-.09-.52-.17-.85-.24l-.26-.05c-.54-.12-.99-.27-1.38-.45-.38-.18-.68-.42-.88-.72-.21-.3-.31-.68-.31-1.16s.11-.88.34-1.22c.23-.34.55-.6.96-.78.41-.18.9-.27,1.46-.27s1.05.09,1.49.28c.44.19.78.47,1.03.85s.37.85.37,1.41v.33h-1.45v-.33c0-.3-.06-.54-.17-.72-.11-.18-.28-.32-.5-.4-.22-.09-.47-.13-.77-.13-.45,0-.77.08-.99.25s-.32.4-.32.69c0,.19.05.36.15.49.1.13.25.25.45.34.2.09.46.17.77.23l.26.05c.56.12,1.04.27,1.46.46.41.19.73.43.96.74s.35.7.35,1.17-.12.89-.36,1.25-.58.64-1.03.85c-.44.21-.97.31-1.57.31Z"/><path class="cls-16" d="m400.55,157.79c-.98,0-1.76-.27-2.34-.81-.58-.54-.87-1.31-.87-2.31v-1.87c0-1,.29-1.77.87-2.31.58-.54,1.36-.81,2.34-.81s1.76.27,2.34.81c.58.54.87,1.31.87,2.31v1.87c0,1-.29,1.77-.87,2.31-.58.54-1.36.81-2.34.81Zm0-1.32c.55,0,.98-.16,1.28-.48s.46-.75.46-1.28v-1.96c0-.54-.15-.96-.46-1.28-.3-.32-.73-.48-1.28-.48s-.97.16-1.28.48c-.31.32-.46.75-.46,1.28v1.96c0,.54.15.96.46,1.28s.74.48,1.28.48Z"/><path class="cls-16" d="m405.06,157.64v-7.81h3.21c.49,0,.92.1,1.3.3.38.2.67.47.88.83.21.36.32.78.32,1.27v.16c0,.48-.11.91-.33,1.27-.22.36-.52.64-.89.83-.37.2-.8.3-1.28.3h-1.74v2.85h-1.47Zm1.47-4.19h1.59c.35,0,.63-.1.85-.29.22-.19.32-.46.32-.79v-.11c0-.33-.11-.6-.32-.79-.22-.19-.5-.29-.85-.29h-1.59v2.28Z"/><path class="cls-16" d="m411.48,155.43v-1.27h3.3v1.27h-3.3Z"/><path class="cls-16" d="m419.15,157.79c-.92,0-1.66-.25-2.22-.76-.56-.51-.84-1.28-.84-2.31v-1.96c0-1,.28-1.77.84-2.29.56-.52,1.3-.79,2.22-.79s1.67.26,2.22.79c.55.52.83,1.29.83,2.29v1.96c0,1.03-.28,1.81-.83,2.31-.55.51-1.29.76-2.22.76Zm0-1.27c.56,0,.97-.15,1.23-.46.26-.3.4-.74.4-1.3v-2.07c0-.57-.15-1.01-.44-1.3-.29-.29-.69-.44-1.19-.44s-.91.15-1.2.46-.43.73-.43,1.28v2.07c0,.59.13,1.03.41,1.32.27.29.68.44,1.22.44Z"/><path class="cls-16" d="m426.37,157.79c-.92,0-1.66-.25-2.22-.76-.56-.51-.84-1.28-.84-2.31v-1.96c0-1,.28-1.77.84-2.29.56-.52,1.3-.79,2.22-.79s1.67.26,2.22.79c.55.52.83,1.29.83,2.29v1.96c0,1.03-.28,1.81-.83,2.31-.55.51-1.29.76-2.22.76Zm0-1.27c.56,0,.97-.15,1.23-.46.26-.3.4-.74.4-1.3v-2.07c0-.57-.15-1.01-.44-1.3-.29-.29-.69-.44-1.19-.44s-.91.15-1.2.46-.43.73-.43,1.28v2.07c0,.59.13,1.03.41,1.32.27.29.68.44,1.22.44Z"/><path class="cls-16" d="m432.86,157.64v-6.76h-.2l-1.05,2.48h-1.49l1.59-3.52h2.58v7.81h-1.43Z"/><path class="cls-35" d="m296.12,162.4c0-3.4,0-5.11,1.12-6.16,1.12-1.06,2.93-1.06,6.55-1.06h.7c2.94,0,4.42,0,5.44.72.29.21.55.45.77.73.77.96.77,2.35.77,5.12v2.3c0,2.68,0,4.01-.42,5.08-.68,1.72-2.12,3.07-3.94,3.71-1.13.4-2.56.4-5.4.4-1.62,0-2.44,0-3.08-.23-1.04-.37-1.87-1.14-2.25-2.12-.24-.61-.24-1.37-.24-2.9v-5.58Z"/><path class="cls-34" d="m311.47,164.2c0,1.66-1.35,3.01-3.01,3.01-.6,0-1.31-.11-1.89.05-.52.14-.92.54-1.06,1.06-.16.58-.05,1.29-.05,1.89,0,1.66-1.35,3.01-3.01,3.01"/><path class="cls-34" d="m300.18,159.69h6.32"/><path class="cls-34" d="m300.18,163.3h2.71"/><text class="cls-52" transform="translate(336.17 171)"><tspan x="0" y="0">R</tspan><tspan class="cls-58" x="4.7" y="0">e</tspan><tspan x="8.91" y="0">visions: 4</tspan><tspan x="0" y="11.15">Ope</tspan><tspan class="cls-54" x="14.11" y="11.15">r</tspan><tspan class="cls-57" x="16.88" y="11.15">a</tspan><tspan x="20.92" y="11.15">ting the Coa</tspan><tspan class="cls-55" x="65.3" y="11.15">r</tspan><tspan x="68.1" y="11.15">se Sc</tspan><tspan class="cls-41" x="87.17" y="11.15">r</tspan><tspan x="89.91" y="11.15">een in I</tspan><tspan class="cls-46" x="115.32" y="11.15">n</tspan><tspan class="cls-56" x="119.79" y="11.15">t</tspan><tspan x="123.18" y="11.15">a</tspan><tspan class="cls-49" x="127.47" y="11.15">k</tspan><tspan x="131.36" y="11.15">e and Sc</tspan><tspan class="cls-41" x="162.05" y="11.15">r</tspan><tspan x="164.79" y="11.15">eening</tspan><tspan x="0" y="33.45">This SOP p</tspan><tspan class="cls-41" x="37.32" y="33.45">r</tspan><tspan class="cls-58" x="40.06" y="33.45">o</tspan><tspan x="44.5" y="33.45">vides d</tspan><tspan class="cls-41" x="70.12" y="33.45">e</tspan><tspan class="cls-56" x="74.33" y="33.45">t</tspan><tspan x="77.73" y="33.45">ailed in</tspan><tspan class="cls-43" x="103.3" y="33.45">s</tspan><tspan x="107.12" y="33.45">tru</tspan><tspan class="cls-41" x="117.96" y="33.45">c</tspan><tspan x="122.23" y="33.45">tions on the ope</tspan><tspan class="cls-54" x="181.41" y="33.45">r</tspan><tspan class="cls-33" x="184.18" y="33.45">a</tspan><tspan x="188.22" y="33.45">tion</tspan><tspan class="cls-37" x="202.67" y="33.45">,</tspan><tspan x="204.47" y="33.45" xml:space="preserve"> mai</tspan><tspan class="cls-46" x="218.92" y="33.45">n</tspan><tspan class="cls-41" x="223.39" y="33.45">t</tspan><tspan x="226.66" y="33.45">enanc</tspan><tspan class="cls-51" x="248.84" y="33.45">e</tspan><tspan class="cls-37" x="253.13" y="33.45">,</tspan><tspan x="254.93" y="33.45" xml:space="preserve"> and </tspan><tspan x="0" y="44.6">t</tspan><tspan class="cls-41" x="3.4" y="44.6">r</tspan><tspan x="6.15" y="44.6">oublesho</tspan><tspan class="cls-41" x="39.34" y="44.6">o</tspan><tspan x="43.78" y="44.6">ting </tspan><tspan class="cls-41" x="60.31" y="44.6">o</tspan><tspan x="64.75" y="44.6">f the coa</tspan><tspan class="cls-43" x="97.38" y="44.6">r</tspan><tspan x="100.17" y="44.6">se sc</tspan><tspan class="cls-41" x="118.62" y="44.6">r</tspan><tspan x="121.36" y="44.6">een used in the i</tspan><tspan class="cls-54" x="180.46" y="44.6">n</tspan><tspan class="cls-38" x="184.93" y="44.6">t</tspan><tspan x="188.33" y="44.6">a</tspan><tspan class="cls-47" x="192.62" y="44.6">k</tspan><tspan x="196.5" y="44.6">e </tspan><tspan class="cls-43" x="202.74" y="44.6">s</tspan><tspan x="206.56" y="44.6">tru</tspan><tspan class="cls-41" x="217.41" y="44.6">c</tspan><tspan x="221.68" y="44.6">tu</tspan><tspan class="cls-41" x="229.64" y="44.6">r</tspan><tspan x="232.39" y="44.6">e </tspan><tspan class="cls-41" x="238.62" y="44.6">t</tspan><tspan x="241.9" y="44.6">o </tspan><tspan class="cls-41" x="248.36" y="44.6">r</tspan><tspan x="251.11" y="44.6">em</tspan><tspan class="cls-58" x="261.82" y="44.6">ov</tspan><tspan x="270.18" y="44.6">e </tspan><tspan x="0" y="55.75">la</tspan><tspan class="cls-41" x="6.19" y="55.75">r</tspan><tspan x="8.94" y="55.75">ge debris f</tspan><tspan class="cls-41" x="47.64" y="55.75">r</tspan><tspan x="50.39" y="55.75">om </tspan><tspan class="cls-46" x="63.22" y="55.75">r</tspan><tspan class="cls-40" x="66" y="55.75">a</tspan><tspan x="70.24" y="55.75">w </tspan><tspan class="cls-50" x="78.03" y="55.75">w</tspan><tspan class="cls-33" x="83.88" y="55.75">a</tspan><tspan class="cls-41" x="87.92" y="55.75">t</tspan><tspan x="91.19" y="55.75">e</tspan><tspan class="cls-44" x="95.53" y="55.75">r</tspan><tspan class="cls-37" x="97.87" y="55.75">.</tspan></text><rect class="cls-31" x="334.32" y="294.03" width="37.17" height="14.87" rx="1.86" ry="1.86"/><text class="cls-45" transform="translate(343.58 304.07)"><tspan x="0" y="0">Open</tspan></text><rect class="cls-12" x="336.17" y="189.96" width="11.15" height="1.86"/><path class="cls-28" d="m353.61,246.12h-6.26v-.75c0-.11-.09-.2-.2-.2h-1.01v-1.21c0-.9-.73-1.62-1.62-1.62h-3.1v-1.06c0-.45-.36-.81-.81-.81h-4.12c-.57,0-1.04.47-1.04,1.04v2.05c0,.57.47,1.04,1.04,1.04h.22v.68c0,.16.13.29.29.29h.59v.55h-1.36c-.28,0-.51.23-.51.51v2.23h-.97c-.29,0-.52.23-.52.52v1.37c0,.29.23.52.52.52h.97v2.23c0,.28.23.51.51.51h.65v1.08h-.35c-.45,0-.81.36-.81.81v.73c0,.11.09.2.2.2h16.95c.11,0,.2-.09.2-.2v-.73c0-.45-.36-.81-.81-.81h-.87v-1.08h2.22c.63,0,1.15-.52,1.15-1.15v-5.59c0-.63-.52-1.15-1.15-1.15Zm-.94,7.49h-8.93c-.15,0-.28-.13-.28-.28v-6.53c0-.15.13-.28.28-.28h8.93v7.09Zm-12.67,1.47v-1.08h1.76c.28,0,.51-.23.51-.51v-.23h.8v.07c0,.37.3.68.68.68h1.44v1.08h-5.18Zm3.07-2.22h-.8v-5.6h.8v5.6Zm-1.2-5.8v6.43c0,.06-.05.11-.11.11h-.6v-7.09h.6c.06,0,.11.05.11.11v.43Zm5.09-.94h-2.02v-.55h2.02v.55Zm-2.43-3.39c.68,0,1.23.55,1.23,1.23v1.21h-1.01c-.11,0-.2.09-.2.2v.75h-.8c-.37,0-.68.3-.68.68v.07h-.8v-.23c0-.28-.23-.51-.51-.51h-2.47v-.55h.68c.11,0,.2-.09.2-.2v-.77h.45c.45,0,.81-.36.81-.81v-1.06h3.1Zm-8.67.83v-2.05c0-.36.29-.65.65-.65h4.12c.23,0,.41.18.41.41v2.52c0,.23-.18.41-.41.41h-4.12c-.36,0-.65-.29-.65-.65Zm1.26,1.04h2.66v.57h-2.66v-.57Zm.88.97h.9v.55h-.9v-.55Zm-3.24,5.3c-.07,0-.12-.06-.12-.12v-1.37c0-.07.06-.12.12-.12h.97v1.61h-.97Zm1.37,2.62v-6.86c0-.06.05-.11.11-.11h4.53v7.09h-4.53c-.06,0-.11-.05-.11-.11Zm1.16.51h2.31v1.08h-2.31v-1.08Zm15.39,1.89v.53h-16.55v-.53c0-.23.18-.41.41-.41h15.73c.23,0,.41.18.41.41Zm-1.68-.81h-5.42v-1.08h5.42v1.08Zm3.37-2.23c0,.42-.34.75-.75.75h-.55v-7.09h.55c.42,0,.75.34.75.75v5.59Z"/><path class="cls-28" d="m344.14,247.81c0,.11.09.2.2.2h7.24c.11,0,.2-.09.2-.2s-.09-.2-.2-.2h-7.24c-.11,0-.2.09-.2.2Z"/><path class="cls-28" d="m351.58,249.12h-7.24c-.11,0-.2.09-.2.2s.09.2.2.2h7.24c.11,0,.2-.09.2-.2s-.09-.2-.2-.2Z"/><path class="cls-28" d="m351.58,250.62h-7.24c-.11,0-.2.09-.2.2s.09.2.2.2h7.24c.11,0,.2-.09.2-.2s-.09-.2-.2-.2Z"/><path class="cls-28" d="m351.58,252.12h-7.24c-.11,0-.2.09-.2.2s.09.2.2.2h7.24c.11,0,.2-.09.2-.2s-.09-.2-.2-.2Z"/><circle class="cls-28" cx="339.76" cy="247.38" r=".31"/><circle class="cls-28" cx="337.11" cy="247.38" r=".31"/><circle class="cls-28" cx="339.76" cy="252.75" r=".31"/><circle class="cls-28" cx="337.11" cy="252.75" r=".31"/><path class="cls-28" d="m351.66,282.88h-14.59v-16.73h14.59v16.73Zm-13.9-.7h13.2v-15.33h-13.2v15.33Z"/><path class="cls-28" d="m337.77,281.5h-2.24v-14.05h2.24v14.05Zm-1.54-.7h.84v-12.65h-.84v12.65Z"/><path class="cls-28" d="m336.23,280.15h-2.12v-11.27h2.12v11.27Zm-1.42-.7h.73v-9.88h-.73v9.88Z"/><path class="cls-28" d="m353.2,281.52h-2.24v-14.05h2.24v14.05Zm-1.54-.7h.84v-12.65h-.84v12.65Z"/><path class="cls-28" d="m354.63,280.1h-2.12v-11.27h2.12v11.27Zm-1.42-.7h.73v-9.88h-.73v9.88Z"/><path class="cls-28" d="m339.13,268.65c.45,0,.45-.7,0-.7s-.45.7,0,.7h0Z"/><path class="cls-28" d="m341.25,268.6c.45,0,.45-.7,0-.7s-.45.7,0,.7h0Z"/><path class="cls-28" d="m343.35,268.63c.45,0,.45-.7,0-.7s-.45.7,0,.7h0Z"/><path class="cls-28" d="m345.4,268.66c.45,0,.45-.7,0-.7s-.45.7,0,.7h0Z"/><path class="cls-28" d="m347.5,268.63c.45,0,.45-.7,0-.7s-.45.7,0,.7h0Z"/><path class="cls-28" d="m349.55,268.64c.45,0,.45-.7,0-.7s-.45.7,0,.7h0Z"/><path class="cls-28" d="m348.53,269.64c.45,0,.45-.7,0-.7s-.45.7,0,.7h0Z"/><path class="cls-28" d="m349.6,270.71c.45,0,.45-.7,0-.7s-.45.7,0,.7h0Z"/><path class="cls-28" d="m348.55,271.73c.45,0,.45-.7,0-.7s-.45.7,0,.7h0Z"/><path class="cls-28" d="m347.53,270.69c.45,0,.45-.7,0-.7s-.45.7,0,.7h0Z"/><path class="cls-28" d="m346.46,269.67c.45,0,.45-.7,0-.7s-.45.7,0,.7h0Z"/><path class="cls-28" d="m345.45,270.7c.45,0,.45-.7,0-.7s-.45.7,0,.7h0Z"/><path class="cls-28" d="m346.45,271.75c.45,0,.45-.7,0-.7s-.45.7,0,.7h0Z"/><path class="cls-28" d="m344.37,269.67c.45,0,.45-.7,0-.7s-.45.7,0,.7h0Z"/><path class="cls-28" d="m342.28,269.65c.45,0,.45-.7,0-.7s-.45.7,0,.7h0Z"/><path class="cls-28" d="m340.2,269.65c.45,0,.45-.7,0-.7s-.45.7,0,.7h0Z"/><path class="cls-28" d="m339.13,270.73c.45,0,.45-.7,0-.7s-.45.7,0,.7h0Z"/><path class="cls-28" d="m340.22,271.79c.45,0,.45-.7,0-.7s-.45.7,0,.7h0Z"/><path class="cls-28" d="m341.25,270.71c.45,0,.45-.7,0-.7s-.45.7,0,.7h0Z"/><path class="cls-28" d="m342.27,271.73c.45,0,.45-.7,0-.7s-.45.7,0,.7h0Z"/><path class="cls-28" d="m343.32,270.68c.45,0,.45-.7,0-.7s-.45.7,0,.7h0Z"/><path class="cls-28" d="m339.13,272.79c.45,0,.45-.7,0-.7s-.45.7,0,.7h0Z"/><path class="cls-28" d="m340.22,273.82c.45,0,.45-.7,0-.7s-.45.7,0,.7h0Z"/><path class="cls-28" d="m341.22,272.75c.45,0,.45-.7,0-.7s-.45.7,0,.7h0Z"/><path class="cls-28" d="m343.28,272.77c.45,0,.45-.7,0-.7s-.45.7,0,.7h0Z"/><path class="cls-28" d="m345.4,272.77c.45,0,.45-.7,0-.7s-.45.7,0,.7h0Z"/><path class="cls-28" d="m344.38,271.75c.45,0,.45-.7,0-.7s-.45.7,0,.7h0Z"/><path class="cls-28" d="m347.45,272.8c.45,0,.45-.7,0-.7s-.45.7,0,.7h0Z"/><path class="cls-28" d="m349.62,272.79c.45,0,.45-.7,0-.7s-.45.7,0,.7h0Z"/><path class="cls-28" d="m348.53,273.76c.45,0,.45-.7,0-.7s-.45.7,0,.7h0Z"/><path class="cls-28" d="m346.49,273.84c.45,0,.45-.7,0-.7s-.45.7,0,.7h0Z"/><path class="cls-28" d="m344.39,273.83c.45,0,.45-.7,0-.7s-.45.7,0,.7h0Z"/><path class="cls-28" d="m342.34,273.86c.45,0,.45-.7,0-.7s-.45.7,0,.7h0Z"/><path class="cls-28" d="m349.61,274.91c.45,0,.45-.7,0-.7s-.45.7,0,.7h0Z"/><path class="cls-28" d="m347.47,274.88c.45,0,.45-.7,0-.7s-.45.7,0,.7h0Z"/><path class="cls-28" d="m345.41,274.89c.45,0,.45-.7,0-.7s-.45.7,0,.7h0Z"/><path class="cls-28" d="m343.31,274.88c.45,0,.45-.7,0-.7s-.45.7,0,.7h0Z"/><path class="cls-28" d="m341.25,274.89c.45,0,.45-.7,0-.7s-.45.7,0,.7h0Z"/><path class="cls-28" d="m339.14,274.9c.45,0,.45-.7,0-.7s-.45.7,0,.7h0Z"/><path class="cls-28" d="m340.2,275.92c.45,0,.45-.7,0-.7s-.45.7,0,.7h0Z"/><path class="cls-28" d="m342.28,275.91c.45,0,.45-.7,0-.7s-.45.7,0,.7h0Z"/><path class="cls-28" d="m344.31,275.91c.45,0,.45-.7,0-.7s-.45.7,0,.7h0Z"/><path class="cls-28" d="m346.43,275.95c.45,0,.45-.7,0-.7s-.45.7,0,.7h0Z"/><path class="cls-28" d="m348.58,275.88c.45,0,.45-.7,0-.7s-.45.7,0,.7h0Z"/><path class="cls-28" d="m349.61,276.95c.45,0,.45-.7,0-.7s-.45.7,0,.7h0Z"/><path class="cls-28" d="m347.47,276.94c.45,0,.45-.7,0-.7s-.45.7,0,.7h0Z"/><path class="cls-28" d="m345.39,276.96c.45,0,.45-.7,0-.7s-.45.7,0,.7h0Z"/><path class="cls-28" d="m343.31,276.99c.45,0,.45-.7,0-.7s-.45.7,0,.7h0Z"/><path class="cls-28" d="m341.26,276.96c.45,0,.45-.7,0-.7s-.45.7,0,.7h0Z"/><path class="cls-28" d="m339.15,276.97c.45,0,.45-.7,0-.7s-.45.7,0,.7h0Z"/><path class="cls-28" d="m340.23,278.03c.45,0,.45-.7,0-.7s-.45.7,0,.7h0Z"/><path class="cls-28" d="m348.54,278.02c.45,0,.45-.7,0-.7s-.45.7,0,.7h0Z"/><path class="cls-28" d="m346.46,278.01c.45,0,.45-.7,0-.7s-.45.7,0,.7h0Z"/><path class="cls-28" d="m344.38,278.01c.45,0,.45-.7,0-.7s-.45.7,0,.7h0Z"/><path class="cls-28" d="m342.29,278.02c.45,0,.45-.7,0-.7s-.45.7,0,.7h0Z"/><path class="cls-28" d="m339.16,279.07c.45,0,.45-.7,0-.7s-.45.7,0,.7h0Z"/><path class="cls-28" d="m341.26,279.05c.45,0,.45-.7,0-.7s-.45.7,0,.7h0Z"/><path class="cls-28" d="m343.31,279.06c.45,0,.45-.7,0-.7s-.45.7,0,.7h0Z"/><path class="cls-28" d="m345.39,279.04c.45,0,.45-.7,0-.7s-.45.7,0,.7h0Z"/><path class="cls-28" d="m347.48,279.06c.45,0,.45-.7,0-.7s-.45.7,0,.7h0Z"/><path class="cls-28" d="m349.62,279.03c.45,0,.45-.7,0-.7s-.45.7,0,.7h0Z"/><path class="cls-28" d="m348.56,280.09c.45,0,.45-.7,0-.7s-.45.7,0,.7h0Z"/><path class="cls-28" d="m346.45,280.08c.45,0,.45-.7,0-.7s-.45.7,0,.7h0Z"/><path class="cls-28" d="m344.39,280.08c.45,0,.45-.7,0-.7s-.45.7,0,.7h0Z"/><path class="cls-28" d="m342.29,280.12c.45,0,.45-.7,0-.7s-.45.7,0,.7h0Z"/><path class="cls-28" d="m340.22,280.12c.45,0,.45-.7,0-.7s-.45.7,0,.7h0Z"/><path class="cls-28" d="m339.13,281.17c.45,0,.45-.7,0-.7s-.45.7,0,.7h0Z"/><path class="cls-28" d="m341.25,281.12c.45,0,.45-.7,0-.7s-.45.7,0,.7h0Z"/><path class="cls-28" d="m343.33,281.14c.45,0,.45-.7,0-.7s-.45.7,0,.7h0Z"/><path class="cls-28" d="m345.43,281.1c.45,0,.45-.7,0-.7s-.45.7,0,.7h0Z"/><path class="cls-28" d="m347.51,281.16c.45,0,.45-.7,0-.7s-.45.7,0,.7h0Z"/><path class="cls-28" d="m349.6,281.12c.45,0,.45-.7,0-.7s-.45.7,0,.7h0Z"/><text class="cls-53" transform="translate(363.94 252.05)"><tspan x="0" y="0">I</tspan><tspan class="cls-54" x="1.96" y="0">n</tspan><tspan class="cls-48" x="6.44" y="0">ta</tspan><tspan class="cls-32" x="14.12" y="0">k</tspan><tspan x="18.09" y="0">e Pump</tspan><tspan class="cls-59" x="44.43" y="0" xml:space="preserve"> -</tspan><tspan x="49.14" y="0"> </tspan><tspan class="cls-32" x="51.03" y="0">P</tspan><tspan x="55.3" y="0">-100-03</tspan></text><text class="cls-53" transform="translate(363.87 276.15)"><tspan x="0" y="0">Coa</tspan><tspan class="cls-39" x="13.63" y="0">r</tspan><tspan x="16.49" y="0">se Sc</tspan><tspan class="cls-41" x="35.42" y="0">r</tspan><tspan x="38.23" y="0">een</tspan><tspan class="cls-59" x="51.39" y="0" xml:space="preserve"> -</tspan><tspan x="56.1" y="0" xml:space="preserve"> S-100-01</tspan></text><rect class="cls-12" x="336.17" y="232.7" width="11.15" height="1.86"/><rect class="cls-18" x="300.06" y="149.81" width="375.41" height="204.43" rx="1" ry="1"/><rect class="cls-31" x="318.65" y="172.11" width="37.17" height="37.17" rx="1.86" ry="1.86"/><path class="cls-16" d="m368.55,184.4l2.05-7.81h2.56l2.05,7.81h-1.52l-.42-1.72h-2.79l-.42,1.72h-1.52Zm2.28-3.08h2.1l-.95-3.8h-.2l-.95,3.8Z"/><path class="cls-16" d="m376.16,184.4v-7.81h2.73l1.35,6.8h.2l1.35-6.8h2.73v7.81h-1.43v-6.72h-.2l-1.34,6.72h-2.43l-1.34-6.72h-.2v6.72h-1.43Z"/><path class="cls-16" d="m388.7,184.56c-.6,0-1.13-.11-1.59-.32s-.82-.52-1.08-.93-.39-.89-.39-1.45v-.31h1.45v.31c0,.47.14.82.43,1.05s.68.35,1.18.35.88-.1,1.13-.3c.25-.2.37-.46.37-.77,0-.21-.06-.39-.18-.52-.12-.13-.3-.24-.54-.33-.23-.09-.52-.17-.85-.24l-.26-.05c-.54-.12-.99-.27-1.38-.45-.38-.18-.68-.42-.88-.72-.21-.3-.31-.68-.31-1.16s.11-.88.34-1.22c.23-.34.55-.6.96-.78.41-.18.9-.27,1.46-.27s1.05.09,1.49.28c.44.19.78.47,1.03.85s.37.85.37,1.41v.33h-1.45v-.33c0-.3-.06-.54-.17-.72-.11-.18-.28-.32-.5-.4-.22-.09-.47-.13-.77-.13-.45,0-.77.08-.99.25s-.32.4-.32.69c0,.19.05.36.15.49.1.13.25.25.45.34.2.09.46.17.77.23l.26.05c.56.12,1.04.27,1.46.46.41.19.73.43.96.74s.35.7.35,1.17-.12.89-.36,1.25-.58.64-1.03.85c-.44.21-.97.31-1.57.31Z"/><path class="cls-16" d="m392.77,182.19v-1.27h3.3v1.27h-3.3Z"/><path class="cls-16" d="m400.6,184.56c-.98,0-1.76-.27-2.34-.81-.58-.54-.87-1.31-.87-2.31v-1.87c0-1,.29-1.77.87-2.31.58-.54,1.36-.81,2.34-.81s1.76.27,2.34.81c.58.54.87,1.31.87,2.31v1.87c0,1-.29,1.77-.87,2.31-.58.54-1.36.81-2.34.81Zm0-1.32c.55,0,.98-.16,1.28-.48s.46-.75.46-1.28v-1.96c0-.54-.15-.96-.46-1.28-.3-.32-.73-.48-1.28-.48s-.97.16-1.28.48c-.31.32-.46.75-.46,1.28v1.96c0,.54.15.96.46,1.28s.74.48,1.28.48Z"/><path class="cls-16" d="m405.1,184.4v-7.81h3.21c.49,0,.92.1,1.3.3.38.2.67.47.88.83.21.36.32.78.32,1.27v.16c0,.48-.11.91-.33,1.27-.22.36-.52.64-.89.83-.37.2-.8.3-1.28.3h-1.74v2.85h-1.47Zm1.47-4.19h1.59c.35,0,.63-.1.85-.29.22-.19.32-.46.32-.79v-.11c0-.33-.11-.6-.32-.79-.22-.19-.5-.29-.85-.29h-1.59v2.28Z"/><path class="cls-16" d="m414.55,184.56c-.6,0-1.13-.11-1.59-.32s-.82-.52-1.08-.93-.39-.89-.39-1.45v-.31h1.45v.31c0,.47.14.82.43,1.05s.68.35,1.18.35.88-.1,1.13-.3c.25-.2.37-.46.37-.77,0-.21-.06-.39-.18-.52-.12-.13-.3-.24-.54-.33-.23-.09-.52-.17-.85-.24l-.26-.05c-.54-.12-.99-.27-1.38-.45-.38-.18-.68-.42-.88-.72-.21-.3-.31-.68-.31-1.16s.11-.88.34-1.22c.23-.34.55-.6.96-.78.41-.18.9-.27,1.46-.27s1.05.09,1.49.28c.44.19.78.47,1.03.85s.37.85.37,1.41v.33h-1.45v-.33c0-.3-.06-.54-.17-.72-.11-.18-.28-.32-.5-.4-.22-.09-.47-.13-.77-.13-.45,0-.77.08-.99.25s-.32.4-.32.69c0,.19.05.36.15.49.1.13.25.25.45.34.2.09.46.17.77.23l.26.05c.56.12,1.04.27,1.46.46.41.19.73.43.96.74s.35.7.35,1.17-.12.89-.36,1.25-.58.64-1.03.85c-.44.21-.97.31-1.57.31Z"/><path class="cls-16" d="m418.62,182.19v-1.27h3.3v1.27h-3.3Z"/><path class="cls-16" d="m426.12,184.56c-.6,0-1.13-.11-1.59-.32s-.82-.52-1.08-.93-.39-.89-.39-1.45v-.31h1.45v.31c0,.47.14.82.43,1.05s.68.35,1.18.35.88-.1,1.13-.3c.25-.2.37-.46.37-.77,0-.21-.06-.39-.18-.52-.12-.13-.3-.24-.54-.33-.23-.09-.52-.17-.85-.24l-.26-.05c-.54-.12-.99-.27-1.38-.45-.38-.18-.68-.42-.88-.72-.21-.3-.31-.68-.31-1.16s.11-.88.34-1.22c.23-.34.55-.6.96-.78.41-.18.9-.27,1.46-.27s1.05.09,1.49.28c.44.19.78.47,1.03.85s.37.85.37,1.41v.33h-1.45v-.33c0-.3-.06-.54-.17-.72-.11-.18-.28-.32-.5-.4-.22-.09-.47-.13-.77-.13-.45,0-.77.08-.99.25s-.32.4-.32.69c0,.19.05.36.15.49.1.13.25.25.45.34.2.09.46.17.77.23l.26.05c.56.12,1.04.27,1.46.46.41.19.73.43.96.74s.35.7.35,1.17-.12.89-.36,1.25-.58.64-1.03.85c-.44.21-.97.31-1.57.31Z"/><path class="cls-16" d="m433.2,184.56c-.98,0-1.76-.27-2.34-.81-.58-.54-.87-1.31-.87-2.31v-1.87c0-1,.29-1.77.87-2.31.58-.54,1.36-.81,2.34-.81s1.76.27,2.34.81c.58.54.87,1.31.87,2.31v1.87c0,1-.29,1.77-.87,2.31-.58.54-1.36.81-2.34.81Zm0-1.32c.55,0,.98-.16,1.28-.48s.46-.75.46-1.28v-1.96c0-.54-.15-.96-.46-1.28-.3-.32-.73-.48-1.28-.48s-.97.16-1.28.48c-.31.32-.46.75-.46,1.28v1.96c0,.54.15.96.46,1.28s.74.48,1.28.48Z"/><path class="cls-16" d="m437.71,184.4v-7.81h3.21c.49,0,.92.1,1.3.3.38.2.67.47.88.83.21.36.32.78.32,1.27v.16c0,.48-.11.91-.33,1.27-.22.36-.52.64-.89.83-.37.2-.8.3-1.28.3h-1.74v2.85h-1.47Zm1.47-4.19h1.59c.35,0,.63-.1.85-.29.22-.19.32-.46.32-.79v-.11c0-.33-.11-.6-.32-.79-.22-.19-.5-.29-.85-.29h-1.59v2.28Z"/><path class="cls-16" d="m444.13,182.19v-1.27h3.3v1.27h-3.3Z"/><path class="cls-16" d="m451.8,184.56c-.92,0-1.66-.25-2.22-.76-.56-.51-.84-1.28-.84-2.31v-1.96c0-1,.28-1.77.84-2.29.56-.52,1.3-.79,2.22-.79s1.67.26,2.22.79c.55.52.83,1.29.83,2.29v1.96c0,1.03-.28,1.81-.83,2.31-.55.51-1.29.76-2.22.76Zm0-1.27c.56,0,.97-.15,1.23-.46.26-.3.4-.74.4-1.3v-2.07c0-.57-.15-1.01-.44-1.3-.29-.29-.69-.44-1.19-.44s-.91.15-1.2.46-.43.73-.43,1.28v2.07c0,.59.13,1.03.41,1.32.27.29.68.44,1.22.44Z"/><path class="cls-16" d="m459.03,184.56c-.92,0-1.66-.25-2.22-.76-.56-.51-.84-1.28-.84-2.31v-1.96c0-1,.28-1.77.84-2.29.56-.52,1.3-.79,2.22-.79s1.67.26,2.22.79c.55.52.83,1.29.83,2.29v1.96c0,1.03-.28,1.81-.83,2.31-.55.51-1.29.76-2.22.76Zm0-1.27c.56,0,.97-.15,1.23-.46.26-.3.4-.74.4-1.3v-2.07c0-.57-.15-1.01-.44-1.3-.29-.29-.69-.44-1.19-.44s-.91.15-1.2.46-.43.73-.43,1.28v2.07c0,.59.13,1.03.41,1.32.27.29.68.44,1.22.44Z"/><path class="cls-16" d="m465.51,184.4v-6.76h-.2l-1.05,2.48h-1.49l1.59-3.52h2.58v7.81h-1.43Z"/><path class="cls-35" d="m328.77,189.16c0-3.4,0-5.11,1.12-6.16,1.12-1.06,2.93-1.06,6.55-1.06h.7c2.94,0,4.42,0,5.44.72.29.21.55.45.77.73.77.96.77,2.35.77,5.12v2.3c0,2.68,0,4.01-.42,5.08-.68,1.72-2.12,3.07-3.94,3.71-1.13.4-2.56.4-5.4.4-1.62,0-2.44,0-3.08-.23-1.04-.37-1.87-1.14-2.25-2.12-.24-.61-.24-1.37-.24-2.9v-5.58Z"/><path class="cls-34" d="m344.12,190.96c0,1.66-1.35,3.01-3.01,3.01-.6,0-1.31-.11-1.89.05-.52.14-.92.54-1.06,1.06-.16.58-.05,1.29-.05,1.89,0,1.66-1.35,3.01-3.01,3.01"/><path class="cls-34" d="m332.83,186.45h6.32"/><path class="cls-34" d="m332.83,190.06h2.71"/><text class="cls-52" transform="translate(368.83 197.76)"><tspan x="0" y="0">R</tspan><tspan class="cls-58" x="4.7" y="0">e</tspan><tspan x="8.91" y="0">visions: 4</tspan><tspan x="0" y="11.15">Ope</tspan><tspan class="cls-54" x="14.11" y="11.15">r</tspan><tspan class="cls-57" x="16.88" y="11.15">a</tspan><tspan x="20.92" y="11.15">ting the Coa</tspan><tspan class="cls-55" x="65.3" y="11.15">r</tspan><tspan x="68.1" y="11.15">se Sc</tspan><tspan class="cls-41" x="87.17" y="11.15">r</tspan><tspan x="89.91" y="11.15">een in I</tspan><tspan class="cls-46" x="115.32" y="11.15">n</tspan><tspan class="cls-56" x="119.79" y="11.15">t</tspan><tspan x="123.18" y="11.15">a</tspan><tspan class="cls-49" x="127.47" y="11.15">k</tspan><tspan x="131.36" y="11.15">e and Sc</tspan><tspan class="cls-41" x="162.05" y="11.15">r</tspan><tspan x="164.79" y="11.15">eening</tspan><tspan x="0" y="33.45">This SOP p</tspan><tspan class="cls-41" x="37.32" y="33.45">r</tspan><tspan class="cls-58" x="40.06" y="33.45">o</tspan><tspan x="44.5" y="33.45">vides d</tspan><tspan class="cls-41" x="70.12" y="33.45">e</tspan><tspan class="cls-56" x="74.33" y="33.45">t</tspan><tspan x="77.73" y="33.45">ailed in</tspan><tspan class="cls-43" x="103.3" y="33.45">s</tspan><tspan x="107.12" y="33.45">tru</tspan><tspan class="cls-41" x="117.96" y="33.45">c</tspan><tspan x="122.23" y="33.45">tions on the ope</tspan><tspan class="cls-54" x="181.41" y="33.45">r</tspan><tspan class="cls-33" x="184.18" y="33.45">a</tspan><tspan x="188.22" y="33.45">tion</tspan><tspan class="cls-37" x="202.67" y="33.45">,</tspan><tspan x="204.47" y="33.45" xml:space="preserve"> mai</tspan><tspan class="cls-46" x="218.92" y="33.45">n</tspan><tspan class="cls-41" x="223.39" y="33.45">t</tspan><tspan x="226.66" y="33.45">enanc</tspan><tspan class="cls-51" x="248.84" y="33.45">e</tspan><tspan class="cls-37" x="253.13" y="33.45">,</tspan><tspan x="254.93" y="33.45" xml:space="preserve"> and </tspan><tspan x="0" y="44.6">t</tspan><tspan class="cls-41" x="3.4" y="44.6">r</tspan><tspan x="6.15" y="44.6">oublesho</tspan><tspan class="cls-41" x="39.34" y="44.6">o</tspan><tspan x="43.78" y="44.6">ting </tspan><tspan class="cls-41" x="60.31" y="44.6">o</tspan><tspan x="64.75" y="44.6">f the coa</tspan><tspan class="cls-43" x="97.38" y="44.6">r</tspan><tspan x="100.17" y="44.6">se sc</tspan><tspan class="cls-41" x="118.62" y="44.6">r</tspan><tspan x="121.36" y="44.6">een used in the i</tspan><tspan class="cls-54" x="180.46" y="44.6">n</tspan><tspan class="cls-38" x="184.93" y="44.6">t</tspan><tspan x="188.33" y="44.6">a</tspan><tspan class="cls-47" x="192.62" y="44.6">k</tspan><tspan x="196.5" y="44.6">e </tspan><tspan class="cls-43" x="202.74" y="44.6">s</tspan><tspan x="206.56" y="44.6">tru</tspan><tspan class="cls-41" x="217.41" y="44.6">c</tspan><tspan x="221.68" y="44.6">tu</tspan><tspan class="cls-41" x="229.64" y="44.6">r</tspan><tspan x="232.39" y="44.6">e </tspan><tspan class="cls-41" x="238.62" y="44.6">t</tspan><tspan x="241.9" y="44.6">o </tspan><tspan class="cls-41" x="248.36" y="44.6">r</tspan><tspan x="251.11" y="44.6">em</tspan><tspan class="cls-58" x="261.82" y="44.6">ov</tspan><tspan x="270.18" y="44.6">e </tspan><tspan x="0" y="55.75">la</tspan><tspan class="cls-41" x="6.19" y="55.75">r</tspan><tspan x="8.94" y="55.75">ge debris f</tspan><tspan class="cls-41" x="47.64" y="55.75">r</tspan><tspan x="50.39" y="55.75">om </tspan><tspan class="cls-46" x="63.22" y="55.75">r</tspan><tspan class="cls-40" x="66" y="55.75">a</tspan><tspan x="70.24" y="55.75">w </tspan><tspan class="cls-50" x="78.03" y="55.75">w</tspan><tspan class="cls-33" x="83.88" y="55.75">a</tspan><tspan class="cls-41" x="87.92" y="55.75">t</tspan><tspan x="91.19" y="55.75">e</tspan><tspan class="cls-44" x="95.53" y="55.75">r</tspan><tspan class="cls-37" x="97.87" y="55.75">.</tspan></text><rect class="cls-31" x="366.97" y="320.79" width="37.17" height="14.87" rx="1.86" ry="1.86"/><text class="cls-45" transform="translate(376.23 330.83)"><tspan x="0" y="0">Open</tspan></text><rect class="cls-12" x="368.83" y="216.72" width="11.15" height="1.86"/><path class="cls-28" d="m386.26,272.89h-6.26v-.75c0-.11-.09-.2-.2-.2h-1.01v-1.21c0-.9-.73-1.62-1.62-1.62h-3.1v-1.06c0-.45-.36-.81-.81-.81h-4.12c-.57,0-1.04.47-1.04,1.04v2.05c0,.57.47,1.04,1.04,1.04h.22v.68c0,.16.13.29.29.29h.59v.55h-1.36c-.28,0-.51.23-.51.51v2.23h-.97c-.29,0-.52.23-.52.52v1.37c0,.29.23.52.52.52h.97v2.23c0,.28.23.51.51.51h.65v1.08h-.35c-.45,0-.81.36-.81.81v.73c0,.11.09.2.2.2h16.95c.11,0,.2-.09.2-.2v-.73c0-.45-.36-.81-.81-.81h-.87v-1.08h2.22c.63,0,1.15-.52,1.15-1.15v-5.59c0-.63-.52-1.15-1.15-1.15Zm-.94,7.49h-8.93c-.15,0-.28-.13-.28-.28v-6.53c0-.15.13-.28.28-.28h8.93v7.09Zm-12.67,1.47v-1.08h1.76c.28,0,.51-.23.51-.51v-.23h.8v.07c0,.37.3.68.68.68h1.44v1.08h-5.18Zm3.07-2.22h-.8v-5.6h.8v5.6Zm-1.2-5.8v6.43c0,.06-.05.11-.11.11h-.6v-7.09h.6c.06,0,.11.05.11.11v.43Zm5.09-.94h-2.02v-.55h2.02v.55Zm-2.43-3.39c.68,0,1.23.55,1.23,1.23v1.21h-1.01c-.11,0-.2.09-.2.2v.75h-.8c-.37,0-.68.3-.68.68v.07h-.8v-.23c0-.28-.23-.51-.51-.51h-2.47v-.55h.68c.11,0,.2-.09.2-.2v-.77h.45c.45,0,.81-.36.81-.81v-1.06h3.1Zm-8.67.83v-2.05c0-.36.29-.65.65-.65h4.12c.23,0,.41.18.41.41v2.52c0,.23-.18.41-.41.41h-4.12c-.36,0-.65-.29-.65-.65Zm1.26,1.04h2.66v.57h-2.66v-.57Zm.88.97h.9v.55h-.9v-.55Zm-3.24,5.3c-.07,0-.12-.06-.12-.12v-1.37c0-.07.06-.12.12-.12h.97v1.61h-.97Zm1.37,2.62v-6.86c0-.06.05-.11.11-.11h4.53v7.09h-4.53c-.06,0-.11-.05-.11-.11Zm1.16.51h2.31v1.08h-2.31v-1.08Zm15.39,1.89v.53h-16.55v-.53c0-.23.18-.41.41-.41h15.73c.23,0,.41.18.41.41Zm-1.68-.81h-5.42v-1.08h5.42v1.08Zm3.37-2.23c0,.42-.34.75-.75.75h-.55v-7.09h.55c.42,0,.75.34.75.75v5.59Z"/><path class="cls-28" d="m376.79,274.57c0,.11.09.2.2.2h7.24c.11,0,.2-.09.2-.2s-.09-.2-.2-.2h-7.24c-.11,0-.2.09-.2.2Z"/><path class="cls-28" d="m384.23,275.88h-7.24c-.11,0-.2.09-.2.2s.09.2.2.2h7.24c.11,0,.2-.09.2-.2s-.09-.2-.2-.2Z"/><path class="cls-28" d="m384.23,277.38h-7.24c-.11,0-.2.09-.2.2s.09.2.2.2h7.24c.11,0,.2-.09.2-.2s-.09-.2-.2-.2Z"/><path class="cls-28" d="m384.23,278.89h-7.24c-.11,0-.2.09-.2.2s.09.2.2.2h7.24c.11,0,.2-.09.2-.2s-.09-.2-.2-.2Z"/><circle class="cls-28" cx="372.42" cy="274.14" r=".31"/><circle class="cls-28" cx="369.76" cy="274.14" r=".31"/><circle class="cls-28" cx="372.42" cy="279.52" r=".31"/><circle class="cls-28" cx="369.76" cy="279.52" r=".31"/><path class="cls-28" d="m384.31,309.64h-14.59v-16.73h14.59v16.73Zm-13.9-.7h13.2v-15.33h-13.2v15.33Z"/><path class="cls-28" d="m370.42,308.27h-2.24v-14.05h2.24v14.05Zm-1.54-.7h.84v-12.65h-.84v12.65Z"/><path class="cls-28" d="m368.88,306.91h-2.12v-11.27h2.12v11.27Zm-1.42-.7h.73v-9.88h-.73v9.88Z"/><path class="cls-28" d="m385.86,308.29h-2.24v-14.05h2.24v14.05Zm-1.54-.7h.84v-12.65h-.84v12.65Z"/><path class="cls-28" d="m387.28,306.86h-2.12v-11.27h2.12v11.27Zm-1.42-.7h.73v-9.88h-.73v9.88Z"/><path class="cls-28" d="m371.78,295.41c.45,0,.45-.7,0-.7s-.45.7,0,.7h0Z"/><path class="cls-28" d="m373.9,295.37c.45,0,.45-.7,0-.7s-.45.7,0,.7h0Z"/><path class="cls-28" d="m376,295.39c.45,0,.45-.7,0-.7s-.45.7,0,.7h0Z"/><path class="cls-28" d="m378.05,295.42c.45,0,.45-.7,0-.7s-.45.7,0,.7h0Z"/><path class="cls-28" d="m380.15,295.39c.45,0,.45-.7,0-.7s-.45.7,0,.7h0Z"/><path class="cls-28" d="m382.2,295.4c.45,0,.45-.7,0-.7s-.45.7,0,.7h0Z"/><path class="cls-28" d="m381.18,296.4c.45,0,.45-.7,0-.7s-.45.7,0,.7h0Z"/><path class="cls-28" d="m382.25,297.48c.45,0,.45-.7,0-.7s-.45.7,0,.7h0Z"/><path class="cls-28" d="m381.2,298.5c.45,0,.45-.7,0-.7s-.45.7,0,.7h0Z"/><path class="cls-28" d="m380.18,297.45c.45,0,.45-.7,0-.7s-.45.7,0,.7h0Z"/><path class="cls-28" d="m379.12,296.43c.45,0,.45-.7,0-.7s-.45.7,0,.7h0Z"/><path class="cls-28" d="m378.1,297.46c.45,0,.45-.7,0-.7s-.45.7,0,.7h0Z"/><path class="cls-28" d="m379.1,298.51c.45,0,.45-.7,0-.7s-.45.7,0,.7h0Z"/><path class="cls-28" d="m377.02,296.43c.45,0,.45-.7,0-.7s-.45.7,0,.7h0Z"/><path class="cls-28" d="m374.93,296.41c.45,0,.45-.7,0-.7s-.45.7,0,.7h0Z"/><path class="cls-28" d="m372.86,296.41c.45,0,.45-.7,0-.7s-.45.7,0,.7h0Z"/><path class="cls-28" d="m371.78,297.49c.45,0,.45-.7,0-.7s-.45.7,0,.7h0Z"/><path class="cls-28" d="m372.87,298.55c.45,0,.45-.7,0-.7s-.45.7,0,.7h0Z"/><path class="cls-28" d="m373.9,297.48c.45,0,.45-.7,0-.7s-.45.7,0,.7h0Z"/><path class="cls-28" d="m374.92,298.5c.45,0,.45-.7,0-.7s-.45.7,0,.7h0Z"/><path class="cls-28" d="m375.97,297.44c.45,0,.45-.7,0-.7s-.45.7,0,.7h0Z"/><path class="cls-28" d="m371.78,299.55c.45,0,.45-.7,0-.7s-.45.7,0,.7h0Z"/><path class="cls-28" d="m372.87,300.58c.45,0,.45-.7,0-.7s-.45.7,0,.7h0Z"/><path class="cls-28" d="m373.88,299.52c.45,0,.45-.7,0-.7s-.45.7,0,.7h0Z"/><path class="cls-28" d="m375.93,299.53c.45,0,.45-.7,0-.7s-.45.7,0,.7h0Z"/><path class="cls-28" d="m378.05,299.53c.45,0,.45-.7,0-.7s-.45.7,0,.7h0Z"/><path class="cls-28" d="m377.03,298.51c.45,0,.45-.7,0-.7s-.45.7,0,.7h0Z"/><path class="cls-28" d="m380.1,299.56c.45,0,.45-.7,0-.7s-.45.7,0,.7h0Z"/><path class="cls-28" d="m382.27,299.55c.45,0,.45-.7,0-.7s-.45.7,0,.7h0Z"/><path class="cls-28" d="m381.18,300.52c.45,0,.45-.7,0-.7s-.45.7,0,.7h0Z"/><path class="cls-28" d="m379.14,300.61c.45,0,.45-.7,0-.7s-.45.7,0,.7h0Z"/><path class="cls-28" d="m377.04,300.59c.45,0,.45-.7,0-.7s-.45.7,0,.7h0Z"/><path class="cls-28" d="m374.99,300.62c.45,0,.45-.7,0-.7s-.45.7,0,.7h0Z"/><path class="cls-28" d="m382.26,301.67c.45,0,.45-.7,0-.7s-.45.7,0,.7h0Z"/><path class="cls-28" d="m380.12,301.64c.45,0,.45-.7,0-.7s-.45.7,0,.7h0Z"/><path class="cls-28" d="m378.06,301.65c.45,0,.45-.7,0-.7s-.45.7,0,.7h0Z"/><path class="cls-28" d="m375.96,301.64c.45,0,.45-.7,0-.7s-.45.7,0,.7h0Z"/><path class="cls-28" d="m373.9,301.65c.45,0,.45-.7,0-.7s-.45.7,0,.7h0Z"/><path class="cls-28" d="m371.79,301.66c.45,0,.45-.7,0-.7s-.45.7,0,.7h0Z"/><path class="cls-28" d="m372.86,302.68c.45,0,.45-.7,0-.7s-.45.7,0,.7h0Z"/><path class="cls-28" d="m374.93,302.67c.45,0,.45-.7,0-.7s-.45.7,0,.7h0Z"/><path class="cls-28" d="m376.96,302.67c.45,0,.45-.7,0-.7s-.45.7,0,.7h0Z"/><path class="cls-28" d="m379.08,302.72c.45,0,.45-.7,0-.7s-.45.7,0,.7h0Z"/><path class="cls-28" d="m381.23,302.65c.45,0,.45-.7,0-.7s-.45.7,0,.7h0Z"/><path class="cls-28" d="m382.26,303.71c.45,0,.45-.7,0-.7s-.45.7,0,.7h0Z"/><path class="cls-28" d="m380.12,303.7c.45,0,.45-.7,0-.7s-.45.7,0,.7h0Z"/><path class="cls-28" d="m378.04,303.72c.45,0,.45-.7,0-.7s-.45.7,0,.7h0Z"/><path class="cls-28" d="m375.96,303.75c.45,0,.45-.7,0-.7s-.45.7,0,.7h0Z"/><path class="cls-28" d="m373.91,303.72c.45,0,.45-.7,0-.7s-.45.7,0,.7h0Z"/><path class="cls-28" d="m371.8,303.74c.45,0,.45-.7,0-.7s-.45.7,0,.7h0Z"/><path class="cls-28" d="m372.88,304.79c.45,0,.45-.7,0-.7s-.45.7,0,.7h0Z"/><path class="cls-28" d="m381.19,304.78c.45,0,.45-.7,0-.7s-.45.7,0,.7h0Z"/><path class="cls-28" d="m379.12,304.77c.45,0,.45-.7,0-.7s-.45.7,0,.7h0Z"/><path class="cls-28" d="m377.03,304.77c.45,0,.45-.7,0-.7s-.45.7,0,.7h0Z"/><path class="cls-28" d="m374.94,304.78c.45,0,.45-.7,0-.7s-.45.7,0,.7h0Z"/><path class="cls-28" d="m371.81,305.83c.45,0,.45-.7,0-.7s-.45.7,0,.7h0Z"/><path class="cls-28" d="m373.91,305.81c.45,0,.45-.7,0-.7s-.45.7,0,.7h0Z"/><path class="cls-28" d="m375.96,305.82c.45,0,.45-.7,0-.7s-.45.7,0,.7h0Z"/><path class="cls-28" d="m378.04,305.8c.45,0,.45-.7,0-.7s-.45.7,0,.7h0Z"/><path class="cls-28" d="m380.14,305.82c.45,0,.45-.7,0-.7s-.45.7,0,.7h0Z"/><path class="cls-28" d="m382.27,305.79c.45,0,.45-.7,0-.7s-.45.7,0,.7h0Z"/><path class="cls-28" d="m381.22,306.85c.45,0,.45-.7,0-.7s-.45.7,0,.7h0Z"/><path class="cls-28" d="m379.1,306.84c.45,0,.45-.7,0-.7s-.45.7,0,.7h0Z"/><path class="cls-28" d="m377.04,306.84c.45,0,.45-.7,0-.7s-.45.7,0,.7h0Z"/><path class="cls-28" d="m374.94,306.88c.45,0,.45-.7,0-.7s-.45.7,0,.7h0Z"/><path class="cls-28" d="m372.87,306.88c.45,0,.45-.7,0-.7s-.45.7,0,.7h0Z"/><path class="cls-28" d="m371.78,307.93c.45,0,.45-.7,0-.7s-.45.7,0,.7h0Z"/><path class="cls-28" d="m373.9,307.89c.45,0,.45-.7,0-.7s-.45.7,0,.7h0Z"/><path class="cls-28" d="m375.99,307.9c.45,0,.45-.7,0-.7s-.45.7,0,.7h0Z"/><path class="cls-28" d="m378.09,307.86c.45,0,.45-.7,0-.7s-.45.7,0,.7h0Z"/><path class="cls-28" d="m380.16,307.92c.45,0,.45-.7,0-.7s-.45.7,0,.7h0Z"/><path class="cls-28" d="m382.25,307.89c.45,0,.45-.7,0-.7s-.45.7,0,.7h0Z"/><text class="cls-53" transform="translate(396.59 278.81)"><tspan x="0" y="0">I</tspan><tspan class="cls-54" x="1.96" y="0">n</tspan><tspan class="cls-48" x="6.44" y="0">ta</tspan><tspan class="cls-32" x="14.12" y="0">k</tspan><tspan x="18.09" y="0">e Pump</tspan><tspan class="cls-59" x="44.43" y="0" xml:space="preserve"> -</tspan><tspan x="49.14" y="0"> </tspan><tspan class="cls-32" x="51.03" y="0">P</tspan><tspan x="55.3" y="0">-100-03</tspan></text><text class="cls-53" transform="translate(396.52 302.91)"><tspan x="0" y="0">Coa</tspan><tspan class="cls-39" x="13.63" y="0">r</tspan><tspan x="16.49" y="0">se Sc</tspan><tspan class="cls-41" x="35.42" y="0">r</tspan><tspan x="38.23" y="0">een</tspan><tspan class="cls-59" x="51.39" y="0" xml:space="preserve"> -</tspan><tspan x="56.1" y="0" xml:space="preserve"> S-100-01</tspan></text><rect class="cls-12" x="368.83" y="259.46" width="11.15" height="1.86"/></svg>