<?xml version="1.0" encoding="UTF-8"?>
<svg id="Capa_1" data-name="Capa 1" xmlns="http://www.w3.org/2000/svg" xmlns:xlink="http://www.w3.org/1999/xlink" viewBox="0 0 373.51 268.42">
  <defs>
    <style>
      .cls-1 {
        fill: none;
      }

      .cls-2 {
        fill: #282323;
        opacity: .1;
      }

      .cls-3 {
        clip-path: url(#clippath);
      }

      .cls-4 {
        fill: #f4a39b;
      }

      .cls-5, .cls-6 {
        fill: #f6f6f6;
      }

      .cls-7 {
        fill: #ed6a4c;
      }

      .cls-8 {
        fill: #ededed;
      }

      .cls-9 {
        fill: #fff;
      }

      .cls-10 {
        fill: #9d9d9c;
      }

      .cls-11 {
        fill: #dadada;
      }

      .cls-12 {
        fill: #1d1d1b;
      }

      .cls-13, .cls-14 {
        fill: #34b9ca;
      }

      .cls-15 {
        fill: #192441;
      }

      .cls-16 {
        fill: #283d56;
      }

      .cls-17 {
        clip-path: url(#clippath-1);
      }

      .cls-6 {
        opacity: .2;
      }

      .cls-14 {
        opacity: .5;
      }

      .cls-18 {
        fill: #121a2d;
        opacity: .29;
      }
    </style>
    <clipPath id="clippath">
      <rect class="cls-1" x="40.71" y="34.84" width="292.1" height="208.42" rx="12.13" ry="12.13"/>
    </clipPath>
    <clipPath id="clippath-1">
      <rect class="cls-1" x="-352.81" y="34.84" width="292.1" height="208.42" rx="12.13" ry="12.13"/>
    </clipPath>
  </defs>
  <g>
    <path class="cls-16" d="m332.81,231.14V46.97c0-6.7-5.43-12.13-12.13-12.13h-123.12v208.42h123.12c6.7,0,12.13-5.43,12.13-12.13Z"/>
    <g>
      <rect class="cls-8" x="214.95" y="65.89" width="100.46" height="144.72" rx="7.04" ry="7.04"/>
      <rect class="cls-9" x="220.66" y="71.09" width="89.04" height="89.04" rx="3.37" ry="3.37"/>
      <g>
        <rect class="cls-12" x="225.19" y="75.62" width="3.2" height="19.2"/>
        <rect class="cls-12" x="225.19" y="94.81" width="3.2" height="3.2"/>
        <rect class="cls-12" x="225.19" y="101.21" width="3.2" height="9.6"/>
        <rect class="cls-12" x="225.19" y="120.4" width="3.2" height="3.2"/>
        <rect class="cls-12" x="225.19" y="126.8" width="3.2" height="3.2"/>
        <rect class="cls-12" x="225.19" y="133.2" width="3.2" height="6.4"/>
        <rect class="cls-12" x="225.19" y="139.6" width="3.2" height="9.6"/>
        <rect class="cls-12" x="225.19" y="149.2" width="3.2" height="6.4"/>
        <rect class="cls-12" x="228.39" y="75.62" width="3.2" height="3.2"/>
        <rect class="cls-12" x="228.39" y="94.81" width="3.2" height="3.2"/>
        <rect class="cls-12" x="228.39" y="110.81" width="3.2" height="3.2"/>
        <rect class="cls-12" x="228.39" y="123.6" width="3.2" height="3.2"/>
        <rect class="cls-12" x="228.39" y="133.2" width="3.2" height="3.2"/>
        <rect class="cls-12" x="228.39" y="152.4" width="3.2" height="3.2"/>
        <rect class="cls-12" x="231.59" y="75.62" width="3.2" height="3.2"/>
        <rect class="cls-12" x="231.59" y="82.01" width="3.2" height="9.6"/>
        <rect class="cls-12" x="231.59" y="94.81" width="3.2" height="3.2"/>
        <rect class="cls-12" x="231.59" y="101.21" width="3.2" height="3.2"/>
        <rect class="cls-12" x="231.59" y="110.81" width="3.2" height="3.2"/>
        <rect class="cls-12" x="231.59" y="120.4" width="3.2" height="9.6"/>
        <rect class="cls-12" x="231.59" y="133.2" width="3.2" height="3.2"/>
        <rect class="cls-12" x="231.59" y="139.6" width="3.2" height="9.6"/>
        <rect class="cls-12" x="231.59" y="152.4" width="3.2" height="3.2"/>
        <rect class="cls-12" x="234.79" y="75.62" width="3.2" height="3.2"/>
        <rect class="cls-12" x="234.79" y="82.01" width="3.2" height="9.6"/>
        <rect class="cls-12" x="234.79" y="94.81" width="3.2" height="3.2"/>
        <rect class="cls-12" x="234.79" y="107.61" width="3.2" height="3.2"/>
        <rect class="cls-12" x="234.79" y="114.01" width="3.2" height="6.4"/>
        <rect class="cls-12" x="234.79" y="123.6" width="3.2" height="6.4"/>
        <rect class="cls-12" x="234.79" y="133.2" width="3.2" height="3.2"/>
        <rect class="cls-12" x="234.79" y="139.6" width="3.2" height="9.6"/>
        <rect class="cls-12" x="234.79" y="152.4" width="3.2" height="3.2"/>
        <rect class="cls-12" x="237.99" y="75.62" width="3.2" height="3.2"/>
        <rect class="cls-12" x="237.99" y="82.01" width="3.2" height="9.6"/>
        <rect class="cls-12" x="237.99" y="94.81" width="3.2" height="3.2"/>
        <rect class="cls-12" x="237.99" y="101.21" width="3.2" height="3.2"/>
        <rect class="cls-12" x="237.99" y="107.61" width="3.2" height="3.2"/>
        <rect class="cls-12" x="237.99" y="110.81" width="3.2" height="3.2"/>
        <rect class="cls-12" x="237.99" y="126.8" width="3.2" height="3.2"/>
        <rect class="cls-12" x="237.99" y="133.2" width="3.2" height="3.2"/>
        <rect class="cls-12" x="237.99" y="139.6" width="3.2" height="9.6"/>
        <rect class="cls-12" x="237.99" y="152.4" width="3.2" height="3.2"/>
        <rect class="cls-12" x="241.19" y="75.62" width="3.2" height="3.2"/>
        <rect class="cls-12" x="241.19" y="94.81" width="3.2" height="3.2"/>
        <rect class="cls-12" x="241.19" y="104.41" width="3.2" height="3.2"/>
        <rect class="cls-12" x="241.19" y="114.01" width="3.2" height="3.2"/>
        <rect class="cls-12" x="241.19" y="120.4" width="3.2" height="3.2"/>
        <rect class="cls-12" x="241.19" y="126.8" width="3.2" height="3.2"/>
        <rect class="cls-12" x="241.19" y="133.2" width="3.2" height="3.2"/>
        <rect class="cls-12" x="241.19" y="152.4" width="3.2" height="3.2"/>
        <rect class="cls-12" x="244.39" y="75.62" width="3.2" height="19.2"/>
        <rect class="cls-12" x="244.39" y="94.81" width="3.2" height="3.2"/>
        <rect class="cls-12" x="244.39" y="101.21" width="3.2" height="3.2"/>
        <rect class="cls-12" x="244.39" y="107.61" width="3.2" height="3.2"/>
        <rect class="cls-12" x="244.39" y="114.01" width="3.2" height="3.2"/>
        <rect class="cls-12" x="244.39" y="120.4" width="3.2" height="3.2"/>
        <rect class="cls-12" x="244.39" y="126.8" width="3.2" height="3.2"/>
        <rect class="cls-12" x="244.39" y="133.2" width="3.2" height="6.4"/>
        <rect class="cls-12" x="244.39" y="139.6" width="3.2" height="9.6"/>
        <rect class="cls-12" x="244.39" y="149.2" width="3.2" height="6.4"/>
        <rect class="cls-12" x="247.59" y="110.81" width="3.2" height="3.2"/>
        <rect class="cls-12" x="247.59" y="120.4" width="3.2" height="3.2"/>
        <rect class="cls-12" x="250.79" y="78.82" width="3.2" height="3.2"/>
        <rect class="cls-12" x="250.79" y="88.41" width="3.2" height="3.2"/>
        <rect class="cls-12" x="250.79" y="94.81" width="3.2" height="3.2"/>
        <rect class="cls-12" x="250.79" y="104.41" width="3.2" height="6.4"/>
        <rect class="cls-12" x="250.79" y="114.01" width="3.2" height="3.2"/>
        <rect class="cls-12" x="250.79" y="120.4" width="3.2" height="6.4"/>
        <rect class="cls-12" x="250.79" y="130" width="3.2" height="3.2"/>
        <rect class="cls-12" x="250.79" y="139.6" width="3.2" height="3.2"/>
        <rect class="cls-12" x="250.79" y="146" width="3.2" height="3.2"/>
        <rect class="cls-12" x="250.79" y="152.4" width="3.2" height="3.2"/>
        <rect class="cls-12" x="253.99" y="75.62" width="3.2" height="3.2"/>
        <rect class="cls-12" x="253.99" y="85.21" width="3.2" height="3.2"/>
        <rect class="cls-12" x="253.99" y="104.41" width="3.2" height="6.4"/>
        <rect class="cls-12" x="253.99" y="110.81" width="3.2" height="19.2"/>
        <rect class="cls-12" x="253.99" y="130" width="3.2" height="3.2"/>
        <rect class="cls-12" x="253.99" y="149.2" width="3.2" height="3.2"/>
        <rect class="cls-12" x="257.19" y="75.62" width="3.2" height="3.2"/>
        <rect class="cls-12" x="257.19" y="82.01" width="3.2" height="12.8"/>
        <rect class="cls-12" x="257.19" y="94.81" width="3.2" height="12.8"/>
        <rect class="cls-12" x="257.19" y="117.21" width="3.2" height="6.4"/>
        <rect class="cls-12" x="257.19" y="133.2" width="3.2" height="6.4"/>
        <rect class="cls-12" x="257.19" y="139.6" width="3.2" height="3.2"/>
        <rect class="cls-12" x="260.39" y="78.82" width="3.2" height="9.6"/>
        <rect class="cls-12" x="260.39" y="91.61" width="3.2" height="3.2"/>
        <rect class="cls-12" x="260.39" y="98.01" width="3.2" height="9.6"/>
        <rect class="cls-12" x="260.39" y="110.81" width="3.2" height="3.2"/>
        <rect class="cls-12" x="260.39" y="117.21" width="3.2" height="6.4"/>
        <rect class="cls-12" x="260.39" y="126.8" width="3.2" height="3.2"/>
        <rect class="cls-12" x="260.39" y="130" width="3.2" height="3.2"/>
        <rect class="cls-12" x="260.39" y="136.4" width="3.2" height="3.2"/>
        <rect class="cls-12" x="260.39" y="142.8" width="3.2" height="6.4"/>
        <rect class="cls-12" x="260.39" y="152.4" width="3.2" height="3.2"/>
        <rect class="cls-12" x="263.58" y="91.61" width="3.2" height="3.2"/>
        <rect class="cls-12" x="263.58" y="94.81" width="3.2" height="3.2"/>
        <rect class="cls-12" x="263.58" y="101.21" width="3.2" height="9.6"/>
        <rect class="cls-12" x="263.58" y="114.01" width="3.2" height="12.8"/>
        <rect class="cls-12" x="263.58" y="139.6" width="3.2" height="9.6"/>
        <rect class="cls-12" x="263.58" y="149.2" width="3.2" height="3.2"/>
        <rect class="cls-12" x="266.78" y="78.82" width="3.2" height="3.2"/>
        <rect class="cls-12" x="266.78" y="88.41" width="3.2" height="6.4"/>
        <rect class="cls-12" x="266.78" y="98.01" width="3.2" height="6.4"/>
        <rect class="cls-12" x="266.78" y="107.61" width="3.2" height="3.2"/>
        <rect class="cls-12" x="266.78" y="110.81" width="3.2" height="3.2"/>
        <rect class="cls-12" x="266.78" y="123.6" width="3.2" height="3.2"/>
        <rect class="cls-12" x="266.78" y="133.2" width="3.2" height="3.2"/>
        <rect class="cls-12" x="266.78" y="142.8" width="3.2" height="3.2"/>
        <rect class="cls-12" x="266.78" y="149.2" width="3.2" height="3.2"/>
        <rect class="cls-12" x="269.98" y="75.62" width="3.2" height="3.2"/>
        <rect class="cls-12" x="269.98" y="85.21" width="3.2" height="6.4"/>
        <rect class="cls-12" x="269.98" y="94.81" width="3.2" height="9.6"/>
        <rect class="cls-12" x="269.98" y="110.81" width="3.2" height="6.4"/>
        <rect class="cls-12" x="269.98" y="123.6" width="3.2" height="6.4"/>
        <rect class="cls-12" x="269.98" y="146" width="3.2" height="3.2"/>
        <rect class="cls-12" x="269.98" y="149.2" width="3.2" height="6.4"/>
        <rect class="cls-12" x="273.18" y="75.62" width="3.2" height="9.6"/>
        <rect class="cls-12" x="273.18" y="88.41" width="3.2" height="6.4"/>
        <rect class="cls-12" x="273.18" y="110.81" width="3.2" height="3.2"/>
        <rect class="cls-12" x="273.18" y="123.6" width="3.2" height="3.2"/>
        <rect class="cls-12" x="273.18" y="133.2" width="3.2" height="3.2"/>
        <rect class="cls-12" x="273.18" y="146" width="3.2" height="3.2"/>
        <rect class="cls-12" x="273.18" y="149.2" width="3.2" height="6.4"/>
        <rect class="cls-12" x="276.38" y="88.41" width="3.2" height="3.2"/>
        <rect class="cls-12" x="276.38" y="94.81" width="3.2" height="3.2"/>
        <rect class="cls-12" x="276.38" y="104.41" width="3.2" height="6.4"/>
        <rect class="cls-12" x="276.38" y="117.21" width="3.2" height="6.4"/>
        <rect class="cls-12" x="276.38" y="126.8" width="3.2" height="3.2"/>
        <rect class="cls-12" x="276.38" y="130" width="3.2" height="9.6"/>
        <rect class="cls-12" x="276.38" y="139.6" width="3.2" height="6.4"/>
        <rect class="cls-12" x="276.38" y="149.2" width="3.2" height="6.4"/>
        <rect class="cls-12" x="279.58" y="107.61" width="3.2" height="3.2"/>
        <rect class="cls-12" x="279.58" y="114.01" width="3.2" height="3.2"/>
        <rect class="cls-12" x="279.58" y="120.4" width="3.2" height="3.2"/>
        <rect class="cls-12" x="279.58" y="126.8" width="3.2" height="3.2"/>
        <rect class="cls-12" x="279.58" y="139.6" width="3.2" height="6.4"/>
        <rect class="cls-12" x="282.78" y="75.62" width="3.2" height="19.2"/>
        <rect class="cls-12" x="282.78" y="94.81" width="3.2" height="3.2"/>
        <rect class="cls-12" x="282.78" y="104.41" width="3.2" height="6.4"/>
        <rect class="cls-12" x="282.78" y="110.81" width="3.2" height="19.2"/>
        <rect class="cls-12" x="282.78" y="133.2" width="3.2" height="3.2"/>
        <rect class="cls-12" x="282.78" y="139.6" width="3.2" height="3.2"/>
        <rect class="cls-12" x="282.78" y="149.2" width="3.2" height="3.2"/>
        <rect class="cls-12" x="285.98" y="75.62" width="3.2" height="3.2"/>
        <rect class="cls-12" x="285.98" y="94.81" width="3.2" height="3.2"/>
        <rect class="cls-12" x="285.98" y="107.61" width="3.2" height="3.2"/>
        <rect class="cls-12" x="285.98" y="114.01" width="3.2" height="3.2"/>
        <rect class="cls-12" x="285.98" y="120.4" width="3.2" height="3.2"/>
        <rect class="cls-12" x="285.98" y="126.8" width="3.2" height="3.2"/>
        <rect class="cls-12" x="285.98" y="139.6" width="3.2" height="6.4"/>
        <rect class="cls-12" x="285.98" y="152.4" width="3.2" height="3.2"/>
        <rect class="cls-12" x="289.18" y="75.62" width="3.2" height="3.2"/>
        <rect class="cls-12" x="289.18" y="82.01" width="3.2" height="9.6"/>
        <rect class="cls-12" x="289.18" y="94.81" width="3.2" height="3.2"/>
        <rect class="cls-12" x="289.18" y="101.21" width="3.2" height="3.2"/>
        <rect class="cls-12" x="289.18" y="123.6" width="3.2" height="6.4"/>
        <rect class="cls-12" x="289.18" y="130" width="3.2" height="9.6"/>
        <rect class="cls-12" x="289.18" y="139.6" width="3.2" height="9.6"/>
        <rect class="cls-12" x="289.18" y="149.2" width="3.2" height="3.2"/>
        <rect class="cls-12" x="292.38" y="75.62" width="3.2" height="3.2"/>
        <rect class="cls-12" x="292.38" y="82.01" width="3.2" height="9.6"/>
        <rect class="cls-12" x="292.38" y="94.81" width="3.2" height="3.2"/>
        <rect class="cls-12" x="292.38" y="114.01" width="3.2" height="6.4"/>
        <rect class="cls-12" x="292.38" y="126.8" width="3.2" height="3.2"/>
        <rect class="cls-12" x="292.38" y="130" width="3.2" height="9.6"/>
        <rect class="cls-12" x="292.38" y="139.6" width="3.2" height="6.4"/>
        <rect class="cls-12" x="292.38" y="149.2" width="3.2" height="3.2"/>
        <rect class="cls-12" x="295.58" y="75.62" width="3.2" height="3.2"/>
        <rect class="cls-12" x="295.58" y="82.01" width="3.2" height="9.6"/>
        <rect class="cls-12" x="295.58" y="94.81" width="3.2" height="3.2"/>
        <rect class="cls-12" x="295.58" y="107.61" width="3.2" height="3.2"/>
        <rect class="cls-12" x="295.58" y="120.4" width="3.2" height="3.2"/>
        <rect class="cls-12" x="295.58" y="142.8" width="3.2" height="3.2"/>
        <rect class="cls-12" x="298.78" y="75.62" width="3.2" height="3.2"/>
        <rect class="cls-12" x="298.78" y="94.81" width="3.2" height="3.2"/>
        <rect class="cls-12" x="298.78" y="101.21" width="3.2" height="3.2"/>
        <rect class="cls-12" x="298.78" y="107.61" width="3.2" height="3.2"/>
        <rect class="cls-12" x="298.78" y="110.81" width="3.2" height="6.4"/>
        <rect class="cls-12" x="298.78" y="120.4" width="3.2" height="6.4"/>
        <rect class="cls-12" x="298.78" y="130" width="3.2" height="6.4"/>
        <rect class="cls-12" x="298.78" y="139.6" width="3.2" height="3.2"/>
        <rect class="cls-12" x="298.78" y="149.2" width="3.2" height="6.4"/>
        <rect class="cls-12" x="301.97" y="75.62" width="3.2" height="19.2"/>
        <rect class="cls-12" x="301.97" y="94.81" width="3.2" height="3.2"/>
        <rect class="cls-12" x="301.97" y="104.41" width="3.2" height="6.4"/>
        <rect class="cls-12" x="301.97" y="114.01" width="3.2" height="9.6"/>
        <rect class="cls-12" x="301.97" y="130" width="3.2" height="6.4"/>
        <rect class="cls-12" x="301.97" y="139.6" width="3.2" height="3.2"/>
        <rect class="cls-12" x="301.97" y="146" width="3.2" height="3.2"/>
        <rect class="cls-12" x="301.97" y="152.4" width="3.2" height="3.2"/>
      </g>
      <g>
        <path class="cls-15" d="m223.83,181.48c-.42-.19-.74-.45-.98-.78-.24-.33-.36-.72-.37-1.15h1.11c.04.37.19.69.46.95.27.26.67.38,1.19.38s.89-.12,1.17-.37c.29-.25.43-.57.43-.96,0-.3-.08-.55-.25-.74s-.38-.34-.63-.44c-.25-.1-.59-.21-1.02-.32-.53-.14-.95-.28-1.27-.41-.32-.14-.59-.35-.81-.65-.23-.29-.34-.69-.34-1.19,0-.44.11-.82.33-1.16.22-.34.53-.6.93-.78.4-.18.86-.28,1.38-.28.75,0,1.36.19,1.84.56s.75.87.81,1.49h-1.15c-.04-.3-.2-.57-.48-.81s-.66-.35-1.12-.35c-.44,0-.79.11-1.07.34-.28.22-.41.54-.41.94,0,.29.08.53.25.71.16.18.37.32.61.42.24.1.58.2,1.01.33.53.15.95.29,1.27.43.32.14.6.36.83.65.23.29.34.69.34,1.2,0,.39-.1.76-.31,1.1s-.51.62-.92.84-.88.32-1.43.32-1-.09-1.42-.28Z"/>
        <path class="cls-15" d="m229.44,176.82c.26-.49.62-.86,1.08-1.13.46-.27.99-.4,1.59-.4.77,0,1.41.19,1.91.56.5.37.83.89.99,1.56h-1.12c-.11-.38-.32-.68-.62-.91-.31-.22-.69-.33-1.15-.33-.6,0-1.08.2-1.44.61-.37.41-.55.99-.55,1.74s.18,1.34.55,1.75c.37.41.85.62,1.44.62.46,0,.84-.11,1.15-.32.31-.21.52-.52.63-.92h1.12c-.17.64-.5,1.16-1.01,1.54-.5.39-1.14.58-1.89.58-.6,0-1.12-.13-1.59-.4-.46-.27-.82-.65-1.08-1.14-.26-.49-.39-1.06-.39-1.72s.13-1.22.39-1.7Z"/>
        <path class="cls-15" d="m236.39,176.82c.26-.49.62-.86,1.07-1.13s.96-.4,1.52-.4,1.03.12,1.43.36.71.53.91.89v-1.15h1.05v6.28h-1.05v-1.17c-.21.37-.51.67-.92.91-.41.24-.88.36-1.43.36s-1.06-.14-1.51-.41-.81-.66-1.07-1.16c-.26-.5-.39-1.06-.39-1.7s.13-1.21.39-1.69Zm4.64.46c-.19-.35-.45-.62-.77-.81-.32-.19-.68-.28-1.07-.28s-.74.09-1.07.28c-.32.18-.58.45-.77.8-.19.35-.29.76-.29,1.24s.1.9.29,1.25c.19.36.45.63.77.81.32.19.68.28,1.07.28s.75-.09,1.07-.28c.32-.19.58-.46.77-.81.19-.36.29-.77.29-1.24s-.1-.89-.29-1.24Z"/>
        <path class="cls-15" d="m249.06,175.98c.47.46.71,1.13.71,2v3.7h-1.03v-3.55c0-.63-.16-1.11-.47-1.44-.31-.33-.74-.5-1.28-.5s-.99.17-1.31.52c-.33.34-.49.84-.49,1.5v3.47h-1.04v-6.28h1.04v.89c.21-.32.49-.57.84-.75.35-.18.75-.26,1.17-.26.76,0,1.38.23,1.86.69Z"/>
        <path class="cls-15" d="m254.54,176.82c.26-.49.62-.86,1.07-1.13s.96-.4,1.52-.4,1.03.12,1.43.36.71.53.91.89v-1.15h1.05v6.28h-1.05v-1.17c-.21.37-.51.67-.92.91-.41.24-.88.36-1.43.36s-1.06-.14-1.51-.41-.81-.66-1.07-1.16c-.26-.5-.39-1.06-.39-1.7s.13-1.21.39-1.69Zm4.64.46c-.19-.35-.45-.62-.77-.81-.32-.19-.68-.28-1.07-.28s-.74.09-1.07.28c-.32.18-.58.45-.77.8-.19.35-.29.76-.29,1.24s.1.9.29,1.25c.19.36.45.63.77.81.32.19.68.28,1.07.28s.75-.09,1.07-.28c.32-.19.58-.46.77-.81.19-.36.29-.77.29-1.24s-.1-.89-.29-1.24Z"/>
        <path class="cls-15" d="m267.2,175.98c.47.46.71,1.13.71,2v3.7h-1.03v-3.55c0-.63-.16-1.11-.47-1.44-.31-.33-.74-.5-1.28-.5s-.99.17-1.31.52c-.33.34-.49.84-.49,1.5v3.47h-1.04v-6.28h1.04v.89c.21-.32.49-.57.84-.75.35-.18.75-.26,1.17-.26.76,0,1.38.23,1.86.69Z"/>
        <path class="cls-15" d="m269.62,176.82c.26-.49.62-.86,1.07-1.13s.96-.4,1.53-.4c.49,0,.94.11,1.36.34.42.23.74.52.96.89v-3.32h1.05v8.48h-1.05v-1.18c-.21.37-.51.68-.92.92-.4.24-.88.36-1.42.36s-1.06-.14-1.52-.41-.81-.66-1.07-1.16c-.26-.5-.39-1.06-.39-1.7s.13-1.21.39-1.69Zm4.64.46c-.19-.35-.45-.62-.77-.81-.32-.19-.68-.28-1.07-.28s-.74.09-1.07.28c-.32.18-.58.45-.77.8-.19.35-.29.76-.29,1.24s.1.9.29,1.25c.19.36.45.63.77.81.32.19.68.28,1.07.28s.75-.09,1.07-.28c.32-.19.58-.46.77-.81.19-.36.29-.77.29-1.24s-.1-.89-.29-1.24Z"/>
        <path class="cls-15" d="m281.57,181.38c-.48-.27-.85-.65-1.12-1.14-.27-.49-.41-1.06-.41-1.71s.14-1.21.42-1.7.66-.87,1.14-1.13c.48-.26,1.02-.4,1.62-.4s1.14.13,1.62.4c.48.26.86.64,1.14,1.13s.42,1.06.42,1.71-.14,1.22-.43,1.71c-.29.49-.67.87-1.16,1.14-.49.27-1.03.4-1.63.4s-1.12-.13-1.6-.4Zm2.65-.78c.33-.18.59-.44.8-.79.2-.35.3-.78.3-1.28s-.1-.93-.3-1.28c-.2-.35-.46-.61-.78-.79-.32-.17-.67-.26-1.04-.26s-.73.09-1.05.26c-.32.17-.57.43-.76.79-.19.35-.29.78-.29,1.28s.09.94.28,1.29c.19.35.44.61.75.79s.66.26,1.03.26.73-.09,1.05-.26Z"/>
        <path class="cls-15" d="m289.73,175.65c.41-.24.88-.36,1.43-.36s1.06.13,1.52.4c.45.27.81.64,1.07,1.13.26.49.39,1.05.39,1.69s-.13,1.2-.39,1.7c-.26.5-.62.88-1.07,1.16-.46.28-.96.41-1.52.41s-1.01-.12-1.41-.36c-.41-.24-.72-.54-.93-.9v4.14h-1.04v-9.26h1.04v1.16c.21-.36.51-.66.92-.9Zm3.05,1.62c-.19-.35-.45-.62-.77-.8-.32-.18-.68-.28-1.07-.28s-.74.09-1.06.28c-.32.19-.58.46-.78.81s-.29.77-.29,1.23.1.89.29,1.24.45.63.78.81c.32.19.68.28,1.06.28s.75-.09,1.07-.28c.32-.19.58-.46.77-.81s.29-.77.29-1.25-.1-.89-.29-1.24Z"/>
        <path class="cls-15" d="m301.21,178.93h-5.02c.04.62.25,1.1.64,1.45.39.35.85.52,1.4.52.45,0,.83-.1,1.13-.32.3-.21.51-.49.64-.84h1.12c-.17.6-.5,1.09-1.01,1.47-.5.38-1.13.57-1.88.57-.6,0-1.13-.13-1.6-.4-.47-.27-.84-.65-1.11-1.14-.27-.49-.4-1.06-.4-1.71s.13-1.22.39-1.71c.26-.49.62-.87,1.09-1.13.47-.26,1.01-.4,1.62-.4s1.12.13,1.58.39c.46.26.81.62,1.06,1.07.25.46.37.97.37,1.54,0,.2-.01.41-.03.63Zm-1.31-1.87c-.18-.29-.41-.5-.72-.65-.3-.15-.64-.22-1-.22-.53,0-.98.17-1.35.5-.37.34-.58.8-.64,1.4h3.97c0-.4-.09-.74-.26-1.03Z"/>
        <path class="cls-15" d="m307.53,175.98c.47.46.71,1.13.71,2v3.7h-1.03v-3.55c0-.63-.16-1.11-.47-1.44-.31-.33-.74-.5-1.28-.5s-.99.17-1.31.52c-.33.34-.49.84-.49,1.5v3.47h-1.04v-6.28h1.04v.89c.21-.32.49-.57.84-.75.35-.18.75-.26,1.17-.26.76,0,1.38.23,1.86.69Z"/>
        <path class="cls-15" d="m223.98,190.01v3.7c0,.31.07.52.19.65s.36.19.68.19h.77v.88h-.94c-.58,0-1.02-.13-1.31-.4-.29-.27-.44-.71-.44-1.32v-3.7h-.81v-.86h.81v-1.58h1.04v1.58h1.64v.86h-1.64Z"/>
        <path class="cls-15" d="m231.28,189.34c.38.2.68.51.9.91.22.4.33.9.33,1.48v3.7h-1.03v-3.55c0-.63-.16-1.11-.47-1.44-.31-.33-.74-.5-1.28-.5s-.99.17-1.31.52c-.33.34-.49.84-.49,1.5v3.47h-1.04v-8.48h1.04v3.09c.21-.32.49-.57.85-.75s.77-.26,1.22-.26.9.1,1.28.3Z"/>
        <path class="cls-15" d="m239.91,192.68h-5.02c.04.62.25,1.1.64,1.45.39.35.85.52,1.4.52.45,0,.83-.1,1.13-.32.3-.21.51-.49.64-.84h1.12c-.17.6-.5,1.09-1.01,1.47-.5.38-1.13.57-1.88.57-.6,0-1.13-.13-1.6-.4-.47-.27-.84-.65-1.11-1.14-.27-.49-.4-1.06-.4-1.71s.13-1.22.39-1.71c.26-.49.62-.87,1.09-1.13.47-.26,1.01-.4,1.62-.4s1.12.13,1.58.39c.46.26.81.62,1.06,1.07.25.46.37.97.37,1.54,0,.2-.01.41-.03.63Zm-1.31-1.87c-.18-.29-.41-.5-.72-.65-.3-.15-.64-.22-1-.22-.53,0-.98.17-1.35.5-.37.34-.58.8-.64,1.4h3.97c0-.4-.09-.74-.26-1.03Z"/>
        <path class="cls-15" d="m276.09,190.58c.26-.49.62-.86,1.07-1.13s.96-.4,1.52-.4,1.03.12,1.43.36.71.53.91.89v-1.15h1.05v6.28h-1.05v-1.17c-.21.37-.51.67-.92.91-.41.24-.88.36-1.43.36s-1.06-.14-1.51-.41-.81-.66-1.07-1.16c-.26-.5-.39-1.06-.39-1.7s.13-1.21.39-1.69Zm4.64.46c-.19-.35-.45-.62-.77-.81-.32-.19-.68-.28-1.07-.28s-.74.09-1.07.28c-.32.18-.58.45-.77.8-.19.35-.29.76-.29,1.24s.1.9.29,1.25c.19.36.45.63.77.81.32.19.68.28,1.07.28s.75-.09,1.07-.28c.32-.19.58-.46.77-.81.19-.36.29-.77.29-1.24s-.1-.89-.29-1.24Z"/>
        <path class="cls-15" d="m285.81,189.41c.41-.24.88-.36,1.43-.36s1.06.13,1.52.4c.45.27.81.64,1.07,1.13.26.49.39,1.05.39,1.69s-.13,1.2-.39,1.7c-.26.5-.62.88-1.07,1.16-.46.28-.96.41-1.52.41s-1.01-.12-1.41-.36c-.41-.24-.72-.54-.93-.9v4.14h-1.04v-9.26h1.04v1.16c.21-.36.51-.66.92-.9Zm3.05,1.62c-.19-.35-.45-.62-.77-.8-.32-.18-.68-.28-1.07-.28s-.74.09-1.06.28c-.32.19-.58.46-.78.81s-.29.77-.29,1.23.1.89.29,1.24.45.63.78.81c.32.19.68.28,1.06.28s.75-.09,1.07-.28c.32-.19.58-.46.77-.81s.29-.77.29-1.25-.1-.89-.29-1.24Z"/>
        <path class="cls-15" d="m293.56,189.41c.41-.24.88-.36,1.43-.36s1.06.13,1.52.4c.45.27.81.64,1.07,1.13.26.49.39,1.05.39,1.69s-.13,1.2-.39,1.7c-.26.5-.62.88-1.07,1.16-.46.28-.96.41-1.52.41s-1.01-.12-1.41-.36c-.41-.24-.72-.54-.93-.9v4.14h-1.04v-9.26h1.04v1.16c.21-.36.51-.66.92-.9Zm3.05,1.62c-.19-.35-.45-.62-.77-.8-.32-.18-.68-.28-1.07-.28s-.74.09-1.06.28c-.32.19-.58.46-.78.81s-.29.77-.29,1.23.1.89.29,1.24.45.63.78.81c.32.19.68.28,1.06.28s.75-.09,1.07-.28c.32-.19.58-.46.77-.81s.29-.77.29-1.25-.1-.89-.29-1.24Z"/>
        <path class="cls-15" d="m299.67,195.29c-.14-.14-.21-.31-.21-.5s.07-.37.21-.5.3-.21.5-.21.35.07.49.21c.13.14.2.31.2.5s-.07.37-.2.5c-.13.14-.3.21-.49.21s-.37-.07-.5-.21Zm1.02-7.85l-.13,5.73h-.87l-.13-5.73h1.12Z"/>
      </g>
      <g>
        <path class="cls-15" d="m247.95,188.3c-1.91,0-3.46,1.61-3.46,3.6s1.55,3.6,3.46,3.6,3.46-1.61,3.46-3.6-1.55-3.6-3.46-3.6Zm0,5.61c-1.07,0-1.94-.9-1.94-2.01s.87-2.01,1.94-2.01,1.94.9,1.94,2.01-.87,2.01-1.94,2.01Z"/>
        <path class="cls-15" d="m255.31,188.3c-1.91,0-3.46,1.61-3.46,3.6v4.59c0,.44.34.79.76.79s.76-.35.76-.79v-1.6c.56.39,1.22.61,1.94.61,1.91,0,3.46-1.61,3.46-3.6s-1.55-3.6-3.46-3.6Zm0,5.61c-.89,0-1.67-.63-1.88-1.53-.04-.16-.06-.32-.06-.48,0-1.11.87-2.01,1.94-2.01s1.94.9,1.94,2.01-.87,2.01-1.94,2.01Z"/>
        <path class="cls-15" d="m262.79,188.3c-1.91,0-3.46,1.61-3.46,3.6v4.59c0,.44.34.79.76.79s.76-.35.76-.79v-1.6c.56.39,1.22.61,1.94.61,1.91,0,3.46-1.61,3.46-3.6s-1.55-3.6-3.46-3.6Zm0,5.61c-.89,0-1.67-.63-1.88-1.53-.04-.16-.06-.32-.06-.48,0-1.11.87-2.01,1.94-2.01s1.94.9,1.94,2.01-.87,2.01-1.94,2.01Z"/>
        <path class="cls-15" d="m270.96,189.09c0-.44-.34-.79-.76-.79-1.91,0-3.46,1.61-3.46,3.6v2.81c0,.44.34.79.76.79s.76-.35.76-.79v-2.81c0-1.11.87-2.01,1.94-2.01.42,0,.76-.35.76-.79Z"/>
        <ellipse class="cls-7" cx="271.6" cy="194.57" rx=".91" ry=".94"/>
      </g>
    </g>
    <path class="cls-14" d="m52.83,34.84c-6.7,0-12.13,5.43-12.13,12.13v184.17c0,6.7,5.43,12.13,12.13,12.13h144.73V34.84H52.83Z"/>
  </g>
  <g class="cls-3">
    <g>
      <path class="cls-7" d="m90.65,199.52c-3.31-11.77-8.54-24.09-12.21-32.09-2.46-5.37-4.22-8.79-4.22-8.79,0,0-39.99,11.69-43.16,17.73,0,0,13.61,8.19,22.05,21.29.41.63.78,1.28,1.16,1.93,12.22-.32,24.31-.33,36.37-.07Z"/>
      <path class="cls-7" d="m93.66,214.81c-.19-2.3-.56-4.74-1.06-7.27-.52-2.61-1.18-5.3-1.95-8.03-12.06-.26-24.15-.25-36.37.07,1.72,2.96,3.17,6.14,4.12,9.52-1.28,4.57-2.54,9.25-3.74,13.95,13.16,0,26.32.04,39.48.13-.13-3.12-.29-5.94-.49-8.37Z"/>
      <path class="cls-7" d="m49.99,243.06c-1.61,7.71-2.89,15.13-3.65,21.82l1.32,4.33c15.24-.07,30.6.47,45.99,1.15.47-9.11.72-18.17.78-26.52-14.76-.47-29.54-.87-44.45-.78Z"/>
      <path class="cls-7" d="m94.15,223.18c-13.16-.09-26.32-.12-39.48-.13-1.72,6.71-3.31,13.46-4.67,20,14.9-.09,29.68.31,44.45.78.05-7.65-.05-14.71-.29-20.66Z"/>
      <g>
        <path class="cls-4" d="m223.25,175.91s15.26-15.87,22.44-32.17l-29.31,4.33-3.38,23.97,10.25,3.87Z"/>
        <g>
          <path class="cls-11" d="m241.98,172.55l-22.24-4.75c-4.94-.8-5.9-4.08-5.29-6.92l10.9-43.37c.61-2.84,3.29-4.68,5.99-4.1l21.5,3.48c2.7.58,5.14,4.61,4.54,7.45l-9.41,44.1c-.61,2.84-3.29,4.68-5.99,4.1Z"/>
          <rect class="cls-10" x="218.89" y="113.72" width="32.75" height="55.61" rx="7.14" ry="7.14" transform="translate(34.71 -45.97) rotate(12.04)"/>
          <rect class="cls-15" x="219.64" y="114.58" width="31.24" height="53.89" rx="6.12" ry="6.12" transform="translate(34.71 -45.97) rotate(12.04)"/>
          <g>
            <g>
              <path class="cls-9" d="m234.6,139.44c-1.07-.23-2.13.46-2.36,1.53s.46,2.13,1.53,2.36,2.13-.46,2.36-1.53-.46-2.13-1.53-2.36Zm-.65,3.04c-.6-.13-.98-.72-.86-1.32s.72-.98,1.32-.86.98.72.86,1.32-.72.98-1.32.86Z"/>
              <path class="cls-9" d="m238.73,140.32c-1.07-.23-2.13.46-2.36,1.53l-.53,2.48c-.05.24.1.47.34.52s.47-.1.52-.34l.18-.87c.27.28.62.48,1.02.56,1.07.23,2.13-.46,2.36-1.53s-.46-2.13-1.53-2.36Zm-.65,3.04c-.5-.11-.87-.54-.88-1.05,0-.09,0-.18.02-.27.13-.6.72-.98,1.32-.86s.98.72.86,1.32-.72.98-1.32.86Z"/>
              <path class="cls-9" d="m242.94,141.22c-1.07-.23-2.13.46-2.36,1.53l-.53,2.48c-.05.24.1.47.34.52s.47-.1.52-.34l.18-.87c.27.28.62.48,1.02.56,1.07.23,2.13-.46,2.36-1.53s-.46-2.13-1.53-2.36Zm-.65,3.04c-.5-.11-.87-.54-.88-1.05,0-.09,0-.18.02-.27.13-.6.72-.98,1.32-.86s.98.72.86,1.32-.72.98-1.32.86Z"/>
              <path class="cls-9" d="m247.45,142.63c.05-.24-.1-.47-.34-.52-1.07-.23-2.13.46-2.36,1.53l-.32,1.52c-.05.24.1.47.34.52s.47-.1.52-.34l.32-1.52c.13-.6.72-.98,1.32-.86.24.05.47-.1.52-.34Z"/>
              <circle class="cls-7" cx="247.18" cy="145.67" r=".52"/>
            </g>
            <g>
              <g>
                <path class="cls-13" d="m229.9,137.49c0,.29-.12.59-.35.81-.28.28-.69.4-1.08.32,0,0,0,0,0,0,.26.48.35,1.04.24,1.59-.26,1.24-1.49,2.03-2.73,1.77-.85-.18-1.49-.82-1.73-1.6l-.44,2.06c-.02.12-.07.22-.12.32.52.48,1.17.83,1.91.98,2.21.47,4.4-.94,4.87-3.16.23-1.08.02-2.19-.57-3.09Z"/>
                <path class="cls-13" d="m226.93,137.47c.44.09.83.31,1.15.62,0,0,0,0,0,0,.35.35.93.35,1.28,0,.35-.35.35-.92,0-1.28,0,0,0,0,0,0-.56-.56-1.27-.95-2.05-1.11-2.15-.46-4.26.86-4.82,2.95h0s-.04.21-.04.21l-.67,3.13c-.1.49.21.97.7,1.07.43.09.85-.13,1.02-.52.02-.06.04-.12.06-.18l.67-3.13c.26-1.24,1.49-2.03,2.73-1.77Z"/>
              </g>
              <circle class="cls-7" cx="226.45" cy="139.72" r="1.49"/>
            </g>
          </g>
        </g>
        <path class="cls-4" d="m203.36,174.44s.33-6.61,2.71-17.08c2.39-10.47,9.26-19.92,11.62-18.2,2.36,1.72-1.52,9.41-.71,15.18.81,5.77,6.26,21.56,6.26,21.56l-9.96,10.24-9.92-11.7Z"/>
        <g>
          <path class="cls-15" d="m105.06,158.64h-18.03l23.03,2.16c-1.58-.68-3.22-1.39-5-2.16Z"/>
          <path class="cls-15" d="m110.06,160.79c2.11.91,4.06,1.75,5.85,2.52-.16-.39-.24-.52-.24-.52"/>
          <polygon class="cls-15" points="76.31 157.63 74.23 158.64 87.03 158.64 76.31 157.63"/>
          <path class="cls-15" d="m143.1,176.73h-.02s0,0,.01,0c0,0,0,0,0,0Z"/>
          <path class="cls-15" d="m151.45,236.86l.13-.34s0,0,0,0c-.05-.03-.09-.06-.14-.09,0,.15,0,.29,0,.44Z"/>
          <path class="cls-15" d="m134.01,259.38c-.59-12.51-1.75-25.63-3.83-37.89h0s-6.11-14.84-10.54-29.37c-3.73-12.21-6.27-24.18-3.02-26.94-.32-.91-.55-1.5-.7-1.86-1.79-.77-3.74-1.61-5.85-2.52l-23.03-2.16h-12.81s1.76,3.42,4.22,8.79c4.52,9.85,11.4,26.25,14.15,40.11.5,2.52.87,4.97,1.06,7.27,1.78,21.8.83,74.07-5.33,103.57h45.11s2.06-27.55.57-59Z"/>
          <polygon class="cls-15" points="113.24 202.67 111 206.37 115.85 206.06 113.24 202.67"/>
          <path class="cls-15" d="m200.89,171.44l-23.34,39.22c-13.32-8.92-22.55-23.46-34.46-33.92-.02.06-.67,2.2-1.03,6.46-.74,8.68-.25,26.16,9.37,52.9.05.14.1.28.15.42,12.78,8.65,27.43,17.9,32.23,18.31,14.5,1.23,35.84-73.38,35.84-73.38l-18.75-10.01Z"/>
          <path class="cls-15" d="m116.61,165.18c-3.25,2.76-.7,14.73,3.02,26.94l3.02-4.98c-3.12-12.82-5.03-19.05-6.04-21.96Z"/>
          <path class="cls-15" d="m151.44,236.42s.09.06.14.09c-.05-.14-.1-.28-.15-.42,0,.11,0,.22,0,.32Z"/>
          <path class="cls-7" d="m142.06,183.19c.36-4.26,1.02-6.4,1.03-6.46,0,0,0,0-.01-.01-6.76-5.94-14.39-10.57-24.13-12.09,0,0,0,0,0,0-.96-.42-1.98-.86-3.04-1.32.15.36.38.96.7,1.86,1.01,2.91,2.92,9.14,6.04,21.96.96,3.94,2.04,8.52,3.24,13.81,5.6.33,11.23.72,16.88,1.13-1.12-8.39-1.06-14.68-.7-18.88Z"/>
          <path class="cls-7" d="m142.76,202.08c-5.65-.41-11.28-.8-16.88-1.13.8,3.52,1.65,7.35,2.57,11.55.64,2.93,1.21,5.93,1.73,8.99.12.7.22,1.42.34,2.13,5.66.1,11.33.22,16.99.37-2.45-8.44-3.92-15.76-4.74-21.91Z"/>
          <path class="cls-7" d="m151.56,245.08c-.02-2.76-.05-5.51-.11-8.22,0-.15,0-.29,0-.44,0-.11,0-.22,0-.32-1.54-4.29-2.82-8.3-3.93-12.11-5.66-.14-11.33-.26-16.99-.37,1.11,6.95,1.91,14.14,2.52,21.32,6.16.11,12.33.17,18.52.14Z"/>
          <path class="cls-7" d="m151.56,245.08c-6.19.03-12.36-.03-18.52-.14.41,4.85.75,9.69.97,14.44.21,4.33.34,8.59.43,12.71,5.63.18,11.25.32,16.86.4.21-8.86.33-18.24.26-27.41Z"/>
          <path class="cls-15" d="m122.65,187.14l-3.02,4.98c4.44,14.52,10.54,29.37,10.54,29.37h0c-.52-3.06-1.09-6.06-1.73-8.99-2.28-10.49-4.2-18.78-5.8-25.36Z"/>
        </g>
        <g>
          <g>
            <path d="m77.23,125.73s-3.15-1.26-6.01-12.85c-2.86-11.59,2.29-11.69,3-20.99s10.73-14.88,22.75-12.59c12.02,2.29,9.17,8.09,16.18,1.79,7.01-6.29,17.03-2.05,17.03,5.68s4.37,17.03-3.45,24.39c-5.48,5.16-31.33,20.31-31.33,20.31l-18.17-5.75Z"/>
            <path class="cls-4" d="m82.52,125.68s-1.7,26.63-2.7,31.84c-.5,2.58,5.51,9.18,11.71,15.19,5.97,5.79,15.92,3.63,18.9-4.13l1.89-4.93s-1.26-10.73.74-17.14-30.54-20.83-30.54-20.83Z"/>
            <path class="cls-2" d="m82.52,125.68s-.12,1.84-.31,4.63h.17c-2.32,17.4,14.02,26.51,29.57,27.32-.07-3.51.1-7.87,1.12-11.13,2-6.41-30.54-20.83-30.54-20.83Z"/>
            <path class="cls-4" d="m127.89,102.1s5.14,15.14,0,33.8c-5.14,18.66-13.79,18.66-18.12,18.66s-23.79-.27-27.85-21.36c0,0-5.95-6.22-4.33-14.33s6.76,0,6.76,0c0,0-.54,4.87,1.35,4.87s-.27-7.03,1.08-14.6c1.35-7.57,11.09-13.52,20.55-11.36,9.46,2.16,11-.3,14.06-.45,2.18-.1,5.37.25,6.49,4.78Z"/>
            <g>
              <g>
                <path class="cls-12" d="m101.97,118.06c-.4-.05-.83-.09-1.18.12-.34.21-.5.6-.61.98-.15.52-.2,1.15.19,1.51.22.2.52.27.81.31.38.06.79.08,1.14-.09.42-.21.66-.65.84-1.09.2-.5.32-1.16-.09-1.51-.13-.11-.29-.17-.46-.22-.32-.09-.66-.12-.99-.09"/>
                <path class="cls-12" d="m101.97,117.45c-.48-.06-.96-.06-1.4.16s-.7.65-.87,1.09c-.29.75-.4,1.79.25,2.4.39.36.88.45,1.38.51s1,0,1.41-.26c.37-.24.64-.59.83-.99s.34-.81.37-1.26c.04-.54-.18-1.09-.65-1.39s-1.12-.37-1.66-.33c-.31.03-.62.26-.6.6.01.3.26.63.6.6.19-.01.37,0,.55,0-.11,0-.02,0,0,0,.05.01.11.02.16.03.09.02.17.05.25.07.15.05-.09-.06.04.02.02.02.08.07,0,0,.03.02.05.05.07.07.05.05-.06-.12-.01-.01,0,0,.04.07.04.07l-.03-.07s.02.05.02.07c0,0,.02.08.02.08-.01-.09-.01-.11,0-.04v.04c0,.06-.02.15,0,.21v-.08s0,.04,0,.06c0,.04-.01.07-.02.11-.03.15-.09.29-.14.43-.03.09.06-.13,0,0-.01.03-.03.06-.04.08-.03.07-.07.14-.11.2-.03.05-.08.15-.12.19.08-.06.04-.05.01-.02-.04.04-.07.08-.11.11-.02.02-.05.06-.08.07.12-.06.04-.03.01-.02-.04.02-.08.04-.12.07.02-.01.11-.04,0,0-.04.01-.08.02-.12.03-.03,0-.15.04-.01,0-.09.02-.19.01-.28.01-.08,0-.15,0-.23-.01-.02,0-.19-.01-.04,0-.03,0-.06,0-.09-.01-.08-.01-.15-.03-.23-.05-.03,0-.06-.02-.09-.03-.03,0-.06-.02-.09-.03.07.03.08.03.04.01-.02-.01-.09-.03-.1-.06.02.05.06.06.01,0l-.03-.03s-.04-.04.01.03c-.01,0-.04-.06-.04-.07,0-.02-.08-.11-.02-.04.05.07,0-.01-.01-.04,0-.03-.01-.05-.02-.08,0-.03-.01-.05-.01-.08.01.08.01.1,0,.06,0-.06,0-.13,0-.19,0-.04,0-.09,0-.13,0-.05-.02-.08,0,.03,0-.06.03-.16.04-.21.02-.08.04-.17.07-.25.02-.07.05-.14.07-.21.05-.14-.06.11,0-.02.02-.04.04-.08.06-.12.01-.02.03-.05.05-.07.06-.1-.08.08.02-.03.02-.03.05-.05.08-.08.09-.09-.1.05.02,0,0,0,.14-.07.06-.03-.08.03.09-.02.11-.03s.08-.02.09-.02c-.08.01-.09.01-.02,0h.05c.2-.01.39.01.59.03.31.04.62-.3.6-.6-.02-.36-.26-.56-.6-.6h0Z"/>
              </g>
              <g>
                <path class="cls-12" d="m120.99,118.91c-.56-.14-1.2.22-1.37.77-.06.19-.07.39-.07.59,0,.21.01.42.09.61.1.25.3.44.54.56.49.24,1.12.12,1.54-.24s.62-.92.61-1.47c0-.16-.03-.33-.09-.48-.16-.38-.58-.61-.98-.61s-.8.2-1.09.49"/>
                <path class="cls-12" d="m121.15,118.33c-.89-.2-1.79.29-2.1,1.15-.08.23-.1.49-.1.73s.01.48.07.71c.12.45.46.86.89,1.05s.92.24,1.39.11.85-.42,1.14-.8c.54-.71.7-1.88.13-2.61-.32-.41-.86-.66-1.38-.64-.56.02-1.08.28-1.47.67-.22.22-.24.63,0,.85s.61.24.85,0c.03-.03.07-.06.1-.09.02-.02.08-.08-.02,0,.05-.05.13-.09.19-.12.03-.01.05-.03.08-.04.13-.07-.12.03.02,0,.06-.01.16-.07.22-.06h-.07s.06,0,.09,0c.03,0,.06,0,.09,0,.14,0-.1-.02-.02,0,.03,0,.07.01.1.02.03,0,.05.02.08.02.13.03-.11-.07,0,0,.02.01.05.03.07.04.02.01.05.03.07.04l-.06-.05s.07.07.09.08c.06.05.02-.02-.02-.03.02,0,.04.07.05.08.02.04.08.09,0,0,.02.03.03.08.04.12,0,.04.05.14,0,0,.02.07.01.18.01.26,0,.06,0,.14-.01.2v-.07s0,.06,0,.09c0,.03-.01.06-.02.08-.02.07-.04.14-.06.21-.04.11.01-.01.01-.02,0,.04-.05.1-.07.13-.03.06-.07.11-.1.16-.08.12.09-.09-.01.01-.02.02-.04.04-.06.06-.03.03-.05.05-.08.07-.07.07-.05,0,0,0,0,0-.06.04-.07.05-.04.03-.08.05-.13.07-.08.04-.07,0,0,0-.02,0-.06.02-.08.03-.07.02-.14.04-.2.05-.14.03.1,0,.01,0-.03,0-.07,0-.1,0-.03,0-.06,0-.08,0-.03,0-.06,0-.08,0,.08.01.1.01.06,0-.06-.02-.12-.03-.18-.05-.13-.04.1.07,0,0-.02-.02-.05-.03-.07-.04-.01,0-.11-.09-.04-.03s-.03-.03-.03-.03c-.02-.02-.04-.04-.06-.06-.08-.08.06.1-.02-.03-.02-.03-.04-.06-.05-.09.02.13.02.05.01.02,0-.04-.04-.1-.03-.14,0,.01,0,.14,0,.02,0-.08,0-.16,0-.24s-.02-.22.01-.3c0,.01-.03.13,0,.01.01-.05.02-.1.04-.14v-.04c.04-.06.03-.05,0,.04.01,0,.05-.09.05-.1,0,0,.04-.06.04-.06-.06.07-.07.08-.02.03.01-.01.02-.03.04-.04.02-.02.05-.04.07-.06.09-.09-.11.07,0,0,.03-.02.19-.09.2-.11,0,.01-.14.05-.04.02.04,0,.07-.02.11-.03h.04c.07-.02.05-.02-.05,0,.03,0,.08,0,.11,0,.02,0,.05,0,.07,0,.07,0,.05,0-.05,0,.02,0,.05,0,.07.02.31.07.67-.09.74-.42.07-.31-.09-.67-.42-.74h0Z"/>
              </g>
              <path class="cls-12" d="m110.27,116.56c0,3.06.64,6.08,1.91,8.87.62,1.36,1.56,2.53,2.18,3.87.29.62.47,1.5-.04,2.06s-1.46.43-2.14.37c-.77-.07-.77,1.13,0,1.21,1.4.13,3.01-.04,3.52-1.59s-.44-2.94-1.23-4.2c-1.98-3.17-3-6.85-2.99-10.58,0-.78-1.2-.78-1.2,0h0Z"/>
              <path class="cls-12" d="m104.65,137.39c.09.66.49,1.25.92,1.74.4.47.89.86,1.4,1.19,1.14.73,2.47,1.1,3.79,1.35.32.06.65-.09.74-.42.08-.29-.1-.68-.42-.74-1.16-.22-2.32-.52-3.35-1.13-.82-.49-1.79-1.3-1.92-2.3-.04-.32-.46-.5-.74-.42-.35.1-.47.42-.42.74h0Z"/>
              <path class="cls-12" d="m117.83,116.32c.54-.57,1.19-.89,1.98-1.01-.06,0,.03,0,.04,0,.05,0,.09,0,.14-.01.1,0,.2-.01.31-.01s.2,0,.31.01c.06,0,.11,0,.17.02.11.01-.07-.01.04,0,.43.07.74.18,1.09.38.68.38,1.29-.66.61-1.04-1.76-1-4.14-.67-5.54.81-.53.56.32,1.42.85.85h0Z"/>
              <path class="cls-12" d="m104.38,113.61c-2.23-.64-4.81-.57-6.56,1.14-.55.54.3,1.4.85.85,1.44-1.41,3.58-1.35,5.39-.83.75.21,1.07-.95.32-1.16h0Z"/>
              <path class="cls-12" d="m116.16,108.86c-.4.64-.13,1.49.58,1.75.65.24,1.15-.23,1.74-.41.54-.17,1.12-.21,1.67-.09.64.14,1.21.5,1.85.64.24.05.57-.03.68-.28.32-.69-.19-1.15-.78-1.41-.55-.24-1.12-.44-1.71-.57-1.17-.25-2.37-.26-3.55-.03-.32.06-.5.44-.42.74.09.34.42.48.74.42.81-.15,1.66-.18,2.48-.05.42.06.83.16,1.23.29.2.06.39.13.58.21.09.04.18.08.26.12.25.12.07.1.08-.1l.08-.3-.03.06.68-.28c-.52-.11-.98-.38-1.49-.54s-1.06-.23-1.6-.2-1.05.15-1.55.36c-.12.05-.25.11-.37.17-.03.01-.2.08-.22.09.07-.09-.03.16.08,0,.41-.66-.63-1.27-1.04-.61h0Z"/>
              <path class="cls-12" d="m96.21,109.13c1.3-.73,2.69-1.26,4.15-1.58.65-.14,1.31-.26,1.98-.26.39,0,1.32.03,1.49.5.01.03.11.02-.05.06-.17.04-.36-.03-.52-.08-.33-.1-.65-.21-.99-.28-.67-.15-1.36-.22-2.05-.21s-1.38.11-2.04.27c-.33.08-.66.19-.97.32-.18.07-.37.15-.55.23-.09.04-.18.08-.26.13-.28.09-.29.33-.06.71.67-.39.07-1.44-.61-1.04-.63.37-.49,1.36.21,1.57.32.1.65,0,.95-.14.37-.17.73-.34,1.12-.47,1.46-.47,3.04-.5,4.51-.06.71.21,1.46.46,2.1-.06s.55-1.29.04-1.84c-.99-1.07-2.65-.85-3.93-.63-1.8.3-3.53.94-5.12,1.83-.68.38-.07,1.42.61,1.04h0Z"/>
              <path class="cls-12" d="m103.76,107.33c-.53.03-1.05.02-1.58-.05l.16.02c-.17-.02-.35-.05-.52-.09-.16-.03-.32-.02-.46.06-.13.07-.24.22-.28.36-.07.3.09.68.42.74.74.15,1.5.21,2.26.16.31-.02.62-.26.6-.6-.01-.31-.26-.63-.6-.6h0Z"/>
            </g>
          </g>
          <polygon class="cls-18" points="51.37 264.27 58.58 209.71 36.7 271.6 61.4 314.14 51.37 264.27"/>
          <path class="cls-9" d="m106.63,68.06c9.61,3.16,17.29,11.92,20.5,22.46l4.83-1.59s-3.5-19.06-25.33-20.87Z"/>
          <path class="cls-9" d="m96.82,68.36c-.32.04-.63.07-.96.11-36.23,5.3-25.94,40.89-25.94,40.89l49.64-16.36c-3.3-11.77-11.34-21.69-22.73-24.65Z"/>
          <path class="cls-8" d="m106.63,68.06c-2.92-.24-6.19-.16-9.81.3,11.39,2.96,19.43,12.88,22.73,24.65l7.57-2.5c-3.21-10.54-10.89-19.3-20.5-22.46Z"/>
          <path class="cls-5" d="m69.92,109.37s22.9-15.78,51.12-23.61c27.36-7.59,18.68,4.46,14.06,9.63-1.16,1.3-2.9,1.95-4.62,1.68-4.84-.76-16.11-1.69-29.53,2.78-17.98,5.99-31.02,9.52-31.02,9.52Z"/>
        </g>
      </g>
      <path class="cls-6" d="m93.66,214.81c-.19-2.3-.56-4.74-1.06-7.27-.52-2.61-1.18-5.3-1.95-8.03-12.06-.26-24.15-.25-36.37.07,1.72,2.96,3.17,6.14,4.12,9.52-1.28,4.57-2.54,9.25-3.74,13.95,13.16,0,26.32.04,39.48.13-.13-3.12-.29-5.94-.49-8.37Z"/>
      <path class="cls-6" d="m49.99,243.06c-1.61,7.71-2.89,15.13-3.65,21.82l1.32,4.33c15.24-.07,30.6.47,45.99,1.15.47-9.11.72-18.17.78-26.52-14.76-.47-29.54-.87-44.45-.78Z"/>
      <path class="cls-6" d="m142.76,202.08c-5.65-.41-11.28-.8-16.88-1.13.8,3.52,1.65,7.35,2.57,11.55.64,2.93,1.21,5.93,1.73,8.99.12.7.22,1.42.34,2.13,5.66.1,11.33.22,16.99.37-2.45-8.44-3.92-15.76-4.74-21.91Z"/>
      <path class="cls-6" d="m151.56,245.08c-6.19.03-12.36-.03-18.52-.14.41,4.85.75,9.69.97,14.44.21,4.33.34,8.59.43,12.71,5.63.18,11.25.32,16.86.4.21-8.86.33-18.24.26-27.41Z"/>
      <path class="cls-15" d="m62.7,318.38l-16.35-53.5c1.84-16.34,6.81-37.01,12.05-55.77-1.16-4.12-3.04-7.97-5.29-11.46-8.45-13.1-22.05-21.29-22.05-21.29-3.17,6.04-21.75,81.9-17.72,92.84l26.72,68.61,24.95-11.87-2.31-7.56Z"/>
    </g>
  </g>
  <path class="cls-15" d="m200.89,171.44l-23.34,39.22c-13.32-8.92-22.55-23.46-34.46-33.92-.02.06-.67,2.2-1.03,6.46-.74,8.68-.25,26.16,9.37,52.9.05.14.1.28.15.42,12.78,8.65,27.43,17.9,32.23,18.31,14.5,1.23,35.84-73.38,35.84-73.38l-18.75-10.01Z"/>
  <g class="cls-17">
    <ellipse class="cls-15" cx="-190.85" cy="247.66" rx="198.55" ry="59.49"/>
  </g>
</svg>