<?xml version="1.0" encoding="UTF-8"?>
<svg id="Capa_1" data-name="Capa 1" xmlns="http://www.w3.org/2000/svg" xmlns:xlink="http://www.w3.org/1999/xlink" viewBox="0 0 475.53 290.03">
  <defs>
    <style>
      .cls-1, .cls-2, .cls-3, .cls-4, .cls-5 {
        fill: none;
      }

      .cls-6 {
        filter: url(#outer-glow-10);
      }

      .cls-6, .cls-7, .cls-8 {
        fill: #fff;
      }

      .cls-2 {
        stroke-width: 1.42px;
      }

      .cls-2, .cls-3, .cls-4, .cls-5 {
        stroke: #192441;
        stroke-miterlimit: 10;
      }

      .cls-2, .cls-4 {
        stroke-linecap: round;
      }

      .cls-9 {
        clip-path: url(#clippath);
      }

      .cls-10 {
        fill: #f6f6f6;
      }

      .cls-11 {
        fill: #f8f7f7;
      }

      .cls-12 {
        fill: #ed6a4c;
      }

      .cls-13 {
        fill: #9d9d9c;
      }

      .cls-14 {
        fill: #b2b2b2;
      }

      .cls-15 {
        fill: #c6c6c6;
      }

      .cls-16 {
        fill: #1f2d49;
      }

      .cls-17, .cls-18 {
        fill: #34b9ca;
      }

      .cls-19, .cls-20, .cls-21 {
        fill: #192441;
      }

      .cls-3, .cls-21 {
        opacity: .4;
      }

      .cls-22 {
        clip-path: url(#clippath-1);
      }

      .cls-4 {
        stroke-width: 1px;
      }

      .cls-20, .cls-18, .cls-8 {
        opacity: .5;
      }
    </style>
    <clipPath id="clippath">
      <path class="cls-1" d="m109.2,35.68h238.39v145.38c0,3.85-3.12,6.97-6.97,6.97H109.2V35.68h0Z"/>
    </clipPath>
    <clipPath id="clippath-1">
      <rect class="cls-1" x="382.58" y="70.16" width="71.9" height="145.48" rx="12.22" ry="12.22" transform="translate(28.15 -64.93) rotate(9.18)"/>
    </clipPath>
    <filter id="outer-glow-10" filterUnits="userSpaceOnUse">
      <feOffset dx="0" dy="0"/>
      <feGaussianBlur result="blur" stdDeviation="2"/>
      <feFlood flood-color="#1d1d1b" flood-opacity=".5"/>
      <feComposite in2="blur" operator="in"/>
      <feComposite in="SourceGraphic"/>
    </filter>
  </defs>
  <rect class="cls-8" x="25.1" y="25.07" width="419.87" height="231.91" rx="29.36" ry="29.36"/>
  <rect class="cls-18" x="25.1" y="25.07" width="419.87" height="231.91" rx="29.36" ry="29.36"/>
  <g>
    <g>
      <path class="cls-13" d="m33.02,260.09v4.02c0,5.88,4.77,10.65,10.65,10.65h325.4c5.73,0,10.38-4.65,10.38-10.38v-4.29H33.02Z"/>
      <path class="cls-15" d="m371.72,267.28H40.75c-5.43,0-9.17-5.46-7.19-10.52l22.25-57.15c1.15-2.97,4.01-4.92,7.19-4.92h286.46c3.18,0,6.04,1.95,7.19,4.92l22.25,57.15c1.97,5.06-1.76,10.52-7.19,10.52Z"/>
      <rect class="cls-19" x="57.73" y="10.15" width="297.01" height="184.54" rx="5.54" ry="5.54"/>
      <rect class="cls-19" x="66.3" y="18.48" width="279.88" height="167.87" rx="4.55" ry="4.55"/>
      <path class="cls-13" d="m277.82,249.94l-2.71-13.92c-.54-2.78-2.97-4.78-5.8-4.78h-126.74c-2.49,0-4.72,1.56-5.56,3.91l-5,13.92c-1.38,3.85,1.47,7.91,5.56,7.91h134.45c3.72,0,6.51-3.39,5.8-7.04Z"/>
      <path class="cls-13" d="m63.97,205.13l-4.53,13.22c-.84,2.45.98,4.99,3.57,4.99h286.48c2.58,0,4.4-2.53,3.57-4.98l-4.48-13.22c-.52-1.53-1.95-2.56-3.57-2.56H67.54c-1.61,0-3.04,1.02-3.57,2.55Z"/>
    </g>
    <g>
      <rect class="cls-11" x="65.58" y="16.81" width="282.01" height="171.22" rx="6.84" ry="6.84"/>
      <path class="cls-7" d="m72.51,16.81h29.75c3.83,0,6.94,3.11,6.94,6.94v164.28h-36.69c-3.83,0-6.94-3.11-6.94-6.94V23.75c0-3.83,3.11-6.94,6.94-6.94Z"/>
      <path class="cls-7" d="m75.17,16.81h267c2.99,0,5.42,2.43,5.42,5.42v11.1H75.17c-2.99,0-5.42-2.43-5.42-5.42v-5.68c0-2.99,2.43-5.42,5.42-5.42Z"/>
      <g>
        <rect class="cls-17" x="68.49" y="39.11" width="8.95" height="8.95" rx="3.17" ry="3.17"/>
        <rect class="cls-19" x="79.28" y="41.88" width="27" height="3.42" rx="1.12" ry="1.12"/>
      </g>
      <g>
        <rect class="cls-17" x="68.49" y="51.34" width="8.95" height="8.95" rx="3.17" ry="3.17"/>
        <rect class="cls-19" x="79.28" y="54.11" width="27" height="3.42" rx="1.12" ry="1.12"/>
      </g>
      <g>
        <rect class="cls-17" x="68.49" y="63.57" width="8.95" height="8.95" rx="3.17" ry="3.17"/>
        <rect class="cls-19" x="79.28" y="66.34" width="27" height="3.42" rx="1.12" ry="1.12"/>
      </g>
      <rect class="cls-17" x="333.7" y="20.59" width="8.95" height="8.95" rx="2.94" ry="2.94"/>
      <rect class="cls-17" x="321.47" y="20.59" width="8.95" height="8.95" rx="2.94" ry="2.94"/>
      <rect class="cls-12" x="309.24" y="20.59" width="8.95" height="8.95" rx="2.94" ry="2.94"/>
      <rect class="cls-11" x="87.8" y="11.11" width="2.35" height="46.79" transform="translate(123.47 -54.47) rotate(90)"/>
      <g>
        <g>
          <path class="cls-19" d="m86.4,22.53c-1.41,0-2.56,1.15-2.56,2.56s1.15,2.56,2.56,2.56,2.56-1.15,2.56-2.56-1.15-2.56-2.56-2.56Zm0,3.99c-.79,0-1.43-.64-1.43-1.43s.64-1.43,1.43-1.43,1.43.64,1.43,1.43-.64,1.43-1.43,1.43Z"/>
          <path class="cls-19" d="m91.84,22.53c-1.41,0-2.56,1.15-2.56,2.56v3.26c0,.31.25.56.56.56s.56-.25.56-.56v-1.14c.41.28.91.44,1.43.44,1.41,0,2.56-1.15,2.56-2.56s-1.15-2.56-2.56-2.56Zm0,3.99c-.66,0-1.23-.45-1.39-1.09-.03-.11-.04-.23-.04-.34,0-.79.64-1.43,1.43-1.43s1.43.64,1.43,1.43-.64,1.43-1.43,1.43Z"/>
          <path class="cls-19" d="m97.36,22.53c-1.41,0-2.56,1.15-2.56,2.56v3.26c0,.31.25.56.56.56s.56-.25.56-.56v-1.14c.41.28.91.44,1.43.44,1.41,0,2.56-1.15,2.56-2.56s-1.15-2.56-2.56-2.56Zm0,3.99c-.66,0-1.23-.45-1.39-1.09-.03-.11-.04-.23-.04-.34,0-.79.64-1.43,1.43-1.43s1.43.64,1.43,1.43-.64,1.43-1.43,1.43Z"/>
          <path class="cls-19" d="m103.41,23.09c0-.31-.25-.56-.56-.56-1.41,0-2.56,1.15-2.56,2.56v1.99c0,.31.25.56.56.56s.56-.25.56-.56v-1.99c0-.79.64-1.43,1.43-1.43.31,0,.56-.25.56-.56Z"/>
          <circle class="cls-12" cx="103.88" cy="26.98" r=".67"/>
        </g>
        <g>
          <g>
            <path class="cls-17" d="m79.97,21.33c.07.37,0,.77-.22,1.11-.28.43-.76.69-1.27.69,0,0,0,0-.01,0,.46.53.72,1.21.72,1.94,0,1.63-1.33,2.95-2.95,2.95-1.12,0-2.1-.63-2.6-1.55v2.71c0,.15-.02.3-.07.44.78.46,1.69.72,2.66.72,2.91,0,5.28-2.37,5.28-5.28,0-1.42-.56-2.76-1.55-3.73Z"/>
            <path class="cls-17" d="m76.24,22.11c.57,0,1.13.16,1.61.48,0,0,0,0,0,0,.54.35,1.26.2,1.61-.34.35-.54.2-1.26-.34-1.61,0,0,0,0,0,0-.86-.56-1.85-.85-2.88-.85-2.82,0-5.13,2.22-5.27,5.01h0v4.39c0,.64.52,1.16,1.16,1.16.56,0,1.03-.4,1.14-.92.02-.08.02-.16.02-.24v-4.12c0-1.63,1.33-2.95,2.95-2.95Z"/>
          </g>
          <circle class="cls-12" cx="76.24" cy="25.07" r="1.91"/>
        </g>
      </g>
    </g>
    <path class="cls-16" d="m109.2,35.68h238.39v145.38c0,3.85-3.12,6.97-6.97,6.97H109.2V35.68h0Z"/>
    <g class="cls-9">
      <path class="cls-17" d="m346.17,305.65c-61.18,0-110.96-49.77-110.96-110.96s49.77-110.96,110.96-110.96,110.96,49.77,110.96,110.96-49.77,110.96-110.96,110.96Zm0-173.05c-34.24,0-62.09,27.85-62.09,62.09s27.86,62.09,62.09,62.09,62.09-27.85,62.09-62.09-27.86-62.09-62.09-62.09Z"/>
      <g>
        <path class="cls-12" d="m142.88,114.56c-13.21-4.85-19.98-19.49-15.13-32.7,4.85-13.21,19.49-19.98,32.7-15.13,28.07,10.31,59.33.23,76.01-24.52,2.9-4.3,5.29-8.99,7.1-13.92,4.85-13.21,19.49-19.98,32.7-15.13,13.21,4.85,19.98,19.49,15.13,32.7-3.22,8.78-7.49,17.13-12.68,24.83-29.83,44.26-85.69,62.31-135.84,43.88Z"/>
        <path class="cls-12" d="m258.71,60.99c-13.21-4.85-19.98-19.49-15.13-32.7l52.04-141.64c4.85-13.21,19.49-19.98,32.7-15.13,13.21,4.85,19.98,19.49,15.13,32.7l-52.04,141.64c-4.85,13.21-19.49,19.98-32.7,15.13Z"/>
      </g>
      <circle class="cls-17" cx="165.16" cy="186.35" r="33.51"/>
    </g>
    <rect class="cls-7" x="117.05" y="57.51" width="223.98" height="48.2" rx="5.59" ry="5.59"/>
    <rect class="cls-7" x="117.05" y="111.22" width="69.92" height="48.2" rx="5.59" ry="5.59"/>
    <rect class="cls-7" x="194.14" y="111.22" width="69.92" height="48.2" rx="5.59" ry="5.59"/>
    <rect class="cls-7" x="271.11" y="111.22" width="69.92" height="48.2" rx="5.59" ry="5.59"/>
    <rect class="cls-19" x="124.63" y="64.81" width="128.79" height="4.76" rx="1.68" ry="1.68"/>
    <rect class="cls-19" x="124.63" y="73.29" width="95.67" height="4.76" rx="1.68" ry="1.68"/>
    <rect class="cls-17" x="329.86" y="64.61" width="5.17" height="5.17" rx="1.83" ry="1.83"/>
    <rect class="cls-12" x="322.8" y="64.61" width="5.17" height="5.17" rx="1.83" ry="1.83"/>
    <rect class="cls-19" x="122.52" y="123.95" width="55.97" height="2.07" rx=".73" ry=".73"/>
    <rect class="cls-19" x="122.52" y="118.3" width="55.97" height="2.07" rx=".73" ry=".73"/>
    <rect class="cls-19" x="122.52" y="129.05" width="41.57" height="2.07" rx=".73" ry=".73"/>
    <rect class="cls-17" x="129.58" y="148.54" width="5.17" height="5.17" rx="1.83" ry="1.83"/>
    <rect class="cls-12" x="122.52" y="148.54" width="5.17" height="5.17" rx="1.83" ry="1.83"/>
    <rect class="cls-19" x="200.03" y="117.61" width="55.97" height="2.07" rx=".73" ry=".73"/>
    <rect class="cls-19" x="200.03" y="122.71" width="41.57" height="2.07" rx=".73" ry=".73"/>
    <rect class="cls-17" x="207.09" y="147.85" width="5.17" height="5.17" rx="1.83" ry="1.83"/>
    <rect class="cls-12" x="200.03" y="147.85" width="5.17" height="5.17" rx="1.83" ry="1.83"/>
    <rect class="cls-19" x="276.48" y="123.26" width="55.97" height="2.07" rx=".73" ry=".73"/>
    <rect class="cls-19" x="276.48" y="117.61" width="55.97" height="2.07" rx=".73" ry=".73"/>
    <rect class="cls-19" x="276.48" y="128.36" width="41.57" height="2.07" rx=".73" ry=".73"/>
    <rect class="cls-17" x="283.54" y="147.85" width="5.17" height="5.17" rx="1.83" ry="1.83"/>
    <rect class="cls-12" x="276.48" y="147.85" width="5.17" height="5.17" rx="1.83" ry="1.83"/>
    <rect class="cls-20" x="200.03" y="128.36" width="14.59" height="7.52" rx="2.66" ry="2.66"/>
    <rect class="cls-7" x="201.41" y="129.39" width="5.17" height="5.17" rx="1.83" ry="1.83"/>
  </g>
  <rect class="cls-14" x="380.44" y="68.33" width="75.51" height="149.5" rx="12.22" ry="12.22" transform="translate(28.18 -64.88) rotate(9.18)"/>
  <g>
    <g>
      <g class="cls-22">
        <rect class="cls-10" x="382.58" y="70.16" width="71.9" height="145.48" rx="12.22" ry="12.22" transform="translate(28.15 -64.93) rotate(9.18)"/>
        <rect class="cls-6" x="382.82" y="63.87" width="93.54" height="30.64" transform="translate(18.13 -67.51) rotate(9.18)"/>
        <g>
          <g>
            <path class="cls-19" d="m411.63,78.53c-1.08-.17-2.1.6-2.29,1.72s.55,2.18,1.63,2.35,2.1-.6,2.29-1.72-.55-2.18-1.63-2.35Zm-.51,3.17c-.6-.1-1.01-.69-.91-1.32s.68-1.06,1.28-.96,1.01.69.91,1.32-.68,1.06-1.28.96Z"/>
            <path class="cls-19" d="m415.8,79.2c-1.08-.17-2.1.6-2.29,1.72l-.42,2.59c-.04.25.12.48.36.52s.46-.13.5-.38l.15-.91c.28.27.64.46,1.04.52,1.08.17,2.1-.6,2.29-1.72s-.55-2.18-1.63-2.35Zm-.51,3.17c-.51-.08-.89-.51-.92-1.04,0-.09,0-.19.01-.28.1-.63.68-1.06,1.28-.96s1.01.69.91,1.32-.68,1.06-1.28.96Z"/>
            <path class="cls-19" d="m420.02,79.89c-1.08-.17-2.1.6-2.29,1.72l-.42,2.59c-.04.25.12.48.36.52s.46-.13.5-.38l.15-.91c.28.27.64.46,1.04.52,1.08.17,2.1-.6,2.29-1.72s-.55-2.18-1.63-2.35Zm-.51,3.17c-.51-.08-.89-.51-.92-1.04,0-.09,0-.19.01-.28.1-.63.68-1.06,1.28-.96s1.01.69.91,1.32-.68,1.06-1.28.96Z"/>
            <path class="cls-19" d="m424.57,81.08c.04-.25-.12-.48-.36-.52-1.08-.17-2.1.6-2.29,1.72l-.26,1.59c-.04.25.12.48.36.52s.46-.13.5-.38l.26-1.59c.1-.63.68-1.06,1.28-.96.24.04.46-.13.5-.38Z"/>
            <ellipse class="cls-12" cx="424.44" cy="84.24" rx=".54" ry=".52" transform="translate(273.57 489.8) rotate(-80.82)"/>
          </g>
          <g>
            <g>
              <path class="cls-17" d="m406.87,76.78c0,.3-.1.61-.31.86-.27.31-.67.46-1.06.39,0,0,0,0,0,0,.28.48.4,1.05.3,1.63-.21,1.3-1.39,2.19-2.64,1.99-.86-.14-1.52-.76-1.79-1.56l-.35,2.16c-.02.12-.06.24-.11.34.54.46,1.2.79,1.94.91,2.23.36,4.34-1.23,4.72-3.55.18-1.13-.08-2.26-.7-3.16Z"/>
              <path class="cls-17" d="m403.92,76.94c.44.07.84.27,1.17.58h0c.37.35.94.31,1.27-.07.34-.38.31-.98-.05-1.32,0,0,0,0,0,0-.58-.55-1.31-.91-2.09-1.03-2.16-.35-4.21,1.13-4.68,3.33h0s-.04.22-.04.22l-.53,3.28c-.08.51.25.99.74,1.07.43.07.84-.19.99-.59.02-.06.04-.12.05-.19l.53-3.28c.21-1.3,1.39-2.19,2.64-1.99Z"/>
            </g>
            <ellipse class="cls-12" cx="403.54" cy="79.29" rx="1.54" ry="1.48" transform="translate(260.89 465.01) rotate(-80.82)"/>
          </g>
        </g>
        <g>
          <line class="cls-4" x1="451.91" y1="83.93" x2="459.53" y2="85.16"/>
          <line class="cls-4" x1="451.41" y1="87.03" x2="459.03" y2="88.26"/>
          <line class="cls-4" x1="450.91" y1="90.13" x2="458.53" y2="91.36"/>
        </g>
      </g>
      <line class="cls-2" x1="395.38" y1="209.17" x2="419.63" y2="213.09"/>
    </g>
    <rect class="cls-7" x="392.32" y="97.38" width="66.08" height="6.54" rx="3.02" ry="3.02" transform="translate(21.5 -66.56) rotate(9.18)"/>
    <g>
      <rect class="cls-21" x="395.02" y="95.57" width="14.72" height="2.72" rx="1.26" ry="1.26" transform="translate(20.61 -62.95) rotate(9.18)"/>
      <rect class="cls-21" x="410.2" y="98.33" width="18.51" height="2.72" rx="1.26" ry="1.26" transform="translate(21.27 -65.63) rotate(9.18)"/>
      <rect class="cls-19" x="429.28" y="101.41" width="18.51" height="2.72" rx="1.26" ry="1.26" transform="translate(22.01 -68.64) rotate(9.18)"/>
    </g>
    <rect class="cls-7" x="385.74" y="105.93" width="66.08" height="70.8" rx="3.85" ry="3.85" transform="translate(27.91 -64.99) rotate(9.18)"/>
    <g>
      <rect class="cls-19" x="397.41" y="107.51" width="14.72" height="2.72" rx="1.26" ry="1.26" transform="translate(22.55 -63.17) rotate(9.18)"/>
      <rect class="cls-5" x="393.52" y="105.92" width="2.72" height="2.72" rx="1.26" ry="1.26" transform="translate(22.17 -61.62) rotate(9.18)"/>
      <rect class="cls-19" x="412.73" y="110.4" width="18.45" height="2.72" rx="1.26" ry="1.26" transform="translate(23.23 -65.88) rotate(9.18)"/>
      <rect class="cls-19" x="432.12" y="112.76" width="10.28" height="2.72" rx="1.26" ry="1.26" transform="translate(23.8 -68.29) rotate(9.18)"/>
      <rect class="cls-19" x="443.32" y="114.57" width="10.28" height="2.72" rx="1.26" ry="1.26" transform="translate(24.24 -70.05) rotate(9.18)"/>
      <line class="cls-3" x1="392.87" y1="111.23" x2="452.86" y2="120.93"/>
    </g>
    <g>
      <rect class="cls-21" x="395.7" y="118.08" width="14.72" height="2.72" rx="1.26" ry="1.26" transform="translate(24.21 -62.77) rotate(9.18)"/>
      <rect class="cls-3" x="391.82" y="116.49" width="2.72" height="2.72" rx="1.26" ry="1.26" transform="translate(23.83 -61.21) rotate(9.18)"/>
      <rect class="cls-12" x="411.02" y="120.97" width="18.45" height="2.72" rx="1.26" ry="1.26" transform="translate(24.9 -65.47) rotate(9.18)"/>
      <rect class="cls-21" x="430.42" y="123.33" width="10.28" height="2.72" rx="1.26" ry="1.26" transform="translate(25.47 -67.88) rotate(9.18)"/>
      <rect class="cls-21" x="441.61" y="125.14" width="10.28" height="2.72" rx="1.26" ry="1.26" transform="translate(25.9 -69.65) rotate(9.18)"/>
    </g>
    <g>
      <rect class="cls-21" x="394.36" y="126.4" width="14.72" height="2.72" rx="1.26" ry="1.26" transform="translate(25.52 -62.45) rotate(9.18)"/>
      <rect class="cls-3" x="390.47" y="124.81" width="2.72" height="2.72" rx="1.26" ry="1.26" transform="translate(25.14 -60.89) rotate(9.18)"/>
      <rect class="cls-12" x="409.68" y="129.29" width="18.45" height="2.72" rx="1.26" ry="1.26" transform="translate(26.21 -65.15) rotate(9.18)"/>
      <rect class="cls-21" x="429.07" y="131.65" width="10.28" height="2.72" rx="1.26" ry="1.26" transform="translate(26.78 -67.56) rotate(9.18)"/>
      <rect class="cls-21" x="440.27" y="133.46" width="10.28" height="2.72" rx="1.26" ry="1.26" transform="translate(27.21 -69.33) rotate(9.18)"/>
    </g>
    <g>
      <rect class="cls-21" x="393.02" y="134.72" width="14.72" height="2.72" rx="1.26" ry="1.26" transform="translate(26.83 -62.12) rotate(9.18)"/>
      <rect class="cls-3" x="389.13" y="133.12" width="2.72" height="2.72" rx="1.26" ry="1.26" transform="translate(26.45 -60.57) rotate(9.18)"/>
      <rect class="cls-17" x="408.33" y="137.61" width="18.45" height="2.72" rx="1.26" ry="1.26" transform="translate(27.52 -64.83) rotate(9.18)"/>
      <rect class="cls-21" x="427.73" y="139.97" width="10.28" height="2.72" rx="1.26" ry="1.26" transform="translate(28.09 -67.24) rotate(9.18)"/>
      <rect class="cls-21" x="438.93" y="141.78" width="10.28" height="2.72" rx="1.26" ry="1.26" transform="translate(28.52 -69) rotate(9.18)"/>
    </g>
    <g>
      <rect class="cls-21" x="391.67" y="143.03" width="14.72" height="2.72" rx="1.26" ry="1.26" transform="translate(28.14 -61.8) rotate(9.18)"/>
      <rect class="cls-3" x="387.78" y="141.44" width="2.72" height="2.72" rx="1.26" ry="1.26" transform="translate(27.76 -60.25) rotate(9.18)"/>
      <rect class="cls-12" x="406.99" y="145.92" width="18.45" height="2.72" rx="1.26" ry="1.26" transform="translate(28.82 -64.51) rotate(9.18)"/>
      <rect class="cls-21" x="426.38" y="148.28" width="10.28" height="2.72" rx="1.26" ry="1.26" transform="translate(29.4 -66.92) rotate(9.18)"/>
      <rect class="cls-21" x="437.58" y="150.09" width="10.28" height="2.72" rx="1.26" ry="1.26" transform="translate(29.83 -68.68) rotate(9.18)"/>
    </g>
  </g>
</svg>