<?xml version="1.0" encoding="UTF-8"?>
<svg id="Capa_1" data-name="Capa 1" xmlns="http://www.w3.org/2000/svg" xmlns:xlink="http://www.w3.org/1999/xlink" viewBox="0 0 373.51 268.42">
  <defs>
    <style>
      .cls-1 {
        fill: none;
      }

      .cls-2 {
        fill: #282323;
        opacity: .1;
      }

      .cls-3 {
        clip-path: url(#clippath);
      }

      .cls-4 {
        fill: #f4a39b;
      }

      .cls-5, .cls-6 {
        fill: #f6f6f6;
      }

      .cls-7 {
        fill: #ed6a4c;
      }

      .cls-8 {
        fill: #ededed;
      }

      .cls-9 {
        fill: #fff;
      }

      .cls-10, .cls-11 {
        fill: #1f2d49;
      }

      .cls-12 {
        fill: #414a5e;
      }

      .cls-13 {
        fill: #1d1d1b;
      }

      .cls-14, .cls-15 {
        fill: #34b9ca;
      }

      .cls-16, .cls-17 {
        fill: #192441;
      }

      .cls-18 {
        fill: #283d56;
      }

      .cls-6, .cls-17, .cls-11 {
        opacity: .2;
      }

      .cls-15 {
        opacity: .5;
      }
    </style>
    <clipPath id="clippath">
      <rect class="cls-1" x="40.71" y="34.84" width="292.1" height="208.42" rx="12.13" ry="12.13"/>
    </clipPath>
  </defs>
  <rect class="cls-15" x="40.71" y="34.84" width="292.1" height="208.42" rx="12.13" ry="12.13"/>
  <g>
    <polygon class="cls-7" points="276.73 94.54 306.24 94.54 305.15 76.6 277.84 76.6 276.73 94.54"/>
    <polygon class="cls-7" points="301.84 22.29 281.2 22.29 280.32 36.45 302.71 36.45 301.84 22.29"/>
    <polygon class="cls-7" points="273.8 141.76 309.24 143.84 306.92 105.64 276.04 105.64 273.8 141.76"/>
    <polygon class="cls-7" points="279.64 47.55 278.52 65.5 304.47 65.5 303.38 47.55 279.64 47.55"/>
    <line class="cls-7" x1="302.71" y1="36.45" x2="303.38" y2="47.55"/>
    <polygon class="cls-7" points="302.71 36.45 280.32 36.45 279.64 47.55 303.38 47.55 302.71 36.45"/>
    <line class="cls-7" x1="304.47" y1="65.5" x2="305.15" y2="76.6"/>
    <polygon class="cls-7" points="277.84 76.6 305.15 76.6 304.47 65.5 278.52 65.5 277.84 76.6"/>
    <line class="cls-7" x1="306.24" y1="94.54" x2="306.92" y2="105.64"/>
    <polygon class="cls-7" points="276.04 105.64 306.92 105.64 306.24 94.54 276.73 94.54 276.04 105.64"/>
    <polygon class="cls-11" points="302.71 36.45 280.32 36.45 279.64 47.55 303.38 47.55 302.71 36.45"/>
    <polygon class="cls-11" points="277.84 76.6 305.15 76.6 304.47 65.5 278.52 65.5 277.84 76.6"/>
    <polygon class="cls-11" points="276.04 105.64 306.92 105.64 306.24 94.54 276.73 94.54 276.04 105.64"/>
  </g>
  <rect class="cls-7" x="275.57" y="14.72" width="31.91" height="11.1" rx="5.55" ry="5.55"/>
  <path class="cls-18" d="m111.67,128.25v73.35h-30.58v-57.86c0-1.34.66-2.6,1.77-3.37l22.38-15.48c2.72-1.88,6.43.07,6.43,3.37Z"/>
  <path class="cls-10" d="m91.48,164.92v-12.49c0-.46.27-.87.69-1.04l.13-.06c2.66-1.13,5.66-1.11,8.3.05h0c.41.18.68.59.68,1.04v12.5h-9.8Z"/>
  <path class="cls-18" d="m141.25,128.25v73.35h-30.58v-57.86c0-1.34.66-2.6,1.77-3.37l22.38-15.48c2.72-1.88,6.43.07,6.43,3.37Z"/>
  <path class="cls-10" d="m121.06,164.92v-12.49c0-.46.27-.87.69-1.04l.13-.06c2.66-1.13,5.66-1.11,8.3.05h0c.41.18.68.59.68,1.04v12.5h-9.8Z"/>
  <path class="cls-18" d="m260.94,128.25v73.35h-30.58v-57.86c0-1.34.66-2.6,1.77-3.37l22.38-15.48c2.72-1.88,6.43.07,6.43,3.37Z"/>
  <path class="cls-10" d="m240.75,164.92v-12.49c0-.46.27-.87.69-1.04l.13-.06c2.66-1.13,5.66-1.11,8.3.05h0c.41.18.68.59.68,1.04v12.5h-9.8Z"/>
  <path class="cls-18" d="m290.52,128.25v73.35h-30.58v-57.86c0-1.34.66-2.6,1.77-3.37l22.38-15.48c2.72-1.88,6.43.07,6.43,3.37Z"/>
  <path class="cls-10" d="m271.33,164.92v-12.49c0-.46.27-.87.69-1.04l.13-.06c2.66-1.13,5.66-1.11,8.3.05h0c.41.18.68.59.68,1.04v12.5h-9.8Z"/>
  <path class="cls-18" d="m320.1,128.25v73.35h-30.58v-57.86c0-1.34.66-2.6,1.77-3.37l22.38-15.48c2.72-1.88,6.43.07,6.43,3.37Z"/>
  <path class="cls-10" d="m301.9,164.92v-12.49c0-.46.27-.87.69-1.04l.13-.06c2.66-1.13,5.66-1.11,8.3.05h0c.41.18.68.59.68,1.04v12.5h-9.8Z"/>
  <g>
    <polygon class="cls-7" points="148.44 88.05 168.86 88.05 168.11 74.04 149.2 74.04 148.44 88.05"/>
    <polygon class="cls-7" points="165.82 31.64 151.53 31.64 150.93 42.7 166.42 42.7 165.82 31.64"/>
    <polygon class="cls-7" points="146.41 124.91 170.94 126.53 169.33 96.71 147.96 96.71 146.41 124.91"/>
    <polygon class="cls-7" points="150.45 51.37 149.68 65.37 167.64 65.37 166.88 51.37 150.45 51.37"/>
    <line class="cls-14" x1="166.42" y1="42.7" x2="166.88" y2="51.37"/>
    <polygon class="cls-7" points="166.42 42.7 150.93 42.7 150.45 51.37 166.88 51.37 166.42 42.7"/>
    <line class="cls-14" x1="167.64" y1="65.37" x2="168.11" y2="74.04"/>
    <polygon class="cls-7" points="149.2 74.04 168.11 74.04 167.64 65.37 149.68 65.37 149.2 74.04"/>
    <line class="cls-14" x1="168.86" y1="88.05" x2="169.33" y2="96.71"/>
    <polygon class="cls-7" points="147.96 96.71 169.33 96.71 168.86 88.05 148.44 88.05 147.96 96.71"/>
    <polygon class="cls-11" points="166.42 42.7 150.93 42.7 150.45 51.37 166.88 51.37 166.42 42.7"/>
    <polygon class="cls-11" points="149.2 74.04 168.11 74.04 167.64 65.37 149.68 65.37 149.2 74.04"/>
    <polygon class="cls-11" points="147.96 96.71 169.33 96.71 168.86 88.05 148.44 88.05 147.96 96.71"/>
  </g>
  <rect class="cls-7" x="147.63" y="25.73" width="22.08" height="8.67" rx="4.33" ry="4.33"/>
  <rect class="cls-11" x="275.57" y="14.72" width="31.91" height="11.1" rx="5.55" ry="5.55"/>
  <rect class="cls-11" x="147.63" y="25.73" width="22.08" height="8.67" rx="4.33" ry="4.33"/>
  <path class="cls-18" d="m170.72,201.6v-84.19c0-3.07,1.84-5.84,4.66-7.04l.88-.37c17.91-7.6,38.16-7.48,55.97.34h0c2.78,1.22,4.58,3.97,4.58,7.01v84.26h-66.09Z"/>
  <path class="cls-10" d="m193.96,192.6v-24.98c0-.91.54-1.73,1.38-2.09l.26-.11c5.31-2.25,11.32-2.22,16.61.1h0c.82.36,1.36,1.18,1.36,2.08v25h-19.61Z"/>
  <path class="cls-10" d="m198.86,147.86v-12.49c0-.46.27-.87.69-1.04l.13-.06c2.66-1.13,5.66-1.11,8.3.05h0c.41.18.68.59.68,1.04v12.5h-9.8Z"/>
  <path class="cls-10" d="m181.86,147.86v-12.49c0-.46.27-.87.69-1.04l.13-.06c2.66-1.13,5.66-1.11,8.3.05h0c.41.18.68.59.68,1.04v12.5h-9.8Z"/>
  <path class="cls-10" d="m215.86,147.86v-12.49c0-.46.27-.87.69-1.04l.13-.06c2.66-1.13,5.66-1.11,8.3.05h0c.41.18.68.59.68,1.04v12.5h-9.8Z"/>
  <path class="cls-7" d="m148.95,123.72h19.46c4.67,0,8.46,3.79,8.46,8.46v69.41h-36.39v-69.41c0-4.67,3.79-8.46,8.46-8.46Z"/>
  <rect class="cls-10" x="147.63" y="132.73" width="23.12" height="6.32" rx="3.16" ry="3.16"/>
  <rect class="cls-10" x="147.63" y="144.07" width="23.12" height="6.32" rx="3.16" ry="3.16"/>
  <path class="cls-10" d="m149.39,192.6v-24.98c0-.91.54-1.73,1.38-2.09l.26-.11c5.31-2.25,11.32-2.22,16.61.1h0c.82.36,1.36,1.18,1.36,2.08v25h-19.61Z"/>
  <g class="cls-3">
    <ellipse class="cls-16" cx="202.66" cy="247.66" rx="198.55" ry="59.49"/>
  </g>
  <g>
    <path class="cls-16" d="m59.59,103.29s-6.14,22.74-5.32,27.31c.83,4.57,7.04,18.88,7.04,18.88l4.37-42.27-6.1-3.93Z"/>
    <path class="cls-4" d="m76.45,89.07c.1-.21.15-.41.17-.62-.93-.23-1.55-.35-1.55-.35,0,0-1.26,7.27-2.38,8.52l8.38,5.45s.55-1.03,1.67-3.03c-3.9-1.99-6.29-5.74-6.29-9.97Z"/>
    <path class="cls-4" d="m76.62,88.45c-.02.21-.06.41-.17.62,0,4.23,2.39,7.98,6.29,9.97.59-1.05,1.33-2.37,2.25-3.95,2.07-3.59-5.09-5.82-8.37-6.64Z"/>
    <path class="cls-2" d="m76.62,88.45c-.02.21-.06.41-.17.62,0,4.23,2.39,7.98,6.29,9.97.59-1.05,1.33-2.37,2.25-3.95,2.07-3.59-5.09-5.82-8.37-6.64Z"/>
    <path class="cls-4" d="m89.04,76.5s3.63,4.89,3.63,11.6-2.62,10.51-7.26,10.4c-4.64-.11-8.84-6.41-8.53-11.03.87-12.93,12.16-10.97,12.16-10.97Z"/>
    <path class="cls-13" d="m91.17,80.54s.56-12.63-13.6-6.58c-9.31,3.97-3.32,18.14-3.32,18.14,0,0,3.35,1.75,3.72-2.01.37-3.76.09-8.73,3.07-9.79,2.97-1.06,10.14.24,10.14.24Z"/>
    <polygon class="cls-4" points="79.76 222.97 79.46 226.86 82.09 228.97 85.23 226.57 85.78 220.86 79.76 222.97"/>
    <polygon class="cls-4" points="51.89 210.68 48.4 215.35 53.65 219.89 57.3 212.54 51.89 210.68"/>
    <path class="cls-12" d="m59.42,149.82s-2.86,2.14-1.07,10.18c1.79,8.04,5.72,23.22,5.72,23.22l-15,28.4,7.5,6.07,18.06-30.27c.81-1.35,1.23-2.89,1.23-4.46v-10.46s2.14,4.64,2.32,9.47c.18,4.82,0,41.98,0,41.98,0,0,2.32,1.96,8.22-.89l4.47-40.37s3.04-19.95-4.64-31.77c-7.68-11.82-26.79-1.1-26.79-1.1Z"/>
    <g>
      <path class="cls-4" d="m82.72,160.11s.28,5.16-1.36,7.28c-1.64,2.12-4.46,2.54-4.58,1.84s1.53-2.5,1.53-4.41-1.53-6.74.34-7.44,4.07,2.72,4.07,2.72Z"/>
      <g>
        <path class="cls-7" d="m85.09,132.47h-1.22c-.67,4.44-1.11,8.59-.96,11.59,0,.13.02.25.02.37h4.22c-.56-3.56-1.34-7.77-2.06-11.96Z"/>
        <path class="cls-7" d="m82.93,144.43c.2,3.72.61,7.12.87,9.75,1.74-.16,3.01-.38,3.54-.61.93-.42.6-4.12-.19-9.14h-4.22Z"/>
        <path class="cls-7" d="m84.46,128.75c-.22,1.25-.42,2.5-.6,3.72h1.22c-.21-1.25-.42-2.5-.62-3.72Z"/>
        <path class="cls-7" d="m77.44,109.01c-.08.11-.14.21-.22.33-3.49,4.96-3.27,32.32-2.66,45.21.36,0,.72,0,1.07,0-.63-11.81-.97-39.08,2.2-45.71-.15.05-.27.12-.4.18Z"/>
        <path class="cls-17" d="m77.44,109.01c-.08.11-.14.21-.22.33-3.49,4.96-3.27,32.32-2.66,45.21.36,0,.72,0,1.07,0-.63-11.81-.97-39.08,2.2-45.71-.15.05-.27.12-.4.18Z"/>
        <path class="cls-16" d="m80.47,100.57s-.06-.02-.06-.02c0,0,.77.39.57,1.93-.15,1.14-.82,2.91-2.74,5.64-3.6,5.12-3.25,34.14-2.6,46.42.17,3.13.35,5.19.5,5.47.64,1.21,4.98.35,6.82-.32.24-.09.45-.17.59-.25.63-.34.54-2.32.25-5.27-.27-2.72-.7-6.26-.89-10.12-.19-3.82.56-9.52,1.56-15.31,1.11-6.41,2.51-12.93,3.27-17.16,1.39-7.74-6.64-10.79-7.27-11.02Z"/>
      </g>
      <path class="cls-7" d="m76.57,110.62c.2-.52.42-.96.65-1.29.08-.12.14-.22.22-.33.13-.06.25-.13.4-.18,0,0,6.7-4.7,8.77-3.49,0,0-2.65-5.77-10.52-8.25,0,0-.17-.06-.46-.12-.35-.09-.66-.14-.93-.15-1.43-.15-3.76-.03-5.9,1.72-3.42,2.79-8.38,2.52-9.19,4.77-.18.51-.58,3.13-1.05,6.91,6.01-.42,12.02-.15,18.02.42Z"/>
      <path class="cls-7" d="m76.57,110.62c-6.01-.57-12.02-.84-18.02-.42-.35,2.89-.74,6.47-1.1,10.31h17.39c.37-4.26.93-7.8,1.73-9.89Z"/>
      <path class="cls-7" d="m74.26,132.47h-17.72c-.24,4.39-.36,8.56-.25,11.96h17.96c-.06-3.81-.07-7.92.01-11.96Z"/>
      <path class="cls-6" d="m85.09,132.47h-1.22c-.67,4.44-1.11,8.59-.96,11.59,0,.13.02.25.02.37h4.22c-.56-3.56-1.34-7.77-2.06-11.96Z"/>
      <path class="cls-6" d="m76.57,110.62c-6.01-.57-12.02-.84-18.02-.42-.35,2.89-.74,6.47-1.1,10.31h17.39c.37-4.26.93-7.8,1.73-9.89Z"/>
      <path class="cls-6" d="m74.26,132.47h-17.72c-.24,4.39-.36,8.56-.25,11.96h17.96c-.06-3.81-.07-7.92.01-11.96Z"/>
      <path class="cls-7" d="m56.29,144.43c.13,4.16.61,7.15,1.6,7.87,2.25,1.63,9.76,2.22,16.67,2.24-.13-2.81-.25-6.31-.31-10.11h-17.96Z"/>
      <path class="cls-7" d="m74.83,120.51h-17.39c-.36,3.87-.68,7.99-.9,11.96h17.72c.08-4.22.26-8.35.57-11.96Z"/>
    </g>
    <path class="cls-13" d="m49.23,214.15s-2.41.91-2.41,2.56.59,11.67,4.6,12.49c4.01.82,6.6-.47,6.48-1.53s-3.89-2.71-4.24-7.78c-.35-5.07-1.76-3.38-4.43-5.74Z"/>
    <path class="cls-13" d="m79.46,226.86s-2,5.84,3.77,5.96c5.77.12,12.73-4.26,10.37-5.96s-9.9,0-9.9,0h-4.24Z"/>
    <g>
      <g>
        <path class="cls-13" d="m83.96,87.48c-.13,0-.26,0-.36.07-.1.07-.14.19-.16.31-.03.16-.03.34.1.44.07.05.17.06.26.07.12,0,.25,0,.35-.06.13-.07.19-.21.23-.34.05-.15.07-.35-.07-.44-.04-.03-.1-.04-.15-.05-.1-.02-.21-.02-.31,0"/>
        <path class="cls-13" d="m83.94,87.3c-.15,0-.3,0-.43.08s-.2.21-.24.35c-.07.23-.08.54.14.7.13.09.29.11.44.11s.31-.02.43-.11c.11-.08.18-.19.23-.31s.08-.25.08-.38c0-.16-.08-.32-.24-.39s-.36-.08-.53-.05c-.1.02-.19.09-.17.19.01.09.1.18.2.16.06,0,.11-.01.17-.01-.03,0,0,0,0,0,.02,0,.03,0,.05,0,.03,0,.05,0,.08.01.05.01-.03-.02.01,0,0,0,.03.02,0,0,0,0,.02.01.02.02.02.01-.02-.03,0,0,0,0,.01.02.01.02v-.02s0,.01,0,.02c0,0,0,.02,0,.02,0-.03,0-.03,0-.01h0s0,.06,0,.07v-.02s0,.01,0,.02c0,.01,0,.02,0,.03,0,.04-.02.09-.03.13,0,.03.02-.04,0,0,0,0,0,.02-.01.03,0,.02-.02.04-.03.06,0,.02-.02.05-.03.06.02-.02.01-.01,0,0-.01.01-.02.02-.03.04,0,0-.02.02-.02.02.03-.02.01,0,0,0-.01,0-.02.02-.03.02,0,0,.03-.01,0,0-.01,0-.02,0-.04.01-.01,0-.04.02,0,0-.03,0-.06,0-.09.01-.02,0-.05,0-.07,0,0,0-.06,0-.01,0,0,0-.02,0-.03,0-.02,0-.05,0-.07,0,0,0-.02,0-.03,0,0,0-.02,0-.03,0,.02,0,.03,0,.01,0,0,0-.03,0-.03-.01,0,.01.02.02,0,0h-.01s-.01-.02,0,0c0,0-.01-.02-.02-.02,0,0-.03-.03,0,0,.02.02,0,0,0-.01,0,0,0-.02,0-.02,0,0,0-.02,0-.02,0,.02,0,.03,0,.02,0-.02,0-.04,0-.06,0-.01,0-.03,0-.04,0-.01,0-.02,0,0,0-.02,0-.05,0-.06,0-.03,0-.05.01-.08,0-.02.01-.04.02-.06.01-.04-.02.03,0,0,0-.01.01-.02.02-.04,0,0,0-.02.01-.02.02-.03-.02.03,0-.01,0,0,.01-.02.02-.02.03-.03-.03.02,0,0,0,0,.04-.03.02-.01-.02.01.03,0,.03-.01s.02,0,.03,0c-.03,0-.03,0,0,0h.01c.06,0,.12,0,.18,0,.1,0,.18-.11.17-.19-.01-.1-.1-.16-.2-.16h0Z"/>
      </g>
      <g>
        <path class="cls-13" d="m89.9,87.23c-.18-.03-.37.1-.41.26-.01.06-.01.12,0,.17,0,.06.01.12.04.18.04.07.1.12.18.15.16.06.35,0,.47-.11s.17-.29.15-.45c0-.05-.02-.1-.04-.14-.06-.11-.19-.16-.32-.15s-.24.08-.33.17"/>
        <path class="cls-13" d="m89.93,87.05c-.28-.04-.55.13-.62.39-.02.07-.02.15-.01.22s.02.14.04.21c.05.13.17.24.3.29s.29.05.43,0,.25-.15.34-.27c.15-.22.17-.57-.02-.77-.11-.11-.28-.17-.44-.15-.17.02-.33.11-.44.23-.06.07-.06.19.02.25s.2.05.27-.02c0-.01.02-.02.03-.03,0,0,.02-.03,0,0,.02-.02.04-.03.06-.04,0,0,.02,0,.02-.01.04-.02-.04.01,0,0,.02,0,.05-.03.07-.02h-.02s.02,0,.03,0c0,0,.02,0,.03,0,.04,0-.03,0,0,0,.01,0,.02,0,.03,0,0,0,.02,0,.03,0,.04,0-.04-.02,0,0,0,0,.02,0,.02,0,0,0,.02,0,.02.01h-.02s.02,0,.03.01c.02.01,0,0,0,0,0,0,.02.02.02.02,0,.01.03.02,0,0,0,0,.01.02.01.03,0,.01.02.04,0,0,0,.02,0,.05,0,.08,0,.02,0,.04,0,.06v-.02s0,.02,0,.03c0,0,0,.02,0,.03,0,.02,0,.04-.01.06,0,.03,0,0,0,0,0,.01-.01.03-.02.04,0,.02-.02.03-.03.05-.02.04.03-.03,0,0,0,0-.01.01-.02.02,0,0-.01.02-.02.02-.02.02-.02,0,0,0,0,0-.02.01-.02.02-.01,0-.03.02-.04.02-.02.01-.02,0,0,0,0,0-.02,0-.02.01-.02,0-.04.01-.06.02-.04.01.03,0,0,0-.01,0-.02,0-.03,0,0,0-.02,0-.03,0,0,0-.02,0-.03,0,.03,0,.03,0,.02,0-.02,0-.04,0-.06-.01-.04,0,.03.02,0,0,0,0-.02,0-.02-.01,0,0-.04-.02-.01,0s0,0-.01,0c0,0-.01-.01-.02-.02-.03-.02.02.03,0,0,0,0-.01-.02-.02-.03.01.04,0,.01,0,0,0-.01-.01-.03-.01-.04,0,0,0,.04,0,0,0-.02,0-.05,0-.07s-.01-.06,0-.09c0,0,0,.04,0,0,0-.01,0-.03,0-.04h0s0-.03,0,0c0,0,.01-.03.01-.03,0,0,.01-.02.01-.02-.02.02-.02.03,0,.01,0,0,0,0,.01-.01,0,0,.01-.01.02-.02.03-.03-.03.02,0,0,0,0,.06-.03.06-.04,0,0-.04.02-.01,0,.01,0,.02,0,.03-.01h.01s.01,0-.02,0c0,0,.03,0,.03,0,0,0,.02,0,.02,0,.02,0,.02,0-.02,0,0,0,.02,0,.02,0,.1.01.21-.05.22-.14.01-.09-.05-.19-.15-.21h0Z"/>
      </g>
      <path class="cls-13" d="m86.5,86.82c.07.9.35,1.77.82,2.56.23.38.55.7.78,1.08.11.17.18.43.04.61s-.44.17-.66.16c-.24,0-.21.35.03.36.44,0,.93-.09,1.05-.56s-.21-.85-.49-1.2c-.7-.88-1.11-1.94-1.2-3.04-.02-.23-.39-.2-.37.03h0Z"/>
      <path class="cls-13" d="m85.28,93.1c.04.19.18.35.33.49.14.13.3.23.47.31.37.18.8.26,1.21.3.1,0,.2-.04.22-.14.02-.09-.05-.2-.15-.21-.37-.03-.74-.09-1.07-.24-.27-.12-.59-.34-.66-.63-.02-.09-.15-.14-.24-.1-.11.04-.13.14-.11.23h0Z"/>
      <path class="cls-13" d="m88.85,86.55c.15-.18.35-.29.59-.35-.02,0,0,0,.01,0,.01,0,.03,0,.04,0,.03,0,.06,0,.09-.01s.06,0,.1,0c.02,0,.04,0,.05,0,.03,0-.02,0,.01,0,.13.01.24.03.35.08.22.1.38-.23.16-.32-.57-.25-1.3-.09-1.7.38-.15.18.13.41.29.23h0Z"/>
      <path class="cls-13" d="m84.6,86.11c-.71-.13-1.51-.04-2.01.51-.16.18.13.4.29.23.41-.45,1.08-.49,1.65-.39.24.04.31-.31.07-.35h0Z"/>
      <path class="cls-13" d="m88.14,84.4c-.11.2,0,.44.23.5.21.05.35-.1.53-.17.16-.06.34-.09.52-.07.2.02.39.11.59.14.08,0,.18-.02.2-.1.08-.21-.09-.33-.28-.39-.18-.06-.36-.1-.55-.12-.37-.04-.74-.01-1.1.08-.1.03-.15.14-.11.23.04.1.14.13.24.1.25-.07.51-.1.77-.08.13,0,.26.03.39.05.06.01.13.03.19.05.03,0,.06.02.09.03.08.03.02.03.02-.03l.02-.09v.02c.06-.03.13-.07.2-.1-.16-.02-.32-.09-.48-.12s-.34-.04-.5-.02-.32.07-.47.15c-.04.02-.07.04-.11.06,0,0-.06.03-.06.03.02-.03,0,.05.02,0,.11-.2-.23-.36-.34-.15h0Z"/>
      <path class="cls-13" d="m81.94,85.01c.39-.25.81-.44,1.25-.57.2-.06.4-.11.61-.13.12-.01.41-.03.48.11,0,0,.03,0-.01.02-.05.02-.11,0-.16,0-.11-.02-.21-.04-.32-.06-.21-.03-.43-.03-.64,0s-.43.07-.63.13c-.1.03-.2.07-.29.12-.06.03-.11.05-.16.08-.03.01-.05.03-.08.04-.08.03-.08.1,0,.21.2-.13-.02-.42-.21-.29-.19.13-.12.41.1.46.1.02.2-.02.29-.07.11-.06.22-.12.34-.17.44-.18.93-.23,1.4-.14.23.04.47.1.65-.07s.14-.39-.03-.54c-.33-.29-.85-.18-1.24-.08-.55.14-1.07.37-1.55.67-.2.13.01.42.21.29h0Z"/>
      <path class="cls-13" d="m84.24,84.27c-.16.02-.33.03-.49.03h.05c-.05,0-.11,0-.16,0-.05,0-.1,0-.14.03-.04.02-.07.07-.08.11-.01.09.04.2.15.21.23.02.47.02.71-.01.1-.01.19-.09.17-.19-.01-.09-.1-.18-.2-.16h0Z"/>
    </g>
    <path class="cls-9" d="m82.71,70.4c3.04,1,5.48,3.78,6.49,7.11l1.53-.5s-1.11-6.04-8.02-6.61Z"/>
    <path class="cls-9" d="m79.6,70.5c-.1.01-.2.02-.3.04-11.48,1.68-8.22,12.95-8.22,12.95l15.72-5.18c-1.05-3.73-3.59-6.87-7.2-7.81Z"/>
    <path class="cls-8" d="m82.71,70.4c-.93-.08-1.96-.05-3.11.1,3.61.94,6.15,4.08,7.2,7.81l2.4-.79c-1.02-3.34-3.45-6.11-6.49-7.11Z"/>
    <path class="cls-5" d="m71.07,83.49s7.26-5,16.19-7.48c8.67-2.4,5.92,1.41,4.45,3.05-.37.41-.92.62-1.46.53-1.53-.24-5.1-.54-9.36.88-5.7,1.9-9.83,3.02-9.83,3.02Z"/>
    <path class="cls-4" d="m78.22,86.61s-.22-1.38-1.11-1.09-.96,2.8,0,3.06,1.62,0,1.62,0l-.5-1.97Z"/>
  </g>
</svg>