<?xml version="1.0" encoding="UTF-8"?><svg id="Laag_1" xmlns="http://www.w3.org/2000/svg" xmlns:xlink="http://www.w3.org/1999/xlink" viewBox="0 0 600 427"><defs><style>.cls-1,.cls-2,.cls-3,.cls-4,.cls-5,.cls-6{fill:none;}.cls-1,.cls-7,.cls-8,.cls-9,.cls-10,.cls-11,.cls-12,.cls-13,.cls-14,.cls-15,.cls-16,.cls-17,.cls-18,.cls-19{stroke-width:0px;}.cls-2{stroke:#999;}.cls-2,.cls-3,.cls-4,.cls-5{opacity:.75;}.cls-2,.cls-3,.cls-4,.cls-5,.cls-6{stroke-miterlimit:10;stroke-width:1px;}.cls-3{stroke:#666;}.cls-4{stroke:#e6e6e6;}.cls-5{stroke:gray;}.cls-7{opacity:.2;}.cls-7,.cls-19{isolation:isolate;}.cls-8{fill-rule:evenodd;}.cls-8,.cls-13{fill:#fff;}.cls-9{fill:url(#Naamloos_verloop_2);}.cls-10{fill:#37c6d0;}.cls-11{fill:#1a9ba1;}.cls-12{fill:#0b2244;}.cls-14{fill:#ed6a4c;}.cls-15{fill:#00c5d2;}.cls-16{fill:#02c5d1;}.cls-17{fill:#036c70;}.cls-18{fill:#03787c;}.cls-6{stroke:#4d4d4d;}.cls-19{opacity:.1;}</style><linearGradient id="Naamloos_verloop_2" x1="399.24" y1="168.43" x2="399.24" y2="218.92" gradientUnits="userSpaceOnUse"><stop offset="0" stop-color="#00aeef"/><stop offset=".21" stop-color="#0097dc"/><stop offset=".52" stop-color="#007cc5"/><stop offset=".79" stop-color="#006cb8"/><stop offset="1" stop-color="#0066b3"/></linearGradient></defs><circle class="cls-6" cx="290.27" cy="223.12" r="31.75"/><circle class="cls-3" cx="289.02" cy="223.87" r="74.99"/><circle class="cls-5" cx="289.02" cy="224.37" r="112.49"/><circle class="cls-2" cx="290.02" cy="223.87" r="149.98"/><circle class="cls-4" cx="290.52" cy="223.37" r="187.48"/><circle class="cls-16" cx="278.02" cy="193.87" r="2.5"/><circle class="cls-13" cx="362.01" cy="240.87" r="2.5"/><circle class="cls-14" cx="176.54" cy="225.87" r="2.5"/><circle class="cls-16" cx="441" cy="335.35" r="2.5"/><circle class="cls-13" cx="312.02" cy="75.39" r="2.5"/><path class="cls-15" d="m302.87,208.65c.23,1.23.01,2.55-.72,3.68-.93,1.44-2.51,2.29-4.22,2.29h-.03c1.53,1.76,2.4,4.02,2.4,6.42,0,5.4-4.39,9.79-9.79,9.79-3.72,0-6.96-2.08-8.62-5.15v8.99c0,.51-.08.99-.22,1.45,2.6,1.52,5.61,2.4,8.83,2.4,9.65,0,17.5-7.85,17.5-17.5,0-4.71-1.87-9.13-5.13-12.39h0Z"/><path class="cls-15" d="m290.5,211.24c1.9,0,3.75.55,5.33,1.58h0c1.78,1.16,4.17.66,5.33-1.13s.66-4.17-1.13-5.33h0c-2.84-1.85-6.13-2.83-9.53-2.83-9.34,0-17.01,7.37-17.48,16.6h-.02v14.55c0,2.13,1.72,3.85,3.85,3.85,1.86,0,3.4-1.31,3.77-3.06.05-.25.08-.52.08-.79v-13.65c0-5.4,4.39-9.79,9.79-9.79h0Z"/><circle class="cls-14" cx="290.5" cy="221.03" r="6.33"/><circle class="cls-9" cx="399.24" cy="193.68" r="25.25"/><path class="cls-8" d="m409.44,186.77h-4.62l.02,10.86-4.02-10.86h-3.99l-3.43,9.07c-.36-2.31-2.75-3.11-4.63-3.7-1.24-.4-2.56-.98-2.54-1.63.01-.53.7-1.02,2.08-.95.93.05,1.74.12,3.37.91l1.6-2.79c-1.48-.75-3.53-1.23-5.21-1.23h-.01c-1.96,0-3.59.63-4.6,1.68-.71.73-1.09,1.66-1.1,2.68-.03,1.41.49,2.41,1.58,3.21.92.67,2.09,1.11,3.13,1.43,1.28.4,2.32.74,2.31,1.47,0,.27-.12.52-.3.72-.32.33-.81.45-1.48.47-1.3.03-2.27-.18-3.81-1.09l-1.42,2.82c1.54.87,3.17,1.31,5.03,1.31h.42c1.61-.03,2.93-.42,3.97-1.26.06-.05.11-.1.17-.14l-.17.9h3.9s.7-1.8.7-1.8c.73.25,1.57.39,2.46.39s1.68-.13,2.4-.37l.49,1.77h6.99s.02-4.07.02-4.07h1.49c3.6,0,5.72-1.83,5.72-4.9,0-3.42-2.07-4.91-6.46-4.91Zm-10.64,9.28c-.5,0-1-.08-1.47-.26l1.46-4.6h.03l1.43,4.62c-.43.15-.92.25-1.45.25h0Zm10.91-2.64h-1.01v-3.71h1.02c1.35,0,2.43.45,2.43,1.83,0,1.43-1.08,1.88-2.43,1.88"/><circle class="cls-12" cx="193.94" cy="279.32" r="25.25"/><circle class="cls-17" cx="193.15" cy="273.76" r="8.3"/><circle class="cls-11" cx="200.9" cy="281.07" r="7.1"/><circle class="cls-10" cx="194.02" cy="287.73" r="5.68"/><path class="cls-19" d="m194.6,271.57h-9.47c-1.2,4.43,1.41,8.99,5.84,10.19.71.19,1.44.29,2.17.29.24,0,.48-.01.72-.03v.03c-3.07.08-5.52,2.6-5.52,5.68,0,.15,0,.29.02.44h6.25c.64,0,1.16-.52,1.16-1.16v-14.27c0-.64-.52-1.16-1.16-1.16Z"/><path class="cls-7" d="m193.73,272.44h-8.78c-.72,4.53,2.37,8.79,6.9,9.51.43.07.87.1,1.3.1.24,0,.48-.01.72-.03v.03c-3.13.09-5.61,2.7-5.52,5.84.01.39.06.77.15,1.15h5.24c.64,0,1.16-.52,1.16-1.16v-14.27c0-.64-.52-1.16-1.16-1.16Z"/><path class="cls-7" d="m193.73,272.44h-8.78c-.72,4.53,2.37,8.79,6.9,9.51.43.07.87.1,1.3.1.24,0,.48-.01.72-.03v.03c-2.9.08-5.29,2.34-5.51,5.24h5.37c.64,0,1.16-.52,1.16-1.16v-12.52c0-.64-.52-1.16-1.16-1.16Z"/><path class="cls-7" d="m192.86,272.44h-7.91c-.72,4.53,2.37,8.79,6.9,9.51.43.07.87.1,1.3.1.24,0,.48-.01.72-.03v.03c-2.9.08-5.29,2.34-5.51,5.24h4.5c.64,0,1.16-.52,1.16-1.16v-12.52c0-.64-.52-1.16-1.16-1.16Z"/><path class="cls-18" d="m181.21,272.44h11.65c.64,0,1.16.52,1.16,1.16h0v11.65c0,.64-.52,1.16-1.16,1.16h-11.65c-.64,0-1.16-.52-1.16-1.16h0v-11.65c0-.64.52-1.16,1.16-1.16h0Z"/><path class="cls-13" d="m185,279.28c-.29-.2-.54-.46-.72-.76-.17-.32-.26-.68-.25-1.04-.02-.49.15-.97.47-1.35.33-.38.76-.66,1.24-.81.55-.18,1.12-.27,1.69-.26.75-.03,1.51.08,2.23.31v1.57c-.31-.19-.65-.33-1.01-.41-.39-.09-.78-.14-1.18-.14-.42-.02-.83.07-1.21.26-.29.13-.48.41-.48.73,0,.19.07.38.2.52.16.16.34.3.55.39.23.11.57.27,1.03.45.05.02.1.04.15.06.45.18.88.39,1.3.64.31.19.58.46.77.77.2.36.29.76.28,1.16.02.5-.13,1-.44,1.4-.3.37-.71.64-1.17.78-.54.17-1.1.25-1.66.24-.5,0-1.01-.04-1.5-.12-.42-.07-.83-.19-1.22-.35v-1.66c.37.27.79.47,1.24.59.44.14.9.21,1.36.22.43.03.85-.06,1.23-.26.26-.15.42-.44.42-.74,0-.21-.08-.42-.23-.57-.19-.18-.4-.33-.64-.45-.27-.14-.68-.32-1.21-.54-.42-.17-.83-.38-1.21-.63h0Z"/><path class="cls-1" d="m180.04,265.46h27.96v27.96h-27.96v-27.96Z"/><circle class="cls-12" cx="233.26" cy="85.19" r="25.25"/><path class="cls-13" d="m227.81,94.5c-.74,0-.74-1.12,0-1.12h6.45c-.01.19-.02.37-.02.56s0,.38.02.56h-6.45Zm2.22-10.49h-1.08v1.25h-1.66v-5.18h2.61c1.19,0,1.78.64,1.78,1.92,0,.7-.16,1.22-.46,1.56-.12.13-.28.24-.48.32-.2.09-.44.13-.71.13Zm-1.08-2.6v1.28h.38c.2,0,.34-.02.44-.06.09-.04.14-.14.14-.29v-.58c0-.15-.05-.24-.14-.29s-.24-.06-.44-.06h-.38Zm3.36,3.86v-5.18h2.32c.93,0,1.58.2,1.92.6s.52,1.06.52,1.99-.17,1.6-.52,1.99c-.35.4-.99.6-1.92.6h-2.32,0Zm2.35-3.86h-.69v2.53h.69c.23,0,.39-.03.49-.08s.15-.17.15-.36v-1.65c0-.19-.05-.31-.15-.36-.1-.05-.27-.08-.49-.08Zm6.2,1.93h-1.41v1.92h-1.66v-5.18h3.4l-.21,1.33h-1.53v.7h1.41v1.24h0Zm-1.78-13.27v1.83c0,4.12.96,4.36,4.34,4.36h1.38s-5.72-6.19-5.72-6.19Zm5.92,7.28h-1.35c-3.83,0-5.66-.26-5.66-5.42v-2.29h-12.03c-1.36,0-2.48,1.12-2.48,2.48v16.62h12.67c-.29.34-.55.71-.79,1.1h-11.88v5.64c0,1.36,1.12,2.48,2.48,2.48h9.35c.22.38.47.75.75,1.09h-10.11c-1.96,0-3.57-1.61-3.57-3.57v-23.36c0-1.96,1.6-3.57,3.57-3.57h12.95c.17,0,.33.08.43.22l6.59,7.14c.14.15.15.29.15.47v10.47c-.35-.19-.71-.35-1.09-.48v-9.01h0Z"/><path class="cls-8" d="m242.29,87.22c3.71,0,6.72,3.01,6.72,6.72s-3.01,6.72-6.72,6.72-6.72-3.01-6.72-6.72,3.01-6.72,6.72-6.72Z"/></svg>