<?xml version="1.0" encoding="UTF-8"?>
<svg id="Capa_1" data-name="Capa 1" xmlns="http://www.w3.org/2000/svg" xmlns:xlink="http://www.w3.org/1999/xlink" viewBox="0 0 373.51 268.42">
  <defs>
    <style>
      .cls-1 {
        fill: none;
      }

      .cls-2 {
        fill: #282323;
        opacity: .1;
      }

      .cls-3 {
        clip-path: url(#clippath);
      }

      .cls-4 {
        fill: #f4a39b;
      }

      .cls-5, .cls-6 {
        fill: #f6f6f6;
      }

      .cls-7 {
        fill: #ed6a4c;
      }

      .cls-8 {
        fill: #ededed;
      }

      .cls-9 {
        fill: #fff;
      }

      .cls-10 {
        fill: #1d1d1b;
      }

      .cls-11, .cls-12 {
        fill: #34b9ca;
      }

      .cls-13 {
        fill: #192441;
      }

      .cls-6 {
        opacity: .2;
      }

      .cls-12 {
        opacity: .5;
      }
    </style>
    <clipPath id="clippath">
      <rect class="cls-1" x="-352.81" y="34.84" width="292.1" height="208.42" rx="12.13" ry="12.13"/>
    </clipPath>
  </defs>
  <rect class="cls-12" x="40.71" y="34.84" width="292.1" height="208.42" rx="12.13" ry="12.13"/>
  <g class="cls-3">
    <path class="cls-4" d="m-102.71,100.58s-1.57-8.22,6.74-9.05c8.31-.83,7.82,38.21,19.23,56.28,14.22,22.51.41,36.33,12.17,54.19,11.76,17.86,108.67,63.46,108.67,63.46l-82.76,58.01s-23.71-62.7-59.58-80.82c-35.86-18.13-36.69-7.06-59.71-53.34-23.02-46.28,55.23-88.72,55.23-88.72Z"/>
  </g>
  <g>
    <path class="cls-4" d="m233.96,148.86s-1.74-17.57-4.94-24.15c-3.2-6.58,5.32-23.66-2.34-22.77s-6.82,13.61-8.54,17.08c-1.71,3.47-16.95-12.47-22.16-1.67s-11.64,32.56-.24,33.46,19.36,8.64,19.36,8.64l18.86-10.6Z"/>
    <path class="cls-13" d="m208.75,156.39s16.12,70.96,25.71,79.68c9.6,8.73,28.28,15.4,28.28,15.4,0,0,23.04-3.8,16.1-34.03s-42.72-71.64-42.72-71.64l-27.37,10.59Z"/>
    <g>
      <path class="cls-13" d="m141.09,242.69s.01.09.02.14l40.34-.06s0-.05-.02-.08h-40.35Z"/>
      <path class="cls-13" d="m181.44,242.69s0,.05.02.08l53.66-.08h-53.68Z"/>
      <path class="cls-13" d="m83.38,242.69s-5.43-46.83-21.17-58.44c-3.63,4.39-6.31,9.1-7.35,14.04-5.26,25.07,5.01,44.65,5.01,44.65l81.23-.12s-.01-.09-.02-.14h-57.71Z"/>
      <path class="cls-13" d="m219.96,225.09c4,5.95,8.97,11.87,15.15,17.6,0,0,.07-1.02.11-2.83-5.01-4.37-10.39-9.7-15.26-14.77Z"/>
      <path class="cls-13" d="m269.2,216.71c-9.22-29.98-46.58-45.71-63.79-51.49-.07.63-.13,1.27-.18,1.92,29.09,18.62,30.24,61.34,30,72.72,3.31,2.89,6.47,5.37,9.21,7.08,14.54,9.07,36.86,9.07,24.76-30.23Z"/>
      <path class="cls-13" d="m205.22,167.14c-1.25,14.8.4,36.59,14.74,57.96,4.87,5.07,10.25,10.39,15.26,14.77.24-11.38-.91-54.1-30-72.72Z"/>
      <path class="cls-7" d="m136.75,220.47c-4.67-19.03-11.82-37.36-22.1-54.1-3.25-2.46-6.04-6.38-8.08-11.98-5.51,2.36-31.19,13.96-44.36,29.86,8.41,6.2,13.88,22.46,17.14,36.26,19.13.32,38.26.26,57.39-.05Z"/>
      <path class="cls-7" d="m79.36,220.52c2.85,12.02,4.02,22.17,4.02,22.17h57.71c-1.1-7.48-2.54-14.9-4.34-22.22-19.13.31-38.26.37-57.39.05Z"/>
      <path class="cls-13" d="m147.85,154.33c-9.51,13.54-23.4,19.45-33.2,12.04,14.24,23.17,22.49,49.39,26.44,76.32h40.35c-5.7-29.82-13.11-59.3-26.51-87.18-3.05-.46-5.66-.89-7.08-1.18Z"/>
      <path class="cls-7" d="m205.22,167.14c.06-.66.12-1.3.18-1.92-5.36-1.8-8.76-2.64-8.76-2.64l.03.16c-6-2.42-12.93-3.95-20.93-4.29,0,0-12.22-1.63-20.81-2.94,9.92,20.63,16.55,42.14,21.64,64.01,13.06-.4,26.13-.86,39.19-1.35-10.45-19.07-11.65-37.83-10.54-51.03Z"/>
      <path class="cls-7" d="m219.96,225.09c-1.55-2.31-2.94-4.62-4.2-6.92-13.06.49-26.13.96-39.19,1.35,1.79,7.69,3.39,15.42,4.87,23.17h53.68c-6.18-5.73-11.15-11.65-15.15-17.6Z"/>
    </g>
    <path class="cls-6" d="m79.36,220.52c2.85,12.02,4.02,22.17,4.02,22.17h57.71c-1.1-7.48-2.54-14.9-4.34-22.22-19.13.31-38.26.37-57.39.05Z"/>
    <path class="cls-6" d="m219.96,225.09c-1.55-2.31-2.94-4.62-4.2-6.92-13.06.49-26.13.96-39.19,1.35,1.79,7.69,3.39,15.42,4.87,23.17h53.68c-6.18-5.73-11.15-11.65-15.15-17.6Z"/>
    <g>
      <path d="m102.27,104.3s-4.87-1.95-9.3-19.89c-4.43-17.94,3.54-18.09,4.65-32.48s16.61-23.03,35.21-19.49c18.6,3.54,14.19,12.52,25.04,2.78,10.85-9.74,26.36-3.17,26.36,8.79s6.77,26.36-5.34,37.74c-8.49,7.98-48.49,31.44-48.49,31.44l-28.12-8.9Z"/>
      <path class="cls-4" d="m110.46,104.23s-2.63,41.22-4.18,49.28c-.77,3.99,8.53,14.21,18.12,23.51,9.24,8.97,24.63,5.62,29.26-6.4l2.93-7.63s-1.95-16.61,1.15-26.53c3.09-9.92-47.28-32.23-47.28-32.23Z"/>
      <path class="cls-2" d="m110.46,104.23s-.18,2.84-.48,7.17h.26c-3.59,26.94,21.7,41.03,45.77,42.29-.11-5.44.16-12.19,1.73-17.22,3.09-9.92-47.28-32.23-47.28-32.23Z"/>
      <path class="cls-4" d="m180.69,67.73s7.95,23.44,0,52.31c-7.95,28.88-21.34,28.88-28.04,28.88s-36.83-.42-43.11-33.06c0,0-9.21-9.63-6.7-22.18s10.46,0,10.46,0c0,0-.84,7.53,2.09,7.53s-.42-10.88,1.67-22.6c2.09-11.72,17.16-20.92,31.81-17.58,14.65,3.35,17.03-.47,21.76-.7,3.37-.16,8.3.38,10.04,7.39Z"/>
      <g>
        <g>
          <path class="cls-10" d="m140.57,92.43c-.62-.07-1.29-.14-1.82.19-.52.32-.78.93-.94,1.52-.23.8-.31,1.78.29,2.34.33.31.8.41,1.25.48.59.09,1.23.12,1.76-.14.65-.32,1.03-1.01,1.3-1.68.31-.77.49-1.79-.14-2.34-.2-.17-.45-.27-.71-.34-.5-.13-1.01-.18-1.52-.13"/>
          <path class="cls-10" d="m140.57,91.5c-.74-.09-1.48-.1-2.16.25-.69.34-1.08,1-1.35,1.69-.45,1.16-.63,2.78.38,3.71.6.55,1.37.69,2.14.78s1.54.01,2.18-.4c.57-.37.99-.92,1.28-1.53.3-.62.52-1.26.58-1.95.07-.84-.28-1.69-1-2.15s-1.74-.57-2.58-.5c-.49.04-.96.4-.93.93.02.47.41.98.93.94.29-.02.57-.01.85,0-.17-.01-.03,0,0,0,.08.02.17.03.25.05.13.03.26.07.39.11.23.07-.14-.09.06.04.04.02.13.1,0-.01.04.04.07.07.11.11.08.08-.1-.19-.02-.02,0,0,.06.11.06.11l-.05-.11s.03.08.04.12c0,.01.03.12.03.12-.02-.15-.02-.17-.01-.06v.06c0,.09-.03.24,0,.32l.02-.12s-.01.07-.02.1c-.01.06-.02.11-.03.16-.05.23-.13.45-.22.66-.05.14.1-.21,0,0-.02.04-.04.09-.06.13-.05.11-.11.21-.17.32-.05.08-.12.24-.19.3.13-.1.06-.07.02-.02-.05.06-.11.12-.17.18-.04.04-.08.09-.13.11.18-.09.06-.05.02-.02-.06.03-.12.07-.18.1.03-.02.17-.06,0,0-.06.02-.12.04-.19.05-.05.01-.22.06-.02.01-.14.03-.29.02-.43.02-.12,0-.24-.01-.35-.02-.04,0-.3-.02-.06,0-.05,0-.1-.01-.14-.02-.12-.02-.24-.04-.35-.07-.05-.01-.09-.03-.14-.04-.05-.01-.09-.03-.13-.05.1.04.12.05.06.02-.03-.02-.14-.05-.15-.09.03.07.1.09.02.02l-.05-.05c-.07-.08-.06-.06.02.04-.02,0-.06-.1-.07-.1-.01-.02-.13-.17-.04-.06.08.1,0-.02-.02-.06-.01-.04-.02-.08-.03-.12,0-.04-.02-.08-.02-.13.02.13.02.16.01.09,0-.1,0-.2,0-.3,0-.07,0-.13.01-.2,0-.07-.03-.13,0,.05,0-.09.04-.24.06-.33.03-.13.07-.26.11-.39.03-.11.07-.22.11-.33.08-.22-.1.17.01-.03.03-.06.06-.12.1-.18.02-.04.05-.08.07-.12.09-.16-.12.12.04-.05.04-.04.08-.08.12-.12.14-.14-.15.07.03-.01,0,0,.22-.11.09-.05-.12.05.14-.04.17-.04s.12-.04.14-.03c-.13.02-.13.02-.03,0h.07c.3-.02.61.02.91.05.49.06.95-.47.93-.93-.02-.55-.41-.87-.93-.94h0Z"/>
        </g>
        <g>
          <path class="cls-10" d="m170.01,93.76c-.87-.22-1.85.34-2.12,1.19-.09.29-.11.6-.11.91,0,.32.02.65.14.95.15.38.46.68.83.86.76.37,1.73.19,2.38-.37.64-.56.96-1.43.94-2.28,0-.25-.04-.51-.14-.74-.25-.58-.89-.94-1.52-.95s-1.24.31-1.68.76"/>
          <path class="cls-10" d="m170.26,92.86c-1.37-.32-2.78.46-3.25,1.78-.13.36-.15.76-.16,1.13s.02.74.11,1.1c.19.7.71,1.32,1.37,1.62s1.43.38,2.15.18c.73-.2,1.32-.65,1.77-1.24.84-1.1,1.08-2.91.21-4.04-.49-.64-1.32-1.02-2.13-.99-.86.02-1.67.43-2.27,1.03-.35.34-.37.98,0,1.32s.95.37,1.32,0c.05-.05.1-.1.15-.15.03-.03.13-.13-.02.01.08-.08.2-.14.3-.19.04-.02.08-.04.12-.06.2-.11-.18.05.04-.01.09-.02.25-.11.34-.09h-.11s.09,0,.14,0c.04,0,.09,0,.13,0,.21,0-.16-.04-.03,0,.05.01.1.02.16.03.04.01.08.03.12.04.2.05-.17-.1.01,0,.04.02.07.04.11.06.04.02.07.04.11.07l-.09-.07s.12.11.14.13c.09.08.02-.02-.03-.05.03.01.07.1.09.13.03.06.12.14,0-.01.03.04.04.13.05.18.01.06.08.21.01.01.04.11.02.28.02.4,0,.09.01.22-.02.3v-.11s0,.09,0,.13c0,.04-.02.09-.03.13-.03.11-.06.21-.1.32-.06.17.02-.02.02-.04,0,.06-.07.15-.11.21-.05.09-.1.17-.16.25-.12.18.14-.14-.02.02-.03.03-.06.07-.09.1-.04.04-.08.08-.12.12-.12.1-.08,0,.01,0-.01,0-.09.06-.11.07-.06.04-.13.08-.2.11-.12.06-.11,0,.01,0-.02,0-.09.03-.12.04-.1.03-.21.06-.32.08-.21.04.16,0,.02,0-.05,0-.11,0-.16,0-.04,0-.09,0-.13,0-.04,0-.09,0-.13-.01.13.02.16.02.09,0-.09-.03-.19-.05-.28-.08-.2-.06.16.1-.01-.01-.04-.02-.08-.04-.11-.06-.02-.01-.17-.14-.06-.04s-.04-.04-.05-.05c-.03-.03-.06-.06-.09-.09-.13-.13.09.16-.02-.04-.02-.04-.07-.1-.07-.14.03.2.03.07.02.02-.01-.06-.06-.15-.05-.22,0,.02.02.22,0,.03,0-.12-.01-.25-.01-.37s-.03-.34.02-.46c0,.02-.04.2,0,.02.02-.07.03-.15.06-.22l.02-.06c.04-.09.03-.07-.03.06.02,0,.07-.14.08-.15,0,0,.07-.09.06-.1-.09.11-.1.13-.04.05.02-.02.04-.04.06-.06.03-.03.07-.07.1-.1.14-.14-.17.1,0,0,.05-.03.29-.13.3-.17,0,.02-.22.07-.06.03.06-.02.11-.03.17-.05h.06c.1-.03.08-.03-.08,0,.04.01.13,0,.17,0,.04,0,.08,0,.12,0,.1,0,.08,0-.08-.01.04,0,.08.01.11.02.47.11,1.03-.14,1.15-.65.11-.48-.14-1.03-.65-1.15h0Z"/>
        </g>
        <path class="cls-10" d="m153.42,90.12c-.01,4.74.99,9.42,2.95,13.73.96,2.1,2.41,3.92,3.38,5.99.45.96.73,2.32-.06,3.18-.8.88-2.26.66-3.31.57-1.19-.11-1.19,1.76,0,1.87,2.16.2,4.66-.07,5.45-2.46s-.69-4.55-1.91-6.5c-3.07-4.9-4.65-10.6-4.63-16.38,0-1.2-1.86-1.21-1.87,0h0Z"/>
        <path class="cls-10" d="m144.71,122.36c.14,1.02.76,1.93,1.42,2.69.62.72,1.37,1.34,2.17,1.84,1.77,1.12,3.83,1.7,5.87,2.09.49.09,1.01-.14,1.15-.65.13-.46-.15-1.06-.65-1.15-1.8-.34-3.6-.8-5.18-1.75-1.27-.76-2.77-2.01-2.98-3.57-.07-.5-.71-.77-1.15-.65-.54.15-.72.65-.65,1.15h0Z"/>
        <path class="cls-10" d="m165.12,89.74c.83-.88,1.84-1.37,3.07-1.56-.1.01.04,0,.07,0,.07,0,.14-.01.21-.02.16-.01.32-.02.47-.02s.32,0,.47.02c.09,0,.17.01.26.03.17.02-.11-.02.06.01.66.11,1.15.28,1.69.59,1.04.59,1.99-1.02.94-1.61-2.73-1.55-6.4-1.04-8.57,1.25-.83.87.49,2.2,1.32,1.32h0Z"/>
        <path class="cls-10" d="m144.3,85.55c-3.45-.98-7.45-.89-10.15,1.77-.86.84.46,2.17,1.32,1.32,2.22-2.18,5.54-2.09,8.34-1.29,1.16.33,1.65-1.47.5-1.8h0Z"/>
        <path class="cls-10" d="m162.53,78.19c-.62.98-.19,2.31.91,2.71,1,.36,1.78-.35,2.69-.63.83-.26,1.73-.32,2.59-.14,1,.21,1.87.77,2.86.99.37.08.88-.04,1.05-.43.49-1.08-.3-1.77-1.21-2.18-.85-.38-1.73-.68-2.65-.88-1.82-.39-3.67-.4-5.49-.05-.5.09-.78.69-.65,1.15.14.52.65.75,1.15.65,1.25-.24,2.57-.27,3.84-.08.64.1,1.28.25,1.9.45.3.1.61.21.9.33.14.06.28.12.41.19.39.19.11.16.12-.16l.13-.47-.04.09,1.05-.43c-.8-.18-1.52-.59-2.3-.84-.79-.25-1.65-.36-2.47-.3-.83.05-1.63.24-2.4.56-.19.08-.38.17-.57.27-.04.02-.31.12-.33.14.11-.14-.04.25.13-.01.64-1.02-.97-1.96-1.61-.95h0Z"/>
        <path class="cls-10" d="m131.66,78.62c2.01-1.13,4.17-1.95,6.42-2.44,1-.22,2.03-.4,3.06-.41.6,0,2.05.04,2.31.77.02.05.17.03-.08.09-.27.06-.55-.04-.81-.12-.51-.15-1.01-.32-1.53-.44-1.04-.23-2.11-.34-3.17-.32s-2.13.16-3.16.42c-.51.13-1.02.29-1.51.49-.29.11-.57.23-.85.36-.14.06-.27.13-.41.2-.43.14-.46.51-.09,1.1,1.04-.6.1-2.22-.94-1.61-.98.57-.76,2.1.32,2.43.5.15,1.01,0,1.46-.21.57-.26,1.13-.53,1.73-.73,2.26-.73,4.7-.78,6.97-.09,1.09.33,2.26.72,3.25-.09.95-.77.85-2,.06-2.85-1.53-1.65-4.1-1.31-6.09-.98-2.78.47-5.47,1.45-7.92,2.83-1.05.59-.11,2.2.94,1.61h0Z"/>
        <path class="cls-10" d="m143.33,75.83c-.82.05-1.63.02-2.44-.08l.25.03c-.27-.04-.54-.08-.8-.14-.25-.05-.49-.04-.72.09-.19.11-.38.33-.43.56-.11.46.14,1.05.65,1.15,1.15.23,2.32.33,3.49.25.49-.03.96-.4.93-.93-.02-.48-.41-.97-.93-.94h0Z"/>
      </g>
    </g>
    <path class="cls-9" d="m147.79,15.04c14.87,4.9,26.76,18.44,31.73,34.76l7.48-2.47s-5.41-29.5-39.21-32.3Z"/>
    <path class="cls-9" d="m132.6,15.51c-.5.06-.98.1-1.49.18-56.08,8.2-40.16,63.29-40.16,63.29l76.83-25.32c-5.12-18.22-17.56-33.57-35.19-38.15Z"/>
    <path class="cls-8" d="m147.79,15.04c-4.53-.37-9.58-.25-15.18.47,17.63,4.59,30.07,19.93,35.19,38.15l11.72-3.86c-4.97-16.32-16.85-29.87-31.73-34.76Z"/>
    <path class="cls-5" d="m90.96,78.98s35.45-24.43,79.12-36.54c42.34-11.74,28.91,6.9,21.77,14.9-1.8,2.02-4.48,3.02-7.16,2.6-7.5-1.18-24.93-2.62-45.71,4.31-27.83,9.28-48.02,14.73-48.02,14.73Z"/>
  </g>
  <g>
    <circle class="cls-11" cx="296.72" cy="77.4" r="61.65"/>
    <path class="cls-9" d="m284.78,109.15c-.11,0-.23,0-.34,0-1.94-.09-3.76-.98-5.03-2.45l-21.68-25.11c-2.56-2.96-2.23-7.44.73-10,2.96-2.56,7.44-2.23,10,.73l16.81,19.47,40.18-38.43c2.83-2.71,7.32-2.6,10.02.22,2.71,2.83,2.61,7.31-.22,10.02l-45.57,43.58c-1.32,1.26-3.08,1.97-4.9,1.97Z"/>
  </g>
</svg>