<?xml version="1.0" encoding="UTF-8"?><svg id="Laag_1" xmlns="http://www.w3.org/2000/svg" xmlns:xlink="http://www.w3.org/1999/xlink" viewBox="0 0 1000 1000"><defs><style>.cls-1{fill:#121a2d;opacity:.29;}.cls-1,.cls-2,.cls-3,.cls-4,.cls-5,.cls-6,.cls-7,.cls-8,.cls-9,.cls-10,.cls-11,.cls-12,.cls-13,.cls-14,.cls-15,.cls-16,.cls-17,.cls-18,.cls-19,.cls-20,.cls-21,.cls-22,.cls-23,.cls-24,.cls-25{stroke-width:0px;}.cls-1,.cls-2,.cls-4,.cls-5,.cls-6,.cls-24,.cls-25{isolation:isolate;}.cls-2{fill:#282323;opacity:.1;}.cls-26{clip-path:url(#clippath);}.cls-3,.cls-27,.cls-28,.cls-29{fill:none;}.cls-27{stroke-width:1.35px;}.cls-27,.cls-28,.cls-29{stroke:#192441;stroke-miterlimit:10;}.cls-27,.cls-29{stroke-linecap:round;}.cls-4,.cls-5,.cls-6{opacity:.2;}.cls-4,.cls-11{fill:#192441;}.cls-5,.cls-15{fill:#1f2d49;}.cls-6,.cls-9{fill:#f6f6f6;}.cls-30{font-family:SpaceGrotesk-SemiBold, 'Space Grotesk';font-size:25px;font-weight:600;}.cls-30,.cls-31,.cls-19{fill:#fff;}.cls-32{clip-path:url(#clippath-1);}.cls-33{clip-path:url(#clippath-3);}.cls-34{clip-path:url(#clippath-2);}.cls-28{stroke-width:.38px;}.cls-31{stroke:#ededed;stroke-miterlimit:10;stroke-width:1.35px;}.cls-29{stroke-width:1.91px;}.cls-8{fill:#f4a39b;}.cls-10{fill:#283d56;}.cls-12,.cls-24{fill:#34b9ca;}.cls-13{fill:#1d1d1b;}.cls-14{fill:#414a5e;}.cls-16{fill:#dadada;}.cls-17{fill:#b2b2b2;}.cls-18{fill:#9d9d9c;}.cls-20{fill:#ededed;}.cls-21{fill:#ed6a4d;}.cls-22,.cls-25{fill:#ed6a4c;}.cls-23{fill:#e6e6e6;}.cls-24,.cls-25{opacity:.5;}</style><clipPath id="clippath"><rect class="cls-3" x="28.11" y="140.37" width="391.03" height="279.01" rx="16.24" ry="16.24"/></clipPath><clipPath id="clippath-1"><rect class="cls-3" x="577.29" y="145.13" width="387.16" height="276.25" rx="16.08" ry="16.08"/></clipPath><clipPath id="clippath-2"><rect class="cls-3" x="592.86" y="602.91" width="392.88" height="280.33" rx="16.32" ry="16.32"/></clipPath><clipPath id="clippath-3"><rect class="cls-3" x="845.65" y="662.08" width="90.52" height="183.15" rx="16.44" ry="16.44" transform="translate(-82.97 110.79) rotate(-6.8)"/></clipPath></defs><path class="cls-23" d="m947.38,513.92h-413.73c-10.85,0-19.65,8.8-19.65,19.65v412.86c0,11.19,9.33,20.13,20.5,19.64,233.94-10.19,421.84-197.79,432.51-431.61.51-11.19-8.44-20.54-19.64-20.54Z"/><path class="cls-23" d="m514.42,52.81v414.18c0,10.73,8.7,19.43,19.43,19.43h413.3c11.06,0,19.9-9.22,19.42-20.28-10.08-234.12-197.85-422.19-431.84-432.75-11.07-.5-20.31,8.34-20.31,19.42Z"/><path class="cls-23" d="m54.09,486.46h413.71c10.86,0,19.66-8.8,19.66-19.66V53.96c0-11.19-9.33-20.14-20.51-19.65C233.01,44.5,45.11,232.1,34.44,465.91c-.51,11.2,8.44,20.55,19.65,20.55Z"/><path class="cls-23" d="m487.04,947.45v-413.94c0-10.79-8.75-19.55-19.55-19.55H54.42c-11.13,0-20.02,9.28-19.54,20.4,10.13,234.03,197.82,422.01,431.72,432.63,11.13.51,20.43-8.39,20.43-19.54Z"/><rect class="cls-24" x="28.11" y="140.37" width="391.03" height="279.01" rx="16.24" ry="16.24"/><polygon class="cls-22" points="344.06 220.29 383.57 220.29 382.11 196.27 345.55 196.27 344.06 220.29"/><polygon class="cls-22" points="377.68 123.57 350.05 123.57 348.87 142.52 378.84 142.52 377.68 123.57"/><polygon class="cls-22" points="340.14 283.5 387.58 286.28 384.48 235.15 343.14 235.15 340.14 283.5"/><polygon class="cls-22" points="347.96 157.38 346.46 181.41 381.2 181.41 379.74 157.38 347.96 157.38"/><line class="cls-3" x1="378.84" y1="142.52" x2="379.74" y2="157.38"/><polygon class="cls-22" points="378.84 142.52 348.87 142.52 347.96 157.38 379.74 157.38 378.84 142.52"/><line class="cls-3" x1="381.2" y1="181.41" x2="382.11" y2="196.27"/><polygon class="cls-22" points="345.55 196.27 382.11 196.27 381.2 181.41 346.46 181.41 345.55 196.27"/><line class="cls-3" x1="383.57" y1="220.29" x2="384.48" y2="235.15"/><polygon class="cls-22" points="343.14 235.15 384.48 235.15 383.57 220.29 344.06 220.29 343.14 235.15"/><polygon class="cls-5" points="378.84 142.52 348.87 142.52 347.96 157.38 379.74 157.38 378.84 142.52"/><polygon class="cls-5" points="345.55 196.27 382.11 196.27 381.2 181.41 346.46 181.41 345.55 196.27"/><polygon class="cls-5" points="343.14 235.15 384.48 235.15 383.57 220.29 344.06 220.29 343.14 235.15"/><path class="cls-22" d="m349.94,113.43h27.86c4.1,0,7.43,3.33,7.43,7.43h0c0,4.1-3.33,7.43-7.43,7.43h-27.86c-4.1,0-7.43-3.33-7.43-7.43h0c0-4.1,3.33-7.43,7.43-7.43Z"/><path class="cls-10" d="m123.1,265.41v98.19h-40.94v-77.46c0-1.79.88-3.48,2.37-4.51l29.96-20.72c3.64-2.52,8.61.09,8.61,4.51h0Z"/><path class="cls-15" d="m96.07,314.5v-16.72c0-.62.36-1.16.92-1.39l.17-.08c3.56-1.51,7.58-1.49,11.11.07h0c.55.24.91.79.91,1.39v16.73h-13.12Z"/><path class="cls-10" d="m162.7,265.41v98.19h-40.94v-77.46c0-1.79.88-3.48,2.37-4.51l29.96-20.72c3.64-2.52,8.61.09,8.61,4.51h0Z"/><path class="cls-15" d="m135.67,314.5v-16.72c0-.62.36-1.16.92-1.39l.17-.08c3.56-1.51,7.58-1.49,11.11.07h0c.55.24.91.79.91,1.39v16.73h-13.12,0Z"/><path class="cls-10" d="m322.93,265.41v98.19h-40.94v-77.46c0-1.79.88-3.48,2.37-4.51l29.96-20.72c3.64-2.52,8.61.09,8.61,4.51h0Z"/><path class="cls-15" d="m295.9,314.5v-16.72c0-.62.36-1.16.92-1.39l.17-.08c3.56-1.51,7.58-1.49,11.11.07h0c.55.24.91.79.91,1.39v16.73h-13.12Z"/><path class="cls-10" d="m362.52,265.41v98.19h-40.94v-77.46c0-1.79.88-3.48,2.37-4.51l29.96-20.72c3.64-2.52,8.61.09,8.61,4.51h0Z"/><path class="cls-15" d="m336.83,314.5v-16.72c0-.62.36-1.16.92-1.39l.17-.08c3.56-1.51,7.58-1.49,11.11.07h0c.55.24.91.79.91,1.39v16.73h-13.12Z"/><path class="cls-10" d="m402.12,265.41v98.19h-40.94v-77.46c0-1.79.88-3.48,2.37-4.51l29.96-20.72c3.64-2.52,8.61.09,8.61,4.51h0Z"/><path class="cls-15" d="m377.76,314.5v-16.72c0-.62.36-1.16.92-1.39l.17-.08c3.56-1.51,7.58-1.49,11.11.07h0c.55.24.91.79.91,1.39v16.73h-13.12Z"/><polygon class="cls-22" points="172.32 211.6 199.66 211.6 198.66 192.84 173.34 192.84 172.32 211.6"/><polygon class="cls-22" points="195.59 136.08 176.46 136.08 175.66 150.89 196.39 150.89 195.59 136.08"/><polygon class="cls-22" points="169.61 260.94 202.44 263.11 200.29 223.19 171.68 223.19 169.61 260.94"/><polygon class="cls-22" points="175.01 162.49 173.98 181.24 198.03 181.24 197.01 162.49 175.01 162.49"/><line class="cls-3" x1="196.39" y1="150.89" x2="197.01" y2="162.49"/><polygon class="cls-22" points="196.39 150.89 175.66 150.89 175.01 162.49 197.01 162.49 196.39 150.89"/><line class="cls-3" x1="198.03" y1="181.24" x2="198.66" y2="192.84"/><polygon class="cls-22" points="173.34 192.84 198.66 192.84 198.03 181.24 173.98 181.24 173.34 192.84"/><line class="cls-3" x1="199.66" y1="211.6" x2="200.29" y2="223.19"/><polygon class="cls-22" points="171.68 223.19 200.29 223.19 199.66 211.6 172.32 211.6 171.68 223.19"/><polygon class="cls-5" points="196.39 150.89 175.66 150.89 175.01 162.49 197.01 162.49 196.39 150.89"/><polygon class="cls-5" points="173.34 192.84 198.66 192.84 198.03 181.24 173.98 181.24 173.34 192.84"/><polygon class="cls-5" points="171.68 223.19 200.29 223.19 199.66 211.6 172.32 211.6 171.68 223.19"/><rect class="cls-22" x="171.24" y="128.17" width="29.56" height="11.61" rx="5.8" ry="5.8"/><path class="cls-5" d="m349.94,113.43h27.86c4.1,0,7.43,3.33,7.43,7.43h0c0,4.1-3.33,7.43-7.43,7.43h-27.86c-4.1,0-7.43-3.33-7.43-7.43h0c0-4.1,3.33-7.43,7.43-7.43Z"/><rect class="cls-5" x="171.24" y="128.17" width="29.56" height="11.61" rx="5.8" ry="5.8"/><path class="cls-10" d="m202.15,363.61v-112.7c0-4.11,2.46-7.82,6.24-9.42l1.18-.5c23.98-10.17,51.08-10.01,74.93.46h0c3.72,1.63,6.13,5.31,6.13,9.38v112.8h-88.47Z"/><path class="cls-15" d="m233.26,351.56v-33.44c0-1.22.72-2.32,1.85-2.8l.35-.15c7.11-3.01,15.15-2.97,22.24.13h0c1.1.48,1.82,1.58,1.82,2.78v33.47h-26.25Z"/><path class="cls-15" d="m239.82,291.66v-16.72c0-.62.36-1.16.92-1.39l.17-.08c3.56-1.51,7.58-1.49,11.11.07h0c.55.24.91.79.91,1.39v16.73h-13.12Z"/><path class="cls-15" d="m217.06,291.66v-16.72c0-.62.36-1.16.92-1.39l.17-.08c3.56-1.51,7.58-1.49,11.11.07h0c.55.24.91.79.91,1.39v16.73h-13.12Z"/><path class="cls-15" d="m262.58,291.66v-16.72c0-.62.36-1.16.92-1.39l.17-.08c3.56-1.51,7.58-1.49,11.11.07h0c.55.24.91.79.91,1.39v16.73h-13.12Z"/><path class="cls-22" d="m173.01,259.35h26.05c6.25,0,11.33,5.07,11.33,11.33v92.92h-48.71v-92.92c0-6.25,5.07-11.33,11.33-11.33h.01Z"/><path class="cls-15" d="m175.47,271.41h22.49c2.34,0,4.23,1.89,4.23,4.23h0c0,2.34-1.89,4.23-4.23,4.23h-22.49c-2.34,0-4.23-1.89-4.23-4.23h0c0-2.34,1.89-4.23,4.23-4.23Z"/><path class="cls-15" d="m175.47,286.59h22.49c2.34,0,4.23,1.89,4.23,4.23h0c0,2.34-1.89,4.23-4.23,4.23h-22.49c-2.34,0-4.23-1.89-4.23-4.23h0c0-2.34,1.89-4.23,4.23-4.23Z"/><path class="cls-15" d="m173.6,351.56v-33.44c0-1.22.72-2.32,1.85-2.8l.35-.15c7.11-3.01,15.15-2.97,22.24.13h0c1.1.48,1.82,1.58,1.82,2.78v33.47h-26.25Z"/><g class="cls-26"><ellipse class="cls-11" cx="244.91" cy="425.27" rx="265.8" ry="79.64"/></g><path class="cls-11" d="m53.38,232s-8.22,30.44-7.12,36.56c1.11,6.12,9.42,25.27,9.42,25.27l5.85-56.59-8.17-5.26h.01Z"/><path class="cls-8" d="m75.95,212.96c.13-.28.2-.55.23-.83-1.24-.31-2.07-.47-2.07-.47,0,0-1.69,9.73-3.19,11.41l11.22,7.3s.74-1.38,2.24-4.06c-5.22-2.66-8.42-7.68-8.42-13.35Z"/><path class="cls-8" d="m76.18,212.13c-.03.28-.08.55-.23.83,0,5.66,3.2,10.68,8.42,13.35.79-1.41,1.78-3.17,3.01-5.29,2.77-4.81-6.81-7.79-11.2-8.89Z"/><path class="cls-2" d="m76.18,212.13c-.03.28-.08.55-.23.83,0,5.66,3.2,10.68,8.42,13.35.79-1.41,1.78-3.17,3.01-5.29,2.77-4.81-6.81-7.79-11.2-8.89Z"/><path class="cls-8" d="m92.81,196.14s4.86,6.55,4.86,15.53-3.51,14.07-9.72,13.92-11.83-8.58-11.42-14.77c1.16-17.31,16.28-14.69,16.28-14.69Z"/><path class="cls-13" d="m95.66,201.54s.75-16.91-18.21-8.81c-12.46,5.31-4.44,24.28-4.44,24.28,0,0,4.48,2.34,4.98-2.69.5-5.03.12-11.69,4.11-13.11,3.98-1.42,13.57.32,13.57.32h-.01Z"/><polygon class="cls-8" points="80.38 392.21 79.98 397.42 83.5 400.25 87.71 397.03 88.44 389.39 80.38 392.21"/><polygon class="cls-8" points="43.07 375.76 38.4 382.01 45.43 388.09 50.32 378.25 43.07 375.76"/><path class="cls-14" d="m53.15,294.29s-3.83,2.86-1.43,13.63,7.66,31.08,7.66,31.08l-20.08,38.02,10.04,8.13,24.18-40.52c1.08-1.81,1.65-3.87,1.65-5.97v-14s2.86,6.21,3.11,12.68c.24,6.45,0,56.2,0,56.2,0,0,3.11,2.62,11-1.19l5.98-54.04s4.07-26.71-6.21-42.53-35.86-1.47-35.86-1.47h-.03Z"/><path class="cls-8" d="m84.35,308.06s.37,6.91-1.82,9.75c-2.2,2.84-5.97,3.4-6.13,2.46s2.05-3.35,2.05-5.9-2.05-9.02.46-9.96,5.45,3.64,5.45,3.64h0Z"/><path class="cls-22" d="m87.52,271.06h-1.63c-.9,5.94-1.49,11.5-1.29,15.52,0,.17.03.33.03.5h5.65c-.75-4.77-1.79-10.4-2.76-16.01h0Z"/><path class="cls-22" d="m84.63,287.07c.27,4.98.82,9.53,1.16,13.05,2.33-.21,4.03-.51,4.74-.82,1.24-.56.8-5.52-.25-12.24h-5.65Z"/><path class="cls-22" d="m86.67,266.08c-.29,1.67-.56,3.35-.8,4.98h1.63c-.28-1.67-.56-3.35-.83-4.98Z"/><path class="cls-22" d="m77.28,239.66c-.11.15-.19.28-.29.44-4.67,6.64-4.38,43.27-3.56,60.52h1.43c-.84-15.81-1.3-52.32,2.95-61.19-.2.07-.36.16-.54.24h.01Z"/><path class="cls-4" d="m77.28,239.66c-.11.15-.19.28-.29.44-4.67,6.64-4.38,43.27-3.56,60.52h1.43c-.84-15.81-1.3-52.32,2.95-61.19-.2.07-.36.16-.54.24h.01Z"/><path class="cls-11" d="m81.33,228.36l-.08-.03s1.03.52.76,2.58c-.2,1.53-1.1,3.9-3.67,7.55-4.82,6.85-4.35,45.7-3.48,62.14.23,4.19.47,6.95.67,7.32.86,1.62,6.67.47,9.13-.43.32-.12.6-.23.79-.33.84-.46.72-3.11.33-7.05-.36-3.64-.94-8.38-1.19-13.55-.25-5.11.75-12.74,2.09-20.5,1.49-8.58,3.36-17.31,4.38-22.97,1.86-10.36-8.89-14.44-9.73-14.75h0Z"/><path class="cls-22" d="m76.11,241.81c.27-.7.56-1.29.87-1.73.11-.16.19-.29.29-.44.17-.08.33-.17.54-.24,0,0,8.97-6.29,11.74-4.67,0,0-3.55-7.72-14.08-11.04,0,0-.23-.08-.62-.16-.47-.12-.88-.19-1.24-.2-1.91-.2-5.03-.04-7.9,2.3-4.58,3.73-11.22,3.37-12.3,6.39-.24.68-.78,4.19-1.41,9.25,8.05-.56,16.09-.2,24.12.56h-.01Z"/><path class="cls-22" d="m76.11,241.81c-8.05-.76-16.09-1.12-24.12-.56-.47,3.87-.99,8.66-1.47,13.8h23.28c.5-5.7,1.24-10.44,2.32-13.24Z"/><path class="cls-22" d="m73.02,271.06h-23.72c-.32,5.88-.48,11.46-.33,16.01h24.04c-.08-5.1-.09-10.6.01-16.01Z"/><path class="cls-6" d="m87.52,271.06h-1.63c-.9,5.94-1.49,11.5-1.29,15.52,0,.17.03.33.03.5h5.65c-.75-4.77-1.79-10.4-2.76-16.01h0Z"/><path class="cls-6" d="m76.11,241.81c-8.05-.76-16.09-1.12-24.12-.56-.47,3.87-.99,8.66-1.47,13.8h23.28c.5-5.7,1.24-10.44,2.32-13.24Z"/><path class="cls-6" d="m73.02,271.06h-23.72c-.32,5.88-.48,11.46-.33,16.01h24.04c-.08-5.1-.09-10.6.01-16.01Z"/><path class="cls-22" d="m48.96,287.07c.17,5.57.82,9.57,2.14,10.54,3.01,2.18,13.07,2.97,22.32,3-.17-3.76-.33-8.45-.41-13.53h-24.04Z"/><path class="cls-22" d="m73.78,255.05h-23.28c-.48,5.18-.91,10.7-1.2,16.01h23.72c.11-5.65.35-11.18.76-16.01Z"/><path class="cls-13" d="m39.51,380.41s-3.23,1.22-3.23,3.43.79,15.62,6.16,16.72c5.37,1.1,8.84-.63,8.67-2.05s-5.21-3.63-5.68-10.41c-.47-6.79-2.36-4.52-5.93-7.68Z"/><path class="cls-13" d="m79.98,397.42s-2.68,7.82,5.05,7.98c7.72.16,17.04-5.7,13.88-7.98s-13.25,0-13.25,0h-5.68Z"/><path class="cls-13" d="m86.01,210.83c-.17,0-.35,0-.48.09s-.19.25-.21.41c-.04.21-.04.46.13.59.09.07.23.08.35.09.16,0,.33,0,.47-.08.17-.09.25-.28.31-.46.07-.2.09-.47-.09-.59-.05-.04-.13-.05-.2-.07-.13-.03-.28-.03-.41,0"/><path class="cls-13" d="m85.98,210.59c-.2,0-.4,0-.58.11s-.27.28-.32.47c-.09.31-.11.72.19.94.17.12.39.15.59.15s.41-.03.58-.15c.15-.11.24-.25.31-.41s.11-.33.11-.51c0-.21-.11-.43-.32-.52s-.48-.11-.71-.07c-.13.03-.25.12-.23.25.01.12.13.24.27.21.08,0,.15-.01.23-.01-.04,0,0,0,0,0h.07s.07,0,.11.01c.07.01-.04-.03.01,0,0,0,.04.03,0,0,0,0,.03.01.03.03.03.01-.03-.04,0,0v.03s.01-.03.01-.03v.05s0-.04,0-.01h0v.09-.03.07c0,.05-.03.12-.04.17,0,.04.03-.05,0,0,0,0,0,.03-.01.04,0,.03-.03.05-.04.08,0,.03-.03.07-.04.08.03-.03.01-.01,0,0s-.03.03-.04.05l-.03.03s.01,0,0,0-.03.03-.04.03c0,0,.04-.01,0,0-.01,0-.03,0-.05.01-.01,0-.05.03,0,0-.04,0-.08,0-.12.01h-.09s-.08,0-.01,0h-.21s.04,0,.01,0c0,0-.04,0-.04-.01,0,.01.03.03,0,0h-.01s-.01-.03,0,0c0,0-.01-.03-.03-.03,0,0-.04-.04,0,0,.03.03,0,0,0-.01v-.05s0,.04,0,.03v-.13s0-.03,0,0v-.08s0-.07.01-.11c0-.03.01-.05.03-.08.01-.05-.03.04,0,0,0-.01.01-.03.03-.05,0,0,0-.03.01-.03.03-.04-.03.04,0-.01,0,0,.01-.03.03-.03.04-.04-.04.03,0,0,0,0,.05-.04.03-.01-.03.01.04,0,.04-.01s.03,0,.04,0t0,0h.25c.13,0,.24-.15.23-.25-.01-.13-.13-.21-.27-.21h0l.04-.08Z"/><path class="cls-13" d="m93.96,210.5c-.24-.04-.5.13-.55.35-.01.08-.01.16,0,.23,0,.08.01.16.05.24.05.09.13.16.24.2.21.08.47,0,.63-.15s.23-.39.2-.6c0-.07-.03-.13-.05-.19-.08-.15-.25-.21-.43-.2s-.32.11-.44.23"/><path class="cls-13" d="m94,210.26c-.37-.05-.74.17-.83.52-.03.09-.03.2-.01.29s.03.19.05.28c.07.17.23.32.4.39s.39.07.58,0,.33-.2.46-.36c.2-.29.23-.76-.03-1.03-.15-.15-.37-.23-.59-.2-.23.03-.44.15-.59.31-.08.09-.08.25.03.33s.27.07.36-.03c0-.01.03-.03.04-.04,0,0,.03-.04,0,0,.03-.03.05-.04.08-.05,0,0,.03,0,.03-.01.05-.03-.05.01,0,0,.03,0,.07-.04.09-.03h-.03.08c.05,0-.04,0,0,0h.08c.05,0-.05-.03,0,0h.03s.03,0,.03.01h-.03s.03,0,.04.01c.03.01,0,0,0,0l.03.03s.04.03,0,0c0,0,.01.03.01.04s.03.05,0,0v.19-.03.08s0,.05-.01.08c0,.04,0,0,0,0,0,.01-.01.04-.03.05,0,.03-.03.04-.04.07-.03.05.04-.04,0,0l-.03.03s-.01.03-.03.03c-.03.03-.03,0,0,0,0,0-.03.01-.03.03-.01,0-.04.03-.05.03-.03.01-.03,0,0,0,0,0-.03,0-.03.01-.03,0-.05.01-.08.03-.05.01.04,0,0,0h-.12s.04,0,.03,0c-.03,0-.05,0-.08-.01-.05,0,.04.03,0,0,0,0-.03,0-.03-.01,0,0-.05-.03-.01,0s0,0-.01,0l-.03-.03s.03.04,0,0c0,0-.01-.03-.03-.04.01.05,0,.01,0,0s-.01-.04-.01-.05c0,0,0,.05,0,0v-.09s-.01-.08,0-.12c0,0,0,.05,0,0v-.05h0s0-.04,0,0v-.04s.03-.03.03-.03c-.03.03-.03.04,0,.01h.01s.01-.03.03-.04c.04-.04-.04.03,0,0,0,0,.08-.04.08-.05,0,0-.05.03-.01,0,.01,0,.03,0,.04-.01h.01s.01,0-.03,0h.07s.03,0-.03,0h.03c.13.01.28-.07.29-.19s-.07-.25-.2-.28h-.01Z"/><path class="cls-13" d="m89.41,209.95c.09,1.2.47,2.37,1.1,3.43.31.51.74.94,1.04,1.45.15.23.24.58.05.82s-.59.23-.88.21c-.32,0-.28.47.04.48.59,0,1.24-.12,1.41-.75s-.28-1.14-.66-1.61c-.94-1.18-1.49-2.6-1.61-4.07-.03-.31-.52-.27-.5.04h0Z"/><path class="cls-13" d="m87.77,218.36c.05.25.24.47.44.66.19.17.4.31.63.41.5.24,1.07.35,1.62.4.13,0,.27-.05.29-.19.03-.12-.07-.27-.2-.28-.5-.04-.99-.12-1.43-.32-.36-.16-.79-.46-.88-.84-.03-.12-.2-.19-.32-.13-.15.05-.17.19-.15.31h0Z"/><path class="cls-13" d="m92.55,209.59c.2-.24.47-.39.79-.47-.03,0,0,0,.01,0h.05s.08,0,.12-.01.08,0,.13,0h.07s-.03,0,.01,0c.17.01.32.04.47.11.29.13.51-.31.21-.43-.76-.33-1.74-.12-2.28.51-.2.24.17.55.39.31h.01Z"/><path class="cls-13" d="m86.86,209c-.95-.17-2.02-.05-2.69.68-.21.24.17.54.39.31.55-.6,1.45-.66,2.21-.52.32.05.41-.41.09-.47h0Z"/><path class="cls-13" d="m91.6,206.71c-.15.27,0,.59.31.67.28.07.47-.13.71-.23.21-.08.46-.12.7-.09.27.03.52.15.79.19.11,0,.24-.03.27-.13.11-.28-.12-.44-.37-.52-.24-.08-.48-.13-.74-.16-.5-.05-.99-.01-1.47.11-.13.04-.2.19-.15.31.05.13.19.17.32.13.33-.09.68-.13,1.03-.11.17,0,.35.04.52.07.08.01.17.04.25.07.04,0,.08.03.12.04.11.04.03.04.03-.04l.03-.12v.03c.08-.04.17-.09.27-.13-.21-.03-.43-.12-.64-.16s-.46-.05-.67-.03-.43.09-.63.2c-.05.03-.09.05-.15.08l-.08.04s0,.07.03,0c.15-.27-.31-.48-.46-.2h-.01Z"/><path class="cls-13" d="m83.3,207.53c.52-.33,1.08-.59,1.67-.76.27-.08.54-.15.82-.17.16-.01.55-.04.64.15,0,0,.04,0-.01.03-.07.03-.15,0-.21,0-.15-.03-.28-.05-.43-.08-.28-.04-.58-.04-.86,0s-.58.09-.84.17c-.13.04-.27.09-.39.16-.08.04-.15.07-.21.11-.04.01-.07.04-.11.05-.11.04-.11.13,0,.28.27-.17-.03-.56-.28-.39s-.16.55.13.62c.13.03.27-.03.39-.09.15-.08.29-.16.46-.23.59-.24,1.24-.31,1.87-.19.31.05.63.13.87-.09s.19-.52-.04-.72c-.44-.39-1.14-.24-1.66-.11-.74.19-1.43.5-2.07.9-.27.17.01.56.28.39h-.01Z"/><path class="cls-13" d="m86.38,206.54c-.21.03-.44.04-.66.04h.07-.21c-.07,0-.13,0-.19.04-.05.03-.09.09-.11.15-.01.12.05.27.2.28.31.03.63.03.95-.01.13-.01.25-.12.23-.25-.01-.12-.13-.24-.27-.21h0v-.03Z"/><path class="cls-19" d="m84.33,187.97c4.07,1.34,7.34,5.06,8.69,9.52l2.05-.67s-1.49-8.09-10.74-8.85Z"/><path class="cls-19" d="m80.17,188.1c-.13.01-.27.03-.4.05-15.37,2.25-11,17.34-11,17.34l21.04-6.93c-1.41-4.99-4.81-9.2-9.64-10.46Z"/><path class="cls-20" d="m84.33,187.97c-1.24-.11-2.62-.07-4.16.13,4.83,1.26,8.23,5.46,9.64,10.46l3.21-1.06c-1.37-4.47-4.62-8.18-8.69-9.52h0Z"/><path class="cls-9" d="m68.75,205.49s9.72-6.69,21.67-10.01c11.61-3.21,7.93,1.89,5.96,4.08-.5.55-1.23.83-1.95.71-2.05-.32-6.83-.72-12.53,1.18-7.63,2.54-13.16,4.04-13.16,4.04h.01Z"/><path class="cls-8" d="m78.32,209.67s-.29-1.85-1.49-1.46-1.29,3.75,0,4.1,2.17,0,2.17,0l-.67-2.64h-.01Z"/><path class="cls-10" d="m967.91,405.14v-246.39c0-8.96-7.26-16.23-16.23-16.23h-164.71v278.83h164.71c8.96,0,16.23-7.26,16.23-16.23h0Z"/><rect class="cls-20" x="810.24" y="184.07" width="134.4" height="193.61" rx="9.42" ry="9.42"/><rect class="cls-19" x="817.88" y="191.02" width="119.12" height="119.12" rx="4.51" ry="4.51"/><rect class="cls-13" x="823.94" y="197.08" width="4.28" height="25.69"/><rect class="cls-13" x="823.94" y="222.76" width="4.28" height="4.28"/><rect class="cls-13" x="823.94" y="231.32" width="4.28" height="12.84"/><rect class="cls-13" x="823.94" y="256.99" width="4.28" height="4.28"/><rect class="cls-13" x="823.94" y="265.55" width="4.28" height="4.28"/><rect class="cls-13" x="823.94" y="274.12" width="4.28" height="8.56"/><rect class="cls-13" x="823.94" y="282.68" width="4.28" height="12.84"/><rect class="cls-13" x="823.94" y="295.52" width="4.28" height="8.56"/><rect class="cls-13" x="828.22" y="197.08" width="4.28" height="4.28"/><rect class="cls-13" x="828.22" y="222.76" width="4.28" height="4.28"/><rect class="cls-13" x="828.22" y="244.16" width="4.28" height="4.28"/><rect class="cls-13" x="828.22" y="261.27" width="4.28" height="4.28"/><rect class="cls-13" x="828.22" y="274.12" width="4.28" height="4.28"/><rect class="cls-13" x="828.22" y="299.8" width="4.28" height="4.28"/><rect class="cls-13" x="832.5" y="197.08" width="4.28" height="4.28"/><rect class="cls-13" x="832.5" y="205.63" width="4.28" height="12.84"/><rect class="cls-13" x="832.5" y="222.76" width="4.28" height="4.28"/><rect class="cls-13" x="832.5" y="231.32" width="4.28" height="4.28"/><rect class="cls-13" x="832.5" y="244.16" width="4.28" height="4.28"/><rect class="cls-13" x="832.5" y="256.99" width="4.28" height="12.84"/><rect class="cls-13" x="832.5" y="274.12" width="4.28" height="4.28"/><rect class="cls-13" x="832.5" y="282.68" width="4.28" height="12.84"/><rect class="cls-13" x="832.5" y="299.8" width="4.28" height="4.28"/><rect class="cls-13" x="836.78" y="197.08" width="4.28" height="4.28"/><rect class="cls-13" x="836.78" y="205.63" width="4.28" height="12.84"/><rect class="cls-13" x="836.78" y="222.76" width="4.28" height="4.28"/><rect class="cls-13" x="836.78" y="239.88" width="4.28" height="4.28"/><rect class="cls-13" x="836.78" y="248.44" width="4.28" height="8.56"/><rect class="cls-13" x="836.78" y="261.27" width="4.28" height="8.56"/><rect class="cls-13" x="836.78" y="274.12" width="4.28" height="4.28"/><rect class="cls-13" x="836.78" y="282.68" width="4.28" height="12.84"/><rect class="cls-13" x="836.78" y="299.8" width="4.28" height="4.28"/><rect class="cls-13" x="841.06" y="197.08" width="4.28" height="4.28"/><rect class="cls-13" x="841.06" y="205.63" width="4.28" height="12.84"/><rect class="cls-13" x="841.06" y="222.76" width="4.28" height="4.28"/><rect class="cls-13" x="841.06" y="231.32" width="4.28" height="4.28"/><rect class="cls-13" x="841.06" y="239.88" width="4.28" height="4.28"/><rect class="cls-13" x="841.06" y="244.16" width="4.28" height="4.28"/><rect class="cls-13" x="841.06" y="265.55" width="4.28" height="4.28"/><rect class="cls-13" x="841.06" y="274.12" width="4.28" height="4.28"/><rect class="cls-13" x="841.06" y="282.68" width="4.28" height="12.84"/><rect class="cls-13" x="841.06" y="299.8" width="4.28" height="4.28"/><rect class="cls-13" x="845.34" y="197.08" width="4.28" height="4.28"/><rect class="cls-13" x="845.34" y="222.76" width="4.28" height="4.28"/><rect class="cls-13" x="845.34" y="235.6" width="4.28" height="4.28"/><rect class="cls-13" x="845.34" y="248.44" width="4.28" height="4.28"/><rect class="cls-13" x="845.34" y="256.99" width="4.28" height="4.28"/><rect class="cls-13" x="845.34" y="265.55" width="4.28" height="4.28"/><rect class="cls-13" x="845.34" y="274.12" width="4.28" height="4.28"/><rect class="cls-13" x="845.34" y="299.8" width="4.28" height="4.28"/><rect class="cls-13" x="849.62" y="197.08" width="4.28" height="25.69"/><rect class="cls-13" x="849.62" y="222.76" width="4.28" height="4.28"/><rect class="cls-13" x="849.62" y="231.32" width="4.28" height="4.28"/><rect class="cls-13" x="849.62" y="239.88" width="4.28" height="4.28"/><rect class="cls-13" x="849.62" y="248.44" width="4.28" height="4.28"/><rect class="cls-13" x="849.62" y="256.99" width="4.28" height="4.28"/><rect class="cls-13" x="849.62" y="265.55" width="4.28" height="4.28"/><rect class="cls-13" x="849.62" y="274.12" width="4.28" height="8.56"/><rect class="cls-13" x="849.62" y="282.68" width="4.28" height="12.84"/><rect class="cls-13" x="849.62" y="295.52" width="4.28" height="8.56"/><rect class="cls-13" x="853.9" y="244.16" width="4.28" height="4.28"/><rect class="cls-13" x="853.9" y="256.99" width="4.28" height="4.28"/><rect class="cls-13" x="858.18" y="201.37" width="4.28" height="4.28"/><rect class="cls-13" x="858.18" y="214.2" width="4.28" height="4.28"/><rect class="cls-13" x="858.18" y="222.76" width="4.28" height="4.28"/><rect class="cls-13" x="858.18" y="235.6" width="4.28" height="8.56"/><rect class="cls-13" x="858.18" y="248.44" width="4.28" height="4.28"/><rect class="cls-13" x="858.18" y="256.99" width="4.28" height="8.56"/><rect class="cls-13" x="858.18" y="269.84" width="4.28" height="4.28"/><rect class="cls-13" x="858.18" y="282.68" width="4.28" height="4.28"/><rect class="cls-13" x="858.18" y="291.24" width="4.28" height="4.28"/><rect class="cls-13" x="858.18" y="299.8" width="4.28" height="4.28"/><rect class="cls-13" x="862.47" y="197.08" width="4.28" height="4.28"/><rect class="cls-13" x="862.47" y="209.91" width="4.28" height="4.28"/><rect class="cls-13" x="862.47" y="235.6" width="4.28" height="8.56"/><rect class="cls-13" x="862.47" y="244.16" width="4.28" height="25.69"/><rect class="cls-13" x="862.47" y="269.84" width="4.28" height="4.28"/><rect class="cls-13" x="862.47" y="295.52" width="4.28" height="4.28"/><rect class="cls-13" x="866.75" y="197.08" width="4.28" height="4.28"/><rect class="cls-13" x="866.75" y="205.63" width="4.28" height="17.12"/><rect class="cls-13" x="866.75" y="222.76" width="4.28" height="17.12"/><rect class="cls-13" x="866.75" y="252.72" width="4.28" height="8.56"/><rect class="cls-13" x="866.75" y="274.12" width="4.28" height="8.56"/><rect class="cls-13" x="866.75" y="282.68" width="4.28" height="4.28"/><rect class="cls-13" x="871.03" y="201.37" width="4.28" height="12.84"/><rect class="cls-13" x="871.03" y="218.48" width="4.28" height="4.28"/><rect class="cls-13" x="871.03" y="227.04" width="4.28" height="12.84"/><rect class="cls-13" x="871.03" y="244.16" width="4.28" height="4.28"/><rect class="cls-13" x="871.03" y="252.72" width="4.28" height="8.56"/><rect class="cls-13" x="871.03" y="265.55" width="4.28" height="4.28"/><rect class="cls-13" x="871.03" y="269.84" width="4.28" height="4.28"/><rect class="cls-13" x="871.03" y="278.4" width="4.28" height="4.28"/><rect class="cls-13" x="871.03" y="286.96" width="4.28" height="8.56"/><rect class="cls-13" x="871.03" y="299.8" width="4.28" height="4.28"/><rect class="cls-13" x="875.3" y="218.48" width="4.28" height="4.28"/><rect class="cls-13" x="875.3" y="222.76" width="4.28" height="4.28"/><rect class="cls-13" x="875.3" y="231.32" width="4.28" height="12.84"/><rect class="cls-13" x="875.3" y="248.44" width="4.28" height="17.12"/><rect class="cls-13" x="875.3" y="282.68" width="4.28" height="12.84"/><rect class="cls-13" x="875.3" y="295.52" width="4.28" height="4.28"/><rect class="cls-13" x="879.58" y="201.37" width="4.28" height="4.28"/><rect class="cls-13" x="879.58" y="214.2" width="4.28" height="8.56"/><rect class="cls-13" x="879.58" y="227.04" width="4.28" height="8.56"/><rect class="cls-13" x="879.58" y="239.88" width="4.28" height="4.28"/><rect class="cls-13" x="879.58" y="244.16" width="4.28" height="4.28"/><rect class="cls-13" x="879.58" y="261.27" width="4.28" height="4.28"/><rect class="cls-13" x="879.58" y="274.12" width="4.28" height="4.28"/><rect class="cls-13" x="879.58" y="286.96" width="4.28" height="4.28"/><rect class="cls-13" x="879.58" y="295.52" width="4.28" height="4.28"/><rect class="cls-13" x="883.86" y="197.08" width="4.28" height="4.28"/><rect class="cls-13" x="883.86" y="209.91" width="4.28" height="8.56"/><rect class="cls-13" x="883.86" y="222.76" width="4.28" height="12.84"/><rect class="cls-13" x="883.86" y="244.16" width="4.28" height="8.56"/><rect class="cls-13" x="883.86" y="261.27" width="4.28" height="8.56"/><rect class="cls-13" x="883.86" y="291.24" width="4.28" height="4.28"/><rect class="cls-13" x="883.86" y="295.52" width="4.28" height="8.56"/><rect class="cls-13" x="888.14" y="197.08" width="4.28" height="12.84"/><rect class="cls-13" x="888.14" y="214.2" width="4.28" height="8.56"/><rect class="cls-13" x="888.14" y="244.16" width="4.28" height="4.28"/><rect class="cls-13" x="888.14" y="261.27" width="4.28" height="4.28"/><rect class="cls-13" x="888.14" y="274.12" width="4.28" height="4.28"/><rect class="cls-13" x="888.14" y="291.24" width="4.28" height="4.28"/><rect class="cls-13" x="888.14" y="295.52" width="4.28" height="8.56"/><rect class="cls-13" x="892.42" y="214.2" width="4.28" height="4.28"/><rect class="cls-13" x="892.42" y="222.76" width="4.28" height="4.28"/><rect class="cls-13" x="892.42" y="235.6" width="4.28" height="8.56"/><rect class="cls-13" x="892.42" y="252.72" width="4.28" height="8.56"/><rect class="cls-13" x="892.42" y="265.55" width="4.28" height="4.28"/><rect class="cls-13" x="892.42" y="269.84" width="4.28" height="12.84"/><rect class="cls-13" x="892.42" y="282.68" width="4.28" height="8.56"/><rect class="cls-13" x="892.42" y="295.52" width="4.28" height="8.56"/><rect class="cls-13" x="896.7" y="239.88" width="4.28" height="4.28"/><rect class="cls-13" x="896.7" y="248.44" width="4.28" height="4.28"/><rect class="cls-13" x="896.7" y="256.99" width="4.28" height="4.28"/><rect class="cls-13" x="896.7" y="265.55" width="4.28" height="4.28"/><rect class="cls-13" x="896.7" y="282.68" width="4.28" height="8.56"/><rect class="cls-13" x="900.98" y="197.08" width="4.28" height="25.69"/><rect class="cls-13" x="900.98" y="222.76" width="4.28" height="4.28"/><rect class="cls-13" x="900.98" y="235.6" width="4.28" height="8.56"/><rect class="cls-13" x="900.98" y="244.16" width="4.28" height="25.69"/><rect class="cls-13" x="900.98" y="274.12" width="4.28" height="4.28"/><rect class="cls-13" x="900.98" y="282.68" width="4.28" height="4.28"/><rect class="cls-13" x="900.98" y="295.52" width="4.28" height="4.28"/><rect class="cls-13" x="905.26" y="197.08" width="4.28" height="4.28"/><rect class="cls-13" x="905.26" y="222.76" width="4.28" height="4.28"/><rect class="cls-13" x="905.26" y="239.88" width="4.28" height="4.28"/><rect class="cls-13" x="905.26" y="248.44" width="4.28" height="4.28"/><rect class="cls-13" x="905.26" y="256.99" width="4.28" height="4.28"/><rect class="cls-13" x="905.26" y="265.55" width="4.28" height="4.28"/><rect class="cls-13" x="905.26" y="282.68" width="4.28" height="8.56"/><rect class="cls-13" x="905.26" y="299.8" width="4.28" height="4.28"/><rect class="cls-13" x="909.54" y="197.08" width="4.28" height="4.28"/><rect class="cls-13" x="909.54" y="205.63" width="4.28" height="12.84"/><rect class="cls-13" x="909.54" y="222.76" width="4.28" height="4.28"/><rect class="cls-13" x="909.54" y="231.32" width="4.28" height="4.28"/><rect class="cls-13" x="909.54" y="261.27" width="4.28" height="8.56"/><rect class="cls-13" x="909.54" y="269.84" width="4.28" height="12.84"/><rect class="cls-13" x="909.54" y="282.68" width="4.28" height="12.84"/><rect class="cls-13" x="909.54" y="295.52" width="4.28" height="4.28"/><rect class="cls-13" x="913.82" y="197.08" width="4.28" height="4.28"/><rect class="cls-13" x="913.82" y="205.63" width="4.28" height="12.84"/><rect class="cls-13" x="913.82" y="222.76" width="4.28" height="4.28"/><rect class="cls-13" x="913.82" y="248.44" width="4.28" height="8.56"/><rect class="cls-13" x="913.82" y="265.55" width="4.28" height="4.28"/><rect class="cls-13" x="913.82" y="269.84" width="4.28" height="12.84"/><rect class="cls-13" x="913.82" y="282.68" width="4.28" height="8.56"/><rect class="cls-13" x="913.82" y="295.52" width="4.28" height="4.28"/><rect class="cls-13" x="918.11" y="197.08" width="4.28" height="4.28"/><rect class="cls-13" x="918.11" y="205.63" width="4.28" height="12.84"/><rect class="cls-13" x="918.11" y="222.76" width="4.28" height="4.28"/><rect class="cls-13" x="918.11" y="239.88" width="4.28" height="4.28"/><rect class="cls-13" x="918.11" y="256.99" width="4.28" height="4.28"/><rect class="cls-13" x="918.11" y="286.96" width="4.28" height="4.28"/><rect class="cls-13" x="922.39" y="197.08" width="4.28" height="4.28"/><rect class="cls-13" x="922.39" y="222.76" width="4.28" height="4.28"/><rect class="cls-13" x="922.39" y="231.32" width="4.28" height="4.28"/><rect class="cls-13" x="922.39" y="239.88" width="4.28" height="4.28"/><rect class="cls-13" x="922.39" y="244.16" width="4.28" height="8.56"/><rect class="cls-13" x="922.39" y="256.99" width="4.28" height="8.56"/><rect class="cls-13" x="922.39" y="269.84" width="4.28" height="8.56"/><rect class="cls-13" x="922.39" y="282.68" width="4.28" height="4.28"/><rect class="cls-13" x="922.39" y="295.52" width="4.28" height="8.56"/><rect class="cls-13" x="926.65" y="197.08" width="4.28" height="25.69"/><rect class="cls-13" x="926.65" y="222.76" width="4.28" height="4.28"/><rect class="cls-13" x="926.65" y="235.6" width="4.28" height="8.56"/><rect class="cls-13" x="926.65" y="248.44" width="4.28" height="12.84"/><rect class="cls-13" x="926.65" y="269.84" width="4.28" height="8.56"/><rect class="cls-13" x="926.65" y="282.68" width="4.28" height="4.28"/><rect class="cls-13" x="926.65" y="291.24" width="4.28" height="4.28"/><rect class="cls-13" x="926.65" y="299.8" width="4.28" height="4.28"/><path class="cls-11" d="m822.12,338.71c-.56-.25-.99-.6-1.31-1.04-.32-.44-.48-.96-.49-1.54h1.48c.05.49.25.92.62,1.27s.9.51,1.59.51,1.19-.16,1.57-.49c.39-.33.58-.76.58-1.28,0-.4-.11-.74-.33-.99s-.51-.45-.84-.59-.79-.28-1.36-.43c-.71-.19-1.27-.37-1.7-.55-.43-.19-.79-.47-1.08-.87-.31-.39-.45-.92-.45-1.59,0-.59.15-1.1.44-1.55s.71-.8,1.24-1.04,1.15-.37,1.85-.37c1,0,1.82.25,2.46.75s1,1.16,1.08,1.99h-1.54c-.05-.4-.27-.76-.64-1.08s-.88-.47-1.5-.47-1.06.15-1.43.45c-.37.29-.55.72-.55,1.26,0,.39.11.71.33.95.21.24.49.43.82.56.32.13.78.27,1.35.44.71.2,1.27.39,1.7.58s.8.48,1.11.87.45.92.45,1.61c0,.52-.13,1.02-.41,1.47s-.68.83-1.23,1.12-1.18.43-1.91.43-1.34-.12-1.9-.37h.03Z"/><path class="cls-11" d="m829.62,332.47c.35-.66.83-1.15,1.44-1.51s1.32-.54,2.13-.54c1.03,0,1.89.25,2.56.75s1.11,1.19,1.32,2.09h-1.5c-.15-.51-.43-.91-.83-1.22-.41-.29-.92-.44-1.54-.44-.8,0-1.44.27-1.93.82-.49.55-.74,1.32-.74,2.33s.24,1.79.74,2.34c.49.55,1.14.83,1.93.83.62,0,1.12-.15,1.54-.43s.7-.7.84-1.23h1.5c-.23.86-.67,1.55-1.35,2.06-.67.52-1.53.78-2.53.78-.8,0-1.5-.17-2.13-.54-.62-.36-1.1-.87-1.44-1.53s-.52-1.42-.52-2.3.17-1.63.52-2.27h-.01Z"/><path class="cls-11" d="m838.92,332.47c.35-.66.83-1.15,1.43-1.51s1.28-.54,2.03-.54,1.38.16,1.91.48.95.71,1.22,1.19v-1.54h1.4v8.4h-1.4v-1.57c-.28.49-.68.9-1.23,1.22s-1.18.48-1.91.48-1.42-.19-2.02-.55-1.08-.88-1.43-1.55c-.35-.67-.52-1.42-.52-2.27s.17-1.62.52-2.26h0Zm6.21.62c-.25-.47-.6-.83-1.03-1.08s-.91-.37-1.43-.37-.99.12-1.43.37c-.43.24-.78.6-1.03,1.07s-.39,1.02-.39,1.66.13,1.2.39,1.67c.25.48.6.84,1.03,1.08.43.25.91.37,1.43.37s1-.12,1.43-.37.78-.62,1.03-1.08c.25-.48.39-1.03.39-1.66s-.13-1.19-.39-1.66Z"/><path class="cls-11" d="m855.87,331.35c.63.62.95,1.51.95,2.68v4.95h-1.38v-4.75c0-.84-.21-1.48-.63-1.93s-.99-.67-1.71-.67-1.32.23-1.75.7c-.44.45-.66,1.12-.66,2.01v4.64h-1.39v-8.4h1.39v1.19c.28-.43.66-.76,1.12-1,.47-.24,1-.35,1.57-.35,1.02,0,1.85.31,2.49.92h0Z"/><path class="cls-11" d="m863.2,332.47c.35-.66.83-1.15,1.43-1.51.6-.36,1.28-.54,2.03-.54s1.38.16,1.91.48.95.71,1.22,1.19v-1.54h1.4v8.4h-1.4v-1.57c-.28.49-.68.9-1.23,1.22s-1.18.48-1.91.48-1.42-.19-2.02-.55-1.08-.88-1.43-1.55c-.35-.67-.52-1.42-.52-2.27s.17-1.62.52-2.26h0Zm6.21.62c-.25-.47-.6-.83-1.03-1.08-.43-.25-.91-.37-1.43-.37s-.99.12-1.43.37c-.43.24-.78.6-1.03,1.07s-.39,1.02-.39,1.66.13,1.2.39,1.67c.25.48.6.84,1.03,1.08.43.25.91.37,1.43.37s1-.12,1.43-.37.78-.62,1.03-1.08c.25-.48.39-1.03.39-1.66s-.13-1.19-.39-1.66Z"/><path class="cls-11" d="m880.14,331.35c.63.62.95,1.51.95,2.68v4.95h-1.38v-4.75c0-.84-.21-1.48-.63-1.93s-.99-.67-1.71-.67-1.32.23-1.75.7c-.44.45-.66,1.12-.66,2.01v4.64h-1.39v-8.4h1.39v1.19c.28-.43.66-.76,1.12-1s1-.35,1.57-.35c1.02,0,1.85.31,2.49.92h0Z"/><path class="cls-11" d="m883.38,332.47c.35-.66.83-1.15,1.43-1.51s1.28-.54,2.05-.54c.66,0,1.26.15,1.82.45.56.31.99.7,1.28,1.19v-4.44h1.4v11.34h-1.4v-1.58c-.28.49-.68.91-1.23,1.23-.54.32-1.18.48-1.9.48s-1.42-.19-2.03-.55-1.08-.88-1.43-1.55-.52-1.42-.52-2.27.17-1.62.52-2.26h.01Zm6.21.62c-.25-.47-.6-.83-1.03-1.08-.43-.25-.91-.37-1.43-.37s-.99.12-1.43.37c-.43.24-.78.6-1.03,1.07s-.39,1.02-.39,1.66.13,1.2.39,1.67c.25.48.6.84,1.03,1.08.43.25.91.37,1.43.37s1-.12,1.43-.37.78-.62,1.03-1.08c.25-.48.39-1.03.39-1.66s-.13-1.19-.39-1.66Z"/><path class="cls-11" d="m899.36,338.57c-.64-.36-1.14-.87-1.5-1.53s-.55-1.42-.55-2.29.19-1.62.56-2.27.88-1.16,1.53-1.51c.64-.35,1.36-.54,2.17-.54s1.53.17,2.17.54c.64.35,1.15.86,1.53,1.51s.56,1.42.56,2.29-.19,1.63-.58,2.29c-.39.66-.9,1.16-1.55,1.53s-1.38.54-2.18.54-1.5-.17-2.14-.54h-.01Zm3.55-1.04c.44-.24.79-.59,1.07-1.06.27-.47.4-1.04.4-1.71s-.13-1.24-.4-1.71c-.27-.47-.62-.82-1.04-1.06-.43-.23-.9-.35-1.39-.35s-.98.12-1.4.35c-.43.23-.76.58-1.02,1.06-.25.47-.39,1.04-.39,1.71s.12,1.26.37,1.73c.25.47.59.82,1,1.06s.88.35,1.38.35.98-.12,1.4-.35h.01Z"/><path class="cls-11" d="m910.28,330.91c.55-.32,1.18-.48,1.91-.48s1.42.17,2.03.54c.6.36,1.08.86,1.43,1.51s.52,1.4.52,2.26-.17,1.61-.52,2.27-.83,1.18-1.43,1.55c-.62.37-1.28.55-2.03.55s-1.35-.16-1.89-.48c-.55-.32-.96-.72-1.24-1.2v5.54h-1.39v-12.39h1.39v1.55c.28-.48.68-.88,1.23-1.2h-.01Zm4.08,2.17c-.25-.47-.6-.83-1.03-1.07-.43-.24-.91-.37-1.43-.37s-.99.12-1.42.37-.78.62-1.04,1.08-.39,1.03-.39,1.65.13,1.19.39,1.66.6.84,1.04,1.08c.43.25.91.37,1.42.37s1-.12,1.43-.37.78-.62,1.03-1.08.39-1.03.39-1.67-.13-1.19-.39-1.66h0Z"/><path class="cls-11" d="m925.64,335.29h-6.72c.05.83.33,1.47.86,1.94.52.47,1.14.7,1.87.7.6,0,1.11-.13,1.51-.43.4-.28.68-.66.86-1.12h1.5c-.23.8-.67,1.46-1.35,1.97-.67.51-1.51.76-2.52.76-.8,0-1.51-.17-2.14-.54-.63-.36-1.12-.87-1.48-1.53s-.54-1.42-.54-2.29.17-1.63.52-2.29.83-1.16,1.46-1.51c.63-.35,1.35-.54,2.17-.54s1.5.17,2.11.52,1.08.83,1.42,1.43c.33.62.49,1.3.49,2.06,0,.27-.01.55-.04.84h.01Zm-1.75-2.5c-.24-.39-.55-.67-.96-.87-.4-.2-.86-.29-1.34-.29-.71,0-1.31.23-1.81.67-.49.45-.78,1.07-.86,1.87h5.31c0-.54-.12-.99-.35-1.38h0Z"/><path class="cls-11" d="m934.09,331.35c.63.62.95,1.51.95,2.68v4.95h-1.38v-4.75c0-.84-.21-1.48-.63-1.93s-.99-.67-1.71-.67-1.32.23-1.75.7c-.44.45-.66,1.12-.66,2.01v4.64h-1.39v-8.4h1.39v1.19c.28-.43.66-.76,1.12-1s1-.35,1.57-.35c1.02,0,1.85.31,2.49.92h0Z"/><path class="cls-11" d="m822.32,350.12v4.95c0,.41.09.7.25.87s.48.25.91.25h1.03v1.18h-1.26c-.78,0-1.36-.17-1.75-.54-.39-.36-.59-.95-.59-1.77v-4.95h-1.08v-1.15h1.08v-2.11h1.39v2.11h2.19v1.15h-2.19.01Z"/><path class="cls-11" d="m832.08,349.22c.51.27.91.68,1.2,1.22.29.54.44,1.2.44,1.98v4.95h-1.38v-4.75c0-.84-.21-1.48-.63-1.93s-.99-.67-1.71-.67-1.32.23-1.75.7c-.44.45-.66,1.12-.66,2.01v4.64h-1.39v-11.34h1.39v4.13c.28-.43.66-.76,1.14-1s1.03-.35,1.63-.35,1.2.13,1.71.4h0Z"/><path class="cls-11" d="m843.63,353.69h-6.72c.05.83.33,1.47.86,1.94.52.47,1.14.7,1.87.7.6,0,1.11-.13,1.51-.43.4-.28.68-.66.86-1.12h1.5c-.23.8-.67,1.46-1.35,1.97-.67.51-1.51.76-2.52.76-.8,0-1.51-.17-2.14-.54-.63-.36-1.12-.87-1.48-1.53s-.54-1.42-.54-2.29.17-1.63.52-2.29.83-1.16,1.46-1.51c.63-.35,1.35-.54,2.17-.54s1.5.17,2.11.52,1.08.83,1.42,1.43c.33.62.49,1.3.49,2.06,0,.27-.01.55-.04.84h.01Zm-1.75-2.5c-.24-.39-.55-.67-.96-.87-.4-.2-.86-.29-1.34-.29-.71,0-1.31.23-1.81.67-.49.45-.78,1.07-.86,1.87h5.31c0-.54-.12-.99-.35-1.38Z"/><path class="cls-11" d="m892.03,350.88c.35-.66.83-1.15,1.43-1.51s1.28-.54,2.03-.54,1.38.16,1.91.48.95.71,1.22,1.19v-1.54h1.4v8.4h-1.4v-1.57c-.28.49-.68.9-1.23,1.22s-1.18.48-1.91.48-1.42-.19-2.02-.55-1.08-.88-1.43-1.55-.52-1.42-.52-2.27.17-1.62.52-2.26h0Zm6.21.62c-.25-.47-.6-.83-1.03-1.08-.43-.25-.91-.37-1.43-.37s-.99.12-1.43.37c-.43.24-.78.6-1.03,1.07s-.39,1.02-.39,1.66.13,1.2.39,1.67c.25.48.6.84,1.03,1.08.43.25.91.37,1.43.37s1-.12,1.43-.37.78-.62,1.03-1.08c.25-.48.39-1.03.39-1.66s-.13-1.19-.39-1.66Z"/><path class="cls-11" d="m905.04,349.32c.55-.32,1.18-.48,1.91-.48s1.42.17,2.03.54c.6.36,1.08.86,1.43,1.51s.52,1.4.52,2.26-.17,1.61-.52,2.27-.83,1.18-1.43,1.55c-.62.37-1.28.55-2.03.55s-1.35-.16-1.89-.48c-.55-.32-.96-.72-1.24-1.2v5.54h-1.39v-12.39h1.39v1.55c.28-.48.68-.88,1.23-1.2h-.01Zm4.08,2.17c-.25-.47-.6-.83-1.03-1.07-.43-.24-.91-.37-1.43-.37s-.99.12-1.42.37-.78.62-1.04,1.08-.39,1.03-.39,1.65.13,1.19.39,1.66.6.84,1.04,1.08c.43.25.91.37,1.42.37s1-.12,1.43-.37.78-.62,1.03-1.08.39-1.03.39-1.67-.13-1.19-.39-1.66h0Z"/><path class="cls-11" d="m915.4,349.32c.55-.32,1.18-.48,1.91-.48s1.42.17,2.03.54c.6.36,1.08.86,1.43,1.51s.52,1.4.52,2.26-.17,1.61-.52,2.27-.83,1.18-1.43,1.55c-.62.37-1.28.55-2.03.55s-1.35-.16-1.89-.48c-.55-.32-.96-.72-1.24-1.2v5.54h-1.39v-12.39h1.39v1.55c.28-.48.68-.88,1.23-1.2h-.01Zm4.08,2.17c-.25-.47-.6-.83-1.03-1.07-.43-.24-.91-.37-1.43-.37s-.99.12-1.42.37-.78.62-1.04,1.08-.39,1.03-.39,1.65.13,1.19.39,1.66.6.84,1.04,1.08c.43.25.91.37,1.42.37s1-.12,1.43-.37.78-.62,1.03-1.08.39-1.03.39-1.67-.13-1.19-.39-1.66h0Z"/><path class="cls-11" d="m923.58,357.18c-.19-.19-.28-.41-.28-.67s.09-.49.28-.67.4-.28.67-.28.47.09.66.28c.17.19.27.41.27.67s-.09.49-.27.67c-.17.19-.4.28-.66.28s-.49-.09-.67-.28Zm1.36-10.5l-.17,7.67h-1.16l-.17-7.67h1.51Z"/><path class="cls-11" d="m854.39,347.83c-2.56,0-4.63,2.15-4.63,4.82s2.07,4.82,4.63,4.82,4.63-2.15,4.63-4.82-2.07-4.82-4.63-4.82Zm0,7.51c-1.43,0-2.6-1.2-2.6-2.69s1.16-2.69,2.6-2.69,2.6,1.2,2.6,2.69-1.16,2.69-2.6,2.69Z"/><path class="cls-11" d="m864.23,347.83c-2.56,0-4.63,2.15-4.63,4.82v6.14c0,.59.45,1.06,1.02,1.06s1.02-.47,1.02-1.06v-2.14c.75.52,1.63.82,2.6.82,2.56,0,4.63-2.15,4.63-4.82s-2.07-4.82-4.63-4.82h0Zm0,7.51c-1.19,0-2.23-.84-2.52-2.05-.05-.21-.08-.43-.08-.64,0-1.48,1.16-2.69,2.6-2.69s2.6,1.2,2.6,2.69-1.16,2.69-2.6,2.69Z"/><path class="cls-11" d="m874.24,347.83c-2.56,0-4.63,2.15-4.63,4.82v6.14c0,.59.45,1.06,1.02,1.06s1.02-.47,1.02-1.06v-2.14c.75.52,1.63.82,2.6.82,2.56,0,4.63-2.15,4.63-4.82s-2.07-4.82-4.63-4.82h0Zm0,7.51c-1.19,0-2.23-.84-2.52-2.05-.05-.21-.08-.43-.08-.64,0-1.48,1.16-2.69,2.6-2.69s2.6,1.2,2.6,2.69-1.16,2.69-2.6,2.69Z"/><path class="cls-11" d="m885.17,348.89c0-.59-.45-1.06-1.02-1.06-2.56,0-4.63,2.15-4.63,4.82v3.76c0,.59.45,1.06,1.02,1.06s1.02-.47,1.02-1.06v-3.76c0-1.48,1.16-2.69,2.6-2.69.56,0,1.02-.47,1.02-1.06h0Z"/><ellipse class="cls-22" cx="886.03" cy="356.22" rx="1.22" ry="1.26"/><path class="cls-24" d="m593.35,142.53c-8.96,0-16.23,7.26-16.23,16.23v246.39c0,8.96,7.26,16.23,16.23,16.23h193.62V142.53h-193.62Z"/><g class="cls-32"><path class="cls-22" d="m643.48,363.4c-4.39-15.6-11.32-31.93-16.18-42.53-3.26-7.12-5.59-11.65-5.59-11.65,0,0-53,15.49-57.21,23.5,0,0,18.04,10.86,29.23,28.22.54.84,1.03,1.7,1.54,2.56,16.2-.42,32.22-.44,48.21-.09h.01Z"/><path class="cls-22" d="m647.47,383.67c-.25-3.05-.74-6.28-1.4-9.64-.69-3.46-1.56-7.02-2.58-10.64-15.98-.34-32.01-.33-48.21.09,2.28,3.92,4.2,8.14,5.46,12.62-1.7,6.06-3.37,12.26-4.96,18.49,17.44,0,34.89.05,52.33.17-.17-4.14-.38-7.87-.65-11.09h.01Z"/><path class="cls-22" d="m589.59,421.11c-2.13,10.22-3.83,20.05-4.84,28.92l1.75,5.74c20.2-.09,40.56.62,60.96,1.52.62-12.07.95-24.08,1.03-35.15-19.56-.62-39.15-1.15-58.92-1.03h.01Z"/><path class="cls-22" d="m648.12,394.76c-17.44-.12-34.89-.16-52.33-.17-2.28,8.89-4.39,17.84-6.19,26.51,19.75-.12,39.34.41,58.92,1.03.07-10.14-.07-19.5-.38-27.38h-.01Z"/><path class="cls-8" d="m819.23,332.11s20.23-21.03,29.74-42.64l-38.85,5.74-4.48,31.77,13.59,5.13Z"/><path class="cls-16" d="m844.06,327.65l-29.48-6.3c-6.55-1.06-7.82-5.41-7.01-9.17l14.45-57.48c.81-3.76,4.36-6.2,7.94-5.43l28.5,4.61c3.58.77,6.81,6.11,6.02,9.87l-12.47,58.45c-.81,3.76-4.36,6.2-7.94,5.43h0Z"/><rect class="cls-18" x="798.32" y="264.82" width="73.71" height="43.41" rx="9.46" ry="9.46" transform="translate(380.74 1043.56) rotate(-77.96)"/><rect class="cls-11" x="799.45" y="265.82" width="71.43" height="41.41" rx="8.11" ry="8.11" transform="translate(380.74 1043.55) rotate(-77.96)"/><path class="cls-19" d="m834.28,283.77c-1.42-.3-2.82.61-3.13,2.03s.61,2.82,2.03,3.13,2.82-.61,3.13-2.03-.61-2.82-2.03-3.13Zm-.86,4.03c-.8-.17-1.3-.95-1.14-1.75s.95-1.3,1.75-1.14,1.3.95,1.14,1.75-.95,1.3-1.75,1.14Z"/><path class="cls-19" d="m839.75,284.94c-1.42-.3-2.82.61-3.13,2.03l-.7,3.29c-.07.32.13.62.45.69s.62-.13.69-.45l.24-1.15c.36.37.82.64,1.35.74,1.42.3,2.82-.61,3.13-2.03s-.61-2.82-2.03-3.13h0Zm-.86,4.03c-.66-.15-1.15-.72-1.17-1.39,0-.12,0-.24.03-.36.17-.8.95-1.3,1.75-1.14s1.3.95,1.14,1.75-.95,1.3-1.75,1.14Z"/><path class="cls-19" d="m845.33,286.13c-1.42-.3-2.82.61-3.13,2.03l-.7,3.29c-.07.32.13.62.45.69s.62-.13.69-.45l.24-1.15c.36.37.82.64,1.35.74,1.42.3,2.82-.61,3.13-2.03s-.61-2.82-2.03-3.13h0Zm-.86,4.03c-.66-.15-1.15-.72-1.17-1.39,0-.12,0-.24.03-.36.17-.8.95-1.3,1.75-1.14s1.3.95,1.14,1.75-.95,1.3-1.75,1.14Z"/><path class="cls-19" d="m851.31,288c.07-.32-.13-.62-.45-.69-1.42-.3-2.82.61-3.13,2.03l-.42,2.01c-.07.32.13.62.45.69s.62-.13.69-.45l.42-2.01c.17-.8.95-1.3,1.75-1.14.32.07.62-.13.69-.45h0Z"/><circle class="cls-22" cx="850.95" cy="292.03" r=".69"/><path class="cls-12" d="m828.05,281.18c0,.38-.16.78-.46,1.07-.37.37-.91.53-1.43.42h0c.34.64.46,1.38.32,2.11-.34,1.64-1.97,2.69-3.62,2.35-1.13-.24-1.97-1.09-2.29-2.12l-.58,2.73c-.03.16-.09.29-.16.42.69.64,1.55,1.1,2.53,1.3,2.93.62,5.83-1.25,6.45-4.19.3-1.43.03-2.9-.76-4.1Z"/><path class="cls-12" d="m824.11,281.16c.58.12,1.1.41,1.52.82h0c.46.46,1.23.46,1.7,0s.46-1.22,0-1.7h0c-.74-.74-1.68-1.26-2.72-1.47-2.85-.61-5.65,1.14-6.39,3.91h0l-.05.28-.89,4.15c-.13.65.28,1.29.93,1.42.57.12,1.13-.17,1.35-.69.03-.08.05-.16.08-.24l.89-4.15c.34-1.64,1.97-2.69,3.62-2.35h-.04Z"/><circle class="cls-22" cx="823.47" cy="284.14" r="1.97"/><path class="cls-8" d="m792.87,330.16s.44-8.76,3.59-22.64c3.17-13.88,12.27-26.4,15.4-24.12s-2.01,12.47-.94,20.12c1.07,7.65,8.3,28.58,8.3,28.58l-13.2,13.57-13.15-15.51h0Z"/><path class="cls-11" d="m662.58,309.22h-23.9l30.52,2.86c-2.09-.9-4.27-1.84-6.63-2.86Z"/><path class="cls-11" d="m669.21,312.07c2.8,1.21,5.38,2.32,7.75,3.34-.21-.52-.32-.69-.32-.69"/><polygon class="cls-11" points="624.47 307.88 621.72 309.22 638.68 309.22 624.47 307.88"/><path class="cls-11" d="m724.07,412.89l.17-.45h0c-.07-.04-.12-.08-.19-.12v.58h.01Z"/><path class="cls-11" d="m700.95,442.74c-.78-16.58-2.32-33.97-5.08-50.22h0s-8.1-19.67-13.97-38.93c-4.94-16.18-8.31-32.05-4-35.71-.42-1.21-.73-1.99-.93-2.47-2.37-1.02-4.96-2.13-7.75-3.34l-30.52-2.86h-16.98s2.33,4.53,5.59,11.65c5.99,13.06,15.11,34.79,18.75,53.16.66,3.34,1.15,6.59,1.4,9.64,2.36,28.89,1.1,98.17-7.06,137.27h59.79s2.73-36.52.76-78.2h0Z"/><polygon class="cls-11" points="673.42 367.58 670.45 372.48 676.88 372.07 673.42 367.58"/><path class="cls-11" d="m789.59,326.18l-30.94,51.98c-17.65-11.82-29.89-31.09-45.67-44.96-.03.08-.89,2.92-1.37,8.56-.98,11.5-.33,34.67,12.42,70.12.07.19.13.37.2.56,16.94,11.46,36.36,23.73,42.72,24.27,19.22,1.63,47.5-97.26,47.5-97.26l-24.85-13.27h-.01Z"/><path class="cls-11" d="m677.89,317.89c-4.31,3.66-.93,19.52,4,35.71l4-6.6c-4.14-16.99-6.67-25.25-8.01-29.11Z"/><path class="cls-11" d="m724.05,412.31s.12.08.19.12c-.07-.19-.13-.37-.2-.56v.42h.01Z"/><path class="cls-22" d="m711.62,341.76c.48-5.65,1.35-8.48,1.37-8.56h-.01c-8.96-7.89-19.07-14.02-31.98-16.04h0c-1.27-.56-2.62-1.14-4.03-1.75.2.48.5,1.27.93,2.47,1.34,3.86,3.87,12.11,8.01,29.11,1.27,5.22,2.7,11.29,4.29,18.3,7.42.44,14.88.95,22.37,1.5-1.48-11.12-1.4-19.46-.93-25.02h-.01Z"/><path class="cls-22" d="m712.55,366.79c-7.49-.54-14.95-1.06-22.37-1.5,1.06,4.67,2.19,9.74,3.41,15.31.85,3.88,1.6,7.86,2.29,11.92.16.93.29,1.88.45,2.82,7.5.13,15.02.29,22.52.49-3.25-11.19-5.2-20.89-6.28-29.04h-.01Z"/><path class="cls-22" d="m724.21,423.79c-.03-3.66-.07-7.3-.15-10.9v-1.01c-2.04-5.69-3.74-11-5.21-16.05-7.5-.19-15.02-.34-22.52-.49,1.47,9.21,2.53,18.74,3.34,28.26,8.16.15,16.34.23,24.55.19h-.01Z"/><path class="cls-22" d="m724.21,423.79c-8.2.04-16.38-.04-24.55-.19.54,6.43.99,12.84,1.29,19.14.28,5.74.45,11.39.57,16.85,7.46.24,14.91.42,22.35.53.28-11.74.44-24.18.34-36.33h0Z"/><path class="cls-11" d="m685.89,346.99l-4,6.6c5.88,19.25,13.97,38.93,13.97,38.93h0c-.69-4.06-1.44-8.03-2.29-11.92-3.02-13.9-5.57-24.89-7.69-33.61h.01Z"/><path class="cls-7" d="m625.69,265.6s-4.18-1.67-7.97-17.03,3.04-15.49,3.98-27.82c.94-12.33,14.22-19.72,30.15-16.69,15.93,3.04,12.15,10.72,21.45,2.37,9.29-8.34,22.57-2.72,22.57,7.53s5.79,22.57-4.57,32.33c-7.26,6.84-41.53,26.92-41.53,26.92l-24.08-7.62h0Z"/><path class="cls-8" d="m632.7,265.53s-2.25,35.3-3.58,42.2c-.66,3.42,7.3,12.17,15.52,20.13,7.91,7.67,21.1,4.81,25.05-5.47l2.51-6.53s-1.67-14.22.98-22.72-40.48-27.61-40.48-27.61Z"/><path class="cls-2" d="m632.7,265.53s-.16,2.44-.41,6.14h.23c-3.07,23.06,18.58,35.14,39.19,36.21-.09-4.65.13-10.43,1.48-14.75,2.65-8.5-40.48-27.61-40.48-27.61h-.01Z"/><path class="cls-8" d="m692.84,234.28s6.81,20.07,0,44.8c-6.81,24.73-18.28,24.73-24.02,24.73s-31.53-.36-36.91-28.31c0,0-7.89-8.24-5.74-18.99s8.96,0,8.96,0c0,0-.72,6.45,1.79,6.45s-.36-9.32,1.43-19.35c1.79-10.03,14.7-17.92,27.24-15.06,12.54,2.86,14.58-.4,18.64-.6,2.89-.13,7.12.33,8.6,6.34h.01Z"/><path class="cls-13" d="m658.48,255.43c-.53-.07-1.1-.12-1.56.16-.45.28-.66.8-.81,1.3-.2.69-.27,1.52.25,2,.29.27.69.36,1.07.41.5.08,1.05.11,1.51-.12.56-.28.87-.86,1.11-1.44.27-.66.42-1.54-.12-2-.17-.15-.38-.23-.61-.29-.42-.12-.87-.16-1.31-.12"/><path class="cls-13" d="m658.48,254.62c-.64-.08-1.27-.08-1.86.21s-.93.86-1.15,1.44c-.38.99-.53,2.37.33,3.18.52.48,1.17.6,1.83.68s1.33,0,1.87-.34c.49-.32.85-.78,1.1-1.31s.45-1.07.49-1.67c.05-.72-.24-1.44-.86-1.84s-1.48-.49-2.2-.44c-.41.04-.82.34-.8.8.01.4.34.84.8.8.25-.01.49,0,.73,0-.15,0-.03,0,0,0,.07.01.15.03.21.04.12.03.23.07.33.09.2.07-.12-.08.05.03.03.03.11.09,0,0,.04.03.07.07.09.09.07.07-.08-.16-.01-.01l.05.09-.04-.09s.03.07.03.09l.03.11c-.01-.12-.01-.15,0-.05v.05c0,.08-.03.2,0,.28v-.11.08c0,.05-.01.09-.03.15-.04.2-.12.38-.19.57-.04.12.08-.17,0,0-.01.04-.04.08-.05.11-.04.09-.09.19-.15.27-.04.07-.11.2-.16.25.11-.08.05-.07.01-.03-.05.05-.09.11-.15.15-.03.03-.07.08-.11.09.16-.08.05-.04.01-.03-.05.03-.11.05-.16.09.03-.01.15-.05,0,0-.05.01-.11.03-.16.04-.04,0-.2.05-.01,0-.12.03-.25.01-.37.01-.11,0-.2,0-.3-.01-.03,0-.25-.01-.05,0-.04,0-.08,0-.12-.01-.11-.01-.2-.04-.3-.07-.04,0-.08-.03-.12-.04-.04,0-.08-.03-.12-.04.09.04.11.04.05.01-.03-.01-.12-.04-.13-.08.03.07.08.08.01,0l-.04-.04s-.05-.05.01.04c-.01,0-.05-.08-.05-.09,0-.03-.11-.15-.03-.05.07.09,0-.01-.01-.05,0-.04-.01-.07-.03-.11,0-.04-.01-.07-.01-.11.01.11.01.13,0,.08v-.42c0-.07-.03-.11,0,.04,0-.08.04-.21.05-.28.03-.11.05-.23.09-.33.03-.09.07-.19.09-.28.07-.19-.08.15,0-.03.03-.05.05-.11.08-.16.01-.03.04-.07.07-.09.08-.13-.11.11.03-.04.03-.04.07-.07.11-.11.12-.12-.13.07.03,0,0,0,.19-.09.08-.04-.11.04.12-.03.15-.04s.11-.03.12-.03c-.11.01-.12.01-.03,0h.07c.27-.01.52.01.78.04.41.05.82-.4.8-.8-.03-.48-.34-.74-.8-.8h0v.07Z"/><path class="cls-13" d="m683.69,256.56c-.74-.19-1.59.29-1.82,1.02-.08.25-.09.52-.09.78,0,.28.01.56.12.81.13.33.4.58.72.74.65.32,1.48.16,2.04-.32s.82-1.22.81-1.95c0-.21-.04-.44-.12-.64-.21-.5-.77-.81-1.3-.81s-1.06.27-1.44.65"/><path class="cls-13" d="m683.91,255.79c-1.18-.27-2.37.38-2.78,1.52-.11.3-.13.65-.13.97s.01.64.09.94c.16.6.61,1.14,1.18,1.39s1.22.32,1.84.15,1.13-.56,1.51-1.06c.72-.94.93-2.49.17-3.46-.42-.54-1.14-.87-1.83-.85-.74.03-1.43.37-1.95.89-.29.29-.32.84,0,1.13s.81.32,1.13,0c.04-.04.09-.08.13-.12.03-.03.11-.11-.03,0,.07-.07.17-.12.25-.16.04-.01.07-.04.11-.05.17-.09-.16.04.03,0,.08-.01.21-.09.29-.08h-.09.24c.19,0-.13-.03-.03,0,.04,0,.09.01.13.03.04,0,.07.03.11.03.17.04-.15-.09,0,0,.03.01.07.04.09.05s.07.04.09.05l-.08-.07s.09.09.12.11c.08.07.03-.03-.03-.04.03,0,.05.09.07.11.03.05.11.12,0,0,.03.04.04.11.05.16,0,.05.07.19,0,0,.03.09.01.24.01.34,0,.08,0,.19-.01.27v-.09.12s-.01.08-.03.11c-.03.09-.05.19-.08.28-.05.15.01-.01.01-.03,0,.05-.07.13-.09.17-.04.08-.09.15-.13.21-.11.16.12-.12-.01.01l-.08.08s-.07.07-.11.09c-.09.09-.07,0,0,0,0,0-.08.05-.09.07-.05.04-.11.07-.17.09-.11.05-.09,0,0,0-.03,0-.08.03-.11.04-.09.03-.19.05-.27.07-.19.04.13,0,.01,0h-.34c.11.01.13.01.08,0-.08-.03-.16-.04-.24-.07-.17-.05.13.09,0,0-.03-.03-.07-.04-.09-.05-.01,0-.15-.12-.05-.04s-.04-.04-.04-.04l-.08-.08c-.11-.11.08.13-.03-.04-.03-.04-.05-.08-.07-.12.03.17.03.07.01.03,0-.05-.05-.13-.04-.19,0,.01,0,.19,0,.03v-.32c0-.11-.03-.29.01-.4,0,.01-.04.17,0,.01.01-.07.03-.13.05-.19v-.05c.05-.08.04-.07,0,.05.01,0,.07-.12.07-.13l.05-.08c-.08.09-.09.11-.03.04.01-.01.03-.04.05-.05.03-.03.07-.05.09-.08.12-.12-.15.09,0,0,.04-.03.25-.12.27-.15,0,.01-.19.07-.05.03.05,0,.09-.03.15-.04h.05c.09-.03.07-.03-.07,0h.24c.09,0,.07,0-.07,0,.03,0,.07,0,.09.03.41.09.89-.12.98-.56.09-.41-.12-.89-.56-.98h0v-.03Z"/><path class="cls-13" d="m669.48,253.44c0,4.06.85,8.06,2.53,11.76.82,1.8,2.07,3.35,2.89,5.13.38.82.62,1.99-.05,2.73s-1.94.57-2.84.49c-1.02-.09-1.02,1.5,0,1.6,1.86.17,3.99-.05,4.67-2.11s-.58-3.9-1.63-5.57c-2.62-4.2-3.98-9.08-3.96-14.02,0-1.03-1.59-1.03-1.59,0h-.01Z"/><path class="cls-13" d="m662.04,281.05c.12.87.65,1.66,1.22,2.31.53.62,1.18,1.14,1.86,1.58,1.51.97,3.27,1.46,5.02,1.79.42.08.86-.12.98-.56.11-.38-.13-.9-.56-.98-1.54-.29-3.07-.69-4.44-1.5-1.09-.65-2.37-1.72-2.54-3.05-.05-.42-.61-.66-.98-.56-.46.13-.62.56-.56.98h0Z"/><path class="cls-13" d="m679.5,253.12c.72-.76,1.58-1.18,2.62-1.34-.08,0,.04,0,.05,0,.07,0,.12,0,.19-.01.13,0,.27-.01.41-.01s.27,0,.41.01c.08,0,.15,0,.23.03.15.01-.09-.01.05,0,.57.09.98.24,1.44.5.9.5,1.71-.87.81-1.38-2.33-1.33-5.49-.89-7.34,1.07-.7.74.42,1.88,1.13,1.13h0Z"/><path class="cls-13" d="m661.68,249.53c-2.96-.85-6.38-.76-8.69,1.51-.73.72.4,1.86,1.13,1.13,1.91-1.87,4.75-1.79,7.14-1.1.99.28,1.42-1.26.42-1.54h0Z"/><path class="cls-13" d="m677.29,243.24c-.53.85-.17,1.97.77,2.32.86.32,1.52-.3,2.31-.54.72-.23,1.48-.28,2.21-.12.85.19,1.6.66,2.45.85.32.07.76-.04.9-.37.42-.91-.25-1.52-1.03-1.87-.73-.32-1.48-.58-2.27-.76-1.55-.33-3.14-.34-4.71-.04-.42.08-.66.58-.56.98.12.45.56.64.98.56,1.07-.2,2.2-.24,3.29-.07.56.08,1.1.21,1.63.38.27.08.52.17.77.28.12.05.24.11.34.16.33.16.09.13.11-.13l.11-.4-.04.08.9-.37c-.69-.15-1.3-.5-1.97-.72s-1.4-.3-2.12-.27-1.39.2-2.05.48c-.16.07-.33.15-.49.23-.04.01-.27.11-.29.12.09-.12-.04.21.11,0,.54-.87-.84-1.68-1.38-.81h0l.04.03Z"/><path class="cls-13" d="m650.85,243.6c1.72-.97,3.57-1.67,5.5-2.09.86-.19,1.74-.34,2.62-.34.52,0,1.75.04,1.97.66.01.04.15.03-.07.08-.23.05-.48-.04-.69-.11-.44-.13-.86-.28-1.31-.37-.89-.2-1.8-.29-2.72-.28s-1.83.15-2.7.36c-.44.11-.87.25-1.29.42-.24.09-.49.2-.73.3-.12.05-.24.11-.34.17-.37.12-.38.44-.08.94.89-.52.09-1.91-.81-1.38-.84.49-.65,1.8.28,2.08.42.13.86,0,1.26-.19.49-.23.97-.45,1.48-.62,1.94-.62,4.03-.66,5.98-.08.94.28,1.94.61,2.78-.08s.73-1.71.05-2.44c-1.31-1.42-3.51-1.13-5.21-.84-2.39.4-4.68,1.25-6.79,2.43-.9.5-.09,1.88.81,1.38h-.01Z"/><path class="cls-13" d="m660.86,241.21c-.7.04-1.39.03-2.09-.07l.21.03c-.23-.03-.46-.07-.69-.12-.21-.04-.42-.03-.61.08-.17.09-.32.29-.37.48-.09.4.12.9.56.98.98.2,1.99.28,3,.21.41-.03.82-.34.8-.8-.01-.41-.34-.84-.8-.8h0Z"/><polygon class="cls-1" points="591.42 449.22 600.97 376.91 571.97 458.94 604.71 515.32 591.42 449.22"/><path class="cls-19" d="m664.66,189.16c12.74,4.19,22.92,15.8,27.17,29.77l6.4-2.11s-4.64-25.26-33.57-27.66Z"/><path class="cls-19" d="m651.66,189.56c-.42.05-.84.09-1.27.15-48.02,7.02-34.38,54.2-34.38,54.2l65.79-21.68c-4.37-15.6-15.03-28.75-30.13-32.67h-.01Z"/><path class="cls-20" d="m664.66,189.16c-3.87-.32-8.2-.21-13,.4,15.1,3.92,25.75,17.07,30.13,32.67l10.03-3.31c-4.25-13.97-14.43-25.58-27.17-29.77h.01Z"/><path class="cls-9" d="m616,243.91s30.35-20.92,67.76-31.29c36.26-10.06,24.76,5.91,18.64,12.76-1.54,1.72-3.84,2.58-6.12,2.23-6.42-1.01-21.35-2.24-39.14,3.68-23.83,7.94-41.11,12.62-41.11,12.62h-.01Z"/><path class="cls-6" d="m647.47,383.67c-.25-3.05-.74-6.28-1.4-9.64-.69-3.46-1.56-7.02-2.58-10.64-15.98-.34-32.01-.33-48.21.09,2.28,3.92,4.2,8.14,5.46,12.62-1.7,6.06-3.37,12.26-4.96,18.49,17.44,0,34.89.05,52.33.17-.17-4.14-.38-7.87-.65-11.09h.01Z"/><path class="cls-6" d="m589.59,421.11c-2.13,10.22-3.83,20.05-4.84,28.92l1.75,5.74c20.2-.09,40.56.62,60.96,1.52.62-12.07.95-24.08,1.03-35.15-19.56-.62-39.15-1.15-58.92-1.03h.01Z"/><path class="cls-6" d="m712.55,366.79c-7.49-.54-14.95-1.06-22.37-1.5,1.06,4.67,2.19,9.74,3.41,15.31.85,3.88,1.6,7.86,2.29,11.92.16.93.29,1.88.45,2.82,7.5.13,15.02.29,22.52.49-3.25-11.19-5.2-20.89-6.28-29.04h-.01Z"/><path class="cls-6" d="m724.21,423.79c-8.2.04-16.38-.04-24.55-.19.54,6.43.99,12.84,1.29,19.14.28,5.74.45,11.39.57,16.85,7.46.24,14.91.42,22.35.53.28-11.74.44-24.18.34-36.33h0Z"/><path class="cls-11" d="m606.43,520.94l-21.67-70.91c2.44-21.66,9.03-49.05,15.97-73.92-1.54-5.46-4.03-10.56-7.01-15.19-11.2-17.36-29.23-28.22-29.23-28.22-4.2,8.01-28.83,108.55-23.49,123.05l35.42,90.94,33.07-15.73s-3.06-10.02-3.06-10.02Z"/></g><path class="cls-11" d="m793.06,327.05l-30.94,51.98c-17.66-11.82-29.89-31.1-45.68-44.96-.03.08-.89,2.92-1.37,8.56-.98,11.5-.33,34.67,12.42,70.12.07.19.13.37.2.56,16.94,11.47,36.36,23.73,42.72,24.27,19.22,1.63,47.5-97.26,47.5-97.26l-24.85-13.27h-.01Z"/><rect class="cls-24" x="592.86" y="602.91" width="392.88" height="280.33" rx="16.32" ry="16.32"/><path class="cls-11" d="m918.52,576h-346.15c-13.61,0-24.64,11.03-24.64,24.64v62.54c0,13.61,11.03,24.64,24.64,24.64h16.73c-.38,6.97-1.4,17.5-4.21,26.11-1.4,4.28,3.03,8.12,7.1,6.23,12.89-5.96,24-15.84,34.9-32.33h291.61c13.61,0,24.64-11.03,24.64-24.64v-62.54c0-13.61-11.03-24.64-24.64-24.64h.01Z"/><rect class="cls-19" x="573.35" y="602.88" width="344.18" height="11.53" rx="3.44" ry="3.44"/><rect class="cls-19" x="573.35" y="625.43" width="344.18" height="11.53" rx="3.44" ry="3.44"/><rect class="cls-19" x="573.35" y="647.65" width="110.53" height="11.53" rx="3.44" ry="3.44"/><path class="cls-21" d="m636.9,713.98h238.54c13.61,0,24.64,11.03,24.64,24.64v75.99c0,13.61-11.03,24.64-24.64,24.64h-16.73c.38,6.97,1.4,17.5,4.21,26.11,1.4,4.28-3.03,8.12-7.1,6.23-12.89-5.96-24-15.84-34.9-32.33h-184.01c-13.61,0-24.64-11.03-24.64-24.64v-75.99c0-13.61,11.03-24.64,24.64-24.64Z"/><path class="cls-19" d="m813.94,751.37c3.31,2.81,4.96,6.82,4.96,12.04,0,4.56-1.52,8.18-4.55,10.83-3.04,2.66-7.03,4.04-12,4.14l-.38,5.49h-13.01l-.46-14.97h5.42c3.42,0,6.01-.39,7.83-1.16,1.8-.78,2.7-2.17,2.7-4.17,0-1.36-.36-2.42-1.09-3.2s-1.72-1.17-2.97-1.17c-1.4,0-2.46.42-3.2,1.24-.73.82-1.09,1.95-1.09,3.35h-13.91c-.11-3.05.54-5.85,1.91-8.39,1.37-2.53,3.47-4.53,6.28-6.01s6.27-2.22,10.38-2.22c5.46,0,9.85,1.4,13.17,4.21h-.01Zm-24.63,51.19c-1.57-1.43-2.37-3.24-2.37-5.46s.79-4.04,2.37-5.49,3.67-2.18,6.28-2.18,4.63.73,6.2,2.18,2.37,3.28,2.37,5.49-.79,3.97-2.37,5.42-3.65,2.18-6.2,2.18-4.71-.71-6.28-2.15h0Z"/><path class="cls-19" d="m746.69,751.37c3.31,2.81,4.96,6.82,4.96,12.04,0,4.56-1.52,8.18-4.55,10.83-3.04,2.66-7.03,4.04-12,4.14l-.38,5.49h-13.01l-.46-14.97h5.42c3.42,0,6.01-.39,7.83-1.16,1.8-.78,2.7-2.17,2.7-4.17,0-1.36-.36-2.42-1.09-3.2s-1.72-1.17-2.97-1.17c-1.4,0-2.46.42-3.2,1.24-.73.82-1.09,1.95-1.09,3.35h-13.91c-.11-3.05.54-5.85,1.91-8.39,1.37-2.53,3.47-4.53,6.28-6.01s6.27-2.22,10.38-2.22c5.46,0,9.85,1.4,13.17,4.21h-.01Zm-24.63,51.19c-1.57-1.43-2.37-3.24-2.37-5.46s.79-4.04,2.37-5.49,3.67-2.18,6.28-2.18,4.63.73,6.2,2.18,2.37,3.28,2.37,5.49-.79,3.97-2.37,5.42-3.65,2.18-6.2,2.18-4.71-.71-6.28-2.15h0Z"/><path class="cls-19" d="m679.44,751.37c3.31,2.81,4.96,6.82,4.96,12.04,0,4.56-1.52,8.18-4.55,10.83-3.04,2.66-7.03,4.04-12,4.14l-.38,5.49h-13.01l-.46-14.97h5.42c3.42,0,6.01-.39,7.83-1.16,1.8-.78,2.7-2.17,2.7-4.17,0-1.36-.36-2.42-1.09-3.2s-1.72-1.17-2.97-1.17c-1.4,0-2.46.42-3.2,1.24-.73.82-1.09,1.95-1.09,3.35h-13.91c-.11-3.05.54-5.85,1.91-8.39,1.37-2.53,3.47-4.53,6.28-6.01s6.27-2.22,10.38-2.22c5.46,0,9.85,1.4,13.17,4.21h-.01Zm-24.63,51.19c-1.57-1.43-2.37-3.24-2.37-5.46s.79-4.04,2.37-5.49c1.57-1.45,3.67-2.18,6.28-2.18s4.63.73,6.2,2.18,2.37,3.28,2.37,5.49-.79,3.97-2.37,5.42-3.65,2.18-6.2,2.18-4.71-.71-6.28-2.15h0Z"/><g class="cls-34"><path class="cls-8" d="m929.24,691.33s-2.11-11.06,9.07-12.17,10.52,51.39,25.86,75.7c19.13,30.28.55,48.86,16.37,72.89,15.82,24.02,146.16,85.35,146.16,85.35l-111.31,78.02s-31.89-84.33-80.14-108.7c-48.23-24.39-49.35-9.5-80.31-71.74-30.96-62.25,74.29-119.33,74.29-119.33h.01Z"/><polygon class="cls-8" points="830.31 783.34 840.02 765.56 828.59 748.58 846.88 732.69 859.34 757.44 850.31 788.79 830.31 783.34"/><polygon class="cls-8" points="858.76 790.38 837.41 808.5 848.74 815.52 862.78 809.44 858.76 790.38"/><polygon class="cls-8" points="849.92 701.08 824.84 722.36 838.14 730.61 854.64 723.46 849.92 701.08"/><path class="cls-2" d="m930.99,685.56s26.54,128.77,18.01,151.09c-8.53,22.31-67.71,13.64-67.71,13.64l49.71-164.72h-.01Z"/><rect class="cls-17" x="843.02" y="658.86" width="95.75" height="189.57" rx="16.44" ry="16.44" transform="translate(-82.97 110.79) rotate(-6.8)"/><rect class="cls-19" x="845.45" y="661.66" width="90.92" height="183.97" rx="16.44" ry="16.44" transform="translate(-82.97 110.79) rotate(-6.8)"/><g class="cls-33"><rect class="cls-9" x="845.65" y="662.08" width="90.52" height="183.15" rx="16.44" ry="16.44" transform="translate(-82.97 110.79) rotate(-6.8)"/><rect class="cls-19" x="823.32" y="653.43" width="117.77" height="38.58" transform="translate(-73.45 109.19) rotate(-6.8)"/><path class="cls-11" d="m860.24,678.16c-1.37.16-2.34,1.45-2.17,2.88s1.41,2.45,2.78,2.29,2.34-1.45,2.17-2.88-1.41-2.45-2.78-2.29Zm.48,4.02c-.77.09-1.47-.48-1.56-1.28s.44-1.52,1.21-1.61,1.47.48,1.56,1.28-.44,1.52-1.21,1.61Z"/><path class="cls-11" d="m865.51,677.53c-1.37.16-2.34,1.45-2.17,2.88l.39,3.28c.04.31.31.54.62.5s.51-.32.48-.63l-.13-1.14c.43.23.93.34,1.44.27,1.37-.16,2.34-1.45,2.17-2.88s-1.41-2.45-2.78-2.29h-.01Zm.48,4.02c-.65.08-1.25-.31-1.48-.94-.04-.11-.07-.23-.08-.34-.09-.79.44-1.52,1.21-1.61s1.47.48,1.56,1.28-.44,1.52-1.21,1.61Z"/><path class="cls-11" d="m870.86,676.9c-1.37.16-2.34,1.45-2.17,2.88l.39,3.28c.04.31.31.54.62.5s.51-.32.48-.63l-.13-1.14c.43.23.93.34,1.44.27,1.37-.16,2.34-1.45,2.17-2.88s-1.41-2.45-2.78-2.29h-.01Zm.48,4.02c-.65.08-1.25-.31-1.48-.94-.04-.11-.07-.23-.08-.34-.09-.79.44-1.52,1.21-1.61s1.47.48,1.56,1.28-.44,1.52-1.21,1.61Z"/><path class="cls-11" d="m876.78,676.77c-.04-.31-.31-.54-.62-.5-1.37.16-2.34,1.45-2.17,2.88l.24,2c.04.31.31.54.62.5s.51-.32.48-.63l-.24-2c-.09-.79.44-1.52,1.21-1.61.3-.04.51-.32.48-.63h-.01Z"/><ellipse class="cls-22" cx="877.71" cy="680.62" rx=".66" ry=".69" transform="translate(-74.41 108.71) rotate(-6.8)"/><path class="cls-12" d="m853.86,677.69c.11.36.09.78-.08,1.14-.22.47-.65.78-1.14.85h0c.51.48.85,1.14.93,1.87.2,1.64-.93,3.13-2.5,3.32-1.09.13-2.11-.39-2.7-1.26l.32,2.73c.01.15.01.31,0,.44.81.38,1.72.54,2.66.42,2.82-.34,4.83-3,4.48-5.93-.17-1.43-.87-2.72-1.95-3.59h-.01Z"/><path class="cls-12" d="m850.35,678.92c.55-.07,1.12.04,1.61.3h0c.56.3,1.24.05,1.52-.52.27-.58.04-1.29-.52-1.59h0c-.9-.46-1.9-.65-2.89-.52-2.73.32-4.71,2.82-4.51,5.65h0l.03.27.5,4.14c.08.65.65,1.12,1.26,1.04.54-.07.94-.52,1-1.06v-.24l-.5-4.14c-.2-1.64.93-3.13,2.5-3.32h0Z"/><ellipse class="cls-22" cx="850.71" cy="681.87" rx="1.86" ry="1.94" transform="translate(-74.75 105.52) rotate(-6.8)"/><line class="cls-27" x1="910.85" y1="670.74" x2="920.51" y2="669.6"/><line class="cls-27" x1="911.32" y1="674.67" x2="920.98" y2="673.52"/><line class="cls-27" x1="911.79" y1="678.59" x2="921.44" y2="677.44"/></g><rect class="cls-11" x="853.33" y="785.67" width="8.2" height="11.26" rx="2.69" ry="2.69" transform="translate(-87.66 107.09) rotate(-6.8)"/><rect class="cls-11" x="862.69" y="784.56" width="8.2" height="11.26" rx="2.69" ry="2.69" transform="translate(-87.46 108.19) rotate(-6.8)"/><rect class="cls-11" x="872.03" y="783.43" width="8.2" height="11.26" rx="2.69" ry="2.69" transform="translate(-87.26 109.29) rotate(-6.8)"/><rect class="cls-11" x="881.4" y="782.32" width="8.2" height="11.26" rx="2.69" ry="2.69" transform="translate(-87.07 110.39) rotate(-6.8)"/><rect class="cls-11" x="890.76" y="781.2" width="8.2" height="11.26" rx="2.69" ry="2.69" transform="translate(-86.87 111.49) rotate(-6.8)"/><rect class="cls-11" x="900.11" y="780.09" width="8.2" height="11.26" rx="2.69" ry="2.69" transform="translate(-86.67 112.59) rotate(-6.8)"/><rect class="cls-11" x="909.48" y="778.96" width="8.2" height="11.26" rx="2.69" ry="2.69" transform="translate(-86.47 113.69) rotate(-6.8)"/><rect class="cls-11" x="918.84" y="777.85" width="8.2" height="11.26" rx="2.69" ry="2.69" transform="translate(-86.27 114.79) rotate(-6.8)"/><rect class="cls-11" x="928.2" y="776.75" width="8.2" height="11.26" rx="2.69" ry="2.69" transform="translate(-86.08 115.89) rotate(-6.8)"/><rect class="cls-11" x="854.94" y="798.84" width="8.2" height="11.26" rx="2.69" ry="2.69" transform="translate(-89.21 107.37) rotate(-6.8)"/><rect class="cls-11" x="864.31" y="797.72" width="8.2" height="11.26" rx="2.69" ry="2.69" transform="translate(-89.01 108.47) rotate(-6.8)"/><rect class="cls-11" x="873.65" y="796.61" width="8.2" height="11.26" rx="2.69" ry="2.69" transform="translate(-88.81 109.57) rotate(-6.8)"/><rect class="cls-11" x="883.01" y="795.48" width="8.2" height="11.26" rx="2.69" ry="2.69" transform="translate(-88.61 110.67) rotate(-6.8)"/><rect class="cls-11" x="892.38" y="794.37" width="8.2" height="11.26" rx="2.69" ry="2.69" transform="translate(-88.42 111.77) rotate(-6.8)"/><rect class="cls-11" x="901.73" y="793.26" width="8.2" height="11.26" rx="2.69" ry="2.69" transform="translate(-88.22 112.87) rotate(-6.8)"/><rect class="cls-11" x="911.09" y="792.14" width="8.2" height="11.26" rx="2.69" ry="2.69" transform="translate(-88.02 113.97) rotate(-6.8)"/><rect class="cls-11" x="920.46" y="791.02" width="8.2" height="11.26" rx="2.69" ry="2.69" transform="translate(-87.82 115.08) rotate(-6.8)"/><rect class="cls-11" x="929.81" y="789.9" width="8.2" height="11.26" rx="2.69" ry="2.69" transform="translate(-87.62 116.17) rotate(-6.8)"/><rect class="cls-11" x="856.5" y="812.01" width="8.2" height="11.26" rx="2.69" ry="2.69" transform="translate(-90.76 107.65) rotate(-6.8)"/><rect class="cls-11" x="865.87" y="810.88" width="8.2" height="11.26" rx="2.69" ry="2.69" transform="translate(-90.56 108.75) rotate(-6.8)"/><rect class="cls-11" x="875.22" y="809.77" width="8.2" height="11.26" rx="2.69" ry="2.69" transform="translate(-90.36 109.85) rotate(-6.8)"/><rect class="cls-11" x="884.59" y="808.66" width="8.2" height="11.26" rx="2.69" ry="2.69" transform="translate(-90.16 110.95) rotate(-6.8)"/><rect class="cls-11" x="893.95" y="807.54" width="8.2" height="11.26" rx="2.69" ry="2.69" transform="translate(-89.97 112.05) rotate(-6.8)"/><rect class="cls-11" x="903.3" y="806.41" width="8.2" height="11.26" rx="2.69" ry="2.69" transform="translate(-89.77 113.15) rotate(-6.8)"/><rect class="cls-11" x="912.65" y="805.3" width="8.2" height="11.26" rx="2.69" ry="2.69" transform="translate(-89.57 114.25) rotate(-6.8)"/><rect class="cls-11" x="922.02" y="804.2" width="8.2" height="11.26" rx="2.69" ry="2.69" transform="translate(-89.37 115.35) rotate(-6.8)"/><rect class="cls-11" x="931.39" y="803.09" width="8.2" height="11.26" rx="2.69" ry="2.69" transform="translate(-89.17 116.45) rotate(-6.8)"/><rect class="cls-11" x="857.99" y="824.63" width="17.62" height="11.26" rx="2.69" ry="2.69" transform="translate(-92.21 108.47) rotate(-6.8)"/><rect class="cls-11" x="876.74" y="822.96" width="8.2" height="11.26" rx="2.69" ry="2.69" transform="translate(-91.91 110.12) rotate(-6.8)"/><rect class="cls-11" x="886.01" y="820.15" width="36.52" height="11.26" rx="2.69" ry="2.69" transform="translate(-91.41 112.88) rotate(-6.8)"/><rect class="cls-11" x="923.56" y="817.36" width="8.2" height="11.26" rx="2.69" ry="2.69" transform="translate(-90.92 115.63) rotate(-6.8)"/><rect class="cls-11" x="932.89" y="816.25" width="8.2" height="11.26" rx="2.69" ry="2.69" transform="translate(-90.72 116.73) rotate(-6.8)"/><rect class="cls-31" x="850.04" y="746.52" width="83.55" height="29.23" rx="2.69" ry="2.69" transform="translate(-83.85 110.95) rotate(-6.8)"/><line class="cls-28" x1="852.32" y1="754.78" x2="853.22" y2="762.39"/><line class="cls-29" x1="885.82" y1="841.91" x2="916.54" y2="838.25"/><path class="cls-25" d="m923.88,717.87l-67.06,7.99c-2.64.31-4.52,2.7-4.2,5.34l.65,5.37c.31,2.64,2.7,4.52,5.34,4.2l60.19-7.17c.86,1.1,2.76,2.81,5.34,3.69.31.11.59-.24.4-.51-.46-.69-.93-1.88-.81-3.77l1.95-.23c2.64-.31,4.52-2.7,4.2-5.34l-.65-5.37c-.31-2.64-2.7-4.52-5.34-4.2h-.01Z"/><path class="cls-8" d="m855.22,814.74c.69,5.76-3.43,10.99-9.19,11.67-5.76.69-10.99-3.43-11.67-9.19-.4-3.35.82-6.52,3.05-8.73,1.6-1.59,3.73-2.66,6.13-2.95,5.76-.69,10.99,3.43,11.67,9.19h0Z"/><circle class="cls-8" cx="841.68" cy="789.83" r="13.09"/><circle class="cls-8" cx="836.96" cy="760.1" r="14.26"/><path class="cls-8" d="m845.77,729.69c.81,6.77-4.02,12.91-10.8,13.72s-12.91-4.02-13.72-10.8c-.47-3.94.97-7.67,3.59-10.25,1.88-1.86,4.37-3.13,7.21-3.47,6.77-.81,12.91,4.02,13.72,10.8Z"/></g><path class="cls-24" d="m49.88,603.59h347.89c8.7,0,15.76,7.23,15.76,16.16v245.31c0,8.92-7.05,16.16-15.76,16.16H49.88c-8.7,0-15.76-7.23-15.76-16.16v-245.31c0-8.92,7.05-16.16,15.76-16.16Z"/><path class="cls-8" d="m285.13,758.6s-2.26-22.82-6.42-31.37c-4.16-8.55,6.91-30.73-3.04-29.58s-8.86,17.68-11.09,22.18c-2.22,4.51-22.02-16.2-28.78-2.17-6.77,14.03-15.12,42.29-.31,43.46,14.81,1.17,25.15,11.22,25.15,11.22l24.5-13.77h0Z"/><path class="cls-11" d="m252.39,768.38s20.94,92.17,33.39,103.49c12.47,11.34,36.73,20,36.73,20,0,0,29.93-4.94,20.91-44.2s-55.49-93.05-55.49-93.05l-35.55,13.76Z"/><path class="cls-11" d="m164.5,880.47s.01.12.03.18l52.4-.08s0-.06-.03-.1h-52.41.01Z"/><path class="cls-11" d="m216.91,880.47s0,.06.03.1l69.7-.1h-69.72Z"/><path class="cls-11" d="m89.55,880.47s-7.05-60.83-27.5-75.91c-4.71,5.7-8.2,11.82-9.55,18.24-6.83,32.56,6.51,57.99,6.51,57.99l105.51-.16s-.01-.12-.03-.18h-74.96.01Z"/><path class="cls-11" d="m266.95,857.61c5.2,7.73,11.65,15.42,19.68,22.86,0,0,.09-1.32.14-3.68-6.51-5.68-13.5-12.6-19.82-19.18Z"/><path class="cls-11" d="m330.9,846.73c-11.98-38.94-60.5-59.37-82.86-66.88-.09.82-.17,1.65-.23,2.49,37.78,24.18,39.28,79.67,38.97,94.45,4.3,3.75,8.4,6.97,11.96,9.2,18.89,11.78,47.88,11.78,32.16-39.26Z"/><path class="cls-11" d="m247.8,782.34c-1.62,19.22.52,47.53,19.15,75.28,6.33,6.59,13.31,13.5,19.82,19.18.31-14.78-1.18-70.27-38.97-94.45h0Z"/><path class="cls-22" d="m158.87,851.61c-6.07-24.72-15.35-48.53-28.71-70.27-4.22-3.2-7.85-8.29-10.49-15.56-7.16,3.07-40.51,18.13-57.62,38.78,10.92,8.05,18.03,29.17,22.26,47.1,24.85.42,49.69.34,74.54-.06h.01Z"/><path class="cls-22" d="m84.32,851.67c3.7,15.61,5.22,28.8,5.22,28.8h74.96c-1.43-9.72-3.3-19.35-5.64-28.86-24.85.4-49.69.48-74.54.06Z"/><path class="cls-11" d="m173.28,765.7c-12.35,17.59-30.39,25.26-43.12,15.64,18.5,30.09,29.21,64.15,34.34,99.13h52.41c-7.4-38.73-17.03-77.02-34.43-113.24-3.96-.6-7.35-1.16-9.2-1.53h0Z"/><path class="cls-22" d="m247.8,782.34c.08-.86.16-1.69.23-2.49-6.96-2.34-11.38-3.43-11.38-3.43l.04.21c-7.79-3.14-16.79-5.13-27.19-5.57,0,0-15.87-2.12-27.03-3.82,12.88,26.8,21.5,54.73,28.11,83.14,16.96-.52,33.94-1.12,50.9-1.75-13.57-24.77-15.13-49.14-13.69-66.28h0Z"/><path class="cls-22" d="m266.95,857.61c-2.01-3-3.82-6-5.46-8.99-16.96.64-33.94,1.25-50.9,1.75,2.32,9.99,4.4,20.03,6.33,30.09h69.72c-8.03-7.44-14.48-15.13-19.68-22.86h-.01Z"/><path class="cls-6" d="m84.32,851.67c3.7,15.61,5.22,28.8,5.22,28.8h74.96c-1.43-9.72-3.3-19.35-5.64-28.86-24.85.4-49.69.48-74.54.06Z"/><path class="cls-6" d="m266.95,857.61c-2.01-3-3.82-6-5.46-8.99-16.96.64-33.94,1.25-50.9,1.75,2.32,9.99,4.4,20.03,6.33,30.09h69.72c-8.03-7.44-14.48-15.13-19.68-22.86h-.01Z"/><path class="cls-7" d="m114.08,700.72s-6.33-2.53-12.08-25.83c-5.75-23.3,4.6-23.5,6.04-42.19s21.57-29.91,45.73-25.32c24.16,4.6,18.43,16.26,32.52,3.61,14.09-12.65,34.24-4.12,34.24,11.42s8.79,34.24-6.94,49.02c-11.03,10.37-62.98,40.84-62.98,40.84l-36.52-11.56h-.01Z"/><path class="cls-8" d="m124.72,700.63s-3.42,53.54-5.43,64.01c-1,5.18,11.08,18.46,23.54,30.54,12,11.65,31.99,7.3,38-8.31l3.81-9.91s-2.53-21.57,1.49-34.46c4.01-12.88-61.41-41.86-61.41-41.86Z"/><path class="cls-2" d="m124.72,700.63s-.23,3.69-.62,9.31h.34c-4.66,34.99,28.19,53.29,59.45,54.93-.14-7.07.21-15.83,2.25-22.37,4.01-12.88-61.41-41.86-61.41-41.86h0Z"/><path class="cls-8" d="m215.94,653.22s10.33,30.45,0,67.94c-10.33,37.51-27.72,37.51-36.42,37.51s-47.84-.55-55.99-42.94c0,0-11.96-12.51-8.7-28.81,3.26-16.3,13.59,0,13.59,0,0,0-1.09,9.78,2.71,9.78s-.55-14.13,2.17-29.35,22.29-27.17,41.32-22.83c19.03,4.35,22.12-.61,28.26-.91,4.38-.21,10.78.49,13.04,9.6h.03Z"/><path class="cls-13" d="m163.83,685.3c-.81-.09-1.68-.18-2.36.25-.68.42-1.01,1.21-1.22,1.97-.3,1.04-.4,2.31.38,3.04.43.4,1.04.53,1.62.62.77.12,1.6.16,2.29-.18.84-.42,1.34-1.31,1.69-2.18.4-1,.64-2.32-.18-3.04-.26-.22-.58-.35-.92-.44-.65-.17-1.31-.23-1.97-.17"/><path class="cls-13" d="m163.83,684.09c-.96-.12-1.92-.13-2.81.32-.9.44-1.4,1.3-1.75,2.2-.58,1.51-.82,3.61.49,4.82.78.71,1.78.9,2.78,1.01s2,.01,2.83-.52c.74-.48,1.29-1.19,1.66-1.99.39-.81.68-1.64.75-2.53.09-1.09-.36-2.2-1.3-2.79s-2.26-.74-3.35-.65c-.64.05-1.25.52-1.21,1.21.03.61.53,1.27,1.21,1.22.38-.03.74-.01,1.1,0-.22-.01-.04,0,0,0,.1.03.22.04.32.06.17.04.34.09.51.14.3.09-.18-.12.08.05.05.03.17.13,0-.01.05.05.09.09.14.14.1.1-.13-.25-.03-.03l.08.14-.06-.14s.04.1.05.16c0,.01.04.16.04.16-.03-.19-.03-.22-.01-.08v.08c0,.12-.04.31,0,.42l.03-.16s-.01.09-.03.13c-.01.08-.03.14-.04.21-.06.3-.17.58-.29.86-.06.18.13-.27,0,0-.03.05-.05.12-.08.17-.06.14-.14.27-.22.42-.06.1-.16.31-.25.39.17-.13.08-.09.03-.03-.06.08-.14.16-.22.23-.05.05-.1.12-.17.14.23-.12.08-.06.03-.03-.08.04-.16.09-.23.13.04-.03.22-.08,0,0-.08.03-.16.05-.25.06-.06.01-.29.08-.03.01-.18.04-.38.03-.56.03-.16,0-.31-.01-.45-.03-.05,0-.39-.03-.08,0-.06,0-.13-.01-.18-.03-.16-.03-.31-.05-.45-.09-.06-.01-.12-.04-.18-.05s-.12-.04-.17-.06c.13.05.16.06.08.03-.04-.03-.18-.06-.19-.12.04.09.13.12.03.03l-.06-.06c-.09-.1-.08-.08.03.05-.03,0-.08-.13-.09-.13-.01-.03-.17-.22-.05-.08.1.13,0-.03-.03-.08-.01-.05-.03-.1-.04-.16,0-.05-.03-.1-.03-.17.03.17.03.21.01.12v-.39c0-.09,0-.17.01-.26,0-.09-.04-.17,0,.06,0-.12.05-.31.08-.43.04-.17.09-.34.14-.51.04-.14.09-.29.14-.43.1-.29-.13.22.01-.04.04-.08.08-.16.13-.23.03-.05.06-.1.09-.16.12-.21-.16.16.05-.06.05-.05.1-.1.16-.16.18-.18-.19.09.04-.01,0,0,.29-.14.12-.06-.16.06.18-.05.22-.05s.16-.05.18-.04q-.17.03-.04,0h.09c.39-.03.79.03,1.18.06.64.08,1.23-.61,1.21-1.21-.03-.71-.53-1.13-1.21-1.22h0Z"/><path class="cls-13" d="m202.07,687.03c-1.13-.29-2.4.44-2.75,1.55-.12.38-.14.78-.14,1.18s.03.84.18,1.23c.19.49.6.88,1.08,1.12.99.48,2.25.25,3.09-.48.83-.73,1.25-1.86,1.22-2.96,0-.32-.05-.66-.18-.96-.32-.75-1.16-1.22-1.97-1.23s-1.61.4-2.18.99"/><path class="cls-13" d="m202.39,685.86c-1.78-.42-3.61.6-4.22,2.31-.17.47-.19.99-.21,1.47s.03.96.14,1.43c.25.91.92,1.71,1.78,2.1s1.86.49,2.79.23c.95-.26,1.71-.84,2.3-1.61,1.09-1.43,1.4-3.78.27-5.25-.64-.83-1.71-1.32-2.77-1.29-1.12.03-2.17.56-2.95,1.34-.45.44-.48,1.27,0,1.71s1.23.48,1.71,0c.06-.06.13-.13.19-.19.04-.04.17-.17-.03.01.1-.1.26-.18.39-.25l.16-.08c.26-.14-.23.06.05-.01.12-.03.32-.14.44-.12h-.14.35c.27,0-.21-.05-.04,0,.06.01.13.03.21.04.05.01.1.04.16.05.26.06-.22-.13.01,0,.05.03.09.05.14.08s.09.05.14.09l-.12-.09s.16.14.18.17c.12.1.03-.03-.04-.06.04.01.09.13.12.17.04.08.16.18,0-.01.04.05.05.17.06.23.01.08.1.27.01.01.05.14.03.36.03.52,0,.12.01.29-.03.39v-.14.17c0,.05-.03.12-.04.17-.04.14-.08.27-.13.42-.08.22.03-.03.03-.05,0,.08-.09.19-.14.27-.06.12-.13.22-.21.32-.16.23.18-.18-.03.03-.04.04-.08.09-.12.13-.05.05-.1.1-.16.16-.16.13-.1,0,.01,0-.01,0-.12.08-.14.09-.08.05-.17.1-.26.14-.16.08-.14,0,.01,0-.03,0-.12.04-.16.05-.13.04-.27.08-.42.1-.27.05.21,0,.03,0h-.38c-.05,0-.12,0-.17-.01.17.03.21.03.12,0-.12-.04-.25-.06-.36-.1-.26-.08.21.13-.01-.01-.05-.03-.1-.05-.14-.08-.03-.01-.22-.18-.08-.05s-.05-.05-.06-.06l-.12-.12c-.17-.17.12.21-.03-.05-.03-.05-.09-.13-.09-.18.04.26.04.09.03.03-.01-.08-.08-.19-.06-.29,0,.03.03.29,0,.04,0-.16-.01-.32-.01-.48s-.04-.44.03-.6c0,.03-.05.26,0,.03.03-.09.04-.19.08-.29l.03-.08c.05-.12.04-.09-.04.08.03,0,.09-.18.1-.19,0,0,.09-.12.08-.13-.12.14-.13.17-.05.06.03-.03.05-.05.08-.08.04-.04.09-.09.13-.13.18-.18-.22.13,0,0,.06-.04.38-.17.39-.22,0,.03-.29.09-.08.04.08-.03.14-.04.22-.06h.08c.13-.04.1-.04-.1,0,.05.01.17,0,.22,0h.16c.13,0,.1,0-.1-.01.05,0,.1.01.14.03.61.14,1.34-.18,1.49-.84.14-.62-.18-1.34-.84-1.49h-.03Z"/><path class="cls-13" d="m180.52,682.3c-.01,6.16,1.29,12.24,3.83,17.83,1.25,2.73,3.13,5.09,4.39,7.78.58,1.25.95,3.01-.08,4.13-1.04,1.14-2.94.86-4.3.74-1.55-.14-1.55,2.29,0,2.43,2.81.26,6.05-.09,7.08-3.2s-.9-5.91-2.48-8.44c-3.99-6.36-6.04-13.77-6.01-21.28,0-1.56-2.42-1.57-2.43,0h0Z"/><path class="cls-13" d="m169.21,724.18c.18,1.32.99,2.51,1.84,3.49.81.94,1.78,1.74,2.82,2.39,2.3,1.45,4.97,2.21,7.62,2.71.64.12,1.31-.18,1.49-.84.17-.6-.19-1.38-.84-1.49-2.34-.44-4.68-1.04-6.73-2.27-1.65-.99-3.6-2.61-3.87-4.64-.09-.65-.92-1-1.49-.84-.7.19-.94.84-.84,1.49h0Z"/><path class="cls-13" d="m195.72,681.81c1.08-1.14,2.39-1.78,3.99-2.03-.13.01.05,0,.09,0,.09,0,.18-.01.27-.03.21-.01.42-.03.61-.03s.42,0,.61.03c.12,0,.22.01.34.04.22.03-.14-.03.08.01.86.14,1.49.36,2.2.77,1.35.77,2.58-1.32,1.22-2.09-3.55-2.01-8.31-1.35-11.13,1.62-1.08,1.13.64,2.86,1.71,1.71h.01Z"/><path class="cls-13" d="m168.67,676.37c-4.48-1.27-9.68-1.16-13.18,2.3-1.12,1.09.6,2.82,1.71,1.71,2.88-2.83,7.2-2.71,10.83-1.68,1.51.43,2.14-1.91.65-2.34h-.01Z"/><path class="cls-13" d="m192.35,666.81c-.81,1.27-.25,3,1.18,3.52,1.3.47,2.31-.45,3.49-.82,1.08-.34,2.25-.42,3.36-.18,1.3.27,2.43,1,3.71,1.29.48.1,1.14-.05,1.36-.56.64-1.4-.39-2.3-1.57-2.83-1.1-.49-2.25-.88-3.44-1.14-2.36-.51-4.77-.52-7.13-.06-.65.12-1.01.9-.84,1.49.18.68.84.97,1.49.84,1.62-.31,3.34-.35,4.99-.1.83.13,1.66.32,2.47.58.39.13.79.27,1.17.43.18.08.36.16.53.25.51.25.14.21.16-.21l.17-.61-.05.12,1.36-.56c-1.04-.23-1.97-.77-2.99-1.09-1.03-.32-2.14-.47-3.21-.39-1.08.06-2.12.31-3.12.73-.25.1-.49.22-.74.35-.05.03-.4.16-.43.18.14-.18-.05.32.17-.01.83-1.32-1.26-2.55-2.09-1.23h0v.03Z"/><path class="cls-13" d="m152.26,667.36c2.61-1.47,5.42-2.53,8.34-3.17,1.3-.29,2.64-.52,3.97-.53.78,0,2.66.05,3,1,.03.06.22.04-.1.12-.35.08-.71-.05-1.05-.16-.66-.19-1.31-.42-1.99-.57-1.35-.3-2.74-.44-4.12-.42s-2.77.21-4.1.55c-.66.17-1.32.38-1.96.64-.38.14-.74.3-1.1.47-.18.08-.35.17-.53.26-.56.18-.6.66-.12,1.43,1.35-.78.13-2.88-1.22-2.09-1.27.74-.99,2.73.42,3.16.65.19,1.31,0,1.9-.27.74-.34,1.47-.69,2.25-.95,2.94-.95,6.1-1.01,9.05-.12,1.42.43,2.94.94,4.22-.12,1.23-1,1.1-2.6.08-3.7-1.99-2.14-5.33-1.7-7.91-1.27-3.61.61-7.1,1.88-10.29,3.68-1.36.77-.14,2.86,1.22,2.09h.05Z"/><path class="cls-13" d="m167.41,663.74c-1.07.06-2.12.03-3.17-.1l.32.04c-.35-.05-.7-.1-1.04-.18-.32-.06-.64-.05-.94.12-.25.14-.49.43-.56.73-.14.6.18,1.36.84,1.49,1.49.3,3.01.43,4.53.32.64-.04,1.25-.52,1.21-1.21-.03-.62-.53-1.26-1.21-1.22h0Z"/><path class="cls-19" d="m173.21,584.78c19.31,6.36,34.76,23.95,41.21,45.15l9.72-3.21s-7.03-38.32-50.93-41.95h0Z"/><path class="cls-19" d="m153.48,585.39c-.65.08-1.27.13-1.94.23-72.84,10.65-52.16,82.21-52.16,82.21l99.79-32.89c-6.65-23.67-22.81-43.6-45.71-49.55h.01Z"/><path class="cls-20" d="m173.21,584.78c-5.88-.48-12.44-.32-19.72.61,22.9,5.96,39.06,25.89,45.71,49.55l15.22-5.01c-6.46-21.2-21.89-38.8-41.21-45.15Z"/><path class="cls-9" d="m99.39,667.83s46.05-31.73,102.77-47.46c54.99-15.25,37.55,8.96,28.28,19.35-2.34,2.62-5.82,3.92-9.3,3.38-9.74-1.53-32.38-3.4-59.37,5.6-36.15,12.05-62.37,19.13-62.37,19.13Z"/><circle class="cls-12" cx="366.65" cy="665.78" r="80.08"/><path class="cls-19" d="m351.14,707.02h-.44c-2.52-.12-4.88-1.27-6.53-3.18l-28.16-32.61c-3.33-3.84-2.9-9.66.95-12.99,3.84-3.33,9.66-2.9,12.99.95l21.83,25.29,52.19-49.92c3.68-3.52,9.51-3.38,13.01.29,3.52,3.68,3.39,9.49-.29,13.01l-59.19,56.6c-1.71,1.64-4,2.56-6.36,2.56Z"/><circle class="cls-22" cx="443.5" cy="441.5" r="19.5"/><text class="cls-30" transform="translate(437.71 450.26)"><tspan x="0" y="0">1</tspan></text><circle class="cls-22" cx="560.5" cy="441.5" r="19.5"/><text class="cls-30" transform="translate(552.81 450.26)"><tspan x="0" y="0">2</tspan></text><circle class="cls-22" cx="443.5" cy="558.5" r="19.5"/><text class="cls-30" transform="translate(435.35 567.26)"><tspan x="0" y="0">4</tspan></text><circle class="cls-22" cx="560.5" cy="558.5" r="19.5"/><text class="cls-30" transform="translate(552.68 567.26)"><tspan x="0" y="0">3</tspan></text><path class="cls-22" d="m501.69,441.5c-30.39,0-55.35,23.26-58.06,52.94h5.85c2.69-26.46,25.03-47.11,52.2-47.11,28.98,0,52.48,23.49,52.48,52.48s-23.49,52.48-52.48,52.48c-25.88,0-47.38-18.73-51.69-43.38h-5.91c4.37,27.88,28.49,49.21,57.6,49.21,32.2,0,58.31-26.1,58.31-58.31s-26.1-58.31-58.31-58.31Z"/><polygon class="cls-22" points="445.45 501.67 456.13 515.74 440.67 518.67 445.45 501.67"/></svg>