<svg xmlns="http://www.w3.org/2000/svg" xmlns:xlink="http://www.w3.org/1999/xlink" width="1080" zoomAndPan="magnify" viewBox="0 0 810 809.999993" height="1080" preserveAspectRatio="xMidYMid meet" version="1.0"><defs><clipPath id="572efe0863"><path d="M 285.832031 468.765625 L 563.082031 468.765625 L 563.082031 810 L 285.832031 810 Z M 285.832031 468.765625 " clip-rule="nonzero"/></clipPath><clipPath id="5665cc8b04"><path d="M 378.300781 476.773438 C 392.46875 471.9375 408.671875 468.765625 424.53125 468.765625 C 440.394531 468.765625 455.652344 471.484375 469.71875 476.320312 C 470.019531 476.472656 470.316406 476.472656 470.617188 476.621094 C 523.433594 495.957031 562.335938 547.011719 563.082031 606.679688 L 563.082031 810 L 285.832031 810 L 285.832031 606.832031 C 286.578125 546.710938 324.882812 495.65625 378.300781 476.773438 Z M 378.300781 476.773438 " clip-rule="nonzero"/></clipPath><clipPath id="2ca7cbf5c8"><path d="M 305.972656 231.800781 L 542.941406 231.800781 L 542.941406 468.765625 L 305.972656 468.765625 Z M 305.972656 231.800781 " clip-rule="nonzero"/></clipPath><clipPath id="91c60ef1d3"><path d="M 424.457031 231.800781 C 359.019531 231.800781 305.972656 284.847656 305.972656 350.285156 C 305.972656 415.71875 359.019531 468.765625 424.457031 468.765625 C 489.894531 468.765625 542.941406 415.71875 542.941406 350.285156 C 542.941406 284.847656 489.894531 231.800781 424.457031 231.800781 Z M 424.457031 231.800781 " clip-rule="nonzero"/></clipPath><clipPath id="07032108a5"><path d="M 374.097656 317.582031 L 390.449219 317.582031 L 390.449219 350.285156 L 374.097656 350.285156 Z M 374.097656 317.582031 " clip-rule="nonzero"/></clipPath><clipPath id="184a0ad3df"><path d="M 390.449219 342.109375 C 390.449219 346.625 386.789062 350.285156 382.273438 350.285156 C 377.757812 350.285156 374.097656 346.625 374.097656 342.109375 L 374.097656 325.757812 C 374.097656 321.242188 377.757812 317.582031 382.273438 317.582031 C 386.789062 317.582031 390.449219 321.242188 390.449219 325.757812 Z M 390.449219 342.109375 " clip-rule="nonzero"/></clipPath><clipPath id="8056318f7a"><path d="M 455.71875 317.582031 L 472.070312 317.582031 L 472.070312 350.285156 L 455.71875 350.285156 Z M 455.71875 317.582031 " clip-rule="nonzero"/></clipPath><clipPath id="de54ec8ed7"><path d="M 472.070312 342.109375 C 472.070312 346.625 468.410156 350.285156 463.894531 350.285156 C 459.378906 350.285156 455.71875 346.625 455.71875 342.109375 L 455.71875 325.757812 C 455.71875 321.242188 459.378906 317.582031 463.894531 317.582031 C 468.410156 317.582031 472.070312 321.242188 472.070312 325.757812 Z M 472.070312 342.109375 " clip-rule="nonzero"/></clipPath><clipPath id="a366db0b8f"><path d="M 516 72 L 669 72 L 669 228 L 516 228 Z M 516 72 " clip-rule="nonzero"/></clipPath><clipPath id="f07b741a2c"><path d="M 533.734375 16.101562 L 708.121094 50.523438 L 672.390625 231.53125 L 498.007812 197.109375 Z M 533.734375 16.101562 " clip-rule="nonzero"/></clipPath><clipPath id="db66d5cc67"><path d="M 533.734375 16.101562 L 708.121094 50.523438 L 672.390625 231.53125 L 498.007812 197.109375 Z M 533.734375 16.101562 " clip-rule="nonzero"/></clipPath><clipPath id="edcf003bc0"><path d="M 517 33 L 689 33 L 689 147 L 517 147 Z M 517 33 " clip-rule="nonzero"/></clipPath><clipPath id="475d3eb1b3"><path d="M 533.734375 16.101562 L 708.121094 50.523438 L 672.390625 231.53125 L 498.007812 197.109375 Z M 533.734375 16.101562 " clip-rule="nonzero"/></clipPath><clipPath id="a4159ce653"><path d="M 533.734375 16.101562 L 708.121094 50.523438 L 672.390625 231.53125 L 498.007812 197.109375 Z M 533.734375 16.101562 " clip-rule="nonzero"/></clipPath><clipPath id="7ae3d22f79"><path d="M 615 284 L 707 284 L 707 433 L 615 433 Z M 615 284 " clip-rule="nonzero"/></clipPath><clipPath id="5367a23016"><path d="M 642.246094 276.761719 L 708.148438 291.359375 L 673.929688 445.863281 L 608.027344 431.265625 Z M 642.246094 276.761719 " clip-rule="nonzero"/></clipPath><clipPath id="9886a66c5b"><path d="M 642.246094 276.761719 L 708.148438 291.359375 L 673.929688 445.863281 L 608.027344 431.265625 Z M 642.246094 276.761719 " clip-rule="nonzero"/></clipPath><clipPath id="e90d974b6e"><path d="M 231 1 L 290 1 L 290 169 L 231 169 Z M 231 1 " clip-rule="nonzero"/></clipPath><clipPath id="b6b6ce6294"><path d="M 202.753906 28.894531 L 263.6875 -0.148438 L 331.777344 142.703125 L 270.84375 171.746094 Z M 202.753906 28.894531 " clip-rule="nonzero"/></clipPath><clipPath id="b6f7127418"><path d="M 202.753906 28.894531 L 263.6875 -0.148438 L 331.777344 142.703125 L 270.84375 171.746094 Z M 202.753906 28.894531 " clip-rule="nonzero"/></clipPath><clipPath id="6b93da331b"><path d="M 164 112 L 259 112 L 259 265 L 164 265 Z M 164 112 " clip-rule="nonzero"/></clipPath><clipPath id="3a21acafa3"><path d="M 141.644531 158.484375 L 189.375 110.753906 L 301.273438 222.652344 L 253.542969 270.382812 Z M 141.644531 158.484375 " clip-rule="nonzero"/></clipPath><clipPath id="1c96490f74"><path d="M 141.644531 158.484375 L 189.375 110.753906 L 301.273438 222.652344 L 253.542969 270.382812 Z M 141.644531 158.484375 " clip-rule="nonzero"/></clipPath><clipPath id="060fa661fd"><path d="M 102.183594 350.285156 L 252.933594 350.285156 L 252.933594 473.285156 L 102.183594 473.285156 Z M 102.183594 350.285156 " clip-rule="nonzero"/></clipPath><clipPath id="41da1622ab"><path d="M 206.804688 422.558594 L 253.304688 422.558594 L 253.304688 469.058594 L 206.804688 469.058594 Z M 206.804688 422.558594 " clip-rule="nonzero"/></clipPath><clipPath id="6ac5405d2e"><path d="M 634.792969 208.695312 L 681.292969 208.695312 L 681.292969 255.195312 L 634.792969 255.195312 Z M 634.792969 208.695312 " clip-rule="nonzero"/></clipPath></defs><g clip-path="url(#572efe0863)"><g clip-path="url(#5665cc8b04)"><path fill="#001231" d="M 285.832031 468.765625 L 563.082031 468.765625 L 563.082031 809.917969 L 285.832031 809.917969 Z M 285.832031 468.765625 " fill-opacity="1" fill-rule="nonzero"/></g></g><g clip-path="url(#2ca7cbf5c8)"><g clip-path="url(#91c60ef1d3)"><path fill="#001231" d="M 305.972656 231.800781 L 542.941406 231.800781 L 542.941406 468.765625 L 305.972656 468.765625 Z M 305.972656 231.800781 " fill-opacity="1" fill-rule="nonzero"/></g></g><g clip-path="url(#07032108a5)"><g clip-path="url(#184a0ad3df)"><path fill="#ffffff" d="M 390.449219 317.582031 L 390.449219 350.285156 L 374.097656 350.285156 L 374.097656 317.582031 Z M 390.449219 317.582031 " fill-opacity="1" fill-rule="nonzero"/></g></g><g clip-path="url(#8056318f7a)"><g clip-path="url(#de54ec8ed7)"><path fill="#ffffff" d="M 472.070312 317.582031 L 472.070312 350.285156 L 455.71875 350.285156 L 455.71875 317.582031 Z M 472.070312 317.582031 " fill-opacity="1" fill-rule="nonzero"/></g></g><g clip-path="url(#a366db0b8f)"><g clip-path="url(#f07b741a2c)"><g clip-path="url(#db66d5cc67)"><path fill="#001231" d="M 530.320312 127.726562 L 516.496094 197.769531 C 516.148438 199.527344 517.292969 201.242188 519.054688 201.589844 L 594.226562 216.425781 L 606.746094 153.003906 L 642.058594 159.976562 L 629.539062 223.398438 L 650.542969 227.542969 C 652.308594 227.890625 654.015625 226.742188 654.363281 224.984375 L 668.1875 154.941406 L 612.835938 72.742188 Z M 578.609375 178.152344 L 546.746094 171.859375 L 552.578125 142.316406 L 584.441406 148.605469 Z M 578.609375 178.152344 " fill-opacity="1" fill-rule="nonzero"/></g></g></g><g clip-path="url(#edcf003bc0)"><g clip-path="url(#475d3eb1b3)"><g clip-path="url(#a4159ce653)"><path fill="#001231" d="M 687.125 132.511719 L 620.589844 33.257812 L 573.765625 64.640625 L 577.164062 47.433594 C 577.957031 43.414062 575.339844 39.507812 571.320312 38.714844 C 567.300781 37.921875 563.394531 40.539062 562.597656 44.558594 L 556.328125 76.332031 L 521.332031 99.785156 C 517.074219 102.640625 515.933594 108.40625 518.789062 112.660156 C 520.214844 114.789062 522.371094 116.136719 524.703125 116.597656 C 527.03125 117.058594 529.535156 116.628906 531.664062 115.207031 L 615.511719 59.011719 L 671.710938 142.847656 C 674.566406 147.105469 680.328125 148.242188 684.582031 145.386719 C 688.839844 142.53125 689.976562 136.765625 687.125 132.511719 Z M 687.125 132.511719 " fill-opacity="1" fill-rule="nonzero"/></g></g></g><g clip-path="url(#7ae3d22f79)"><g clip-path="url(#5367a23016)"><g clip-path="url(#9886a66c5b)"><path fill="#e1c340" d="M 694.464844 351.519531 L 663.75 344.71875 L 706.496094 291.605469 L 672.828125 284.148438 L 624.980469 354.71875 L 653.332031 361 L 615.191406 432.480469 Z M 694.464844 351.519531 " fill-opacity="1" fill-rule="nonzero"/></g></g></g><g clip-path="url(#e90d974b6e)"><g clip-path="url(#b6b6ce6294)"><g clip-path="url(#b6f7127418)"><path fill="#e1c340" d="M 289.917969 55.699219 L 261.519531 69.234375 L 262.535156 1.0625 L 231.410156 15.902344 L 237.109375 100.972656 L 263.324219 88.476562 L 277.242188 168.292969 Z M 289.917969 55.699219 " fill-opacity="1" fill-rule="nonzero"/></g></g></g><g clip-path="url(#6b93da331b)"><g clip-path="url(#3a21acafa3)"><g clip-path="url(#1c96490f74)"><path fill="#e1c340" d="M 232.753906 154.628906 L 210.507812 176.875 L 188.695312 112.28125 L 164.3125 136.664062 L 198.105469 214.945312 L 218.636719 194.410156 L 258.417969 264.992188 Z M 232.753906 154.628906 " fill-opacity="1" fill-rule="nonzero"/></g></g></g><path fill="#007236" d="M 165.636719 434.320312 C 165.746094 434.746094 166.117188 435.023438 166.527344 435.023438 C 166.601562 435.023438 166.675781 435.023438 166.75 434.988281 C 167.4375 434.820312 168.269531 434.597656 169.164062 434.394531 C 170.40625 437.550781 172.261719 439.796875 174.734375 441.039062 C 176.328125 441.859375 177.945312 442.117188 179.335938 442.117188 C 180.804688 442.117188 182.011719 441.820312 182.699219 441.542969 C 184.332031 440.855469 186.171875 439.238281 186.578125 437.179688 C 186.671875 436.675781 186.355469 436.195312 185.855469 436.082031 C 185.335938 435.972656 184.871094 436.304688 184.757812 436.808594 C 184.5 438.125 183.164062 439.3125 181.972656 439.816406 C 181.140625 440.167969 178.335938 440.78125 175.570312 439.371094 C 173.582031 438.367188 172.039062 436.527344 170.980469 433.929688 C 174.808594 433.019531 179.410156 431.980469 181.957031 431.515625 C 182.457031 431.421875 182.792969 430.941406 182.699219 430.4375 C 182.605469 429.9375 182.121094 429.601562 181.621094 429.695312 C 178.964844 430.179688 174.269531 431.238281 170.371094 432.183594 C 170.257812 431.792969 170.128906 431.386719 170.035156 430.957031 C 169.941406 430.53125 169.886719 430.160156 169.832031 429.769531 C 173.636719 428.785156 178.039062 427.671875 180.542969 427.207031 C 181.046875 427.117188 181.378906 426.632812 181.289062 426.132812 C 181.195312 425.628906 180.710938 425.296875 180.210938 425.386719 C 177.683594 425.851562 173.394531 426.929688 169.625 427.914062 C 169.460938 423.828125 171.167969 421.324219 173.136719 420.320312 C 173.339844 420.207031 173.527344 420.117188 173.710938 420.003906 C 175.085938 419.261719 176.070312 418.703125 179.820312 420.46875 C 180.285156 420.691406 180.839844 420.488281 181.0625 420.023438 C 181.289062 419.558594 181.082031 419 180.617188 418.777344 C 176.347656 416.773438 174.75 417.3125 172.839844 418.371094 L 172.300781 418.648438 C 169.71875 419.96875 167.4375 423.179688 167.789062 428.378906 C 167.621094 428.414062 167.453125 428.472656 167.289062 428.507812 L 164.742188 429.175781 C 164.242188 429.304688 163.945312 429.808594 164.074219 430.308594 C 164.1875 430.734375 164.558594 431.015625 164.964844 431.015625 C 165.039062 431.015625 165.113281 431.015625 165.1875 430.976562 L 167.769531 430.308594 C 167.863281 430.289062 167.957031 430.253906 168.046875 430.234375 C 168.121094 430.625 168.140625 430.976562 168.253906 431.386719 C 168.347656 431.8125 168.476562 432.222656 168.585938 432.613281 C 167.75 432.816406 166.972656 433.019531 166.320312 433.1875 C 165.800781 433.316406 165.503906 433.835938 165.636719 434.320312 Z M 165.636719 434.320312 " fill-opacity="1" fill-rule="nonzero"/><path fill="#007236" d="M 135.054688 420.320312 C 135.164062 420.320312 135.257812 420.300781 135.371094 420.265625 C 145.710938 416.570312 154.421875 413.320312 162.851562 410.183594 C 177.148438 404.851562 190.683594 399.820312 208.839844 393.859375 C 210.269531 395.363281 212.574219 396.441406 214.652344 396.441406 C 215.246094 396.441406 215.824219 396.347656 216.359375 396.144531 L 217.121094 398.074219 C 218.050781 400.453125 218.609375 401.902344 219.667969 404.257812 C 219.816406 404.613281 220.167969 404.816406 220.519531 404.816406 C 220.648438 404.816406 220.78125 404.796875 220.890625 404.742188 C 221.355469 404.539062 221.578125 403.980469 221.355469 403.515625 C 220.335938 401.195312 219.777344 399.765625 218.847656 397.40625 L 217.847656 394.863281 C 217.808594 394.769531 217.753906 394.679688 217.679688 394.605469 C 217.640625 394.53125 217.625 394.4375 217.566406 394.363281 C 217.269531 393.953125 216.695312 393.84375 216.269531 394.140625 C 214.617188 395.308594 211.253906 394.046875 209.84375 392.226562 C 209.84375 392.226562 209.824219 392.207031 209.824219 392.207031 C 209.789062 392.152344 209.734375 392.117188 209.675781 392.078125 C 209.640625 392.042969 209.601562 392.003906 209.566406 391.984375 C 209.507812 391.949219 209.433594 391.949219 209.378906 391.929688 C 209.324219 391.910156 209.285156 391.894531 209.230469 391.894531 C 209.175781 391.894531 209.121094 391.894531 209.0625 391.910156 C 208.988281 391.910156 208.933594 391.910156 208.859375 391.929688 C 208.859375 391.929688 208.839844 391.929688 208.839844 391.929688 C 190.347656 397.984375 176.683594 403.070312 162.199219 408.472656 C 153.769531 411.613281 145.0625 414.859375 134.738281 418.539062 C 134.257812 418.703125 133.996094 419.242188 134.183594 419.726562 C 134.332031 420.078125 134.683594 420.320312 135.054688 420.320312 Z M 135.054688 420.320312 " fill-opacity="1" fill-rule="nonzero"/><path fill="#007236" d="M 193.171875 425.238281 C 193.261719 425.667969 193.652344 425.945312 194.082031 425.945312 C 194.15625 425.945312 194.230469 425.945312 194.304688 425.925781 C 194.804688 425.816406 195.101562 425.3125 194.988281 424.8125 C 194.453125 422.546875 190.441406 415.546875 186.894531 413.652344 C 180.210938 410.050781 172.410156 410.164062 166.023438 413.914062 C 162.179688 416.179688 159.171875 419.96875 157.761719 424.3125 C 157.613281 424.792969 157.875 425.3125 158.355469 425.480469 C 158.839844 425.628906 159.359375 425.371094 159.527344 424.886719 C 160.789062 420.96875 163.5 417.554688 166.953125 415.511719 C 172.765625 412.09375 179.894531 412 186.003906 415.289062 C 188.898438 416.828125 192.707031 423.273438 193.171875 425.238281 Z M 193.171875 425.238281 " fill-opacity="1" fill-rule="nonzero"/><path fill="#007236" d="M 157.058594 427.429688 C 156.796875 429.378906 156.890625 431.3125 157.316406 433.148438 C 157.410156 433.578125 157.800781 433.875 158.226562 433.875 C 158.300781 433.875 158.375 433.875 158.449219 433.855469 C 158.949219 433.742188 159.265625 433.242188 159.136719 432.742188 C 158.746094 431.125 158.671875 429.417969 158.894531 427.691406 C 158.96875 427.191406 158.597656 426.726562 158.097656 426.652344 C 157.578125 426.558594 157.132812 426.910156 157.058594 427.429688 Z M 157.058594 427.429688 " fill-opacity="1" fill-rule="nonzero"/><path fill="#007236" d="M 232.589844 400.082031 C 232.367188 399.617188 231.808594 399.414062 231.34375 399.652344 C 230.878906 399.878906 230.695312 400.433594 230.917969 400.898438 L 232.199219 403.570312 C 232.367188 403.90625 232.683594 404.09375 233.035156 404.09375 C 233.164062 404.09375 233.3125 404.054688 233.441406 404 C 233.90625 403.777344 234.09375 403.21875 233.871094 402.753906 Z M 232.589844 400.082031 " fill-opacity="1" fill-rule="nonzero"/><path fill="#007236" d="M 138.304688 402.511719 C 138.507812 402.511719 138.695312 402.457031 138.859375 402.328125 L 141.570312 400.25 C 141.980469 399.933594 142.054688 399.355469 141.738281 398.949219 C 141.421875 398.539062 140.847656 398.464844 140.4375 398.78125 L 137.726562 400.859375 C 137.320312 401.175781 137.246094 401.753906 137.5625 402.160156 C 137.746094 402.402344 138.023438 402.511719 138.304688 402.511719 Z M 138.304688 402.511719 " fill-opacity="1" fill-rule="nonzero"/><path fill="#007236" d="M 182.011719 384.261719 C 180.988281 384.613281 180.042969 385.132812 179.1875 385.820312 C 178.800781 386.136719 178.726562 386.730469 179.058594 387.121094 C 179.246094 387.34375 179.503906 387.472656 179.785156 387.472656 C 179.988281 387.472656 180.191406 387.398438 180.359375 387.269531 C 181.027344 386.730469 181.789062 386.304688 182.605469 386.027344 C 183.089844 385.859375 183.347656 385.339844 183.179688 384.835938 C 183.03125 384.355469 182.492188 384.09375 182.011719 384.261719 Z M 182.011719 384.261719 " fill-opacity="1" fill-rule="nonzero"/><path fill="#007236" d="M 129.355469 422.417969 C 129.464844 422.417969 129.59375 422.398438 129.707031 422.34375 L 131.84375 421.472656 C 132.304688 421.265625 132.546875 420.726562 132.34375 420.265625 C 132.140625 419.78125 131.601562 419.558594 131.136719 419.761719 L 129 420.636719 C 128.539062 420.839844 128.296875 421.378906 128.5 421.84375 C 128.628906 422.195312 128.984375 422.417969 129.355469 422.417969 Z M 129.355469 422.417969 " fill-opacity="1" fill-rule="nonzero"/><path fill="#007236" d="M 220.835938 407.359375 L 221.449219 408.621094 C 221.617188 408.957031 221.929688 409.140625 222.285156 409.140625 C 222.414062 409.140625 222.5625 409.105469 222.691406 409.050781 C 223.15625 408.828125 223.34375 408.269531 223.121094 407.804688 L 222.507812 406.542969 C 222.285156 406.078125 221.726562 405.894531 221.261719 406.117188 C 220.816406 406.339844 220.613281 406.894531 220.835938 407.359375 Z M 220.835938 407.359375 " fill-opacity="1" fill-rule="nonzero"/><g clip-path="url(#060fa661fd)"><path fill="#007236" d="M 252.492188 407.601562 C 252.53125 407.546875 252.550781 407.507812 252.566406 407.433594 C 252.585938 407.378906 252.585938 407.324219 252.585938 407.265625 C 252.585938 407.210938 252.605469 407.15625 252.605469 407.082031 C 252.605469 407.027344 252.566406 406.96875 252.550781 406.894531 C 252.53125 406.839844 252.53125 406.785156 252.511719 406.746094 L 225.886719 353.476562 C 225.886719 353.457031 225.867188 353.457031 225.867188 353.457031 C 225.867188 353.441406 225.867188 353.441406 225.847656 353.421875 C 225.8125 353.367188 225.773438 353.347656 225.738281 353.292969 C 225.699219 353.253906 225.664062 353.199219 225.625 353.160156 C 225.570312 353.125 225.515625 353.105469 225.460938 353.070312 C 225.402344 353.050781 225.367188 353.011719 225.308594 352.996094 C 225.253906 352.976562 225.199219 352.976562 225.125 352.976562 C 225.070312 352.976562 225.011719 352.957031 224.957031 352.957031 C 224.902344 352.957031 224.828125 352.996094 224.773438 353.011719 C 224.714844 353.03125 224.679688 353.03125 224.625 353.050781 C 224.605469 353.050781 224.605469 353.070312 224.605469 353.070312 C 224.585938 353.070312 224.585938 353.070312 224.566406 353.085938 L 204.089844 365.082031 L 193.113281 350.671875 C 193.113281 350.671875 193.097656 350.671875 193.097656 350.65625 C 193.097656 350.636719 193.097656 350.636719 193.078125 350.636719 C 193.039062 350.597656 192.984375 350.5625 192.949219 350.542969 C 192.890625 350.507812 192.855469 350.449219 192.800781 350.433594 C 192.742188 350.414062 192.6875 350.394531 192.632812 350.375 C 192.578125 350.359375 192.519531 350.339844 192.445312 350.320312 C 192.390625 350.320312 192.335938 350.320312 192.277344 350.339844 C 192.222656 350.339844 192.167969 350.339844 192.09375 350.359375 C 192.039062 350.375 191.980469 350.414062 191.925781 350.433594 C 191.871094 350.449219 191.832031 350.46875 191.777344 350.507812 C 191.777344 350.507812 191.777344 350.523438 191.757812 350.523438 C 191.757812 350.523438 191.742188 350.523438 191.742188 350.542969 L 103.082031 424.238281 C 103.027344 424.273438 102.988281 424.347656 102.953125 424.40625 C 102.914062 424.441406 102.878906 424.480469 102.859375 424.535156 C 102.820312 424.589844 102.820312 424.664062 102.804688 424.71875 C 102.785156 424.777344 102.765625 424.8125 102.765625 424.867188 C 102.765625 424.925781 102.785156 425 102.785156 425.054688 C 102.785156 425.109375 102.785156 425.164062 102.804688 425.222656 C 102.820312 425.277344 102.859375 425.332031 102.894531 425.386719 C 102.933594 425.445312 102.933594 425.5 102.96875 425.539062 L 127.851562 454.707031 L 135.3125 472.550781 C 135.371094 472.660156 135.445312 472.734375 135.539062 472.808594 C 135.574219 472.847656 135.59375 472.921875 135.648438 472.941406 C 135.796875 473.050781 135.984375 473.105469 136.167969 473.105469 C 136.261719 473.105469 136.355469 473.089844 136.445312 473.070312 L 150.484375 468.539062 C 150.503906 468.59375 150.503906 468.667969 150.539062 468.726562 L 152.0625 471.472656 C 152.117188 471.566406 152.210938 471.640625 152.285156 471.714844 C 152.320312 471.75 152.359375 471.808594 152.394531 471.824219 C 152.542969 471.898438 152.695312 471.957031 152.859375 471.957031 C 153.007812 471.957031 153.15625 471.917969 153.289062 471.84375 L 174.601562 460.777344 C 174.640625 460.757812 174.660156 460.742188 174.675781 460.722656 L 240.589844 439.425781 C 240.589844 439.425781 240.589844 439.425781 240.609375 439.425781 C 240.609375 439.425781 240.628906 439.425781 240.628906 439.425781 C 240.683594 439.40625 240.738281 439.351562 240.796875 439.332031 C 240.832031 439.296875 240.886719 439.277344 240.925781 439.257812 C 240.980469 439.222656 241 439.164062 241.054688 439.109375 C 241.09375 439.074219 241.128906 439.035156 241.148438 438.980469 C 241.1875 438.925781 241.1875 438.867188 241.203125 438.792969 C 241.222656 438.738281 241.242188 438.683594 241.242188 438.628906 C 241.242188 438.554688 241.222656 438.496094 241.222656 438.421875 C 241.222656 438.367188 241.222656 438.332031 241.203125 438.273438 C 241.203125 438.273438 241.203125 438.273438 241.203125 438.253906 C 241.203125 438.253906 241.203125 438.238281 241.203125 438.238281 C 240.386719 435.953125 239.160156 432.703125 237.714844 428.917969 L 249.019531 423.160156 C 249.078125 423.140625 249.113281 423.085938 249.152344 423.050781 C 249.207031 423.011719 249.261719 422.976562 249.300781 422.9375 C 249.335938 422.902344 249.355469 422.84375 249.390625 422.789062 C 249.429688 422.734375 249.464844 422.679688 249.484375 422.621094 C 249.503906 422.566406 249.503906 422.511719 249.503906 422.453125 C 249.503906 422.398438 249.523438 422.324219 249.523438 422.269531 C 249.523438 422.214844 249.484375 422.15625 249.484375 422.101562 C 249.464844 422.046875 249.464844 421.992188 249.449219 421.933594 L 244.714844 412.09375 L 252.140625 407.972656 C 252.195312 407.953125 252.214844 407.898438 252.269531 407.859375 C 252.324219 407.824219 252.382812 407.785156 252.417969 407.75 C 252.4375 407.710938 252.457031 407.65625 252.492188 407.601562 Z M 104.992188 425.074219 L 192.242188 352.585938 L 202.492188 366.046875 L 199.277344 367.921875 C 198.683594 367.105469 198.128906 366.417969 197.609375 365.789062 C 197.015625 365.082031 196.457031 364.414062 195.84375 363.539062 C 195.789062 363.429688 195.714844 363.316406 195.601562 363.226562 C 195.269531 362.964844 194.824219 362.964844 194.507812 363.1875 C 194.507812 363.1875 194.488281 363.1875 194.488281 363.1875 C 194.46875 363.207031 194.46875 363.226562 194.453125 363.242188 C 194.414062 363.28125 194.359375 363.300781 194.320312 363.355469 C 194.117188 363.558594 192.242188 364.894531 190.328125 364.730469 C 189.269531 364.636719 188.398438 364.078125 187.691406 363.039062 C 187.394531 362.613281 186.820312 362.5 186.394531 362.796875 C 186.1875 362.945312 186.058594 363.152344 186.023438 363.375 C 179.078125 368.851562 170.148438 375.648438 162.253906 381.644531 C 153.566406 388.253906 146.066406 393.953125 142.945312 396.570312 C 142.554688 396.90625 142.5 397.480469 142.835938 397.871094 C 143.019531 398.09375 143.28125 398.207031 143.539062 398.207031 C 143.742188 398.207031 143.964844 398.132812 144.132812 397.984375 C 147.214844 395.402344 154.699219 389.703125 163.371094 383.109375 C 171.1875 377.167969 180.007812 370.464844 186.933594 365.007812 C 187.914062 365.992188 189.105469 366.546875 190.460938 366.585938 C 190.535156 366.585938 190.589844 366.585938 190.664062 366.585938 C 192.351562 366.585938 193.875 365.863281 194.824219 365.25 C 195.285156 365.878906 195.75 366.4375 196.195312 366.957031 C 196.699219 367.550781 197.179688 368.144531 197.683594 368.832031 L 122.355469 412.984375 C 122.296875 413.023438 122.261719 413.058594 122.222656 413.097656 C 122.1875 413.132812 122.132812 413.171875 122.09375 413.207031 C 122.058594 413.265625 122.039062 413.320312 122 413.375 C 121.984375 413.429688 121.945312 413.46875 121.925781 413.523438 C 121.910156 413.578125 121.910156 413.636719 121.910156 413.691406 C 121.910156 413.746094 121.890625 413.800781 121.890625 413.875 C 121.890625 413.933594 121.925781 414.007812 121.945312 414.0625 C 121.964844 414.117188 121.964844 414.175781 121.984375 414.210938 L 123.914062 417.886719 C 120.460938 419.167969 117.398438 420.300781 114.890625 421.25 C 114.890625 421.25 114.890625 421.25 114.871094 421.25 C 114.871094 421.25 114.851562 421.25 114.851562 421.25 C 114.796875 421.265625 114.761719 421.324219 114.703125 421.339844 C 114.648438 421.378906 114.59375 421.398438 114.554688 421.433594 C 114.519531 421.472656 114.480469 421.527344 114.445312 421.582031 C 114.40625 421.636719 114.371094 421.675781 114.351562 421.730469 C 114.332031 421.785156 114.316406 421.84375 114.316406 421.917969 C 114.296875 421.972656 114.277344 422.027344 114.277344 422.082031 C 114.277344 422.140625 114.296875 422.214844 114.316406 422.269531 C 114.332031 422.324219 114.316406 422.378906 114.332031 422.417969 C 114.332031 422.417969 114.332031 422.417969 114.332031 422.4375 C 114.332031 422.4375 114.332031 422.453125 114.332031 422.453125 L 125.472656 449.097656 Z M 125.304688 419.445312 C 125.453125 419.445312 125.605469 419.410156 125.734375 419.335938 C 125.84375 419.28125 125.9375 419.1875 126.03125 419.09375 C 126.273438 419 126.496094 418.925781 126.734375 418.835938 C 139.84375 413.96875 158.894531 406.894531 177.015625 399.988281 C 177.148438 399.988281 177.296875 399.953125 177.40625 399.894531 C 177.554688 399.820312 177.722656 399.730469 177.871094 399.652344 C 193.46875 393.710938 208.285156 387.917969 217.976562 383.761719 C 219.460938 387.585938 221.914062 393.804688 224.699219 400.824219 C 229.914062 413.988281 236.339844 430.234375 239.144531 437.957031 L 136.707031 471.082031 L 116.46875 422.640625 C 118.9375 421.710938 121.890625 420.636719 125.175781 419.410156 C 125.230469 419.429688 125.269531 419.445312 125.304688 419.445312 Z M 215.898438 379.710938 C 216.285156 380.457031 216.9375 381.199219 217.734375 381.847656 C 211.253906 384.632812 202.359375 388.199219 192.410156 392.058594 C 193.96875 391.226562 195.546875 390.390625 197.105469 389.554688 C 203.699219 386.0625 210.476562 382.460938 215.898438 379.710938 Z M 153.269531 469.820312 L 152.265625 468 L 164.148438 464.15625 Z M 235.875 424.164062 C 235.875 424.109375 235.894531 424.070312 235.894531 424.015625 C 235.875 423.03125 236.300781 422.027344 237.082031 421.25 C 237.863281 420.46875 238.808594 419.984375 239.847656 420.058594 C 239.847656 420.058594 239.847656 420.058594 239.867188 420.058594 C 239.996094 420.117188 240.128906 420.171875 240.277344 420.171875 C 240.40625 420.171875 240.535156 420.152344 240.664062 420.078125 C 241.128906 419.855469 241.335938 419.316406 241.113281 418.851562 L 235.113281 405.855469 C 234.890625 405.390625 234.351562 405.1875 233.886719 405.410156 C 233.425781 405.632812 233.21875 406.171875 233.441406 406.636719 L 238.828125 418.316406 C 237.714844 418.539062 236.65625 419.09375 235.800781 419.949219 C 235.394531 420.355469 235.058594 420.839844 234.796875 421.339844 C 232.125 414.507812 229.136719 406.933594 226.441406 400.175781 C 223.65625 393.117188 221.1875 386.898438 219.722656 383.074219 C 220.59375 383.464844 221.503906 383.667969 222.394531 383.667969 C 222.523438 383.667969 222.636719 383.628906 222.765625 383.628906 C 224.011719 386.453125 225.476562 389.460938 226.925781 392.394531 C 227.667969 393.898438 228.394531 395.382812 229.0625 396.777344 C 229.226562 397.109375 229.542969 397.296875 229.898438 397.296875 C 230.027344 397.296875 230.175781 397.257812 230.285156 397.203125 C 230.75 396.980469 230.9375 396.421875 230.730469 395.960938 C 230.0625 394.566406 229.339844 393.082031 228.597656 391.558594 C 227.054688 388.441406 225.476562 385.226562 224.214844 382.273438 C 224.195312 382.257812 224.179688 382.238281 224.160156 382.199219 C 224.121094 382.144531 224.085938 382.089844 224.046875 382.035156 C 224.011719 381.996094 223.992188 381.960938 223.9375 381.921875 C 223.878906 381.886719 223.824219 381.847656 223.75 381.8125 C 223.714844 381.792969 223.675781 381.773438 223.621094 381.753906 C 223.566406 381.738281 223.492188 381.71875 223.417969 381.71875 C 223.359375 381.71875 223.304688 381.71875 223.230469 381.71875 C 223.195312 381.71875 223.175781 381.71875 223.136719 381.71875 C 221.503906 382.035156 220.054688 381.253906 219.332031 380.753906 C 218.144531 379.9375 217.402344 378.859375 217.308594 378.28125 C 217.308594 378.226562 217.269531 378.191406 217.253906 378.152344 C 217.234375 378.117188 217.234375 378.058594 217.214844 378.023438 C 217.214844 378.003906 217.195312 378.003906 217.195312 377.984375 C 217.160156 377.910156 217.105469 377.855469 217.046875 377.800781 C 217.011719 377.761719 216.992188 377.746094 216.972656 377.707031 C 216.917969 377.652344 216.84375 377.632812 216.769531 377.597656 C 216.730469 377.578125 216.695312 377.558594 216.65625 377.539062 C 216.601562 377.523438 216.527344 377.523438 216.472656 377.523438 C 216.417969 377.523438 216.34375 377.503906 216.285156 377.523438 C 216.269531 377.523438 216.25 377.523438 216.25 377.523438 C 216.195312 377.523438 216.15625 377.558594 216.121094 377.578125 C 216.082031 377.597656 216.027344 377.597656 215.988281 377.613281 C 210.402344 380.417969 203.214844 384.242188 196.269531 387.9375 C 189.550781 391.523438 182.625 395.214844 177.128906 397.984375 C 165.261719 402.511719 152.972656 407.117188 142.164062 411.128906 L 222.765625 370.800781 L 247.386719 421.933594 L 237.046875 427.191406 C 236.671875 426.207031 236.285156 425.203125 235.875 424.164062 Z M 241.632812 405.6875 C 241.871094 404.890625 242.914062 404.796875 243.359375 404.816406 C 243.359375 404.816406 243.359375 404.816406 243.375 404.816406 C 243.46875 404.816406 243.5625 404.796875 243.65625 404.777344 C 243.671875 404.777344 243.691406 404.761719 243.710938 404.761719 C 243.746094 404.742188 243.765625 404.722656 243.804688 404.722656 C 243.878906 404.6875 243.972656 404.628906 244.027344 404.574219 C 244.046875 404.554688 244.046875 404.539062 244.0625 404.519531 C 244.121094 404.445312 244.195312 404.390625 244.230469 404.296875 C 244.25 404.257812 244.25 404.203125 244.269531 404.167969 C 244.285156 404.09375 244.304688 404.035156 244.324219 403.960938 C 244.324219 403.941406 244.324219 403.941406 244.324219 403.925781 C 244.324219 403.867188 244.304688 403.832031 244.304688 403.777344 C 244.304688 403.71875 244.304688 403.683594 244.285156 403.628906 C 244.285156 403.609375 244.269531 403.570312 244.269531 403.554688 C 243.839844 402.253906 240.589844 395.273438 239.980469 394.214844 C 239.71875 393.769531 239.144531 393.621094 238.699219 393.878906 C 238.253906 394.140625 238.101562 394.714844 238.363281 395.160156 C 238.808594 395.921875 241.113281 400.84375 242.09375 403.125 C 241.574219 403.257812 241.113281 403.496094 240.738281 403.8125 L 224.046875 369.148438 C 224.03125 369.09375 223.972656 369.054688 223.9375 369.019531 C 223.898438 368.960938 223.863281 368.90625 223.824219 368.871094 C 223.789062 368.832031 223.730469 368.8125 223.675781 368.777344 C 223.621094 368.738281 223.566406 368.703125 223.507812 368.683594 C 223.472656 368.664062 223.417969 368.664062 223.359375 368.664062 C 223.324219 368.664062 223.285156 368.648438 223.25 368.648438 C 223.769531 368.480469 224.253906 368.292969 224.734375 368.089844 C 226.515625 371.671875 227.964844 374.625 229.414062 377.558594 C 230.972656 380.714844 232.535156 383.871094 234.5 387.84375 C 234.667969 388.179688 234.984375 388.367188 235.335938 388.367188 C 235.46875 388.367188 235.617188 388.328125 235.746094 388.273438 C 236.210938 388.050781 236.394531 387.492188 236.171875 387.027344 C 234.203125 383.054688 232.644531 379.898438 231.085938 376.742188 C 229.542969 373.585938 227.984375 370.449219 226.015625 366.492188 C 225.996094 366.4375 225.941406 366.398438 225.921875 366.363281 C 225.886719 366.308594 225.847656 366.269531 225.8125 366.214844 C 225.773438 366.175781 225.71875 366.160156 225.664062 366.121094 C 225.609375 366.085938 225.570312 366.046875 225.496094 366.027344 C 225.441406 366.011719 225.386719 366.011719 225.328125 365.992188 C 225.273438 365.972656 225.199219 365.972656 225.144531 365.972656 C 225.085938 365.972656 225.03125 365.992188 224.976562 366.011719 C 224.921875 366.027344 224.863281 366.027344 224.808594 366.046875 C 223.398438 366.660156 221.800781 367.308594 220.261719 367.292969 C 218.996094 367.253906 217.511719 366.511719 217.234375 365.230469 C 217.214844 365.191406 217.195312 365.15625 217.179688 365.101562 C 217.160156 365.0625 217.160156 365.007812 217.140625 364.96875 C 217.140625 364.953125 217.121094 364.953125 217.105469 364.933594 C 217.066406 364.878906 217.03125 364.839844 216.992188 364.804688 C 216.9375 364.746094 216.898438 364.710938 216.84375 364.671875 C 216.808594 364.65625 216.769531 364.636719 216.714844 364.617188 C 216.65625 364.582031 216.582031 364.5625 216.507812 364.542969 C 216.453125 364.523438 216.398438 364.542969 216.359375 364.523438 C 216.285156 364.523438 216.230469 364.523438 216.15625 364.523438 C 216.136719 364.523438 216.121094 364.523438 216.121094 364.523438 C 216.0625 364.542969 216.027344 364.5625 215.988281 364.582031 C 215.953125 364.597656 215.898438 364.597656 215.859375 364.617188 L 214.152344 365.582031 C 202.398438 372.265625 193.132812 377.539062 184.816406 382.496094 C 184.371094 382.757812 184.238281 383.332031 184.5 383.777344 C 184.667969 384.078125 184.980469 384.226562 185.296875 384.226562 C 185.464844 384.226562 185.632812 384.1875 185.78125 384.09375 C 194.082031 379.136719 203.34375 373.863281 215.078125 367.199219 L 215.878906 366.734375 C 216.769531 368.238281 218.570312 369.074219 220.1875 369.128906 C 220.261719 369.128906 220.351562 369.128906 220.425781 369.128906 C 221.171875 369.128906 221.894531 369 222.601562 368.8125 L 142.648438 408.808594 L 176.980469 388.921875 C 177.425781 388.664062 177.574219 388.105469 177.3125 387.660156 C 177.054688 387.214844 176.496094 387.066406 176.050781 387.324219 L 140.585938 407.859375 C 140.140625 408.121094 139.992188 408.679688 140.253906 409.125 C 140.421875 409.421875 140.734375 409.585938 141.050781 409.585938 C 141.070312 409.585938 141.105469 409.570312 141.125 409.570312 L 127.460938 416.402344 C 127.3125 416.476562 127.21875 416.585938 127.125 416.71875 C 126.792969 416.847656 126.4375 416.976562 126.105469 417.089844 C 125.976562 417.144531 125.84375 417.183594 125.714844 417.238281 L 124.082031 414.117188 L 224.660156 355.203125 L 250.46875 406.800781 L 243.914062 410.441406 Z M 241.632812 405.6875 " fill-opacity="1" fill-rule="nonzero"/></g><path fill="#007236" d="M 176.773438 449.84375 C 177.257812 449.84375 177.742188 449.824219 178.203125 449.769531 C 191.925781 448.46875 196.121094 436.066406 195.601562 428.0625 C 195.566406 427.5625 195.15625 427.171875 194.617188 427.191406 C 194.097656 427.226562 193.726562 427.671875 193.746094 428.171875 C 194.230469 435.472656 190.421875 446.742188 178.019531 447.910156 C 172.988281 448.375 164.074219 445.535156 160.269531 435.710938 C 160.082031 435.230469 159.542969 435.007812 159.0625 435.171875 C 158.578125 435.359375 158.339844 435.898438 158.523438 436.378906 C 162.179688 445.8125 170.238281 449.84375 176.773438 449.84375 Z M 176.773438 449.84375 " fill-opacity="1" fill-rule="nonzero"/><path fill="#007236" d="M 122.316406 429.15625 C 122.242188 429.363281 122.207031 429.585938 122.28125 429.808594 C 126.496094 442.769531 130.265625 452.3125 135.3125 462.710938 C 135.351562 462.765625 135.40625 462.800781 135.445312 462.839844 C 135.445312 462.859375 135.445312 462.859375 135.445312 462.875 C 135.667969 463.339844 136.207031 463.542969 136.667969 463.320312 C 137.765625 462.820312 139.527344 462.839844 140.828125 463.394531 C 141.40625 463.636719 142.164062 464.101562 142.445312 464.863281 C 142.519531 465.085938 142.6875 465.234375 142.890625 465.34375 C 143.058594 465.496094 143.261719 465.605469 143.484375 465.605469 C 143.578125 465.605469 143.667969 465.585938 143.761719 465.570312 L 228.746094 438.792969 C 228.765625 438.792969 228.78125 438.777344 228.800781 438.777344 C 228.855469 438.757812 228.914062 438.71875 228.96875 438.683594 C 229.023438 438.644531 229.0625 438.628906 229.117188 438.589844 C 229.152344 438.554688 229.191406 438.496094 229.226562 438.460938 C 229.265625 438.40625 229.300781 438.367188 229.320312 438.3125 C 229.339844 438.253906 229.359375 438.199219 229.375 438.144531 C 229.394531 438.089844 229.414062 438.015625 229.414062 437.957031 C 229.414062 437.941406 229.433594 437.921875 229.433594 437.902344 C 229.414062 436.917969 229.839844 435.917969 230.621094 435.136719 C 231.402344 434.355469 232.347656 433.910156 233.386719 433.949219 C 233.386719 433.949219 233.386719 433.949219 233.40625 433.949219 C 233.535156 433.949219 233.664062 433.929688 233.777344 433.875 C 233.964844 433.78125 234.09375 433.632812 234.1875 433.464844 C 234.203125 433.429688 234.222656 433.410156 234.242188 433.371094 C 234.277344 433.296875 234.277344 433.222656 234.296875 433.148438 C 234.296875 433.113281 234.316406 433.074219 234.335938 433.019531 C 234.335938 433.019531 234.335938 433 234.335938 433 C 234.335938 432.945312 234.316406 432.890625 234.296875 432.816406 C 234.277344 432.761719 234.277344 432.6875 234.261719 432.628906 C 234.261719 432.628906 234.261719 432.613281 234.261719 432.613281 L 224.476562 410.777344 C 224.269531 410.3125 223.714844 410.089844 223.25 410.3125 C 222.785156 410.515625 222.5625 411.074219 222.785156 411.539062 L 232.03125 432.257812 C 231.027344 432.519531 230.0625 433.039062 229.285156 433.816406 C 228.335938 434.765625 227.761719 435.972656 227.613281 437.214844 L 143.875 463.601562 C 143.390625 462.800781 142.609375 462.152344 141.570312 461.707031 C 140.066406 461.074219 138.246094 460.980469 136.742188 461.390625 C 131.859375 451.273438 128.164062 441.894531 124.042969 429.230469 C 124.023438 429.15625 123.96875 429.101562 123.933594 429.046875 C 125.289062 427.652344 126.289062 425.964844 126.828125 424.109375 C 126.976562 423.605469 126.699219 423.105469 126.199219 422.957031 C 125.695312 422.808594 125.195312 423.085938 125.046875 423.585938 C 124.5625 425.238281 123.652344 426.761719 122.410156 427.96875 C 122.074219 428.285156 122.058594 428.785156 122.316406 429.15625 Z M 122.316406 429.15625 " fill-opacity="1" fill-rule="nonzero"/><path fill="#007236" d="M 237.566406 389.644531 C 237.34375 389.183594 236.785156 388.996094 236.320312 389.21875 C 235.855469 389.441406 235.671875 390 235.894531 390.464844 L 236.878906 392.429688 C 237.046875 392.765625 237.359375 392.953125 237.714844 392.953125 C 237.84375 392.953125 237.992188 392.914062 238.121094 392.859375 C 238.585938 392.636719 238.773438 392.078125 238.550781 391.613281 Z M 237.566406 389.644531 " fill-opacity="1" fill-rule="nonzero"/><g clip-path="url(#41da1622ab)"><path fill="#e21e2c" d="M 253.304688 445.808594 C 253.304688 458.648438 242.894531 469.058594 230.054688 469.058594 C 217.210938 469.058594 206.804688 458.648438 206.804688 445.808594 C 206.804688 432.96875 217.210938 422.558594 230.054688 422.558594 C 242.894531 422.558594 253.304688 432.96875 253.304688 445.808594 " fill-opacity="1" fill-rule="nonzero"/></g><path fill="#ffffff" d="M 241.171875 438.476562 L 237.386719 434.691406 L 230.054688 442.023438 L 222.71875 434.691406 L 218.933594 438.476562 L 226.269531 445.808594 L 218.933594 453.140625 L 222.71875 456.925781 L 230.054688 449.59375 L 237.386719 456.925781 L 241.171875 453.140625 L 233.835938 445.808594 L 241.171875 438.476562 " fill-opacity="1" fill-rule="nonzero"/><g clip-path="url(#6ac5405d2e)"><path fill="#e21e2c" d="M 681.292969 231.945312 C 681.292969 244.785156 670.882812 255.195312 658.042969 255.195312 C 645.203125 255.195312 634.792969 244.785156 634.792969 231.945312 C 634.792969 219.105469 645.203125 208.695312 658.042969 208.695312 C 670.882812 208.695312 681.292969 219.105469 681.292969 231.945312 " fill-opacity="1" fill-rule="nonzero"/></g><path fill="#ffffff" d="M 669.160156 224.613281 L 665.375 220.828125 L 658.042969 228.160156 L 650.710938 220.828125 L 646.925781 224.613281 L 654.257812 231.945312 L 646.925781 239.277344 L 650.710938 243.0625 L 658.042969 235.730469 L 665.375 243.0625 L 669.160156 239.277344 L 661.828125 231.945312 L 669.160156 224.613281 " fill-opacity="1" fill-rule="nonzero"/></svg>