<svg width="374" height="269" viewBox="0 0 374 269" fill="none" xmlns="http://www.w3.org/2000/svg">
<g clip-path="url(#clip0_220_993)">
<path opacity="0.5" d="M332.92 39.02C331.5 33.39 326.35 29.56 320.61 29.5C318.34 29.47 316.08 29.5 313.81 29.5H54.17C53.45 29.5 52.73 29.48 52.02 29.53C45.38 29.97 40.3 35.57 40.21 42.16C40.17 45.08 40.21 48.01 40.21 50.93V219.59C40.21 222.95 39.77 226.92 40.81 230.16C42.51 235.43 47.45 238.87 52.93 238.93C53.65 238.93 54.36 238.93 55.08 238.93H320.69C327.64 238.82 333.22 233.26 333.32 226.29C333.33 225.49 333.32 224.69 333.32 223.89V43.67C333.32 42.1 333.32 40.57 332.93 39.02H332.92Z" fill="#34B9CA"/>
<mask id="mask0_220_993" style="mask-type:luminance" maskUnits="userSpaceOnUse" x="40" y="29" width="294" height="210">
<path d="M332.92 39.02C331.5 33.39 326.35 29.56 320.61 29.5C318.34 29.47 316.08 29.5 313.81 29.5H54.17C53.45 29.5 52.73 29.48 52.02 29.53C45.38 29.97 40.3 35.57 40.21 42.16C40.17 45.08 40.21 48.01 40.21 50.93V219.59C40.21 222.95 39.77 226.92 40.81 230.16C42.51 235.43 47.45 238.87 52.93 238.93C53.65 238.93 54.36 238.93 55.08 238.93H320.69C327.64 238.82 333.22 233.26 333.32 226.29C333.33 225.49 333.32 224.69 333.32 223.89V43.67C333.32 42.1 333.32 40.57 332.93 39.02H332.92Z" fill="white"/>
</mask>
<g mask="url(#mask0_220_993)">
<path d="M377.2 163.57L347.67 154.1L334.49 155.2L303.13 148.03V145.3L274.47 147.81L347.67 166.1L377.2 163.57Z" fill="#967E72"/>
<path d="M274.47 147.81V180.8V201.18V204.68L334.49 226.04L347.67 230.73V166.1L274.47 147.81Z" fill="#A48A7B"/>
<path d="M274.47 201.18L234.57 207.06L307.06 230.73L334.49 226.04L274.47 204.68V201.18Z" fill="#967E72"/>
<path d="M212.21 116.22C212.26 120.88 212.49 125.54 212.9 130.18C212.97 131 213.08 131.9 213.66 132.49C214.6 130.82 215.57 129.16 216.57 127.53C217.16 129.7 217.64 131.9 218.02 134.11C219.31 132.09 220.3 129.88 220.94 127.57C221.79 129.19 222.49 130.88 223.06 132.62C224 127.96 224.94 123.31 225.88 118.65L227.81 118.38L212.5 116.18L212.22 116.22H212.21Z" fill="#634E42"/>
<path d="M187.1 178L197.52 181.79L227.43 176.96L197.52 181.79L219.62 189.81L247.17 184.07L216.35 172.96L187.1 178Z" fill="#967E72"/>
<path d="M186.62 178.09C185.7 185.84 189.16 193.5 188.94 201.3C189.25 199.49 189.62 197.68 190.03 195.89C190.51 196.43 190.98 196.96 191.46 197.49C191.75 195.68 192.04 193.88 192.33 192.07C192.62 193.56 193.24 194.98 194.14 196.19C196.21 191.84 194.62 186.52 196.24 181.98L197.52 181.77L187.1 177.99L186.61 178.07L186.62 178.09Z" fill="#634E42"/>
<path d="M244 113.54V112.23L212.49 116.18L227.81 118.38L253.19 114.78L244 113.54Z" fill="#634E42"/>
<path d="M253.19 114.78L227.81 118.38L246.84 121.12L279.48 118.33L253.19 114.78Z" fill="#967E72"/>
<path d="M216.35 172.96L194.66 165.15L162.38 169.03L187.1 178L216.35 172.96Z" fill="#967E72"/>
<path d="M216.35 172.96L247.17 184.06L246.84 121.11L227.8 118.37L225.87 118.64C224.93 123.3 223.99 127.95 223.05 132.61C222.49 130.87 221.78 129.18 220.93 127.56C220.29 129.87 219.31 132.08 218.01 134.1C217.63 131.88 217.15 129.69 216.56 127.52C215.56 129.16 214.59 130.81 213.65 132.48C213.07 131.89 212.96 131 212.89 130.17C212.48 125.53 212.24 120.87 212.2 116.21L212.48 116.17L194.64 113.61V165.14L216.33 172.95L216.35 172.96Z" fill="#A48A7B"/>
<path d="M244 112.23V108.58L194.66 113.62L212.49 116.18L244 112.23Z" fill="#967E72"/>
<path d="M197.52 181.79L196.24 182C194.62 186.54 196.21 191.86 194.14 196.21C193.24 194.99 192.62 193.57 192.33 192.09C192.04 193.9 191.75 195.7 191.46 197.51C190.98 196.98 190.51 196.44 190.03 195.91C189.61 197.7 189.24 199.5 188.94 201.32C189.16 193.52 185.7 185.86 186.62 178.11L187.11 178.03L162.39 169.05V238.78H219.64V189.83L197.54 181.81L197.52 181.79Z" fill="#A48A7B"/>
<path d="M274.47 201.18V180.8L247.17 184.07L219.62 189.81V238.76H234.57V207.06L274.47 201.18Z" fill="#7B6A58"/>
<path d="M244 113.54L253.19 114.78L279.48 118.32L283.87 118.91L283.42 70.0801L244 72.7701V113.53V113.54ZM257.16 85.7201C257.19 87.2901 257.24 88.9301 257.98 90.3301C258.8 88.5601 259.62 86.7801 260.44 85.0101C260.4 86.8101 260.61 88.6201 261.04 90.3701C261.85 89.3301 262.47 88.1401 262.85 86.8801C263.36 87.5301 263.76 88.2701 264.02 89.0601C264.24 88.5801 264.27 88.0301 264.3 87.5101C264.27 88.0401 264.25 88.5801 264.02 89.0601C263.76 88.2701 263.36 87.5301 262.85 86.8801C262.47 88.1401 261.85 89.3301 261.04 90.3701C260.6 88.6201 260.4 86.8101 260.44 85.0101C259.62 86.7801 258.8 88.5601 257.98 90.3301C257.25 88.9401 257.2 87.3001 257.16 85.7201Z" fill="#A48A7B"/>
<path d="M423.83 219.46L347.67 230.73L334.49 226.04L307.06 230.73L307.32 238.76H444.43V203.25C437.54 203.25 430.67 203.21 423.83 203.08V219.46Z" fill="#7B6A58"/>
<path d="M283.42 70.0901L283.87 118.92L303.13 117.17V98.3101L343 96.1101V73.2301L283.42 70.0901Z" fill="#7B6A58"/>
<path d="M234.57 207.06V238.76H307.32L307.06 230.73L234.57 207.06Z" fill="#A48A7B"/>
<path d="M246.84 121.12L247.17 184.07L274.47 180.8V147.81L303.13 145.3V117.17L283.87 118.92L279.48 118.33L246.84 121.12Z" fill="#7B6A58"/>
<path d="M303.13 148.03L334.49 155.2V101.99L323.39 100.69C323.21 106.82 322.8 112.95 322.14 119.05C321.03 117.51 320.52 115.54 320.75 113.65C320.01 114.53 319.45 115.55 319.11 116.64C318.36 115.62 318.09 114.26 318.38 113.03C317.61 113.37 317.47 114.39 317.42 115.23C317.36 116.07 317.12 117.1 316.31 117.32C315.64 111.87 315.46 106.36 315.79 100.88C315.47 106.36 315.64 111.87 316.31 117.32C317.13 117.11 317.37 116.08 317.42 115.23C317.48 114.39 317.61 113.37 318.38 113.03C318.09 114.26 318.36 115.62 319.11 116.64C319.45 115.55 320.02 114.53 320.75 113.65C320.52 115.54 321.03 117.51 322.14 119.05C322.8 112.95 323.22 106.82 323.39 100.69L303.13 98.3101V148.03Z" fill="#A48A7B"/>
<path d="M323.4 100.63C323.4 100.63 323.4 100.67 323.4 100.69L334.5 101.99L404.38 98.31L372.13 94.5L303.15 98.31L323.41 100.69C323.41 100.69 323.41 100.65 323.41 100.63H323.4Z" fill="#967E72"/>
<path d="M187.1 178L197.52 181.79L225.51 176.27L213.58 171.97L187.1 178Z" fill="#634E42"/>
<path d="M311.07 71.55V85L313.21 83.24L314.86 87.63L316.62 82.37L318.81 88.73L321.44 83.46V72.09L311.07 71.55Z" fill="#634E42"/>
<path d="M207.18 105.82C212.96 105.34 217.61 110.89 219.09 116.49C220.57 122.09 234.35 124.65 235.57 130.32C236.93 136.63 240.49 142.52 240.48 148.98C240.47 157.26 234.69 164.24 231.45 171.85C227.86 180.27 227.35 189.76 228.51 198.84C229.67 207.92 235.08 244.6 237.82 253.34L192.2 258.16C198.87 248.22 198.85 207.77 196.74 195.98C195.32 188.06 191.88 180.59 190.72 172.64C189.61 165.02 190.66 157.11 193.63 150.01C195.14 146.42 197.11 143.05 199.08 139.69C206.4 127.21 213.73 114.73 221.05 102.25L207.18 105.83V105.82Z" fill="#F4A39B"/>
<path d="M232.21 92.3801L197 203.54C195.94 206.83 187.36 210.65 184.12 209.44L51.54 162.46C48.5 161.32 46.9 157.99 47.91 154.9L77.57 47.9601C78.55 44.9501 87.07 42.9801 90.15 43.7201L224.88 79.3001C230.66 80.7001 234.03 86.7201 232.21 92.3801Z" fill="#B2B2B2"/>
<path d="M227.44 89.87L190.85 205.3C189.79 208.59 186.2 210.33 182.96 209.12L45.39 164.22C42.35 163.08 40.75 159.75 41.76 156.66L76.81 49.49C77.79 46.48 80.92 44.74 84 45.49L223.1 82.12C226.52 82.95 228.52 86.51 227.44 89.86V89.87Z" fill="#DADADA"/>
<path d="M220.81 92.9001L187.11 199.37C186.13 202.42 182.79 204.04 179.79 202.91L52.05 161.69C49.23 160.63 47.74 157.54 48.68 154.68L81.2 55.2701C82.11 52.4801 85.01 50.8601 87.87 51.5601L216.8 85.7301C219.97 86.5001 221.83 89.8001 220.83 92.9101L220.81 92.9001Z" fill="#192441"/>
<path d="M197.26 204.45C196.91 172.82 179.55 165.75 192.08 151.28C196.17 146.56 199.25 141.04 201.93 135.4C205.95 126.94 204.6 116.55 209.19 108.38C210.57 105.92 212.82 103.56 215.64 103.51C218.43 103.45 220.84 105.78 221.73 108.44C222.62 111.1 222.29 113.98 221.79 116.74C220.63 123.13 218.6 129.36 217.67 135.79C216.74 142.22 217.02 149.1 220.22 154.76L197.27 204.46L197.26 204.45Z" fill="#F4A39B"/>
<path d="M63.96 138.13C60.98 134.03 57.47 130.31 53.56 127.08C52.72 126.39 51.8 125.69 50.72 125.55C48.7 125.29 47 126.99 45.05 127.57C41.71 128.57 37.51 126.33 34.9 128.64C33.86 129.57 33.41 131.01 32.45 132.02C30.38 134.21 26.79 133.73 24.01 134.9C19.93 136.62 18.35 141.45 17.12 145.69C13.62 157.76 9.27 169.58 4.12 181.04C1.97 185.81 -0.360001 190.6 -3.89 194.45C-10.59 201.78 -20.65 204.83 -30.19 207.57L-23.29 258.13C-7.23 252.45 17.9 217.42 33.49 210.56C37.8 208.66 42.11 206.65 45.87 203.82C52.87 198.54 57.49 190.79 61.93 183.24C65.99 176.35 74.89 165.96 78.95 159.07C80.61 156.26 80.74 148.9 74.63 150.02C64.15 152.79 62.22 173.16 51.75 176C58.23 159.82 72.56 147.8 88.29 140.3C90.47 139.26 92.76 138.24 94.36 136.43C95.96 134.61 96.64 131.73 95.21 129.77C93.1 126.87 88.59 128.01 85.3 129.44C78.29 132.48 71.29 135.52 64.28 138.56" fill="#F4A39B"/>
</g>
<g filter="url(#filter0_d_220_993)">
<path d="M273.49 15.26H23.57C16.3903 15.26 10.57 21.0803 10.57 28.26V193.82C10.57 201 16.3903 206.82 23.57 206.82H273.49C280.67 206.82 286.49 201 286.49 193.82V28.26C286.49 21.0803 280.67 15.26 273.49 15.26Z" fill="#F8F7F7"/>
<path d="M23.57 15.26H40.25C47.42 15.26 53.25 21.09 53.25 28.26V206.82H23.57C16.4 206.82 10.57 200.99 10.57 193.82V28.26C10.57 21.09 16.4 15.26 23.57 15.26Z" fill="white"/>
<path d="M23.06 15.26H278.08C282.72 15.26 286.49 19.03 286.49 23.67V32.08H23.06C18.42 32.08 14.65 28.31 14.65 23.67C14.65 19.03 18.42 15.26 23.06 15.26Z" fill="white"/>
<path d="M22.18 42.34C22.18 39.921 20.219 37.96 17.8 37.96C15.381 37.96 13.42 39.921 13.42 42.34V42.69C13.42 45.109 15.381 47.07 17.8 47.07C20.219 47.07 22.18 45.109 22.18 42.69V42.34Z" fill="#34B9CA"/>
<path d="M48.66 40.78H25.72C24.759 40.78 23.98 41.5591 23.98 42.52C23.98 43.481 24.759 44.26 25.72 44.26H48.66C49.621 44.26 50.4 43.481 50.4 42.52C50.4 41.5591 49.621 40.78 48.66 40.78Z" fill="#192441"/>
<path d="M22.18 54.79C22.18 52.371 20.219 50.41 17.8 50.41C15.381 50.41 13.42 52.371 13.42 54.79V55.14C13.42 57.559 15.381 59.52 17.8 59.52C20.219 59.52 22.18 57.559 22.18 55.14V54.79Z" fill="#34B9CA"/>
<path d="M48.66 53.23H25.72C24.759 53.23 23.98 54.009 23.98 54.97C23.98 55.931 24.759 56.71 25.72 56.71H48.66C49.621 56.71 50.4 55.931 50.4 54.97C50.4 54.009 49.621 53.23 48.66 53.23Z" fill="#192441"/>
<path d="M22.18 67.24C22.18 64.821 20.219 62.86 17.8 62.86C15.381 62.86 13.42 64.821 13.42 67.24V67.59C13.42 70.009 15.381 71.97 17.8 71.97C20.219 71.97 22.18 70.009 22.18 67.59V67.24Z" fill="#34B9CA"/>
<path d="M48.66 65.6801H25.72C24.759 65.6801 23.98 66.4591 23.98 67.4201C23.98 68.381 24.759 69.1601 25.72 69.1601H48.66C49.621 69.1601 50.4 68.381 50.4 67.4201C50.4 66.4591 49.621 65.6801 48.66 65.6801Z" fill="#192441"/>
<path d="M22.18 79.6901C22.18 77.2711 20.219 75.3101 17.8 75.3101C15.381 75.3101 13.42 77.2711 13.42 79.6901V80.0401C13.42 82.4591 15.381 84.4201 17.8 84.4201C20.219 84.4201 22.18 82.4591 22.18 80.0401V79.6901Z" fill="#34B9CA"/>
<path d="M48.66 78.13H25.72C24.759 78.13 23.98 78.909 23.98 79.87C23.98 80.831 24.759 81.61 25.72 81.61H48.66C49.621 81.61 50.4 80.831 50.4 79.87C50.4 78.909 49.621 78.13 48.66 78.13Z" fill="#192441"/>
<path d="M22.18 92.15C22.18 89.731 20.219 87.77 17.8 87.77C15.381 87.77 13.42 89.731 13.42 92.15V92.5C13.42 94.919 15.381 96.88 17.8 96.88C20.219 96.88 22.18 94.919 22.18 92.5V92.15Z" fill="#34B9CA"/>
<path d="M48.66 90.58H25.72C24.759 90.58 23.98 91.359 23.98 92.32C23.98 93.2809 24.759 94.06 25.72 94.06H48.66C49.621 94.06 50.4 93.2809 50.4 92.32C50.4 91.359 49.621 90.58 48.66 90.58Z" fill="#192441"/>
<path d="M281.66 23.49C281.66 21.071 279.699 19.11 277.28 19.11C274.861 19.11 272.9 21.071 272.9 23.49V23.84C272.9 26.259 274.861 28.22 277.28 28.22C279.699 28.22 281.66 26.259 281.66 23.84V23.49Z" fill="#34B9CA"/>
<path d="M269.69 23.49C269.69 21.071 267.729 19.11 265.31 19.11C262.891 19.11 260.93 21.071 260.93 23.49V23.84C260.93 26.259 262.891 28.22 265.31 28.22C267.729 28.22 269.69 26.259 269.69 23.84V23.49Z" fill="#34B9CA"/>
<path d="M257.72 23.49C257.72 21.071 255.759 19.11 253.34 19.11C250.921 19.11 248.96 21.071 248.96 23.49V23.84C248.96 26.259 250.921 28.22 253.34 28.22C255.759 28.22 257.72 26.259 257.72 23.84V23.49Z" fill="#ED6A4C"/>
<path d="M56.34 34.4601V32.0701H10.56V34.4601H56.34Z" fill="#F8F7F7"/>
<path d="M30.94 21.08C29.56 21.08 28.44 22.25 28.44 23.68C28.44 25.11 29.56 26.28 30.94 26.28C32.32 26.28 33.44 25.11 33.44 23.68C33.44 22.25 32.32 21.08 30.94 21.08ZM30.94 25.14C30.17 25.14 29.54 24.49 29.54 23.68C29.54 22.87 30.17 22.22 30.94 22.22C31.71 22.22 32.34 22.87 32.34 23.68C32.34 24.49 31.71 25.14 30.94 25.14Z" fill="#192441"/>
<path d="M36.26 21.08C34.88 21.08 33.76 22.25 33.76 23.68V27C33.76 27.32 34.01 27.57 34.31 27.57C34.61 27.57 34.86 27.31 34.86 27V25.84C35.26 26.12 35.75 26.28 36.26 26.28C37.64 26.28 38.76 25.11 38.76 23.68C38.76 22.25 37.64 21.08 36.26 21.08ZM36.26 25.14C35.61 25.14 35.05 24.68 34.9 24.03C34.87 23.92 34.86 23.8 34.86 23.68C34.86 22.88 35.49 22.22 36.26 22.22C37.03 22.22 37.66 22.87 37.66 23.68C37.66 24.49 37.03 25.14 36.26 25.14Z" fill="#192441"/>
<path d="M41.67 21.08C40.29 21.08 39.17 22.25 39.17 23.68V27C39.17 27.32 39.42 27.57 39.72 27.57C40.02 27.57 40.27 27.31 40.27 27V25.84C40.67 26.12 41.16 26.28 41.67 26.28C43.05 26.28 44.17 25.11 44.17 23.68C44.17 22.25 43.05 21.08 41.67 21.08ZM41.67 25.14C41.02 25.14 40.46 24.68 40.31 24.03C40.28 23.92 40.27 23.8 40.27 23.68C40.27 22.88 40.9 22.22 41.67 22.22C42.44 22.22 43.07 22.87 43.07 23.68C43.07 24.49 42.44 25.14 41.67 25.14Z" fill="#192441"/>
<path d="M47.58 21.65C47.58 21.33 47.33 21.08 47.03 21.08C45.65 21.08 44.53 22.25 44.53 23.68V25.71C44.53 26.03 44.78 26.28 45.08 26.28C45.38 26.28 45.63 26.02 45.63 25.71V23.68C45.63 22.88 46.26 22.22 47.03 22.22C47.33 22.22 47.58 21.96 47.58 21.65Z" fill="#192441"/>
<path d="M48.05 26.2901C48.4145 26.2901 48.71 25.9856 48.71 25.6101C48.71 25.2345 48.4145 24.9301 48.05 24.9301C47.6855 24.9301 47.39 25.2345 47.39 25.6101C47.39 25.9856 47.6855 26.2901 48.05 26.2901Z" fill="#ED6A4C"/>
<path d="M24.65 19.86C24.72 20.24 24.65 20.64 24.44 20.99C24.17 21.43 23.7 21.69 23.19 21.69C23.19 21.69 23.19 21.69 23.18 21.69C23.63 22.23 23.89 22.92 23.89 23.66C23.89 25.32 22.59 26.67 21 26.67C19.9 26.67 18.95 26.03 18.46 25.09V27.85C18.46 28 18.44 28.15 18.4 28.3C19.17 28.77 20.06 29.04 21.01 29.04C23.86 29.04 26.17 26.63 26.17 23.67C26.17 22.22 25.62 20.87 24.66 19.87L24.65 19.86Z" fill="#34B9CA"/>
<path d="M21 20.66C21.56 20.66 22.11 20.83 22.57 21.14C23.1 21.5 23.8 21.34 24.14 20.79C24.48 20.24 24.33 19.51 23.81 19.15C22.97 18.58 22 18.28 21 18.28C18.24 18.28 15.98 20.54 15.84 23.38V27.85C15.84 28.5 16.35 29.03 16.98 29.03C17.53 29.03 17.99 28.63 18.09 28.09C18.11 28.01 18.11 27.93 18.11 27.85V23.66C18.11 22 19.41 20.65 21 20.65V20.66Z" fill="#34B9CA"/>
<path d="M21 25.6C22.0328 25.6 22.87 24.7314 22.87 23.66C22.87 22.5885 22.0328 21.72 21 21.72C19.9672 21.72 19.13 22.5885 19.13 23.66C19.13 24.7314 19.9672 25.6 21 25.6Z" fill="#ED6A4C"/>
<path d="M271.58 36.25H67.98C62.413 36.25 57.9 40.763 57.9 46.33V153.4C57.9 158.967 62.413 163.48 67.98 163.48H271.58C277.147 163.48 281.66 158.967 281.66 153.4V46.33C281.66 40.763 277.147 36.25 271.58 36.25Z" fill="white"/>
</g>
<path d="M153.22 52.89H80.49C77.7507 52.89 75.53 55.1107 75.53 57.85V98.42C75.53 101.159 77.7507 103.38 80.49 103.38H153.22C155.959 103.38 158.18 101.159 158.18 98.42V57.85C158.18 55.1107 155.959 52.89 153.22 52.89Z" fill="#192441"/>
<path d="M171.38 66.53L263.29 66.53C263.699 66.53 264.03 66.1987 264.03 65.79V62.7C264.03 62.2913 263.699 61.96 263.29 61.96L171.38 61.96C170.971 61.96 170.64 62.2913 170.64 62.7V65.79C170.64 66.1987 170.971 66.53 171.38 66.53Z" fill="#192441"/>
<path d="M171.38 79.8101L263.29 79.8101C263.699 79.8101 264.03 79.4788 264.03 79.0701V75.9801C264.03 75.5714 263.699 75.2401 263.29 75.2401L171.38 75.2401C170.971 75.2401 170.64 75.5714 170.64 75.9801V79.0701C170.64 79.4788 170.971 79.8101 171.38 79.8101Z" fill="#192441"/>
<path d="M171.38 92.87H216.41C216.819 92.87 217.15 92.5387 217.15 92.13V89.04C217.15 88.6313 216.819 88.3 216.41 88.3H171.38C170.971 88.3 170.64 88.6313 170.64 89.04V92.13C170.64 92.5387 170.971 92.87 171.38 92.87Z" fill="#192441"/>
<path d="M103.75 91.17C103.75 91.17 103.75 91.19 103.75 91.21L110.14 91.96L150.41 89.84L131.82 87.65L92.07 89.84L103.75 91.21C103.75 91.21 103.75 91.19 103.75 91.17Z" fill="#967E72"/>
<mask id="mask1_220_993" style="mask-type:luminance" maskUnits="userSpaceOnUse" x="75" y="52" width="84" height="52">
<path d="M153.22 52.89H80.49C77.7507 52.89 75.53 55.1107 75.53 57.85V98.42C75.53 101.159 77.7507 103.38 80.49 103.38H153.22C155.959 103.38 158.18 101.159 158.18 98.42V57.85C158.18 55.1107 155.959 52.89 153.22 52.89Z" fill="white"/>
</mask>
<g mask="url(#mask1_220_993)">
<path d="M102.91 110.16L112.45 109.37L125.99 108.24C125.99 108.24 125.96 108.23 125.95 108.22C125.96 108.22 125.98 108.23 125.99 108.24L146.17 106.56L153.48 105.95V68.99L102.91 71.65V110.16Z" fill="#7B6A58"/>
<path d="M80.22 104.98L102.91 110.17V71.66L94.88 70.72C94.75 75.16 94.45 79.59 93.97 84.01C93.16 82.89 92.8 81.47 92.96 80.1C92.43 80.73 92.02 81.47 91.77 82.26C91.23 81.52 91.03 80.54 91.24 79.65C90.68 79.9 90.58 80.63 90.54 81.24C90.5 81.85 90.33 82.6 89.73 82.75C89.24 78.81 89.12 74.82 89.35 70.85C89.12 74.82 89.24 78.8 89.73 82.75C90.32 82.6 90.5 81.85 90.54 81.24C90.58 80.63 90.68 79.89 91.24 79.65C91.03 80.54 91.23 81.52 91.77 82.26C92.02 81.47 92.43 80.73 92.96 80.1C92.79 81.47 93.16 82.89 93.97 84.01C94.45 79.6 94.75 75.16 94.88 70.72L80.22 69V104.98Z" fill="#A48A7B"/>
<path d="M80.22 68.99L138.45 65.13L153.48 68.99L102.91 71.66L80.22 68.99Z" fill="#967E72"/>
<path d="M107.56 67.1801L120.64 70.6901L120.25 79.2901L121.92 77.4901L122.47 79.9301L124.23 77.3601L126.28 80.1801V77.2301L126.92 70.3901L116.85 66.5601L107.56 67.1801Z" fill="#634E42"/>
</g>
<path d="M260.93 147.9C266.028 147.9 270.16 143.768 270.16 138.67C270.16 133.572 266.028 129.44 260.93 129.44C255.832 129.44 251.7 133.572 251.7 138.67C251.7 143.768 255.832 147.9 260.93 147.9Z" fill="#ED6A4C"/>
<path d="M265 134.6L256.86 142.74" stroke="white" stroke-width="2.13" stroke-miterlimit="10" stroke-linecap="round"/>
<path d="M265 142.74L256.86 134.6" stroke="white" stroke-width="2.13" stroke-miterlimit="10" stroke-linecap="round"/>
<path d="M84.55 147.69C89.5316 147.69 93.57 143.652 93.57 138.67C93.57 133.688 89.5316 129.65 84.55 129.65C79.5684 129.65 75.53 133.688 75.53 138.67C75.53 143.652 79.5684 147.69 84.55 147.69Z" fill="#34B9CA"/>
<path d="M82.8 143.32C82.8 143.32 82.77 143.32 82.75 143.32C82.47 143.31 82.2 143.18 82.01 142.96L78.84 139.28C78.47 138.85 78.51 138.19 78.95 137.82C79.38 137.45 80.04 137.49 80.41 137.93L82.87 140.78L88.75 135.16C89.16 134.76 89.82 134.78 90.22 135.19C90.62 135.6 90.6 136.26 90.19 136.66L83.52 143.04C83.33 143.23 83.07 143.33 82.8 143.33V143.32Z" fill="white"/>
<path d="M161.95 216.67C165.97 218.44 175.84 227.16 188.31 238.92H251.84C227.55 223.77 200.14 205.65 196.57 201.74C193.3 198.17 191.14 193.74 189.15 189.32C184.38 178.71 180.35 167.76 177.11 156.59C175.97 152.66 174.5 148.19 170.73 146.6C168.16 145.51 164.83 145.96 162.91 143.93C162.02 142.99 161.61 141.66 160.65 140.8C158.24 138.66 154.35 140.73 151.25 139.81C149.45 139.27 147.87 137.69 146 137.94C145 138.07 144.15 138.72 143.37 139.36C139.75 142.35 136.51 145.79 133.74 149.59L133.43 150C126.94 147.18 120.45 144.37 113.97 141.55C110.92 140.23 106.75 139.17 104.8 141.86C103.48 143.67 104.11 146.34 105.59 148.02C107.07 149.7 109.19 150.64 111.21 151.61C125.78 158.55 139.04 169.68 145.05 184.67C135.36 182.03 133.58 163.18 123.87 160.61C118.21 159.58 118.33 166.39 119.87 168.99C123.63 175.37 131.87 184.99 135.63 191.37C139.75 198.36 144.03 205.54 150.5 210.43C153.98 213.06 157.97 214.92 161.96 216.67H161.95Z" fill="#F4A39B"/>
</g>
<defs>
<filter id="filter0_d_220_993" x="-1.44006" y="3.26001" width="299.93" height="215.56" filterUnits="userSpaceOnUse" color-interpolation-filters="sRGB">
<feFlood flood-opacity="0" result="BackgroundImageFix"/>
<feColorMatrix in="SourceAlpha" type="matrix" values="0 0 0 0 0 0 0 0 0 0 0 0 0 0 0 0 0 0 127 0" result="hardAlpha"/>
<feOffset/>
<feGaussianBlur stdDeviation="6"/>
<feColorMatrix type="matrix" values="0 0 0 0 0 0 0 0 0 0 0 0 0 0 0 0 0 0 0.4 0"/>
<feBlend mode="normal" in2="BackgroundImageFix" result="effect1_dropShadow_220_993"/>
<feBlend mode="normal" in="SourceGraphic" in2="effect1_dropShadow_220_993" result="shape"/>
</filter>
<clipPath id="clip0_220_993">
<rect width="373.51" height="268.42" fill="white"/>
</clipPath>
</defs>
</svg>
