<svg width="374" height="269" viewBox="0 0 374 269" fill="none" xmlns="http://www.w3.org/2000/svg">
<g clip-path="url(#clip0_220_933)">
<path opacity="0.5" d="M332.92 39.02C331.5 33.39 326.35 29.56 320.61 29.5C318.34 29.47 316.08 29.5 313.81 29.5H54.17C53.45 29.5 52.73 29.48 52.02 29.53C45.38 29.97 40.3 35.57 40.21 42.16C40.17 45.08 40.21 48.01 40.21 50.93V219.59C40.21 222.95 39.77 226.92 40.81 230.16C42.51 235.43 47.45 238.87 52.93 238.93C53.65 238.93 54.36 238.93 55.08 238.93H320.69C327.64 238.82 333.22 233.26 333.32 226.29C333.33 225.49 333.32 224.69 333.32 223.89V43.67C333.32 42.1 333.32 40.57 332.93 39.02H332.92Z" fill="#34B9CA"/>
<mask id="mask0_220_933" style="mask-type:luminance" maskUnits="userSpaceOnUse" x="40" y="29" width="294" height="210">
<path d="M332.92 39.02C331.5 33.39 326.35 29.56 320.61 29.5C318.34 29.47 316.08 29.5 313.81 29.5H54.17C53.45 29.5 52.73 29.48 52.02 29.53C45.38 29.97 40.3 35.57 40.21 42.16C40.17 45.08 40.21 48.01 40.21 50.93V219.59C40.21 222.95 39.77 226.92 40.81 230.16C42.51 235.43 47.45 238.87 52.93 238.93C53.65 238.93 54.36 238.93 55.08 238.93H320.69C327.64 238.82 333.22 233.26 333.32 226.29C333.33 225.49 333.32 224.69 333.32 223.89V43.67C333.32 42.1 333.32 40.57 332.93 39.02H332.92Z" fill="white"/>
</mask>
<g mask="url(#mask0_220_933)">
<path d="M377.2 163.57L347.67 154.1L334.49 155.2L303.13 148.03V145.3L274.47 147.81L347.67 166.1L377.2 163.57Z" fill="#967E72"/>
<path d="M274.47 147.81V180.8V201.18V204.68L334.49 226.04L347.67 230.73V166.1L274.47 147.81Z" fill="#A48A7B"/>
<path d="M274.47 201.18L234.57 207.06L307.06 230.73L334.49 226.04L274.47 204.68V201.18Z" fill="#967E72"/>
<path d="M212.21 116.22C212.26 120.88 212.49 125.54 212.9 130.18C212.97 131 213.08 131.9 213.66 132.49C214.6 130.82 215.57 129.16 216.57 127.53C217.16 129.7 217.64 131.9 218.02 134.11C219.31 132.09 220.3 129.88 220.94 127.57C221.79 129.19 222.49 130.88 223.06 132.62C224 127.96 224.94 123.31 225.88 118.65L227.81 118.38L212.5 116.18L212.22 116.22H212.21Z" fill="#634E42"/>
<path d="M187.1 178L197.52 181.79L227.43 176.96L197.52 181.79L219.62 189.81L247.17 184.07L216.35 172.96L187.1 178Z" fill="#967E72"/>
<path d="M186.62 178.09C185.7 185.84 189.16 193.5 188.94 201.3C189.25 199.49 189.62 197.68 190.03 195.89C190.51 196.43 190.98 196.96 191.46 197.49C191.75 195.68 192.04 193.88 192.33 192.07C192.62 193.56 193.24 194.98 194.14 196.19C196.21 191.84 194.62 186.52 196.24 181.98L197.52 181.77L187.1 177.99L186.61 178.07L186.62 178.09Z" fill="#634E42"/>
<path d="M244 113.54V112.23L212.49 116.18L227.81 118.38L253.19 114.78L244 113.54Z" fill="#634E42"/>
<path d="M253.19 114.78L227.81 118.38L246.84 121.12L279.48 118.33L253.19 114.78Z" fill="#967E72"/>
<path d="M216.35 172.96L194.66 165.15L162.38 169.03L187.1 178L216.35 172.96Z" fill="#967E72"/>
<path d="M216.35 172.96L247.17 184.06L246.84 121.11L227.8 118.37L225.87 118.64C224.93 123.3 223.99 127.95 223.05 132.61C222.49 130.87 221.78 129.18 220.93 127.56C220.29 129.87 219.31 132.08 218.01 134.1C217.63 131.88 217.15 129.69 216.56 127.52C215.56 129.16 214.59 130.81 213.65 132.48C213.07 131.89 212.96 131 212.89 130.17C212.48 125.53 212.24 120.87 212.2 116.21L212.48 116.17L194.64 113.61V165.14L216.33 172.95L216.35 172.96Z" fill="#A48A7B"/>
<path d="M244 112.23V108.58L194.66 113.62L212.49 116.18L244 112.23Z" fill="#967E72"/>
<path d="M197.52 181.79L196.24 182C194.62 186.54 196.21 191.86 194.14 196.21C193.24 194.99 192.62 193.57 192.33 192.09C192.04 193.9 191.75 195.7 191.46 197.51C190.98 196.98 190.51 196.44 190.03 195.91C189.61 197.7 189.24 199.5 188.94 201.32C189.16 193.52 185.7 185.86 186.62 178.11L187.11 178.03L162.39 169.05V238.78H219.64V189.83L197.54 181.81L197.52 181.79Z" fill="#A48A7B"/>
<path d="M274.47 201.18V180.8L247.17 184.07L219.62 189.81V238.76H234.57V207.06L274.47 201.18Z" fill="#7B6A58"/>
<path d="M244 113.54L253.19 114.78L279.48 118.32L283.87 118.91L283.42 70.0801L244 72.7701V113.53V113.54ZM257.16 85.7201C257.19 87.2901 257.24 88.9301 257.98 90.3301C258.8 88.5601 259.62 86.7801 260.44 85.0101C260.4 86.8101 260.61 88.6201 261.04 90.3701C261.85 89.3301 262.47 88.1401 262.85 86.8801C263.36 87.5301 263.76 88.2701 264.02 89.0601C264.24 88.5801 264.27 88.0301 264.3 87.5101C264.27 88.0401 264.25 88.5801 264.02 89.0601C263.76 88.2701 263.36 87.5301 262.85 86.8801C262.47 88.1401 261.85 89.3301 261.04 90.3701C260.6 88.6201 260.4 86.8101 260.44 85.0101C259.62 86.7801 258.8 88.5601 257.98 90.3301C257.25 88.9401 257.2 87.3001 257.16 85.7201Z" fill="#A48A7B"/>
<path d="M423.83 219.46L347.67 230.73L334.49 226.04L307.06 230.73L307.32 238.76H444.43V203.25C437.54 203.25 430.67 203.21 423.83 203.08V219.46Z" fill="#7B6A58"/>
<path d="M283.42 70.0901L283.87 118.92L303.13 117.17V98.3101L343 96.1101V73.2301L283.42 70.0901Z" fill="#7B6A58"/>
<path d="M234.57 207.06V238.76H307.32L307.06 230.73L234.57 207.06Z" fill="#A48A7B"/>
<path d="M246.84 121.12L247.17 184.07L274.47 180.8V147.81L303.13 145.3V117.17L283.87 118.92L279.48 118.33L246.84 121.12Z" fill="#7B6A58"/>
<path d="M303.13 148.03L334.49 155.2V101.99L323.39 100.69C323.21 106.82 322.8 112.95 322.14 119.05C321.03 117.51 320.52 115.54 320.75 113.65C320.01 114.53 319.45 115.55 319.11 116.64C318.36 115.62 318.09 114.26 318.38 113.03C317.61 113.37 317.47 114.39 317.42 115.23C317.36 116.07 317.12 117.1 316.31 117.32C315.64 111.87 315.46 106.36 315.79 100.88C315.47 106.36 315.64 111.87 316.31 117.32C317.13 117.11 317.37 116.08 317.42 115.23C317.48 114.39 317.61 113.37 318.38 113.03C318.09 114.26 318.36 115.62 319.11 116.64C319.45 115.55 320.02 114.53 320.75 113.65C320.52 115.54 321.03 117.51 322.14 119.05C322.8 112.95 323.22 106.82 323.39 100.69L303.13 98.3101V148.03Z" fill="#A48A7B"/>
<path d="M323.4 100.63C323.4 100.63 323.4 100.67 323.4 100.69L334.5 101.99L404.38 98.31L372.13 94.5L303.15 98.31L323.41 100.69C323.41 100.69 323.41 100.65 323.41 100.63H323.4Z" fill="#967E72"/>
<path d="M187.1 178L197.52 181.79L225.51 176.27L213.58 171.97L187.1 178Z" fill="#634E42"/>
<path d="M311.07 71.55V85L313.21 83.24L314.86 87.63L316.62 82.37L318.81 88.73L321.44 83.46V72.09L311.07 71.55Z" fill="#634E42"/>
<path d="M207.18 105.82C212.96 105.34 217.61 110.89 219.09 116.49C220.57 122.09 234.35 124.65 235.57 130.32C236.93 136.63 240.49 142.52 240.48 148.98C240.47 157.26 234.69 164.24 231.45 171.85C227.86 180.27 227.35 189.76 228.51 198.84C229.67 207.92 235.08 244.6 237.82 253.34L192.2 258.16C198.87 248.22 198.85 207.77 196.74 195.98C195.32 188.06 191.88 180.59 190.72 172.64C189.61 165.02 190.66 157.11 193.63 150.01C195.14 146.42 197.11 143.05 199.08 139.69C206.4 127.21 213.73 114.73 221.05 102.25L207.18 105.83V105.82Z" fill="#F4A39B"/>
<path d="M232.21 92.3801L197 203.54C195.94 206.83 187.36 210.65 184.12 209.44L51.5399 162.46C48.4999 161.32 46.8999 157.99 47.9099 154.9L77.5699 47.9601C78.5499 44.9501 87.0699 42.9801 90.1499 43.7201L224.88 79.3001C230.66 80.7001 234.03 86.7201 232.21 92.3801Z" fill="#B2B2B2"/>
<path d="M227.44 89.87L190.85 205.3C189.79 208.59 186.2 210.33 182.96 209.12L45.3899 164.22C42.3499 163.08 40.7499 159.75 41.7599 156.66L76.8099 49.49C77.7899 46.48 80.9199 44.74 83.9999 45.49L223.1 82.12C226.52 82.95 228.52 86.51 227.44 89.86V89.87Z" fill="#DADADA"/>
<path d="M220.81 92.9001L187.11 199.37C186.13 202.42 182.79 204.04 179.79 202.91L52.0499 161.69C49.2299 160.63 47.7399 157.54 48.6799 154.68L81.1999 55.2701C82.1099 52.4801 85.0099 50.8601 87.8699 51.5601L216.8 85.7301C219.97 86.5001 221.83 89.8001 220.83 92.9101L220.81 92.9001Z" fill="#192441"/>
<path d="M197.26 204.45C196.91 172.82 179.55 165.75 192.08 151.28C196.17 146.56 199.25 141.04 201.93 135.4C205.95 126.94 204.6 116.55 209.19 108.38C210.57 105.92 212.82 103.56 215.64 103.51C218.43 103.45 220.84 105.78 221.73 108.44C222.62 111.1 222.29 113.98 221.79 116.74C220.63 123.13 218.6 129.36 217.67 135.79C216.74 142.22 217.02 149.1 220.22 154.76L197.27 204.46L197.26 204.45Z" fill="#F4A39B"/>
<path d="M63.9599 138.13C60.9799 134.03 57.4699 130.31 53.5599 127.08C52.7199 126.39 51.7999 125.69 50.7199 125.55C48.6999 125.29 46.9999 126.99 45.0499 127.57C41.7099 128.57 37.5099 126.33 34.8999 128.64C33.8599 129.57 33.4099 131.01 32.4499 132.02C30.3799 134.21 26.7899 133.73 24.0099 134.9C19.9299 136.62 18.3499 141.45 17.1199 145.69C13.6199 157.76 9.26994 169.58 4.11994 181.04C1.96994 185.81 -0.360062 190.6 -3.89006 194.45C-10.5901 201.78 -20.6501 204.83 -30.1901 207.57L-23.2901 258.13C-7.23006 252.45 17.8999 217.42 33.4899 210.56C37.7999 208.66 42.1099 206.65 45.8699 203.82C52.8699 198.54 57.4899 190.79 61.9299 183.24C65.9899 176.35 74.8899 165.96 78.9499 159.07C80.6099 156.26 80.7399 148.9 74.6299 150.02C64.1499 152.79 62.2199 173.16 51.7499 176C58.2299 159.82 72.5599 147.8 88.2899 140.3C90.4699 139.26 92.7599 138.24 94.3599 136.43C95.9599 134.61 96.6399 131.73 95.2099 129.77C93.0999 126.87 88.5899 128.01 85.2999 129.44C78.2899 132.48 71.2899 135.52 64.2799 138.56" fill="#F4A39B"/>
</g>
<path d="M85.6405 103.229C88.2637 103.056 90.2588 100.928 90.0968 98.4752C89.9348 96.0229 87.6769 94.1754 85.0538 94.3487C82.4306 94.522 80.4355 96.6505 80.5975 99.1028C80.7595 101.555 83.0174 103.403 85.6405 103.229Z" fill="#34B9CA"/>
<path d="M83.7 100.71H83.68C83.54 100.66 83.43 100.56 83.37 100.43L82.38 98.2301C82.26 97.9701 82.39 97.6701 82.67 97.5601C82.95 97.4501 83.27 97.5601 83.39 97.8301L84.16 99.5301L88.03 97.7601C88.3 97.6401 88.63 97.7401 88.76 97.9901C88.89 98.2401 88.78 98.5501 88.5 98.6701L84.11 100.68C83.98 100.74 83.84 100.75 83.7 100.71Z" fill="white"/>
<path d="M135.98 117.35L95.74 105.42C93.85 104.86 92.81 102.97 93.43 101.19C94.05 99.42 96.08 98.43 97.98 98.99L138.22 110.92C140.11 111.48 141.15 113.37 140.53 115.15C139.91 116.92 137.88 117.91 135.98 117.35Z" fill="#F6F6F6"/>
<path d="M186.55 132.34L146.31 120.41C144.42 119.85 143.38 117.96 144 116.18C144.62 114.41 146.65 113.42 148.55 113.98L188.79 125.91C190.68 126.47 191.72 128.36 191.1 130.14C190.48 131.91 188.45 132.9 186.55 132.34Z" fill="#F6F6F6"/>
<path d="M80.8173 116.368C83.4404 116.195 85.4356 114.067 85.2736 111.614C85.1115 109.162 82.8537 107.315 80.2305 107.488C77.6074 107.661 75.6122 109.79 75.7743 112.242C75.9363 114.694 78.1941 116.542 80.8173 116.368Z" fill="#ED6A4C"/>
<path d="M79.35 109.79L81.68 114.06" stroke="white" stroke-miterlimit="10" stroke-linecap="round"/>
<path d="M82.81 110.82L78.22 113.04" stroke="white" stroke-miterlimit="10" stroke-linecap="round"/>
<path d="M131.15 130.48L90.91 118.55C89.02 117.99 87.98 116.1 88.6 114.32C89.22 112.55 91.25 111.56 93.15 112.12L133.39 124.05C135.28 124.61 136.32 126.5 135.7 128.28C135.08 130.05 133.05 131.04 131.15 130.48Z" fill="#F6F6F6"/>
<path d="M181.72 145.47L141.48 133.54C139.59 132.98 138.55 131.09 139.17 129.31C139.79 127.54 141.82 126.55 143.72 127.11L183.96 139.04C185.85 139.6 186.89 141.49 186.27 143.27C185.65 145.04 183.62 146.03 181.72 145.47Z" fill="#F6F6F6"/>
<path d="M90.4255 88.7451C93.0486 88.5717 95.0438 86.4432 94.8818 83.9909C94.7197 81.5386 92.4619 79.6911 89.8388 79.8644C87.2156 80.0377 85.2205 82.1662 85.3825 84.6185C85.5445 87.0709 87.8023 88.9184 90.4255 88.7451Z" fill="#34B9CA"/>
<path d="M88.49 86.23H88.47C88.33 86.18 88.22 86.08 88.16 85.95L87.17 83.75C87.05 83.49 87.18 83.19 87.46 83.08C87.74 82.97 88.06 83.08 88.18 83.35L88.95 85.05L92.82 83.28C93.09 83.16 93.42 83.26 93.55 83.51C93.68 83.76 93.57 84.07 93.29 84.19L88.9 86.2C88.77 86.26 88.63 86.27 88.49 86.23Z" fill="white"/>
<path d="M140.77 102.86L100.53 90.93C98.64 90.37 97.6 88.48 98.22 86.7C98.84 84.93 100.87 83.94 102.77 84.5L143.01 96.43C144.9 96.99 145.94 98.88 145.32 100.66C144.7 102.43 142.67 103.42 140.77 102.86Z" fill="#F6F6F6"/>
<path d="M191.33 117.85L151.09 105.92C149.2 105.36 148.16 103.47 148.78 101.69C149.4 99.92 151.43 98.93 153.33 99.49L193.57 111.42C195.46 111.98 196.5 113.87 195.88 115.65C195.26 117.42 193.23 118.41 191.33 117.85Z" fill="#F6F6F6"/>
<path d="M95.2679 74.8362C97.8911 74.6629 99.8862 72.5344 99.7242 70.0821C99.5622 67.6298 97.3043 65.7823 94.6812 65.9556C92.058 66.1289 90.0629 68.2574 90.2249 70.7097C90.3869 73.1621 92.6447 75.0096 95.2679 74.8362Z" fill="#34B9CA"/>
<path d="M93.33 72.32H93.31C93.17 72.27 93.06 72.17 93 72.04L92.01 69.84C91.89 69.58 92.02 69.28 92.3 69.17C92.58 69.06 92.9 69.1701 93.02 69.4401L93.79 71.14L97.66 69.3701C97.93 69.2501 98.26 69.35 98.39 69.6C98.52 69.85 98.41 70.16 98.13 70.28L93.74 72.29C93.61 72.35 93.47 72.36 93.33 72.32Z" fill="white"/>
<path d="M145.61 88.95L105.37 77.02C103.48 76.46 102.44 74.57 103.06 72.79C103.68 71.02 105.71 70.03 107.61 70.59L147.85 82.52C149.74 83.08 150.78 84.97 150.16 86.75C149.54 88.52 147.51 89.51 145.61 88.95Z" fill="#F6F6F6"/>
<path d="M196.17 103.95L155.93 92.02C154.04 91.46 153 89.57 153.62 87.79C154.24 86.02 156.27 85.03 158.17 85.59L198.41 97.52C200.3 98.08 201.34 99.97 200.72 101.75C200.1 103.52 198.07 104.51 196.17 103.95Z" fill="#F6F6F6"/>
</g>
<defs>
<clipPath id="clip0_220_933">
<rect width="373.51" height="268.42" fill="white"/>
</clipPath>
</defs>
</svg>
