<svg width="374" height="269" viewBox="0 0 374 269" fill="none" xmlns="http://www.w3.org/2000/svg">
<g clip-path="url(#clip0_220_1105)">
<path opacity="0.5" d="M332.92 39.02C331.5 33.39 326.35 29.56 320.61 29.5C318.34 29.47 316.08 29.5 313.81 29.5H54.17C53.45 29.5 52.73 29.48 52.02 29.53C45.38 29.97 40.3 35.57 40.21 42.16C40.17 45.08 40.21 48.01 40.21 50.93V219.59C40.21 222.95 39.77 226.92 40.81 230.16C42.51 235.43 47.45 238.87 52.93 238.93C53.65 238.93 54.36 238.93 55.08 238.93H320.69C327.64 238.82 333.22 233.26 333.32 226.29C333.33 225.49 333.32 224.69 333.32 223.89V43.67C333.32 42.1 333.32 40.57 332.93 39.02H332.92Z" fill="#34B9CA"/>
<mask id="mask0_220_1105" style="mask-type:luminance" maskUnits="userSpaceOnUse" x="40" y="29" width="294" height="210">
<path d="M332.92 39.02C331.5 33.39 326.35 29.56 320.61 29.5C318.34 29.47 316.08 29.5 313.81 29.5H54.17C53.45 29.5 52.73 29.48 52.02 29.53C45.38 29.97 40.3 35.57 40.21 42.16C40.17 45.08 40.21 48.01 40.21 50.93V219.59C40.21 222.95 39.77 226.92 40.81 230.16C42.51 235.43 47.45 238.87 52.93 238.93C53.65 238.93 54.36 238.93 55.08 238.93H320.69C327.64 238.82 333.22 233.26 333.32 226.29C333.33 225.49 333.32 224.69 333.32 223.89V43.67C333.32 42.1 333.32 40.57 332.93 39.02H332.92Z" fill="white"/>
</mask>
<g mask="url(#mask0_220_1105)">
<path d="M156.54 200.9L112.94 186.92L93.48 188.54L47.18 177.96V173.92L4.85999 177.62L112.94 204.63L156.54 200.9Z" fill="#967E72"/>
<path d="M176.8 199.17C169.08 193.92 151.17 189.53 140.57 184.62L112.95 186.92L156.55 200.9L176.81 199.17H176.8Z" fill="#634E42"/>
<path d="M176.8 199.17C177.16 199.41 177.52 199.66 177.84 199.91C177.53 199.66 177.16 199.42 176.8 199.17L156.54 200.9L159.41 201.82C159.98 217.01 160.94 232.18 162.3 247.32C163.68 244.36 164.42 241.11 164.45 237.84C164.96 241.21 166.18 244.47 168 247.35C169.32 244.15 170.57 240.92 171.74 237.67C172.45 240.62 174.02 243.35 176.2 245.46C174.02 243.35 172.46 240.61 171.74 237.67C170.57 240.93 169.32 244.15 168 247.35C166.18 244.47 164.96 241.21 164.45 237.84C164.41 241.11 163.67 244.36 162.3 247.32C160.94 232.18 159.98 217.01 159.41 201.82L156.54 200.9L112.94 204.63V300.07L225.4 283.42V259.24V195L176.79 199.16L176.8 199.17Z" fill="#7B6A58"/>
<path d="M4.85999 177.62V226.35V256.43V261.6L93.48 293.15L112.94 300.07V204.63L4.85999 177.62Z" fill="#A48A7B"/>
<path d="M176.8 199.17L225.41 195.01L181.75 181.18L140.57 184.61C151.17 189.53 169.08 193.91 176.8 199.16V199.17Z" fill="#967E72"/>
<path d="M18.07 62.86L18.73 134.96L47.18 132.38V104.53L106.05 101.28V67.49L18.07 62.86Z" fill="#7B6A58"/>
<path d="M-35.94 138.21L-35.46 231.17L4.85998 226.35V177.62L47.18 173.92V132.38L18.73 134.96L12.25 134.09L-35.94 138.21Z" fill="#7B6A58"/>
<path d="M93.48 188.54L112.95 186.92L140.57 184.62C140.57 184.62 140.52 184.6 140.49 184.58C140.52 184.59 140.54 184.6 140.57 184.62L181.75 181.19L196.67 179.95V104.54L93.48 109.97V188.54Z" fill="#7B6A58"/>
<path d="M47.18 177.96L93.48 188.54V109.97L77.1 108.05C76.84 117.11 76.22 126.15 75.25 135.16C73.6 132.88 72.86 129.97 73.19 127.19C72.1 128.48 71.27 129.99 70.77 131.6C69.67 130.09 69.27 128.09 69.7 126.27C68.56 126.77 68.36 128.28 68.28 129.52C68.2 130.77 67.84 132.29 66.64 132.6C65.65 124.55 65.39 116.42 65.86 108.32C65.38 116.41 65.64 124.55 66.64 132.6C67.85 132.29 68.2 130.76 68.28 129.52C68.36 128.27 68.56 126.77 69.7 126.27C69.27 128.09 69.67 130.09 70.77 131.6C71.28 129.99 72.11 128.48 73.19 127.19C72.85 129.98 73.6 132.89 75.25 135.16C76.22 126.15 76.84 117.1 77.1 108.05L47.18 104.54V177.96Z" fill="#A48A7B"/>
<path d="M77.1 107.95C77.1 107.95 77.1 108.01 77.1 108.04L93.48 109.96L196.67 104.53L149.04 98.91L47.17 104.53L77.09 108.04C77.09 108.04 77.09 107.98 77.09 107.95H77.1Z" fill="#967E72"/>
</g>
<mask id="mask1_220_1105" style="mask-type:luminance" maskUnits="userSpaceOnUse" x="40" y="0" width="294" height="239">
<path d="M332.92 39.02C332.06 35.59 329.8 32.84 326.88 31.19L330.2 0H247.59L220.77 29.5H54.17C53.45 29.5 52.73 29.48 52.02 29.53C45.38 29.97 40.3 35.57 40.21 42.16C40.17 45.08 40.21 48.01 40.21 50.93V219.59C40.21 222.95 39.77 226.92 40.81 230.16C42.51 235.43 47.45 238.87 52.93 238.93C53.65 238.93 54.36 238.93 55.08 238.93H320.69C327.65 238.82 333.22 233.26 333.32 226.29C333.33 225.49 333.32 224.69 333.32 223.89V43.67C333.32 42.1 333.32 40.57 332.93 39.02H332.92Z" fill="white"/>
</mask>
<g mask="url(#mask1_220_1105)">
<path d="M353.13 165.53C359.24 166.37 365.18 167.54 371.04 168.9C374.95 149.16 377.83 132.42 375.91 128C373.1 121.54 340.1 112.52 314.6 106.43C310.45 125.09 307.8 143.98 306.25 163C321.8 162.8 337.43 163.6 353.14 165.53H353.13Z" fill="#ED6A4C"/>
<path d="M371.04 168.9C365.19 167.54 359.24 166.37 353.13 165.53C337.42 163.6 321.78 162.8 306.24 163C305.23 175.38 304.69 187.82 304.51 200.28C324.32 200.77 344.09 202.62 363.67 205.71C365.96 193.7 368.68 180.76 371.04 168.91V168.9Z" fill="#ED6A4C"/>
<path d="M359.24 233.44C360.04 225.75 361.69 216.08 363.67 205.7C344.09 202.61 324.31 200.77 304.51 200.27C304.36 210.31 304.46 220.37 304.73 230.44C323.18 229.89 341.47 230.44 359.25 233.44H359.24Z" fill="#ED6A4C"/>
<path d="M362.23 270.92C360.59 261.23 359.22 251.78 358.77 244.16C358.6 241.35 358.79 237.69 359.24 233.44C341.46 230.44 323.17 229.89 304.72 230.44C305.07 243.66 305.75 256.88 306.6 270.07C325.24 269.33 343.84 269.36 362.23 270.91V270.92Z" fill="#ED6A4C"/>
<path d="M218.07 235.76L216.39 276.65C237.02 275.17 257.89 273.16 278.78 271.67C278.55 258.4 277.97 245.14 277.01 231.91C257.16 233.3 237.36 235.14 218.07 235.76Z" fill="#ED6A4C"/>
<path d="M211.16 208.52C214.89 223.8 218.09 235.37 218.09 235.37L218.07 235.76C237.36 235.14 257.16 233.29 277.01 231.91C276.25 221.44 275.26 211 274.03 200.59C252.93 201.58 231.9 204.18 211.15 208.52H211.16Z" fill="#ED6A4C"/>
<path d="M204.25 177.82C206.34 188.24 208.85 199.08 211.16 208.51C231.91 204.17 252.94 201.57 274.04 200.58C272.64 188.78 270.95 177.03 268.93 165.35C247.14 167.81 225.56 172.08 204.25 177.82Z" fill="#ED6A4C"/>
<path opacity="0.2" d="M371.04 168.9C365.19 167.54 359.24 166.37 353.13 165.53C337.42 163.6 321.78 162.8 306.24 163C305.23 175.38 304.69 187.82 304.51 200.28C324.32 200.77 344.09 202.62 363.67 205.71C365.96 193.7 368.68 180.76 371.04 168.91V168.9Z" fill="#F6F6F6"/>
<path opacity="0.2" d="M362.23 270.92C360.59 261.23 359.22 251.78 358.77 244.16C358.6 241.35 358.79 237.69 359.24 233.44C341.46 230.44 323.17 229.89 304.72 230.44C305.07 243.66 305.75 256.88 306.6 270.07C325.24 269.33 343.84 269.36 362.23 270.91V270.92Z" fill="#F6F6F6"/>
<path opacity="0.2" d="M218.07 235.76L216.39 276.65C237.02 275.17 257.89 273.16 278.78 271.67C278.55 258.4 277.97 245.14 277.01 231.91C257.16 233.3 237.36 235.14 218.07 235.76Z" fill="#F6F6F6"/>
<path opacity="0.2" d="M204.25 177.82C206.34 188.24 208.85 199.08 211.16 208.51C231.91 204.17 252.94 201.57 274.04 200.58C272.64 188.78 270.95 177.03 268.93 165.35C247.14 167.81 225.56 172.08 204.25 177.82Z" fill="#F6F6F6"/>
<path d="M201.43 135.4C197.68 138.76 200.17 157.48 204.25 177.82C225.55 172.08 247.13 167.81 268.93 165.35C265.73 146.84 261.75 128.51 256.93 110.43C234.77 119.14 206.63 130.74 201.43 135.39V135.4Z" fill="#ED6A4C"/>
<path d="M304.51 200.27C304.69 187.81 305.23 175.37 306.24 162.99C293.74 163.15 281.3 163.96 268.93 165.35C270.95 177.03 272.64 188.78 274.04 200.58C284.19 200.11 294.35 200.01 304.51 200.27Z" fill="#192441"/>
<path d="M277.01 231.9C277.97 245.13 278.55 258.39 278.78 271.66C288.05 271 297.33 270.44 306.6 270.07C305.75 256.88 305.08 243.66 304.72 230.44C295.5 230.71 286.25 231.26 277.01 231.9Z" fill="#192441"/>
<path d="M304.51 200.27C294.35 200.02 284.19 200.11 274.04 200.58C275.27 210.99 276.26 221.43 277.02 231.9C286.26 231.25 295.51 230.71 304.73 230.44C304.46 220.38 304.37 210.32 304.51 200.27Z" fill="#192441"/>
<path d="M284.73 99.76C284.73 99.76 272.26 104.41 256.93 110.44C261.75 128.51 265.73 146.85 268.93 165.36C281.3 163.97 293.74 163.16 306.24 163C307.79 143.98 310.44 125.08 314.59 106.43C298.09 102.49 284.73 99.77 284.73 99.77V99.76Z" fill="#192441"/>
<path d="M201.43 135.4C201.43 135.4 230.24 147.39 232.82 177.08C235.4 206.77 219.2 225.7 219.2 225.7L201.43 135.4Z" fill="#192441"/>
<path d="M306.05 98.93C305.88 95.34 306.23 93.64 306.23 93.64C306.23 93.64 260.22 71.68 260.73 105.37C260.79 109 260.92 112.2 261.14 115.01C278.65 125.96 296.95 114.86 306.05 98.93Z" fill="#F4A39B"/>
<path d="M306.05 98.9301C296.95 114.86 278.65 125.96 261.14 115.01C262.94 138.27 270.27 135.22 283.27 135.4C297.84 135.61 308.42 113.34 308.42 113.34C306.77 106.89 306.2 102.16 306.04 98.9401L306.05 98.9301Z" fill="#F4A39B"/>
<path opacity="0.1" d="M306.54 103.99C306.37 100.4 306.23 93.6301 306.23 93.6301C306.23 93.6301 260.22 71.6701 260.73 105.36C260.79 108.99 260.51 116.58 260.73 119.39C278.24 130.34 297.44 119.91 306.54 103.99Z" fill="#282323"/>
<path d="M312.03 67.99C312.67 67.99 312.67 66.99 312.03 66.99C311.39 66.99 311.39 67.99 312.03 67.99Z" fill="#34B9CA"/>
<path d="M247.73 38.8301C247.73 38.8301 241.85 57.5501 247.73 82.4001C253.61 107.25 264.56 119.55 280.08 118.12C295.6 116.69 312.38 107.76 312.03 76.6901C311.67 45.6201 308.12 35.2601 308.12 35.2601L253.81 21.3301L247.73 38.8301Z" fill="#F4A39B"/>
<path d="M244.54 49.69C244.54 49.69 247.7 52.21 249.73 46.17C251.76 40.13 250.21 37.8601 258.08 40.6301C265.95 43.4001 274.4 44.7401 297.41 36.57C313.6 30.82 304.27 42.3001 306.24 48.0801C308.21 53.8601 312.03 83.05 312.03 83.05C312.03 83.05 317.84 57.1001 321.22 47.7901C324.6 38.48 316.25 10.02 297.25 5.48005C278.25 0.950049 259.66 2.26005 246.87 13.59C234.08 24.92 244.53 49.69 244.53 49.69H244.54Z" fill="#634E42"/>
<path d="M308 62.99C308 62.99 315.45 59.06 314.59 69.79C313.72 80.52 306.24 86.19 306.24 86.19L304.44 65.86L308.01 63L308 62.99Z" fill="#F4A39B"/>
<path d="M289.05 65.3401C289.64 65.2701 290.27 65.2101 290.77 65.5201C291.26 65.8201 291.5 66.4101 291.66 66.9601C291.88 67.7201 291.96 68.6401 291.38 69.1801C291.06 69.4701 290.62 69.5701 290.2 69.6301C289.64 69.7101 289.04 69.7501 288.53 69.5001C287.91 69.2001 287.56 68.5401 287.3 67.9101C287 67.1801 286.83 66.2201 287.43 65.7001C287.62 65.5401 287.86 65.4501 288.1 65.3801C288.57 65.2501 289.06 65.2101 289.54 65.2501" fill="#1D1D1B"/>
<path d="M289.05 64.4501C289.75 64.3701 290.45 64.3601 291.1 64.6801C291.75 65.0101 292.13 65.6301 292.38 66.2801C292.81 67.3801 292.97 68.9101 292.02 69.7901C291.46 70.3101 290.73 70.4501 289.99 70.5301C289.29 70.6101 288.53 70.5301 287.92 70.1501C287.38 69.8001 286.98 69.2801 286.7 68.7101C286.42 68.1201 286.2 67.5201 286.15 66.8601C286.09 66.0601 286.41 65.2601 287.1 64.8301C287.79 64.4001 288.74 64.2901 289.54 64.3501C290 64.3901 290.45 64.7301 290.42 65.2301C290.4 65.6801 290.03 66.1601 289.54 66.1201C289.27 66.1001 289 66.1201 288.73 66.1201C288.76 66.1201 288.89 66.1101 288.73 66.1201C288.65 66.1301 288.57 66.1501 288.49 66.1701C288.36 66.2001 288.24 66.2401 288.12 66.2801C287.9 66.3501 288.25 66.1901 288.06 66.3101C288.02 66.3301 287.94 66.4101 288.06 66.3001C288.02 66.3301 287.99 66.3701 287.95 66.4001C287.87 66.4801 288.04 66.2201 287.97 66.3801L287.92 66.4801L287.97 66.3701C287.97 66.3701 287.95 66.4401 287.94 66.4801C287.94 66.4901 287.92 66.5901 287.92 66.5901C287.94 66.4501 287.94 66.4301 287.93 66.5301V66.5901C287.93 66.6801 287.96 66.8101 287.93 66.9001L287.91 66.7901C287.91 66.7901 287.91 66.8501 287.93 66.8801C287.93 66.9301 287.95 66.9801 287.96 67.0401C288.01 67.2601 288.08 67.4601 288.17 67.6701C288.08 67.4801 288.22 67.8001 288.17 67.6701C288.19 67.7101 288.21 67.7501 288.23 67.7901C288.28 67.8901 288.33 67.9901 288.39 68.0901C288.43 68.1701 288.5 68.3201 288.57 68.3701C288.45 68.2701 288.51 68.3001 288.55 68.3501C288.6 68.4101 288.65 68.4601 288.71 68.5201C288.75 68.5501 288.79 68.6101 288.83 68.6301C288.66 68.5401 288.77 68.5901 288.81 68.6101C288.87 68.6401 288.92 68.6801 288.98 68.7101C288.82 68.6601 288.95 68.6901 288.98 68.7101C289.04 68.7301 289.1 68.7501 289.16 68.7601C289.21 68.7701 289.37 68.8201 289.18 68.7701C289.31 68.8001 289.46 68.7901 289.59 68.7901C289.7 68.7901 289.81 68.7801 289.93 68.7701C289.97 68.7701 290.21 68.7501 289.99 68.7701C290.03 68.7701 290.08 68.7601 290.12 68.7501C290.23 68.7301 290.34 68.7101 290.46 68.6801C290.5 68.6701 290.55 68.6601 290.59 68.6401C290.63 68.6301 290.68 68.6101 290.72 68.5901C290.62 68.6301 290.6 68.6401 290.66 68.6101C290.69 68.5901 290.79 68.5601 290.8 68.5301C290.77 68.6001 290.71 68.6201 290.78 68.5401L290.82 68.5001C290.88 68.4301 290.88 68.4401 290.8 68.5401C290.82 68.5401 290.86 68.4501 290.87 68.4401C290.88 68.4201 290.99 68.2801 290.9 68.3901C290.82 68.4901 290.9 68.3701 290.92 68.3301C290.93 68.2901 290.94 68.2501 290.95 68.2101C290.95 68.1701 290.97 68.1301 290.97 68.0901C290.95 68.2101 290.95 68.2401 290.96 68.1701C290.96 68.0801 290.96 67.9801 290.96 67.8901C290.96 67.8301 290.96 67.7601 290.95 67.7001C290.95 67.6301 290.97 67.5801 290.95 67.7401C290.95 67.6501 290.91 67.5101 290.89 67.4301C290.86 67.3101 290.83 67.1801 290.79 67.0601C290.76 66.9601 290.72 66.8501 290.68 66.7501C290.61 66.5401 290.77 66.9101 290.67 66.7201C290.64 66.6601 290.61 66.6001 290.58 66.5501C290.56 66.5101 290.53 66.4801 290.51 66.4401C290.43 66.2901 290.62 66.5601 290.47 66.3901C290.43 66.3501 290.4 66.3201 290.36 66.2801C290.23 66.1501 290.5 66.3501 290.34 66.2701C290.34 66.2701 290.13 66.1601 290.26 66.2201C290.37 66.2701 290.13 66.1801 290.1 66.1801C290.07 66.1801 289.98 66.1501 289.96 66.1501C290.08 66.1701 290.09 66.1701 289.99 66.1501H289.92C289.63 66.1301 289.35 66.1701 289.06 66.2001C288.6 66.2501 288.16 65.7601 288.18 65.3201C288.2 64.8001 288.57 64.4901 289.06 64.4301L289.05 64.4501Z" fill="#1D1D1B"/>
<path d="M261.18 66.59C262 66.38 262.93 66.9101 263.19 67.7101C263.28 67.9901 263.29 68.2801 263.29 68.5701C263.29 68.8701 263.27 69.1801 263.16 69.4701C263.02 69.8301 262.72 70.1201 262.37 70.2901C261.65 70.6401 260.73 70.4701 260.12 69.9401C259.51 69.4101 259.21 68.5901 259.23 67.7801C259.23 67.5401 259.27 67.3001 259.37 67.0801C259.61 66.5301 260.21 66.1901 260.81 66.1801C261.41 66.1701 261.98 66.4701 262.4 66.9001" fill="#1D1D1B"/>
<path d="M260.94 65.74C262.24 65.44 263.57 66.17 264.02 67.43C264.14 67.77 264.17 68.15 264.17 68.5C264.17 68.85 264.16 69.2 264.06 69.54C263.88 70.2 263.38 70.79 262.76 71.08C262.12 71.37 261.41 71.44 260.73 71.25C260.04 71.06 259.48 70.64 259.06 70.08C258.27 69.04 258.04 67.33 258.86 66.25C259.33 65.64 260.11 65.29 260.88 65.31C261.7 65.33 262.46 65.71 263.03 66.28C263.36 66.61 263.38 67.21 263.03 67.53C262.68 67.85 262.13 67.88 261.78 67.53C261.73 67.48 261.68 67.44 261.63 67.39C261.6 67.36 261.51 67.27 261.65 67.4C261.57 67.33 261.46 67.27 261.37 67.22C261.33 67.2 261.29 67.18 261.25 67.16C261.06 67.06 261.42 67.2 261.22 67.15C261.14 67.13 260.98 67.04 260.9 67.07H261C261 67.07 260.91 67.07 260.87 67.07C260.83 67.07 260.79 67.07 260.74 67.07C260.54 67.07 260.89 67.03 260.77 67.07C260.72 67.08 260.67 67.09 260.62 67.1C260.58 67.11 260.54 67.12 260.5 67.14C260.31 67.19 260.66 67.04 260.49 67.14C260.46 67.16 260.42 67.18 260.39 67.2C260.36 67.22 260.32 67.24 260.29 67.27L260.37 67.2C260.37 67.2 260.26 67.3 260.24 67.32C260.15 67.4 260.22 67.3 260.26 67.28C260.23 67.29 260.2 67.38 260.18 67.4C260.15 67.46 260.06 67.53 260.18 67.39C260.15 67.43 260.14 67.51 260.13 67.56C260.12 67.62 260.06 67.76 260.12 67.57C260.08 67.68 260.1 67.83 260.11 67.94C260.11 68.02 260.1 68.15 260.13 68.23V68.12C260.13 68.12 260.13 68.2 260.13 68.25C260.13 68.29 260.15 68.33 260.16 68.37C260.19 68.47 260.22 68.57 260.25 68.67C260.3 68.83 260.23 68.65 260.23 68.63C260.23 68.69 260.3 68.78 260.33 68.83C260.38 68.91 260.43 68.99 260.48 69.07C260.59 69.25 260.35 68.94 260.5 69.09C260.53 69.12 260.56 69.15 260.59 69.18C260.63 69.22 260.67 69.25 260.7 69.29C260.77 69.29 260.81 69.39 260.7 69.29C260.71 69.29 260.78 69.35 260.8 69.36C260.86 69.4 260.92 69.43 260.99 69.47C261.1 69.53 261.09 69.47 260.98 69.47C261 69.47 261.07 69.5 261.1 69.51C261.2 69.54 261.3 69.56 261.4 69.59C261.6 69.63 261.25 69.59 261.38 69.59C261.43 69.59 261.48 69.59 261.53 69.59C261.57 69.59 261.61 69.59 261.65 69.59C261.69 69.59 261.73 69.59 261.77 69.58C261.65 69.6 261.62 69.6 261.69 69.58C261.78 69.55 261.87 69.53 261.96 69.51C262.15 69.45 261.81 69.61 261.97 69.5C262 69.48 262.04 69.46 262.08 69.44C262.1 69.43 262.24 69.31 262.14 69.4C262.04 69.49 262.18 69.36 262.19 69.35C262.22 69.32 262.25 69.29 262.27 69.26C262.39 69.14 262.18 69.41 262.29 69.22C262.31 69.18 262.35 69.13 262.36 69.09C262.33 69.28 262.33 69.16 262.34 69.11C262.35 69.05 262.4 68.97 262.39 68.91C262.39 68.93 262.38 69.11 262.39 68.94C262.39 68.82 262.4 68.71 262.4 68.59C262.4 68.47 262.43 68.27 262.38 68.16C262.38 68.18 262.42 68.35 262.38 68.18C262.36 68.11 262.35 68.04 262.33 67.97L262.31 67.92C262.28 67.83 262.28 67.85 262.34 67.98C262.32 67.98 262.27 67.85 262.26 67.84L262.2 67.75C262.28 67.86 262.3 67.87 262.24 67.8C262.22 67.78 262.2 67.76 262.18 67.74C262.15 67.71 262.11 67.68 262.08 67.65C261.95 67.52 262.24 67.75 262.08 67.65C262.04 67.62 261.81 67.52 261.79 67.49C261.79 67.51 261.99 67.56 261.85 67.52C261.8 67.51 261.75 67.49 261.69 67.47H261.64C261.54 67.44 261.57 67.44 261.71 67.47C261.67 67.48 261.59 67.47 261.55 67.47C261.51 67.47 261.48 67.47 261.44 67.47C261.34 67.47 261.37 67.47 261.51 67.46C261.47 67.46 261.44 67.47 261.4 67.48C260.95 67.58 260.42 67.34 260.31 66.86C260.21 66.41 260.44 65.88 260.92 65.77L260.94 65.74Z" fill="#1D1D1B"/>
<path d="M276.88 63.14C276.89 67.63 275.94 72.06 274.08 76.14C273.17 78.13 271.8 79.85 270.88 81.81C270.46 82.72 270.19 84 270.94 84.82C271.69 85.65 273.08 85.45 274.08 85.36C275.21 85.25 275.21 87.02 274.08 87.13C272.03 87.32 269.67 87.07 268.92 84.8C268.16 82.51 269.57 80.5 270.73 78.65C273.64 74.01 275.13 68.62 275.11 63.15C275.11 62.01 276.87 62.01 276.88 63.15V63.14Z" fill="#1D1D1B"/>
<path d="M265.81 62.78C265.02 61.95 264.07 61.48 262.9 61.3C262.99 61.31 262.86 61.3 262.84 61.3C262.77 61.3 262.71 61.29 262.64 61.28C262.49 61.27 262.34 61.26 262.19 61.26C262.04 61.26 261.89 61.26 261.74 61.28C261.66 61.28 261.57 61.29 261.49 61.3C261.33 61.32 261.59 61.28 261.43 61.31C260.81 61.42 260.34 61.58 259.83 61.87C258.84 62.43 257.95 60.91 258.94 60.35C261.52 58.88 265 59.37 267.06 61.53C267.84 62.35 266.6 63.61 265.81 62.78Z" fill="#1D1D1B"/>
<path d="M285.52 58.8201C288.79 57.8901 292.57 57.9801 295.13 60.4901C295.94 61.2901 294.7 62.5401 293.88 61.7401C291.78 59.6801 288.64 59.7601 285.99 60.5201C284.9 60.8301 284.42 59.1301 285.52 58.8201Z" fill="#1D1D1B"/>
<path d="M268.26 51.8501C268.85 52.7801 268.44 54.0401 267.4 54.4201C266.45 54.7701 265.71 54.0901 264.85 53.8201C264.06 53.5801 263.21 53.5201 262.4 53.6901C261.46 53.8901 260.63 54.4201 259.69 54.6301C259.34 54.7101 258.86 54.5901 258.69 54.2301C258.22 53.2101 258.97 52.5501 259.84 52.1701C260.65 51.8101 261.48 51.5201 262.35 51.3401C264.07 50.9701 265.82 50.9601 267.55 51.2901C268.02 51.3801 268.29 51.9401 268.17 52.3801C268.04 52.8701 267.56 53.0901 267.09 53.0001C265.9 52.7701 264.65 52.7401 263.46 52.9301C262.85 53.0201 262.25 53.1701 261.66 53.3601C261.37 53.4501 261.09 53.5501 260.81 53.6701C260.68 53.7301 260.55 53.7901 260.42 53.8501C260.05 54.0301 260.32 54.0001 260.3 53.7001L260.18 53.2501L260.22 53.3401L259.22 52.9401C259.98 52.7701 260.66 52.3801 261.4 52.1501C262.14 51.9201 262.96 51.8101 263.74 51.8601C264.53 51.9101 265.28 52.0901 266.01 52.3901C266.19 52.4701 266.37 52.5501 266.55 52.6401C266.59 52.6601 266.85 52.7501 266.87 52.7801C266.77 52.6501 266.91 53.0201 266.75 52.7701C266.14 51.8001 267.67 50.9101 268.27 51.8701L268.26 51.8501Z" fill="#1D1D1B"/>
<path d="M297.49 52.26C295.58 51.19 293.55 50.41 291.41 49.95C290.46 49.75 289.48 49.57 288.51 49.56C287.94 49.56 286.57 49.6 286.32 50.29C286.3 50.34 286.16 50.32 286.39 50.38C286.64 50.44 286.91 50.34 287.15 50.27C287.63 50.13 288.11 49.96 288.6 49.85C289.58 49.63 290.6 49.53 291.6 49.54C292.6 49.55 293.62 49.69 294.59 49.94C295.07 50.06 295.55 50.22 296.02 50.4C296.29 50.51 296.56 50.62 296.82 50.74C296.95 50.8 297.08 50.86 297.21 50.93C297.61 51.07 297.64 51.41 297.29 51.97C296.31 51.4 297.19 49.87 298.18 50.44C299.11 50.98 298.9 52.43 297.87 52.74C297.39 52.88 296.92 52.74 296.48 52.54C295.94 52.29 295.41 52.04 294.84 51.85C292.7 51.16 290.39 51.11 288.24 51.76C287.2 52.07 286.1 52.44 285.16 51.68C284.26 50.95 284.35 49.79 285.1 48.98C286.55 47.42 288.98 47.74 290.86 48.05C293.49 48.49 296.03 49.42 298.36 50.73C299.35 51.29 298.46 52.82 297.47 52.26H297.49Z" fill="#1D1D1B"/>
<path d="M286.43 49.62C287.2 49.67 287.97 49.64 288.74 49.54L288.51 49.57C288.77 49.54 289.02 49.49 289.27 49.44C289.5 49.39 289.74 49.4 289.95 49.53C290.13 49.64 290.31 49.85 290.36 50.06C290.46 50.5 290.23 51.05 289.75 51.15C288.66 51.37 287.55 51.46 286.44 51.39C285.98 51.36 285.53 51.01 285.56 50.51C285.58 50.06 285.95 49.59 286.44 49.62H286.43Z" fill="#1D1D1B"/>
<path d="M266.51 100.16C268.4 101.56 270.42 102.83 272.67 103.54C274.92 104.25 277.2 104.33 279.44 103.9C283.57 103.12 287.16 100.35 289.07 96.62C289.49 95.81 288.26 95.09 287.85 95.9C286.09 99.33 282.87 101.81 279.06 102.53C276.99 102.92 274.83 102.76 272.83 102.1C270.83 101.44 268.94 100.21 267.22 98.93C266.49 98.39 265.78 99.62 266.5 100.15L266.51 100.16Z" fill="#1D1D1B"/>
<path d="M260.94 197.35C260.94 197.35 267.33 179.59 272.37 173.6C277.41 167.61 273.04 147.68 280.74 150.61C288.44 153.54 284.26 166.5 285.13 170.54C286 174.59 305.96 162.05 308.54 174.6C311.12 187.16 312.1 211.39 300.04 209.35C287.98 207.31 277.71 213.25 277.71 213.25L260.93 197.34L260.94 197.35Z" fill="#F4A39B"/>
<path d="M201.23 135.4C201.23 135.4 162.58 222.23 177.04 256.22C191.5 290.21 284.39 217.36 284.39 217.36C284.39 217.36 275.95 190.72 263.67 183.82C263.67 183.82 248.81 184.06 229.09 197.86L201.22 135.4H201.23Z" fill="#192441"/>
</g>
<path d="M92.21 112.04L73.11 212.88L90.2 206.74L103.02 218.54L122.11 117.7" fill="#DA6246"/>
<path d="M107.3 117.2L122.94 218.63L137 207.15L153.02 213.99L137.38 112.56" fill="#DA6246"/>
<path d="M114.78 172.46C141.207 172.46 162.63 151.037 162.63 124.61C162.63 98.1832 141.207 76.76 114.78 76.76C88.3532 76.76 66.93 98.1832 66.93 124.61C66.93 151.037 88.3532 172.46 114.78 172.46Z" fill="#192441"/>
<path d="M114.78 160.18C134.425 160.18 150.35 144.255 150.35 124.61C150.35 104.965 134.425 89.04 114.78 89.04C95.1352 89.04 79.21 104.965 79.21 124.61C79.21 144.255 95.1352 160.18 114.78 160.18Z" fill="#34B9CA" stroke="white" stroke-width="5.67" stroke-miterlimit="10"/>
<path d="M107.89 142.93C107.83 142.93 107.76 142.93 107.69 142.93C106.57 142.88 105.52 142.37 104.79 141.52L92.28 127.03C90.8 125.32 90.99 122.74 92.7 121.26C94.41 119.78 96.99 119.97 98.47 121.68L108.16 132.91L131.34 110.74C132.97 109.18 135.56 109.24 137.12 110.87C138.68 112.5 138.62 115.09 136.99 116.65L110.7 141.79C109.94 142.52 108.92 142.92 107.87 142.92L107.89 142.93Z" fill="white"/>
</g>
<defs>
<clipPath id="clip0_220_1105">
<rect width="373.51" height="268.42" fill="white"/>
</clipPath>
</defs>
</svg>
