<svg width="374" height="269" viewBox="0 0 374 269" fill="none" xmlns="http://www.w3.org/2000/svg">
<g clip-path="url(#clip0_220_846)">
<path opacity="0.5" d="M332.92 39.02C331.5 33.39 326.35 29.56 320.61 29.5C318.34 29.47 316.08 29.5 313.81 29.5H54.17C53.45 29.5 52.73 29.48 52.02 29.53C45.38 29.97 40.3 35.57 40.21 42.16C40.17 45.08 40.21 48.01 40.21 50.93V219.59C40.21 222.95 39.77 226.92 40.81 230.16C42.51 235.43 47.45 238.87 52.93 238.93C53.65 238.93 54.36 238.93 55.08 238.93H320.69C327.64 238.82 333.22 233.26 333.32 226.29C333.33 225.49 333.32 224.69 333.32 223.89V43.67C333.32 42.1 333.32 40.57 332.93 39.02H332.92Z" fill="#34B9CA"/>
<mask id="mask0_220_846" style="mask-type:luminance" maskUnits="userSpaceOnUse" x="40" y="29" width="294" height="210">
<path d="M332.92 39.02C331.5 33.39 326.35 29.56 320.61 29.5C318.34 29.47 316.08 29.5 313.81 29.5H54.17C53.45 29.5 52.73 29.48 52.02 29.53C45.38 29.97 40.3 35.57 40.21 42.16C40.17 45.08 40.21 48.01 40.21 50.93V219.59C40.21 222.95 39.77 226.92 40.81 230.16C42.51 235.43 47.45 238.87 52.93 238.93C53.65 238.93 54.36 238.93 55.08 238.93H320.69C327.64 238.82 333.22 233.26 333.32 226.29C333.33 225.49 333.32 224.69 333.32 223.89V43.67C333.32 42.1 333.32 40.57 332.93 39.02H332.92Z" fill="white"/>
</mask>
<g mask="url(#mask0_220_846)">
<path d="M176.73 184.28L155.27 177.4L145.69 178.2L122.9 172.99V171L102.07 172.82L155.27 186.12L176.73 184.28Z" fill="#967E72"/>
<path d="M186.7 183.43C182.9 180.84 174.08 178.69 168.87 176.27L155.28 177.4L176.74 184.28L186.71 183.43H186.7Z" fill="#634E42"/>
<path d="M186.7 183.43L176.73 184.28L178.14 184.73C178.42 192.21 178.89 199.67 179.56 207.12C180.24 205.66 180.6 204.06 180.62 202.45C180.87 204.11 181.47 205.71 182.37 207.13C183.02 205.56 183.63 203.97 184.21 202.36C184.56 203.81 185.33 205.16 186.4 206.2C185.33 205.16 184.56 203.82 184.21 202.36C183.63 203.96 183.02 205.55 182.37 207.13C181.47 205.71 180.87 204.11 180.62 202.45C180.6 204.06 180.24 205.66 179.56 207.12C178.89 199.67 178.42 192.2 178.14 184.73L176.73 184.28L155.27 186.12V233.09L210.62 224.9V213C208.24 212.96 205.86 212.9 203.49 212.82C205.86 212.9 208.24 212.95 210.62 213V181.39L186.7 183.44V183.43Z" fill="#7B6A58"/>
<path d="M102.07 172.82V196.8V211.61V214.15L145.69 229.68L155.27 233.09V186.12L102.07 172.82Z" fill="#A48A7B"/>
<path d="M102.07 211.61L73.0699 215.89L125.76 233.09L145.69 229.68L102.07 214.15V211.61Z" fill="#967E72"/>
<path d="M56.83 149.86C56.87 153.25 57.03 156.63 57.33 160.01C57.38 160.61 57.46 161.26 57.88 161.69C58.56 160.47 59.27 159.27 59.99 158.08C60.42 159.66 60.77 161.25 61.05 162.86C61.99 161.4 62.71 159.79 63.17 158.11C63.78 159.29 64.3 160.52 64.71 161.78C65.39 158.4 66.08 155.01 66.76 151.63L68.16 151.43L57.03 149.83L56.83 149.86Z" fill="#634E42"/>
<path d="M38.58 194.77L46.15 197.52L67.89 194.01L46.15 197.52L62.21 203.35L82.23 199.18L59.83 191.1L38.58 194.77Z" fill="#967E72"/>
<path d="M38.22 194.83C37.55 200.46 40.07 206.03 39.91 211.7C40.14 210.38 40.4 209.07 40.71 207.77C41.06 208.16 41.4 208.55 41.75 208.94C41.96 207.63 42.17 206.31 42.38 205C42.59 206.08 43.04 207.11 43.69 208C45.2 204.84 44.04 200.97 45.22 197.68L46.15 197.53L38.58 194.78L38.23 194.84L38.22 194.83Z" fill="#634E42"/>
<path d="M79.93 147.92V146.96L57.03 149.84L68.16 151.44L86.61 148.82L79.93 147.92Z" fill="#634E42"/>
<path d="M86.61 148.82L68.16 151.44L82 153.43L105.71 151.4L86.61 148.82Z" fill="#967E72"/>
<path d="M186.7 183.43L210.62 181.38L189.13 174.58L168.86 176.27C174.08 178.69 182.89 180.85 186.69 183.43H186.7Z" fill="#967E72"/>
<path d="M59.83 191.1L44.07 185.43L20.61 188.25L38.58 194.77L59.83 191.1Z" fill="#967E72"/>
<path d="M59.8299 191.1L82.2299 199.17L81.9899 153.42L68.16 151.43L66.7599 151.63C66.0799 155.01 65.3899 158.4 64.7099 161.78C64.2999 160.52 63.7799 159.29 63.1699 158.11C62.7099 159.79 61.9899 161.4 61.0499 162.86C60.7699 161.25 60.4199 159.65 59.9899 158.08C59.2599 159.27 58.5599 160.47 57.8799 161.69C57.4599 161.26 57.3799 160.61 57.3299 160.01C57.0299 156.64 56.8599 153.25 56.8299 149.86L57.0299 149.83L44.0699 147.97V185.42L59.8299 191.1Z" fill="#A48A7B"/>
<path d="M79.9299 146.96V144.32L44.0699 147.98L57.0299 149.84L79.9299 146.96Z" fill="#967E72"/>
<path d="M46.15 197.52L45.22 197.67C44.04 200.97 45.2 204.83 43.69 207.99C43.04 207.1 42.59 206.07 42.38 204.99C42.17 206.3 41.96 207.62 41.75 208.93C41.4 208.54 41.06 208.15 40.71 207.76C40.4 209.06 40.14 210.37 39.91 211.69C40.07 206.02 37.56 200.45 38.22 194.82L38.57 194.76L20.6 188.24V238.92H62.2V203.34L46.14 197.51L46.15 197.52Z" fill="#A48A7B"/>
<path d="M102.07 211.61V196.8L82.23 199.18L62.21 203.35V238.92H73.07V215.89L102.07 211.61Z" fill="#7B6A58"/>
<path d="M79.9299 147.92L86.6099 148.82L105.71 151.4L108.9 151.83L108.57 116.35L79.9199 118.3V147.92H79.9299ZM89.4899 127.7C89.5099 128.84 89.5499 130.04 90.0799 131.05C90.6799 129.76 91.2699 128.47 91.8699 127.18C91.8399 128.49 91.9899 129.8 92.3099 131.07C92.8999 130.32 93.3499 129.45 93.6199 128.53C93.9899 129.01 94.2799 129.54 94.4699 130.11C94.2799 129.54 93.9899 129 93.6199 128.53C93.3399 129.45 92.8999 130.31 92.3099 131.07C91.9899 129.8 91.8399 128.49 91.8699 127.18C91.2699 128.47 90.6799 129.76 90.0799 131.05C89.5499 130.04 89.5099 128.85 89.4899 127.7Z" fill="#A48A7B"/>
<path d="M210.62 224.9L155.27 233.09L145.69 229.68L125.76 233.09L125.95 238.92H225.59V213.11C220.58 213.11 215.59 213.08 210.62 212.99V224.89V224.9Z" fill="#7B6A58"/>
<path d="M108.58 116.34L108.9 151.83L122.9 150.56V136.85L151.88 135.25V118.62L108.58 116.34Z" fill="#7B6A58"/>
<path d="M73.0699 215.89V238.92H125.95L125.76 233.09L73.0699 215.89Z" fill="#A48A7B"/>
<path d="M82 153.43L82.23 199.18L102.07 196.8V172.82L122.9 171V150.56L108.9 151.83L105.71 151.4L82 153.43Z" fill="#7B6A58"/>
<path d="M145.69 178.2L155.27 177.4L168.86 176.27C168.86 176.27 168.83 176.26 168.82 176.25C168.83 176.25 168.85 176.26 168.86 176.27L189.13 174.58L196.48 173.97V136.86L145.7 139.53V178.2H145.69Z" fill="#7B6A58"/>
<path d="M122.9 172.99L145.69 178.2V139.53L137.63 138.58C137.5 143.04 137.2 147.49 136.72 151.92C135.91 150.8 135.54 149.37 135.71 148C135.18 148.64 134.77 149.38 134.52 150.17C133.98 149.43 133.78 148.44 133.99 147.55C133.43 147.8 133.33 148.54 133.29 149.15C133.25 149.76 133.08 150.51 132.48 150.67C133.07 150.52 133.25 149.77 133.29 149.15C133.33 148.54 133.43 147.8 133.99 147.55C133.78 148.45 133.98 149.43 134.52 150.17C134.77 149.38 135.18 148.64 135.71 148C135.54 149.37 135.91 150.8 136.72 151.92C137.2 147.49 137.5 143.03 137.63 138.58L122.91 136.85V172.99H122.9Z" fill="#A48A7B"/>
<path d="M137.63 138.53C137.63 138.53 137.63 138.56 137.63 138.58L145.69 139.53L196.47 136.86L173.03 134.09L122.9 136.86L137.62 138.59C137.62 138.59 137.62 138.56 137.62 138.54L137.63 138.53Z" fill="#967E72"/>
</g>
<path d="M38.58 194.77L46.15 197.52L66.49 193.51L57.82 190.38L38.58 194.77Z" fill="#634E42"/>
<path d="M176.73 184.28L178.55 204.27L181.1 200.97L182.94 203.6L183.37 199.76L185.13 203.4L186.62 198.54L186.7 183.43L178.15 182.35L176.73 184.28Z" fill="#634E42"/>
<mask id="mask1_220_846" style="mask-type:luminance" maskUnits="userSpaceOnUse" x="40" y="0" width="294" height="239">
<path d="M332.92 39.02C331.5 33.39 326.35 29.56 320.61 29.5C318.34 29.47 316.08 29.5 313.81 29.5H306.95L304.88 0H232.59L209.61 29.5H54.17C53.45 29.5 52.73 29.48 52.02 29.53C45.38 29.97 40.3 35.57 40.21 42.16C40.17 45.08 40.21 48.01 40.21 50.93V219.59C40.21 222.95 39.77 226.92 40.81 230.16C42.51 235.43 47.45 238.87 52.93 238.93C53.65 238.93 54.36 238.93 55.08 238.93H320.69C327.64 238.82 333.22 233.26 333.32 226.29C333.33 225.49 333.32 224.69 333.32 223.89V43.67C333.32 42.1 333.32 40.57 332.93 39.02H332.92Z" fill="white"/>
</mask>
<g mask="url(#mask1_220_846)">
<path d="M320.94 137.2C326.05 137.9 331.03 138.88 335.93 140.02C339.21 123.5 341.61 109.49 340 105.78C337.65 100.37 310.03 92.82 288.68 87.72C285.2 103.34 282.99 119.15 281.69 135.07C294.7 134.9 307.79 135.57 320.94 137.19V137.2Z" fill="#ED6A4C"/>
<path d="M335.92 140.03C331.02 138.89 326.04 137.91 320.93 137.21C307.78 135.59 294.69 134.92 281.68 135.09C280.83 145.45 280.38 155.86 280.23 166.29C296.81 166.7 313.36 168.25 329.75 170.83C331.67 160.78 333.95 149.95 335.92 140.03Z" fill="#ED6A4C"/>
<path d="M326.05 194.04C326.72 187.6 328.1 179.51 329.75 170.82C313.36 168.24 296.81 166.69 280.23 166.28C280.11 174.69 280.19 183.11 280.41 191.53C295.85 191.07 311.16 191.53 326.04 194.04H326.05Z" fill="#ED6A4C"/>
<path d="M328.56 225.41C327.19 217.3 326.04 209.39 325.67 203.01C325.53 200.66 325.69 197.6 326.06 194.04C311.18 191.53 295.87 191.07 280.43 191.53C280.73 202.6 281.29 213.66 282 224.7C297.61 224.08 313.17 224.11 328.56 225.41Z" fill="#ED6A4C"/>
<path d="M281.99 224.71C282.86 238.15 283.94 251.54 285.08 264.84L335.35 266.93C335.35 260.37 331.44 242.44 328.56 225.41C313.17 224.11 297.6 224.08 282 224.7L281.99 224.71Z" fill="#ED6A4C"/>
<path d="M205.2 261.51L258.22 263.72C258.77 251.18 258.93 238.61 258.71 226.04C241.22 227.29 223.76 228.97 206.49 230.21L205.2 261.51Z" fill="#ED6A4C"/>
<path d="M207.89 195.99L206.48 230.21C223.75 228.97 241.21 227.29 258.7 226.04C258.51 214.93 258.03 203.83 257.22 192.76C240.61 193.92 224.03 195.47 207.89 195.99Z" fill="#ED6A4C"/>
<path d="M202.11 173.19C205.24 185.98 207.91 195.66 207.91 195.66V195.99C224.04 195.47 240.62 193.93 257.23 192.76C256.59 184 255.77 175.26 254.74 166.55C237.08 167.38 219.48 169.55 202.11 173.19Z" fill="#ED6A4C"/>
<path d="M196.33 147.5C198.08 156.22 200.18 165.3 202.11 173.19C219.48 169.56 237.08 167.38 254.74 166.55C253.57 156.67 252.15 146.84 250.46 137.06C232.22 139.12 214.16 142.69 196.33 147.49V147.5Z" fill="#ED6A4C"/>
<path opacity="0.2" d="M335.92 140.03C331.02 138.89 326.04 137.91 320.93 137.21C307.78 135.59 294.69 134.92 281.68 135.09C280.83 145.45 280.38 155.86 280.23 166.29C296.81 166.7 313.36 168.25 329.75 170.83C331.67 160.78 333.95 149.95 335.92 140.03Z" fill="#F6F6F6"/>
<path opacity="0.2" d="M328.56 225.41C327.19 217.3 326.04 209.39 325.67 203.01C325.53 200.66 325.69 197.6 326.06 194.04C311.18 191.53 295.87 191.07 280.43 191.53C280.73 202.6 281.29 213.66 282 224.7C297.61 224.08 313.17 224.11 328.56 225.41Z" fill="#F6F6F6"/>
<path opacity="0.2" d="M207.89 195.99L206.48 230.21C223.75 228.97 241.21 227.29 258.7 226.04C258.51 214.93 258.03 203.83 257.22 192.76C240.61 193.92 224.03 195.47 207.89 195.99Z" fill="#F6F6F6"/>
<path opacity="0.2" d="M196.33 147.5C198.08 156.22 200.18 165.3 202.11 173.19C219.48 169.56 237.08 167.38 254.74 166.55C253.57 156.67 252.15 146.84 250.46 137.06C232.22 139.12 214.16 142.69 196.33 147.49V147.5Z" fill="#F6F6F6"/>
<path d="M193.96 111.99C190.82 114.8 192.9 130.47 196.32 147.5C214.15 142.7 232.21 139.12 250.45 137.07C247.77 121.58 244.44 106.23 240.41 91.11C221.86 98.4 198.31 108.11 193.96 112V111.99Z" fill="#ED6A4C"/>
<path d="M280.24 166.29C280.39 155.86 280.84 145.45 281.69 135.09C271.23 135.22 260.82 135.9 250.46 137.07C252.15 146.85 253.57 156.68 254.74 166.56C263.23 166.16 271.74 166.09 280.24 166.3V166.29Z" fill="#192441"/>
<path d="M257.23 192.76C258.03 203.83 258.52 214.93 258.71 226.04C266.47 225.49 274.24 225.02 282 224.71C281.29 213.67 280.72 202.61 280.43 191.54C272.72 191.77 264.97 192.22 257.24 192.77L257.23 192.76Z" fill="#192441"/>
<path d="M258.22 263.72L285.08 264.84C283.95 251.54 282.86 238.15 281.99 224.71C274.23 225.02 266.47 225.49 258.7 226.04C258.92 238.6 258.76 251.18 258.21 263.72H258.22Z" fill="#192441"/>
<path d="M280.24 166.29C271.74 166.08 263.23 166.16 254.74 166.55C255.77 175.26 256.6 184 257.23 192.76C264.97 192.22 272.71 191.76 280.42 191.53C280.19 183.11 280.12 174.69 280.24 166.28V166.29Z" fill="#192441"/>
<path d="M263.69 82.16C263.69 82.16 253.25 86.05 240.42 91.1C244.45 106.23 247.79 121.57 250.46 137.06C260.81 135.89 271.23 135.22 281.69 135.08C282.99 119.16 285.21 103.34 288.68 87.73C274.87 84.43 263.69 82.16 263.69 82.16Z" fill="#192441"/>
<path d="M240.2 198.67C236.5 199.92 232.41 198.55 229.01 196.63C225.61 194.71 222.46 192.23 218.75 191.01C214.83 189.72 210.42 189.98 206.67 191.71C205.02 192.48 203.51 193.51 202.03 194.57C200.58 195.61 199.06 196.84 198.71 198.58C198.34 200.41 199.37 202.2 200.45 203.72C202.06 205.97 204.14 208.23 206.89 208.56C209.63 208.89 212.3 207.19 215.04 207.47C218.08 207.78 220.3 210.35 222.67 212.29C227.93 216.58 235.33 218.11 241.87 216.26C240.58 210.26 241.73 204.6 240.21 198.65" fill="#F4A39B"/>
<path d="M193.96 111.99C193.96 111.99 218.08 122.02 220.23 146.87C222.38 171.72 203.67 185.46 203.67 185.46L193.95 111.98L193.96 111.99Z" fill="#192441"/>
<path d="M281.53 81.4601C281.39 78.4601 281.68 77.0301 281.68 77.0301C281.68 77.0301 243.17 58.6501 243.6 86.8501C243.65 89.8901 243.76 92.5701 243.94 94.9201C258.6 104.09 273.91 94.8001 281.53 81.4601Z" fill="#F4A39B"/>
<path d="M281.53 81.4601C273.92 94.7901 258.6 104.08 243.94 94.9201C245.44 114.39 251.59 111.84 262.47 111.99C274.67 112.16 283.52 93.5201 283.52 93.5201C282.14 88.1201 281.66 84.1601 281.53 81.4601Z" fill="#F4A39B"/>
<path opacity="0.1" d="M281.94 85.7001C281.8 82.7001 281.68 77.0301 281.68 77.0301C281.68 77.0301 243.17 58.6501 243.6 86.8501C243.65 89.8901 243.41 96.2401 243.6 98.6001C258.26 107.77 274.33 99.0401 281.94 85.7101V85.7001Z" fill="#282323"/>
<path d="M286.54 55.65C287.18 55.65 287.18 54.65 286.54 54.65C285.9 54.65 285.9 55.65 286.54 55.65Z" fill="#34B9CA"/>
<path d="M340 105.79C340 105.79 317.92 106.56 312.89 131.74C307.86 156.92 306.69 178.22 306.69 178.22C306.69 178.22 244.33 190.23 236.19 195.65V220.83C236.19 220.83 318.7 219.67 328.38 211.53C338.06 203.4 358.51 114.92 340 105.78V105.79Z" fill="#192441"/>
<path d="M232.71 31.16C232.71 31.16 227.79 46.83 232.71 67.63C237.63 88.43 246.8 98.72 259.79 97.53C272.78 96.34 286.83 88.86 286.53 62.85C286.23 36.84 283.26 28.17 283.26 28.17L237.8 16.51L232.71 31.16Z" fill="#F4A39B"/>
<path d="M256.04 82.66C256.91 81.69 258.17 81.16 259.47 81.42C260.77 81.68 262.04 82.48 263.45 82.44C264.77 82.41 265.81 81.64 266.74 80.78C267.67 79.92 268.79 78.59 270.17 78.95C271.05 79.19 271.43 77.82 270.55 77.58C269.08 77.19 267.74 77.95 266.66 78.9C265.58 79.85 264.61 81.17 263.05 81C261.49 80.83 260.3 79.93 258.79 79.93C257.35 79.93 255.99 80.59 255.03 81.65C254.42 82.33 255.42 83.33 256.03 82.65L256.04 82.66Z" fill="#1D1D1B"/>
<path d="M230.04 40.25C230.04 40.25 232.68 42.36 234.38 37.3C236.08 32.24 234.78 30.35 241.37 32.66C247.96 34.98 255.03 36.1 274.29 29.26C287.84 24.45 280.03 34.06 281.68 38.89C283.33 43.72 286.53 68.16 286.53 68.16C286.53 68.16 291.4 46.44 294.22 38.65C297.05 30.85 290.06 7.03003 274.16 3.24003C258.26 -0.549972 242.7 0.550029 231.99 10.03C221.28 19.51 230.03 40.24 230.03 40.24L230.04 40.25Z" fill="#634E42"/>
<path d="M283.17 51.3801C283.17 51.3801 289.41 48.0901 288.68 57.0701C287.95 66.0501 281.69 70.7901 281.69 70.7901L280.18 53.7701L283.16 51.3801H283.17Z" fill="#F4A39B"/>
<path opacity="0.1" d="M234.92 75.4301C234.92 75.4301 240.8 72.8501 242.94 74.8501C245.08 76.8501 246.49 78.1401 248.8 78.4301C251.11 78.7201 257.33 84.2801 257.22 87.7301C257.11 91.1801 255.26 97.6201 255.26 97.6201L242.22 91.09L236.48 86.7501L235.51 77.3301L234.91 75.4201L234.92 75.4301Z" fill="#282323"/>
<path d="M223.66 112.64C226.45 104.19 225.3 94.98 226.52 86.16C226.83 83.9 227.32 81.62 228.41 79.62C229.11 78.35 230.16 77.14 231.58 76.84C233.06 76.53 234.59 77.3 236.09 77.11C237.24 76.97 238.32 76.29 239.47 76.4C241.29 76.58 242.32 78.59 243.94 79.43C245.58 80.28 247.89 80 248.96 81.5C249.28 81.95 249.43 82.49 249.68 82.98C250.83 85.19 253.91 85.79 255.16 87.95C255.6 88.7 255.77 89.57 255.86 90.43C256.43 95.6 254.54 100.72 252.33 105.42C251.76 106.64 251.16 107.85 250.4 108.96C248.55 111.67 245.76 113.73 244.41 116.73C243.69 118.34 243.44 120.11 243.19 121.85C243.02 123.07 242.85 124.28 242.68 125.5C239.05 124.8 235.8 122.82 232.82 120.63C229.84 118.44 226.86 114.47 223.65 112.63" fill="#F4A39B"/>
<path d="M193.96 111.99C193.96 111.99 190.22 109.74 192.41 149.8C194.6 189.86 187.03 178.73 196.95 193.65C206.87 208.57 213.35 215.34 218 213.82C222.65 212.3 241.39 181.21 243.44 163.31C245.49 145.41 251.04 127.57 247.83 122.31C244.62 117.05 223.27 109.74 223.27 109.74C223.27 109.74 213.91 126.4 212.45 140.15C210.99 153.9 202.8 171.73 202.8 171.73L193.96 111.99Z" fill="#192441"/>
<path d="M267.3 53.35C267.79 53.29 268.32 53.24 268.74 53.5C269.15 53.75 269.35 54.24 269.49 54.71C269.67 55.34 269.74 56.12 269.26 56.57C269 56.81 268.62 56.9 268.27 56.95C267.8 57.02 267.3 57.05 266.87 56.84C266.35 56.59 266.05 56.04 265.84 55.51C265.59 54.9 265.45 54.09 265.95 53.66C266.11 53.52 266.31 53.45 266.51 53.39C266.9 53.28 267.31 53.25 267.72 53.28" fill="#1D1D1B"/>
<path d="M267.3 52.6101C267.88 52.5401 268.47 52.5301 269.01 52.8001C269.55 53.0701 269.87 53.6001 270.08 54.1401C270.44 55.0601 270.58 56.3401 269.78 57.0801C269.31 57.5201 268.7 57.6301 268.08 57.7001C267.46 57.7701 266.86 57.7001 266.35 57.3801C265.9 57.0901 265.56 56.6501 265.33 56.1701C265.1 55.6901 264.92 55.1701 264.87 54.6201C264.82 53.9501 265.09 53.2801 265.66 52.9201C266.23 52.5601 267.04 52.4701 267.7 52.5201C268.08 52.5501 268.46 52.8401 268.44 53.2601C268.42 53.6301 268.12 54.0301 267.7 54.0001C267.47 53.9801 267.25 54.0001 267.02 54.0001C267.05 54.0001 267.16 54.0001 267.02 54.0001C266.95 54.0101 266.89 54.0201 266.82 54.0401C266.71 54.0601 266.61 54.1001 266.51 54.1301C266.33 54.1901 266.62 54.0601 266.46 54.1601C266.36 54.2401 266.43 54.1801 266.46 54.1601C266.43 54.1901 266.4 54.2201 266.37 54.2501C266.3 54.3101 266.45 54.1001 266.39 54.2401L266.35 54.3201L266.39 54.2301C266.39 54.2301 266.37 54.2901 266.36 54.3201C266.36 54.3301 266.34 54.4201 266.34 54.4201C266.35 54.3001 266.36 54.2901 266.34 54.3701V54.4201C266.34 54.4901 266.37 54.6101 266.34 54.6801V54.5901C266.34 54.5901 266.34 54.6401 266.34 54.6701C266.34 54.7101 266.36 54.7601 266.37 54.8001C266.41 54.9801 266.47 55.1501 266.54 55.3301C266.46 55.1701 266.58 55.4401 266.54 55.3301C266.56 55.3601 266.57 55.4001 266.59 55.4301C266.63 55.5101 266.67 55.6001 266.72 55.6801C266.76 55.7401 266.81 55.8701 266.87 55.9201C266.77 55.8401 266.82 55.8601 266.86 55.9001C266.9 55.9501 266.94 56.0001 266.99 56.0401C267.02 56.0701 267.06 56.1101 267.09 56.1301C266.95 56.0601 267.04 56.0901 267.07 56.1101C267.12 56.1401 267.17 56.1701 267.21 56.1901C267.07 56.1501 267.18 56.1801 267.21 56.1901C267.26 56.2001 267.31 56.2201 267.36 56.2301C267.4 56.2301 267.54 56.2801 267.37 56.2401C267.48 56.2601 267.6 56.2601 267.71 56.2501C267.8 56.2501 267.9 56.2501 267.99 56.2301C268.02 56.2301 268.23 56.2201 268.04 56.2301C268.08 56.2301 268.12 56.2201 268.15 56.2101C268.24 56.1901 268.34 56.1801 268.43 56.1501C268.47 56.1501 268.5 56.1301 268.54 56.1201C268.58 56.1101 268.61 56.1001 268.65 56.0801C268.57 56.1201 268.55 56.1201 268.6 56.1001C268.63 56.0801 268.71 56.0601 268.72 56.0301C268.7 56.0901 268.64 56.1001 268.7 56.0401L268.74 56.0001C268.79 55.9401 268.79 55.9501 268.72 56.0301C268.73 56.0301 268.77 55.9501 268.77 55.9501C268.78 55.9301 268.87 55.8101 268.8 55.9101C268.74 55.9901 268.8 55.9001 268.81 55.8601C268.81 55.8301 268.83 55.8001 268.83 55.7601C268.83 55.7301 268.84 55.6901 268.85 55.6601C268.84 55.7601 268.83 55.7901 268.84 55.7301C268.84 55.6501 268.84 55.5701 268.84 55.4901C268.84 55.4401 268.84 55.3801 268.83 55.3301C268.83 55.2701 268.85 55.2301 268.83 55.3701C268.83 55.3001 268.8 55.1801 268.78 55.1101C268.76 55.0101 268.73 54.9001 268.7 54.8001C268.67 54.7101 268.64 54.6301 268.61 54.5401C268.55 54.3701 268.69 54.6801 268.6 54.5201C268.57 54.4701 268.55 54.4201 268.52 54.3801C268.5 54.3501 268.48 54.3201 268.46 54.2901C268.39 54.1601 268.55 54.3901 268.43 54.2501C268.4 54.2201 268.37 54.1901 268.34 54.1601C268.23 54.0501 268.46 54.2201 268.32 54.1501C268.32 54.1501 268.14 54.0601 268.25 54.1101C268.34 54.1501 268.14 54.0801 268.12 54.0801C268.1 54.0801 268.02 54.0501 268.01 54.0601C268.11 54.0701 268.12 54.0801 268.03 54.0601H267.97C267.73 54.0501 267.49 54.0701 267.25 54.1001C266.86 54.1501 266.49 53.7301 266.51 53.3601C266.53 52.9201 266.83 52.6701 267.25 52.6201L267.3 52.6101Z" fill="#1D1D1B"/>
<path d="M243.97 54.4001C244.66 54.2301 245.44 54.67 245.65 55.34C245.72 55.57 245.73 55.8201 245.73 56.0601C245.73 56.3101 245.72 56.5701 245.62 56.8101C245.5 57.1101 245.25 57.3501 244.96 57.4901C244.36 57.7901 243.59 57.6401 243.08 57.2001C242.57 56.7601 242.32 56.07 242.34 55.39C242.34 55.19 242.37 54.99 242.45 54.8C242.65 54.34 243.16 54.05 243.66 54.05C244.16 54.05 244.64 54.2901 244.99 54.6501" fill="#1D1D1B"/>
<path d="M243.77 53.68C244.86 53.43 245.97 54.04 246.34 55.09C246.44 55.37 246.46 55.69 246.47 55.99C246.48 56.29 246.46 56.58 246.38 56.86C246.23 57.41 245.81 57.91 245.29 58.15C244.77 58.39 244.16 58.45 243.59 58.29C243.01 58.13 242.55 57.78 242.19 57.31C241.53 56.44 241.33 55.01 242.03 54.11C242.42 53.6 243.08 53.3 243.72 53.32C244.41 53.34 245.04 53.66 245.52 54.14C245.79 54.41 245.81 54.92 245.52 55.19C245.23 55.46 244.77 55.48 244.47 55.19C244.43 55.15 244.39 55.11 244.35 55.08C244.33 55.06 244.25 54.98 244.37 55.08C244.3 55.02 244.21 54.97 244.14 54.93C244.11 54.91 244.07 54.9 244.04 54.88C243.88 54.79 244.18 54.92 244.01 54.87C243.94 54.85 243.81 54.78 243.74 54.8H243.83C243.83 54.8 243.76 54.8 243.72 54.8C243.68 54.8 243.65 54.8 243.61 54.8C243.44 54.8 243.74 54.77 243.63 54.8C243.59 54.8 243.55 54.82 243.51 54.83C243.48 54.83 243.45 54.85 243.41 54.86C243.25 54.9 243.54 54.78 243.41 54.86C243.38 54.88 243.35 54.89 243.32 54.91C243.29 54.93 243.26 54.95 243.24 54.96L243.31 54.9C243.31 54.9 243.22 54.99 243.2 55C243.13 55.06 243.18 54.98 243.22 54.96C243.2 54.97 243.17 55.04 243.15 55.06C243.05 55.17 243.12 55.11 243.15 55.06C243.12 55.09 243.12 55.16 243.11 55.2C243.1 55.25 243.05 55.37 243.1 55.21C243.07 55.3 243.09 55.43 243.09 55.52C243.09 55.59 243.08 55.69 243.11 55.76V55.67C243.11 55.67 243.11 55.74 243.11 55.77C243.11 55.8 243.13 55.84 243.13 55.87C243.15 55.96 243.18 56.04 243.21 56.12C243.25 56.25 243.2 56.1 243.2 56.09C243.2 56.14 243.26 56.21 243.28 56.26C243.32 56.33 243.36 56.39 243.41 56.46C243.51 56.61 243.3 56.35 243.43 56.48C243.45 56.5 243.48 56.53 243.5 56.56C243.53 56.59 243.56 56.62 243.6 56.65C243.66 56.65 243.69 56.73 243.6 56.65C243.61 56.65 243.67 56.7 243.69 56.71C243.74 56.74 243.79 56.77 243.85 56.8C243.94 56.85 243.94 56.8 243.84 56.8C243.86 56.8 243.92 56.83 243.94 56.84C244.02 56.87 244.11 56.89 244.19 56.9C244.36 56.93 244.06 56.9 244.17 56.9C244.21 56.9 244.26 56.9 244.3 56.9C244.33 56.9 244.37 56.9 244.4 56.9C244.43 56.9 244.47 56.9 244.5 56.9C244.4 56.91 244.37 56.92 244.43 56.9C244.5 56.88 244.58 56.86 244.65 56.84C244.81 56.79 244.52 56.92 244.66 56.84C244.69 56.82 244.72 56.81 244.75 56.79C244.76 56.79 244.89 56.68 244.8 56.76C244.71 56.84 244.83 56.73 244.84 56.72C244.86 56.7 244.89 56.67 244.91 56.65C245.01 56.55 244.84 56.77 244.93 56.61C244.95 56.58 244.98 56.53 244.99 56.5C244.96 56.66 244.97 56.56 244.97 56.52C244.97 56.47 245.02 56.4 245.01 56.35C245.01 56.37 245 56.52 245.01 56.37C245.01 56.27 245.01 56.17 245.01 56.08C245.01 55.99 245.03 55.81 245 55.72C245 55.74 245.03 55.88 245 55.74C244.99 55.68 244.97 55.62 244.96 55.56V55.52C244.92 55.45 244.92 55.46 244.96 55.57C244.95 55.57 244.9 55.46 244.89 55.45C244.89 55.45 244.84 55.38 244.84 55.37C244.91 55.46 244.92 55.47 244.87 55.41C244.85 55.39 244.84 55.38 244.82 55.36C244.79 55.33 244.76 55.31 244.74 55.28C244.63 55.17 244.88 55.36 244.74 55.28C244.7 55.26 244.51 55.18 244.5 55.15C244.5 55.17 244.67 55.21 244.55 55.17C244.51 55.16 244.46 55.14 244.42 55.13H244.38C244.3 55.11 244.32 55.11 244.44 55.13C244.41 55.14 244.34 55.13 244.3 55.13C244.27 55.13 244.24 55.13 244.21 55.13C244.13 55.13 244.15 55.13 244.27 55.12C244.24 55.12 244.21 55.13 244.18 55.14C243.8 55.23 243.36 55.03 243.27 54.62C243.18 54.24 243.38 53.8 243.78 53.71L243.77 53.68Z" fill="#1D1D1B"/>
<path d="M257.12 51.5101C257.13 55.2701 256.34 58.9701 254.78 62.3901C254.02 64.0501 252.87 65.4901 252.1 67.1401C251.75 67.9001 251.52 68.9801 252.15 69.6601C252.78 70.3401 253.94 70.1901 254.78 70.1101C255.73 70.0201 255.72 71.5001 254.78 71.5901C253.07 71.7501 251.09 71.5401 250.46 69.6401C249.83 67.7201 251 66.0401 251.97 64.4901C254.4 60.6001 255.65 56.0901 255.64 51.5101C255.64 50.5601 257.12 50.5501 257.12 51.5101Z" fill="#1D1D1B"/>
<path d="M247.85 51.21C247.19 50.52 246.39 50.12 245.42 49.97C245.5 49.98 245.39 49.97 245.37 49.97C245.31 49.97 245.26 49.96 245.2 49.95C245.08 49.95 244.95 49.94 244.82 49.94C244.69 49.94 244.57 49.94 244.45 49.95C244.38 49.95 244.31 49.96 244.24 49.97C244.1 49.99 244.32 49.96 244.19 49.97C243.67 50.06 243.28 50.19 242.85 50.44C242.02 50.91 241.27 49.63 242.1 49.16C244.26 47.93 247.17 48.34 248.89 50.15C249.54 50.84 248.5 51.89 247.85 51.2V51.21Z" fill="#1D1D1B"/>
<path d="M264.35 47.89C267.08 47.11 270.25 47.19 272.39 49.29C273.07 49.96 272.03 51.01 271.35 50.34C269.59 48.61 266.96 48.69 264.74 49.32C263.82 49.58 263.43 48.15 264.34 47.89H264.35Z" fill="#1D1D1B"/>
<path d="M249.9 42.0601C250.39 42.8401 250.05 43.8901 249.18 44.2101C248.39 44.5001 247.77 43.9301 247.04 43.7101C246.38 43.5101 245.67 43.4601 244.99 43.6001C244.2 43.7701 243.51 44.2101 242.72 44.3801C242.43 44.4401 242.02 44.3501 241.88 44.0401C241.49 43.1901 242.12 42.6401 242.84 42.3101C243.52 42.0101 244.21 41.7701 244.94 41.6101C246.38 41.3001 247.85 41.3001 249.29 41.5701C249.68 41.6401 249.91 42.1201 249.81 42.4801C249.7 42.8901 249.3 43.0701 248.9 43.0001C247.91 42.8101 246.86 42.7801 245.86 42.9401C245.35 43.0201 244.85 43.1401 244.36 43.3001C244.12 43.3801 243.88 43.4601 243.65 43.5601C243.54 43.6101 243.43 43.6601 243.33 43.7101C243.02 43.8601 243.24 43.8401 243.23 43.5801L243.13 43.2101L243.16 43.2801L242.32 42.9401C242.96 42.8001 243.52 42.4701 244.14 42.2701C244.76 42.0701 245.44 41.9901 246.1 42.0301C246.76 42.0701 247.39 42.2201 248 42.4801C248.15 42.5401 248.3 42.6101 248.45 42.6901C248.49 42.7101 248.7 42.7801 248.71 42.8001C248.63 42.6901 248.74 43.0001 248.61 42.7901C248.1 41.9801 249.38 41.2401 249.88 42.0401L249.9 42.0601Z" fill="#1D1D1B"/>
<path d="M274.36 42.4001C272.77 41.5001 271.06 40.8501 269.27 40.4701C268.48 40.3001 267.66 40.1501 266.84 40.1501C266.36 40.1501 265.22 40.1801 265.01 40.7601C265 40.8001 264.88 40.7901 265.07 40.8301C265.28 40.8801 265.51 40.7901 265.71 40.7401C266.12 40.6201 266.51 40.4801 266.92 40.3901C267.74 40.2101 268.59 40.1201 269.43 40.1301C270.27 40.1401 271.12 40.2601 271.93 40.4701C272.34 40.5701 272.73 40.7001 273.12 40.8601C273.35 40.9501 273.57 41.0401 273.79 41.1501C273.9 41.2001 274.01 41.2501 274.11 41.3101C274.45 41.4201 274.47 41.7101 274.18 42.1801C273.36 41.7001 274.1 40.4201 274.92 40.9001C275.7 41.3501 275.52 42.5701 274.66 42.8301C274.26 42.9501 273.86 42.8301 273.5 42.6601C273.05 42.4501 272.61 42.2401 272.13 42.0801C270.34 41.5001 268.41 41.4601 266.6 42.0101C265.73 42.2701 264.81 42.5801 264.02 41.9401C263.26 41.3301 263.34 40.3601 263.97 39.6801C265.18 38.3701 267.22 38.6401 268.8 38.9001C271 39.2701 273.13 40.0501 275.08 41.1401C275.91 41.6101 275.17 42.8901 274.34 42.4201L274.36 42.4001Z" fill="#1D1D1B"/>
<path d="M265.11 40.19C265.76 40.23 266.4 40.21 267.04 40.12L266.84 40.15C267.05 40.12 267.27 40.09 267.48 40.04C267.68 40 267.87 40.01 268.05 40.11C268.2 40.2 268.35 40.38 268.39 40.55C268.47 40.92 268.28 41.38 267.88 41.46C266.97 41.64 266.04 41.72 265.11 41.66C264.73 41.64 264.35 41.34 264.37 40.92C264.39 40.54 264.69 40.15 265.11 40.18V40.19Z" fill="#1D1D1B"/>
</g>
<path d="M320.94 137.2C326.05 137.9 331.03 138.88 335.93 140.02C339.21 123.5 341.61 109.49 340 105.78C337.65 100.37 310.03 92.82 288.68 87.72C285.2 103.34 282.99 119.15 281.69 135.07C294.7 134.9 307.79 135.57 320.94 137.19V137.2Z" fill="#ED6A4C"/>
<path d="M340 105.79C340 105.79 317.92 106.56 312.89 131.74C307.86 156.92 306.69 178.22 306.69 178.22C306.69 178.22 244.33 190.23 236.19 195.65V220.83C236.19 220.83 318.7 219.67 328.38 211.53C338.06 203.4 358.51 114.92 340 105.78V105.79Z" fill="#192441"/>
<path d="M128.67 117.4V127.18L130.23 125.9L131.42 129.09L132.7 125.26L134.3 129.89L136.21 126.06V117.8L128.67 117.4Z" fill="#634E42"/>
</g>
<defs>
<clipPath id="clip0_220_846">
<rect width="373.51" height="268.42" fill="white"/>
</clipPath>
</defs>
</svg>
