<svg width="374" height="269" viewBox="0 0 374 269" fill="none" xmlns="http://www.w3.org/2000/svg">
<path opacity="0.5" d="M332.92 39.02C331.5 33.39 326.35 29.56 320.61 29.5C318.34 29.47 316.08 29.5 313.81 29.5H54.17C53.45 29.5 52.73 29.48 52.02 29.53C45.38 29.97 40.3 35.57 40.21 42.16C40.17 45.08 40.21 48.01 40.21 50.93V219.59C40.21 222.95 39.77 226.92 40.81 230.16C42.51 235.43 47.45 238.87 52.93 238.93C53.65 238.93 54.36 238.93 55.08 238.93H320.69C327.64 238.82 333.22 233.26 333.32 226.29C333.33 225.49 333.32 224.69 333.32 223.89V43.67C333.32 42.1 333.32 40.57 332.93 39.02H332.92Z" fill="#34B9CA"/>
<path d="M263.27 173.6C263.27 173.6 276.06 174.28 282.17 181.76C288.28 189.24 298.21 208.85 298.21 208.85L286.95 232.49L255.58 199.88L263.27 173.6Z" fill="#192441"/>
<path d="M295.4 137.58C332.193 137.58 362.02 107.753 362.02 70.96C362.02 34.1668 332.193 4.34003 295.4 4.34003C258.607 4.34003 228.78 34.1668 228.78 70.96C228.78 107.753 258.607 137.58 295.4 137.58Z" fill="#34B9CA"/>
<path d="M282.49 105.27C282.37 105.27 282.25 105.27 282.12 105.27C280.02 105.17 278.06 104.21 276.69 102.63L253.27 75.5C250.51 72.3 250.86 67.46 254.06 64.7C257.26 61.94 262.1 62.29 264.86 65.49L283.02 86.52L326.44 45C329.5 42.08 334.35 42.19 337.27 45.24C340.19 48.3 340.09 53.14 337.03 56.07L287.79 103.16C286.36 104.53 284.46 105.28 282.5 105.28L282.49 105.27Z" fill="white"/>
<path d="M262.71 185.02C265.09 182.12 265.14 178.03 265.51 174.3C266.28 166.67 268.95 159.23 273.22 152.86C275.23 149.85 277.6 147.06 279.15 143.79C280.52 140.9 281.2 137.74 281.64 134.57C281.87 132.92 282.06 131.18 282.98 129.79C285.01 126.7 290.03 126.79 292.7 129.36C295.36 131.93 295.95 136.07 295.23 139.7C294.51 143.33 292.71 146.64 291.17 150C290.81 150.79 290.45 151.66 290.64 152.51C290.78 153.14 291.21 153.66 291.68 154.11C293.44 155.8 295.78 156.68 297.91 157.86C300.04 159.04 302.13 160.75 302.62 163.14C302.82 164.1 302.74 165.11 303.03 166.05C303.99 169.14 308.63 170.54 308.46 173.77C308.35 175.88 306.07 177.45 306.11 179.56C306.13 180.55 306.67 181.45 306.99 182.38C307.71 184.47 307.32 186.9 305.98 188.66C305.01 189.93 303.53 190.98 303.29 192.56C303.11 193.78 303.73 194.97 303.79 196.21C303.9 198.4 302.26 200.29 300.49 201.59C298.73 202.9 296.7 203.95 295.42 205.73C293.26 208.72 293.74 212.99 291.72 216.07C291.36 216.62 290.89 217.14 290.26 217.32C289.77 217.47 289.23 217.39 288.73 217.3C282.31 216.23 275.78 214.22 271.03 209.78C264.53 203.7 262.51 194.13 262.76 185.24" fill="#F4A39B"/>
<mask id="mask0_220_788" style="mask-type:luminance" maskUnits="userSpaceOnUse" x="40" y="29" width="294" height="210">
<path d="M332.92 39.02C331.5 33.39 326.35 29.56 320.61 29.5C318.34 29.47 316.08 29.5 313.81 29.5H54.17C53.45 29.5 52.73 29.48 52.02 29.53C45.38 29.97 40.3 35.57 40.21 42.16C40.17 45.08 40.21 48.01 40.21 50.93V219.59C40.21 222.95 39.77 226.92 40.81 230.16C42.51 235.43 47.45 238.87 52.93 238.93C53.65 238.93 54.36 238.93 55.08 238.93H320.69C327.64 238.82 333.22 233.26 333.32 226.29C333.33 225.49 333.32 224.69 333.32 223.89V43.67C333.32 42.1 333.32 40.57 332.93 39.02H332.92Z" fill="white"/>
</mask>
<g mask="url(#mask0_220_788)">
<path d="M49.16 251.35C49.16 251.35 43.12 199.21 25.59 186.29C21.55 191.17 18.56 196.42 17.41 201.92C11.55 229.83 22.99 251.63 22.99 251.63L113.43 251.5C113.43 251.45 113.41 251.4 113.41 251.35H49.16Z" fill="#192441"/>
<path d="M201.21 231.76C205.66 238.39 211.2 244.98 218.08 251.35C218.08 251.35 218.16 250.21 218.2 248.2C212.62 243.33 206.63 237.41 201.21 231.76Z" fill="#192441"/>
<path d="M256.02 222.42C245.75 189.05 204.16 171.53 185 165.1C184.93 165.8 184.86 166.51 184.8 167.24C217.19 187.97 218.46 235.53 218.2 248.2C221.89 251.42 225.4 254.18 228.45 256.08C244.63 266.18 269.48 266.18 256.02 222.42Z" fill="#192441"/>
<path d="M184.8 167.24C183.41 183.72 185.24 207.97 201.21 231.76C206.63 237.4 212.62 243.33 218.2 248.2C218.46 235.53 217.19 187.97 184.8 167.24Z" fill="#192441"/>
<path d="M108.57 226.61C103.37 205.42 95.41 185.02 83.96 166.39C80.34 163.65 77.23 159.28 74.97 153.05C68.84 155.68 40.24 168.59 25.59 186.3C34.96 193.2 41.04 211.31 44.68 226.67C65.98 227.02 87.28 226.96 108.57 226.61Z" fill="#ED6A4C"/>
<path d="M44.68 226.67C47.85 240.05 49.16 251.35 49.16 251.35H113.41C112.19 243.02 110.58 234.76 108.58 226.61C87.28 226.95 65.98 227.02 44.69 226.67H44.68Z" fill="#ED6A4C"/>
<path d="M120.92 152.98C110.34 168.05 94.86 174.64 83.96 166.39C99.81 192.19 108.99 221.38 113.4 251.35H158.32C151.98 218.16 143.73 185.33 128.8 154.29C125.4 153.77 122.5 153.3 120.92 152.98Z" fill="#192441"/>
<path d="M184.8 167.24C184.86 166.51 184.93 165.8 185 165.1C179.04 163.1 175.24 162.17 175.24 162.17L175.27 162.35C168.59 159.66 160.88 157.95 151.97 157.57C151.97 157.57 138.37 155.75 128.8 154.3C139.84 177.27 147.22 201.21 152.89 225.56C167.44 225.12 181.98 224.6 196.52 224.06C184.88 202.83 183.55 181.94 184.79 167.25L184.8 167.24Z" fill="#ED6A4C"/>
<path d="M201.21 231.76C199.49 229.19 197.94 226.62 196.53 224.05C181.99 224.59 167.44 225.11 152.9 225.55C154.89 234.11 156.68 242.71 158.33 251.35H218.09C211.21 244.97 205.67 238.38 201.22 231.76H201.21Z" fill="#ED6A4C"/>
<path opacity="0.2" d="M44.68 226.67C47.85 240.05 49.16 251.35 49.16 251.35H113.41C112.19 243.02 110.58 234.76 108.58 226.61C87.28 226.95 65.98 227.02 44.69 226.67H44.68Z" fill="#F6F6F6"/>
<path opacity="0.2" d="M201.21 231.76C199.49 229.19 197.94 226.62 196.53 224.05C181.99 224.59 167.44 225.11 152.9 225.55C154.89 234.11 156.68 242.71 158.33 251.35H218.09C211.21 244.97 205.67 238.38 201.22 231.76H201.21Z" fill="#F6F6F6"/>
<path d="M263.27 173.6C263.27 173.6 260.89 202.75 276.77 212.02C292.65 221.29 298.21 208.86 298.21 208.86C298.21 208.86 286.63 279.39 251.06 303.99C238.57 312.63 226.48 238.43 226.48 238.43L263.27 173.61V173.6Z" fill="#192441"/>
</g>
<path d="M159.9 90.71C159.9 90.71 166.04 84.26 166.97 69.82C167.89 55.38 174.96 60.91 183.87 46.47C192.78 32.03 188.08 12.68 161.7 13.6C135.33 14.52 134.1 5.00001 115.67 7.15001C97.24 9.30001 103.62 22.2 87.37 26.81C71.12 31.42 65.59 43.71 68.2 58.45C70.81 73.2 80.95 84.87 80.95 84.87L159.9 90.71Z" fill="#ED6A4C"/>
<path d="M78.7 116.73C84.28 145.66 109.95 170.46 138.93 160.13V182.54C138.93 185.94 137.62 189.22 135.28 191.69C127.44 199.95 114.28 199.95 106.44 191.69L72.14 155.5C75.85 143.98 77.74 129.01 78.7 116.74V116.73Z" fill="#F4A39B"/>
<path d="M78.7 116.73C79.7 103.99 79.7 94.16 79.7 94.16L138.93 144.01V160.13C109.96 170.46 84.28 145.66 78.7 116.73Z" fill="#F4A39B"/>
<path opacity="0.1" d="M78.7 116.73C79.7 103.99 79.7 94.16 79.7 94.16L138.93 144.01V160.13C109.96 170.46 84.28 145.66 78.7 116.73Z" fill="#282323"/>
<path d="M82.18 79.35C82.18 79.35 77.26 71.36 70.81 73.21C64.36 75.05 70.5 97.79 82.18 100.24C93.85 102.7 82.18 79.35 82.18 79.35Z" fill="#F4A39B"/>
<path d="M155.6 96.24C155.6 96.24 166.04 113.14 159.59 132.49C153.14 151.84 133.79 153.69 128.56 153.69C123.48 153.69 88.44 150.77 79.76 105.89C101.32 102.32 119.26 87.39 139.61 79.66L155.59 96.25L155.6 96.24Z" fill="#F4A39B"/>
<path d="M79.11 72.9L98.46 36.96L139.62 79.66C119.27 87.4 101.33 102.32 79.77 105.89C79.53 104.65 79.31 103.38 79.11 102.08C79.11 102.08 75.12 81.8 79.11 72.9Z" fill="#ED6A4C"/>
<path d="M156.83 104.85C156.83 104.85 162.05 99.32 162.05 84.57C162.05 69.82 163.89 62.45 145.46 52.93C127.03 43.41 106.14 50.17 98.77 57.54C91.4 64.91 86.17 80.58 88.63 89.8C91.09 99.02 99.38 110.69 110.44 107C121.5 103.31 124.88 100.86 132.25 101.16C139.62 101.47 151.3 109.15 156.83 104.85Z" fill="#F4A39B"/>
<path d="M121.68 126.29C123.69 128.18 126.56 129.73 129.41 130.9C132.17 132.03 135.25 133.05 138.49 132.57C141.53 132.12 144.55 130.68 146.98 129.33C149.24 128.07 151.17 126.13 150.6 123.95C150.25 122.63 149.17 121.73 147.72 121.11C145.64 119.83 142.82 119.17 140.21 118.72C136.52 118.08 132.69 117.99 128.95 118.42C126.22 118.73 122.73 119.22 120.91 120.89C119.05 122.59 120.02 124.75 121.68 126.3V126.29Z" fill="#F4A39B"/>
<path d="M150.52 95.33C156.921 95.33 162.11 89.4963 162.11 82.3C162.11 75.1038 156.921 69.27 150.52 69.27C144.119 69.27 138.93 75.1038 138.93 82.3C138.93 89.4963 144.119 95.33 150.52 95.33Z" stroke="black" stroke-miterlimit="10"/>
<path d="M120.85 94.17C127.251 94.17 132.44 88.3363 132.44 81.14C132.44 73.9437 127.251 68.11 120.85 68.11C114.449 68.11 109.26 73.9437 109.26 81.14C109.26 88.3363 114.449 94.17 120.85 94.17Z" stroke="black" stroke-miterlimit="10"/>
<path d="M137.8 80.31C136.41 80.31 135.03 80.22 133.65 80.06C133.38 80.03 133.15 80.31 133.15 80.56C133.15 80.86 133.38 81.03 133.65 81.06C135.03 81.23 136.41 81.31 137.8 81.31C138.44 81.31 138.44 80.31 137.8 80.31Z" fill="black"/>
<path d="M109.27 76.42C102.09 75.28 95.07 73.28 88.36 70.47C87.77 70.22 87.51 71.19 88.09 71.43C94.8 74.24 101.82 76.24 109 77.38C109.63 77.48 109.9 76.52 109.27 76.42Z" fill="black"/>
<path d="M120.43 83.86C119.72 83.83 118.95 83.81 118.37 84.2C117.8 84.58 117.55 85.26 117.4 85.91C117.19 86.79 117.16 87.85 117.9 88.41C118.3 88.72 118.84 88.8 119.36 88.84C120.04 88.89 120.76 88.88 121.36 88.56C122.08 88.17 122.46 87.4 122.73 86.65C123.04 85.79 123.17 84.68 122.41 84.14C122.17 83.97 121.88 83.88 121.58 83.83C121.01 83.72 120.41 83.71 119.83 83.8" fill="#1D1D1B"/>
<path d="M120.36 82.85C119.51 82.81 118.66 82.85 117.91 83.27C117.15 83.69 116.74 84.43 116.48 85.19C116.05 86.47 115.96 88.23 117.17 89.16C117.89 89.71 118.77 89.81 119.67 89.85C120.57 89.89 121.43 89.75 122.13 89.26C122.75 88.82 123.2 88.2 123.49 87.52C123.79 86.83 124 86.13 124.02 85.37C124.04 84.46 123.59 83.57 122.73 83.13C121.87 82.68 120.71 82.64 119.76 82.77C119.21 82.85 118.7 83.27 118.76 83.84C118.82 84.35 119.29 84.86 119.88 84.78C120.21 84.73 120.52 84.73 120.85 84.73C120.65 84.73 120.81 84.73 120.85 84.73C120.95 84.74 121.04 84.75 121.14 84.77C121.29 84.79 121.44 84.83 121.6 84.86C121.87 84.92 121.43 84.77 121.68 84.89C121.73 84.91 121.83 84.99 121.68 84.88C121.73 84.92 121.77 84.96 121.81 84.99C121.91 85.07 121.69 84.79 121.79 84.97L121.86 85.08L121.8 84.96C121.8 84.96 121.83 85.04 121.85 85.08C121.85 85.1 121.89 85.21 121.89 85.21C121.86 85.05 121.86 85.03 121.87 85.14V85.21C121.89 85.31 121.85 85.47 121.89 85.56V85.43C121.89 85.43 121.89 85.5 121.89 85.54C121.89 85.6 121.87 85.66 121.86 85.72C121.81 85.97 121.74 86.21 121.66 86.45C121.61 86.6 121.75 86.22 121.66 86.45C121.64 86.5 121.62 86.55 121.6 86.59C121.55 86.71 121.49 86.83 121.43 86.94C121.38 87.03 121.31 87.21 121.23 87.27C121.37 87.15 121.3 87.19 121.25 87.24C121.19 87.31 121.14 87.38 121.07 87.44C121.03 87.48 120.98 87.54 120.93 87.57C121.13 87.46 121 87.52 120.95 87.54C120.88 87.58 120.82 87.62 120.75 87.66C120.79 87.64 120.94 87.59 120.75 87.66C120.68 87.68 120.61 87.71 120.54 87.73C120.48 87.75 120.29 87.81 120.52 87.75C120.37 87.79 120.19 87.79 120.03 87.8C119.89 87.8 119.76 87.8 119.62 87.8C119.58 87.8 119.28 87.8 119.55 87.8C119.5 87.8 119.44 87.8 119.39 87.79C119.25 87.78 119.12 87.76 118.98 87.74C118.93 87.74 118.87 87.72 118.82 87.71C118.77 87.7 118.71 87.68 118.66 87.67C118.78 87.71 118.8 87.72 118.73 87.69C118.69 87.67 118.57 87.64 118.55 87.61C118.59 87.69 118.67 87.7 118.58 87.62L118.52 87.57C118.44 87.49 118.45 87.51 118.55 87.62C118.53 87.62 118.47 87.52 118.46 87.51C118.44 87.49 118.3 87.33 118.41 87.45C118.51 87.56 118.41 87.43 118.39 87.38C118.37 87.34 118.36 87.29 118.35 87.25C118.34 87.21 118.33 87.16 118.31 87.12C118.34 87.26 118.35 87.29 118.33 87.21C118.33 87.1 118.31 87 118.3 86.89C118.3 86.82 118.3 86.74 118.3 86.67C118.3 86.59 118.26 86.53 118.3 86.72C118.28 86.62 118.33 86.46 118.35 86.36C118.38 86.22 118.41 86.07 118.44 85.93C118.47 85.81 118.51 85.69 118.55 85.57C118.62 85.33 118.45 85.76 118.56 85.54C118.59 85.47 118.62 85.4 118.66 85.34C118.68 85.3 118.71 85.25 118.73 85.21C118.82 85.03 118.6 85.35 118.77 85.15C118.81 85.1 118.85 85.06 118.9 85.01C119.05 84.85 118.73 85.1 118.93 84.99C118.93 84.99 119.17 84.85 119.02 84.93C118.89 84.99 119.17 84.88 119.21 84.87C119.25 84.86 119.35 84.82 119.37 84.83C119.23 84.86 119.22 84.86 119.34 84.84H119.42C119.76 84.8 120.11 84.81 120.46 84.83C121.02 84.86 121.52 84.26 121.46 83.76C121.4 83.16 120.93 82.85 120.34 82.82L120.36 82.85Z" fill="#1D1D1B"/>
<path d="M152.47 84.18C151.48 83.95 150.36 84.55 150.05 85.47C149.95 85.79 149.93 86.12 149.93 86.45C149.93 86.8 149.95 87.15 150.09 87.47C150.26 87.88 150.62 88.21 151.04 88.4C151.91 88.8 153.02 88.6 153.75 88C154.48 87.4 154.85 86.45 154.82 85.53C154.82 85.26 154.77 84.98 154.65 84.73C154.36 84.1 153.63 83.71 152.91 83.71C152.19 83.71 151.49 84.04 150.99 84.53" fill="#1D1D1B"/>
<path d="M152.75 83.21C151.18 82.87 149.58 83.71 149.04 85.14C148.9 85.53 148.87 85.96 148.86 86.37C148.85 86.78 148.88 87.17 148.99 87.56C149.21 88.32 149.81 88.99 150.56 89.31C151.33 89.64 152.19 89.72 153.01 89.5C153.83 89.28 154.51 88.8 155.03 88.16C155.98 86.97 156.26 85.02 155.26 83.79C154.7 83.1 153.75 82.69 152.82 82.72C151.83 82.75 150.92 83.18 150.23 83.84C149.83 84.21 149.81 84.9 150.23 85.27C150.65 85.64 151.31 85.67 151.74 85.27C151.8 85.22 151.86 85.17 151.92 85.11C151.95 85.08 152.07 84.97 151.89 85.12C151.99 85.04 152.12 84.97 152.23 84.91C152.28 84.89 152.33 84.86 152.37 84.84C152.6 84.72 152.16 84.89 152.41 84.83C152.51 84.8 152.7 84.71 152.8 84.74L152.67 84.76C152.72 84.76 152.78 84.76 152.83 84.75C152.88 84.75 152.93 84.75 152.98 84.75C153.22 84.75 152.8 84.71 152.95 84.74C153.01 84.75 153.07 84.76 153.13 84.78C153.18 84.79 153.22 84.81 153.27 84.82C153.5 84.88 153.08 84.71 153.28 84.82C153.32 84.84 153.37 84.86 153.41 84.89C153.45 84.91 153.49 84.94 153.53 84.96L153.43 84.88C153.43 84.88 153.56 85 153.59 85.02C153.69 85.11 153.62 84.99 153.56 84.97C153.6 84.98 153.64 85.08 153.66 85.11C153.7 85.17 153.8 85.26 153.66 85.1C153.7 85.15 153.71 85.24 153.72 85.3C153.74 85.36 153.81 85.53 153.73 85.31C153.77 85.43 153.75 85.61 153.75 85.74C153.75 85.83 153.77 85.98 153.73 86.07L153.75 85.95C153.75 85.95 153.73 86.05 153.72 86.09C153.71 86.14 153.7 86.18 153.69 86.23C153.66 86.35 153.62 86.46 153.58 86.58C153.52 86.76 153.6 86.56 153.6 86.54C153.6 86.61 153.51 86.71 153.48 86.77C153.42 86.86 153.36 86.95 153.3 87.04C153.16 87.24 153.46 86.89 153.28 87.06C153.24 87.09 153.21 87.13 153.18 87.17C153.14 87.21 153.09 87.25 153.04 87.29C152.91 87.4 152.95 87.29 153.05 87.29C153.03 87.29 152.95 87.36 152.93 87.37C152.86 87.41 152.78 87.46 152.7 87.49C152.57 87.55 152.57 87.48 152.72 87.49C152.69 87.49 152.61 87.53 152.58 87.54C152.46 87.58 152.34 87.6 152.22 87.63C151.98 87.68 152.4 87.63 152.24 87.63C152.18 87.63 152.12 87.63 152.05 87.63C152 87.63 151.95 87.63 151.9 87.63C151.85 87.63 151.8 87.63 151.75 87.62C151.9 87.64 151.93 87.64 151.85 87.62C151.74 87.59 151.64 87.57 151.53 87.54C151.3 87.47 151.71 87.65 151.51 87.53C151.47 87.5 151.42 87.48 151.38 87.46C151.36 87.45 151.18 87.31 151.31 87.42C151.44 87.53 151.26 87.37 151.25 87.36C151.21 87.33 151.18 87.29 151.15 87.26C151.01 87.12 151.26 87.43 151.12 87.21C151.09 87.17 151.04 87.11 151.03 87.06C151.07 87.28 151.06 87.14 151.05 87.09C151.04 87.02 150.98 86.93 150.99 86.86C150.99 86.88 151.01 87.09 150.99 86.89C150.99 86.76 150.98 86.62 150.98 86.49C150.98 86.36 150.95 86.12 151 85.99C150.99 86.01 150.95 86.21 151 86.01C151.02 85.93 151.04 85.85 151.06 85.77L151.08 85.71C151.12 85.61 151.11 85.63 151.05 85.78C151.07 85.78 151.13 85.63 151.15 85.62L151.22 85.52C151.12 85.64 151.1 85.66 151.18 85.58C151.2 85.56 151.22 85.53 151.25 85.51C151.29 85.47 151.33 85.44 151.37 85.4C151.17 85.51 151.53 85.25 151.37 85.4C151.42 85.37 151.7 85.26 151.72 85.22C151.71 85.24 151.47 85.3 151.65 85.25C151.71 85.23 151.78 85.21 151.84 85.2H151.9C152.02 85.17 151.99 85.17 151.81 85.2C151.86 85.21 151.95 85.19 152.01 85.19C152.05 85.19 152.1 85.19 152.14 85.19C152.26 85.19 152.23 85.19 152.05 85.18C152.09 85.18 152.14 85.2 152.18 85.21C152.72 85.33 153.36 85.05 153.49 84.51C153.61 84 153.33 83.39 152.75 83.27V83.21Z" fill="#1D1D1B"/>
<path d="M146.88 79.85C147.83 78.9 148.98 78.37 150.38 78.16C150.27 78.18 150.43 78.16 150.45 78.16C150.53 78.16 150.61 78.14 150.69 78.14C150.87 78.13 151.05 78.12 151.23 78.12C151.41 78.12 151.59 78.12 151.77 78.14C151.87 78.14 151.97 78.16 152.07 78.17C152.27 78.19 151.95 78.15 152.14 78.18C152.89 78.3 153.46 78.48 154.08 78.82C155.27 79.46 156.35 77.72 155.15 77.08C152.03 75.41 147.84 75.97 145.36 78.45C144.42 79.39 145.92 80.82 146.87 79.88L146.88 79.85Z" fill="#1D1D1B"/>
<path d="M124.21 76.17C120.21 75.36 115.66 75.75 112.76 78.81C111.84 79.78 113.43 81.11 114.35 80.14C116.73 77.63 120.52 77.49 123.76 78.15C125.1 78.42 125.54 76.44 124.21 76.17Z" fill="#1D1D1B"/>
<path d="M144.92 63.52C144.28 64.63 144.86 66.02 146.14 66.38C147.31 66.7 148.15 65.87 149.17 65.51C150.1 65.17 151.12 65.04 152.11 65.17C153.26 65.33 154.29 65.86 155.44 66.03C155.87 66.09 156.44 65.92 156.61 65.49C157.1 64.29 156.15 63.6 155.08 63.23C154.08 62.88 153.06 62.62 152 62.47C149.9 62.18 147.79 62.31 145.74 62.81C145.18 62.95 144.9 63.61 145.07 64.09C145.27 64.64 145.86 64.85 146.42 64.71C147.83 64.36 149.33 64.23 150.79 64.35C151.53 64.41 152.26 64.53 152.98 64.7C153.33 64.78 153.69 64.88 154.03 64.99C154.19 65.04 154.35 65.1 154.51 65.16C154.97 65.34 154.64 65.33 154.64 64.98L154.75 64.46L154.71 64.56C155.1 64.38 155.49 64.2 155.88 64.02C154.95 63.89 154.11 63.49 153.2 63.28C152.29 63.07 151.3 63.02 150.36 63.13C149.42 63.24 148.52 63.5 147.66 63.91C147.45 64.01 147.24 64.12 147.03 64.24C146.98 64.27 146.68 64.39 146.66 64.42C146.77 64.26 146.63 64.69 146.8 64.39C147.46 63.24 145.56 62.34 144.9 63.49L144.92 63.52Z" fill="#1D1D1B"/>
<path d="M111.73 65.94C114.03 64.71 116.48 63.82 119.06 63.29C120.2 63.05 121.38 62.85 122.56 62.84C123.25 62.84 124.9 62.88 125.2 63.67C125.22 63.72 125.39 63.7 125.11 63.77C124.8 63.84 124.48 63.72 124.19 63.64C123.61 63.48 123.03 63.29 122.44 63.17C121.26 62.93 120.03 62.8 118.82 62.83C117.61 62.85 116.39 63.01 115.21 63.29C114.63 63.43 114.05 63.61 113.49 63.82C113.16 63.94 112.84 64.07 112.52 64.21C112.36 64.28 112.21 64.35 112.06 64.43C111.57 64.59 111.54 64.98 111.96 65.62C113.14 64.96 112.07 63.22 110.89 63.88C109.77 64.5 110.03 66.16 111.27 66.51C111.84 66.67 112.42 66.51 112.94 66.28C113.6 65.99 114.23 65.7 114.92 65.49C117.5 64.7 120.29 64.64 122.88 65.37C124.13 65.72 125.46 66.14 126.59 65.27C127.68 64.43 127.56 63.11 126.65 62.19C124.9 60.41 121.96 60.78 119.69 61.14C116.51 61.65 113.45 62.72 110.65 64.21C109.46 64.85 110.53 66.59 111.72 65.95L111.73 65.94Z" fill="#1D1D1B"/>
<path d="M125.06 62.9C124.13 62.96 123.2 62.93 122.27 62.82L122.55 62.86C122.24 62.82 121.94 62.77 121.63 62.72C121.35 62.67 121.07 62.68 120.81 62.82C120.59 62.94 120.38 63.18 120.32 63.42C120.2 63.92 120.48 64.55 121.06 64.66C122.37 64.91 123.71 65.01 125.05 64.92C125.6 64.89 126.14 64.48 126.11 63.91C126.09 63.39 125.64 62.86 125.05 62.9H125.06Z" fill="#1D1D1B"/>
<path d="M137.8 92.33L144.77 104.23L143.69 107.7L141.73 108.2C141.73 108.2 136.61 108.7 134.02 106.6C131.3 104.39 128.83 101.29 122.47 102.67C116.11 104.05 115.57 100.54 115.57 100.54L137.8 92.33Z" fill="#F4A39B"/>
<path d="M134.43 83.19C134.74 88.3 136.2 93.28 138.73 97.79C139.96 99.99 141.75 101.84 142.99 104.01C143.56 105.01 143.98 106.46 143.14 107.45C142.3 108.44 140.61 108.33 139.4 108.3C138.03 108.27 138.16 110.28 139.52 110.31C142 110.37 144.82 109.9 145.56 107.26C146.31 104.59 144.47 102.41 142.94 100.39C139.11 95.32 136.92 89.3 136.54 83.06C136.46 81.76 134.34 81.89 134.41 83.19H134.43Z" fill="#1D1D1B"/>
<path d="M122.4 102.83C122.842 102.83 123.2 102.472 123.2 102.03C123.2 101.588 122.842 101.23 122.4 101.23C121.958 101.23 121.6 101.588 121.6 102.03C121.6 102.472 121.958 102.83 122.4 102.83Z" fill="#1D1D1B"/>
<path d="M114.76 98.94C115.202 98.94 115.56 98.5818 115.56 98.14C115.56 97.6981 115.202 97.34 114.76 97.34C114.318 97.34 113.96 97.6981 113.96 98.14C113.96 98.5818 114.318 98.94 114.76 98.94Z" fill="#1D1D1B"/>
<path d="M105.53 102.03C105.972 102.03 106.33 101.672 106.33 101.23C106.33 100.788 105.972 100.43 105.53 100.43C105.088 100.43 104.73 100.788 104.73 101.23C104.73 101.672 105.088 102.03 105.53 102.03Z" fill="#1D1D1B"/>
<path d="M110.13 103.64C110.572 103.64 110.93 103.282 110.93 102.84C110.93 102.398 110.572 102.04 110.13 102.04C109.688 102.04 109.33 102.398 109.33 102.84C109.33 103.282 109.688 103.64 110.13 103.64Z" fill="#1D1D1B"/>
<path d="M115.57 106.3C116.012 106.3 116.37 105.942 116.37 105.5C116.37 105.058 116.012 104.7 115.57 104.7C115.128 104.7 114.77 105.058 114.77 105.5C114.77 105.942 115.128 106.3 115.57 106.3Z" fill="#1D1D1B"/>
<path d="M106.77 95.77C107.212 95.77 107.57 95.4119 107.57 94.97C107.57 94.5282 107.212 94.17 106.77 94.17C106.328 94.17 105.97 94.5282 105.97 94.97C105.97 95.4119 106.328 95.77 106.77 95.77Z" fill="#1D1D1B"/>
<path d="M156.75 101.09C157.192 101.09 157.55 100.732 157.55 100.29C157.55 99.8482 157.192 99.49 156.75 99.49C156.308 99.49 155.95 99.8482 155.95 100.29C155.95 100.732 156.308 101.09 156.75 101.09Z" fill="#1D1D1B"/>
<path d="M152.38 102.48C152.822 102.48 153.18 102.122 153.18 101.68C153.18 101.238 152.822 100.88 152.38 100.88C151.938 100.88 151.58 101.238 151.58 101.68C151.58 102.122 151.938 102.48 152.38 102.48Z" fill="#1D1D1B"/>
<path d="M157.55 107.11C157.992 107.11 158.35 106.752 158.35 106.31C158.35 105.868 157.992 105.51 157.55 105.51C157.108 105.51 156.75 105.868 156.75 106.31C156.75 106.752 157.108 107.11 157.55 107.11Z" fill="#1D1D1B"/>
<path d="M124.02 122.67C124.02 122.67 136.82 132.46 145.74 121.8" stroke="#1D1D1B" stroke-width="2.13" stroke-miterlimit="10" stroke-linecap="round"/>
</svg>
