<svg width="374" height="269" viewBox="0 0 374 269" fill="none" xmlns="http://www.w3.org/2000/svg">
<g clip-path="url(#clip0_220_310)">
<path opacity="0.5" d="M332.92 39.02C331.5 33.39 326.35 29.56 320.61 29.5C318.34 29.47 316.08 29.5 313.81 29.5H54.17C53.45 29.5 52.73 29.48 52.02 29.53C45.38 29.97 40.3 35.57 40.21 42.16C40.17 45.08 40.21 48.01 40.21 50.93V219.59C40.21 222.95 39.77 226.92 40.81 230.16C42.51 235.43 47.45 238.87 52.93 238.93C53.65 238.93 54.36 238.93 55.08 238.93H320.69C327.64 238.82 333.22 233.26 333.32 226.29C333.33 225.49 333.32 224.69 333.32 223.89V43.67C333.32 42.1 333.32 40.57 332.93 39.02H332.92Z" fill="#34B9CA"/>
<g opacity="0.5">
<path d="M309.09 75.13C318.37 83.39 323.03 94.77 323.03 109.24C323.03 123.71 318.42 134.5 309.2 142.03C299.99 149.56 287.78 153.33 272.57 153.33L271.7 170.22H244.73L243.62 132.93H253.49C266.22 132.93 276.02 131.25 282.89 127.9C289.76 124.53 293.19 118.39 293.19 109.46C293.19 103.03 291.33 97.91 287.6 94.11C283.87 90.31 278.78 88.42 272.36 88.42C265.94 88.42 260.4 90.24 256.67 93.9C252.96 97.56 251.08 102.59 251.08 109.04H222.13C221.99 100.11 223.88 92.15 227.84 85.12C231.78 78.1 237.59 72.62 245.26 68.68C252.95 64.74 261.97 62.75 272.36 62.75C287.57 62.75 299.81 66.89 309.1 75.14L309.09 75.13ZM244.38 217.49C240.79 214.06 239.01 209.78 239.01 204.66C239.01 199.54 240.8 195.27 244.38 191.84C247.97 188.39 252.54 186.68 258.09 186.68C263.64 186.68 267.96 188.39 271.48 191.84C274.98 195.27 276.75 199.55 276.75 204.66C276.75 209.77 274.98 214.07 271.48 217.49C267.96 220.94 263.5 222.65 258.09 222.65C252.68 222.65 247.97 220.94 244.38 217.49Z" fill="#34B9CA"/>
</g>
<g opacity="0.5">
<path d="M110.49 53.12C116.76 58.7 119.9 66.38 119.9 76.15C119.9 85.92 116.79 93.2 110.56 98.29C104.34 103.38 96.1 105.92 85.83 105.92L85.24 117.32H67.03L66.28 92.15H72.94C81.53 92.15 88.15 91.02 92.79 88.75C97.43 86.47 99.74 82.33 99.74 76.3C99.74 71.96 98.49 68.5 95.97 65.94C93.45 63.38 90.02 62.1 85.68 62.1C81.34 62.1 77.61 63.33 75.09 65.8C72.58 68.27 71.32 71.67 71.32 76.02H51.77C51.67 69.99 52.95 64.62 55.63 59.87C58.29 55.13 62.21 51.43 67.39 48.77C72.58 46.11 78.67 44.77 85.68 44.77C95.95 44.77 104.21 47.57 110.48 53.13L110.49 53.12ZM66.81 149.22C64.39 146.91 63.18 144.01 63.18 140.56C63.18 137.11 64.39 134.22 66.81 131.91C69.23 129.58 72.32 128.43 76.06 128.43C79.8 128.43 82.72 129.59 85.1 131.91C87.46 134.22 88.65 137.12 88.65 140.56C88.65 144 87.46 146.91 85.1 149.22C82.73 151.55 79.71 152.7 76.06 152.7C72.41 152.7 69.23 151.54 66.81 149.22Z" fill="#34B9CA"/>
</g>
<mask id="mask0_220_310" style="mask-type:luminance" maskUnits="userSpaceOnUse" x="40" y="0" width="294" height="239">
<path d="M332.92 39.02C331.5 33.39 326.35 29.56 320.61 29.5C318.34 29.47 316.08 29.5 313.81 29.5H211.4L209.35 0H115.08L91.74 29.5H54.17C53.45 29.5 52.73 29.48 52.02 29.53C45.38 29.97 40.3 35.57 40.21 42.16C40.17 45.08 40.21 48.01 40.21 50.93V219.59C40.21 222.95 39.77 226.92 40.81 230.16C42.51 235.43 47.45 238.87 52.93 238.93C53.65 238.93 54.36 238.93 55.08 238.93H320.69C327.64 238.82 333.22 233.26 333.32 226.29C333.33 225.49 333.32 224.69 333.32 223.89V43.67C333.32 42.1 333.32 40.57 332.93 39.02H332.92Z" fill="white"/>
</mask>
<g mask="url(#mask0_220_310)">
<path d="M122.25 183.22C117.9 167.75 111.03 151.56 106.21 141.04C102.97 133.98 100.66 129.48 100.66 129.48C100.66 129.48 48.0901 144.84 43.9301 152.78C43.9301 152.78 61.8101 163.54 72.9201 180.76C73.4501 181.59 73.9501 182.45 74.4501 183.3C90.51 182.88 106.41 182.87 122.26 183.21L122.25 183.22Z" fill="#ED6A4C"/>
<path d="M126.21 203.33C125.96 200.31 125.47 197.1 124.82 193.78C124.14 190.35 123.27 186.81 122.26 183.23C106.41 182.89 90.51 182.9 74.45 183.32C76.72 187.21 78.62 191.39 79.87 195.84C78.19 201.84 76.54 208 74.95 214.18C92.25 214.18 109.55 214.23 126.85 214.35C126.68 210.25 126.47 206.54 126.21 203.34V203.33Z" fill="#ED6A4C"/>
<path d="M126.85 214.34C109.55 214.23 92.2501 214.18 74.9501 214.17C72.6901 222.99 70.6101 231.86 68.8101 240.46C88.4001 240.34 107.83 240.86 127.23 241.49C127.3 231.43 127.16 222.15 126.84 214.34H126.85Z" fill="#ED6A4C"/>
<path d="M141.2 129.49H117.5L147.77 132.33C145.69 131.43 143.53 130.5 141.2 129.49Z" fill="#192441"/>
<path d="M147.76 132.33C150.53 133.53 153.09 134.63 155.45 135.65C155.24 135.14 155.13 134.96 155.13 134.96" fill="#192441"/>
<path d="M103.4 128.17L100.66 129.49H117.5L103.4 128.17Z" fill="#192441"/>
<path d="M191.2 153.27H191.18C191.18 153.27 191.19 153.27 191.2 153.28V153.27Z" fill="#192441"/>
<path d="M202.17 232.31L202.34 231.86C202.28 231.82 202.22 231.78 202.16 231.74C202.16 231.93 202.16 232.12 202.17 232.32V232.31Z" fill="#192441"/>
<path d="M179.24 261.92C178.46 245.48 176.94 228.22 174.21 212.11C174.21 212.11 166.18 192.6 160.35 173.51C155.45 157.46 152.1 141.72 156.38 138.1C155.97 136.91 155.66 136.13 155.46 135.65C153.1 134.63 150.54 133.53 147.77 132.33L117.5 129.49H100.67C100.67 129.49 102.98 133.99 106.22 141.05C112.16 154 121.21 175.56 124.82 193.78C125.48 197.1 125.97 200.31 126.21 203.33C128.55 231.99 127.3 300.69 119.2 339.48H178.49C178.49 339.48 181.2 303.27 179.24 261.92Z" fill="#192441"/>
<path d="M151.95 187.37L149.01 192.23L155.38 191.83L151.95 187.37Z" fill="#192441"/>
<path d="M156.38 138.09C152.11 141.71 155.45 157.45 160.35 173.5L164.31 166.96C160.21 150.1 157.7 141.92 156.37 138.1L156.38 138.09Z" fill="#192441"/>
<path d="M202.16 231.74C202.22 231.78 202.28 231.82 202.34 231.86C202.27 231.67 202.21 231.5 202.15 231.31C202.15 231.45 202.15 231.59 202.15 231.74H202.16Z" fill="#192441"/>
<path d="M189.83 161.77C190.31 156.18 191.16 153.36 191.19 153.28C191.19 153.28 191.18 153.28 191.17 153.27C182.28 145.46 172.25 139.38 159.45 137.38C158.19 136.83 156.85 136.25 155.45 135.65C155.65 136.13 155.96 136.91 156.37 138.1C157.7 141.92 160.21 150.11 164.31 166.96C165.57 172.15 166.99 178.16 168.56 185.11C175.92 185.55 183.32 186.05 190.75 186.6C189.28 175.57 189.36 167.3 189.83 161.78V161.77Z" fill="#ED6A4C"/>
<path d="M190.75 186.59C183.33 186.05 175.93 185.54 168.56 185.1C169.61 189.73 170.73 194.77 171.93 200.28C172.77 204.13 173.52 208.08 174.2 212.1C174.36 213.03 174.5 213.97 174.64 214.9C182.08 215.04 189.53 215.19 196.97 215.38C193.75 204.28 191.81 194.67 190.74 186.58L190.75 186.59Z" fill="#ED6A4C"/>
<path d="M202.31 243.12C202.28 239.49 202.24 235.88 202.17 232.32C202.17 232.13 202.17 231.94 202.16 231.74C202.16 231.6 202.16 231.46 202.16 231.31C200.13 225.68 198.45 220.4 197 215.39C189.56 215.2 182.11 215.04 174.67 214.91C176.13 224.05 177.18 233.5 177.98 242.94C186.08 243.08 194.19 243.16 202.33 243.12H202.31Z" fill="#ED6A4C"/>
<path d="M164.31 166.96L160.35 173.5C166.18 192.59 174.21 212.1 174.21 212.1C173.53 208.08 172.78 204.13 171.94 200.28C168.94 186.49 166.42 175.59 164.31 166.95V166.96Z" fill="#192441"/>
<path opacity="0.29" d="M70.61 268.35L80.1 196.63L51.34 277.98L83.81 333.9L70.61 268.35Z" fill="#121A2D"/>
<path opacity="0.2" d="M126.21 203.33C125.96 200.31 125.47 197.1 124.82 193.78C124.14 190.35 123.27 186.81 122.26 183.23C106.41 182.89 90.51 182.9 74.45 183.32C76.72 187.21 78.62 191.39 79.87 195.84C78.19 201.84 76.54 208 74.95 214.18C92.25 214.18 109.55 214.23 126.85 214.35C126.68 210.25 126.47 206.54 126.21 203.34V203.33Z" fill="#F6F6F6"/>
<path opacity="0.2" d="M190.75 186.59C183.33 186.05 175.93 185.54 168.56 185.1C169.61 189.73 170.73 194.77 171.93 200.28C172.77 204.13 173.52 208.08 174.2 212.1C174.36 213.03 174.5 213.97 174.64 214.9C182.08 215.04 189.53 215.19 196.97 215.38C193.75 204.28 191.81 194.67 190.74 186.58L190.75 186.59Z" fill="#F6F6F6"/>
<path d="M85.51 339.47L64.02 269.14C66.43 247.66 72.97 220.49 79.86 195.83C78.33 190.41 75.87 185.36 72.91 180.77C61.81 163.55 43.92 152.79 43.92 152.79C39.76 160.73 15.33 260.45 20.62 274.82L55.74 365.01L88.54 349.4L85.5 339.46L85.51 339.47Z" fill="#192441"/>
<path d="M169.27 79.43C169.27 79.43 173.92 74.55 174.62 63.63C175.32 52.71 180.66 56.89 187.4 45.97C194.14 35.05 190.58 20.41 170.63 21.1C150.68 21.8 149.75 14.59 135.81 16.22C121.87 17.85 126.69 27.61 114.4 31.09C102.11 34.58 97.92 43.87 99.9 55.03C101.88 66.19 109.55 75.02 109.55 75.02L169.28 79.44L169.27 79.43Z" fill="#ED6A4C"/>
<path d="M107.84 99.11C112.06 120.99 131.48 139.76 153.4 131.94V148.89C153.4 151.47 152.41 153.94 150.64 155.81C144.71 162.06 134.75 162.06 128.82 155.81L102.87 128.43C105.68 119.72 107.11 108.39 107.84 99.11Z" fill="#F4A39B"/>
<path d="M107.84 99.11C108.6 89.47 108.6 82.04 108.6 82.04L153.41 119.75V131.94C131.49 139.76 112.07 120.99 107.85 99.11H107.84Z" fill="#F4A39B"/>
<path opacity="0.1" d="M107.84 99.11C108.6 89.47 108.6 82.04 108.6 82.04L153.41 119.75V131.94C131.49 139.76 112.07 120.99 107.85 99.11H107.84Z" fill="#282323"/>
<path d="M110.47 70.83C110.47 70.83 106.75 64.79 101.87 66.18C96.99 67.57 101.64 84.77 110.47 86.63C119.3 88.49 110.47 70.83 110.47 70.83Z" fill="#F4A39B"/>
<path d="M166.01 83.61C166.01 83.61 173.91 96.39 169.03 111.03C164.15 125.67 149.51 127.07 145.56 127.07C141.61 127.07 115.21 124.86 108.64 90.91C124.95 88.21 138.52 76.92 153.92 71.06L166.01 83.61Z" fill="#F4A39B"/>
<path d="M108.15 65.95L122.79 38.76L153.92 71.07C138.52 76.92 124.95 88.22 108.64 90.92C108.46 89.98 108.29 89.02 108.14 88.04C108.14 88.04 105.12 72.7 108.14 65.96L108.15 65.95Z" fill="#ED6A4C"/>
<path d="M166.94 90.12C166.94 90.12 170.89 85.94 170.89 74.78C170.89 63.62 172.28 58.05 158.34 50.84C144.4 43.64 128.59 48.75 123.02 54.33C117.44 59.91 113.49 71.76 115.35 78.73C117.21 85.7 123.48 94.53 131.85 91.74C140.22 88.95 142.77 87.09 148.35 87.32C153.93 87.55 162.76 93.36 166.94 90.11V90.12Z" fill="#F4A39B"/>
<path d="M140.36 106.34C141.88 107.77 144.05 108.94 146.21 109.82C148.3 110.68 150.63 111.45 153.08 111.08C155.38 110.74 157.67 109.65 159.5 108.63C161.21 107.68 162.67 106.21 162.24 104.56C161.98 103.56 161.16 102.88 160.06 102.41C158.49 101.44 156.35 100.94 154.38 100.6C151.59 100.12 148.69 100.05 145.86 100.37C143.8 100.6 141.15 100.98 139.78 102.24C138.38 103.53 139.11 105.16 140.36 106.34Z" fill="#F4A39B"/>
<path d="M162.17 82.92C167.014 82.92 170.94 78.5055 170.94 73.06C170.94 67.6145 167.014 63.2 162.17 63.2C157.326 63.2 153.4 67.6145 153.4 73.06C153.4 78.5055 157.326 82.92 162.17 82.92Z" stroke="black" stroke-miterlimit="10"/>
<path d="M139.73 82.04C144.573 82.04 148.5 77.6255 148.5 72.18C148.5 66.7345 144.573 62.32 139.73 62.32C134.886 62.32 130.96 66.7345 130.96 72.18C130.96 77.6255 134.886 82.04 139.73 82.04Z" stroke="black" stroke-miterlimit="10"/>
<path d="M152.55 71.44C151.5 71.44 150.45 71.37 149.41 71.25C149.15 71.22 148.9 71.5 148.91 71.75C148.92 72.05 149.13 72.22 149.41 72.25C150.45 72.38 151.5 72.44 152.55 72.44C152.81 72.44 153.06 72.21 153.05 71.94C153.04 71.67 152.83 71.44 152.55 71.44Z" fill="black"/>
<path d="M131 68.49C125.57 67.63 120.26 66.11 115.18 63.99C114.59 63.74 114.33 64.71 114.91 64.95C119.99 67.07 125.3 68.59 130.73 69.45C131.36 69.55 131.63 68.59 131 68.49Z" fill="black"/>
<path d="M139.4 74.24C138.86 74.21 138.28 74.2 137.84 74.49C137.41 74.78 137.22 75.3 137.1 75.78C136.94 76.44 136.92 77.25 137.47 77.67C137.77 77.9 138.18 77.96 138.57 77.99C139.09 78.03 139.63 78.02 140.08 77.78C140.62 77.48 140.91 76.9 141.12 76.34C141.35 75.69 141.45 74.85 140.88 74.44C140.7 74.31 140.48 74.25 140.25 74.2C139.82 74.12 139.37 74.11 138.93 74.17" fill="#1D1D1B"/>
<path d="M139.36 73.48C138.72 73.45 138.08 73.48 137.51 73.8C136.94 74.12 136.63 74.68 136.43 75.26C136.1 76.23 136.03 77.56 136.95 78.26C137.49 78.68 138.16 78.75 138.84 78.78C139.52 78.81 140.17 78.7 140.7 78.33C141.17 78 141.51 77.53 141.73 77.02C141.96 76.5 142.12 75.96 142.13 75.4C142.14 74.71 141.8 74.04 141.16 73.7C140.52 73.36 139.63 73.33 138.91 73.43C138.49 73.49 138.11 73.81 138.15 74.24C138.19 74.62 138.55 75.02 139 74.95C139.25 74.92 139.49 74.91 139.74 74.91C139.59 74.91 139.71 74.91 139.74 74.91C139.81 74.91 139.89 74.93 139.96 74.94C140.08 74.96 140.19 74.98 140.3 75.01C140.5 75.06 140.18 74.94 140.36 75.04C140.39 75.06 140.47 75.12 140.36 75.04C140.4 75.07 140.43 75.1 140.46 75.12C140.54 75.18 140.37 74.97 140.44 75.11L140.49 75.19L140.44 75.1C140.44 75.1 140.47 75.16 140.48 75.19C140.48 75.2 140.51 75.29 140.51 75.29C140.49 75.17 140.48 75.16 140.5 75.24V75.29C140.51 75.36 140.49 75.49 140.51 75.56V75.46C140.51 75.46 140.51 75.51 140.51 75.54C140.51 75.59 140.5 75.63 140.49 75.68C140.46 75.87 140.4 76.05 140.34 76.23C140.3 76.34 140.41 76.06 140.34 76.23C140.32 76.27 140.31 76.3 140.29 76.34C140.25 76.43 140.21 76.52 140.16 76.61C140.12 76.68 140.07 76.81 140.01 76.86C140.12 76.77 140.06 76.8 140.02 76.84C139.98 76.89 139.93 76.94 139.89 76.99C139.86 77.02 139.82 77.07 139.78 77.09C139.93 77.01 139.83 77.05 139.8 77.07C139.75 77.1 139.7 77.13 139.65 77.16C139.68 77.14 139.8 77.11 139.65 77.16C139.6 77.18 139.55 77.2 139.49 77.21C139.45 77.22 139.3 77.27 139.47 77.22C139.35 77.25 139.22 77.25 139.1 77.26C139 77.26 138.9 77.26 138.79 77.26C138.76 77.26 138.53 77.26 138.73 77.26C138.69 77.26 138.65 77.26 138.61 77.25C138.51 77.25 138.4 77.23 138.3 77.21C138.26 77.21 138.22 77.19 138.18 77.18C138.14 77.18 138.1 77.16 138.06 77.15C138.15 77.18 138.17 77.19 138.11 77.16C138.08 77.14 137.99 77.13 137.97 77.1C138 77.16 138.06 77.17 137.99 77.11L137.95 77.08C137.89 77.02 137.9 77.03 137.97 77.11C137.95 77.11 137.91 77.03 137.91 77.03C137.9 77.01 137.79 76.9 137.88 76.99C137.95 77.07 137.88 76.98 137.86 76.94C137.85 76.91 137.84 76.87 137.83 76.84C137.83 76.81 137.81 76.77 137.8 76.74C137.82 76.85 137.83 76.87 137.82 76.81C137.82 76.73 137.8 76.65 137.8 76.57C137.8 76.51 137.8 76.46 137.8 76.4C137.8 76.34 137.77 76.3 137.8 76.44C137.79 76.36 137.82 76.24 137.84 76.17C137.86 76.06 137.88 75.95 137.91 75.85C137.93 75.76 137.96 75.67 137.99 75.58C138.05 75.4 137.92 75.73 138 75.55C138.03 75.5 138.05 75.45 138.07 75.4C138.09 75.37 138.11 75.34 138.13 75.3C138.2 75.17 138.03 75.41 138.16 75.26C138.19 75.22 138.22 75.19 138.26 75.16C138.37 75.04 138.13 75.23 138.28 75.15C138.28 75.15 138.46 75.05 138.35 75.1C138.25 75.15 138.47 75.06 138.49 75.05C138.51 75.04 138.6 75.01 138.61 75.02C138.5 75.04 138.49 75.04 138.59 75.02H138.65C138.91 74.99 139.17 75 139.43 75.01C139.85 75.03 140.23 74.58 140.19 74.2C140.14 73.75 139.79 73.51 139.34 73.49L139.36 73.48Z" fill="#1D1D1B"/>
<path d="M163.65 74.49C162.9 74.31 162.05 74.77 161.82 75.46C161.74 75.7 161.73 75.95 161.73 76.2C161.73 76.46 161.75 76.73 161.85 76.97C161.98 77.28 162.25 77.53 162.57 77.67C163.23 77.97 164.07 77.82 164.62 77.37C165.17 76.92 165.45 76.2 165.43 75.5C165.43 75.29 165.39 75.08 165.3 74.89C165.08 74.41 164.53 74.12 163.98 74.12C163.43 74.12 162.91 74.37 162.53 74.74" fill="#1D1D1B"/>
<path d="M163.86 73.75C162.68 73.49 161.46 74.13 161.06 75.21C160.95 75.5 160.93 75.83 160.93 76.14C160.93 76.45 160.94 76.75 161.03 77.04C161.19 77.61 161.65 78.12 162.22 78.37C162.79 78.62 163.45 78.68 164.08 78.51C164.71 78.34 165.22 77.98 165.61 77.49C166.33 76.59 166.54 75.11 165.78 74.18C165.35 73.66 164.63 73.35 163.94 73.37C163.19 73.39 162.5 73.72 161.98 74.22C161.68 74.5 161.66 75.02 161.98 75.3C162.3 75.58 162.8 75.6 163.12 75.3C163.16 75.26 163.21 75.22 163.25 75.18C163.27 75.16 163.36 75.08 163.23 75.19C163.3 75.13 163.4 75.08 163.49 75.03C163.53 75.01 163.56 75 163.6 74.98C163.77 74.89 163.44 75.02 163.63 74.97C163.7 74.95 163.85 74.88 163.92 74.9H163.83C163.83 74.9 163.91 74.9 163.95 74.9C163.99 74.9 164.03 74.9 164.07 74.9C164.25 74.9 163.93 74.87 164.05 74.9C164.09 74.9 164.14 74.92 164.18 74.93C164.22 74.93 164.25 74.95 164.29 74.96C164.15 74.88 164.46 75 164.29 74.96C164.32 74.98 164.35 74.99 164.39 75.01C164.42 75.03 164.45 75.05 164.48 75.07L164.4 75.01C164.4 75.01 164.5 75.1 164.52 75.11C164.6 75.17 164.54 75.09 164.5 75.07C164.53 75.08 164.56 75.15 164.57 75.18C164.6 75.23 164.68 75.29 164.57 75.17C164.6 75.2 164.61 75.28 164.62 75.32C164.63 75.37 164.69 75.49 164.63 75.33C164.66 75.42 164.65 75.56 164.64 75.65C164.64 75.72 164.65 75.83 164.62 75.9V75.81C164.62 75.81 164.62 75.88 164.62 75.92C164.62 75.96 164.6 75.99 164.59 76.03C164.57 76.12 164.53 76.21 164.5 76.29C164.45 76.43 164.51 76.27 164.52 76.26C164.52 76.31 164.46 76.39 164.43 76.43C164.39 76.5 164.34 76.57 164.29 76.64C164.19 76.79 164.41 76.53 164.27 76.66C164.24 76.69 164.22 76.71 164.19 76.74C164.16 76.77 164.12 76.8 164.09 76.83C163.99 76.91 164.03 76.83 164.09 76.83C164.08 76.83 164.01 76.88 164 76.89C163.94 76.92 163.89 76.95 163.83 76.98C163.73 77.03 163.73 76.98 163.84 76.98C163.82 76.98 163.76 77.01 163.73 77.02C163.64 77.05 163.55 77.07 163.46 77.09C163.28 77.13 163.6 77.09 163.48 77.09C163.43 77.09 163.39 77.09 163.34 77.09C163.3 77.09 163.27 77.09 163.23 77.09C163.19 77.09 163.16 77.09 163.12 77.09C163.23 77.11 163.26 77.11 163.2 77.09C163.12 77.07 163.04 77.05 162.96 77.03C162.79 76.98 163.1 77.12 162.95 77.03C162.92 77.01 162.88 77 162.85 76.98C162.83 76.98 162.7 76.87 162.79 76.95C162.88 77.03 162.75 76.91 162.75 76.91C162.72 76.89 162.7 76.86 162.67 76.83C162.56 76.73 162.75 76.96 162.65 76.79C162.63 76.76 162.59 76.71 162.59 76.67C162.62 76.84 162.62 76.73 162.61 76.69C162.61 76.64 162.56 76.57 162.57 76.51C162.57 76.53 162.58 76.69 162.57 76.53C162.57 76.43 162.56 76.33 162.56 76.23C162.56 76.13 162.53 75.95 162.58 75.85C162.58 75.87 162.54 76.02 162.58 75.87C162.59 75.81 162.61 75.75 162.63 75.69L162.65 75.64C162.68 75.56 162.67 75.58 162.63 75.69C162.64 75.69 162.69 75.58 162.7 75.57C162.7 75.57 162.76 75.5 162.76 75.49C162.68 75.58 162.67 75.6 162.73 75.53C162.75 75.51 162.76 75.49 162.78 75.48C162.81 75.45 162.84 75.43 162.87 75.4C162.72 75.49 162.99 75.29 162.87 75.4C162.91 75.38 163.12 75.29 163.13 75.26C163.13 75.28 162.94 75.32 163.08 75.28C163.13 75.27 163.18 75.25 163.22 75.24H163.27C163.36 75.21 163.34 75.22 163.2 75.24C163.24 75.25 163.31 75.24 163.35 75.24C163.38 75.24 163.42 75.24 163.45 75.24C163.54 75.24 163.52 75.24 163.38 75.23C163.41 75.23 163.45 75.24 163.48 75.25C163.89 75.34 164.37 75.13 164.47 74.72C164.56 74.33 164.35 73.88 163.91 73.78L163.86 73.75Z" fill="#1D1D1B"/>
<path d="M159.42 71.2C160.14 70.48 161.01 70.08 162.07 69.92C161.99 69.93 162.11 69.92 162.13 69.92C162.19 69.92 162.25 69.91 162.31 69.9C162.45 69.9 162.58 69.89 162.72 69.89C162.86 69.89 162.99 69.89 163.13 69.9C163.21 69.9 163.28 69.91 163.36 69.92C163.51 69.94 163.27 69.91 163.42 69.92C163.99 70.01 164.42 70.15 164.88 70.4C165.78 70.88 166.6 69.57 165.69 69.08C163.33 67.81 160.16 68.24 158.29 70.11C157.58 70.82 158.71 71.9 159.43 71.19L159.42 71.2Z" fill="#1D1D1B"/>
<path d="M142.27 68.42C139.24 67.81 135.8 68.1 133.61 70.42C132.91 71.15 134.12 72.16 134.81 71.43C136.61 69.53 139.48 69.42 141.93 69.92C142.94 70.13 143.28 68.63 142.27 68.42Z" fill="#1D1D1B"/>
<path d="M157.94 58.86C157.46 59.7 157.89 60.75 158.86 61.02C159.74 61.26 160.38 60.64 161.15 60.36C161.86 60.11 162.63 60 163.38 60.11C164.25 60.23 165.03 60.64 165.9 60.76C166.22 60.81 166.65 60.68 166.79 60.35C167.16 59.45 166.44 58.92 165.63 58.64C164.87 58.38 164.1 58.18 163.3 58.07C161.71 57.85 160.12 57.95 158.56 58.33C158.14 58.43 157.92 58.93 158.06 59.3C158.21 59.72 158.66 59.88 159.08 59.77C160.15 59.51 161.28 59.41 162.38 59.5C162.94 59.55 163.5 59.64 164.04 59.77C164.31 59.83 164.57 59.9 164.83 59.99C164.95 60.03 165.07 60.07 165.19 60.12C165.54 60.25 165.29 60.25 165.29 59.98L165.38 59.59L165.35 59.67L166.24 59.26C165.54 59.16 164.9 58.86 164.21 58.7C163.52 58.54 162.77 58.5 162.06 58.59C161.35 58.68 160.67 58.87 160.02 59.18C159.86 59.26 159.7 59.34 159.55 59.43C159.51 59.45 159.28 59.54 159.27 59.57C159.35 59.45 159.25 59.78 159.38 59.55C159.88 58.68 158.44 58 157.94 58.87V58.86Z" fill="#1D1D1B"/>
<path d="M132.83 60.69C134.57 59.76 136.43 59.09 138.38 58.68C139.25 58.5 140.14 58.35 141.02 58.34C141.54 58.34 142.79 58.37 143.02 58.96C143.04 59 143.17 58.99 142.95 59.03C142.72 59.08 142.47 58.99 142.25 58.93C141.81 58.81 141.38 58.67 140.92 58.57C140.02 58.38 139.1 58.29 138.18 58.31C137.26 58.33 136.34 58.45 135.45 58.66C135.01 58.77 134.57 58.9 134.15 59.06C133.9 59.15 133.66 59.25 133.42 59.36C133.3 59.41 133.18 59.47 133.07 59.52C132.7 59.64 132.68 59.94 132.99 60.42C133.88 59.92 133.07 58.6 132.18 59.1C131.33 59.57 131.53 60.82 132.46 61.09C132.89 61.21 133.33 61.09 133.72 60.91C134.22 60.69 134.69 60.47 135.21 60.31C137.16 59.71 139.27 59.67 141.24 60.22C142.19 60.49 143.19 60.8 144.05 60.14C144.91 59.48 144.79 58.5 144.1 57.81C142.77 56.46 140.55 56.74 138.84 57.02C136.44 57.41 134.12 58.21 132 59.34C131.1 59.82 131.91 61.14 132.81 60.66L132.83 60.69Z" fill="#1D1D1B"/>
<path d="M142.91 58.39C142.21 58.43 141.5 58.41 140.8 58.33L141.01 58.36C140.78 58.33 140.55 58.29 140.32 58.25C140.11 58.21 139.89 58.22 139.7 58.33C139.53 58.42 139.37 58.6 139.33 58.79C139.24 59.17 139.45 59.65 139.89 59.73C140.88 59.92 141.9 59.99 142.91 59.93C143.33 59.9 143.74 59.6 143.72 59.17C143.7 58.78 143.36 58.38 142.91 58.41V58.39Z" fill="#1D1D1B"/>
<path d="M152.55 80.65L157.83 89.65L157.01 92.27L155.52 92.65C155.52 92.65 151.65 93.03 149.69 91.44C147.63 89.77 145.77 87.42 140.95 88.47C136.13 89.52 135.73 86.86 135.73 86.86L152.55 80.65Z" fill="#F4A39B"/>
<path d="M150 73.73C150.23 77.6 151.34 81.36 153.26 84.77C154.19 86.43 155.54 87.83 156.48 89.47C156.91 90.23 157.23 91.32 156.59 92.07C155.95 92.82 154.68 92.73 153.76 92.71C152.72 92.68 152.82 94.21 153.85 94.23C155.72 94.28 157.86 93.92 158.42 91.93C158.98 89.91 157.59 88.26 156.44 86.73C153.54 82.9 151.88 78.34 151.6 73.62C151.54 72.64 149.93 72.74 149.99 73.72L150 73.73Z" fill="#1D1D1B"/>
<path d="M140.9 88.6C141.237 88.6 141.51 88.3269 141.51 87.99C141.51 87.6531 141.237 87.38 140.9 87.38C140.563 87.38 140.29 87.6531 140.29 87.99C140.29 88.3269 140.563 88.6 140.9 88.6Z" fill="#1D1D1B"/>
<path d="M135.12 85.66C135.457 85.66 135.73 85.3869 135.73 85.05C135.73 84.7131 135.457 84.44 135.12 84.44C134.783 84.44 134.51 84.7131 134.51 85.05C134.51 85.3869 134.783 85.66 135.12 85.66Z" fill="#1D1D1B"/>
<path d="M128.14 87.99C128.477 87.99 128.75 87.7169 128.75 87.38C128.75 87.0431 128.477 86.77 128.14 86.77C127.803 86.77 127.53 87.0431 127.53 87.38C127.53 87.7169 127.803 87.99 128.14 87.99Z" fill="#1D1D1B"/>
<path d="M131.62 89.21C131.957 89.21 132.23 88.9369 132.23 88.6C132.23 88.2631 131.957 87.99 131.62 87.99C131.283 87.99 131.01 88.2631 131.01 88.6C131.01 88.9369 131.283 89.21 131.62 89.21Z" fill="#1D1D1B"/>
<path d="M135.73 91.22C136.067 91.22 136.34 90.9469 136.34 90.61C136.34 90.2731 136.067 90 135.73 90C135.393 90 135.12 90.2731 135.12 90.61C135.12 90.9469 135.393 91.22 135.73 91.22Z" fill="#1D1D1B"/>
<path d="M129.07 83.26C129.407 83.26 129.68 82.9869 129.68 82.65C129.68 82.3131 129.407 82.04 129.07 82.04C128.733 82.04 128.46 82.3131 128.46 82.65C128.46 82.9869 128.733 83.26 129.07 83.26Z" fill="#1D1D1B"/>
<path d="M166.88 87.2801C167.217 87.2801 167.49 87.007 167.49 86.6701C167.49 86.3332 167.217 86.0601 166.88 86.0601C166.543 86.0601 166.27 86.3332 166.27 86.6701C166.27 87.007 166.543 87.2801 166.88 87.2801Z" fill="#1D1D1B"/>
<path d="M163.58 88.33C163.917 88.33 164.19 88.0569 164.19 87.72C164.19 87.3831 163.917 87.11 163.58 87.11C163.243 87.11 162.97 87.3831 162.97 87.72C162.97 88.0569 163.243 88.33 163.58 88.33Z" fill="#1D1D1B"/>
<path d="M167.49 91.83C167.827 91.83 168.1 91.5569 168.1 91.22C168.1 90.8831 167.827 90.61 167.49 90.61C167.153 90.61 166.88 90.8831 166.88 91.22C166.88 91.5569 167.153 91.83 167.49 91.83Z" fill="#1D1D1B"/>
<path d="M138.84 106.16C139.75 105.89 140.69 105.62 141.64 105.57C142.59 105.52 143.45 105.78 144.28 106.31C145.81 107.29 147.36 107.99 149.18 108.22C151 108.45 152.78 108.19 154.45 107.5C156.12 106.81 158.02 105.65 159.73 106.64C160.52 107.1 161.23 105.88 160.45 105.42C158.67 104.38 156.7 104.99 154.95 105.75C153.2 106.51 151.38 107.05 149.39 106.82C148.47 106.71 147.54 106.46 146.7 106.07C145.86 105.68 145.12 105.07 144.28 104.66C142.42 103.75 140.36 104.24 138.47 104.79C137.6 105.04 137.97 106.41 138.85 106.16H138.84Z" fill="#1D1D1B"/>
<path d="M202.32 96.58C198.63 83.67 188.24 72.87 175.48 68.68C174.04 68.21 172.51 67.81 171.01 68.07C169.51 68.33 168.06 69.42 167.83 70.92C167.49 73.17 169.86 74.89 172.06 75.51C174.26 76.12 176.76 76.32 178.34 77.96C180.38 80.08 179.87 83.61 178.49 86.21C177.11 88.81 175.01 91.04 174.06 93.82C172.7 97.82 173.98 102.35 176.39 105.82C178.8 109.29 182.22 111.92 185.58 114.48C188.17 116.46 190.76 118.43 193.35 120.41C194.76 121.48 196.36 122.61 198.12 122.43C199.35 122.3 200.43 121.53 201.3 120.65C204.36 117.54 205.41 112.88 205.08 108.53C204.75 104.18 203.85 100.67 202.31 96.59" fill="#F4A39B"/>
<path d="M185.59 114.48C185.59 114.48 201.87 104.84 208.5 104.86C208.5 104.86 261.02 219.25 258.03 237.2C255.04 255.14 208.45 243.97 202.17 232.32C195.89 220.67 183.91 182.95 191.19 153.29C191.19 153.29 184.28 119.31 185.58 114.49L185.59 114.48Z" fill="#192441"/>
</g>
<path d="M218.45 62.56C211.09 56.44 206.69 48.76 206.69 40.4C206.69 20.46 231.67 4.29999 262.48 4.29999C293.29 4.29999 318.27 20.46 318.27 40.4C318.27 60.34 293.29 76.5 262.48 76.5C250.81 76.5 239.99 74.18 231.03 70.22C227.12 72.65 221.84 74.56 214.92 74.49C212.02 74.46 210.65 70.88 212.78 68.91C214.59 67.23 216.59 65.11 218.45 62.56Z" fill="#1F2D49"/>
<path d="M272.68 21.53C275.27 23.84 276.58 27.02 276.58 31.06C276.58 35.1 275.29 38.12 272.71 40.22C270.14 42.32 266.72 43.38 262.48 43.38L262.24 48.1H254.7L254.39 37.68H257.15C260.71 37.68 263.44 37.21 265.36 36.27C267.28 35.33 268.24 33.61 268.24 31.12C268.24 29.32 267.72 27.89 266.68 26.83C265.64 25.77 264.22 25.24 262.42 25.24C260.62 25.24 259.08 25.75 258.04 26.77C257 27.79 256.48 29.2 256.48 31H248.39C248.35 28.51 248.88 26.28 249.99 24.32C251.09 22.36 252.71 20.83 254.86 19.73C257.01 18.63 259.53 18.07 262.43 18.07C266.68 18.07 270.1 19.23 272.69 21.53H272.68ZM254.6 61.31C253.6 60.35 253.1 59.16 253.1 57.72C253.1 56.28 253.6 55.1 254.6 54.14C255.6 53.18 256.88 52.7 258.43 52.7C259.98 52.7 261.19 53.18 262.17 54.14C263.15 55.1 263.64 56.29 263.64 57.72C263.64 59.15 263.15 60.35 262.17 61.31C261.19 62.27 259.94 62.75 258.43 62.75C256.92 62.75 255.6 62.27 254.6 61.31Z" fill="white"/>
<path d="M81.69 109.76C86.81 105.5 89.87 100.16 89.87 94.34C89.87 80.47 72.49 69.22 51.05 69.22C29.61 69.22 12.23 80.47 12.23 94.34C12.23 108.21 29.61 119.46 51.05 119.46C59.17 119.46 66.7 117.85 72.93 115.09C75.65 116.78 79.32 118.11 84.14 118.06C86.16 118.04 87.11 115.55 85.63 114.17C84.37 113 82.98 111.52 81.68 109.75L81.69 109.76Z" fill="#1F2D49"/>
<path d="M57.35 82.15C58.95 83.57 59.75 85.53 59.75 88.03C59.75 90.53 58.96 92.38 57.37 93.68C55.78 94.98 53.68 95.63 51.06 95.63L50.91 98.54H46.26L46.07 92.11H47.77C49.96 92.11 51.65 91.82 52.84 91.24C54.02 90.66 54.62 89.6 54.62 88.06C54.62 86.95 54.3 86.07 53.66 85.41C53.02 84.75 52.14 84.43 51.03 84.43C49.92 84.43 48.97 84.74 48.33 85.37C47.69 86 47.37 86.87 47.37 87.98H42.38C42.36 86.44 42.68 85.07 43.36 83.86C44.04 82.65 45.04 81.71 46.36 81.03C47.69 80.35 49.24 80.01 51.03 80.01C53.65 80.01 55.76 80.72 57.36 82.15H57.35ZM46.2 106.69C45.58 106.1 45.27 105.36 45.27 104.48C45.27 103.6 45.58 102.86 46.2 102.27C46.82 101.68 47.61 101.38 48.56 101.38C49.51 101.38 50.26 101.68 50.87 102.27C51.47 102.86 51.78 103.6 51.78 104.48C51.78 105.36 51.48 106.1 50.87 106.69C50.26 107.28 49.49 107.58 48.56 107.58C47.63 107.58 46.82 107.28 46.2 106.69Z" fill="white"/>
</g>
<defs>
<clipPath id="clip0_220_310">
<rect width="373.51" height="268.42" fill="white"/>
</clipPath>
</defs>
</svg>
