<svg width="374" height="269" viewBox="0 0 374 269" fill="none" xmlns="http://www.w3.org/2000/svg">
<path opacity="0.5" d="M332.92 39.02C331.5 33.39 326.35 29.56 320.61 29.5C318.34 29.47 316.08 29.5 313.81 29.5H54.17C53.45 29.5 52.73 29.48 52.02 29.53C45.38 29.97 40.3 35.57 40.21 42.16C40.17 45.08 40.21 48.01 40.21 50.93V219.59C40.21 222.95 39.77 226.92 40.81 230.16C42.51 235.43 47.45 238.87 52.93 238.93C53.65 238.93 54.36 238.93 55.08 238.93H320.69C327.64 238.82 333.22 233.26 333.32 226.29C333.33 225.49 333.32 224.69 333.32 223.89V43.67C333.32 42.1 333.32 40.57 332.93 39.02H332.92Z" fill="#34B9CA"/>
<path fill-rule="evenodd" clip-rule="evenodd" d="M353.09 135.08C353.27 131.53 352.99 127.93 352.21 124.37L359.83 117.97L352.29 103.32L342.65 105.81C340.21 103.11 337.45 100.79 334.45 98.87L335.32 88.95L319.63 83.92L314.57 92.5C311.02 92.32 307.42 92.6 303.87 93.38L297.47 85.75L282.82 93.29L285.31 102.93C282.61 105.37 280.29 108.13 278.37 111.13L268.45 110.26L263.42 125.95L272 131.01C271.82 134.56 272.1 138.16 272.88 141.71L265.26 148.11L272.8 162.76L282.44 160.27C284.88 162.97 287.64 165.29 290.64 167.21L289.77 177.13L305.46 182.16L310.52 173.58C314.07 173.76 317.67 173.48 321.22 172.7L327.62 180.32L342.27 172.78L339.78 163.14C342.48 160.7 344.8 157.94 346.72 154.94L356.64 155.81L361.67 140.12L353.09 135.06V135.08ZM312.55 149.98C303.2 149.98 295.62 142.4 295.62 133.05C295.62 123.7 303.2 116.12 312.55 116.12C321.9 116.12 329.48 123.7 329.48 133.05C329.48 142.4 321.9 149.98 312.55 149.98Z" fill="#192441"/>
<path fill-rule="evenodd" clip-rule="evenodd" d="M273.62 94.92C273.74 92.67 273.56 90.39 273.06 88.13L277.89 84.07L273.11 74.78L267 76.36C265.45 74.65 263.7 73.18 261.8 71.96L262.35 65.67L252.4 62.48L249.19 67.92C246.94 67.81 244.66 67.99 242.4 68.48L238.34 63.64L229.05 68.42L230.63 74.53C228.92 76.08 227.45 77.83 226.23 79.73L219.94 79.18L216.75 89.13L222.19 92.34C222.07 94.59 222.26 96.87 222.75 99.13L217.92 103.19L222.7 112.48L228.81 110.9C230.36 112.61 232.11 114.08 234.01 115.3L233.46 121.59L243.41 124.78L246.62 119.34C248.87 119.45 251.15 119.27 253.41 118.78L257.47 123.61L266.76 118.83L265.18 112.72C266.89 111.17 268.36 109.42 269.58 107.52L275.87 108.07L279.06 98.12L273.62 94.91V94.92ZM247.92 105.04C241.92 105.04 237.05 100.17 237.05 94.17C237.05 88.17 241.92 83.3 247.92 83.3C253.92 83.3 258.79 88.17 258.79 94.17C258.79 100.17 253.92 105.04 247.92 105.04Z" fill="#283D56"/>
<path d="M275.89 103.62H190.21C180.252 103.62 172.18 111.692 172.18 121.65V234.12C172.18 244.078 180.252 252.15 190.21 252.15H275.89C285.848 252.15 293.92 244.078 293.92 234.12V121.65C293.92 111.692 285.848 103.62 275.89 103.62Z" fill="#34B9CA"/>
<path d="M192.1 114.41H228.88C234.22 114.41 238.56 118.75 238.56 124.09V146.79C238.56 152.13 234.22 156.47 228.88 156.47H192.1C186.76 156.47 182.42 152.13 182.42 146.79V124.09C182.42 118.75 186.76 114.41 192.1 114.41Z" fill="white"/>
<path d="M228.88 117.24C232.66 117.24 235.72 120.3 235.72 124.08V146.78C235.72 150.56 232.66 153.62 228.88 153.62H192.1C188.32 153.62 185.26 150.56 185.26 146.78V124.08C185.26 120.3 188.32 117.24 192.1 117.24H228.88ZM228.88 111.57H192.1C185.2 111.57 179.59 117.18 179.59 124.08V146.78C179.59 153.68 185.2 159.29 192.1 159.29H228.88C235.78 159.29 241.39 153.68 241.39 146.78V124.08C241.39 117.18 235.78 111.57 228.88 111.57Z" fill="#192441"/>
<path d="M205.88 145.64C207.995 145.64 209.71 143.925 209.71 141.81C209.71 139.695 207.995 137.98 205.88 137.98C203.765 137.98 202.05 139.695 202.05 141.81C202.05 143.925 203.765 145.64 205.88 145.64Z" fill="#ED6A4C"/>
<path d="M202.06 141.5L202.8 137.17C202.8 136.31 204.15 135.74 204.74 136.31L208.32 138.86L202.07 141.5H202.06Z" fill="#ED6A4C"/>
<path opacity="0.5" d="M209.62 122.27V126.93" stroke="#ED6A4C" stroke-miterlimit="10" stroke-linecap="round"/>
<path opacity="0.5" d="M224.09 128.27L220.8 131.56" stroke="#ED6A4C" stroke-miterlimit="10" stroke-linecap="round"/>
<path opacity="0.5" d="M230.09 142.75H225.43" stroke="#ED6A4C" stroke-miterlimit="10" stroke-linecap="round"/>
<path opacity="0.5" d="M193.8 142.75H189.15" stroke="#ED6A4C" stroke-miterlimit="10" stroke-linecap="round"/>
<path opacity="0.5" d="M198.43 131.56L195.14 128.27" stroke="#ED6A4C" stroke-miterlimit="10" stroke-linecap="round"/>
<path opacity="0.5" d="M217.69 123.93L215.85 128.21" stroke="#ED6A4C" stroke-miterlimit="10" stroke-linecap="round"/>
<path opacity="0.5" d="M228.63 135.15L224.3 136.87" stroke="#ED6A4C" stroke-miterlimit="10" stroke-linecap="round"/>
<path opacity="0.5" d="M195.08 136.51L190.8 134.68" stroke="#ED6A4C" stroke-miterlimit="10" stroke-linecap="round"/>
<path opacity="0.5" d="M203.75 128.06L202.02 123.74" stroke="#ED6A4C" stroke-miterlimit="10" stroke-linecap="round"/>
<mask id="mask0_220_389" style="mask-type:luminance" maskUnits="userSpaceOnUse" x="185" y="119" width="51" height="35">
<path d="M228.88 119.63H192.1C188.322 119.63 185.26 122.692 185.26 126.47V146.79C185.26 150.568 188.322 153.63 192.1 153.63H228.88C232.658 153.63 235.72 150.568 235.72 146.79V126.47C235.72 122.692 232.658 119.63 228.88 119.63Z" fill="white"/>
</mask>
<g mask="url(#mask0_220_389)">
<path opacity="0.5" d="M210.6 166.85C217.785 166.85 223.61 161.025 223.61 153.84C223.61 146.655 217.785 140.83 210.6 140.83C203.415 140.83 197.59 146.655 197.59 153.84C197.59 161.025 203.415 166.85 210.6 166.85Z" fill="#ED6A4C"/>
</g>
<path d="M189.09 176.84C191.498 176.84 193.45 174.888 193.45 172.48C193.45 170.072 191.498 168.12 189.09 168.12C186.682 168.12 184.73 170.072 184.73 172.48C184.73 174.888 186.682 176.84 189.09 176.84Z" fill="#ED6A4C"/>
<path d="M202.64 176.84C205.048 176.84 207 174.888 207 172.48C207 170.072 205.048 168.12 202.64 168.12C200.232 168.12 198.28 170.072 198.28 172.48C198.28 174.888 200.232 176.84 202.64 176.84Z" fill="#ED6A4C"/>
<path d="M216.77 176.84C219.178 176.84 221.13 174.888 221.13 172.48C221.13 170.072 219.178 168.12 216.77 168.12C214.362 168.12 212.41 170.072 212.41 172.48C212.41 174.888 214.362 176.84 216.77 176.84Z" fill="#ED6A4C"/>
<path d="M228.63 172.48H279.49" stroke="#192441" stroke-width="8.5" stroke-miterlimit="10" stroke-linecap="round"/>
<path d="M186.61 185.32H279.49" stroke="#192441" stroke-width="8.5" stroke-miterlimit="10" stroke-linecap="round"/>
<path d="M186.61 198.15H279.49" stroke="#192441" stroke-width="8.5" stroke-miterlimit="10" stroke-linecap="round"/>
<path d="M186.61 210.99H279.49" stroke="#192441" stroke-width="8.5" stroke-miterlimit="10" stroke-linecap="round"/>
<path d="M186.61 223.34H279.49" stroke="#192441" stroke-width="8.5" stroke-miterlimit="10" stroke-linecap="round"/>
<path d="M187.23 98.9301H209.36C211.72 98.9301 213.64 100.85 213.64 103.21V103.62H182.94V103.21C182.94 100.85 184.86 98.9301 187.22 98.9301H187.23Z" fill="#192441"/>
<path d="M298.61 197.64V219.77C298.61 222.13 296.69 224.05 294.33 224.05H293.92V193.35H294.33C296.69 193.35 298.61 195.27 298.61 197.63V197.64Z" fill="#192441"/>
<path d="M275.47 115.07H255.26C253.04 115.07 251.24 116.87 251.24 119.09V151.75C251.24 153.97 253.04 155.77 255.26 155.77H275.47C277.69 155.77 279.49 153.97 279.49 151.75V119.09C279.49 116.87 277.69 115.07 275.47 115.07Z" fill="#EDEDED"/>
<path d="M274.52 116.53H256.22C254.359 116.53 252.85 118.039 252.85 119.9V138.2C252.85 140.061 254.359 141.57 256.22 141.57H274.52C276.381 141.57 277.89 140.061 277.89 138.2V119.9C277.89 118.039 276.381 116.53 274.52 116.53Z" fill="white"/>
<path d="M255.02 117.8H254.12V123.2H255.02V117.8Z" fill="#1D1D1B"/>
<path d="M255.02 123.2H254.12V124.1H255.02V123.2Z" fill="#1D1D1B"/>
<path d="M255.02 125H254.12V127.7H255.02V125Z" fill="#1D1D1B"/>
<path d="M255.02 130.4H254.12V131.3H255.02V130.4Z" fill="#1D1D1B"/>
<path d="M255.02 132.2H254.12V133.1H255.02V132.2Z" fill="#1D1D1B"/>
<path d="M255.02 134H254.12V135.8H255.02V134Z" fill="#1D1D1B"/>
<path d="M255.02 135.79H254.12V138.49H255.02V135.79Z" fill="#1D1D1B"/>
<path d="M255.02 138.49H254.12V140.29H255.02V138.49Z" fill="#1D1D1B"/>
<path d="M255.92 117.8H255.02V118.7H255.92V117.8Z" fill="#1D1D1B"/>
<path d="M255.92 123.2H255.02V124.1H255.92V123.2Z" fill="#1D1D1B"/>
<path d="M255.92 127.7H255.02V128.6H255.92V127.7Z" fill="#1D1D1B"/>
<path d="M255.92 131.3H255.02V132.2H255.92V131.3Z" fill="#1D1D1B"/>
<path d="M255.92 134H255.02V134.9H255.92V134Z" fill="#1D1D1B"/>
<path d="M255.92 139.39H255.02V140.29H255.92V139.39Z" fill="#1D1D1B"/>
<path d="M256.82 117.8H255.92V118.7H256.82V117.8Z" fill="#1D1D1B"/>
<path d="M256.82 119.6H255.92V122.3H256.82V119.6Z" fill="#1D1D1B"/>
<path d="M256.82 123.2H255.92V124.1H256.82V123.2Z" fill="#1D1D1B"/>
<path d="M256.82 125H255.92V125.9H256.82V125Z" fill="#1D1D1B"/>
<path d="M256.82 127.7H255.92V128.6H256.82V127.7Z" fill="#1D1D1B"/>
<path d="M256.82 130.4H255.92V133.1H256.82V130.4Z" fill="#1D1D1B"/>
<path d="M256.82 134H255.92V134.9H256.82V134Z" fill="#1D1D1B"/>
<path d="M256.82 135.79H255.92V138.49H256.82V135.79Z" fill="#1D1D1B"/>
<path d="M256.82 139.39H255.92V140.29H256.82V139.39Z" fill="#1D1D1B"/>
<path d="M257.72 117.8H256.82V118.7H257.72V117.8Z" fill="#1D1D1B"/>
<path d="M257.72 119.6H256.82V122.3H257.72V119.6Z" fill="#1D1D1B"/>
<path d="M257.72 123.2H256.82V124.1H257.72V123.2Z" fill="#1D1D1B"/>
<path d="M257.72 126.8H256.82V127.7H257.72V126.8Z" fill="#1D1D1B"/>
<path d="M257.72 128.6H256.82V130.4H257.72V128.6Z" fill="#1D1D1B"/>
<path d="M257.72 131.3H256.82V133.1H257.72V131.3Z" fill="#1D1D1B"/>
<path d="M257.72 134H256.82V134.9H257.72V134Z" fill="#1D1D1B"/>
<path d="M257.72 135.79H256.82V138.49H257.72V135.79Z" fill="#1D1D1B"/>
<path d="M257.72 139.39H256.82V140.29H257.72V139.39Z" fill="#1D1D1B"/>
<path d="M258.62 117.8H257.72V118.7H258.62V117.8Z" fill="#1D1D1B"/>
<path d="M258.62 119.6H257.72V122.3H258.62V119.6Z" fill="#1D1D1B"/>
<path d="M258.62 123.2H257.72V124.1H258.62V123.2Z" fill="#1D1D1B"/>
<path d="M258.62 125H257.72V125.9H258.62V125Z" fill="#1D1D1B"/>
<path d="M258.62 126.8H257.72V127.7H258.62V126.8Z" fill="#1D1D1B"/>
<path d="M258.62 127.7H257.72V128.6H258.62V127.7Z" fill="#1D1D1B"/>
<path d="M258.62 132.2H257.72V133.1H258.62V132.2Z" fill="#1D1D1B"/>
<path d="M258.62 134H257.72V134.9H258.62V134Z" fill="#1D1D1B"/>
<path d="M258.62 135.79H257.72V138.49H258.62V135.79Z" fill="#1D1D1B"/>
<path d="M258.62 139.39H257.72V140.29H258.62V139.39Z" fill="#1D1D1B"/>
<path d="M259.52 117.8H258.62V118.7H259.52V117.8Z" fill="#1D1D1B"/>
<path d="M259.52 123.2H258.62V124.1H259.52V123.2Z" fill="#1D1D1B"/>
<path d="M259.52 125.9H258.62V126.8H259.52V125.9Z" fill="#1D1D1B"/>
<path d="M259.52 128.6H258.62V129.5H259.52V128.6Z" fill="#1D1D1B"/>
<path d="M259.52 130.4H258.62V131.3H259.52V130.4Z" fill="#1D1D1B"/>
<path d="M259.52 132.2H258.62V133.1H259.52V132.2Z" fill="#1D1D1B"/>
<path d="M259.52 134H258.62V134.9H259.52V134Z" fill="#1D1D1B"/>
<path d="M259.52 139.39H258.62V140.29H259.52V139.39Z" fill="#1D1D1B"/>
<path d="M260.42 117.8H259.52V123.2H260.42V117.8Z" fill="#1D1D1B"/>
<path d="M260.42 123.2H259.52V124.1H260.42V123.2Z" fill="#1D1D1B"/>
<path d="M260.42 125H259.52V125.9H260.42V125Z" fill="#1D1D1B"/>
<path d="M260.42 126.8H259.52V127.7H260.42V126.8Z" fill="#1D1D1B"/>
<path d="M260.42 128.6H259.52V129.5H260.42V128.6Z" fill="#1D1D1B"/>
<path d="M260.42 130.4H259.52V131.3H260.42V130.4Z" fill="#1D1D1B"/>
<path d="M260.42 132.2H259.52V133.1H260.42V132.2Z" fill="#1D1D1B"/>
<path d="M260.42 134H259.52V135.8H260.42V134Z" fill="#1D1D1B"/>
<path d="M260.42 135.79H259.52V138.49H260.42V135.79Z" fill="#1D1D1B"/>
<path d="M260.42 138.49H259.52V140.29H260.42V138.49Z" fill="#1D1D1B"/>
<path d="M261.32 127.7H260.42V128.6H261.32V127.7Z" fill="#1D1D1B"/>
<path d="M261.32 130.4H260.42V131.3H261.32V130.4Z" fill="#1D1D1B"/>
<path d="M262.22 118.7H261.32V119.6H262.22V118.7Z" fill="#1D1D1B"/>
<path d="M262.22 121.4H261.32V122.3H262.22V121.4Z" fill="#1D1D1B"/>
<path d="M262.22 123.2H261.32V124.1H262.22V123.2Z" fill="#1D1D1B"/>
<path d="M262.22 125.9H261.32V127.7H262.22V125.9Z" fill="#1D1D1B"/>
<path d="M262.22 128.6H261.32V129.5H262.22V128.6Z" fill="#1D1D1B"/>
<path d="M262.22 130.4H261.32V132.2H262.22V130.4Z" fill="#1D1D1B"/>
<path d="M262.22 133.1H261.32V134H262.22V133.1Z" fill="#1D1D1B"/>
<path d="M262.22 135.79H261.32V136.69H262.22V135.79Z" fill="#1D1D1B"/>
<path d="M262.22 137.59H261.32V138.49H262.22V137.59Z" fill="#1D1D1B"/>
<path d="M262.22 139.39H261.32V140.29H262.22V139.39Z" fill="#1D1D1B"/>
<path d="M263.12 117.8H262.22V118.7H263.12V117.8Z" fill="#1D1D1B"/>
<path d="M263.12 120.5H262.22V121.4H263.12V120.5Z" fill="#1D1D1B"/>
<path d="M263.12 125.9H262.22V127.7H263.12V125.9Z" fill="#1D1D1B"/>
<path d="M263.12 127.7H262.22V133.1H263.12V127.7Z" fill="#1D1D1B"/>
<path d="M263.12 133.1H262.22V134H263.12V133.1Z" fill="#1D1D1B"/>
<path d="M263.12 138.49H262.22V139.39H263.12V138.49Z" fill="#1D1D1B"/>
<path d="M264.02 117.8H263.12V118.7H264.02V117.8Z" fill="#1D1D1B"/>
<path d="M264.02 119.6H263.12V123.2H264.02V119.6Z" fill="#1D1D1B"/>
<path d="M264.02 123.2H263.12V126.8H264.02V123.2Z" fill="#1D1D1B"/>
<path d="M264.02 129.5H263.12V131.3H264.02V129.5Z" fill="#1D1D1B"/>
<path d="M264.02 134H263.12V135.8H264.02V134Z" fill="#1D1D1B"/>
<path d="M264.02 135.79H263.12V136.69H264.02V135.79Z" fill="#1D1D1B"/>
<path d="M264.92 118.7H264.02V121.4H264.92V118.7Z" fill="#1D1D1B"/>
<path d="M264.92 122.3H264.02V123.2H264.92V122.3Z" fill="#1D1D1B"/>
<path d="M264.92 124.1H264.02V126.8H264.92V124.1Z" fill="#1D1D1B"/>
<path d="M264.92 127.7H264.02V128.6H264.92V127.7Z" fill="#1D1D1B"/>
<path d="M264.92 129.5H264.02V131.3H264.92V129.5Z" fill="#1D1D1B"/>
<path d="M264.92 132.2H264.02V133.1H264.92V132.2Z" fill="#1D1D1B"/>
<path d="M264.92 133.1H264.02V134H264.92V133.1Z" fill="#1D1D1B"/>
<path d="M264.92 134.9H264.02V135.8H264.92V134.9Z" fill="#1D1D1B"/>
<path d="M264.92 136.69H264.02V138.49H264.92V136.69Z" fill="#1D1D1B"/>
<path d="M264.92 139.39H264.02V140.29H264.92V139.39Z" fill="#1D1D1B"/>
<path d="M265.81 122.3H264.91V123.2H265.81V122.3Z" fill="#1D1D1B"/>
<path d="M265.81 123.2H264.91V124.1H265.81V123.2Z" fill="#1D1D1B"/>
<path d="M265.81 125H264.91V127.7H265.81V125Z" fill="#1D1D1B"/>
<path d="M265.81 128.6H264.91V132.2H265.81V128.6Z" fill="#1D1D1B"/>
<path d="M265.81 135.79H264.91V138.49H265.81V135.79Z" fill="#1D1D1B"/>
<path d="M265.81 138.49H264.91V139.39H265.81V138.49Z" fill="#1D1D1B"/>
<path d="M266.71 118.7H265.81V119.6H266.71V118.7Z" fill="#1D1D1B"/>
<path d="M266.71 121.4H265.81V123.2H266.71V121.4Z" fill="#1D1D1B"/>
<path d="M266.71 124.1H265.81V125.9H266.71V124.1Z" fill="#1D1D1B"/>
<path d="M266.71 126.8H265.81V127.7H266.71V126.8Z" fill="#1D1D1B"/>
<path d="M266.71 127.7H265.81V128.6H266.71V127.7Z" fill="#1D1D1B"/>
<path d="M266.71 131.3H265.81V132.2H266.71V131.3Z" fill="#1D1D1B"/>
<path d="M266.71 134H265.81V134.9H266.71V134Z" fill="#1D1D1B"/>
<path d="M266.71 136.69H265.81V137.59H266.71V136.69Z" fill="#1D1D1B"/>
<path d="M266.71 138.49H265.81V139.39H266.71V138.49Z" fill="#1D1D1B"/>
<path d="M267.61 117.8H266.71V118.7H267.61V117.8Z" fill="#1D1D1B"/>
<path d="M267.61 120.5H266.71V122.3H267.61V120.5Z" fill="#1D1D1B"/>
<path d="M267.61 123.2H266.71V125.9H267.61V123.2Z" fill="#1D1D1B"/>
<path d="M267.61 127.7H266.71V129.5H267.61V127.7Z" fill="#1D1D1B"/>
<path d="M267.61 131.3H266.71V133.1H267.61V131.3Z" fill="#1D1D1B"/>
<path d="M267.61 137.59H266.71V138.49H267.61V137.59Z" fill="#1D1D1B"/>
<path d="M267.61 138.49H266.71V140.29H267.61V138.49Z" fill="#1D1D1B"/>
<path d="M268.51 117.8H267.61V120.5H268.51V117.8Z" fill="#1D1D1B"/>
<path d="M268.51 121.4H267.61V123.2H268.51V121.4Z" fill="#1D1D1B"/>
<path d="M268.51 127.7H267.61V128.6H268.51V127.7Z" fill="#1D1D1B"/>
<path d="M268.51 131.3H267.61V132.2H268.51V131.3Z" fill="#1D1D1B"/>
<path d="M268.51 134H267.61V134.9H268.51V134Z" fill="#1D1D1B"/>
<path d="M268.51 137.59H267.61V138.49H268.51V137.59Z" fill="#1D1D1B"/>
<path d="M268.51 138.49H267.61V140.29H268.51V138.49Z" fill="#1D1D1B"/>
<path d="M269.41 121.4H268.51V122.3H269.41V121.4Z" fill="#1D1D1B"/>
<path d="M269.41 123.2H268.51V124.1H269.41V123.2Z" fill="#1D1D1B"/>
<path d="M269.41 125.9H268.51V127.7H269.41V125.9Z" fill="#1D1D1B"/>
<path d="M269.41 129.5H268.51V131.3H269.41V129.5Z" fill="#1D1D1B"/>
<path d="M269.41 132.2H268.51V133.1H269.41V132.2Z" fill="#1D1D1B"/>
<path d="M269.41 133.1H268.51V135.8H269.41V133.1Z" fill="#1D1D1B"/>
<path d="M269.41 135.79H268.51V137.59H269.41V135.79Z" fill="#1D1D1B"/>
<path d="M269.41 138.49H268.51V140.29H269.41V138.49Z" fill="#1D1D1B"/>
<path d="M270.31 126.8H269.41V127.7H270.31V126.8Z" fill="#1D1D1B"/>
<path d="M270.31 128.6H269.41V129.5H270.31V128.6Z" fill="#1D1D1B"/>
<path d="M270.31 130.4H269.41V131.3H270.31V130.4Z" fill="#1D1D1B"/>
<path d="M270.31 132.2H269.41V133.1H270.31V132.2Z" fill="#1D1D1B"/>
<path d="M270.31 135.79H269.41V137.59H270.31V135.79Z" fill="#1D1D1B"/>
<path d="M271.21 117.8H270.31V123.2H271.21V117.8Z" fill="#1D1D1B"/>
<path d="M271.21 123.2H270.31V124.1H271.21V123.2Z" fill="#1D1D1B"/>
<path d="M271.21 125.9H270.31V127.7H271.21V125.9Z" fill="#1D1D1B"/>
<path d="M271.21 127.7H270.31V133.1H271.21V127.7Z" fill="#1D1D1B"/>
<path d="M271.21 134H270.31V134.9H271.21V134Z" fill="#1D1D1B"/>
<path d="M271.21 135.79H270.31V136.69H271.21V135.79Z" fill="#1D1D1B"/>
<path d="M271.21 138.49H270.31V139.39H271.21V138.49Z" fill="#1D1D1B"/>
<path d="M272.11 117.8H271.21V118.7H272.11V117.8Z" fill="#1D1D1B"/>
<path d="M272.11 123.2H271.21V124.1H272.11V123.2Z" fill="#1D1D1B"/>
<path d="M272.11 126.8H271.21V127.7H272.11V126.8Z" fill="#1D1D1B"/>
<path d="M272.11 128.6H271.21V129.5H272.11V128.6Z" fill="#1D1D1B"/>
<path d="M272.11 130.4H271.21V131.3H272.11V130.4Z" fill="#1D1D1B"/>
<path d="M272.11 132.2H271.21V133.1H272.11V132.2Z" fill="#1D1D1B"/>
<path d="M272.11 135.79H271.21V137.59H272.11V135.79Z" fill="#1D1D1B"/>
<path d="M272.11 139.39H271.21V140.29H272.11V139.39Z" fill="#1D1D1B"/>
<path d="M273.01 117.8H272.11V118.7H273.01V117.8Z" fill="#1D1D1B"/>
<path d="M273.01 119.6H272.11V122.3H273.01V119.6Z" fill="#1D1D1B"/>
<path d="M273.01 123.2H272.11V124.1H273.01V123.2Z" fill="#1D1D1B"/>
<path d="M273.01 125H272.11V125.9H273.01V125Z" fill="#1D1D1B"/>
<path d="M273.01 131.3H272.11V133.1H273.01V131.3Z" fill="#1D1D1B"/>
<path d="M273.01 133.1H272.11V135.8H273.01V133.1Z" fill="#1D1D1B"/>
<path d="M273.01 135.79H272.11V138.49H273.01V135.79Z" fill="#1D1D1B"/>
<path d="M273.01 138.49H272.11V139.39H273.01V138.49Z" fill="#1D1D1B"/>
<path d="M273.91 117.8H273.01V118.7H273.91V117.8Z" fill="#1D1D1B"/>
<path d="M273.91 119.6H273.01V122.3H273.91V119.6Z" fill="#1D1D1B"/>
<path d="M273.91 123.2H273.01V124.1H273.91V123.2Z" fill="#1D1D1B"/>
<path d="M273.91 128.6H273.01V130.4H273.91V128.6Z" fill="#1D1D1B"/>
<path d="M273.91 132.2H273.01V133.1H273.91V132.2Z" fill="#1D1D1B"/>
<path d="M273.91 133.1H273.01V135.8H273.91V133.1Z" fill="#1D1D1B"/>
<path d="M273.91 135.79H273.01V137.59H273.91V135.79Z" fill="#1D1D1B"/>
<path d="M273.91 138.49H273.01V139.39H273.91V138.49Z" fill="#1D1D1B"/>
<path d="M274.81 117.8H273.91V118.7H274.81V117.8Z" fill="#1D1D1B"/>
<path d="M274.81 119.6H273.91V122.3H274.81V119.6Z" fill="#1D1D1B"/>
<path d="M274.81 123.2H273.91V124.1H274.81V123.2Z" fill="#1D1D1B"/>
<path d="M274.81 126.8H273.91V127.7H274.81V126.8Z" fill="#1D1D1B"/>
<path d="M274.81 130.4H273.91V131.3H274.81V130.4Z" fill="#1D1D1B"/>
<path d="M274.81 136.69H273.91V137.59H274.81V136.69Z" fill="#1D1D1B"/>
<path d="M275.71 117.8H274.81V118.7H275.71V117.8Z" fill="#1D1D1B"/>
<path d="M275.71 123.2H274.81V124.1H275.71V123.2Z" fill="#1D1D1B"/>
<path d="M275.71 125H274.81V125.9H275.71V125Z" fill="#1D1D1B"/>
<path d="M275.71 126.8H274.81V127.7H275.71V126.8Z" fill="#1D1D1B"/>
<path d="M275.71 127.7H274.81V129.5H275.71V127.7Z" fill="#1D1D1B"/>
<path d="M275.71 130.4H274.81V132.2H275.71V130.4Z" fill="#1D1D1B"/>
<path d="M275.71 133.1H274.81V134.9H275.71V133.1Z" fill="#1D1D1B"/>
<path d="M275.71 135.79H274.81V136.69H275.71V135.79Z" fill="#1D1D1B"/>
<path d="M275.71 138.49H274.81V140.29H275.71V138.49Z" fill="#1D1D1B"/>
<path d="M276.61 117.8H275.71V123.2H276.61V117.8Z" fill="#1D1D1B"/>
<path d="M276.61 123.2H275.71V124.1H276.61V123.2Z" fill="#1D1D1B"/>
<path d="M276.61 125.9H275.71V127.7H276.61V125.9Z" fill="#1D1D1B"/>
<path d="M276.61 128.6H275.71V131.3H276.61V128.6Z" fill="#1D1D1B"/>
<path d="M276.61 133.1H275.71V134.9H276.61V133.1Z" fill="#1D1D1B"/>
<path d="M276.61 135.79H275.71V136.69H276.61V135.79Z" fill="#1D1D1B"/>
<path d="M276.61 137.59H275.71V138.49H276.61V137.59Z" fill="#1D1D1B"/>
<path d="M276.61 139.39H275.71V140.29H276.61V139.39Z" fill="#1D1D1B"/>
<path d="M253.73 147.57C253.61 147.52 253.52 147.44 253.45 147.35C253.38 147.26 253.35 147.15 253.35 147.03H253.66C253.67 147.14 253.71 147.22 253.79 147.3C253.87 147.37 253.98 147.41 254.12 147.41C254.26 147.41 254.37 147.38 254.45 147.31C254.53 147.24 254.57 147.15 254.57 147.04C254.57 146.95 254.55 146.88 254.5 146.83C254.45 146.78 254.39 146.74 254.32 146.71C254.25 146.68 254.15 146.65 254.03 146.62C253.88 146.58 253.76 146.54 253.67 146.5C253.58 146.46 253.5 146.4 253.44 146.32C253.38 146.24 253.35 146.13 253.35 145.99C253.35 145.87 253.38 145.76 253.44 145.66C253.5 145.57 253.59 145.49 253.7 145.44C253.81 145.39 253.94 145.36 254.09 145.36C254.3 145.36 254.47 145.41 254.61 145.52C254.75 145.63 254.82 145.76 254.84 145.94H254.52C254.51 145.85 254.46 145.78 254.38 145.71C254.3 145.64 254.2 145.61 254.06 145.61C253.94 145.61 253.84 145.64 253.76 145.71C253.68 145.77 253.64 145.86 253.64 145.98C253.64 146.06 253.66 146.13 253.71 146.18C253.76 146.23 253.81 146.27 253.88 146.3C253.95 146.33 254.04 146.36 254.17 146.39C254.32 146.43 254.44 146.47 254.53 146.51C254.62 146.55 254.7 146.61 254.76 146.69C254.82 146.77 254.86 146.89 254.86 147.03C254.86 147.14 254.83 147.24 254.77 147.34C254.71 147.44 254.63 147.52 254.51 147.58C254.39 147.64 254.26 147.67 254.11 147.67C253.96 147.67 253.83 147.64 253.71 147.59L253.73 147.57Z" fill="#192441"/>
<path d="M255.31 146.26C255.38 146.12 255.48 146.02 255.61 145.94C255.74 145.86 255.89 145.83 256.06 145.83C256.28 145.83 256.46 145.88 256.6 145.99C256.74 146.1 256.83 146.24 256.88 146.43H256.56C256.53 146.32 256.47 146.24 256.38 146.18C256.29 146.12 256.19 146.09 256.06 146.09C255.89 146.09 255.76 146.15 255.65 146.26C255.55 146.38 255.5 146.54 255.5 146.75C255.5 146.96 255.55 147.13 255.65 147.24C255.75 147.36 255.89 147.41 256.06 147.41C256.19 147.41 256.3 147.38 256.38 147.32C256.47 147.26 256.53 147.17 256.56 147.06H256.88C256.83 147.24 256.74 147.38 256.6 147.49C256.46 147.6 256.28 147.65 256.07 147.65C255.9 147.65 255.75 147.61 255.62 147.54C255.49 147.46 255.39 147.36 255.32 147.22C255.25 147.08 255.21 146.92 255.21 146.74C255.21 146.56 255.25 146.4 255.32 146.26H255.31Z" fill="#192441"/>
<path d="M257.27 146.26C257.34 146.12 257.44 146.02 257.57 145.94C257.7 145.86 257.84 145.83 258 145.83C258.16 145.83 258.29 145.86 258.4 145.93C258.51 146 258.6 146.08 258.65 146.18V145.86H258.95V147.63H258.65V147.3C258.59 147.4 258.51 147.49 258.39 147.56C258.27 147.63 258.14 147.66 257.99 147.66C257.84 147.66 257.69 147.62 257.56 147.54C257.43 147.46 257.33 147.35 257.26 147.21C257.19 147.07 257.15 146.91 257.15 146.73C257.15 146.55 257.19 146.39 257.26 146.25L257.27 146.26ZM258.58 146.39C258.53 146.29 258.45 146.22 258.36 146.16C258.27 146.11 258.17 146.08 258.06 146.08C257.95 146.08 257.85 146.11 257.76 146.16C257.67 146.21 257.6 146.29 257.54 146.39C257.49 146.49 257.46 146.61 257.46 146.74C257.46 146.87 257.49 146.99 257.54 147.09C257.59 147.19 257.67 147.27 257.76 147.32C257.85 147.37 257.95 147.4 258.06 147.4C258.17 147.4 258.27 147.37 258.36 147.32C258.45 147.27 258.52 147.19 258.58 147.09C258.63 146.99 258.66 146.87 258.66 146.74C258.66 146.61 258.63 146.49 258.58 146.39Z" fill="#192441"/>
<path d="M260.83 146.02C260.96 146.15 261.03 146.34 261.03 146.58V147.62H260.74V146.62C260.74 146.44 260.7 146.31 260.61 146.22C260.52 146.13 260.4 146.08 260.25 146.08C260.1 146.08 259.97 146.13 259.88 146.23C259.79 146.33 259.74 146.47 259.74 146.65V147.63H259.45V145.86H259.74V146.11C259.8 146.02 259.88 145.95 259.98 145.9C260.08 145.85 260.19 145.83 260.31 145.83C260.52 145.83 260.7 145.9 260.83 146.03V146.02Z" fill="#192441"/>
<path d="M262.37 146.26C262.44 146.12 262.54 146.02 262.67 145.94C262.8 145.86 262.94 145.83 263.1 145.83C263.26 145.83 263.39 145.86 263.5 145.93C263.61 146 263.7 146.08 263.75 146.18V145.86H264.05V147.63H263.75V147.3C263.69 147.4 263.61 147.49 263.49 147.56C263.37 147.63 263.24 147.66 263.09 147.66C262.94 147.66 262.79 147.62 262.66 147.54C262.53 147.46 262.43 147.35 262.36 147.21C262.29 147.07 262.25 146.91 262.25 146.73C262.25 146.55 262.29 146.39 262.36 146.25L262.37 146.26ZM263.68 146.39C263.63 146.29 263.55 146.22 263.46 146.16C263.37 146.11 263.27 146.08 263.16 146.08C263.05 146.08 262.95 146.11 262.86 146.16C262.77 146.21 262.7 146.29 262.64 146.39C262.59 146.49 262.56 146.61 262.56 146.74C262.56 146.87 262.59 146.99 262.64 147.09C262.69 147.19 262.77 147.27 262.86 147.32C262.95 147.37 263.05 147.4 263.16 147.4C263.27 147.4 263.37 147.37 263.46 147.32C263.55 147.27 263.62 147.19 263.68 147.09C263.73 146.99 263.76 146.87 263.76 146.74C263.76 146.61 263.73 146.49 263.68 146.39Z" fill="#192441"/>
<path d="M265.93 146.02C266.06 146.15 266.13 146.34 266.13 146.58V147.62H265.84V146.62C265.84 146.44 265.8 146.31 265.71 146.22C265.62 146.13 265.5 146.08 265.35 146.08C265.2 146.08 265.07 146.13 264.98 146.23C264.89 146.33 264.84 146.47 264.84 146.65V147.63H264.55V145.86H264.84V146.11C264.9 146.02 264.98 145.95 265.08 145.9C265.18 145.85 265.29 145.83 265.41 145.83C265.62 145.83 265.8 145.9 265.93 146.03V146.02Z" fill="#192441"/>
<path d="M266.61 146.26C266.68 146.12 266.78 146.02 266.91 145.94C267.04 145.86 267.18 145.83 267.34 145.83C267.48 145.83 267.61 145.86 267.72 145.92C267.84 145.98 267.93 146.07 267.99 146.17V145.24H268.29V147.62H267.99V147.29C267.93 147.4 267.85 147.48 267.73 147.55C267.62 147.62 267.48 147.65 267.33 147.65C267.18 147.65 267.03 147.61 266.9 147.53C266.77 147.45 266.67 147.34 266.6 147.2C266.53 147.06 266.49 146.9 266.49 146.72C266.49 146.54 266.53 146.38 266.6 146.24L266.61 146.26ZM267.92 146.39C267.87 146.29 267.79 146.22 267.7 146.16C267.61 146.11 267.51 146.08 267.4 146.08C267.29 146.08 267.19 146.11 267.1 146.16C267.01 146.21 266.94 146.29 266.88 146.39C266.83 146.49 266.8 146.61 266.8 146.74C266.8 146.87 266.83 146.99 266.88 147.09C266.93 147.19 267.01 147.27 267.1 147.32C267.19 147.37 267.29 147.4 267.4 147.4C267.51 147.4 267.61 147.37 267.7 147.32C267.79 147.27 267.86 147.19 267.92 147.09C267.97 146.99 268 146.87 268 146.74C268 146.61 267.97 146.49 267.92 146.39Z" fill="#192441"/>
<path d="M269.97 147.54C269.84 147.46 269.73 147.36 269.65 147.22C269.57 147.08 269.54 146.92 269.54 146.74C269.54 146.56 269.58 146.4 269.66 146.26C269.74 146.12 269.85 146.02 269.98 145.94C270.12 145.87 270.27 145.83 270.43 145.83C270.59 145.83 270.75 145.87 270.88 145.94C271.02 146.01 271.12 146.12 271.2 146.26C271.28 146.4 271.32 146.56 271.32 146.74C271.32 146.92 271.28 147.08 271.2 147.22C271.12 147.36 271.01 147.47 270.87 147.54C270.73 147.62 270.58 147.65 270.41 147.65C270.24 147.65 270.09 147.61 269.96 147.54H269.97ZM270.72 147.32C270.81 147.27 270.89 147.2 270.94 147.1C271 147 271.03 146.88 271.03 146.74C271.03 146.6 271 146.48 270.95 146.38C270.89 146.28 270.82 146.21 270.73 146.16C270.64 146.11 270.54 146.09 270.44 146.09C270.34 146.09 270.23 146.11 270.15 146.16C270.06 146.21 269.99 146.28 269.94 146.38C269.89 146.48 269.86 146.6 269.86 146.74C269.86 146.88 269.89 147.01 269.94 147.1C269.99 147.2 270.06 147.27 270.15 147.32C270.24 147.37 270.33 147.39 270.44 147.39C270.55 147.39 270.64 147.37 270.74 147.32H270.72Z" fill="#192441"/>
<path d="M272.27 145.93C272.38 145.86 272.52 145.83 272.67 145.83C272.82 145.83 272.97 145.87 273.1 145.94C273.23 146.02 273.33 146.12 273.4 146.26C273.47 146.4 273.51 146.55 273.51 146.74C273.51 146.93 273.47 147.08 273.4 147.22C273.33 147.36 273.23 147.47 273.1 147.55C272.97 147.63 272.83 147.67 272.67 147.67C272.51 147.67 272.39 147.64 272.27 147.57C272.16 147.5 272.07 147.42 272.01 147.32V148.48H271.72V145.88H272.01V146.21C272.07 146.11 272.15 146.02 272.27 145.96V145.93ZM273.13 146.39C273.08 146.29 273 146.22 272.91 146.16C272.82 146.11 272.72 146.08 272.61 146.08C272.5 146.08 272.4 146.11 272.31 146.16C272.22 146.21 272.15 146.29 272.09 146.39C272.03 146.49 272.01 146.61 272.01 146.74C272.01 146.87 272.04 146.99 272.09 147.09C272.14 147.19 272.22 147.27 272.31 147.32C272.4 147.37 272.5 147.4 272.61 147.4C272.72 147.4 272.82 147.37 272.91 147.32C273 147.27 273.07 147.19 273.13 147.09C273.19 146.99 273.21 146.87 273.21 146.74C273.21 146.61 273.18 146.49 273.13 146.39Z" fill="#192441"/>
<path d="M275.49 146.85H274.08C274.09 147.02 274.15 147.16 274.26 147.26C274.37 147.36 274.5 147.41 274.65 147.41C274.78 147.41 274.88 147.38 274.97 147.32C275.05 147.26 275.11 147.18 275.15 147.08H275.47C275.42 147.25 275.33 147.39 275.19 147.49C275.05 147.6 274.87 147.65 274.66 147.65C274.49 147.65 274.34 147.61 274.21 147.54C274.08 147.46 273.97 147.36 273.9 147.22C273.82 147.08 273.79 146.92 273.79 146.74C273.79 146.56 273.83 146.4 273.9 146.26C273.97 146.12 274.08 146.02 274.21 145.94C274.34 145.87 274.49 145.83 274.67 145.83C274.85 145.83 274.99 145.87 275.11 145.94C275.24 146.01 275.34 146.11 275.41 146.24C275.48 146.37 275.51 146.51 275.51 146.67C275.51 146.73 275.51 146.78 275.51 146.85H275.49ZM275.12 146.32C275.07 146.24 275 146.18 274.92 146.14C274.84 146.1 274.74 146.08 274.64 146.08C274.49 146.08 274.37 146.13 274.26 146.22C274.16 146.31 274.1 146.45 274.08 146.61H275.2C275.2 146.5 275.18 146.4 275.13 146.32H275.12Z" fill="#192441"/>
<path d="M277.27 146.02C277.4 146.15 277.47 146.34 277.47 146.58V147.62H277.18V146.62C277.18 146.44 277.14 146.31 277.05 146.22C276.96 146.13 276.84 146.08 276.69 146.08C276.54 146.08 276.41 146.13 276.32 146.23C276.23 146.33 276.18 146.47 276.18 146.65V147.63H275.89V145.86H276.18V146.11C276.24 146.02 276.32 145.95 276.42 145.9C276.52 145.85 276.63 145.83 276.75 145.83C276.96 145.83 277.14 145.9 277.27 146.03V146.02Z" fill="#192441"/>
<path d="M253.78 149.97V151.01C253.78 151.1 253.8 151.16 253.83 151.19C253.86 151.22 253.93 151.24 254.02 151.24H254.24V151.49H253.98C253.82 151.49 253.69 151.45 253.61 151.38C253.53 151.3 253.49 151.18 253.49 151.01V149.97H253.26V149.73H253.49V149.29H253.78V149.73H254.24V149.97H253.78Z" fill="#192441"/>
<path d="M255.83 149.78C255.94 149.84 256.02 149.92 256.08 150.04C256.14 150.15 256.17 150.29 256.17 150.46V151.5H255.88V150.5C255.88 150.32 255.84 150.19 255.75 150.1C255.66 150.01 255.54 149.96 255.39 149.96C255.24 149.96 255.11 150.01 255.02 150.11C254.93 150.21 254.88 150.35 254.88 150.53V151.51H254.59V149.13H254.88V150C254.94 149.91 255.02 149.84 255.12 149.79C255.22 149.74 255.34 149.72 255.46 149.72C255.58 149.72 255.71 149.75 255.82 149.81L255.83 149.78Z" fill="#192441"/>
<path d="M258.26 150.72H256.85C256.86 150.89 256.92 151.03 257.03 151.13C257.14 151.23 257.27 151.28 257.42 151.28C257.55 151.28 257.65 151.25 257.74 151.19C257.82 151.13 257.88 151.05 257.92 150.95H258.24C258.19 151.12 258.1 151.26 257.96 151.36C257.82 151.47 257.64 151.52 257.43 151.52C257.26 151.52 257.11 151.48 256.98 151.41C256.85 151.33 256.74 151.23 256.67 151.09C256.59 150.95 256.56 150.79 256.56 150.61C256.56 150.43 256.6 150.27 256.67 150.13C256.74 149.99 256.85 149.89 256.98 149.81C257.11 149.74 257.26 149.7 257.44 149.7C257.62 149.7 257.76 149.74 257.88 149.81C258.01 149.88 258.11 149.98 258.18 150.11C258.25 150.24 258.28 150.38 258.28 150.54C258.28 150.6 258.28 150.65 258.28 150.72H258.26ZM257.89 150.19C257.84 150.11 257.77 150.05 257.69 150.01C257.61 149.97 257.51 149.95 257.41 149.95C257.26 149.95 257.14 150 257.03 150.09C256.93 150.18 256.87 150.32 256.85 150.48H257.97C257.97 150.37 257.95 150.27 257.9 150.19H257.89Z" fill="#192441"/>
<path d="M268.43 150.13C268.5 149.99 268.6 149.89 268.73 149.81C268.86 149.73 269 149.7 269.16 149.7C269.32 149.7 269.45 149.73 269.56 149.8C269.67 149.87 269.76 149.95 269.81 150.05V149.73H270.11V151.5H269.81V151.17C269.75 151.27 269.67 151.36 269.55 151.43C269.43 151.5 269.3 151.53 269.15 151.53C269 151.53 268.85 151.49 268.72 151.41C268.59 151.33 268.49 151.22 268.42 151.08C268.35 150.94 268.31 150.78 268.31 150.6C268.31 150.42 268.35 150.26 268.42 150.12L268.43 150.13ZM269.74 150.26C269.69 150.16 269.61 150.09 269.52 150.03C269.43 149.98 269.33 149.95 269.22 149.95C269.11 149.95 269.01 149.98 268.92 150.03C268.83 150.08 268.76 150.16 268.7 150.26C268.65 150.36 268.62 150.48 268.62 150.61C268.62 150.74 268.65 150.86 268.7 150.96C268.75 151.06 268.83 151.14 268.92 151.19C269.01 151.24 269.11 151.27 269.22 151.27C269.33 151.27 269.43 151.24 269.52 151.19C269.61 151.14 269.68 151.06 269.74 150.96C269.79 150.86 269.82 150.74 269.82 150.61C269.82 150.48 269.79 150.36 269.74 150.26Z" fill="#192441"/>
<path d="M271.16 149.8C271.27 149.73 271.41 149.7 271.56 149.7C271.71 149.7 271.86 149.74 271.99 149.81C272.12 149.89 272.22 149.99 272.29 150.13C272.36 150.27 272.4 150.42 272.4 150.61C272.4 150.8 272.36 150.95 272.29 151.09C272.22 151.23 272.12 151.34 271.99 151.42C271.86 151.5 271.72 151.54 271.56 151.54C271.4 151.54 271.28 151.51 271.16 151.44C271.05 151.37 270.96 151.29 270.9 151.19V152.35H270.61V149.75H270.9V150.08C270.96 149.98 271.04 149.89 271.16 149.83V149.8ZM272.02 150.26C271.97 150.16 271.89 150.09 271.8 150.03C271.71 149.98 271.61 149.95 271.5 149.95C271.39 149.95 271.29 149.98 271.2 150.03C271.11 150.08 271.04 150.16 270.98 150.26C270.92 150.36 270.9 150.48 270.9 150.61C270.9 150.74 270.93 150.86 270.98 150.96C271.03 151.06 271.11 151.14 271.2 151.19C271.29 151.24 271.39 151.27 271.5 151.27C271.61 151.27 271.71 151.24 271.8 151.19C271.89 151.14 271.96 151.06 272.02 150.96C272.08 150.86 272.1 150.74 272.1 150.61C272.1 150.48 272.07 150.36 272.02 150.26Z" fill="#192441"/>
<path d="M273.34 149.8C273.45 149.73 273.59 149.7 273.74 149.7C273.89 149.7 274.04 149.74 274.17 149.81C274.3 149.89 274.4 149.99 274.47 150.13C274.54 150.27 274.58 150.42 274.58 150.61C274.58 150.8 274.54 150.95 274.47 151.09C274.4 151.23 274.3 151.34 274.17 151.42C274.04 151.5 273.9 151.54 273.74 151.54C273.58 151.54 273.46 151.51 273.34 151.44C273.23 151.37 273.14 151.29 273.08 151.19V152.35H272.79V149.75H273.08V150.08C273.14 149.98 273.22 149.89 273.34 149.83V149.8ZM274.2 150.26C274.15 150.16 274.07 150.09 273.98 150.03C273.89 149.98 273.79 149.95 273.68 149.95C273.57 149.95 273.47 149.98 273.38 150.03C273.29 150.08 273.22 150.16 273.16 150.26C273.1 150.36 273.08 150.48 273.08 150.61C273.08 150.74 273.11 150.86 273.16 150.96C273.21 151.06 273.29 151.14 273.38 151.19C273.47 151.24 273.57 151.27 273.68 151.27C273.79 151.27 273.89 151.24 273.98 151.19C274.07 151.14 274.14 151.06 274.2 150.96C274.26 150.86 274.28 150.74 274.28 150.61C274.28 150.48 274.25 150.36 274.2 150.26Z" fill="#192441"/>
<path d="M275.06 151.46C275.06 151.46 275 151.37 275 151.32C275 151.27 275.02 151.22 275.06 151.18C275.1 151.14 275.15 151.12 275.2 151.12C275.25 151.12 275.3 151.14 275.34 151.18C275.38 151.22 275.4 151.27 275.4 151.32C275.4 151.37 275.38 151.42 275.34 151.46C275.3 151.5 275.26 151.52 275.2 151.52C275.14 151.52 275.1 151.5 275.06 151.46ZM275.35 149.25L275.31 150.86H275.07L275.03 149.25H275.35Z" fill="#192441"/>
<path d="M260.52 149.49C259.98 149.49 259.55 149.94 259.55 150.5C259.55 151.06 259.99 151.51 260.52 151.51C261.05 151.51 261.49 151.06 261.49 150.5C261.49 149.94 261.05 149.49 260.52 149.49ZM260.52 151.07C260.22 151.07 259.98 150.82 259.98 150.5C259.98 150.18 260.22 149.93 260.52 149.93C260.82 149.93 261.06 150.18 261.06 150.5C261.06 150.82 260.82 151.07 260.52 151.07Z" fill="#192441"/>
<path d="M262.59 149.49C262.05 149.49 261.62 149.94 261.62 150.5V151.79C261.62 151.91 261.72 152.01 261.83 152.01C261.94 152.01 262.04 151.91 262.04 151.79V151.34C262.2 151.45 262.38 151.51 262.58 151.51C263.12 151.51 263.55 151.06 263.55 150.5C263.55 149.94 263.11 149.49 262.58 149.49H262.59ZM262.59 151.07C262.34 151.07 262.12 150.89 262.06 150.64C262.05 150.6 262.04 150.55 262.04 150.5C262.04 150.19 262.28 149.93 262.58 149.93C262.88 149.93 263.12 150.18 263.12 150.5C263.12 150.82 262.88 151.07 262.58 151.07H262.59Z" fill="#192441"/>
<path d="M264.69 149.49C264.15 149.49 263.72 149.94 263.72 150.5V151.79C263.72 151.91 263.82 152.01 263.93 152.01C264.04 152.01 264.14 151.91 264.14 151.79V151.34C264.3 151.45 264.48 151.51 264.68 151.51C265.22 151.51 265.65 151.06 265.65 150.5C265.65 149.94 265.21 149.49 264.68 149.49H264.69ZM264.69 151.07C264.44 151.07 264.22 150.89 264.16 150.64C264.15 150.6 264.14 150.55 264.14 150.5C264.14 150.19 264.38 149.93 264.68 149.93C264.98 149.93 265.22 150.18 265.22 150.5C265.22 150.82 264.98 151.07 264.68 151.07H264.69Z" fill="#192441"/>
<path d="M266.99 149.71C266.99 149.59 266.89 149.49 266.78 149.49C266.24 149.49 265.81 149.94 265.81 150.5V151.29C265.81 151.41 265.91 151.51 266.02 151.51C266.13 151.51 266.23 151.41 266.23 151.29V150.5C266.23 150.19 266.47 149.93 266.77 149.93C266.89 149.93 266.98 149.83 266.98 149.71H266.99Z" fill="#192441"/>
<path d="M267.17 151.52C267.314 151.52 267.43 151.399 267.43 151.25C267.43 151.101 267.314 150.98 267.17 150.98C267.026 150.98 266.91 151.101 266.91 151.25C266.91 151.399 267.026 151.52 267.17 151.52Z" fill="#ED6A4C"/>
<mask id="mask1_220_389" style="mask-type:luminance" maskUnits="userSpaceOnUse" x="40" y="29" width="294" height="210">
<path d="M332.92 39.02C331.5 33.39 326.35 29.56 320.61 29.5C318.34 29.47 316.08 29.5 313.81 29.5H54.17C53.45 29.5 52.73 29.48 52.02 29.53C45.38 29.97 40.3 35.57 40.21 42.16C40.17 45.08 40.21 48.01 40.21 50.93V219.59C40.21 222.95 39.77 226.92 40.81 230.16C42.51 235.43 47.45 238.87 52.93 238.93C53.65 238.93 54.36 238.93 55.08 238.93H320.69C327.64 238.82 333.22 233.26 333.32 226.29C333.33 225.49 333.32 224.69 333.32 223.89V43.67C333.32 42.1 333.32 40.57 332.93 39.02H332.92Z" fill="white"/>
</mask>
<g mask="url(#mask1_220_389)">
<path d="M185.7 103.62H211.17V89.5801C202.65 89.6101 194.13 89.7501 185.7 90.1401V103.61V103.62Z" fill="#283D56"/>
<path d="M208.89 71.41C200.76 73.82 192.79 76.77 184.93 80.07C185.42 81.33 185.7 82.7 185.7 84.13V90.14C194.13 89.74 202.64 89.6 211.17 89.58V84.13C211.17 79.66 210.36 75.37 208.9 71.41H208.89Z" fill="#283D56"/>
<path d="M174.43 47.39H166.74V72.86H174.43C174.87 72.86 175.29 72.89 175.72 72.94C178.96 64.98 182.58 57.15 185.77 49.18C182.2 48.02 178.39 47.39 174.44 47.39H174.43Z" fill="#283D56"/>
<path d="M91.88 15.59V34.92C91.88 35.12 91.89 35.32 91.9 35.53C100.42 35.06 108.89 34.12 117.35 33.12V15.59H91.88Z" fill="#283D56"/>
<path d="M91.9 35.53C92.07 46.21 96.67 55.84 103.95 62.64C109.23 55.91 114.77 49.45 120.37 43.05C118.49 40.87 117.34 38.03 117.34 34.92V33.12C108.88 34.11 100.4 35.06 91.89 35.53H91.9Z" fill="#283D56"/>
<path d="M120.37 43.05C114.76 49.45 109.22 55.91 103.95 62.64C110.73 68.97 119.83 72.8601 129.81 72.8601H130.79V47.39H129.81C126.04 47.39 122.66 45.7 120.37 43.05Z" fill="#283D56"/>
<path d="M146.56 47.39H130.8V72.86H146.58C146.65 64.4 146.73 55.87 146.56 47.39Z" fill="#283D56"/>
<path opacity="0.5" d="M208.89 71.41C200.76 73.82 192.79 76.77 184.93 80.07C185.42 81.33 185.7 82.7 185.7 84.13V90.14C194.13 89.74 202.64 89.6 211.17 89.58V84.13C211.17 79.66 210.36 75.37 208.9 71.41H208.89Z" fill="#192441"/>
<path opacity="0.5" d="M174.43 47.39H166.74V72.86H174.43C174.87 72.86 175.29 72.89 175.72 72.94C178.96 64.98 182.58 57.15 185.77 49.18C182.2 48.02 178.39 47.39 174.44 47.39H174.43Z" fill="#192441"/>
<path opacity="0.5" d="M91.9 35.53C92.07 46.21 96.67 55.84 103.95 62.64C109.23 55.91 114.77 49.45 120.37 43.05C118.49 40.87 117.34 38.03 117.34 34.92V33.12C108.88 34.11 100.4 35.06 91.89 35.53H91.9Z" fill="#192441"/>
<path opacity="0.5" d="M146.56 47.39H130.8V72.86H146.58C146.65 64.4 146.73 55.87 146.56 47.39Z" fill="#192441"/>
<path d="M166.74 47.39H146.56C146.73 55.87 146.65 64.4 146.58 72.86H166.74V47.39Z" fill="#283D56"/>
<path d="M185.76 49.18C182.58 57.16 178.95 64.98 175.71 72.94C179.93 73.42 183.45 76.24 184.93 80.07C192.79 76.77 200.76 73.82 208.89 71.41C205 60.91 196.45 52.65 185.75 49.18H185.76Z" fill="#283D56"/>
<path d="M293.92 195.97V221.44H315.54V195.97H293.92Z" fill="#283D56"/>
<path d="M315.55 195.97V221.44H338.01V195.97H315.55Z" fill="#283D56"/>
<path opacity="0.5" d="M315.55 195.97V221.44H338.01V195.97H315.55Z" fill="#192441"/>
</g>
<mask id="mask2_220_389" style="mask-type:luminance" maskUnits="userSpaceOnUse" x="40" y="29" width="294" height="210">
<path d="M332.92 39.02C331.5 33.39 326.35 29.56 320.61 29.5C318.34 29.47 316.08 29.5 313.81 29.5H54.17C53.45 29.5 52.73 29.48 52.02 29.53C45.38 29.97 40.3 35.57 40.21 42.16C40.17 45.08 40.21 48.01 40.21 50.93V219.59C40.21 222.95 39.77 226.92 40.81 230.16C42.51 235.43 47.45 238.87 52.93 238.93C53.65 238.93 54.36 238.93 55.08 238.93H320.69C327.64 238.82 333.22 233.26 333.32 226.29C333.33 225.49 333.32 224.69 333.32 223.89V43.67C333.32 42.1 333.32 40.57 332.93 39.02H332.92Z" fill="white"/>
</mask>
<g mask="url(#mask2_220_389)">
<path d="M77.1 82.32C77.1 82.32 78.84 73.17 69.59 72.25C60.34 71.33 60.89 114.78 48.18 134.9C32.35 159.96 47.72 175.34 34.63 195.22C21.54 215.1 -86.34 265.87 -86.34 265.87L5.80003 330.44C5.80003 330.44 32.2 260.65 72.12 240.47C112.04 220.29 112.96 232.61 138.59 181.09C164.22 129.57 77.11 82.32 77.11 82.32H77.1Z" fill="#F4A39B"/>
<path d="M158.98 158.47L150.94 143.76L160.41 129.69L145.27 116.55L134.95 137.03L142.43 162.98L158.98 158.47Z" fill="#F4A39B"/>
<path d="M135.44 164.3L153.11 179.29L143.74 185.1L132.11 180.07L135.44 164.3Z" fill="#F4A39B"/>
<path d="M142.76 90.39L163.51 108L152.5 114.82L138.84 108.91L142.76 90.39Z" fill="#F4A39B"/>
<path opacity="0.1" d="M75.66 77.54C75.66 77.54 53.7 184.12 60.76 202.58C67.82 221.04 116.8 213.87 116.8 213.87L75.66 77.54Z" fill="#282323"/>
<path d="M72.3563 208.568L126.781 215.057C133.482 215.856 139.563 211.072 140.362 204.37L156.045 72.842C156.845 66.1406 152.06 60.0602 145.358 59.2611L90.9339 52.7714C84.2325 51.9723 78.1521 56.7571 77.353 63.4585L61.6692 194.987C60.8701 201.688 65.6549 207.769 72.3563 208.568Z" fill="#B2B2B2"/>
<mask id="mask3_220_389" style="mask-type:luminance" maskUnits="userSpaceOnUse" x="63" y="55" width="91" height="158">
<path d="M143.029 61.6313L92.5765 55.6152C85.875 54.8161 79.7946 59.6009 78.9955 66.3023L63.86 193.233C63.0609 199.935 67.8457 206.015 74.5471 206.814L125 212.83C131.701 213.629 137.782 208.844 138.581 202.143L153.716 75.2122C154.515 68.5108 149.731 62.4304 143.029 61.6313Z" fill="white"/>
</mask>
<g mask="url(#mask3_220_389)">
<path d="M143.029 61.6313L92.5765 55.6152C85.875 54.8161 79.7946 59.6009 78.9955 66.3023L63.86 193.233C63.0609 199.935 67.8457 206.015 74.5471 206.814L125 212.83C131.701 213.629 137.782 208.844 138.581 202.143L153.716 75.2122C154.515 68.5108 149.731 62.4304 143.029 61.6313Z" fill="#F6F6F6"/>
<g filter="url(#filter0_d_220_389)">
<path d="M168.1 57.0009L70.8791 45.408L67.0831 77.2424L164.304 88.8354L168.1 57.0009Z" fill="white"/>
</g>
<path d="M98.79 67.2C97.65 67.06 96.62 67.92 96.47 69.1C96.33 70.28 97.14 71.35 98.27 71.49C99.4 71.63 100.44 70.77 100.59 69.59C100.74 68.41 99.92 67.34 98.79 67.2ZM98.39 70.54C97.75 70.46 97.3 69.86 97.38 69.2C97.46 68.54 98.04 68.06 98.68 68.14C99.32 68.22 99.77 68.82 99.69 69.48C99.61 70.14 99.03 70.62 98.39 70.54Z" fill="#192441"/>
<path d="M103.17 67.72C102.03 67.58 101 68.44 100.85 69.62L100.52 72.35C100.49 72.61 100.67 72.85 100.92 72.88C101.17 72.91 101.4 72.72 101.43 72.46L101.54 71.51C101.84 71.78 102.23 71.96 102.65 72.01C103.79 72.15 104.82 71.29 104.97 70.11C105.12 68.93 104.3 67.86 103.17 67.72ZM102.77 71.06C102.24 71 101.82 70.57 101.76 70.01C101.75 69.91 101.75 69.82 101.76 69.72C101.84 69.06 102.42 68.58 103.06 68.66C103.7 68.74 104.15 69.34 104.07 70C103.99 70.66 103.41 71.14 102.77 71.06Z" fill="#192441"/>
<path d="M107.62 68.25C106.48 68.11 105.45 68.9701 105.3 70.1501L104.97 72.88C104.94 73.14 105.12 73.3801 105.37 73.4101C105.62 73.4401 105.85 73.25 105.88 72.99L105.99 72.0401C106.29 72.3101 106.68 72.4901 107.1 72.5401C108.24 72.6801 109.27 71.82 109.42 70.64C109.57 69.46 108.75 68.39 107.62 68.25ZM107.22 71.59C106.69 71.53 106.27 71.1001 106.21 70.5401C106.2 70.4401 106.2 70.35 106.21 70.25C106.29 69.59 106.87 69.1101 107.51 69.1901C108.15 69.2701 108.6 69.87 108.52 70.53C108.44 71.19 107.86 71.67 107.22 71.59Z" fill="#192441"/>
<path d="M112.43 69.3C112.46 69.04 112.28 68.8 112.03 68.77C110.89 68.63 109.86 69.49 109.71 70.67L109.51 72.34C109.48 72.6 109.66 72.84 109.91 72.87C110.16 72.9 110.39 72.71 110.42 72.45L110.62 70.78C110.7 70.12 111.28 69.64 111.92 69.72C112.17 69.75 112.4 69.56 112.43 69.3Z" fill="#192441"/>
<path d="M112.966 72.6821C113.004 72.3695 112.794 72.0875 112.498 72.0522C112.202 72.0169 111.931 72.2417 111.894 72.5542C111.857 72.8668 112.067 73.1489 112.363 73.1842C112.659 73.2195 112.929 72.9947 112.966 72.6821Z" fill="#ED6A4C"/>
<path d="M93.73 65.58C93.75 65.9 93.66 66.22 93.44 66.49C93.17 66.82 92.76 67 92.35 66.95C92.67 67.44 92.81 68.04 92.74 68.64C92.58 70 91.38 70.99 90.07 70.83C89.17 70.72 88.44 70.1 88.13 69.28L87.86 71.55C87.84 71.68 87.81 71.8 87.76 71.91C88.34 72.37 89.05 72.68 89.83 72.77C92.17 73.05 94.32 71.29 94.61 68.85C94.75 67.66 94.43 66.49 93.74 65.57L93.73 65.58Z" fill="#34B9CA"/>
<path d="M90.64 65.87C91.1 65.93 91.53 66.12 91.89 66.42C92.29 66.77 92.88 66.71 93.22 66.29C93.56 65.87 93.5 65.25 93.11 64.91C92.48 64.36 91.7 64.02 90.88 63.92C88.61 63.65 86.53 65.29 86.13 67.61L86.1 67.84L85.69 71.29C85.63 71.83 85.99 72.31 86.51 72.38C86.96 72.43 87.38 72.15 87.52 71.72C87.54 71.66 87.56 71.59 87.56 71.52L87.97 68.07C88.13 66.71 89.33 65.72 90.64 65.88V65.87Z" fill="#34B9CA"/>
<path d="M91.8961 68.5421C92.0014 67.6591 91.3976 66.8612 90.5476 66.7599C89.6976 66.6585 88.9232 67.2921 88.8179 68.175C88.7126 69.0579 89.3163 69.8558 90.1664 69.9572C91.0164 70.0586 91.7908 69.425 91.8961 68.5421Z" fill="#ED6A4C"/>
<path d="M141.14 71.09L149.16 72.05" stroke="#192441" stroke-miterlimit="10" stroke-linecap="round"/>
<path d="M140.75 74.35L148.77 75.31" stroke="#192441" stroke-miterlimit="10" stroke-linecap="round"/>
<path d="M140.36 77.6201L148.38 78.5701" stroke="#192441" stroke-miterlimit="10" stroke-linecap="round"/>
</g>
<path d="M87.47 204.51L113.01 207.56" stroke="#192441" stroke-width="1.42" stroke-miterlimit="10" stroke-linecap="round"/>
<path d="M78.409 137.59L137.55 144.643C137.956 144.691 138.324 144.401 138.372 143.995L138.55 142.506C138.598 142.1 138.309 141.732 137.903 141.684L78.7618 134.631C78.356 134.583 77.9878 134.873 77.9394 135.279L77.7618 136.768C77.7134 137.174 78.0032 137.542 78.409 137.59Z" fill="#192441"/>
<path d="M77.3912 146.223L136.532 153.275C136.938 153.324 137.306 153.034 137.355 152.628L137.532 151.139C137.581 150.733 137.291 150.365 136.885 150.316L77.7441 143.264C77.3382 143.216 76.97 143.505 76.9216 143.911L76.744 145.401C76.6956 145.806 76.9854 146.175 77.3912 146.223Z" fill="#192441"/>
<path d="M86.9752 158.984L135.164 164.73C135.57 164.779 135.938 164.489 135.986 164.083L136.164 162.594C136.212 162.188 135.922 161.819 135.517 161.771L87.3281 156.025C86.9222 155.977 86.554 156.266 86.5056 156.672L86.328 158.162C86.2796 158.567 86.5694 158.936 86.9752 158.984Z" fill="#192441"/>
<path d="M85.9622 167.453L134.151 173.199C134.557 173.248 134.925 172.958 134.973 172.552L135.151 171.063C135.199 170.657 134.909 170.289 134.504 170.24L86.315 164.494C85.9092 164.446 85.541 164.736 85.4926 165.141L85.315 166.631C85.2666 167.037 85.5564 167.405 85.9622 167.453Z" fill="#192441"/>
<path d="M116.42 117.07L129.63 107.49L136.22 111.14L137.81 97.81C137.99 96.27 137.86 94.99 135.43 94.7L92.1901 89.55C89.7701 89.26 89.3301 90.47 89.1501 92.01L86.6901 112.66L104.72 105.22L116.42 117.08V117.07Z" fill="#192441"/>
<path d="M100.13 113.16C104.626 113.16 108.27 109.516 108.27 105.02C108.27 100.524 104.626 96.88 100.13 96.88C95.6344 96.88 91.99 100.524 91.99 105.02C91.99 109.516 95.6344 113.16 100.13 113.16Z" fill="white"/>
<path opacity="0.5" d="M100.13 113.16C104.626 113.16 108.27 109.516 108.27 105.02C108.27 100.524 104.626 96.88 100.13 96.88C95.6344 96.88 91.99 100.524 91.99 105.02C91.99 109.516 95.6344 113.16 100.13 113.16Z" fill="#ED6A4C"/>
<path d="M88.0101 124.6L131.25 129.75C133.67 130.04 134.11 128.83 134.29 127.29L136.22 111.13L132.11 107.1C131.08 106.09 128.9 105.95 127.9 106.84L118.51 115.19C117.51 116.08 115.29 115.93 114.28 114.9L106.22 106.73C105.4 105.9 103.74 105.61 102.57 106.09L86.6801 112.64L85.6301 121.49C85.4501 123.03 85.5801 124.31 88.0101 124.6Z" fill="#ED6A4C"/>
<path d="M79.2501 153.12C81.1201 153.34 82.4601 155.04 82.2401 156.92C82.0201 158.8 80.3201 160.13 78.4401 159.91C76.5601 159.69 75.2301 157.99 75.4501 156.11C75.6701 154.23 77.3701 152.9 79.2501 153.12Z" fill="#ED6A4C"/>
<path d="M84.4877 179.824L132.676 185.57C133.082 185.619 133.45 185.329 133.499 184.923L133.676 183.434C133.725 183.028 133.435 182.66 133.029 182.611L84.8406 176.865C84.4347 176.817 84.0665 177.107 84.0182 177.512L83.8406 179.002C83.7922 179.408 84.0819 179.776 84.4877 179.824Z" fill="#192441"/>
<path d="M83.4734 188.313L131.662 194.06C132.068 194.108 132.436 193.818 132.484 193.412L132.662 191.923C132.71 191.517 132.421 191.149 132.015 191.101L83.8263 185.354C83.4205 185.306 83.0523 185.596 83.0039 186.002L82.8263 187.491C82.7779 187.897 83.0676 188.265 83.4734 188.313Z" fill="#192441"/>
<path d="M76.3601 180.79C78.2489 180.79 79.7801 179.259 79.7801 177.37C79.7801 175.481 78.2489 173.95 76.3601 173.95C74.4712 173.95 72.9401 175.481 72.9401 177.37C72.9401 179.259 74.4712 180.79 76.3601 180.79Z" fill="#ED6A4C"/>
<path d="M138.37 184.46C137.8 189.23 141.21 193.56 145.98 194.12C150.75 194.69 155.08 191.28 155.64 186.51C155.97 183.74 154.96 181.11 153.11 179.29C151.78 177.98 150.03 177.09 148.03 176.85C143.26 176.28 138.93 179.69 138.37 184.46Z" fill="#F4A39B"/>
<path d="M149.58 174.66C155.561 174.66 160.41 169.811 160.41 163.83C160.41 157.849 155.561 153 149.58 153C143.599 153 138.75 157.849 138.75 163.83C138.75 169.811 143.599 174.66 149.58 174.66Z" fill="#F4A39B"/>
<path d="M153.48 151.04C159.997 151.04 165.28 145.757 165.28 139.24C165.28 132.723 159.997 127.44 153.48 127.44C146.963 127.44 141.68 132.723 141.68 139.24C141.68 145.757 146.963 151.04 153.48 151.04Z" fill="#F4A39B"/>
<path d="M146.2 114.07C145.53 119.67 149.53 124.75 155.13 125.42C160.73 126.09 165.81 122.09 166.48 116.49C166.87 113.23 165.68 110.15 163.51 108.01C161.95 106.47 159.89 105.42 157.55 105.14C151.95 104.47 146.87 108.47 146.2 114.07Z" fill="#F4A39B"/>
</g>
<defs>
<filter id="filter0_d_220_389" x="63.0831" y="41.408" width="109.017" height="51.4274" filterUnits="userSpaceOnUse" color-interpolation-filters="sRGB">
<feFlood flood-opacity="0" result="BackgroundImageFix"/>
<feColorMatrix in="SourceAlpha" type="matrix" values="0 0 0 0 0 0 0 0 0 0 0 0 0 0 0 0 0 0 127 0" result="hardAlpha"/>
<feOffset/>
<feGaussianBlur stdDeviation="2"/>
<feColorMatrix type="matrix" values="0 0 0 0 0.113725 0 0 0 0 0.113725 0 0 0 0 0.105882 0 0 0 0.5 0"/>
<feBlend mode="normal" in2="BackgroundImageFix" result="effect1_dropShadow_220_389"/>
<feBlend mode="normal" in="SourceGraphic" in2="effect1_dropShadow_220_389" result="shape"/>
</filter>
</defs>
</svg>
