<svg width="374" height="269" viewBox="0 0 374 269" fill="none" xmlns="http://www.w3.org/2000/svg">
<path opacity="0.5" d="M332.92 39.02C331.5 33.39 326.35 29.56 320.61 29.5C318.34 29.47 316.08 29.5 313.81 29.5H54.17C53.45 29.5 52.73 29.48 52.02 29.53C45.38 29.97 40.3 35.57 40.21 42.16C40.17 45.08 40.21 48.01 40.21 50.93V219.59C40.21 222.95 39.77 226.92 40.81 230.16C42.51 235.43 47.45 238.87 52.93 238.93C53.65 238.93 54.36 238.93 55.08 238.93H320.69C327.64 238.82 333.22 233.26 333.32 226.29C333.33 225.49 333.32 224.69 333.32 223.89V43.67C333.32 42.1 333.32 40.57 332.93 39.02H332.92Z" fill="#34B9CA"/>
<path d="M289.4 74.26C309.713 74.26 326.18 57.793 326.18 37.48C326.18 17.167 309.713 0.700012 289.4 0.700012C269.087 0.700012 252.62 17.167 252.62 37.48C252.62 57.793 269.087 74.26 289.4 74.26Z" fill="#ED6A4C"/>
<path d="M291.66 18.43L296.86 29.07L308.3 30.75C309.26 30.91 310.06 31.55 310.38 32.51C310.7 33.39 310.46 34.43 309.74 35.07L301.42 43.31L303.42 54.99C303.58 55.95 303.18 56.91 302.38 57.47C301.58 58.11 300.54 58.11 299.66 57.71L289.42 52.19L279.1 57.71C278.3 58.11 277.26 58.11 276.46 57.47C275.66 56.91 275.26 55.95 275.42 54.99L277.34 43.31L269.02 35.07C268.38 34.43 268.14 33.39 268.38 32.51C268.7 31.55 269.5 30.91 270.46 30.75L281.98 29.07L287.1 18.43C287.5 17.55 288.38 16.99 289.42 16.99C290.38 16.99 291.26 17.55 291.66 18.43Z" fill="white"/>
<path d="M40.65 93.63C46.16 99.01 53.07 103.67 59.83 107.8C83.6 122.22 111.78 129.55 139.5 126.35C141.31 126.1 144.2 125.85 145.99 125.5C148.12 125.06 153.63 124.13 155.68 123.48C157.27 123.05 160.53 122.19 162.13 121.77C167.26 120.1 172.97 118.1 177.95 115.86C197.03 107.46 214.34 95.34 230.38 80.74L239.53 89.76C220.43 113.56 195.77 135.4 167.62 147.99C165.4 148.95 162.49 150.35 160.26 151.15C159.76 151.37 151.91 154.16 151.75 154.25C147.08 155.61 141.88 157.23 137.1 158.15C95.35 167.39 50.75 157.87 14.35 135.76C13.19 135.06 11.96 134.2 10.83 133.44L10.08 132.88L40.65 93.63Z" fill="#34B9CA"/>
<path d="M213.12 74.76L250.52 66.18C253.39 65.52 255.93 68.16 255.26 71.1L246.34 110.39C245.6 113.65 241.43 114.43 239.65 111.65L230.99 90.97L211.71 81.53C209.15 79.61 210.02 75.47 213.12 74.76Z" fill="#34B9CA"/>
<path d="M10.08 132.88C10.08 132.88 7.11001 129.54 10.34 125.07C15.72 117.63 34.28 95.22 34.28 95.22C34.28 95.22 37.45 91.75 40.65 93.63C43.85 95.51 37.03 127.53 37.03 127.53L10.08 132.88Z" fill="#34B9CA"/>
<mask id="mask0_220_710" style="mask-type:luminance" maskUnits="userSpaceOnUse" x="40" y="29" width="294" height="210">
<path d="M332.92 39.02C331.5 33.39 326.35 29.56 320.61 29.5C318.34 29.47 316.08 29.5 313.81 29.5H54.17C53.45 29.5 52.73 29.48 52.02 29.53C45.38 29.97 40.3 35.57 40.21 42.16C40.17 45.08 40.21 48.01 40.21 50.93V219.59C40.21 222.95 39.77 226.92 40.81 230.16C42.51 235.43 47.45 238.87 52.93 238.93C53.65 238.93 54.36 238.93 55.08 238.93H320.69C327.64 238.82 333.22 233.26 333.32 226.29C333.33 225.49 333.32 224.69 333.32 223.89V43.67C333.32 42.1 333.32 40.57 332.93 39.02H332.92Z" fill="white"/>
</mask>
<g mask="url(#mask0_220_710)">
<path d="M96.19 195.22H70.33C62.4047 195.22 55.98 201.645 55.98 209.57V242.54C55.98 250.465 62.4047 256.89 70.33 256.89H96.19C104.115 256.89 110.54 250.465 110.54 242.54V209.57C110.54 201.645 104.115 195.22 96.19 195.22Z" fill="#192441"/>
<path d="M166.8 168.13H140.94C133.015 168.13 126.59 174.555 126.59 182.48V242.55C126.59 250.475 133.015 256.9 140.94 256.9H166.8C174.725 256.9 181.15 250.475 181.15 242.55V182.48C181.15 174.555 174.725 168.13 166.8 168.13Z" fill="#192441"/>
<path d="M234.81 124.77H208.95C201.025 124.77 194.6 131.195 194.6 139.12V242.54C194.6 250.465 201.025 256.89 208.95 256.89H234.81C242.735 256.89 249.16 250.465 249.16 242.54V139.12C249.16 131.195 242.735 124.77 234.81 124.77Z" fill="#192441"/>
<path d="M301.33 86.5801H275.47C267.545 86.5801 261.12 93.0048 261.12 100.93V242.54C261.12 250.465 267.545 256.89 275.47 256.89H301.33C309.255 256.89 315.68 250.465 315.68 242.54V100.93C315.68 93.0048 309.255 86.5801 301.33 86.5801Z" fill="#192441"/>
</g>
<path d="M138.07 100.86C138.07 100.86 147.04 110.84 149.34 110.58C151.64 110.32 167.71 94.92 168.78 92.78C169.45 91.43 165.58 88.65 165.58 88.65C165.58 88.65 152.74 97.26 150.66 98.42C148.58 99.58 147.03 95.29 142.04 92.8C137.05 90.31 138.07 100.86 138.07 100.86Z" fill="#F4A39B"/>
<path d="M168.2 93.57C168.98 92.27 170.46 91.56 171.91 91.09C172.74 90.82 173.66 90.56 174.14 89.84C174.45 89.38 174.52 88.81 174.56 88.25C174.62 87.38 174.59 86.48 174.27 85.67C173.84 84.59 172.94 83.76 171.95 83.15C171.51 82.88 171.02 82.64 170.51 82.67C169.99 82.71 169.53 83.03 169.19 83.43C168.85 83.83 168.63 84.31 168.39 84.77C167.64 86.19 166.69 87.49 165.58 88.65C165.24 89 164.86 89.43 164.99 89.9C165.03 90.05 165.12 90.18 165.22 90.31C166.07 91.48 167.06 92.56 168.15 93.51" fill="#F4A39B"/>
<path d="M167.99 94.7C167.99 94.7 153.26 111.02 149.34 111.34C145.42 111.66 134.4 98.37 134.4 98.37L143.65 91.87C143.65 91.87 148.99 97.89 149.6 97.63C150.21 97.37 162.05 90.18 162.05 90.18C162.05 90.18 165.92 89.86 167.99 94.7Z" fill="#192441"/>
<path d="M139.85 82.41L132.26 94.09C135.79 100.97 139.72 104.77 143.64 106.58C144.34 102.29 147.77 99.76 149.61 97.64C144.48 91.2 139.85 82.41 139.85 82.41Z" fill="#192441"/>
<path d="M67.16 173.04L64.2 175.88C63.68 176.38 62.88 176.46 62.27 176.06C61.74 175.71 61.16 175.14 60.77 174.21C60.54 173.65 60.65 173.01 61.06 172.56L64.01 169.31C64.71 168.54 65.97 168.66 66.5 169.56L67.42 171.12C67.79 171.74 67.68 172.53 67.16 173.03V173.04Z" fill="url(#paint0_linear_220_710)"/>
<path d="M55.94 172.95C55.94 172.95 55.93 172.96 55.92 172.97C55.24 173.38 54.9 174.23 55.06 175.07C55.69 178.37 57.2 184.14 62.26 189.3C62.59 189.64 63.08 189.61 63.37 189.3C63.46 189.2 63.54 189.08 63.58 188.93C64.53 185.63 67.12 179.41 62.45 172.84C62.45 172.84 59.19 171.07 55.94 172.95Z" fill="#1D1D1B"/>
<path d="M172.89 144.59C172.76 144.56 172.62 144.55 172.46 144.59C169.12 145.4 162.79 145.89 159.38 153.2C159.38 153.2 159.45 156.91 162.69 158.81C162.69 158.81 162.71 158.81 162.72 158.82C163.41 159.21 164.32 159.08 164.97 158.53C167.53 156.35 171.44 152.52 173.43 145.57C173.56 145.11 173.29 144.7 172.88 144.6L172.89 144.59Z" fill="#1D1D1B"/>
<path d="M159.16 147.05L162.25 149.74C162.8 150.22 162.95 151.01 162.6 151.64C162.3 152.2 161.78 152.83 160.89 153.3C160.36 153.58 159.7 153.53 159.22 153.16L155.72 150.51C154.89 149.88 154.9 148.62 155.75 148.01L157.22 146.95C157.81 146.53 158.61 146.57 159.15 147.04L159.16 147.05Z" fill="url(#paint1_linear_220_710)"/>
<path d="M97.17 119.81C97.17 119.81 93.22 133.26 89.65 143.17C88.36 146.76 85.44 149.55 81.77 150.62C79.89 151.17 77.85 151.91 76.21 152.88C71.99 155.34 62.91 169 62.91 169C62.91 169 65.28 173.5 68.14 174.19L95.41 160.14C96.8 159.42 97.98 158.35 98.82 157.03L114.63 132.28L113.65 121.15L97.16 119.81H97.17Z" fill="#414A5E"/>
<path d="M97.54 118.13L95.78 123.75C95.78 123.75 97.39 138.49 115.98 136.01C134.57 133.52 136.73 134.68 136.73 134.68C136.73 134.68 135.29 139.91 155.62 151.23C155.62 151.23 158.71 148.9 159.39 146.25L145.15 122.77C143.17 119.69 141.33 118.88 137.71 119.45C129.71 120.7 114.73 122.33 112.47 121.94L97.55 118.13H97.54Z" fill="#414A5E"/>
<path d="M119.52 92.3C119.99 90.63 120.48 88.96 120.99 87.29C122.04 83.5 120.87 80.09 119.43 76.71C116.92 76.36 114.41 76.19 112.06 76.31C111.28 76.35 110.44 76.44 109.54 76.57C110.22 80.87 109.09 85.19 106.51 88.58C106.24 89.58 105.97 90.57 105.69 91.56C110.32 91.38 114.94 91.66 119.52 92.29V92.3Z" fill="#ED6A4C"/>
<path d="M118.03 97.74C118.52 95.93 119.02 94.11 119.53 92.3C114.95 91.67 110.32 91.4 105.7 91.57C105.12 93.66 104.51 95.72 103.89 97.77C108.6 97.73 113.35 97.56 118.03 97.74Z" fill="#ED6A4C"/>
<path d="M116.39 103.75C116.94 101.75 117.48 99.75 118.02 97.74C113.33 97.56 108.58 97.72 103.88 97.77C103.27 99.77 102.64 101.76 101.98 103.72C106.77 103.64 111.6 103.56 116.39 103.76V103.75Z" fill="#ED6A4C"/>
<path d="M99.35 111.2C98.15 114.41 96.89 117.56 95.55 120.63C95.28 121.26 95.59 121.99 96.24 122.22C97.88 122.79 103.34 123.92 109.45 124.42C111.36 120.07 112.9 115.61 114.28 111.09C109.29 111.14 104.28 111.36 99.35 111.2Z" fill="#ED6A4C"/>
<path d="M101.99 103.72C101.15 106.25 100.27 108.74 99.35 111.2C104.29 111.36 109.3 111.14 114.28 111.09C115.02 108.66 115.72 106.21 116.39 103.76C111.6 103.56 106.77 103.64 101.98 103.72H101.99Z" fill="#ED6A4C"/>
<path d="M132.65 79.83C128.92 78.65 124.16 77.36 119.43 76.71C120.87 80.08 122.05 83.5 120.99 87.29C117.17 99.81 114.67 112.53 109.46 124.42C111.85 124.62 114.35 124.72 116.75 124.65C120.03 110.36 124.01 97.15 129.57 83.95C130.13 82.46 131.27 80.98 132.64 79.83H132.65Z" fill="#192441"/>
<path d="M134.12 100.61C130.89 99.38 127.56 98.65 124.15 98.22C123.48 100.19 122.84 102.16 122.22 104.15C125.7 104.5 129.13 105.07 132.48 105.96L134.11 100.6L134.12 100.61Z" fill="#ED6A4C"/>
<path d="M132.49 105.96C129.14 105.07 125.7 104.5 122.23 104.15C121.51 106.46 120.83 108.78 120.17 111.13C123.68 111.25 127.16 111.55 130.57 112.24L132.48 105.96H132.49Z" fill="#ED6A4C"/>
<path d="M120.18 111.13C118.95 115.55 117.81 120.04 116.75 124.65C120.93 124.54 124.84 123.92 127.48 122.43L130.58 112.24C127.17 111.55 123.69 111.24 120.18 111.13Z" fill="#ED6A4C"/>
<path d="M135.47 96.19C135.53 96.1 135.59 96.01 135.65 95.93C132.43 94.94 129.17 94.08 125.86 93.4C125.27 95 124.71 96.61 124.16 98.23C127.56 98.66 130.9 99.39 134.13 100.62L135.47 96.21V96.19Z" fill="#ED6A4C"/>
<path opacity="0.2" d="M118.03 97.74C118.52 95.93 119.02 94.11 119.53 92.3C114.95 91.67 110.32 91.4 105.7 91.57C105.12 93.66 104.51 95.72 103.89 97.77C108.6 97.73 113.35 97.56 118.03 97.74Z" fill="#F6F6F6"/>
<path opacity="0.2" d="M101.99 103.72C101.15 106.25 100.27 108.74 99.35 111.2C104.29 111.36 109.3 111.14 114.28 111.09C115.02 108.66 115.72 106.21 116.39 103.76C111.6 103.56 106.77 103.64 101.98 103.72H101.99Z" fill="#F6F6F6"/>
<path opacity="0.2" d="M132.49 105.96C129.14 105.07 125.7 104.5 122.23 104.15C121.51 106.46 120.83 108.78 120.17 111.13C123.68 111.25 127.16 111.55 130.57 112.24L132.48 105.96H132.49Z" fill="#F6F6F6"/>
<path opacity="0.2" d="M135.47 96.19C135.53 96.1 135.59 96.01 135.65 95.93C132.43 94.94 129.17 94.08 125.86 93.4C125.27 95 124.71 96.61 124.16 98.23C127.56 98.66 130.9 99.39 134.13 100.62L135.47 96.21V96.19Z" fill="#F6F6F6"/>
<path d="M139.85 82.41C139.85 82.41 136.92 81.18 132.65 79.83C131.27 80.98 130.13 82.46 129.58 83.95C128.26 87.09 127.02 90.24 125.87 93.4C129.17 94.09 132.44 94.94 135.66 95.93C137.47 93.25 138.67 90.2 139.16 87.01L139.86 82.41H139.85Z" fill="#ED6A4C"/>
<path d="M132.32 63.05C132.32 63.05 133.14 61.77 132.83 59.32C132.52 56.87 133.88 57.57 134.91 54.87C135.94 52.17 134.52 49.08 130.14 50.08C125.75 51.09 125.24 49.53 122.22 50.49C119.2 51.45 120.69 53.4 118.12 54.69C115.55 55.98 115.02 58.22 115.93 60.61C116.84 63 118.92 64.62 118.92 64.62L132.33 63.05H132.32Z" fill="#ED6A4C"/>
<path d="M119.56 70.03C121.43 74.69 126.53 78.02 131.04 75.35L131.76 79.1C131.87 79.67 131.76 80.26 131.44 80.75C130.39 82.39 128.19 82.81 126.61 81.68L119.7 76.73C119.95 74.68 119.78 72.11 119.55 70.03H119.56Z" fill="#F4A39B"/>
<path d="M119.56 70.03C119.32 67.86 119 66.22 119 66.22L130.52 72.66L131.04 75.36C126.52 78.02 121.42 74.7 119.56 70.04V70.03Z" fill="#F4A39B"/>
<path opacity="0.1" d="M119.56 70.03C119.32 67.86 119 66.22 119 66.22L130.52 72.66L131.04 75.36C126.52 78.02 121.42 74.7 119.56 70.04V70.03Z" fill="#282323"/>
<path d="M118.94 63.66C118.94 63.66 117.86 62.48 116.84 63C115.82 63.52 117.58 67.12 119.62 67.16C121.66 67.2 118.95 63.66 118.95 63.66H118.94Z" fill="#F4A39B"/>
<path d="M131.78 64.12C131.78 64.12 134.07 66.61 133.62 70.06C133.16 73.51 129.98 74.44 129.11 74.61C128.24 74.78 122.3 75.42 119.4 68.18C122.89 66.89 125.42 63.81 128.57 61.86L131.78 64.12Z" fill="#F4A39B"/>
<path d="M118.22 62.68L120.3 56.04L128.57 61.86C125.41 63.81 122.89 66.89 119.4 68.18C119.32 67.98 119.24 67.78 119.17 67.56C119.17 67.56 117.85 64.29 118.23 62.67L118.22 62.68Z" fill="#ED6A4C"/>
<path d="M132.26 65.52C132.26 65.52 132.96 64.43 132.48 61.96C132 59.49 132.07 58.2 128.68 57.2C125.29 56.2 122.01 58.01 121.01 59.48C120.01 60.95 119.64 63.74 120.35 65.21C121.06 66.68 122.82 68.36 124.56 67.39C126.3 66.42 126.78 65.9 128.02 65.71C129.26 65.52 131.47 66.43 132.25 65.53L132.26 65.52Z" fill="#F4A39B"/>
<path d="M127.07 70.24C127.47 70.49 128 70.66 128.51 70.76C129.01 70.86 129.56 70.93 130.08 70.75C130.57 70.58 131.03 70.24 131.4 69.93C131.74 69.65 132 69.26 131.83 68.91C131.73 68.7 131.52 68.58 131.26 68.53C130.87 68.38 130.38 68.36 129.93 68.37C129.29 68.38 128.65 68.49 128.03 68.68C127.58 68.82 127.01 69.02 126.76 69.35C126.5 69.69 126.74 70.02 127.06 70.23L127.07 70.24Z" fill="#F4A39B"/>
<path d="M130.907 64.1246C131.981 63.9177 132.663 62.7739 132.431 61.57C132.199 60.3661 131.14 59.5579 130.067 59.7649C128.993 59.9719 128.31 61.1156 128.543 62.3195C128.775 63.5234 129.833 64.3316 130.907 64.1246Z" stroke="black" stroke-width="0.28" stroke-miterlimit="10"/>
<path d="M125.891 64.8891C126.965 64.6821 127.647 63.5384 127.415 62.3345C127.183 61.1306 126.125 60.3224 125.051 60.5294C123.977 60.7363 123.295 61.8801 123.527 63.084C123.759 64.2879 124.818 65.0961 125.891 64.8891Z" stroke="black" stroke-width="0.28" stroke-miterlimit="10"/>
<path d="M128.26 61.97C128.2 61.98 128.14 61.99 128.09 62C128.06 62 128.04 62 128.01 62.01C128 62.01 127.98 62.01 127.97 62.01C127.95 62.01 127.95 62.01 127.97 62.01C127.97 62.01 127.96 62.01 127.95 62.01C127.83 62.02 127.72 62.04 127.6 62.04C127.53 62.04 127.45 62.1 127.46 62.18C127.46 62.25 127.52 62.33 127.6 62.32C127.85 62.3 128.1 62.27 128.34 62.22C128.41 62.21 128.46 62.11 128.44 62.05C128.41 61.97 128.34 61.94 128.27 61.95L128.26 61.97Z" fill="black"/>
<path d="M123.37 62.24C122.14 62.28 120.92 62.17 119.71 61.92C119.53 61.88 119.46 62.16 119.63 62.19C120.86 62.45 122.11 62.56 123.36 62.52C123.54 62.52 123.54 62.23 123.36 62.24H123.37Z" fill="black"/>
<path d="M125.49 63.18C125.37 63.2 125.24 63.22 125.16 63.3C125.08 63.38 125.06 63.5 125.05 63.62C125.05 63.77 125.07 63.95 125.21 64.02C125.29 64.06 125.38 64.05 125.47 64.04C125.59 64.03 125.71 64 125.8 63.93C125.91 63.84 125.95 63.7 125.97 63.57C125.99 63.42 125.98 63.23 125.84 63.16C125.79 63.14 125.74 63.13 125.69 63.13C125.59 63.13 125.49 63.15 125.4 63.18" fill="#1D1D1B"/>
<path d="M125.45 63.01C125.31 63.03 125.17 63.07 125.05 63.16C124.93 63.25 124.89 63.39 124.87 63.53C124.84 63.76 124.88 64.06 125.11 64.17C125.25 64.24 125.4 64.23 125.55 64.21C125.7 64.19 125.84 64.14 125.94 64.03C126.03 63.94 126.08 63.82 126.11 63.7C126.14 63.58 126.15 63.45 126.13 63.32C126.1 63.17 126 63.03 125.84 62.99C125.68 62.95 125.49 62.97 125.33 63.03C125.24 63.06 125.17 63.15 125.2 63.24C125.23 63.32 125.32 63.39 125.42 63.36C125.47 63.34 125.53 63.33 125.58 63.32C125.6 63.32 125.61 63.32 125.63 63.32C125.66 63.32 125.68 63.32 125.71 63.32C125.76 63.32 125.68 63.32 125.72 63.32C125.72 63.32 125.74 63.32 125.75 63.33C125.72 63.3 125.77 63.34 125.75 63.33L125.77 63.35V63.33C125.77 63.33 125.77 63.34 125.77 63.35L125.78 63.37C125.78 63.34 125.77 63.34 125.78 63.36C125.78 63.36 125.78 63.42 125.79 63.43V63.41C125.79 63.41 125.79 63.42 125.79 63.43C125.79 63.44 125.79 63.45 125.79 63.46C125.79 63.5 125.79 63.55 125.78 63.59C125.78 63.55 125.78 63.62 125.78 63.59C125.78 63.59 125.78 63.61 125.78 63.62C125.78 63.64 125.77 63.66 125.76 63.68C125.76 63.7 125.75 63.73 125.74 63.74C125.74 63.72 125.76 63.72 125.74 63.74C125.74 63.75 125.73 63.77 125.72 63.78C125.72 63.78 125.71 63.8 125.7 63.81C125.7 63.8 125.73 63.78 125.7 63.81C125.7 63.81 125.68 63.83 125.67 63.84C125.66 63.84 125.65 63.85 125.64 63.86C125.62 63.87 125.59 63.88 125.56 63.88C125.54 63.88 125.51 63.88 125.49 63.89C125.49 63.89 125.43 63.9 125.48 63.89C125.48 63.89 125.46 63.89 125.45 63.89C125.43 63.89 125.4 63.89 125.38 63.89C125.38 63.89 125.36 63.89 125.35 63.89C125.35 63.89 125.33 63.89 125.32 63.89C125.34 63.89 125.35 63.89 125.33 63.89H125.3C125.3 63.9 125.32 63.9 125.3 63.89H125.29C125.29 63.89 125.27 63.88 125.27 63.87C125.29 63.88 125.27 63.87 125.27 63.86C125.27 63.86 125.27 63.85 125.26 63.84C125.26 63.84 125.26 63.83 125.25 63.82C125.25 63.84 125.26 63.85 125.25 63.83C125.25 63.81 125.24 63.8 125.24 63.78C125.24 63.77 125.24 63.76 125.24 63.74C125.23 63.72 125.24 63.73 125.24 63.74C125.24 63.72 125.24 63.69 125.24 63.68C125.24 63.66 125.24 63.63 125.24 63.61C125.24 63.59 125.24 63.57 125.24 63.55C125.23 63.59 125.24 63.51 125.24 63.55C125.24 63.54 125.24 63.53 125.24 63.51V63.49C125.24 63.46 125.22 63.52 125.24 63.48C125.24 63.48 125.25 63.46 125.26 63.45C125.23 63.47 125.28 63.42 125.26 63.45C125.26 63.45 125.3 63.42 125.27 63.44C125.25 63.46 125.29 63.43 125.3 63.42C125.31 63.41 125.32 63.41 125.33 63.41C125.31 63.41 125.31 63.41 125.33 63.41H125.34C125.4 63.39 125.46 63.38 125.51 63.37C125.6 63.36 125.67 63.24 125.64 63.16C125.61 63.06 125.52 63.02 125.42 63.04L125.45 63.01Z" fill="#1D1D1B"/>
<path d="M130.86 62.2C130.69 62.2 130.52 62.33 130.5 62.49C130.5 62.55 130.5 62.6 130.51 62.66C130.52 62.72 130.54 62.78 130.57 62.83C130.61 62.89 130.68 62.94 130.76 62.96C130.92 63 131.1 62.93 131.2 62.81C131.3 62.69 131.33 62.52 131.3 62.36C131.29 62.31 131.27 62.27 131.25 62.23C131.18 62.13 131.05 62.09 130.93 62.12C130.81 62.15 130.7 62.22 130.63 62.32" fill="#1D1D1B"/>
<path d="M130.88 62.03C130.61 62.03 130.37 62.22 130.32 62.47C130.31 62.54 130.32 62.61 130.32 62.68C130.32 62.75 130.35 62.81 130.38 62.87C130.44 62.99 130.56 63.08 130.7 63.11C130.84 63.14 130.99 63.13 131.12 63.06C131.25 62.99 131.35 62.89 131.41 62.77C131.53 62.54 131.51 62.2 131.31 62.03C131.19 61.93 131.02 61.9 130.87 61.93C130.71 61.97 130.57 62.07 130.47 62.2C130.42 62.28 130.43 62.39 130.52 62.44C130.61 62.49 130.71 62.47 130.77 62.39C130.77 62.38 130.79 62.37 130.79 62.36C130.8 62.34 130.82 62.33 130.84 62.31C130.84 62.31 130.85 62.3 130.86 62.29C130.83 62.3 130.89 62.26 130.86 62.29C130.88 62.29 130.9 62.26 130.92 62.26H130.9C130.9 62.26 130.92 62.26 130.93 62.26C130.93 62.26 130.95 62.26 130.96 62.26C130.93 62.26 131 62.26 130.96 62.26C130.97 62.26 130.98 62.26 130.99 62.26H131.01C130.97 62.25 131.05 62.26 131.01 62.26H131.03H131.06L131.08 62.28C131.08 62.28 131.09 62.3 131.1 62.31C131.11 62.33 131.11 62.36 131.12 62.38C131.12 62.4 131.13 62.42 131.12 62.44V62.46C131.12 62.48 131.12 62.5 131.12 62.52C131.12 62.53 131.12 62.55 131.11 62.56C131.11 62.58 131.1 62.59 131.09 62.61C131.07 62.65 131.11 62.58 131.09 62.61C131.09 62.61 131.09 62.62 131.08 62.63C131.08 62.63 131.07 62.65 131.06 62.66C131.04 62.68 131.05 62.66 131.06 62.66C131.06 62.66 131.05 62.67 131.04 62.68C131.03 62.68 131.02 62.7 131.01 62.71C130.99 62.71 130.99 62.73 131.01 62.71C131.01 62.71 130.99 62.71 130.99 62.72C130.97 62.73 130.95 62.74 130.93 62.75C130.89 62.77 130.96 62.75 130.93 62.75C130.92 62.75 130.91 62.75 130.9 62.75H130.88C130.88 62.75 130.86 62.75 130.85 62.75C130.88 62.75 130.88 62.75 130.87 62.75C130.85 62.75 130.83 62.75 130.81 62.75C130.77 62.75 130.84 62.76 130.81 62.75H130.79C130.79 62.75 130.75 62.73 130.78 62.75C130.81 62.77 130.78 62.75 130.77 62.75C130.77 62.75 130.76 62.75 130.75 62.74C130.72 62.72 130.77 62.76 130.75 62.74C130.75 62.74 130.73 62.73 130.73 62.72C130.73 62.73 130.74 62.76 130.73 62.72C130.73 62.71 130.71 62.69 130.71 62.68C130.71 62.66 130.7 62.64 130.69 62.61C130.68 62.58 130.67 62.55 130.68 62.53C130.68 62.52 130.68 62.5 130.68 62.49C130.68 62.49 130.68 62.46 130.69 62.46V62.44C130.68 62.46 130.68 62.47 130.69 62.45C130.69 62.45 130.69 62.45 130.69 62.44C130.69 62.44 130.7 62.43 130.71 62.42C130.68 62.45 130.73 62.39 130.71 62.42C130.71 62.42 130.76 62.39 130.76 62.38C130.76 62.38 130.72 62.4 130.75 62.38C130.76 62.38 130.77 62.37 130.78 62.37H130.79C130.79 62.37 130.8 62.36 130.78 62.37C130.78 62.37 130.8 62.37 130.81 62.37C130.81 62.37 130.82 62.37 130.83 62.37C130.85 62.37 130.84 62.37 130.82 62.37H130.84C130.93 62.37 131.03 62.31 131.04 62.21C131.04 62.12 130.98 62.03 130.88 62.03Z" fill="#1D1D1B"/>
<path d="M129.79 61.65C129.92 61.46 130.09 61.33 130.32 61.25C130.3 61.25 130.32 61.25 130.33 61.25C130.34 61.25 130.36 61.25 130.37 61.24C130.4 61.24 130.43 61.23 130.46 61.22C130.49 61.21 130.52 61.21 130.55 61.21C130.57 61.21 130.58 61.21 130.6 61.21C130.63 61.21 130.58 61.21 130.61 61.21C130.74 61.21 130.84 61.21 130.95 61.25C131.17 61.32 131.29 60.99 131.07 60.92C130.49 60.74 129.81 60.97 129.48 61.46C129.35 61.65 129.65 61.84 129.78 61.65H129.79Z" fill="#1D1D1B"/>
<path d="M125.87 61.77C125.17 61.77 124.43 61.98 124.04 62.58C123.92 62.77 124.23 62.94 124.35 62.75C124.67 62.25 125.3 62.11 125.86 62.11C126.09 62.11 126.1 61.77 125.87 61.76V61.77Z" fill="#1D1D1B"/>
<path d="M128.93 58.98C128.86 59.19 129 59.4 129.23 59.42C129.44 59.44 129.55 59.27 129.71 59.18C129.86 59.09 130.02 59.04 130.19 59.03C130.39 59.02 130.58 59.08 130.78 59.07C130.85 59.07 130.94 59.02 130.96 58.94C131 58.72 130.82 58.64 130.63 58.61C130.45 58.58 130.27 58.57 130.09 58.58C129.73 58.6 129.38 58.69 129.05 58.84C128.96 58.88 128.94 59 128.98 59.08C129.03 59.17 129.14 59.18 129.23 59.14C129.46 59.04 129.7 58.97 129.95 58.94C130.08 58.93 130.2 58.92 130.33 58.93C130.39 58.93 130.45 58.93 130.52 58.94C130.55 58.94 130.58 58.94 130.61 58.95C130.69 58.97 130.64 58.97 130.63 58.92V58.83C130.63 58.83 130.63 58.84 130.63 58.85L130.81 58.72C130.65 58.72 130.5 58.69 130.34 58.68C130.18 58.67 130.01 58.7 129.86 58.75C129.71 58.8 129.56 58.87 129.43 58.97C129.4 58.99 129.37 59.02 129.34 59.05C129.34 59.05 129.29 59.09 129.28 59.09C129.29 59.06 129.28 59.14 129.3 59.09C129.37 58.88 129.03 58.79 128.95 59L128.93 58.98Z" fill="#1D1D1B"/>
<path d="M123.45 60.46C123.79 60.18 124.18 59.95 124.59 59.78C124.77 59.7 124.96 59.63 125.16 59.59C125.28 59.57 125.55 59.52 125.63 59.64C125.63 59.64 125.66 59.64 125.62 59.66C125.57 59.68 125.51 59.67 125.46 59.66C125.36 59.66 125.26 59.64 125.15 59.64C124.94 59.64 124.74 59.66 124.53 59.7C124.32 59.74 124.13 59.81 123.94 59.89C123.85 59.93 123.76 59.98 123.67 60.03C123.62 60.06 123.57 60.09 123.52 60.13C123.5 60.15 123.47 60.16 123.45 60.18C123.37 60.22 123.38 60.29 123.47 60.38C123.65 60.23 123.41 59.97 123.23 60.12C123.06 60.26 123.16 60.53 123.38 60.55C123.48 60.55 123.57 60.51 123.65 60.46C123.75 60.39 123.85 60.32 123.96 60.26C124.37 60.04 124.83 59.94 125.29 59.98C125.51 60 125.75 60.03 125.91 59.84C126.07 59.65 126 59.45 125.82 59.32C125.47 59.08 124.99 59.23 124.62 59.37C124.1 59.56 123.63 59.84 123.21 60.18C123.03 60.33 123.27 60.58 123.45 60.44V60.46Z" fill="#1D1D1B"/>
<path d="M125.59 59.52C125.44 59.56 125.28 59.59 125.12 59.6H125.17C125.12 59.6 125.06 59.6 125.01 59.6C124.96 59.6 124.91 59.61 124.88 59.64C124.85 59.67 124.82 59.71 124.82 59.76C124.82 59.85 124.88 59.94 124.98 59.94C125.21 59.94 125.44 59.91 125.66 59.86C125.75 59.84 125.83 59.75 125.81 59.66C125.79 59.57 125.7 59.5 125.6 59.53L125.59 59.52Z" fill="#1D1D1B"/>
<path d="M128.67 64.04L130.22 65.81L130.15 66.43L129.84 66.58C129.84 66.58 129 66.83 128.5 66.56C127.97 66.28 127.46 65.84 126.44 66.27C125.42 66.7 125.22 66.14 125.22 66.14L128.68 64.05L128.67 64.04Z" fill="#F4A39B"/>
<path d="M127.81 62.62C128.03 63.47 128.43 64.25 129 64.92C129.28 65.25 129.64 65.5 129.91 65.82C130.04 65.97 130.15 66.2 130.05 66.39C129.95 66.58 129.66 66.62 129.45 66.65C129.22 66.69 129.31 67.02 129.54 66.98C129.96 66.91 130.41 66.74 130.45 66.28C130.49 65.82 130.11 65.5 129.79 65.21C128.98 64.49 128.42 63.55 128.16 62.52C128.11 62.31 127.75 62.4 127.81 62.61V62.62Z" fill="#1D1D1B"/>
<path d="M126.41 66.3C126.487 66.3 126.55 66.2373 126.55 66.16C126.55 66.0827 126.487 66.02 126.41 66.02C126.333 66.02 126.27 66.0827 126.27 66.16C126.27 66.2373 126.333 66.3 126.41 66.3Z" fill="#1D1D1B"/>
<path d="M125 65.89C125.077 65.89 125.14 65.8273 125.14 65.75C125.14 65.6727 125.077 65.61 125 65.61C124.923 65.61 124.86 65.6727 124.86 65.75C124.86 65.8273 124.923 65.89 125 65.89Z" fill="#1D1D1B"/>
<path d="M123.56 66.71C123.637 66.71 123.7 66.6473 123.7 66.57C123.7 66.4927 123.637 66.43 123.56 66.43C123.483 66.43 123.42 66.4927 123.42 66.57C123.42 66.6473 123.483 66.71 123.56 66.71Z" fill="#1D1D1B"/>
<path d="M124.38 66.83C124.457 66.83 124.52 66.7673 124.52 66.69C124.52 66.6127 124.457 66.55 124.38 66.55C124.303 66.55 124.24 66.6127 124.24 66.69C124.24 66.7673 124.303 66.83 124.38 66.83Z" fill="#1D1D1B"/>
<path d="M125.37 67.1C125.447 67.1 125.51 67.0373 125.51 66.96C125.51 66.8827 125.447 66.82 125.37 66.82C125.293 66.82 125.23 66.8827 125.23 66.96C125.23 67.0373 125.293 67.1 125.37 67.1Z" fill="#1D1D1B"/>
<path d="M123.56 65.62C123.637 65.62 123.7 65.5573 123.7 65.48C123.7 65.4027 123.637 65.34 123.56 65.34C123.483 65.34 123.42 65.4027 123.42 65.48C123.42 65.5573 123.483 65.62 123.56 65.62Z" fill="#1D1D1B"/>
<path d="M132.1 64.9C132.177 64.9 132.24 64.8373 132.24 64.76C132.24 64.6827 132.177 64.62 132.1 64.62C132.023 64.62 131.96 64.6827 131.96 64.76C131.96 64.8373 132.023 64.9 132.1 64.9Z" fill="#1D1D1B"/>
<path d="M131.41 65.27C131.487 65.27 131.55 65.2073 131.55 65.13C131.55 65.0527 131.487 64.99 131.41 64.99C131.333 64.99 131.27 65.0527 131.27 65.13C131.27 65.2073 131.333 65.27 131.41 65.27Z" fill="#1D1D1B"/>
<path d="M132.43 65.88C132.507 65.88 132.57 65.8173 132.57 65.74C132.57 65.6627 132.507 65.6 132.43 65.6C132.353 65.6 132.29 65.6627 132.29 65.74C132.29 65.8173 132.353 65.88 132.43 65.88Z" fill="#1D1D1B"/>
<path d="M127.72 69.62C127.72 69.62 129.73 70.58 130.72 69.1" stroke="#1D1D1B" stroke-width="0.51" stroke-miterlimit="10" stroke-linecap="round"/>
<path d="M95.49 83.34C95.49 83.34 84.12 90.48 83.99 92.79C83.86 95.1 96.29 113.55 98.23 114.98C99.44 115.87 102.84 112.53 102.84 112.53C102.84 112.53 96.55 98.41 95.75 96.16C94.95 93.91 99.45 93.12 102.75 88.63C106.05 84.14 95.48 83.34 95.48 83.34H95.49Z" fill="#F4A39B"/>
<path d="M97.55 114.27C98.7 115.26 99.15 116.84 99.36 118.35C99.48 119.21 99.58 120.16 100.21 120.76C100.61 121.14 101.16 121.31 101.7 121.44C102.55 121.64 103.43 121.77 104.29 121.59C105.43 121.35 106.4 120.6 107.17 119.73C107.51 119.34 107.83 118.9 107.88 118.39C107.93 117.87 107.69 117.36 107.35 116.96C107.01 116.56 106.58 116.26 106.17 115.94C104.9 114.96 103.77 113.8 102.83 112.51C102.54 112.12 102.18 111.67 101.7 111.72C101.54 111.74 101.4 111.8 101.26 111.87C99.96 112.51 98.73 113.3 97.61 114.21" fill="#F4A39B"/>
<path d="M96.46 113.87C96.46 113.87 82.88 96.57 83.24 92.66C83.6 88.74 98.56 80.15 98.56 80.15L103.39 90.38C103.39 90.38 96.55 94.62 96.7 95.27C96.85 95.92 101.93 108.8 101.93 108.8C101.93 108.8 101.59 112.67 96.46 113.88V113.87Z" fill="#192441"/>
<path d="M109.78 76.58C104.48 77.39 97.52 79.9 92.78 84.26C94.48 86.14 97.63 90.12 99.58 93.13C101.32 91.49 103.29 90.77 106.81 88.33C106.79 88.42 106.76 88.5 106.74 88.59C109.33 85.2 110.46 80.88 109.77 76.58H109.78Z" fill="#192441"/>
<defs>
<linearGradient id="paint0_linear_220_710" x1="60.65" y1="172.56" x2="67.64" y2="172.56" gradientUnits="userSpaceOnUse">
<stop stop-color="#F2908F"/>
<stop offset="1" stop-color="#F6B2B2"/>
</linearGradient>
<linearGradient id="paint1_linear_220_710" x1="155.11" y1="150.07" x2="162.78" y2="150.07" gradientUnits="userSpaceOnUse">
<stop stop-color="#F2908F"/>
<stop offset="1" stop-color="#F6B2B2"/>
</linearGradient>
</defs>
</svg>
