<?xml version="1.0" encoding="UTF-8"?>
<svg xmlns="http://www.w3.org/2000/svg" version="1.1" viewBox="0 0 96.81 41.91">
  <defs>
    <style>
      .cls-1 {
        fill: #FFFFFF;
      }

      .cls-2 {
        fill: #bfd730;
      }
    </style>
  </defs>
  <!-- Generator: Adobe Illustrator 28.7.1, SVG Export Plug-In . SVG Version: 1.2.0 Build 142)  -->
  <g>
    <g id="Layer_1">
      <path class="cls-2" d="M72.52,4.68c-.07-.34.21-.59.62-.59h.84c.44,0,.79.25.86.59l.44,2.08c.07.34-.18.59-.61.59h-.84c-.4,0-.79-.25-.86-.59l-.44-2.08Z"/>
      <path class="cls-1" d="M16.13,31.57c0,.31-.25.56-.56.56h-.76c-.31,0-.62-.25-.62-.56V13.93c0-2.3-.95-3.3-2.6-3.3s-2.6,1.09-2.6,3.3v20.47c0,.31-.25.56-.62.56h-.7c-.31,0-.62-.25-.62-.56V9.82c0-.42.31-.78.84-.78.28,0,.5.11.73.31l.06.06c.17.17.28.22.48.22.22,0,.62-.25.92-.36.48-.2,1.23-.42,1.88-.42.84,0,1.65.31,2.38.76l.22.14c.25.17.5.31.73.31.25,0,.48-.11.67-.25l.28-.2c.73-.48,1.65-.76,2.63-.76,2.13,0,4.4,1.32,4.4,5.12v17.61c0,.31-.25.56-.59.56h-.73c-.34,0-.62-.25-.62-.56V13.93c0-2.3-.95-3.3-2.6-3.3s-2.6,1.09-2.6,3.3v17.64Z"/>
      <path class="cls-1" d="M28.81,26.79c0,2.55.98,3.75,2.8,3.75s2.8-1.06,2.8-3.75V9.62c0-.31.31-.59.62-.59h.76c.31,0,.56.28.56.59v17.5c0,3.61-1.93,5.21-4.73,5.21s-4.73-1.65-4.73-5.18V9.62c0-.31.31-.59.62-.59h.7c.36,0,.62.28.62.59v17.16Z"/>
      <path class="cls-1" d="M40.6,32.14c-.31,0-.62-.25-.62-.56V9.62c0-.31.31-.59.62-.59h4.14c2.91,0,4.7,1.79,4.7,5.12v12.88c0,3.33-1.85,5.1-4.73,5.1h-4.12ZM44.8,30.34c1.79,0,2.72-1.15,2.72-3.72v-12.1c0-2.55-.87-3.7-2.69-3.7h-2.21c-.48,0-.7.17-.7.62v18.28c0,.42.2.62.59.62h2.3Z"/>
      <path class="cls-1" d="M62.16,31.57c0,.31-.25.56-.56.56h-.76c-.31,0-.62-.25-.62-.56V13.93c0-2.3-.95-3.3-2.6-3.3s-2.6,1.09-2.6,3.3v17.64c0,.31-.25.56-.62.56h-.7c-.31,0-.62-.25-.62-.56V9.82c0-.42.31-.78.84-.78.28,0,.5.11.73.31l.06.06c.17.17.28.22.48.22.22,0,.62-.25.92-.36.48-.2,1.23-.42,1.88-.42.84,0,1.65.31,2.38.76l.22.14c.25.17.5.31.73.31.25,0,.48-.11.67-.25l.28-.2c.73-.48,1.65-.76,2.63-.76,2.13,0,4.4,1.32,4.4,5.12v17.61c0,.31-.25.56-.59.56h-.73c-.34,0-.62-.25-.62-.56V13.93c0-2.3-.95-3.3-2.6-3.3s-2.6,1.09-2.6,3.3v17.64Z"/>
      <path class="cls-1" d="M73.3,9.62c0-.34.28-.59.62-.59h.7c.36,0,.62.25.62.59v21.92c0,.34-.25.59-.62.59h-.7c-.34,0-.62-.25-.62-.59V9.62Z"/>
      <path class="cls-1" d="M14.78,33.13c-.34,0-.59-.28-.59-.62v-.7c0-.36.25-.62.59-.62h65.84c.34,0,.59.25.59.62v.7c0,.34-.25.62-.59.62H14.78Z"/>
      <path class="cls-1" d="M79.29,9.82c0-.42.31-.78.84-.78.28,0,.5.11.73.31l.06.06c.17.17.28.22.48.22.22,0,.64-.25.98-.36.5-.2,1.18-.42,1.88-.42,1.18,0,2.44.39,3.28,1.32.73.78,1.23,1.93,1.23,3.86v20.39c0,.31-.25.56-.59.56h-.73c-.34,0-.62-.25-.62-.56V14.47c0-2.69-1.06-3.84-2.77-3.84-2.1,0-2.83,1.54-2.83,3.92v17.02c0,.31-.25.56-.59.56h-.7c-.31,0-.64-.25-.64-.56V9.82Z"/>
    </g>
  </g>
</svg>