<?xml version="1.0" encoding="UTF-8"?><svg id="a" xmlns="http://www.w3.org/2000/svg" viewBox="0 0 51.2 51.21"><defs><style>.cls-1{fill:#ed6a4c;}.cls-1,.cls-2{stroke-width:0px;}.cls-2{fill:#00c5d2;}</style></defs><path class="cls-2" d="m43.7,7.49c.34,1.8.02,3.73-1.05,5.38-1.36,2.1-3.67,3.35-6.17,3.35h-.05c2.24,2.57,3.51,5.88,3.51,9.39,0,7.9-6.43,14.33-14.33,14.33-5.44,0-10.18-3.05-12.61-7.53v13.16c0,.74-.11,1.45-.32,2.12,3.8,2.23,8.21,3.51,12.92,3.51,14.12,0,25.6-11.49,25.6-25.6,0-6.89-2.74-13.36-7.51-18.12h0Z"/><path class="cls-2" d="m25.6,11.28c2.78,0,5.48.8,7.8,2.31h0c2.61,1.7,6.1.96,7.8-1.65s.96-6.1-1.65-7.8h0C35.4,1.43,30.58,0,25.6,0,11.93,0,.72,10.78.03,24.28h-.03v21.29c0,3.11,2.52,5.64,5.64,5.64,2.72,0,4.98-1.92,5.52-4.48.08-.37.12-.76.12-1.16v-19.97c0-7.9,6.43-14.33,14.33-14.33h-.01Z"/><circle class="cls-1" cx="25.6" cy="25.6" r="9.26"/></svg>