<?xml version="1.0" encoding="UTF-8"?>
<svg id="a" data-name="Capa 1" xmlns="http://www.w3.org/2000/svg" viewBox="0 0 162.96 51.21">
  <defs>
    <style>
      .b {
        fill: #00c5d2;
      }

      .c {
        fill: #ed6a4c;
      }

      .d {
        fill: #fff;
      }
    </style>
  </defs>
  <g>
    <path class="d" d="m74.89,13.3c-6.84,0-12.41,5.57-12.41,12.41s5.57,12.41,12.41,12.41,12.41-5.57,12.41-12.41-5.57-12.41-12.41-12.41Zm0,19.35c-3.83,0-6.94-3.11-6.94-6.94s3.11-6.94,6.94-6.94,6.94,3.11,6.94,6.94-3.11,6.94-6.94,6.94Z"/>
    <path class="d" d="m101.28,13.3c-6.84,0-12.41,5.57-12.41,12.41v15.81c0,1.51,1.22,2.73,2.73,2.73s2.73-1.22,2.73-2.73v-5.52c2,1.34,4.39,2.12,6.94,2.12,6.84,0,12.41-5.57,12.41-12.41s-5.57-12.41-12.41-12.41Zm0,19.35c-3.21,0-5.98-2.17-6.74-5.28-.13-.54-.2-1.1-.2-1.66,0-3.83,3.11-6.94,6.94-6.94s6.94,3.11,6.94,6.94-3.11,6.94-6.94,6.94Z"/>
    <path class="d" d="m128.08,13.3c-6.84,0-12.41,5.57-12.41,12.41v15.81c0,1.51,1.22,2.73,2.73,2.73s2.73-1.22,2.73-2.73v-5.52c2,1.34,4.39,2.12,6.94,2.12,6.84,0,12.41-5.57,12.41-12.41s-5.57-12.41-12.41-12.41Zm0,19.35c-3.21,0-5.98-2.17-6.74-5.28-.13-.54-.2-1.1-.2-1.66,0-3.83,3.11-6.94,6.94-6.94s6.94,3.11,6.94,6.94-3.11,6.94-6.94,6.94Z"/>
    <path class="d" d="m157.41,16.03c0-1.51-1.22-2.73-2.73-2.73-6.84,0-12.41,5.57-12.41,12.41v9.68c0,1.51,1.22,2.73,2.73,2.73s2.73-1.22,2.73-2.73v-9.68c0-3.83,3.11-6.94,6.94-6.94,1.51,0,2.73-1.22,2.73-2.73Z"/>
    <circle class="c" cx="159.71" cy="34.9" r="3.25"/>
  </g>
  <g>
    <g>
      <path class="b" d="m43.7,7.49c.34,1.8.02,3.73-1.05,5.38-1.36,2.1-3.67,3.35-6.17,3.35-.02,0-.03,0-.05,0,2.24,2.57,3.51,5.88,3.51,9.39,0,7.9-6.43,14.33-14.33,14.33-5.44,0-10.18-3.05-12.61-7.53v13.16c0,.74-.11,1.45-.32,2.12,3.8,2.23,8.21,3.51,12.92,3.51,14.12,0,25.6-11.49,25.6-25.6,0-6.89-2.74-13.36-7.51-18.12Z"/>
      <path class="b" d="m25.6,11.28c2.78,0,5.48.8,7.8,2.31,0,0,0,0,0,0,2.61,1.7,6.1.96,7.8-1.65,1.7-2.61.96-6.1-1.65-7.8,0,0,0,0,0,0C35.4,1.43,30.58,0,25.6,0,11.93,0,.72,10.78.03,24.28h-.03v21.29c0,3.11,2.52,5.64,5.64,5.64,2.72,0,4.98-1.92,5.52-4.48.08-.37.12-.76.12-1.16v-19.97c0-7.9,6.43-14.33,14.33-14.33Z"/>
    </g>
    <circle class="c" cx="25.6" cy="25.6" r="9.26"/>
  </g>
</svg>