<?xml version="1.0" encoding="UTF-8"?>
<svg id="a" data-name="Capa 1" xmlns="http://www.w3.org/2000/svg" viewBox="0 0 120.43 139.36">
  <defs>
    <style>
      .b {
        fill: #00c5d2;
      }

      .c {
        fill: #ed6a4c;
      }

      .d {
        fill: #fff;
      }
    </style>
  </defs>
  <g>
    <path class="d" d="m14.67,102.22c-8.21,0-14.9,6.68-14.9,14.9s6.68,14.9,14.9,14.9,14.9-6.68,14.9-14.9-6.68-14.9-14.9-14.9Zm0,23.23c-4.6,0-8.34-3.74-8.34-8.34s3.74-8.34,8.34-8.34,8.34,3.74,8.34,8.34-3.74,8.34-8.34,8.34Z"/>
    <path class="d" d="m46.36,102.22c-8.21,0-14.9,6.68-14.9,14.9v18.99c0,1.81,1.47,3.28,3.28,3.28s3.28-1.47,3.28-3.28v-6.63c2.4,1.61,5.27,2.54,8.34,2.54,8.21,0,14.9-6.68,14.9-14.9s-6.68-14.9-14.9-14.9Zm0,23.23c-3.85,0-7.18-2.61-8.1-6.34-.16-.65-.24-1.32-.24-2,0-4.6,3.74-8.34,8.34-8.34s8.34,3.74,8.34,8.34-3.74,8.34-8.34,8.34Z"/>
    <path class="d" d="m78.55,102.22c-8.21,0-14.9,6.68-14.9,14.9v18.99c0,1.81,1.47,3.28,3.28,3.28s3.28-1.47,3.28-3.28v-6.63c2.4,1.61,5.27,2.54,8.34,2.54,8.21,0,14.9-6.68,14.9-14.9s-6.68-14.9-14.9-14.9Zm0,23.23c-3.85,0-7.18-2.61-8.1-6.34-.16-.65-.24-1.32-.24-2,0-4.6,3.74-8.34,8.34-8.34s8.34,3.74,8.34,8.34-3.74,8.34-8.34,8.34Z"/>
    <path class="d" d="m113.75,105.5c0-1.81-1.47-3.28-3.28-3.28-8.21,0-14.9,6.68-14.9,14.9v11.62c0,1.81,1.47,3.28,3.28,3.28s3.28-1.47,3.28-3.28v-11.62c0-4.6,3.74-8.34,8.34-8.34,1.81,0,3.28-1.47,3.28-3.28Z"/>
    <circle class="c" cx="116.52" cy="128.17" r="3.91"/>
  </g>
  <g>
    <g>
      <path class="b" d="m89.71,12.24c.56,2.94.04,6.1-1.72,8.8-2.23,3.43-6,5.47-10.09,5.47-.03,0-.06,0-.08,0,3.66,4.21,5.74,9.62,5.74,15.35,0,12.92-10.51,23.43-23.43,23.43-8.9,0-16.65-4.98-20.62-12.31v21.52c0,1.21-.18,2.37-.52,3.47,6.21,3.65,13.43,5.75,21.13,5.75,23.09,0,41.87-18.78,41.87-41.87,0-11.27-4.48-21.85-12.28-29.62Z"/>
      <path class="b" d="m60.12,18.44c4.55,0,8.96,1.3,12.75,3.77,0,0,0,0,0,0,4.27,2.78,9.98,1.57,12.76-2.7,2.78-4.27,1.57-9.98-2.7-12.75,0,0,0,0,0,0-6.79-4.42-14.68-6.75-22.81-6.75C37.76,0,19.44,17.62,18.31,39.71h-.06v34.81c0,5.09,4.13,9.22,9.22,9.22,4.44,0,8.15-3.14,9.02-7.33.13-.61.2-1.24.2-1.89v-32.65c0-12.92,10.51-23.43,23.43-23.43Z"/>
    </g>
    <circle class="c" cx="60.12" cy="41.87" r="15.14"/>
  </g>
</svg>