<?xml version="1.0" encoding="UTF-8"?><svg id="Icons" xmlns="http://www.w3.org/2000/svg" viewBox="0 0 1920 1080"><defs><style>.cls-1{fill:#335343;}.cls-1,.cls-2{stroke-width:0px;}.cls-2{fill:#fefcf6;}</style></defs><path class="cls-1" d="m1920,1080H0c0-13.78,0-27.56,0-41.33C0,692.44,0,346.22,0,0h1920v1080Z"/><path class="cls-2" d="m-227.5,1141.83l212.27-116.18c128.08-70.1,266.84-110.65,408.46-119.36l281.7-17.33,369.01-17.92c51.54-2.5,100.71-25.63,139.03-65.39l13.36-13.86c42.15-43.74,98.03-65.71,154.63-60.79l261.7,22.74c33.99,2.95,67.87,7.43,101.56,13.41l53.38,9.48c103.66,18.41,192.34,95.56,236,205.31l18.34,46.09c11.64,29.26,26.26,56.83,43.54,82.13l.79,1.15"/></svg>