<svg width="374" height="269" viewBox="0 0 374 269" fill="none" xmlns="http://www.w3.org/2000/svg">
<g clip-path="url(#clip0_220_1324)">
<mask id="mask0_220_1324" style="mask-type:luminance" maskUnits="userSpaceOnUse" x="40" y="29" width="294" height="210">
<path d="M332.92 39.0199C331.5 33.3899 326.35 29.5599 320.61 29.4999C318.34 29.4699 316.08 29.4999 313.81 29.4999H54.17C53.45 29.4999 52.73 29.4799 52.02 29.5299C45.38 29.9699 40.3 35.5699 40.21 42.1599C40.17 45.0799 40.21 48.0099 40.21 50.9299V219.59C40.21 222.95 39.77 226.92 40.81 230.16C42.51 235.43 47.45 238.87 52.93 238.93C53.65 238.93 54.36 238.93 55.08 238.93H320.69C327.64 238.82 333.22 233.26 333.32 226.29C333.33 225.49 333.32 224.69 333.32 223.89V43.6699C333.32 42.0999 333.32 40.5699 332.93 39.0199H332.92Z" fill="white"/>
</mask>
<g mask="url(#mask0_220_1324)">
<path opacity="0.5" d="M332.92 39.0199C331.5 33.3899 326.35 29.5599 320.61 29.4999C318.34 29.4699 316.08 29.4999 313.81 29.4999H54.17C53.45 29.4999 52.73 29.4799 52.02 29.5299C45.38 29.9699 40.3 35.5699 40.21 42.1599C40.17 45.0799 40.21 48.0099 40.21 50.9299V219.59C40.21 222.95 39.77 226.92 40.81 230.16C42.51 235.43 47.45 238.87 52.93 238.93C53.65 238.93 54.36 238.93 55.08 238.93H320.69C327.64 238.82 333.22 233.26 333.32 226.29C333.33 225.49 333.32 224.69 333.32 223.89V43.6699C333.32 42.0999 333.32 40.5699 332.93 39.0199H332.92Z" fill="#34B9CA"/>
<path d="M251.1 83.6799H198.81C196.59 83.6799 194.79 85.4797 194.79 87.6999V166.56C194.79 168.78 196.59 170.58 198.81 170.58H251.1C253.32 170.58 255.12 168.78 255.12 166.56V87.6999C255.12 85.4797 253.32 83.6799 251.1 83.6799Z" fill="#EDEDED"/>
<path d="M248.32 86.7998H201.59C199.729 86.7998 198.22 88.3086 198.22 90.1698V136.9C198.22 138.761 199.729 140.27 201.59 140.27H248.32C250.181 140.27 251.69 138.761 251.69 136.9V90.1698C251.69 88.3086 250.181 86.7998 248.32 86.7998Z" fill="white"/>
<path d="M202.86 89.52H200.94V101.05H202.86V89.52Z" fill="#1D1D1B"/>
<path d="M202.86 101.05H200.94V102.97H202.86V101.05Z" fill="#1D1D1B"/>
<path d="M202.86 104.89H200.94V110.65H202.86V104.89Z" fill="#1D1D1B"/>
<path d="M202.86 116.42H200.94V118.34H202.86V116.42Z" fill="#1D1D1B"/>
<path d="M202.86 120.26H200.94V122.18H202.86V120.26Z" fill="#1D1D1B"/>
<path d="M202.86 124.1H200.94V127.94H202.86V124.1Z" fill="#1D1D1B"/>
<path d="M202.86 127.95H200.94V133.71H202.86V127.95Z" fill="#1D1D1B"/>
<path d="M202.86 133.71H200.94V137.55H202.86V133.71Z" fill="#1D1D1B"/>
<path d="M204.78 89.52H202.86V91.44H204.78V89.52Z" fill="#1D1D1B"/>
<path d="M204.78 101.05H202.86V102.97H204.78V101.05Z" fill="#1D1D1B"/>
<path d="M204.78 110.66H202.86V112.58H204.78V110.66Z" fill="#1D1D1B"/>
<path d="M204.78 118.34H202.86V120.26H204.78V118.34Z" fill="#1D1D1B"/>
<path d="M204.78 124.1H202.86V126.02H204.78V124.1Z" fill="#1D1D1B"/>
<path d="M204.78 135.63H202.86V137.55H204.78V135.63Z" fill="#1D1D1B"/>
<path d="M206.7 89.52H204.78V91.44H206.7V89.52Z" fill="#1D1D1B"/>
<path d="M206.7 93.3699H204.78V99.1299H206.7V93.3699Z" fill="#1D1D1B"/>
<path d="M206.7 101.05H204.78V102.97H206.7V101.05Z" fill="#1D1D1B"/>
<path d="M206.7 104.89H204.78V106.81H206.7V104.89Z" fill="#1D1D1B"/>
<path d="M206.7 110.66H204.78V112.58H206.7V110.66Z" fill="#1D1D1B"/>
<path d="M206.7 116.42H204.78V122.18H206.7V116.42Z" fill="#1D1D1B"/>
<path d="M206.7 124.1H204.78V126.02H206.7V124.1Z" fill="#1D1D1B"/>
<path d="M206.7 127.95H204.78V133.71H206.7V127.95Z" fill="#1D1D1B"/>
<path d="M206.7 135.63H204.78V137.55H206.7V135.63Z" fill="#1D1D1B"/>
<path d="M208.62 89.52H206.7V91.44H208.62V89.52Z" fill="#1D1D1B"/>
<path d="M208.62 93.3699H206.7V99.1299H208.62V93.3699Z" fill="#1D1D1B"/>
<path d="M208.62 101.05H206.7V102.97H208.62V101.05Z" fill="#1D1D1B"/>
<path d="M208.62 108.73H206.7V110.65H208.62V108.73Z" fill="#1D1D1B"/>
<path d="M208.62 112.58H206.7V116.42H208.62V112.58Z" fill="#1D1D1B"/>
<path d="M208.62 118.34H206.7V122.18H208.62V118.34Z" fill="#1D1D1B"/>
<path d="M208.62 124.1H206.7V126.02H208.62V124.1Z" fill="#1D1D1B"/>
<path d="M208.62 127.95H206.7V133.71H208.62V127.95Z" fill="#1D1D1B"/>
<path d="M208.62 135.63H206.7V137.55H208.62V135.63Z" fill="#1D1D1B"/>
<path d="M210.54 89.52H208.62V91.44H210.54V89.52Z" fill="#1D1D1B"/>
<path d="M210.54 93.3699H208.62V99.1299H210.54V93.3699Z" fill="#1D1D1B"/>
<path d="M210.54 101.05H208.62V102.97H210.54V101.05Z" fill="#1D1D1B"/>
<path d="M210.54 104.89H208.62V106.81H210.54V104.89Z" fill="#1D1D1B"/>
<path d="M210.54 108.73H208.62V110.65H210.54V108.73Z" fill="#1D1D1B"/>
<path d="M210.54 110.66H208.62V112.58H210.54V110.66Z" fill="#1D1D1B"/>
<path d="M210.54 120.26H208.62V122.18H210.54V120.26Z" fill="#1D1D1B"/>
<path d="M210.54 124.1H208.62V126.02H210.54V124.1Z" fill="#1D1D1B"/>
<path d="M210.54 127.95H208.62V133.71H210.54V127.95Z" fill="#1D1D1B"/>
<path d="M210.54 135.63H208.62V137.55H210.54V135.63Z" fill="#1D1D1B"/>
<path d="M212.46 89.52H210.54V91.44H212.46V89.52Z" fill="#1D1D1B"/>
<path d="M212.46 101.05H210.54V102.97H212.46V101.05Z" fill="#1D1D1B"/>
<path d="M212.46 106.81H210.54V108.73H212.46V106.81Z" fill="#1D1D1B"/>
<path d="M212.46 112.58H210.54V114.5H212.46V112.58Z" fill="#1D1D1B"/>
<path d="M212.46 116.42H210.54V118.34H212.46V116.42Z" fill="#1D1D1B"/>
<path d="M212.46 120.26H210.54V122.18H212.46V120.26Z" fill="#1D1D1B"/>
<path d="M212.46 124.1H210.54V126.02H212.46V124.1Z" fill="#1D1D1B"/>
<path d="M212.46 135.63H210.54V137.55H212.46V135.63Z" fill="#1D1D1B"/>
<path d="M214.38 89.52H212.46V101.05H214.38V89.52Z" fill="#1D1D1B"/>
<path d="M214.38 101.05H212.46V102.97H214.38V101.05Z" fill="#1D1D1B"/>
<path d="M214.38 104.89H212.46V106.81H214.38V104.89Z" fill="#1D1D1B"/>
<path d="M214.38 108.73H212.46V110.65H214.38V108.73Z" fill="#1D1D1B"/>
<path d="M214.38 112.58H212.46V114.5H214.38V112.58Z" fill="#1D1D1B"/>
<path d="M214.38 116.42H212.46V118.34H214.38V116.42Z" fill="#1D1D1B"/>
<path d="M214.38 120.26H212.46V122.18H214.38V120.26Z" fill="#1D1D1B"/>
<path d="M214.38 124.1H212.46V127.94H214.38V124.1Z" fill="#1D1D1B"/>
<path d="M214.38 127.95H212.46V133.71H214.38V127.95Z" fill="#1D1D1B"/>
<path d="M214.38 133.71H212.46V137.55H214.38V133.71Z" fill="#1D1D1B"/>
<path d="M216.3 110.66H214.38V112.58H216.3V110.66Z" fill="#1D1D1B"/>
<path d="M216.3 116.42H214.38V118.34H216.3V116.42Z" fill="#1D1D1B"/>
<path d="M218.22 91.45H216.3V93.37H218.22V91.45Z" fill="#1D1D1B"/>
<path d="M218.22 97.21H216.3V99.13H218.22V97.21Z" fill="#1D1D1B"/>
<path d="M218.22 101.05H216.3V102.97H218.22V101.05Z" fill="#1D1D1B"/>
<path d="M218.22 106.81H216.3V110.65H218.22V106.81Z" fill="#1D1D1B"/>
<path d="M218.22 112.58H216.3V114.5H218.22V112.58Z" fill="#1D1D1B"/>
<path d="M218.22 116.42H216.3V120.26H218.22V116.42Z" fill="#1D1D1B"/>
<path d="M218.22 122.18H216.3V124.1H218.22V122.18Z" fill="#1D1D1B"/>
<path d="M218.22 127.95H216.3V129.87H218.22V127.95Z" fill="#1D1D1B"/>
<path d="M218.22 131.79H216.3V133.71H218.22V131.79Z" fill="#1D1D1B"/>
<path d="M218.22 135.63H216.3V137.55H218.22V135.63Z" fill="#1D1D1B"/>
<path d="M220.15 89.52H218.23V91.44H220.15V89.52Z" fill="#1D1D1B"/>
<path d="M220.15 95.2898H218.23V97.2098H220.15V95.2898Z" fill="#1D1D1B"/>
<path d="M220.15 106.81H218.23V110.65H220.15V106.81Z" fill="#1D1D1B"/>
<path d="M220.15 110.66H218.23V122.19H220.15V110.66Z" fill="#1D1D1B"/>
<path d="M220.15 122.18H218.23V124.1H220.15V122.18Z" fill="#1D1D1B"/>
<path d="M220.15 133.71H218.23V135.63H220.15V133.71Z" fill="#1D1D1B"/>
<path d="M222.07 89.52H220.15V91.44H222.07V89.52Z" fill="#1D1D1B"/>
<path d="M222.07 93.3699H220.15V101.05H222.07V93.3699Z" fill="#1D1D1B"/>
<path d="M222.07 101.05H220.15V108.73H222.07V101.05Z" fill="#1D1D1B"/>
<path d="M222.07 114.5H220.15V118.34H222.07V114.5Z" fill="#1D1D1B"/>
<path d="M222.07 124.1H220.15V127.94H222.07V124.1Z" fill="#1D1D1B"/>
<path d="M222.07 127.95H220.15V129.87H222.07V127.95Z" fill="#1D1D1B"/>
<path d="M223.99 91.45H222.07V97.21H223.99V91.45Z" fill="#1D1D1B"/>
<path d="M223.99 99.1299H222.07V101.05H223.99V99.1299Z" fill="#1D1D1B"/>
<path d="M223.99 102.97H222.07V108.73H223.99V102.97Z" fill="#1D1D1B"/>
<path d="M223.99 110.66H222.07V112.58H223.99V110.66Z" fill="#1D1D1B"/>
<path d="M223.99 114.5H222.07V118.34H223.99V114.5Z" fill="#1D1D1B"/>
<path d="M223.99 120.26H222.07V122.18H223.99V120.26Z" fill="#1D1D1B"/>
<path d="M223.99 122.18H222.07V124.1H223.99V122.18Z" fill="#1D1D1B"/>
<path d="M223.99 126.02H222.07V127.94H223.99V126.02Z" fill="#1D1D1B"/>
<path d="M223.99 129.87H222.07V133.71H223.99V129.87Z" fill="#1D1D1B"/>
<path d="M223.99 135.63H222.07V137.55H223.99V135.63Z" fill="#1D1D1B"/>
<path d="M225.91 99.1299H223.99V101.05H225.91V99.1299Z" fill="#1D1D1B"/>
<path d="M225.91 101.05H223.99V102.97H225.91V101.05Z" fill="#1D1D1B"/>
<path d="M225.91 104.89H223.99V110.65H225.91V104.89Z" fill="#1D1D1B"/>
<path d="M225.91 112.58H223.99V120.26H225.91V112.58Z" fill="#1D1D1B"/>
<path d="M225.91 127.95H223.99V133.71H225.91V127.95Z" fill="#1D1D1B"/>
<path d="M225.91 133.71H223.99V135.63H225.91V133.71Z" fill="#1D1D1B"/>
<path d="M227.83 91.45H225.91V93.37H227.83V91.45Z" fill="#1D1D1B"/>
<path d="M227.83 97.21H225.91V101.05H227.83V97.21Z" fill="#1D1D1B"/>
<path d="M227.83 102.97H225.91V106.81H227.83V102.97Z" fill="#1D1D1B"/>
<path d="M227.83 108.73H225.91V110.65H227.83V108.73Z" fill="#1D1D1B"/>
<path d="M227.83 110.66H225.91V112.58H227.83V110.66Z" fill="#1D1D1B"/>
<path d="M227.83 118.34H225.91V120.26H227.83V118.34Z" fill="#1D1D1B"/>
<path d="M227.83 124.1H225.91V126.02H227.83V124.1Z" fill="#1D1D1B"/>
<path d="M227.83 129.87H225.91V131.79H227.83V129.87Z" fill="#1D1D1B"/>
<path d="M227.83 133.71H225.91V135.63H227.83V133.71Z" fill="#1D1D1B"/>
<path d="M229.75 89.52H227.83V91.44H229.75V89.52Z" fill="#1D1D1B"/>
<path d="M229.75 95.2898H227.83V99.1298H229.75V95.2898Z" fill="#1D1D1B"/>
<path d="M229.75 101.05H227.83V106.81H229.75V101.05Z" fill="#1D1D1B"/>
<path d="M229.75 110.66H227.83V114.5H229.75V110.66Z" fill="#1D1D1B"/>
<path d="M229.75 118.34H227.83V122.18H229.75V118.34Z" fill="#1D1D1B"/>
<path d="M229.75 131.79H227.83V133.71H229.75V131.79Z" fill="#1D1D1B"/>
<path d="M229.75 133.71H227.83V137.55H229.75V133.71Z" fill="#1D1D1B"/>
<path d="M231.67 89.52H229.75V95.28H231.67V89.52Z" fill="#1D1D1B"/>
<path d="M231.67 97.21H229.75V101.05H231.67V97.21Z" fill="#1D1D1B"/>
<path d="M231.67 110.66H229.75V112.58H231.67V110.66Z" fill="#1D1D1B"/>
<path d="M231.67 118.34H229.75V120.26H231.67V118.34Z" fill="#1D1D1B"/>
<path d="M231.67 124.1H229.75V126.02H231.67V124.1Z" fill="#1D1D1B"/>
<path d="M231.67 131.79H229.75V133.71H231.67V131.79Z" fill="#1D1D1B"/>
<path d="M231.67 133.71H229.75V137.55H231.67V133.71Z" fill="#1D1D1B"/>
<path d="M233.59 97.21H231.67V99.13H233.59V97.21Z" fill="#1D1D1B"/>
<path d="M233.59 101.05H231.67V102.97H233.59V101.05Z" fill="#1D1D1B"/>
<path d="M233.59 106.81H231.67V110.65H233.59V106.81Z" fill="#1D1D1B"/>
<path d="M233.59 114.5H231.67V118.34H233.59V114.5Z" fill="#1D1D1B"/>
<path d="M233.59 120.26H231.67V122.18H233.59V120.26Z" fill="#1D1D1B"/>
<path d="M233.59 122.18H231.67V127.94H233.59V122.18Z" fill="#1D1D1B"/>
<path d="M233.59 127.95H231.67V131.79H233.59V127.95Z" fill="#1D1D1B"/>
<path d="M233.59 133.71H231.67V137.55H233.59V133.71Z" fill="#1D1D1B"/>
<path d="M235.51 108.73H233.59V110.65H235.51V108.73Z" fill="#1D1D1B"/>
<path d="M235.51 112.58H233.59V114.5H235.51V112.58Z" fill="#1D1D1B"/>
<path d="M235.51 116.42H233.59V118.34H235.51V116.42Z" fill="#1D1D1B"/>
<path d="M235.51 120.26H233.59V122.18H235.51V120.26Z" fill="#1D1D1B"/>
<path d="M235.51 127.95H233.59V131.79H235.51V127.95Z" fill="#1D1D1B"/>
<path d="M237.44 89.52H235.52V101.05H237.44V89.52Z" fill="#1D1D1B"/>
<path d="M237.44 101.05H235.52V102.97H237.44V101.05Z" fill="#1D1D1B"/>
<path d="M237.44 106.81H235.52V110.65H237.44V106.81Z" fill="#1D1D1B"/>
<path d="M237.44 110.66H235.52V122.19H237.44V110.66Z" fill="#1D1D1B"/>
<path d="M237.44 124.1H235.52V126.02H237.44V124.1Z" fill="#1D1D1B"/>
<path d="M237.44 127.95H235.52V129.87H237.44V127.95Z" fill="#1D1D1B"/>
<path d="M237.44 133.71H235.52V135.63H237.44V133.71Z" fill="#1D1D1B"/>
<path d="M239.36 89.52H237.44V91.44H239.36V89.52Z" fill="#1D1D1B"/>
<path d="M239.36 101.05H237.44V102.97H239.36V101.05Z" fill="#1D1D1B"/>
<path d="M239.36 108.73H237.44V110.65H239.36V108.73Z" fill="#1D1D1B"/>
<path d="M239.36 112.58H237.44V114.5H239.36V112.58Z" fill="#1D1D1B"/>
<path d="M239.36 116.42H237.44V118.34H239.36V116.42Z" fill="#1D1D1B"/>
<path d="M239.36 120.26H237.44V122.18H239.36V120.26Z" fill="#1D1D1B"/>
<path d="M239.36 127.95H237.44V131.79H239.36V127.95Z" fill="#1D1D1B"/>
<path d="M239.36 135.63H237.44V137.55H239.36V135.63Z" fill="#1D1D1B"/>
<path d="M241.28 89.52H239.36V91.44H241.28V89.52Z" fill="#1D1D1B"/>
<path d="M241.28 93.3699H239.36V99.1299H241.28V93.3699Z" fill="#1D1D1B"/>
<path d="M241.28 101.05H239.36V102.97H241.28V101.05Z" fill="#1D1D1B"/>
<path d="M241.28 104.89H239.36V106.81H241.28V104.89Z" fill="#1D1D1B"/>
<path d="M241.28 118.34H239.36V122.18H241.28V118.34Z" fill="#1D1D1B"/>
<path d="M241.28 122.18H239.36V127.94H241.28V122.18Z" fill="#1D1D1B"/>
<path d="M241.28 127.95H239.36V133.71H241.28V127.95Z" fill="#1D1D1B"/>
<path d="M241.28 133.71H239.36V135.63H241.28V133.71Z" fill="#1D1D1B"/>
<path d="M243.2 89.52H241.28V91.44H243.2V89.52Z" fill="#1D1D1B"/>
<path d="M243.2 93.3699H241.28V99.1299H243.2V93.3699Z" fill="#1D1D1B"/>
<path d="M243.2 101.05H241.28V102.97H243.2V101.05Z" fill="#1D1D1B"/>
<path d="M243.2 112.58H241.28V116.42H243.2V112.58Z" fill="#1D1D1B"/>
<path d="M243.2 120.26H241.28V122.18H243.2V120.26Z" fill="#1D1D1B"/>
<path d="M243.2 122.18H241.28V127.94H243.2V122.18Z" fill="#1D1D1B"/>
<path d="M243.2 127.95H241.28V131.79H243.2V127.95Z" fill="#1D1D1B"/>
<path d="M243.2 133.71H241.28V135.63H243.2V133.71Z" fill="#1D1D1B"/>
<path d="M245.12 89.52H243.2V91.44H245.12V89.52Z" fill="#1D1D1B"/>
<path d="M245.12 93.3699H243.2V99.1299H245.12V93.3699Z" fill="#1D1D1B"/>
<path d="M245.12 101.05H243.2V102.97H245.12V101.05Z" fill="#1D1D1B"/>
<path d="M245.12 108.73H243.2V110.65H245.12V108.73Z" fill="#1D1D1B"/>
<path d="M245.12 116.42H243.2V118.34H245.12V116.42Z" fill="#1D1D1B"/>
<path d="M245.12 129.87H243.2V131.79H245.12V129.87Z" fill="#1D1D1B"/>
<path d="M247.04 89.52H245.12V91.44H247.04V89.52Z" fill="#1D1D1B"/>
<path d="M247.04 101.05H245.12V102.97H247.04V101.05Z" fill="#1D1D1B"/>
<path d="M247.04 104.89H245.12V106.81H247.04V104.89Z" fill="#1D1D1B"/>
<path d="M247.04 108.73H245.12V110.65H247.04V108.73Z" fill="#1D1D1B"/>
<path d="M247.04 110.66H245.12V114.5H247.04V110.66Z" fill="#1D1D1B"/>
<path d="M247.04 116.42H245.12V120.26H247.04V116.42Z" fill="#1D1D1B"/>
<path d="M247.04 122.18H245.12V126.02H247.04V122.18Z" fill="#1D1D1B"/>
<path d="M247.04 127.95H245.12V129.87H247.04V127.95Z" fill="#1D1D1B"/>
<path d="M247.04 133.71H245.12V137.55H247.04V133.71Z" fill="#1D1D1B"/>
<path d="M248.96 89.52H247.04V101.05H248.96V89.52Z" fill="#1D1D1B"/>
<path d="M248.96 101.05H247.04V102.97H248.96V101.05Z" fill="#1D1D1B"/>
<path d="M248.96 106.81H247.04V110.65H248.96V106.81Z" fill="#1D1D1B"/>
<path d="M248.96 112.58H247.04V118.34H248.96V112.58Z" fill="#1D1D1B"/>
<path d="M248.96 122.18H247.04V126.02H248.96V122.18Z" fill="#1D1D1B"/>
<path d="M248.96 127.95H247.04V129.87H248.96V127.95Z" fill="#1D1D1B"/>
<path d="M248.96 131.79H247.04V133.71H248.96V131.79Z" fill="#1D1D1B"/>
<path d="M248.96 135.63H247.04V137.55H248.96V135.63Z" fill="#1D1D1B"/>
<path d="M200.12 153.09C199.87 152.98 199.67 152.82 199.53 152.62C199.39 152.42 199.31 152.19 199.31 151.93H199.98C200 152.16 200.1 152.34 200.26 152.5C200.42 152.65 200.66 152.73 200.97 152.73C201.28 152.73 201.5 152.66 201.68 152.51C201.85 152.36 201.94 152.17 201.94 151.94C201.94 151.76 201.89 151.61 201.79 151.49C201.69 151.37 201.56 151.29 201.41 151.23C201.26 151.17 201.05 151.11 200.8 151.04C200.48 150.96 200.23 150.87 200.04 150.79C199.85 150.71 199.69 150.58 199.55 150.4C199.41 150.22 199.35 149.99 199.35 149.69C199.35 149.43 199.42 149.2 199.55 148.99C199.68 148.79 199.87 148.63 200.11 148.52C200.35 148.41 200.63 148.35 200.94 148.35C201.39 148.35 201.76 148.46 202.04 148.69C202.32 148.92 202.49 149.21 202.53 149.58H201.84C201.82 149.4 201.72 149.24 201.55 149.09C201.38 148.94 201.16 148.88 200.88 148.88C200.62 148.88 200.41 148.95 200.24 149.08C200.07 149.21 199.99 149.4 199.99 149.65C199.99 149.82 200.04 149.97 200.14 150.08C200.24 150.19 200.36 150.27 200.5 150.33C200.64 150.39 200.85 150.45 201.11 150.53C201.43 150.62 201.68 150.7 201.87 150.79C202.06 150.87 202.23 151.01 202.37 151.18C202.51 151.36 202.58 151.6 202.58 151.9C202.58 152.13 202.52 152.35 202.39 152.56C202.26 152.77 202.08 152.93 201.84 153.06C201.6 153.19 201.31 153.25 200.98 153.25C200.65 153.25 200.38 153.19 200.13 153.08L200.12 153.09Z" fill="#192441"/>
<path d="M203.48 150.3C203.64 150.01 203.85 149.78 204.13 149.62C204.41 149.46 204.73 149.38 205.08 149.38C205.54 149.38 205.93 149.49 206.23 149.72C206.53 149.94 206.73 150.26 206.83 150.66H206.16C206.1 150.43 205.97 150.25 205.78 150.12C205.59 149.99 205.36 149.92 205.09 149.92C204.73 149.92 204.44 150.04 204.22 150.29C204 150.54 203.89 150.88 203.89 151.33C203.89 151.78 204 152.13 204.22 152.38C204.44 152.63 204.73 152.75 205.09 152.75C205.37 152.75 205.59 152.69 205.78 152.56C205.96 152.43 206.09 152.25 206.16 152.01H206.83C206.73 152.4 206.53 152.7 206.22 152.94C205.92 153.17 205.54 153.29 205.08 153.29C204.72 153.29 204.4 153.21 204.13 153.05C203.85 152.89 203.64 152.66 203.48 152.37C203.32 152.08 203.25 151.73 203.25 151.34C203.25 150.95 203.33 150.61 203.48 150.32V150.3Z" fill="#192441"/>
<path d="M207.66 150.3C207.82 150.01 208.03 149.78 208.3 149.62C208.57 149.46 208.88 149.38 209.21 149.38C209.54 149.38 209.83 149.45 210.07 149.59C210.31 149.73 210.49 149.91 210.61 150.13V149.44H211.24V153.21H210.61V152.51C210.49 152.73 210.3 152.91 210.06 153.06C209.81 153.2 209.53 153.28 209.2 153.28C208.87 153.28 208.56 153.2 208.29 153.03C208.02 152.86 207.81 152.63 207.65 152.33C207.49 152.03 207.42 151.69 207.42 151.31C207.42 150.93 207.5 150.59 207.65 150.29L207.66 150.3ZM210.45 150.58C210.34 150.37 210.18 150.21 209.99 150.09C209.8 149.98 209.58 149.92 209.35 149.92C209.12 149.92 208.9 149.98 208.71 150.09C208.52 150.2 208.36 150.36 208.25 150.57C208.14 150.78 208.08 151.03 208.08 151.31C208.08 151.59 208.14 151.85 208.25 152.06C208.36 152.27 208.52 152.44 208.71 152.55C208.9 152.66 209.12 152.72 209.35 152.72C209.58 152.72 209.8 152.66 209.99 152.55C210.18 152.44 210.34 152.28 210.45 152.06C210.56 151.85 210.62 151.6 210.62 151.31C210.62 151.02 210.56 150.78 210.45 150.57V150.58Z" fill="#192441"/>
<path d="M215.27 149.79C215.55 150.07 215.7 150.47 215.7 150.99V153.21H215.08V151.08C215.08 150.7 214.99 150.42 214.8 150.22C214.61 150.02 214.35 149.92 214.03 149.92C213.71 149.92 213.44 150.02 213.24 150.23C213.04 150.44 212.95 150.74 212.95 151.13V153.22H212.32V149.45H212.95V149.99C213.07 149.8 213.24 149.65 213.46 149.54C213.67 149.43 213.91 149.38 214.17 149.38C214.63 149.38 215 149.52 215.29 149.8L215.27 149.79Z" fill="#192441"/>
<path d="M218.56 150.3C218.72 150.01 218.93 149.78 219.2 149.62C219.47 149.46 219.78 149.38 220.11 149.38C220.44 149.38 220.73 149.45 220.97 149.59C221.21 149.73 221.39 149.91 221.51 150.13V149.44H222.14V153.21H221.51V152.51C221.39 152.73 221.2 152.91 220.96 153.06C220.71 153.2 220.43 153.28 220.1 153.28C219.77 153.28 219.46 153.2 219.19 153.03C218.92 152.86 218.71 152.63 218.55 152.33C218.39 152.03 218.32 151.69 218.32 151.31C218.32 150.93 218.4 150.59 218.55 150.29L218.56 150.3ZM221.35 150.58C221.24 150.37 221.08 150.21 220.89 150.09C220.7 149.98 220.48 149.92 220.25 149.92C220.02 149.92 219.8 149.98 219.61 150.09C219.42 150.2 219.26 150.36 219.15 150.57C219.04 150.78 218.98 151.03 218.98 151.31C218.98 151.59 219.04 151.85 219.15 152.06C219.26 152.27 219.42 152.44 219.61 152.55C219.8 152.66 220.02 152.72 220.25 152.72C220.48 152.72 220.7 152.66 220.89 152.55C221.08 152.44 221.24 152.28 221.35 152.06C221.46 151.85 221.52 151.6 221.52 151.31C221.52 151.02 221.46 150.78 221.35 150.57V150.58Z" fill="#192441"/>
<path d="M226.16 149.79C226.44 150.07 226.59 150.47 226.59 150.99V153.21H225.97V151.08C225.97 150.7 225.88 150.42 225.69 150.22C225.5 150.02 225.24 149.92 224.92 149.92C224.6 149.92 224.33 150.02 224.13 150.23C223.93 150.44 223.84 150.74 223.84 151.13V153.22H223.21V149.45H223.84V149.99C223.96 149.8 224.13 149.65 224.35 149.54C224.56 149.43 224.8 149.38 225.06 149.38C225.52 149.38 225.89 149.52 226.18 149.8L226.16 149.79Z" fill="#192441"/>
<path d="M227.61 150.3C227.77 150.01 227.98 149.78 228.25 149.62C228.52 149.46 228.83 149.38 229.17 149.38C229.46 149.38 229.74 149.45 229.99 149.58C230.24 149.72 230.43 149.89 230.57 150.11V148.11H231.2V153.2H230.57V152.49C230.45 152.72 230.26 152.9 230.02 153.04C229.78 153.18 229.49 153.26 229.17 153.26C228.85 153.26 228.53 153.18 228.26 153.01C227.99 152.84 227.77 152.61 227.62 152.31C227.46 152.01 227.39 151.67 227.39 151.29C227.39 150.91 227.47 150.57 227.62 150.27L227.61 150.3ZM230.4 150.58C230.29 150.37 230.13 150.21 229.94 150.09C229.75 149.98 229.53 149.92 229.3 149.92C229.07 149.92 228.85 149.98 228.66 150.09C228.47 150.2 228.31 150.36 228.2 150.57C228.09 150.78 228.03 151.03 228.03 151.31C228.03 151.59 228.09 151.85 228.2 152.06C228.31 152.27 228.47 152.44 228.66 152.55C228.85 152.66 229.07 152.72 229.3 152.72C229.53 152.72 229.75 152.66 229.94 152.55C230.13 152.44 230.29 152.28 230.4 152.06C230.51 151.85 230.57 151.6 230.57 151.31C230.57 151.02 230.51 150.78 230.4 150.57V150.58Z" fill="#192441"/>
<path d="M234.79 153.03C234.5 152.87 234.28 152.64 234.12 152.35C233.96 152.05 233.88 151.71 233.88 151.32C233.88 150.93 233.96 150.59 234.13 150.3C234.3 150.01 234.53 149.78 234.81 149.62C235.1 149.46 235.42 149.38 235.78 149.38C236.14 149.38 236.46 149.46 236.75 149.62C237.04 149.78 237.27 150 237.43 150.3C237.59 150.6 237.68 150.94 237.68 151.33C237.68 151.72 237.59 152.06 237.42 152.36C237.25 152.66 237.02 152.88 236.72 153.04C236.43 153.2 236.1 153.28 235.74 153.28C235.38 153.28 235.07 153.2 234.78 153.04L234.79 153.03ZM236.38 152.56C236.58 152.45 236.74 152.3 236.86 152.09C236.98 151.88 237.04 151.62 237.04 151.32C237.04 151.02 236.98 150.76 236.86 150.55C236.74 150.34 236.58 150.18 236.39 150.08C236.2 149.98 235.99 149.92 235.76 149.92C235.53 149.92 235.32 149.97 235.13 150.08C234.94 150.18 234.79 150.34 234.67 150.55C234.56 150.76 234.5 151.02 234.5 151.32C234.5 151.62 234.56 151.89 234.67 152.1C234.78 152.31 234.93 152.47 235.12 152.57C235.31 152.67 235.51 152.73 235.74 152.73C235.97 152.73 236.18 152.68 236.37 152.57L236.38 152.56Z" fill="#192441"/>
<path d="M239.69 149.6C239.94 149.46 240.22 149.38 240.55 149.38C240.88 149.38 241.19 149.46 241.46 149.62C241.73 149.78 241.95 150.01 242.1 150.3C242.26 150.59 242.33 150.93 242.33 151.32C242.33 151.71 242.25 152.04 242.1 152.34C241.94 152.64 241.73 152.87 241.46 153.04C241.19 153.21 240.88 153.29 240.55 153.29C240.22 153.29 239.95 153.22 239.7 153.07C239.45 152.92 239.27 152.75 239.14 152.53V155.01H238.51V149.45H239.14V150.15C239.26 149.93 239.45 149.75 239.69 149.61V149.6ZM241.52 150.57C241.41 150.36 241.25 150.2 241.06 150.09C240.87 149.98 240.65 149.92 240.42 149.92C240.19 149.92 239.98 149.98 239.78 150.09C239.59 150.2 239.43 150.37 239.31 150.58C239.19 150.79 239.13 151.04 239.13 151.32C239.13 151.6 239.19 151.85 239.31 152.07C239.43 152.29 239.58 152.45 239.78 152.56C239.97 152.67 240.19 152.73 240.42 152.73C240.65 152.73 240.87 152.67 241.06 152.56C241.25 152.45 241.41 152.29 241.52 152.07C241.63 151.85 241.69 151.61 241.69 151.32C241.69 151.03 241.63 150.79 241.52 150.58V150.57Z" fill="#192441"/>
<path d="M246.58 151.56H243.57C243.59 151.93 243.72 152.22 243.95 152.43C244.18 152.64 244.46 152.74 244.79 152.74C245.06 152.74 245.29 152.68 245.47 152.55C245.65 152.42 245.78 152.26 245.85 152.04H246.52C246.42 152.4 246.22 152.7 245.91 152.92C245.61 153.15 245.23 153.26 244.78 153.26C244.42 153.26 244.1 153.18 243.82 153.02C243.54 152.86 243.32 152.63 243.16 152.34C243 152.04 242.92 151.7 242.92 151.31C242.92 150.92 243 150.58 243.15 150.28C243.31 149.99 243.53 149.76 243.81 149.6C244.09 149.44 244.42 149.36 244.78 149.36C245.14 149.36 245.45 149.44 245.73 149.59C246.01 149.75 246.22 149.96 246.37 150.23C246.52 150.5 246.59 150.81 246.59 151.16C246.59 151.28 246.59 151.41 246.57 151.54L246.58 151.56ZM245.8 150.43C245.69 150.26 245.55 150.13 245.37 150.04C245.19 149.95 244.99 149.91 244.77 149.91C244.45 149.91 244.18 150.01 243.96 150.21C243.74 150.41 243.61 150.69 243.58 151.05H245.96C245.96 150.81 245.91 150.61 245.8 150.43Z" fill="#192441"/>
<path d="M250.38 149.79C250.66 150.07 250.81 150.47 250.81 150.99V153.21H250.19V151.08C250.19 150.7 250.1 150.42 249.91 150.22C249.72 150.02 249.46 149.92 249.14 149.92C248.82 149.92 248.55 150.02 248.35 150.23C248.15 150.44 248.06 150.74 248.06 151.13V153.22H247.43V149.45H248.06V149.99C248.18 149.8 248.35 149.65 248.57 149.54C248.78 149.43 249.02 149.38 249.28 149.38C249.74 149.38 250.11 149.52 250.4 149.8L250.38 149.79Z" fill="#192441"/>
<path d="M200.21 158.22V160.44C200.21 160.62 200.25 160.75 200.33 160.83C200.41 160.91 200.54 160.94 200.74 160.94H201.2V161.47H200.64C200.29 161.47 200.03 161.39 199.86 161.23C199.69 161.07 199.6 160.81 199.6 160.44V158.22H199.11V157.7H199.6V156.75H200.23V157.7H201.21V158.22H200.23H200.21Z" fill="#192441"/>
<path d="M204.59 157.81C204.82 157.93 205 158.11 205.13 158.36C205.26 158.6 205.33 158.9 205.33 159.25V161.47H204.71V159.34C204.71 158.96 204.62 158.68 204.43 158.48C204.24 158.28 203.98 158.18 203.66 158.18C203.34 158.18 203.07 158.28 202.87 158.49C202.67 158.7 202.58 159 202.58 159.39V161.48H201.95V156.39H202.58V158.25C202.7 158.06 202.88 157.91 203.09 157.8C203.3 157.69 203.55 157.64 203.82 157.64C204.09 157.64 204.36 157.7 204.59 157.82V157.81Z" fill="#192441"/>
<path d="M209.77 159.82H206.76C206.78 160.19 206.91 160.48 207.14 160.69C207.37 160.9 207.65 161 207.98 161C208.25 161 208.48 160.94 208.66 160.81C208.84 160.68 208.97 160.52 209.04 160.3H209.71C209.61 160.66 209.41 160.96 209.1 161.18C208.8 161.41 208.42 161.52 207.97 161.52C207.61 161.52 207.29 161.44 207.01 161.28C206.73 161.12 206.51 160.89 206.35 160.6C206.19 160.3 206.11 159.96 206.11 159.57C206.11 159.18 206.19 158.84 206.34 158.54C206.5 158.25 206.72 158.02 207 157.86C207.28 157.7 207.61 157.62 207.97 157.62C208.33 157.62 208.64 157.7 208.92 157.85C209.2 158.01 209.41 158.22 209.56 158.49C209.71 158.76 209.78 159.07 209.78 159.42C209.78 159.54 209.78 159.67 209.76 159.8L209.77 159.82ZM208.99 158.69C208.88 158.52 208.74 158.39 208.56 158.3C208.38 158.21 208.18 158.17 207.96 158.17C207.64 158.17 207.37 158.27 207.15 158.47C206.93 158.67 206.8 158.95 206.77 159.31H209.15C209.15 159.07 209.1 158.87 208.99 158.69Z" fill="#192441"/>
<path d="M231.5 158.56C231.66 158.27 231.87 158.04 232.14 157.88C232.41 157.72 232.72 157.64 233.05 157.64C233.38 157.64 233.67 157.71 233.91 157.85C234.15 157.99 234.33 158.17 234.45 158.39V157.7H235.08V161.47H234.45V160.77C234.33 160.99 234.14 161.17 233.9 161.32C233.65 161.46 233.37 161.54 233.04 161.54C232.71 161.54 232.4 161.46 232.13 161.29C231.86 161.12 231.65 160.89 231.49 160.59C231.33 160.29 231.26 159.95 231.26 159.57C231.26 159.19 231.34 158.85 231.49 158.55L231.5 158.56ZM234.29 158.84C234.18 158.63 234.02 158.47 233.83 158.35C233.64 158.24 233.42 158.18 233.19 158.18C232.96 158.18 232.74 158.24 232.55 158.35C232.36 158.46 232.2 158.62 232.09 158.83C231.98 159.04 231.92 159.29 231.92 159.57C231.92 159.85 231.98 160.11 232.09 160.32C232.2 160.53 232.36 160.7 232.55 160.81C232.74 160.92 232.96 160.98 233.19 160.98C233.42 160.98 233.64 160.92 233.83 160.81C234.02 160.7 234.18 160.54 234.29 160.32C234.4 160.11 234.46 159.86 234.46 159.57C234.46 159.28 234.4 159.04 234.29 158.83V158.84Z" fill="#192441"/>
<path d="M237.33 157.85C237.58 157.71 237.86 157.63 238.19 157.63C238.52 157.63 238.83 157.71 239.1 157.87C239.37 158.03 239.59 158.26 239.74 158.55C239.9 158.84 239.97 159.18 239.97 159.57C239.97 159.96 239.89 160.29 239.74 160.59C239.58 160.89 239.37 161.12 239.1 161.29C238.83 161.46 238.52 161.54 238.19 161.54C237.86 161.54 237.59 161.47 237.34 161.32C237.09 161.17 236.91 161 236.78 160.78V163.26H236.15V157.7H236.78V158.4C236.9 158.18 237.09 158 237.33 157.86V157.85ZM239.16 158.82C239.05 158.61 238.89 158.45 238.7 158.34C238.51 158.23 238.29 158.17 238.06 158.17C237.83 158.17 237.62 158.23 237.42 158.34C237.23 158.45 237.07 158.62 236.95 158.83C236.83 159.04 236.77 159.29 236.77 159.57C236.77 159.85 236.83 160.1 236.95 160.32C237.07 160.54 237.22 160.7 237.42 160.81C237.61 160.92 237.83 160.98 238.06 160.98C238.29 160.98 238.51 160.92 238.7 160.81C238.89 160.7 239.05 160.54 239.16 160.32C239.27 160.1 239.33 159.86 239.33 159.57C239.33 159.28 239.27 159.04 239.16 158.83V158.82Z" fill="#192441"/>
<path d="M241.99 157.85C242.24 157.71 242.52 157.63 242.85 157.63C243.18 157.63 243.49 157.71 243.76 157.87C244.03 158.03 244.25 158.26 244.4 158.55C244.56 158.84 244.63 159.18 244.63 159.57C244.63 159.96 244.55 160.29 244.4 160.59C244.24 160.89 244.03 161.12 243.76 161.29C243.49 161.46 243.18 161.54 242.85 161.54C242.52 161.54 242.25 161.47 242 161.32C241.75 161.17 241.57 161 241.44 160.78V163.26H240.81V157.7H241.44V158.4C241.56 158.18 241.75 158 241.99 157.86V157.85ZM243.82 158.82C243.71 158.61 243.55 158.45 243.36 158.34C243.17 158.23 242.95 158.17 242.72 158.17C242.49 158.17 242.28 158.23 242.08 158.34C241.89 158.45 241.73 158.62 241.61 158.83C241.49 159.04 241.43 159.29 241.43 159.57C241.43 159.85 241.49 160.1 241.61 160.32C241.73 160.54 241.88 160.7 242.08 160.81C242.27 160.92 242.49 160.98 242.72 160.98C242.95 160.98 243.17 160.92 243.36 160.81C243.55 160.7 243.71 160.54 243.82 160.32C243.93 160.1 243.99 159.86 243.99 159.57C243.99 159.28 243.93 159.04 243.82 158.83V158.82Z" fill="#192441"/>
<path d="M245.66 161.39C245.58 161.31 245.54 161.21 245.54 161.09C245.54 160.97 245.58 160.87 245.66 160.79C245.74 160.71 245.84 160.67 245.96 160.67C246.08 160.67 246.17 160.71 246.25 160.79C246.33 160.87 246.37 160.97 246.37 161.09C246.37 161.21 246.33 161.31 246.25 161.39C246.17 161.47 246.07 161.51 245.96 161.51C245.85 161.51 245.74 161.47 245.66 161.39ZM246.27 156.68L246.19 160.12H245.67L245.59 156.68H246.26H246.27Z" fill="#192441"/>
<path d="M214.6 157.19C213.45 157.19 212.52 158.16 212.52 159.35C212.52 160.54 213.45 161.51 214.6 161.51C215.75 161.51 216.68 160.54 216.68 159.35C216.68 158.16 215.75 157.19 214.6 157.19ZM214.6 160.56C213.96 160.56 213.44 160.02 213.44 159.35C213.44 158.68 213.96 158.14 214.6 158.14C215.24 158.14 215.76 158.68 215.76 159.35C215.76 160.02 215.24 160.56 214.6 160.56Z" fill="#192441"/>
<path d="M219.02 157.19C217.87 157.19 216.94 158.16 216.94 159.35V162.1C216.94 162.36 217.14 162.58 217.4 162.58C217.66 162.58 217.86 162.37 217.86 162.1V161.14C218.19 161.37 218.6 161.51 219.02 161.51C220.17 161.51 221.1 160.54 221.1 159.35C221.1 158.16 220.17 157.19 219.02 157.19ZM219.02 160.56C218.48 160.56 218.02 160.18 217.89 159.64C217.87 159.55 217.86 159.45 217.86 159.35C217.86 158.68 218.38 158.14 219.02 158.14C219.66 158.14 220.18 158.68 220.18 159.35C220.18 160.02 219.66 160.56 219.02 160.56Z" fill="#192441"/>
<path d="M223.51 157.19C222.36 157.19 221.43 158.16 221.43 159.35V162.1C221.43 162.36 221.63 162.58 221.89 162.58C222.15 162.58 222.35 162.37 222.35 162.1V161.14C222.68 161.37 223.09 161.51 223.51 161.51C224.66 161.51 225.59 160.54 225.59 159.35C225.59 158.16 224.66 157.19 223.51 157.19ZM223.51 160.56C222.97 160.56 222.51 160.18 222.38 159.64C222.36 159.55 222.35 159.45 222.35 159.35C222.35 158.68 222.87 158.14 223.51 158.14C224.15 158.14 224.67 158.68 224.67 159.35C224.67 160.02 224.15 160.56 223.51 160.56Z" fill="#192441"/>
<path d="M228.42 157.66C228.42 157.4 228.22 157.18 227.96 157.18C226.81 157.18 225.88 158.15 225.88 159.34V161.03C225.88 161.29 226.08 161.51 226.34 161.51C226.6 161.51 226.8 161.3 226.8 161.03V159.34C226.8 158.67 227.32 158.13 227.96 158.13C228.21 158.13 228.42 157.92 228.42 157.65V157.66Z" fill="#192441"/>
<path d="M228.8 161.52C229.098 161.52 229.34 161.265 229.34 160.95C229.34 160.635 229.098 160.38 228.8 160.38C228.502 160.38 228.26 160.635 228.26 160.95C228.26 161.265 228.502 161.52 228.8 161.52Z" fill="#ED6A4C"/>
<path d="M107.11 36.5698H125.7C157.54 36.5698 183.4 62.4198 183.4 94.2698V263.26H49.41V94.2598C49.41 62.4198 75.26 36.5598 107.11 36.5598V36.5698Z" fill="#192441"/>
<path d="M111.03 220.29H53.81C52.08 220.29 50.68 218.89 50.68 217.16V122.9C50.68 106.19 61.16 91.2799 76.89 85.6299L109.1 74.0499C111.57 73.1599 114.17 74.9899 114.17 77.6199V217.17C114.17 218.9 112.77 220.3 111.04 220.3L111.03 220.29Z" fill="#ED6A4C"/>
<path opacity="0.2" d="M108.43 100.53V86.7599C108.43 84.6499 106.33 83.1699 104.34 83.8899L77.87 93.4099C67.56 97.1199 60 105.69 57.39 115.98C61.72 115.95 65.67 114.32 69.86 112.92C82.66 108.4 95.47 104.27 108.42 100.53H108.43Z" fill="white"/>
<path opacity="0.1" d="M108.43 120.04V100.53C95.48 104.28 82.67 108.4 69.87 112.92C65.68 114.32 61.72 115.95 57.4 115.98C57 117.58 56.71 119.22 56.55 120.89C73.82 120.27 91.2 119.9 108.43 120.05V120.04Z" fill="white"/>
<path opacity="0.1" d="M108.43 137.86V129.82C91.09 129.38 73.74 129.92 56.4 129.65V140.25C73.74 139.25 91.09 137.74 108.43 137.86Z" fill="white"/>
<path opacity="0.2" d="M108.43 148.78V137.86C91.09 137.73 73.74 139.25 56.4 140.25V148.43C73.69 148.3 91.07 148.48 108.43 148.79V148.78Z" fill="white"/>
<path opacity="0.1" d="M108.43 161.27V148.78C91.07 148.48 73.69 148.29 56.4 148.42V161.47C73.7 160.66 91.18 161.35 108.43 161.27Z" fill="white"/>
<path opacity="0.2" d="M108.43 177.21V161.26C91.18 161.35 73.7 160.65 56.4 161.46V176.77C73.81 176.63 91.14 176.63 108.43 177.21Z" fill="white"/>
<path opacity="0.2" d="M108.43 203.43V190.95C91.04 190.86 73.79 189.74 56.4 193.47V203.22C73.74 203.08 91.09 203.03 108.43 203.43Z" fill="white"/>
<path opacity="0.1" d="M56.4 203.22V210.2C56.4 211.69 57.61 212.9 59.1 212.9H105.73C107.22 212.9 108.43 211.69 108.43 210.2V203.44C91.09 203.04 73.74 203.09 56.4 203.23V203.22Z" fill="white"/>
<path opacity="0.1" d="M56.4 176.77V193.46C73.79 189.73 91.04 190.85 108.43 190.94V177.21C91.14 176.63 73.81 176.63 56.4 176.77Z" fill="white"/>
<path opacity="0.2" d="M56.55 120.89C56.45 121.9 56.4 122.92 56.4 123.95V129.64C73.74 129.91 91.09 129.38 108.43 129.81V120.04C91.2 119.9 73.82 120.27 56.55 120.88V120.89Z" fill="white"/>
<path d="M51.02 121.92H50.32C49.1215 121.92 48.15 122.891 48.15 124.09V137.39C48.15 138.588 49.1215 139.56 50.32 139.56H51.02C52.2184 139.56 53.19 138.588 53.19 137.39V124.09C53.19 122.891 52.2184 121.92 51.02 121.92Z" fill="white"/>
<path d="M51.02 187.13H50.32C49.1215 187.13 48.15 188.101 48.15 189.3V202.6C48.15 203.798 49.1215 204.77 50.32 204.77H51.02C52.2184 204.77 53.19 203.798 53.19 202.6V189.3C53.19 188.101 52.2184 187.13 51.02 187.13Z" fill="white"/>
<path d="M121.78 220.29H179C180.73 220.29 182.13 218.89 182.13 217.16V122.9C182.13 106.19 171.65 91.2799 155.92 85.6299L123.71 74.0499C121.24 73.1599 118.64 74.9899 118.64 77.6199V217.17C118.64 218.9 120.04 220.3 121.77 220.3L121.78 220.29Z" fill="#ED6A4C"/>
<path opacity="0.2" d="M124.37 100.53V86.7599C124.37 84.6499 126.47 83.1699 128.46 83.8899L154.93 93.4099C165.24 97.1199 172.8 105.69 175.41 115.98C171.08 115.95 167.13 114.32 162.94 112.92C150.14 108.4 137.33 104.27 124.38 100.53H124.37Z" fill="white"/>
<path opacity="0.1" d="M124.37 120.04V100.53C137.32 104.28 150.13 108.4 162.93 112.92C167.12 114.32 171.08 115.95 175.4 115.98C175.8 117.58 176.09 119.22 176.25 120.89C158.98 120.27 141.6 119.9 124.37 120.05V120.04Z" fill="white"/>
<path opacity="0.1" d="M124.37 137.86V129.82C141.71 129.38 159.06 129.92 176.4 129.65V140.25C159.06 139.25 141.71 137.74 124.37 137.86Z" fill="white"/>
<path opacity="0.2" d="M124.37 148.78V137.86C141.71 137.73 159.06 139.25 176.4 140.25V148.43C159.11 148.3 141.73 148.48 124.37 148.79V148.78Z" fill="white"/>
<path opacity="0.1" d="M124.37 161.27V148.78C141.73 148.48 159.11 148.29 176.4 148.42V161.47C159.1 160.66 141.62 161.35 124.37 161.27Z" fill="white"/>
<path opacity="0.2" d="M124.37 177.21V161.26C141.62 161.35 159.1 160.65 176.4 161.46V176.77C158.99 176.63 141.66 176.63 124.37 177.21Z" fill="white"/>
<path opacity="0.2" d="M124.37 203.43V190.95C141.76 190.86 159.01 189.74 176.4 193.47V203.22C159.06 203.08 141.71 203.03 124.37 203.43Z" fill="white"/>
<path opacity="0.1" d="M176.4 203.22V210.2C176.4 211.69 175.19 212.9 173.7 212.9H127.07C125.58 212.9 124.37 211.69 124.37 210.2V203.44C141.71 203.04 159.06 203.09 176.4 203.23V203.22Z" fill="white"/>
<path opacity="0.1" d="M176.4 176.77V193.46C159.01 189.73 141.76 190.85 124.37 190.94V177.21C141.66 176.63 158.99 176.63 176.4 176.77Z" fill="white"/>
<path opacity="0.2" d="M176.26 120.89C176.36 121.9 176.41 122.92 176.41 123.95V129.64C159.07 129.91 141.72 129.38 124.38 129.81V120.04C141.61 119.9 158.99 120.27 176.26 120.88V120.89Z" fill="white"/>
<path d="M184.66 124.44C184.66 123.05 183.53 121.92 182.14 121.92C180.75 121.92 179.62 123.05 179.62 124.44V137.04C179.62 138.43 180.75 139.56 182.14 139.56C183.53 139.56 184.66 138.43 184.66 137.04" fill="white"/>
<path d="M184.66 189.65C184.66 188.26 183.53 187.13 182.14 187.13C180.75 187.13 179.62 188.26 179.62 189.65V202.25C179.62 203.64 180.75 204.77 182.14 204.77C183.53 204.77 184.66 203.64 184.66 202.25" fill="white"/>
<path d="M289.91 117.4C289.91 117.4 288.74 111.25 294.96 110.63C301.18 110.01 300.81 139.23 309.35 152.75C319.99 169.6 309.66 179.94 318.46 193.31C327.26 206.68 399.79 240.81 399.79 240.81L337.85 284.23C337.85 284.23 320.1 237.31 293.26 223.74C266.42 210.17 265.8 218.45 248.57 183.81C231.34 149.17 289.91 117.41 289.91 117.41V117.4Z" fill="#F4A39B"/>
<path d="M234.86 168.6L240.26 158.71L233.9 149.25L244.08 140.41L251.02 154.19L245.99 171.63L234.86 168.6Z" fill="#F4A39B"/>
<path d="M250.69 172.52L238.81 182.6L245.11 186.5L252.93 183.12L250.69 172.52Z" fill="#F4A39B"/>
<path d="M245.77 122.83L231.82 134.67L239.22 139.25L248.4 135.28L245.77 122.83Z" fill="#F4A39B"/>
<path opacity="0.1" d="M290.88 114.19C290.88 114.19 305.65 185.85 300.9 198.26C296.15 210.67 263.22 205.85 263.22 205.85L290.88 114.19Z" fill="#282323"/>
<path d="M276.653 97.9938L248.016 101.409C241.314 102.208 236.529 108.288 237.328 114.99L246.925 195.469C247.724 202.171 253.805 206.956 260.506 206.157L289.143 202.742C295.845 201.943 300.629 195.862 299.83 189.161L290.234 108.681C289.435 101.98 283.354 97.1947 276.653 97.9938Z" fill="#B2B2B2"/>
<path d="M275.497 99.7027L249.531 102.799C242.829 103.598 238.045 109.678 238.844 116.38L248.071 193.762C248.87 200.463 254.95 205.248 261.652 204.449L287.618 201.353C294.319 200.553 299.104 194.473 298.305 187.772L289.078 110.39C288.279 103.688 282.198 98.9036 275.497 99.7027Z" fill="#192441"/>
<path d="M265.75 201.19L282.84 199.15" stroke="#192441" stroke-width="1.42" stroke-miterlimit="10" stroke-linecap="round"/>
<path d="M248.72 186.07C249.1 189.28 246.81 192.19 243.61 192.57C240.41 192.95 237.49 190.66 237.11 187.46C236.89 185.59 237.57 183.83 238.81 182.6C239.7 181.72 240.88 181.12 242.22 180.96C245.43 180.58 248.34 182.87 248.72 186.07Z" fill="#F4A39B"/>
<path d="M241.18 179.48C245.201 179.48 248.46 176.221 248.46 172.2C248.46 168.179 245.201 164.92 241.18 164.92C237.159 164.92 233.9 168.179 233.9 172.2C233.9 176.221 237.159 179.48 241.18 179.48Z" fill="#F4A39B"/>
<path d="M238.56 163.6C242.94 163.6 246.49 160.05 246.49 155.67C246.49 151.29 242.94 147.74 238.56 147.74C234.18 147.74 230.63 151.29 230.63 155.67C230.63 160.05 234.18 163.6 238.56 163.6Z" fill="#F4A39B"/>
<path d="M243.46 138.75C243.91 142.52 241.22 145.93 237.45 146.38C233.68 146.83 230.27 144.14 229.82 140.37C229.56 138.18 230.36 136.11 231.82 134.67C232.87 133.64 234.25 132.93 235.83 132.74C239.6 132.29 243.01 134.98 243.46 138.75Z" fill="#F4A39B"/>
<path d="M266.91 147.79C265.31 148.02 264.2 149.5 264.43 151.1C264.66 152.7 266.14 153.81 267.74 153.58C269.34 153.35 270.45 151.87 270.22 150.27C269.99 148.67 268.51 147.56 266.91 147.79ZM267.55 152.3C266.66 152.43 265.83 151.8 265.7 150.91C265.57 150.02 266.2 149.19 267.09 149.06C267.98 148.93 268.81 149.56 268.94 150.45C269.07 151.34 268.44 152.17 267.55 152.3Z" fill="white"/>
<path d="M273.06 146.91C271.46 147.14 270.35 148.62 270.58 150.22L271.11 153.91C271.16 154.26 271.49 154.51 271.84 154.46C272.19 154.41 272.44 154.08 272.39 153.73L272.21 152.44C272.72 152.69 273.31 152.79 273.9 152.7C275.5 152.47 276.61 150.99 276.38 149.39C276.15 147.79 274.67 146.68 273.07 146.91H273.06ZM273.7 151.42C272.95 151.53 272.23 151.11 271.95 150.41C271.9 150.29 271.87 150.16 271.85 150.03C271.72 149.14 272.35 148.31 273.24 148.18C274.13 148.05 274.96 148.68 275.09 149.57C275.22 150.46 274.59 151.29 273.7 151.42Z" fill="white"/>
<path d="M279.32 146.02C277.72 146.25 276.61 147.73 276.84 149.33L277.37 153.02C277.42 153.37 277.75 153.62 278.1 153.57C278.45 153.52 278.7 153.19 278.65 152.84L278.47 151.55C278.98 151.8 279.57 151.9 280.16 151.81C281.76 151.58 282.87 150.1 282.64 148.5C282.41 146.9 280.93 145.79 279.33 146.02H279.32ZM279.96 150.53C279.21 150.64 278.49 150.22 278.21 149.52C278.16 149.4 278.13 149.27 278.11 149.14C277.98 148.25 278.61 147.42 279.5 147.29C280.39 147.16 281.22 147.79 281.35 148.68C281.48 149.57 280.85 150.4 279.96 150.53Z" fill="white"/>
<path d="M286.25 145.68C286.2 145.33 285.87 145.08 285.52 145.13C283.92 145.36 282.81 146.84 283.04 148.44L283.36 150.7C283.41 151.05 283.74 151.3 284.09 151.25C284.44 151.2 284.69 150.87 284.64 150.52L284.32 148.26C284.19 147.37 284.82 146.54 285.71 146.41C286.06 146.36 286.31 146.03 286.26 145.68H286.25Z" fill="white"/>
<path d="M287.41 150.78C287.835 150.78 288.18 150.435 288.18 150.01C288.18 149.585 287.835 149.24 287.41 149.24C286.985 149.24 286.64 149.585 286.64 150.01C286.64 150.435 286.985 150.78 287.41 150.78Z" fill="#ED6A4C"/>
<path d="M259.44 147.48C259.58 147.89 259.57 148.35 259.37 148.77C259.12 149.3 258.63 149.67 258.04 149.76C258.04 149.76 258.04 149.76 258.03 149.76C258.64 150.29 259.04 151.02 259.16 151.83C259.42 153.67 258.14 155.39 256.29 155.65C255.02 155.83 253.81 155.28 253.1 154.31L253.54 157.38C253.56 157.55 253.56 157.72 253.54 157.89C254.5 158.28 255.57 158.44 256.67 158.28C259.96 157.81 262.26 154.75 261.79 151.45C261.56 149.84 260.71 148.42 259.44 147.47V147.48Z" fill="#34B9CA"/>
<path d="M255.34 148.96C255.99 148.87 256.65 148.96 257.24 149.24C257.91 149.55 258.7 149.26 259 148.6C259.31 147.93 259.02 147.14 258.36 146.84C257.3 146.35 256.13 146.18 254.97 146.34C251.78 146.8 249.52 149.68 249.81 152.86L249.85 153.17L250.52 157.83C250.62 158.56 251.3 159.06 252.02 158.96C252.65 158.87 253.12 158.35 253.16 157.73C253.16 157.64 253.16 157.55 253.15 157.46L252.48 152.8C252.22 150.96 253.5 149.24 255.35 148.98L255.34 148.96Z" fill="#34B9CA"/>
<path d="M255.82 154.49C257.024 154.49 258 153.514 258 152.31C258 151.106 257.024 150.13 255.82 150.13C254.616 150.13 253.64 151.106 253.64 152.31C253.64 153.514 254.616 154.49 255.82 154.49Z" fill="#ED6A4C"/>
</g>
<path d="M136.71 35.3501C136.71 23.7901 127.27 14.3501 115.71 14.3501C104.15 14.3501 94.71 23.7701 94.7 35.3401C94.68 46.9101 104.15 56.3801 115.72 56.3601C127.29 56.3401 136.72 46.9101 136.71 35.3501Z" fill="black"/>
<path d="M136.71 35.3501C136.71 46.9101 127.29 56.3501 115.72 56.3601C104.15 56.3801 94.68 46.9001 94.7 35.3401C94.72 23.7701 104.16 14.3401 115.71 14.3501C127.28 14.3501 136.71 23.7901 136.71 35.3501ZM121.71 53.4701C128.91 51.2701 135.7 43.6301 134.75 33.4701C133.87 24.1301 126.14 16.6001 116.44 16.2201C106.46 15.8301 97.78 23.2701 96.68 33.2401C95.68 42.2901 101.21 50.0501 108.06 52.8301C108.06 52.6801 108.08 52.5401 108.09 52.3901C108.16 51.1101 108.19 49.8201 108.3 48.5401C108.43 46.9301 108.02 45.6001 106.55 44.7201C105.8 44.2701 105.47 43.5601 105.48 42.6701C105.51 40.3801 105.48 38.0901 105.53 35.8001C105.56 34.5801 105.63 33.3501 105.8 32.1401C106.31 28.6601 107.32 25.3201 108.82 22.1401C109.1 21.5501 109.54 21.0301 109.97 20.5301C110.17 20.3101 110.54 20.2401 110.83 20.1001C110.91 20.4001 111.06 20.6901 111.06 20.9901C111.1 28.7501 111.1 36.5001 111.16 44.2601C111.18 47.4901 111.31 50.7301 111.4 53.9801C113.63 54.5001 115.82 54.6501 118.04 54.3101C118.06 54.2301 118.07 54.1701 118.08 54.1101C118.28 50.2001 118.48 46.2901 118.69 42.3801C118.7 42.1101 118.58 42.0601 118.37 41.9601C117.63 41.6101 116.86 41.2801 116.2 40.8001C115.44 40.2401 114.76 39.5501 114.72 38.5001C114.7 38.0301 114.63 37.5501 114.65 37.0801C114.71 35.4901 114.76 33.8901 114.9 32.3001C115.11 29.9001 115.37 27.5101 115.65 25.1201C115.76 24.1201 115.8 24.1201 116.83 24.2101C116.86 24.2101 116.88 24.2401 116.96 24.2901V37.0401H118.16V24.2301H119.44V37.0501H120.63V24.2301H121.97V37.0401H123.15V24.2301H124.04C124.1 24.6601 124.16 25.0901 124.21 25.5101C124.47 27.9901 124.77 30.4701 124.95 32.9601C125.08 34.7701 125.08 36.5901 125.08 38.4001C125.08 38.8201 124.93 39.2901 124.7 39.6401C123.95 40.7501 122.91 41.5301 121.62 41.9001C121.16 42.0301 121.08 42.2401 121.11 42.6701C121.28 45.5001 121.41 48.3301 121.56 51.1701C121.6 51.9301 121.65 52.6901 121.7 53.4701H121.71Z" fill="white"/>
<path d="M121.71 53.4702C121.66 52.7002 121.61 51.9302 121.57 51.1702C121.42 48.3402 121.28 45.5002 121.12 42.6702C121.09 42.2402 121.17 42.0302 121.63 41.9002C122.92 41.5202 123.96 40.7502 124.71 39.6402C124.94 39.2902 125.09 38.8202 125.09 38.4002C125.09 36.5902 125.09 34.7702 124.96 32.9602C124.78 30.4702 124.47 27.9902 124.22 25.5102C124.18 25.0902 124.11 24.6602 124.05 24.2302H123.16V37.0402H121.98V24.2302H120.64V37.0502H119.45V24.2302H118.17V37.0402H116.97V24.2902C116.89 24.2402 116.87 24.2102 116.84 24.2102C115.81 24.1202 115.77 24.1202 115.66 25.1202C115.39 27.5102 115.12 29.9002 114.91 32.3002C114.77 33.8902 114.72 35.4802 114.66 37.0802C114.64 37.5502 114.7 38.0202 114.73 38.5002C114.78 39.5502 115.45 40.2502 116.21 40.8002C116.87 41.2802 117.64 41.6102 118.38 41.9602C118.59 42.0602 118.72 42.1202 118.7 42.3802C118.49 46.2902 118.29 50.2002 118.09 54.1102C118.09 54.1702 118.07 54.2202 118.05 54.3102C115.83 54.6502 113.64 54.4902 111.41 53.9802C111.33 50.7302 111.2 47.4902 111.17 44.2602C111.11 36.5002 111.11 28.7502 111.07 20.9902C111.07 20.6902 110.92 20.4002 110.84 20.1002C110.55 20.2402 110.18 20.3102 109.98 20.5302C109.54 21.0202 109.11 21.5502 108.83 22.1402C107.33 25.3202 106.32 28.6602 105.81 32.1402C105.63 33.3502 105.56 34.5802 105.54 35.8002C105.49 38.0902 105.52 40.3802 105.49 42.6702C105.48 43.5702 105.8 44.2702 106.56 44.7202C108.03 45.6002 108.44 46.9302 108.31 48.5402C108.21 49.8202 108.17 51.1102 108.1 52.3902C108.1 52.5302 108.08 52.6802 108.07 52.8302C101.21 50.0502 95.69 42.2902 96.69 33.2402C97.79 23.2702 106.47 15.8302 116.45 16.2202C126.15 16.6002 133.88 24.1302 134.76 33.4702C135.72 43.6302 128.92 51.2702 121.72 53.4702H121.71Z" fill="#192441"/>
</g>
<defs>
<clipPath id="clip0_220_1324">
<rect width="373.51" height="268.42" fill="white"/>
</clipPath>
</defs>
</svg>
