<svg width="374" height="269" viewBox="0 0 374 269" fill="none" xmlns="http://www.w3.org/2000/svg">
<mask id="mask0_220_1184" style="mask-type:luminance" maskUnits="userSpaceOnUse" x="40" y="29" width="294" height="210">
<path d="M332.92 39.0199C331.5 33.3899 326.35 29.5599 320.61 29.4999C318.34 29.4699 316.08 29.4999 313.81 29.4999H54.17C53.45 29.4999 52.73 29.4799 52.02 29.5299C45.38 29.9699 40.3 35.5699 40.21 42.1599C40.17 45.0799 40.21 48.0099 40.21 50.9299V219.59C40.21 222.95 39.77 226.92 40.81 230.16C42.51 235.43 47.45 238.87 52.93 238.93C53.65 238.93 54.36 238.93 55.08 238.93H320.69C327.64 238.82 333.22 233.26 333.32 226.29C333.33 225.49 333.32 224.69 333.32 223.89V43.6699C333.32 42.0999 333.32 40.5699 332.93 39.0199H332.92Z" fill="white"/>
</mask>
<g mask="url(#mask0_220_1184)">
<path opacity="0.1" d="M301.79 175.89H246.3L245.48 169.91C245.46 169.78 245.42 169.65 245.37 169.53C245.88 160.34 247.95 152.81 248.32 147.45C249.17 144.55 248.62 142.88 247.83 141.92L248.48 142.02C245.22 139.14 243.6 119.64 243.47 117.96C243.45 117.7 243.41 117.42 243.36 117.13C243.07 115.29 242.18 110.9 240.05 109.15L231.07 109.79C231.07 109.79 227.61 111.44 225.05 119.03C224.42 119.83 223.97 120.8 223.83 121.89C223.41 125.3 225.57 126.61 225.57 126.61C225.55 126.48 225.54 126.34 225.54 126.21C225.84 130.12 226.82 134.95 228.61 135.14C228.61 135.14 229.36 135.17 230.45 135.1C230.47 136.31 230.36 137.89 229.91 139.48C229.72 139.51 229.52 139.55 229.32 139.59V139.58C229.2 139.6 229.08 139.62 228.96 139.66C228.95 139.66 228.94 139.66 228.93 139.66C228.83 139.68 228.74 139.71 228.64 139.74C228.09 139.88 227.48 140.12 226.97 140.29C226.97 140.29 221.19 141.87 212.81 155.63H211.57C211.41 155.56 211.25 155.49 211.09 155.41C210.96 155.34 210.8 155.28 210.63 155.21L210.69 153.83L210.86 149.93L210.94 148.06H211.2L211.03 146.8H205.16L204.92 148.06H205.18L205.3 149.93L205.54 153.83L205.59 154.6C205.17 154.66 204.83 154.78 204.65 154.95C204.49 155.1 204.42 155.34 204.44 155.63H201.63L201.71 153.83L201.88 149.93L201.96 148.06H202.22L202.05 146.8H196.18L195.94 148.06H196.2L196.31 149.78C195.72 149.92 195.19 150.08 194.82 150.27C194.28 150.54 193.69 150.76 193.17 150.92C188.22 151.64 184.39 151.84 181.86 152.07C182.04 151.55 182.01 151.1 181.76 150.87C181.02 150.17 177.9 150.45 176.08 151.03C167.23 138.91 161.05 135.05 161.05 135.05C161.05 135.05 160.96 135 160.72 134.91C164.8 131.98 159.23 131.87 160.43 122.04C161.02 117.25 159.52 109.6 149.97 110.82C140.42 112.04 137.41 121.43 139.34 125.6C141.27 129.77 136.57 130.78 135.09 135.27C133.82 139.13 133.38 143.91 131.33 146.06C125.65 152.01 134.41 160.71 141.95 161.62C141.97 162.38 141.95 163.17 141.88 164C141.86 164.28 141.81 164.6 141.74 164.95C141.21 167.66 139.45 172.32 138.32 175.88H106.26C104.42 175.88 102.92 177.38 102.92 179.22V256.96C102.92 258.8 104.42 260.3 106.26 260.3H301.77C303.61 260.3 305.11 258.8 305.11 256.96V179.22C305.11 177.38 303.61 175.88 301.77 175.88L301.79 175.89Z" fill="#192441"/>
<path opacity="0.1" d="M512.9 175.89H457.41L456.59 169.91C456.57 169.78 456.53 169.65 456.48 169.53C456.99 160.34 459.06 152.81 459.43 147.45C460.28 144.55 459.73 142.88 458.94 141.92L459.59 142.02C456.33 139.14 454.71 119.64 454.58 117.96C454.56 117.7 454.52 117.42 454.47 117.13C454.18 115.29 453.29 110.9 451.16 109.15L442.18 109.79C442.18 109.79 438.72 111.44 436.16 119.03C435.53 119.83 435.08 120.8 434.94 121.89C434.52 125.3 436.68 126.61 436.68 126.61C436.66 126.48 436.65 126.34 436.65 126.21C436.95 130.12 437.93 134.95 439.72 135.14C439.72 135.14 440.47 135.17 441.56 135.1C441.58 136.31 441.47 137.89 441.02 139.48C440.83 139.51 440.63 139.55 440.43 139.59V139.58C440.31 139.6 440.19 139.62 440.07 139.66C440.06 139.66 440.05 139.66 440.04 139.66C439.94 139.68 439.85 139.71 439.75 139.74C439.2 139.88 438.59 140.12 438.08 140.29C438.08 140.29 432.3 141.87 423.92 155.63H422.68C422.52 155.56 422.36 155.49 422.2 155.41C422.07 155.34 421.91 155.28 421.74 155.21L421.8 153.83L421.97 149.93L422.05 148.06H422.31L422.14 146.8H416.27L416.03 148.06H416.29L416.41 149.93L416.65 153.83L416.7 154.6C416.28 154.66 415.94 154.78 415.76 154.95C415.6 155.1 415.53 155.34 415.55 155.63H412.74L412.82 153.83L412.99 149.93L413.07 148.06H413.33L413.16 146.8H407.29L407.05 148.06H407.31L407.42 149.78C406.83 149.92 406.3 150.08 405.93 150.27C405.39 150.54 404.8 150.76 404.28 150.92C399.33 151.64 395.5 151.84 392.97 152.07C393.15 151.55 393.12 151.1 392.87 150.87C392.13 150.17 389.01 150.45 387.19 151.03C378.34 138.91 372.16 135.05 372.16 135.05C372.16 135.05 372.07 135 371.83 134.91C375.91 131.98 370.34 131.87 371.54 122.04C372.13 117.25 370.63 109.6 361.08 110.82C351.53 112.04 348.52 121.43 350.45 125.6C352.38 129.77 347.68 130.78 346.2 135.27C344.93 139.13 344.49 143.91 342.44 146.06C336.76 152.01 345.52 160.71 353.06 161.62C353.08 162.38 353.06 163.17 352.99 164C352.97 164.28 352.92 164.6 352.85 164.95C352.32 167.66 350.56 172.32 349.43 175.88H317.37C315.53 175.88 314.03 177.38 314.03 179.22V256.96C314.03 258.8 315.53 260.3 317.37 260.3H512.88C514.72 260.3 516.22 258.8 516.22 256.96V179.22C516.22 177.38 514.72 175.88 512.88 175.88L512.9 175.89Z" fill="#192441"/>
<path opacity="0.5" d="M332.92 39.0199C331.5 33.3899 326.35 29.5599 320.61 29.4999C318.34 29.4699 316.08 29.4999 313.81 29.4999H54.17C53.45 29.4999 52.73 29.4799 52.02 29.5299C45.38 29.9699 40.3 35.5699 40.21 42.1599C40.17 45.0799 40.21 48.0099 40.21 50.9299V219.59C40.21 222.95 39.77 226.92 40.81 230.16C42.51 235.43 47.45 238.87 52.93 238.93C53.65 238.93 54.36 238.93 55.08 238.93H320.69C327.64 238.82 333.22 233.26 333.32 226.29C333.33 225.49 333.32 224.69 333.32 223.89V43.6699C333.32 42.0999 333.32 40.5699 332.93 39.0199H332.92Z" fill="#34B9CA"/>
<path d="M140.33 86.3198C140.33 86.3198 140.82 84.0198 138.74 81.8398C136.66 79.6598 132.97 80.9398 131.57 82.5398C130.17 84.1398 129.12 86.5498 130.52 88.7298C131.92 90.9098 135.43 90.5998 135.43 90.5998L140.34 86.3198H140.33Z" fill="black"/>
<path d="M151.28 85.4199C151.28 85.4199 150.35 83.8599 151.83 82.2299C153.31 80.5999 157.72 81.6499 157.52 84.7999C157.32 87.9499 155.18 87.9199 155.18 87.9199L151.29 85.4299L151.28 85.4199Z" fill="black"/>
<path d="M155.56 101.91C155.56 101.91 163.22 105.29 162.92 112.95C162.62 120.61 157.05 121.03 157.05 121.03L145.71 114.45L148.24 101.91H155.56Z" fill="black"/>
<path d="M154.96 95.0498C154.96 95.0498 158.94 91.9298 156.95 87.9198C154.96 83.9098 149.68 84.4598 149.68 84.4598C149.68 84.4598 149.19 82.1098 145.21 82.6098C141.23 83.1098 135.66 83.5998 133.57 90.8698C131.48 98.1298 123.72 99.2298 121.33 105.3C118.94 111.37 118.35 122.11 131.78 124.4C145.21 126.69 148.24 110.37 148.24 110.37L154.96 95.0498Z" fill="black"/>
<path d="M152.94 116.23C152.29 116.1 152 116.07 152 116.07C152 116.07 151.47 112.2 151.35 109.03C151.23 105.86 141.69 104.1 141.69 104.1C141.69 104.1 141.83 113.38 140.41 116.13C140.41 116.13 140.31 116.17 140.15 116.24C142.15 121.75 149.83 120.65 152.94 116.23Z" fill="#F4A39B"/>
<path d="M157.11 117.24C157.11 117.24 154.27 116.5 152.94 116.23C149.84 120.65 142.15 121.76 140.15 116.24C138.43 116.98 128.65 121.4 127.47 127.01C126.18 133.16 128.7 137.96 128.7 137.96L171.67 137.9C171.67 137.9 173.09 117.92 157.11 117.24Z" fill="#ED6A4C"/>
<path opacity="0.1" d="M151.57 112.2C151.48 111.18 151.39 110.07 151.36 109.04C151.24 105.87 141.7 104.11 141.7 104.11C141.7 104.11 141.71 104.99 141.7 106.28C142.89 110.11 147.56 111.58 151.58 112.21L151.57 112.2Z" fill="#282323"/>
<path d="M151.04 87.9199C151.04 87.9199 158.63 92.7299 158.48 100.64C158.34 108.55 154.32 110.45 150.94 110.37C147.56 110.3 141.98 108.06 141.69 104.1C141.69 104.1 138.12 103.11 138.55 100.02C138.98 96.9299 141.81 98.8399 141.81 98.8399C141.81 98.8399 141.11 95.4599 143.63 93.6699C146.15 91.8799 151.18 91.5099 151.04 87.9199Z" fill="#F4A39B"/>
<path d="M147.97 98.1898C147.82 98.1898 147.65 98.1898 147.53 98.2698C147.41 98.3598 147.36 98.4998 147.33 98.6398C147.29 98.8298 147.29 99.0598 147.45 99.1798C147.54 99.2398 147.66 99.2598 147.77 99.2598C147.92 99.2598 148.07 99.2598 148.2 99.1898C148.35 99.0998 148.43 98.9298 148.49 98.7698C148.55 98.5798 148.58 98.3398 148.41 98.2298C148.36 98.1898 148.29 98.1798 148.23 98.1698C148.11 98.1498 147.98 98.1498 147.85 98.1698" fill="#1D1D1B"/>
<path d="M147.95 97.9699C147.77 97.9699 147.58 97.9699 147.42 98.0699C147.26 98.1699 147.17 98.3299 147.12 98.4899C147.03 98.7699 147.02 99.1498 147.29 99.3398C147.45 99.4598 147.64 99.4699 147.83 99.4799C148.02 99.4899 148.21 99.4498 148.36 99.3398C148.49 99.2398 148.59 99.1099 148.64 98.9599C148.69 98.8099 148.74 98.6599 148.74 98.4899C148.74 98.2899 148.64 98.0999 148.45 98.0099C148.26 97.9199 148.01 97.9098 147.81 97.9498C147.69 97.9698 147.58 98.0599 147.6 98.1899C147.61 98.2999 147.72 98.4099 147.85 98.3899C147.92 98.3799 147.99 98.3799 148.06 98.3699C148.08 98.3699 148.1 98.3699 148.12 98.3699C148.15 98.3699 148.19 98.3799 148.22 98.3899C148.28 98.3999 148.18 98.3699 148.24 98.3899C148.25 98.3899 148.26 98.4099 148.27 98.4099C148.24 98.3699 148.29 98.4299 148.27 98.4099L148.29 98.4299V98.4099C148.29 98.4099 148.29 98.4299 148.29 98.4399V98.4699C148.29 98.4399 148.29 98.4299 148.29 98.4599C148.29 98.4599 148.29 98.5299 148.29 98.5499V98.5198V98.5399C148.29 98.5499 148.29 98.5699 148.29 98.5799C148.29 98.6299 148.27 98.6899 148.25 98.7399C148.24 98.7699 148.27 98.6899 148.25 98.7399C148.25 98.7499 148.25 98.7598 148.24 98.7698C148.23 98.7998 148.22 98.8199 148.21 98.8499C148.2 98.8699 148.19 98.9099 148.17 98.9199C148.18 98.8999 148.2 98.8899 148.17 98.9199C148.16 98.9299 148.15 98.9499 148.13 98.9599C148.13 98.9599 148.11 98.9799 148.1 98.9899C148.11 98.9799 148.14 98.9599 148.1 98.9899C148.09 98.9899 148.07 99.0098 148.06 99.0198C148.05 99.0198 148.03 99.0299 148.02 99.0399C147.97 99.0599 148.01 99.0399 148.02 99.0399C147.99 99.0399 147.95 99.0499 147.91 99.0499C147.88 99.0499 147.85 99.0499 147.82 99.0499C147.82 99.0499 147.75 99.0499 147.8 99.0499C147.79 99.0499 147.78 99.0499 147.76 99.0499C147.73 99.0499 147.7 99.0499 147.67 99.0499C147.66 99.0499 147.65 99.0499 147.64 99.0499C147.63 99.0499 147.62 99.0499 147.61 99.0499C147.64 99.0499 147.64 99.0499 147.63 99.0499C147.63 99.0499 147.6 99.0499 147.59 99.0299C147.59 99.0499 147.62 99.0499 147.59 99.0299H147.58L147.56 99.0099C147.56 99.0099 147.53 98.9699 147.55 98.9999C147.57 99.0199 147.55 98.9999 147.55 98.9899C147.55 98.9899 147.55 98.9699 147.54 98.9599C147.54 98.9599 147.54 98.9399 147.54 98.9299C147.54 98.9599 147.54 98.9698 147.54 98.9498C147.54 98.9298 147.54 98.8998 147.54 98.8798C147.54 98.8598 147.54 98.8499 147.54 98.8299C147.54 98.8099 147.54 98.7998 147.54 98.8398C147.54 98.8198 147.54 98.7799 147.54 98.7599C147.54 98.7299 147.55 98.6999 147.56 98.6699C147.56 98.6399 147.57 98.6198 147.58 98.5898C147.56 98.6298 147.59 98.5398 147.58 98.5898C147.58 98.5798 147.59 98.5599 147.6 98.5499C147.6 98.5499 147.61 98.5298 147.62 98.5198C147.64 98.4798 147.59 98.5499 147.62 98.5099C147.62 98.4999 147.64 98.4899 147.65 98.4799C147.61 98.4999 147.68 98.4499 147.65 98.4799C147.65 98.4799 147.7 98.4499 147.67 98.4699C147.64 98.4799 147.7 98.4599 147.71 98.4599C147.72 98.4599 147.74 98.4499 147.74 98.4599C147.71 98.4599 147.71 98.4599 147.74 98.4599H147.76C147.83 98.4499 147.91 98.4499 147.98 98.4599C148.1 98.4599 148.2 98.3299 148.19 98.2199C148.17 98.0899 148.07 98.0298 147.94 98.0198L147.95 97.9699Z" fill="#1D1D1B"/>
<path d="M155.22 97.88C155 97.85 154.77 98 154.72 98.2C154.7 98.27 154.71 98.34 154.72 98.41C154.72 98.48 154.74 98.56 154.77 98.63C154.81 98.71 154.9 98.78 154.99 98.81C155.18 98.88 155.42 98.81 155.57 98.67C155.72 98.53 155.78 98.32 155.76 98.12C155.76 98.06 155.74 98 155.71 97.95C155.64 97.82 155.47 97.75 155.32 97.76C155.17 97.77 155.02 97.86 154.92 97.97" fill="#1D1D1B"/>
<path d="M155.27 97.67C154.93 97.63 154.6 97.83 154.51 98.15C154.49 98.24 154.49 98.33 154.49 98.42C154.49 98.51 154.51 98.59 154.54 98.67C154.6 98.83 154.74 98.96 154.91 99.02C155.08 99.08 155.27 99.08 155.44 99.02C155.61 98.96 155.75 98.84 155.85 98.69C156.03 98.42 156.06 97.99 155.82 97.75C155.69 97.61 155.47 97.54 155.28 97.56C155.07 97.58 154.88 97.69 154.74 97.85C154.66 97.94 154.67 98.09 154.77 98.16C154.87 98.23 155.01 98.23 155.09 98.13C155.1 98.12 155.11 98.11 155.12 98.09C155.14 98.07 155.17 98.05 155.19 98.04C155.19 98.04 155.21 98.03 155.22 98.02C155.18 98.03 155.27 97.99 155.22 98.02C155.24 98.02 155.28 97.99 155.3 97.99H155.27C155.27 97.99 155.29 97.99 155.3 97.99C155.31 97.99 155.32 97.99 155.33 97.99C155.29 97.99 155.38 97.99 155.33 97.99C155.34 97.99 155.36 97.99 155.37 97.99C155.38 97.99 155.39 97.99 155.4 97.99C155.36 97.97 155.45 97.99 155.4 97.99C155.4 97.99 155.42 97.99 155.43 98C155.43 98 155.45 98 155.46 98.01H155.44C155.44 98.01 155.47 98.01 155.48 98.02C155.5 98.04 155.48 98.02 155.48 98.01C155.48 98.01 155.5 98.03 155.5 98.04C155.5 98.05 155.53 98.07 155.5 98.04C155.5 98.04 155.51 98.07 155.52 98.08C155.52 98.09 155.54 98.13 155.52 98.08C155.53 98.11 155.53 98.14 155.53 98.17C155.53 98.19 155.53 98.22 155.53 98.24V98.21C155.53 98.21 155.53 98.23 155.53 98.24C155.53 98.25 155.53 98.26 155.53 98.27C155.53 98.3 155.52 98.32 155.51 98.35C155.51 98.36 155.49 98.39 155.49 98.4C155.48 98.42 155.47 98.44 155.46 98.46C155.43 98.51 155.49 98.43 155.46 98.46C155.46 98.46 155.45 98.48 155.44 98.48C155.44 98.49 155.42 98.5 155.41 98.51C155.38 98.54 155.39 98.51 155.41 98.51C155.41 98.51 155.39 98.53 155.38 98.53C155.36 98.54 155.35 98.55 155.33 98.56C155.3 98.56 155.3 98.58 155.33 98.56C155.33 98.56 155.31 98.57 155.3 98.57C155.28 98.58 155.25 98.59 155.22 98.6C155.17 98.61 155.26 98.6 155.22 98.6C155.21 98.6 155.19 98.6 155.18 98.6C155.17 98.6 155.16 98.6 155.15 98.6C155.14 98.6 155.13 98.6 155.12 98.6C155.15 98.6 155.16 98.6 155.14 98.6C155.12 98.6 155.09 98.6 155.07 98.59C155.02 98.58 155.11 98.61 155.07 98.59C155.07 98.59 155.05 98.59 155.04 98.58C155.04 98.58 155 98.55 155.02 98.58C155.04 98.61 155.01 98.58 155.01 98.57C155.01 98.57 154.99 98.56 154.99 98.55C154.96 98.52 155.02 98.58 154.99 98.55C154.99 98.55 154.97 98.53 154.97 98.52C154.97 98.54 154.98 98.57 154.97 98.52C154.97 98.51 154.95 98.49 154.95 98.47C154.95 98.44 154.95 98.41 154.94 98.38C154.93 98.35 154.93 98.3 154.94 98.27C154.94 98.25 154.94 98.23 154.94 98.22C154.94 98.22 154.96 98.19 154.96 98.18L154.97 98.16C154.95 98.19 154.95 98.19 154.97 98.17C154.97 98.17 154.97 98.16 154.98 98.15C154.98 98.15 155 98.13 155 98.12C154.96 98.15 155.03 98.09 155 98.12C155.01 98.12 155.07 98.08 155.07 98.07C155.07 98.07 155.02 98.09 155.06 98.07C155.07 98.07 155.09 98.06 155.1 98.06H155.11C155.11 98.06 155.13 98.06 155.09 98.06C155.1 98.06 155.12 98.06 155.13 98.06C155.13 98.06 155.15 98.06 155.16 98.06C155.19 98.06 155.18 98.06 155.14 98.06C155.14 98.06 155.16 98.06 155.17 98.06C155.29 98.08 155.42 98 155.44 97.88C155.46 97.77 155.38 97.64 155.26 97.63L155.27 97.67Z" fill="#1D1D1B"/>
<path d="M151.08 97.38C151.17 98.48 151.51 99.55 152.08 100.51C152.36 100.98 152.75 101.37 153.03 101.83C153.16 102.04 153.25 102.35 153.08 102.57C152.91 102.79 152.54 102.77 152.28 102.77C151.98 102.77 152.02 103.2 152.32 103.2C152.85 103.2 153.46 103.09 153.61 102.51C153.76 101.93 153.35 101.47 153.01 101.04C152.16 99.97 151.66 98.68 151.55 97.33C151.53 97.05 151.07 97.09 151.09 97.37L151.08 97.38Z" fill="#1D1D1B"/>
<path d="M149.58 105.05C149.63 105.28 149.81 105.48 149.98 105.65C150.15 105.8 150.34 105.93 150.55 106.03C151.01 106.25 151.52 106.34 152.03 106.39C152.15 106.4 152.27 106.34 152.3 106.21C152.32 106.1 152.24 105.97 152.12 105.96C151.67 105.92 151.22 105.85 150.81 105.66C150.48 105.51 150.09 105.25 150.01 104.89C149.98 104.78 149.82 104.73 149.72 104.76C149.59 104.81 149.56 104.92 149.58 105.04V105.05Z" fill="#1D1D1B"/>
<path d="M153.94 97.05C154.13 96.83 154.36 96.69 154.66 96.62C154.64 96.62 154.67 96.62 154.68 96.62C154.7 96.62 154.71 96.62 154.73 96.62C154.77 96.62 154.81 96.61 154.85 96.61C154.89 96.61 154.93 96.61 154.97 96.61C154.99 96.61 155.01 96.61 155.03 96.61C155.07 96.61 155 96.61 155.05 96.61C155.21 96.62 155.34 96.65 155.48 96.71C155.75 96.83 155.95 96.43 155.68 96.32C154.98 96.02 154.09 96.21 153.6 96.79C153.41 97.01 153.76 97.29 153.95 97.07L153.94 97.05Z" fill="#1D1D1B"/>
<path d="M148.75 96.51C147.88 96.35 146.9 96.46 146.29 97.13C146.1 97.34 146.45 97.62 146.64 97.41C147.14 96.86 147.96 96.81 148.66 96.94C148.95 96.99 149.04 96.56 148.75 96.51Z" fill="#1D1D1B"/>
<path d="M153.08 94.4199C152.95 94.6599 153.08 94.9599 153.36 95.0299C153.61 95.0899 153.79 94.9099 154.01 94.8299C154.21 94.7499 154.43 94.7199 154.64 94.7399C154.89 94.7699 155.11 94.8799 155.36 94.9099C155.45 94.9199 155.57 94.8799 155.61 94.7899C155.71 94.5299 155.5 94.3799 155.27 94.3099C155.05 94.2399 154.83 94.1899 154.6 94.1599C154.15 94.1099 153.69 94.1399 153.25 94.2599C153.13 94.2899 153.07 94.4399 153.11 94.5399C153.15 94.6599 153.28 94.6999 153.4 94.6699C153.7 94.5899 154.03 94.5499 154.34 94.5699C154.5 94.5699 154.66 94.5999 154.81 94.6399C154.89 94.6599 154.96 94.6799 155.04 94.6999C155.07 94.7099 155.11 94.7199 155.14 94.7299C155.24 94.7699 155.17 94.7699 155.17 94.6899L155.19 94.5799V94.5999C155.26 94.5599 155.35 94.5199 155.43 94.4799C155.23 94.4599 155.05 94.3699 154.85 94.3299C154.65 94.2899 154.44 94.2799 154.24 94.3099C154.04 94.3399 153.84 94.3999 153.66 94.4899C153.61 94.5099 153.57 94.5399 153.53 94.5599C153.52 94.5599 153.46 94.5899 153.45 94.5999C153.47 94.5699 153.45 94.6599 153.48 94.5999C153.62 94.3499 153.2 94.1599 153.07 94.4099L153.08 94.4199Z" fill="#1D1D1B"/>
<path d="M145.51 95.1699C145.98 94.8699 146.49 94.6299 147.04 94.4699C147.28 94.3999 147.53 94.3299 147.78 94.3099C147.93 94.2999 148.28 94.2799 148.36 94.4399C148.36 94.4499 148.4 94.4399 148.34 94.4599C148.28 94.4799 148.2 94.4599 148.14 94.4499C148.01 94.4299 147.89 94.3999 147.76 94.3799C147.5 94.3499 147.24 94.3399 146.98 94.3799C146.72 94.4199 146.46 94.4599 146.21 94.5399C146.09 94.5799 145.97 94.6299 145.85 94.6799C145.78 94.7099 145.72 94.7499 145.65 94.7799C145.62 94.7999 145.59 94.8199 145.55 94.8299C145.45 94.8699 145.45 94.9599 145.55 95.0899C145.79 94.9299 145.53 94.5699 145.29 94.7299C145.06 94.8799 145.15 95.2299 145.42 95.2899C145.55 95.3099 145.67 95.2699 145.78 95.2099C145.92 95.1399 146.05 95.0599 146.19 94.9999C146.73 94.7799 147.33 94.7199 147.9 94.8299C148.18 94.8799 148.47 94.9499 148.7 94.7399C148.93 94.5299 148.87 94.2599 148.66 94.0799C148.25 93.7299 147.63 93.8599 147.15 93.9799C146.48 94.1499 145.84 94.4299 145.26 94.7999C145.01 94.9599 145.28 95.3099 145.52 95.1599L145.51 95.1699Z" fill="#1D1D1B"/>
<path d="M148.32 94.2699C148.12 94.2999 147.92 94.31 147.72 94.3H147.78C147.71 94.3 147.65 94.3 147.58 94.29C147.52 94.29 147.46 94.29 147.41 94.33C147.36 94.36 147.32 94.42 147.32 94.47C147.3 94.58 147.37 94.71 147.5 94.72C147.79 94.75 148.08 94.75 148.36 94.71C148.48 94.69 148.59 94.6 148.57 94.47C148.56 94.36 148.45 94.2499 148.32 94.2699Z" fill="#1D1D1B"/>
<path d="M128.5 124.62C128.5 124.62 125.05 129.88 127.1 155.52L129.02 174.56H171.7C171.7 174.56 171.76 141.89 171.67 137.9C171.58 133.91 128.5 124.62 128.5 124.62Z" fill="#ED6A4C"/>
<path d="M133.72 119.73C133.72 119.73 130.49 158.31 134.85 174.56H166.07C166.07 174.56 163.63 120.2 162.06 118.22C162.06 118.22 160.35 117.53 158.73 117.38L159 134.92L135.81 135.47L136.37 118.12C136.37 118.12 134.53 119.17 133.72 119.73Z" fill="#192441"/>
<path opacity="0.1" d="M138.51 142.99C138.51 142.99 137.62 153.33 139.21 155.11C140.8 156.89 155.47 156.35 156.85 155.17C158.71 153.58 157.5 142.99 157.5 142.99H138.51Z" fill="#34B9CA"/>
<path d="M210.31 130.56H171.61C168.606 130.56 166.17 132.995 166.17 136V156.6C166.17 159.604 168.606 162.04 171.61 162.04H210.31C213.314 162.04 215.75 159.604 215.75 156.6V136C215.75 132.995 213.314 130.56 210.31 130.56Z" fill="#192441"/>
<path d="M68.4001 172.22C77.4101 172.22 84.7201 164.91 84.7201 155.9H52.0901C52.0901 164.91 59.4001 172.22 68.4101 172.22H68.4001Z" fill="#34B9CA"/>
<path d="M63.03 154.04C63.03 154.04 58.97 147.95 57.17 148.37C55.37 148.79 60.35 151.51 62.15 153.77L63.03 154.05V154.04Z" fill="#D6DFEC"/>
<path d="M83.63 155.9H53.17C54.01 155.16 55.84 153.98 58.84 154.17C58.84 154.17 61.93 153.85 63.59 152.6C65.25 151.35 70.23 150.85 72.95 152.97C75.67 155.09 78.72 154.54 80.38 154.82C81.79 155.05 83.09 155.25 83.63 155.9Z" fill="white"/>
<path d="M227.48 168.17H31.57C27.7537 168.17 24.66 171.264 24.66 175.08V232.01C24.66 235.826 27.7537 238.92 31.57 238.92H227.48C231.296 238.92 234.39 235.826 234.39 232.01V175.08C234.39 171.264 231.296 168.17 227.48 168.17Z" fill="#192441"/>
<path d="M181.2 168.17L186.87 150.7H199.09L200.73 168.17H181.2Z" fill="#192441"/>
<path opacity="0.5" d="M183.49 155.59L178.7 168.17L193.07 168.73L189.37 154.64L183.49 155.59Z" fill="#192441"/>
<path d="M261.99 134.97C261.99 134.97 256.07 130.96 252.69 126.28L262.29 125.67L264.98 133.05L261.99 134.97Z" fill="#F4A39B"/>
<path d="M255.82 135.18L262.56 132.17C264.07 131.58 264.16 130.48 263.77 129.61L257.37 116.58C256.99 115.72 256.01 115.32 255.19 115.68L248.6 118.24C247.78 118.61 247.28 120.05 247.66 120.91L253.63 134.27C254.01 135.13 254.99 135.53 255.81 135.17L255.82 135.18Z" fill="#DADADA"/>
<path d="M262.977 131.583L256.075 134.669C255.299 135.016 254.397 134.664 254.054 133.897L247.939 120.222C247.592 119.446 247.945 118.543 248.712 118.2L255.75 115.053C256.453 114.739 257.272 115.052 257.586 115.755L263.762 129.567C264.109 130.343 263.757 131.246 262.99 131.588L262.977 131.583Z" fill="#9D9D9C"/>
<path d="M256.043 134.377L262.78 131.365C263.476 131.053 263.788 130.237 263.477 129.541L257.464 116.094C257.153 115.399 256.337 115.087 255.641 115.398L248.904 118.41C248.208 118.721 247.896 119.537 248.207 120.233L254.22 133.68C254.531 134.376 255.347 134.688 256.043 134.377Z" fill="white"/>
<mask id="mask1_220_1184" style="mask-type:luminance" maskUnits="userSpaceOnUse" x="248" y="115" width="16" height="20">
<path d="M255.637 115.373L248.9 118.385C248.204 118.696 247.892 119.513 248.204 120.208L254.216 133.655C254.527 134.351 255.343 134.663 256.039 134.352L262.776 131.34C263.472 131.029 263.784 130.212 263.473 129.517L257.46 116.069C257.149 115.374 256.333 115.062 255.637 115.373Z" fill="white"/>
</mask>
<g mask="url(#mask1_220_1184)">
<mask id="mask2_220_1184" style="mask-type:luminance" maskUnits="userSpaceOnUse" x="246" y="113" width="20" height="24">
<path d="M265.481 131.476L257.534 113.701L246.424 118.669L254.371 136.443L265.481 131.476Z" fill="white"/>
</mask>
<g mask="url(#mask2_220_1184)">
<path d="M265.948 131.791L257.646 113.223L245.952 118.451L254.254 137.02L265.948 131.791Z" fill="#192441"/>
<path d="M250.55 137.33C249.43 134.83 250.55 131.9 253.05 130.78C255.55 129.66 258.48 130.78 259.6 133.28C260.72 135.78 259.6 138.71 257.1 139.83C254.6 140.95 251.67 139.83 250.55 137.33ZM257.61 134.17C256.99 132.77 255.34 132.15 253.94 132.77C252.54 133.39 251.92 135.04 252.54 136.44C253.16 137.84 254.81 138.46 256.21 137.84C257.61 137.22 258.23 135.57 257.61 134.17Z" fill="#34B9CA"/>
<path d="M265.16 125.47C265.81 125.68 266.17 126.38 265.95 127.03C265.73 127.68 265.04 128.04 264.39 127.82C263.01 127.37 261.51 127.92 260.74 129.15C260.61 129.36 260.5 129.6 260.42 129.84C260.21 130.49 259.51 130.85 258.86 130.63C258.21 130.41 257.85 129.72 258.07 129.07C258.21 128.64 258.4 128.22 258.64 127.84C260.01 125.64 262.69 124.66 265.16 125.46V125.47Z" fill="#ED6A4C"/>
<path d="M261.55 131.15C261.27 130.53 261.55 129.79 262.18 129.51C262.81 129.23 263.54 129.51 263.82 130.14C264.41 131.47 265.82 132.21 267.25 131.95C267.5 131.9 267.74 131.83 267.98 131.72C268.6 131.44 269.34 131.72 269.62 132.35C269.9 132.98 269.62 133.71 268.99 133.99C268.58 134.18 268.14 134.31 267.7 134.39C265.15 134.85 262.63 133.52 261.57 131.15H261.55Z" fill="#ED6A4C"/>
<path d="M252.53 125.2C253.33 125.33 253.88 126.09 253.75 126.89C253.62 127.69 252.86 128.24 252.06 128.11C250.35 127.83 248.68 128.74 248.01 130.33C247.89 130.61 247.81 130.9 247.76 131.2C247.63 132 246.87 132.55 246.07 132.42C245.27 132.29 244.72 131.53 244.85 130.73C244.94 130.2 245.09 129.67 245.3 129.18C246.51 126.34 249.49 124.7 252.54 125.2H252.53Z" fill="#ED6A4C"/>
<path d="M256.05 128.5C256.878 128.5 257.55 127.828 257.55 127C257.55 126.171 256.878 125.5 256.05 125.5C255.222 125.5 254.55 126.171 254.55 127C254.55 127.828 255.222 128.5 256.05 128.5Z" fill="#34B9CA"/>
<path d="M253.58 118.82C253.54 118.19 254.01 117.65 254.64 117.61C255.27 117.57 255.81 118.04 255.85 118.67C255.94 120 256.92 121.09 258.24 121.32C258.47 121.36 258.7 121.37 258.94 121.36C259.57 121.32 260.11 121.79 260.15 122.42C260.19 123.05 259.72 123.59 259.09 123.63C258.67 123.66 258.25 123.63 257.85 123.57C255.5 123.16 253.75 121.21 253.58 118.83V118.82Z" fill="#ED6A4C"/>
<path d="M257.88 122.56C257.84 121.93 258.31 121.39 258.94 121.35L265.67 120.89C266.3 120.85 266.84 121.32 266.88 121.95C266.92 122.58 266.45 123.12 265.82 123.16L259.09 123.62C258.46 123.66 257.92 123.19 257.88 122.56Z" fill="#ED6A4C"/>
<path d="M259.29 119.44C260.555 119.44 261.58 118.415 261.58 117.15C261.58 115.885 260.555 114.86 259.29 114.86C258.025 114.86 257 115.885 257 117.15C257 118.415 258.025 119.44 259.29 119.44Z" fill="#34B9CA"/>
<path d="M255.86 115.21C255.91 115.89 255.39 116.48 254.71 116.52C254.03 116.56 253.44 116.05 253.4 115.37C253.3 113.93 252.24 112.75 250.82 112.5C250.57 112.46 250.32 112.44 250.07 112.46C249.39 112.51 248.8 111.99 248.76 111.31C248.72 110.63 249.23 110.04 249.91 110C250.36 109.97 250.81 110 251.26 110.07C253.8 110.51 255.7 112.62 255.88 115.2L255.86 115.21Z" fill="#ED6A4C"/>
<path d="M244.24 121.37C243.29 119.25 244.24 116.76 246.36 115.81C248.48 114.86 250.97 115.81 251.92 117.93C252.87 120.05 251.92 122.54 249.8 123.49C247.68 124.44 245.19 123.49 244.24 121.37ZM250.23 118.69C249.7 117.5 248.3 116.97 247.12 117.5C245.94 118.03 245.4 119.43 245.93 120.61C246.46 121.79 247.86 122.33 249.04 121.8C250.22 121.27 250.76 119.87 250.23 118.69Z" fill="#34B9CA"/>
</g>
</g>
<path d="M250.027 119.135L249.333 119.446C249.091 119.554 248.983 119.838 249.091 120.08L249.401 120.774C249.509 121.016 249.793 121.124 250.035 121.016L250.729 120.706C250.971 120.597 251.079 120.314 250.971 120.072L250.661 119.378C250.553 119.136 250.269 119.027 250.027 119.135Z" fill="white"/>
<path d="M252.034 118.233L251.341 118.544C251.099 118.652 250.99 118.936 251.098 119.178L251.409 119.872C251.517 120.114 251.801 120.222 252.043 120.114L252.737 119.804C252.979 119.695 253.087 119.411 252.979 119.169L252.669 118.476C252.56 118.234 252.276 118.125 252.034 118.233Z" fill="white"/>
<path d="M254.091 117.317L253.397 117.627C253.155 117.735 253.046 118.019 253.154 118.261L253.465 118.955C253.573 119.197 253.857 119.305 254.099 119.197L254.793 118.887C255.035 118.779 255.143 118.495 255.035 118.253L254.725 117.559C254.616 117.317 254.333 117.209 254.091 117.317Z" fill="white"/>
<path d="M256.136 116.4L255.443 116.71C255.201 116.819 255.092 117.102 255.2 117.344L255.511 118.038C255.619 118.28 255.903 118.389 256.145 118.281L256.838 117.97C257.08 117.862 257.189 117.578 257.081 117.336L256.771 116.642C256.662 116.4 256.378 116.292 256.136 116.4Z" fill="white"/>
<path d="M250.01 122.16C249.9 121.92 250.01 121.64 250.25 121.53L250.94 121.22C251.18 121.11 251.46 121.22 251.57 121.46L251.88 122.15C251.99 122.39 251.88 122.67 251.64 122.78L250.95 123.09C250.71 123.2 250.43 123.09 250.32 122.85" fill="white"/>
<path d="M252.968 120.304L252.275 120.614C252.033 120.722 251.924 121.006 252.032 121.248L252.343 121.942C252.451 122.184 252.735 122.292 252.977 122.184L253.67 121.874C253.912 121.766 254.021 121.482 253.913 121.24L253.603 120.546C253.494 120.304 253.21 120.195 252.968 120.304Z" fill="white"/>
<path d="M255.014 119.387L254.321 119.697C254.079 119.805 253.97 120.089 254.078 120.331L254.388 121.025C254.497 121.267 254.781 121.376 255.023 121.267L255.716 120.957C255.958 120.849 256.067 120.565 255.959 120.323L255.648 119.629C255.54 119.387 255.256 119.279 255.014 119.387Z" fill="white"/>
<path d="M257.064 118.469L256.371 118.78C256.129 118.888 256.02 119.172 256.128 119.414L256.439 120.108C256.547 120.35 256.831 120.458 257.073 120.35L257.766 120.04C258.008 119.931 258.117 119.648 258.009 119.406L257.698 118.712C257.59 118.47 257.306 118.361 257.064 118.469Z" fill="white"/>
<path d="M250.94 124.24C250.83 124 250.94 123.72 251.18 123.61L251.87 123.3C252.11 123.19 252.39 123.3 252.5 123.54L252.81 124.23C252.92 124.47 252.81 124.75 252.57 124.86L251.88 125.17C251.64 125.28 251.36 125.17 251.25 124.93" fill="white"/>
<path d="M253.892 122.374L253.199 122.684C252.957 122.792 252.848 123.076 252.956 123.318L253.267 124.012C253.375 124.254 253.659 124.362 253.901 124.254L254.594 123.944C254.836 123.836 254.945 123.552 254.837 123.31L254.526 122.616C254.418 122.374 254.134 122.266 253.892 122.374Z" fill="white"/>
<path d="M255.952 121.466L255.259 121.776C255.017 121.885 254.908 122.169 255.016 122.411L255.326 123.104C255.435 123.346 255.719 123.455 255.961 123.347L256.654 123.036C256.896 122.928 257.005 122.644 256.897 122.402L256.586 121.709C256.478 121.467 256.194 121.358 255.952 121.466Z" fill="white"/>
<path d="M268.2 133.16C268.2 133.16 267.65 131.08 266.18 127.92C264.71 124.76 261.89 122.23 261.26 122.93C260.63 123.63 262.38 125.81 262.51 127.7C262.64 129.59 261.98 134.97 261.98 134.97L265.84 137.54L268.2 133.15V133.16Z" fill="#F4A39B"/>
<path d="M288.84 149.36C285.37 152.97 281.35 156.9 279.85 157.35C275.33 158.72 263.5 136.49 263.5 136.49L268.77 132.04L278.83 142.91C282.45 139.18 284.4 133.94 287.47 129.81" fill="#192441"/>
<path d="M280.05 81.8099C279.92 81.5499 279.86 81.2999 279.84 81.0399C281 80.7499 281.77 80.6099 281.77 80.6099C281.77 80.6099 283.33 89.6299 284.72 91.1899L274.31 97.9599C274.31 97.9599 273.63 96.6799 272.24 94.1899C277.09 91.7199 280.05 87.0599 280.05 81.8099Z" fill="#F4A39B"/>
<path d="M279.84 81.0398C279.86 81.2998 279.92 81.5498 280.05 81.8098C280.05 87.0598 277.09 91.7198 272.24 94.1898C271.51 92.8798 270.59 91.2498 269.45 89.2798C266.88 84.8198 275.77 82.0498 279.84 81.0398Z" fill="#F4A39B"/>
<path opacity="0.1" d="M279.84 81.0398C279.86 81.2998 279.92 81.5498 280.05 81.8098C280.05 87.0598 277.09 91.7198 272.24 94.1898C271.51 92.8798 270.59 91.2498 269.45 89.2798C266.88 84.8198 275.77 82.0498 279.84 81.0398Z" fill="#282323"/>
<path d="M264.42 66.1999C264.42 66.1999 259.91 72.2699 259.91 80.5999C259.91 88.9299 263.16 93.6599 268.92 93.5199C274.68 93.3799 279.9 85.5699 279.51 79.8299C278.43 63.7799 264.41 66.2099 264.41 66.2099L264.42 66.1999Z" fill="#F4A39B"/>
<path d="M261.77 71.21C261.77 71.21 261.08 55.53 278.66 63.04C290.22 67.97 282.79 85.57 282.79 85.57C282.79 85.57 278.63 87.75 278.17 83.08C277.71 78.41 278.06 72.24 274.36 70.92C270.67 69.6 261.77 71.22 261.77 71.22V71.21Z" fill="#1D1D1B"/>
<path d="M310.55 232.81L314.87 238.61L308.35 244.25L303.82 235.11L310.55 232.81Z" fill="#F4A39B"/>
<path d="M301.19 157.23C301.19 157.23 304.74 159.89 302.52 169.87C300.3 179.85 295.42 198.7 295.42 198.7L314.05 233.97L304.73 241.51L282.3 203.92C281.3 202.24 280.77 200.33 280.77 198.38V185.39C280.77 185.39 278.11 191.16 277.89 197.15C277.67 203.14 277.89 249.27 277.89 249.27C277.89 249.27 275.01 251.71 267.69 248.16L262.15 198.03C262.15 198.03 258.38 173.25 267.92 158.58C277.46 143.91 301.19 157.22 301.19 157.22V157.23Z" fill="#414A5E"/>
<path d="M272.26 170.02C272.26 170.02 271.91 176.43 273.94 179.06C275.97 181.69 279.48 182.21 279.62 181.35C279.76 180.49 277.73 178.24 277.73 175.88C277.73 173.52 279.62 167.5 277.31 166.65C275 165.8 272.26 170.03 272.26 170.03V170.02Z" fill="#F4A39B"/>
<path d="M269.32 135.7H270.84C271.68 141.21 272.22 146.37 272.03 150.09C272.03 150.25 272.01 150.4 272 150.55H266.76C267.45 146.13 268.42 140.9 269.31 135.7H269.32Z" fill="#ED6A4C"/>
<path d="M272 150.55C271.75 155.16 271.24 159.39 270.92 162.66C268.76 162.46 267.18 162.19 266.53 161.9C265.37 161.38 265.79 156.78 266.77 150.55H272.01H272Z" fill="#ED6A4C"/>
<path d="M270.09 131.07C270.36 132.63 270.61 134.17 270.84 135.69H269.32C269.59 134.14 269.85 132.59 270.09 131.07Z" fill="#ED6A4C"/>
<path d="M278.82 106.56C278.92 106.7 278.99 106.82 279.09 106.97C283.42 113.13 283.15 147.11 282.39 163.1C281.94 163.1 281.5 163.1 281.06 163.1C281.84 148.44 282.27 114.57 278.33 106.34C278.51 106.4 278.66 106.49 278.82 106.56Z" fill="#ED6A4C"/>
<path opacity="0.2" d="M278.82 106.56C278.92 106.7 278.99 106.82 279.09 106.97C283.42 113.13 283.15 147.11 282.39 163.1C281.94 163.1 281.5 163.1 281.06 163.1C281.84 148.44 282.27 114.57 278.33 106.34C278.51 106.4 278.66 106.49 278.82 106.56Z" fill="#192441"/>
<path d="M275.06 96.0798L275.14 96.0498C275.14 96.0498 274.19 96.5298 274.43 98.4498C274.61 99.8698 275.45 102.07 277.84 105.46C282.31 111.82 281.88 147.85 281.06 163.1C280.85 166.99 280.62 169.55 280.44 169.9C279.64 171.4 274.25 170.33 271.97 169.51C271.67 169.4 271.41 169.3 271.24 169.2C270.46 168.78 270.57 166.32 270.93 162.66C271.26 159.28 271.8 154.89 272.04 150.09C272.28 145.34 271.34 138.27 270.1 131.08C268.73 123.12 266.98 115.02 266.04 109.77C264.31 100.16 274.28 96.3698 275.07 96.0898L275.06 96.0798Z" fill="#192441"/>
<path d="M279.9 108.57C279.65 107.93 279.38 107.38 279.1 106.97C279 106.83 278.92 106.7 278.83 106.56C278.67 106.48 278.52 106.4 278.34 106.34C278.34 106.34 270.02 100.51 267.45 102C267.45 102 270.74 94.84 280.51 91.75C280.51 91.75 280.72 91.68 281.09 91.6C281.52 91.49 281.91 91.43 282.25 91.41C284.03 91.22 286.92 91.37 289.58 93.55C293.83 97.02 299.98 96.68 300.99 99.48C301.22 100.11 301.71 103.37 302.29 108.06C294.83 107.54 287.37 107.88 279.91 108.58L279.9 108.57Z" fill="#ED6A4C"/>
<path d="M279.9 108.57C287.36 107.86 294.82 107.53 302.28 108.05C302.72 111.64 303.2 116.09 303.65 120.85H282.05C281.59 115.56 280.9 111.17 279.9 108.57Z" fill="#ED6A4C"/>
<path d="M282.76 135.7C290.19 135.7 297.55 135.7 304.77 135.7C305.07 141.15 305.22 146.33 305.08 150.55C297.76 150.55 290.3 150.55 282.78 150.55C282.86 145.82 282.86 140.71 282.77 135.7H282.76Z" fill="#ED6A4C"/>
<path opacity="0.2" d="M269.32 135.7H270.84C271.68 141.21 272.22 146.37 272.03 150.09C272.03 150.25 272.01 150.4 272 150.55H266.76C267.45 146.13 268.42 140.9 269.31 135.7H269.32Z" fill="#F6F6F6"/>
<path opacity="0.2" d="M279.9 108.57C287.36 107.86 294.82 107.53 302.28 108.05C302.72 111.64 303.2 116.09 303.65 120.85H282.05C281.59 115.56 280.9 111.17 279.9 108.57Z" fill="#F6F6F6"/>
<path opacity="0.2" d="M282.76 135.7C290.19 135.7 297.55 135.7 304.77 135.7C305.07 141.15 305.22 146.33 305.08 150.55C297.76 150.55 290.3 150.55 282.78 150.55C282.86 145.82 282.86 140.71 282.77 135.7H282.76Z" fill="#F6F6F6"/>
<path d="M305.08 150.55C304.91 155.72 304.33 159.43 303.1 160.32C300.3 162.34 290.98 163.08 282.4 163.11C282.57 159.62 282.71 155.28 282.78 150.55C290.3 150.55 297.76 150.55 305.08 150.55Z" fill="#ED6A4C"/>
<path d="M282.05 120.84H303.65C304.1 125.64 304.5 130.77 304.77 135.69C297.56 135.69 290.19 135.69 282.76 135.69C282.66 130.46 282.44 125.32 282.05 120.84Z" fill="#ED6A4C"/>
<path d="M313.85 237.12C313.85 237.12 316.84 238.25 316.84 240.3C316.84 242.35 316.11 254.79 311.13 255.81C306.15 256.83 302.94 255.22 303.08 253.91C303.22 252.6 307.91 250.54 308.35 244.25C308.79 237.96 310.54 240.05 313.84 237.12H313.85Z" fill="#1D1D1B"/>
<path d="M270.72 79.8299C270.88 79.8299 271.04 79.8299 271.17 79.9099C271.29 79.9999 271.34 80.1499 271.37 80.2899C271.41 80.4799 271.41 80.7199 271.25 80.8399C271.16 80.9099 271.04 80.9199 270.93 80.9299C270.78 80.9299 270.62 80.9299 270.49 80.8599C270.33 80.7699 270.25 80.5999 270.2 80.4299C270.14 80.2399 270.11 79.9999 270.28 79.8799C270.33 79.8399 270.4 79.8299 270.46 79.8199C270.59 79.7999 270.72 79.7999 270.84 79.8199" fill="#1D1D1B"/>
<path d="M270.74 79.6099C270.93 79.6099 271.11 79.6099 271.27 79.7099C271.43 79.8099 271.52 79.9699 271.57 80.1399C271.66 80.4199 271.67 80.8099 271.4 81.0099C271.24 81.1299 271.05 81.1499 270.85 81.1499C270.65 81.1499 270.46 81.1199 270.31 81.0099C270.18 80.9099 270.08 80.7699 270.02 80.6199C269.96 80.4699 269.91 80.3099 269.92 80.1499C269.92 79.9499 270.02 79.7599 270.21 79.6599C270.4 79.5599 270.66 79.5599 270.86 79.5999C270.98 79.6199 271.09 79.7099 271.07 79.8399C271.06 79.9499 270.95 80.0599 270.82 80.0399C270.75 80.0299 270.68 80.0299 270.61 80.0199C270.59 80.0199 270.57 80.0199 270.55 80.0199C270.52 80.0199 270.48 80.0299 270.45 80.0399C270.39 80.0499 270.49 80.0199 270.43 80.0399C270.4 80.0599 270.42 80.0399 270.43 80.0399C270.42 80.0399 270.41 80.0599 270.4 80.0599C270.38 80.0799 270.43 80.0199 270.4 80.0599L270.38 80.0799V80.0499C270.38 80.0499 270.38 80.0699 270.38 80.0799V80.1099C270.38 80.0799 270.38 80.0699 270.38 80.0999C270.38 80.0999 270.38 80.1699 270.38 80.1899V80.1599V80.1799C270.38 80.1899 270.38 80.2099 270.38 80.2199C270.38 80.2699 270.4 80.3299 270.42 80.3799C270.4 80.3299 270.43 80.4099 270.42 80.3799C270.42 80.3899 270.42 80.3999 270.43 80.4099C270.44 80.4399 270.45 80.4599 270.47 80.4899C270.48 80.5099 270.49 80.5499 270.51 80.5599C270.48 80.5299 270.5 80.5399 270.51 80.5599C270.52 80.5799 270.53 80.5899 270.55 80.6099C270.55 80.6099 270.57 80.6299 270.58 80.6399C270.54 80.6099 270.57 80.6299 270.58 80.6399C270.59 80.6399 270.61 80.6599 270.62 80.6699C270.64 80.6699 270.65 80.6799 270.67 80.6899C270.68 80.6899 270.72 80.7099 270.67 80.6899C270.7 80.6999 270.74 80.6999 270.78 80.6999C270.81 80.6999 270.84 80.6999 270.87 80.6999C270.87 80.6999 270.94 80.6999 270.89 80.6999C270.9 80.6999 270.91 80.6999 270.93 80.6999C270.96 80.6999 270.99 80.6999 271.02 80.6899C271.03 80.6899 271.04 80.6899 271.06 80.6899C271.07 80.6899 271.08 80.6899 271.09 80.6899C271.06 80.6899 271.06 80.6899 271.07 80.6899C271.07 80.6899 271.11 80.6899 271.11 80.6699C271.08 80.6899 271.11 80.6899 271.11 80.6699H271.12L271.14 80.6499C271.14 80.6499 271.18 80.6099 271.15 80.6399C271.13 80.6599 271.15 80.6399 271.15 80.6299C271.15 80.6299 271.15 80.6099 271.16 80.5999C271.16 80.5999 271.16 80.5799 271.16 80.5699C271.16 80.5999 271.16 80.6099 271.16 80.5899C271.16 80.5699 271.16 80.5399 271.16 80.5199C271.16 80.4999 271.16 80.4899 271.16 80.4699C271.16 80.4499 271.16 80.4399 271.16 80.4799C271.16 80.4599 271.16 80.4199 271.16 80.3999C271.16 80.3699 271.15 80.3399 271.14 80.3099C271.14 80.2799 271.13 80.2599 271.12 80.2299C271.11 80.1799 271.14 80.2699 271.12 80.2299C271.12 80.2199 271.11 80.1999 271.1 80.1899C271.1 80.1899 271.09 80.1699 271.08 80.1599C271.06 80.1199 271.11 80.1899 271.08 80.1499C271.08 80.1399 271.06 80.1299 271.05 80.1199C271.02 80.0799 271.09 80.1399 271.05 80.1199C271.05 80.1199 271 80.0899 271.03 80.1099C271.06 80.1199 271 80.0999 270.99 80.0999C270.98 80.0999 270.96 80.0899 270.95 80.0999C270.98 80.0999 270.98 80.0999 270.95 80.0999H270.93C270.85 80.0899 270.78 80.0899 270.7 80.0999C270.58 80.0999 270.47 79.9699 270.49 79.8599C270.51 79.7299 270.61 79.6599 270.74 79.6599V79.6099Z" fill="#1D1D1B"/>
<path d="M263.35 79.5199C263.57 79.4899 263.81 79.6399 263.85 79.8499C263.87 79.9199 263.86 79.9899 263.85 80.0699C263.85 80.1499 263.83 80.2199 263.8 80.2899C263.75 80.3799 263.67 80.4399 263.58 80.4799C263.38 80.5499 263.14 80.4799 262.99 80.3399C262.84 80.1999 262.78 79.9799 262.8 79.7799C262.8 79.7199 262.82 79.6599 262.85 79.6099C262.92 79.4799 263.09 79.4099 263.25 79.4199C263.41 79.4299 263.55 79.5199 263.66 79.6299" fill="#1D1D1B"/>
<path d="M263.3 79.2999C263.65 79.2499 263.98 79.4699 264.07 79.7899C264.09 79.8799 264.09 79.9699 264.09 80.0599C264.09 80.1499 264.07 80.2399 264.04 80.3199C263.98 80.4799 263.83 80.6199 263.66 80.6699C263.49 80.7199 263.3 80.7299 263.12 80.6699C262.94 80.6099 262.8 80.4899 262.7 80.3399C262.51 80.0599 262.49 79.6299 262.73 79.3799C262.87 79.2399 263.08 79.1699 263.28 79.1899C263.5 79.2099 263.69 79.3299 263.83 79.4799C263.91 79.5699 263.9 79.7199 263.8 79.7899C263.7 79.8599 263.56 79.8599 263.47 79.7599C263.46 79.7499 263.45 79.7399 263.43 79.7199C263.41 79.6999 263.38 79.6799 263.36 79.6699C263.36 79.6699 263.34 79.6599 263.33 79.6499C263.28 79.6199 263.37 79.6599 263.33 79.6499C263.31 79.6499 263.27 79.6199 263.25 79.6199H263.28C263.28 79.6199 263.26 79.6199 263.25 79.6199C263.24 79.6199 263.23 79.6199 263.22 79.6199C263.17 79.6199 263.26 79.6199 263.22 79.6199C263.21 79.6199 263.19 79.6199 263.18 79.6199C263.17 79.6199 263.16 79.6199 263.15 79.6199C263.1 79.6199 263.19 79.5999 263.15 79.6199C263.15 79.6199 263.13 79.6199 263.12 79.6299C263.12 79.6299 263.1 79.6299 263.09 79.6399H263.11C263.11 79.6399 263.08 79.6399 263.07 79.6499C263.05 79.6699 263.07 79.6499 263.07 79.6399C263.07 79.6399 263.05 79.6599 263.05 79.6699C263.02 79.6999 263.05 79.6799 263.05 79.6699C263.05 79.6699 263.04 79.6999 263.03 79.7099C263.01 79.7599 263.03 79.7199 263.03 79.7099C263.02 79.7399 263.02 79.7799 263.02 79.7999C263.02 79.8199 263.02 79.8499 263.02 79.8699V79.8399C263.02 79.8399 263.02 79.8599 263.02 79.8699C263.02 79.8799 263.02 79.8899 263.02 79.8999C263.02 79.9299 263.03 79.9499 263.04 79.9799C263.04 79.9899 263.06 80.0199 263.06 80.0299C263.07 80.0499 263.08 80.0699 263.09 80.0899C263.06 80.0599 263.12 80.1399 263.09 80.0899C263.09 80.0899 263.1 80.1099 263.11 80.1199C263.11 80.1299 263.13 80.1399 263.14 80.1499C263.16 80.1499 263.17 80.1799 263.14 80.1499C263.14 80.1499 263.16 80.1699 263.17 80.1699C263.19 80.1799 263.2 80.1899 263.22 80.1999C263.25 80.1999 263.25 80.2199 263.22 80.1999C263.22 80.1999 263.24 80.2099 263.25 80.2099C263.28 80.2199 263.3 80.2299 263.33 80.2399C263.29 80.2399 263.38 80.2499 263.33 80.2399C263.34 80.2399 263.36 80.2399 263.37 80.2399C263.38 80.2399 263.39 80.2399 263.4 80.2399C263.41 80.2399 263.42 80.2399 263.43 80.2399C263.4 80.2399 263.39 80.2399 263.41 80.2399C263.43 80.2399 263.46 80.2399 263.48 80.2299C263.44 80.2499 263.53 80.2199 263.48 80.2299C263.48 80.2299 263.5 80.2299 263.51 80.2199C263.51 80.2199 263.56 80.1899 263.53 80.2199C263.5 80.2499 263.54 80.2199 263.54 80.2099C263.54 80.2099 263.56 80.1999 263.56 80.1899C263.59 80.1599 263.53 80.2199 263.56 80.1799C263.56 80.1799 263.58 80.1599 263.58 80.1499C263.57 80.1999 263.58 80.1699 263.58 80.1499C263.58 80.1399 263.6 80.1199 263.6 80.0999C263.6 80.0699 263.6 80.0399 263.61 80.0099C263.62 79.9799 263.62 79.9299 263.61 79.8999C263.61 79.8799 263.61 79.8599 263.61 79.8499C263.61 79.8499 263.59 79.8199 263.59 79.8099L263.58 79.7899C263.6 79.8199 263.6 79.8199 263.58 79.7999C263.58 79.7999 263.58 79.7899 263.57 79.7799C263.57 79.7799 263.55 79.7599 263.55 79.7499C263.52 79.7099 263.59 79.7799 263.55 79.7499C263.54 79.7499 263.48 79.7099 263.48 79.6999C263.48 79.6999 263.53 79.7199 263.49 79.6999C263.48 79.6999 263.46 79.6899 263.45 79.6799H263.44C263.44 79.6799 263.42 79.6799 263.46 79.6799C263.45 79.6799 263.43 79.6799 263.42 79.6799C263.42 79.6799 263.4 79.6799 263.39 79.6799C263.36 79.6799 263.37 79.6799 263.41 79.6799C263.41 79.6799 263.39 79.6799 263.38 79.6799C263.26 79.6999 263.13 79.6199 263.11 79.4999C263.09 79.3899 263.17 79.2599 263.3 79.2399V79.2999Z" fill="#1D1D1B"/>
<path d="M267.56 79.0099C267.47 80.1299 267.12 81.2099 266.55 82.1899C266.27 82.6699 265.87 83.0599 265.59 83.5299C265.46 83.7499 265.36 84.0599 265.54 84.2799C265.72 84.4999 266.09 84.4799 266.36 84.4799C266.66 84.4799 266.62 84.9199 266.32 84.9199C265.78 84.9199 265.16 84.8099 265.01 84.2199C264.86 83.6299 265.27 83.1599 265.62 82.7299C266.49 81.6399 266.99 80.3299 267.11 78.9599C267.13 78.6799 267.6 78.7099 267.58 78.9999L267.56 79.0099Z" fill="#1D1D1B"/>
<path d="M269.08 86.8099C269.03 87.0499 268.85 87.2499 268.67 87.4199C268.5 87.5799 268.3 87.7099 268.09 87.8099C267.63 88.0399 267.1 88.1299 266.58 88.1799C266.45 88.1899 266.33 88.1299 266.31 87.9999C266.29 87.8899 266.37 87.7499 266.5 87.7399C266.95 87.6999 267.41 87.6299 267.83 87.4399C268.16 87.2899 268.56 87.0199 268.64 86.6599C268.67 86.5399 268.83 86.4899 268.94 86.5299C269.07 86.5799 269.11 86.6999 269.08 86.8099Z" fill="#1D1D1B"/>
<path d="M264.65 78.6698C264.46 78.4498 264.22 78.3098 263.91 78.2398C263.93 78.2398 263.9 78.2398 263.89 78.2398C263.87 78.2398 263.86 78.2398 263.84 78.2398C263.8 78.2398 263.76 78.2298 263.72 78.2298C263.68 78.2298 263.64 78.2298 263.6 78.2298C263.58 78.2298 263.56 78.2298 263.53 78.2298C263.49 78.2298 263.56 78.2298 263.51 78.2298C263.34 78.2398 263.22 78.2698 263.08 78.3298C262.81 78.4498 262.6 78.0498 262.88 77.9298C263.59 77.6198 264.5 77.8198 264.99 78.4098C265.18 78.6298 264.82 78.9198 264.63 78.6898L264.65 78.6698Z" fill="#1D1D1B"/>
<path d="M269.93 78.13C270.81 77.97 271.81 78.08 272.43 78.76C272.63 78.98 272.27 79.26 272.07 79.04C271.56 78.48 270.73 78.43 270.02 78.56C269.72 78.61 269.64 78.18 269.93 78.12V78.13Z" fill="#1D1D1B"/>
<path d="M265.53 75.9999C265.66 76.2499 265.53 76.5499 265.25 76.6199C264.99 76.6799 264.81 76.4999 264.59 76.4099C264.39 76.3299 264.16 76.2999 263.95 76.3199C263.7 76.3499 263.47 76.4599 263.22 76.4899C263.13 76.4999 263 76.4599 262.97 76.3699C262.87 76.1099 263.08 75.9599 263.32 75.8799C263.54 75.8099 263.77 75.7599 264 75.7299C264.46 75.6799 264.92 75.7099 265.37 75.8399C265.49 75.8699 265.55 76.0199 265.51 76.1199C265.46 76.2399 265.33 76.2799 265.21 76.2499C264.9 76.1699 264.57 76.1299 264.25 76.1499C264.09 76.1499 263.93 76.1799 263.77 76.2199C263.69 76.2399 263.61 76.2599 263.54 76.2799C263.5 76.2899 263.47 76.2999 263.43 76.3199C263.33 76.3599 263.4 76.3599 263.4 76.2799L263.38 76.1699V76.1899C263.3 76.1499 263.22 76.1099 263.13 76.0699C263.33 76.0499 263.52 75.9599 263.72 75.9199C263.92 75.8799 264.14 75.8699 264.34 75.8999C264.54 75.9299 264.74 75.9899 264.93 76.0799C264.98 76.0999 265.02 76.1299 265.07 76.1499C265.08 76.1499 265.15 76.1799 265.15 76.1899C265.13 76.1599 265.15 76.2499 265.12 76.1899C264.98 75.9399 265.4 75.7499 265.54 75.9999H265.53Z" fill="#1D1D1B"/>
<path d="M273.22 76.76C272.74 76.45 272.22 76.21 271.67 76.05C271.42 75.98 271.17 75.91 270.91 75.89C270.76 75.88 270.4 75.86 270.32 76.02C270.32 76.03 270.28 76.02 270.34 76.04C270.41 76.06 270.48 76.04 270.54 76.03C270.67 76.01 270.8 75.98 270.93 75.96C271.19 75.93 271.46 75.92 271.73 75.96C272 76 272.26 76.04 272.51 76.13C272.64 76.17 272.76 76.22 272.88 76.28C272.95 76.31 273.02 76.35 273.08 76.38C273.11 76.4 273.15 76.42 273.18 76.44C273.28 76.48 273.28 76.57 273.18 76.7C272.93 76.54 273.2 76.17 273.45 76.34C273.68 76.5 273.6 76.85 273.32 76.91C273.19 76.94 273.07 76.89 272.96 76.83C272.82 76.76 272.69 76.68 272.54 76.62C271.99 76.4 271.38 76.34 270.8 76.45C270.52 76.5 270.22 76.57 269.99 76.36C269.76 76.15 269.82 75.87 270.03 75.68C270.45 75.32 271.08 75.46 271.57 75.58C272.25 75.75 272.9 76.04 273.49 76.42C273.74 76.58 273.47 76.94 273.22 76.78V76.76Z" fill="#1D1D1B"/>
<path d="M270.37 75.85C270.57 75.88 270.78 75.89 270.98 75.88H270.92C270.99 75.88 271.06 75.88 271.12 75.87C271.18 75.87 271.24 75.87 271.3 75.91C271.35 75.94 271.39 76 271.4 76.05C271.42 76.16 271.34 76.29 271.21 76.31C270.92 76.34 270.62 76.34 270.33 76.29C270.21 76.27 270.1 76.17 270.12 76.05C270.13 75.94 270.24 75.83 270.37 75.85Z" fill="#1D1D1B"/>
<path d="M272.28 58.6199C268.5 59.8599 265.48 63.3099 264.22 67.4499L262.32 66.8199C262.32 66.8199 263.69 59.3199 272.28 58.6099V58.6199Z" fill="white"/>
<path d="M276.14 58.74C276.27 58.76 276.39 58.77 276.52 58.78C290.77 60.86 286.73 74.87 286.73 74.87L267.2 68.44C268.5 63.81 271.66 59.91 276.14 58.74Z" fill="white"/>
<path d="M272.28 58.62C273.43 58.52 274.72 58.56 276.14 58.74C271.66 59.91 268.5 63.81 267.2 68.44L264.22 67.46C265.48 63.31 268.5 59.87 272.28 58.63V58.62Z" fill="#EDEDED"/>
<path d="M286.72 74.8698C286.72 74.8698 277.71 68.6598 266.61 65.5798C255.85 62.5998 259.26 67.3298 261.08 69.3698C261.54 69.8798 262.22 70.1398 262.9 70.0298C264.81 69.7298 269.24 69.3598 274.52 71.1198C281.59 73.4798 286.72 74.8598 286.72 74.8598V74.8698Z" fill="#F6F6F6"/>
<path d="M277.84 78.75C277.84 78.75 278.11 77.04 279.22 77.39C280.33 77.74 280.41 80.86 279.22 81.19C278.03 81.52 277.21 81.19 277.21 81.19L277.83 78.75H277.84Z" fill="#F4A39B"/>
<path d="M152.42 149.85C152.42 147.26 150.31 145.16 147.73 145.15C145.15 145.15 143.04 147.26 143.03 149.84C143.03 152.43 145.14 154.54 147.73 154.54C150.32 154.54 152.42 152.43 152.42 149.84V149.85Z" fill="black"/>
<path d="M152.42 149.85C152.42 152.43 150.31 154.54 147.73 154.55C145.14 154.55 143.03 152.44 143.03 149.85C143.03 147.26 145.14 145.16 147.73 145.16C150.32 145.16 152.42 147.27 152.42 149.86V149.85ZM149.07 153.9C150.68 153.41 152.2 151.7 151.98 149.43C151.78 147.34 150.05 145.66 147.89 145.57C145.66 145.48 143.72 147.15 143.47 149.37C143.25 151.39 144.48 153.13 146.01 153.75C146.01 153.72 146.01 153.68 146.01 153.65C146.02 153.36 146.03 153.08 146.06 152.79C146.09 152.43 146 152.13 145.67 151.94C145.5 151.84 145.43 151.68 145.43 151.48C145.43 150.97 145.43 150.46 145.44 149.94C145.44 149.67 145.46 149.39 145.5 149.12C145.61 148.34 145.84 147.6 146.18 146.88C146.24 146.75 146.34 146.63 146.44 146.52C146.48 146.47 146.57 146.45 146.63 146.42C146.65 146.49 146.68 146.55 146.68 146.62C146.68 148.35 146.68 150.09 146.7 151.82C146.7 152.54 146.73 153.27 146.75 153.99C147.25 154.11 147.74 154.14 148.23 154.06C148.23 154.04 148.23 154.03 148.23 154.02C148.28 153.15 148.32 152.27 148.37 151.4C148.37 151.34 148.35 151.33 148.3 151.31C148.13 151.23 147.96 151.16 147.82 151.05C147.65 150.93 147.5 150.77 147.49 150.54C147.49 150.43 147.47 150.33 147.48 150.22C147.49 149.86 147.51 149.51 147.54 149.15C147.59 148.61 147.65 148.08 147.71 147.54C147.74 147.32 147.74 147.32 147.97 147.34C147.97 147.34 147.98 147.34 148 147.36V150.21H148.27V147.35H148.56V150.21H148.83V147.34H149.13V150.2H149.39V147.34H149.59C149.6 147.44 149.62 147.53 149.63 147.63C149.69 148.18 149.75 148.74 149.8 149.29C149.83 149.69 149.83 150.1 149.83 150.51C149.83 150.6 149.8 150.71 149.75 150.79C149.58 151.04 149.35 151.21 149.06 151.3C148.96 151.33 148.94 151.38 148.95 151.47C148.99 152.1 149.02 152.74 149.05 153.37C149.05 153.54 149.07 153.71 149.08 153.88L149.07 153.9Z" fill="white"/>
<path d="M149.06 153.9C149.05 153.73 149.04 153.56 149.03 153.39C149 152.76 148.97 152.12 148.93 151.49C148.93 151.39 148.94 151.35 149.04 151.32C149.33 151.24 149.56 151.06 149.73 150.81C149.78 150.73 149.81 150.63 149.81 150.53C149.81 150.12 149.81 149.72 149.78 149.31C149.74 148.75 149.67 148.2 149.61 147.65C149.61 147.56 149.59 147.46 149.57 147.36H149.37V150.22H149.11V147.36H148.81V150.23H148.54V147.37H148.25V150.23H147.98V147.38C147.98 147.38 147.96 147.36 147.95 147.36C147.72 147.34 147.71 147.34 147.69 147.56C147.63 148.09 147.57 148.63 147.52 149.17C147.49 149.52 147.48 149.88 147.46 150.24C147.46 150.35 147.47 150.45 147.47 150.56C147.48 150.8 147.63 150.95 147.8 151.07C147.95 151.18 148.12 151.25 148.28 151.33C148.33 151.35 148.36 151.36 148.35 151.42C148.3 152.29 148.26 153.17 148.21 154.04C148.21 154.05 148.21 154.07 148.21 154.08C147.71 154.16 147.23 154.12 146.73 154.01C146.71 153.28 146.68 152.56 146.68 151.84C146.67 150.11 146.67 148.37 146.66 146.64C146.66 146.57 146.63 146.51 146.61 146.44C146.54 146.47 146.46 146.49 146.42 146.54C146.32 146.65 146.22 146.77 146.16 146.9C145.83 147.61 145.6 148.36 145.48 149.14C145.44 149.41 145.42 149.69 145.42 149.96C145.41 150.47 145.42 150.98 145.41 151.5C145.41 151.7 145.48 151.86 145.65 151.96C145.98 152.16 146.07 152.45 146.04 152.81C146.02 153.1 146.01 153.38 145.99 153.67C145.99 153.7 145.99 153.73 145.99 153.77C144.46 153.15 143.22 151.41 143.45 149.39C143.7 147.16 145.64 145.5 147.87 145.59C150.04 145.67 151.77 147.36 151.96 149.45C152.17 151.72 150.65 153.43 149.05 153.92L149.06 153.9Z" fill="#192441"/>
</g>
<path d="M102.01 61.78H17.4C10.8223 61.78 5.48999 67.1123 5.48999 73.69V124.25C5.48999 130.828 10.8223 136.16 17.4 136.16H102.01C108.588 136.16 113.92 130.828 113.92 124.25V73.69C113.92 67.1123 108.588 61.78 102.01 61.78Z" fill="#DA6246"/>
<path d="M103.45 92.3799H15.96C14.7229 92.3799 13.72 93.3828 13.72 94.6199C13.72 95.857 14.7229 96.8599 15.96 96.8599H103.45C104.687 96.8599 105.69 95.857 105.69 94.6199C105.69 93.3828 104.687 92.3799 103.45 92.3799Z" fill="white"/>
<path d="M103.45 123.14H15.96C14.7229 123.14 13.72 124.143 13.72 125.38C13.72 126.617 14.7229 127.62 15.96 127.62H103.45C104.687 127.62 105.69 126.617 105.69 125.38C105.69 124.143 104.687 123.14 103.45 123.14Z" fill="white"/>
<path d="M18.99 86.6099L20.41 92.3799H27.45L28.65 86.6099C28.65 86.6099 29.35 84.2599 27.32 84.0599C25.18 83.8499 24.58 81.4499 22.64 82.2999C20.06 83.4299 21.35 84.7799 21.35 84.7799C21.35 84.7799 18.91 84.0799 19 86.6099H18.99Z" fill="#34B9CA"/>
<path d="M31.91 86.6099L33.33 92.3799H40.37L41.57 86.6099C41.57 86.6099 42.27 84.2599 40.24 84.0599C38.1 83.8499 37.5 81.4499 35.56 82.2999C32.98 83.4299 34.27 84.7799 34.27 84.7799C34.27 84.7799 31.83 84.0799 31.92 86.6099H31.91Z" fill="#34B9CA"/>
<path d="M45.17 86.6099L46.59 92.3799H53.63L54.83 86.6099C54.83 86.6099 55.53 84.2599 53.5 84.0599C51.36 83.8499 50.76 81.4499 48.82 82.2999C46.24 83.4299 47.53 84.7799 47.53 84.7799C47.53 84.7799 45.09 84.0799 45.18 86.6099H45.17Z" fill="#34B9CA"/>
<path d="M18.8199 117.37L20.2399 123.14H27.2799L28.4799 117.37C28.4799 117.37 29.1799 115.02 27.1499 114.82C25.0099 114.61 24.4099 112.21 22.4699 113.06C19.8899 114.19 21.1799 115.54 21.1799 115.54C21.1799 115.54 18.7399 114.84 18.8299 117.37H18.8199Z" fill="#34B9CA"/>
<path d="M31.75 117.37L33.17 123.14H40.21L41.41 117.37C41.41 117.37 42.11 115.02 40.08 114.82C37.94 114.61 37.34 112.21 35.4 113.06C32.82 114.19 34.11 115.54 34.11 115.54C34.11 115.54 31.67 114.84 31.76 117.37H31.75Z" fill="#34B9CA"/>
<path d="M45 117.37L46.42 123.14H53.46L54.66 117.37C54.66 117.37 55.36 115.02 53.33 114.82C51.19 114.61 50.59 112.21 48.65 113.06C46.07 114.19 47.36 115.54 47.36 115.54C47.36 115.54 44.92 114.84 45.01 117.37H45Z" fill="#34B9CA"/>
<path d="M60.12 83.4701L63.57 92.3901H95.43L99.59 83.5201H93.44C93.44 83.5201 96.6 74.8301 89.23 74.4701C81.86 74.1101 81.88 68.6501 77.35 71.7301C72.82 74.8101 65.21 75.1701 68.66 79.1801C68.66 79.1801 64.48 81.6601 65.27 83.3601L60.12 83.4701Z" fill="#192441"/>
<path d="M60.12 114.23L63.57 123.15H95.43L99.59 114.28H93.44C93.44 114.28 96.6 105.59 89.23 105.23C81.86 104.87 81.88 99.4101 77.35 102.49C72.83 105.57 65.21 105.93 68.66 109.94C68.66 109.94 64.48 112.42 65.27 114.12L60.12 114.23Z" fill="#192441"/>
<path d="M112.87 155.6L112.74 158.72L112.45 165.23L112.32 168.23H104.06L103.87 165.23L103.46 158.72L103.27 155.6H112.87Z" fill="#34B9CA"/>
<path d="M113.03 153.5H103.24L102.84 155.6H113.31L113.03 153.5Z" fill="#DA6246"/>
<path opacity="0.2" d="M112.74 158.72L112.45 165.23H103.87L103.46 158.72H112.74Z" fill="#192441"/>
<path d="M97.88 155.6L97.74 158.72L97.46 165.23L97.33 168.23H89.07L88.88 165.23L88.47 158.72L88.28 155.6H97.88Z" fill="#34B9CA"/>
<path d="M98.04 153.5H88.25L87.85 155.6H98.31L98.04 153.5Z" fill="#DA6246"/>
<path opacity="0.2" d="M97.74 158.72L97.46 165.23H88.88L88.47 158.72H97.74Z" fill="#192441"/>
<path d="M149.59 205.55C149.59 193.99 140.15 184.55 128.59 184.55C117.03 184.55 107.59 193.97 107.58 205.54C107.56 217.11 117.03 226.58 128.6 226.56C140.17 226.54 149.6 217.11 149.59 205.55Z" fill="black"/>
<path d="M149.59 205.55C149.59 217.11 140.17 226.55 128.6 226.56C117.03 226.58 107.56 217.1 107.58 205.54C107.6 193.97 117.04 184.54 128.59 184.55C140.16 184.55 149.59 193.99 149.59 205.55ZM134.59 223.67C141.79 221.47 148.58 213.83 147.63 203.67C146.75 194.33 139.02 186.8 129.32 186.42C119.34 186.03 110.66 193.47 109.56 203.44C108.56 212.49 114.09 220.25 120.94 223.03C120.94 222.88 120.96 222.74 120.97 222.59C121.04 221.31 121.07 220.02 121.18 218.74C121.31 217.13 120.9 215.8 119.43 214.92C118.68 214.47 118.35 213.76 118.36 212.87C118.39 210.58 118.36 208.29 118.41 206C118.44 204.78 118.51 203.55 118.68 202.34C119.19 198.86 120.2 195.52 121.7 192.34C121.98 191.75 122.42 191.23 122.85 190.73C123.05 190.51 123.42 190.44 123.71 190.3C123.79 190.6 123.94 190.89 123.94 191.19C123.98 198.95 123.98 206.7 124.04 214.46C124.06 217.69 124.19 220.93 124.28 224.18C126.51 224.7 128.7 224.85 130.92 224.51C130.94 224.43 130.95 224.37 130.96 224.31C131.16 220.4 131.36 216.49 131.57 212.58C131.58 212.31 131.46 212.26 131.25 212.16C130.51 211.81 129.74 211.48 129.08 211C128.32 210.44 127.64 209.75 127.6 208.7C127.58 208.23 127.51 207.75 127.53 207.28C127.59 205.69 127.64 204.09 127.78 202.5C127.99 200.1 128.25 197.71 128.53 195.32C128.64 194.32 128.68 194.32 129.71 194.41C129.74 194.41 129.76 194.44 129.84 194.49V207.24H131.04V194.43H132.32V207.25H133.51V194.43H134.85V207.24H136.03V194.43H136.92C136.98 194.86 137.04 195.29 137.09 195.71C137.35 198.19 137.65 200.67 137.83 203.16C137.96 204.97 137.96 206.79 137.96 208.6C137.96 209.02 137.81 209.49 137.58 209.84C136.83 210.95 135.79 211.73 134.5 212.1C134.04 212.23 133.96 212.44 133.99 212.87C134.16 215.7 134.29 218.53 134.44 221.37C134.48 222.13 134.53 222.89 134.58 223.67H134.59Z" fill="white"/>
<path d="M134.59 223.67C134.54 222.9 134.49 222.13 134.45 221.37C134.3 218.54 134.16 215.7 134 212.87C133.97 212.44 134.05 212.23 134.51 212.1C135.8 211.72 136.84 210.95 137.59 209.84C137.82 209.49 137.97 209.02 137.97 208.6C137.97 206.79 137.97 204.97 137.84 203.16C137.66 200.67 137.35 198.19 137.1 195.71C137.06 195.29 136.99 194.86 136.93 194.43H136.04V207.24H134.86V194.43H133.52V207.25H132.33V194.43H131.05V207.24H129.85V194.49C129.77 194.44 129.75 194.41 129.72 194.41C128.69 194.32 128.65 194.32 128.54 195.32C128.27 197.71 128 200.1 127.79 202.5C127.65 204.09 127.6 205.68 127.54 207.28C127.52 207.75 127.58 208.22 127.61 208.7C127.66 209.75 128.33 210.45 129.09 211C129.75 211.48 130.52 211.81 131.26 212.16C131.47 212.26 131.6 212.32 131.58 212.58C131.37 216.49 131.17 220.4 130.97 224.31C130.97 224.37 130.95 224.42 130.93 224.51C128.71 224.85 126.52 224.69 124.29 224.18C124.21 220.93 124.08 217.69 124.05 214.46C123.99 206.7 123.99 198.95 123.95 191.19C123.95 190.89 123.8 190.6 123.72 190.3C123.43 190.44 123.06 190.51 122.86 190.73C122.42 191.22 121.99 191.75 121.71 192.34C120.21 195.52 119.2 198.86 118.69 202.34C118.51 203.55 118.44 204.78 118.42 206C118.37 208.29 118.4 210.58 118.37 212.87C118.36 213.77 118.68 214.47 119.44 214.92C120.91 215.8 121.32 217.13 121.19 218.74C121.09 220.02 121.05 221.31 120.98 222.59C120.98 222.73 120.96 222.88 120.95 223.03C114.09 220.25 108.57 212.49 109.57 203.44C110.67 193.47 119.35 186.03 129.33 186.42C139.03 186.8 146.76 194.33 147.64 203.67C148.6 213.83 141.8 221.47 134.6 223.67H134.59Z" fill="#192441"/>
</svg>
