<svg width="374" height="269" viewBox="0 0 374 269" fill="none" xmlns="http://www.w3.org/2000/svg">
<g clip-path="url(#clip0_220_1601)">
<path opacity="0.5" d="M332.92 39.0199C331.5 33.3899 326.35 29.5599 320.61 29.4999C318.34 29.4699 316.08 29.4999 313.81 29.4999H54.17C53.45 29.4999 52.73 29.4799 52.02 29.5299C45.38 29.9699 40.3 35.5699 40.21 42.1599C40.17 45.0799 40.21 48.0099 40.21 50.9299V219.59C40.21 222.95 39.77 226.92 40.81 230.16C42.51 235.43 47.45 238.87 52.93 238.93C53.65 238.93 54.36 238.93 55.08 238.93H320.69C327.64 238.82 333.22 233.26 333.32 226.29C333.33 225.49 333.32 224.69 333.32 223.89V43.6699C333.32 42.0999 333.32 40.5699 332.93 39.0199H332.92Z" fill="#34B9CA"/>
<path d="M55.18 255.13C71.7983 255.13 85.27 241.658 85.27 225.04C85.27 208.422 71.7983 194.95 55.18 194.95C38.5618 194.95 25.09 208.422 25.09 225.04C25.09 241.658 38.5618 255.13 55.18 255.13Z" fill="white" stroke="#192441" stroke-width="2.83" stroke-miterlimit="10"/>
<path d="M66.71 213.02C66.93 214.21 66.72 215.49 66.04 216.59C65.17 217.98 63.7 218.81 62.1 218.81C62.09 218.81 62.08 218.81 62.07 218.81C63.5 220.52 64.31 222.71 64.31 225.04C64.31 230.28 60.21 234.55 55.17 234.55C51.7 234.55 48.68 232.53 47.13 229.56V238.29C47.13 238.78 47.06 239.25 46.93 239.7C49.35 241.18 52.17 242.03 55.17 242.03C64.17 242.03 71.49 234.41 71.49 225.04C71.49 220.47 69.74 216.17 66.7 213.02H66.71Z" fill="#34B9CA"/>
<path d="M55.18 215.54C56.95 215.54 58.67 216.07 60.15 217.07C61.81 218.2 64.04 217.71 65.12 215.97C66.2 214.24 65.73 211.92 64.07 210.8C61.42 209.01 58.35 208.06 55.18 208.06C46.46 208.06 39.32 215.21 38.88 224.17H38.86V238.29C38.86 240.36 40.47 242.03 42.45 242.03C44.18 242.03 45.63 240.75 45.97 239.06C46.02 238.81 46.05 238.56 46.05 238.29V225.04C46.05 219.8 50.15 215.53 55.19 215.53L55.18 215.54Z" fill="#34B9CA"/>
<path d="M55.18 231.18C58.4385 231.18 61.08 228.431 61.08 225.04C61.08 221.649 58.4385 218.9 55.18 218.9C51.9216 218.9 49.28 221.649 49.28 225.04C49.28 228.431 51.9216 231.18 55.18 231.18Z" fill="#ED6A4C"/>
<path d="M335.08 19.1101H77.73C67.61 19.1101 59.41 27.3101 59.41 37.4301V163.93C59.41 174.05 67.61 182.25 77.73 182.25H90.17C89.89 187.43 89.13 195.26 87.04 201.66C86 204.84 89.29 207.7 92.32 206.29C101.9 201.86 110.16 194.51 118.27 182.25H335.08C345.2 182.25 353.4 174.05 353.4 163.93V37.4301C353.4 27.3101 345.2 19.1101 335.08 19.1101Z" fill="#192441"/>
<path d="M91.72 48.08H88.69L81.84 37.73V48.08H78.82V32.98H81.84L88.69 43.35V32.98H91.72V48.08Z" fill="white"/>
<path d="M105.74 42.9999H96.99C97.06 43.8699 97.36 44.5399 97.9 45.0299C98.43 45.5199 99.09 45.7699 99.87 45.7699C100.99 45.7699 101.79 45.2899 102.27 44.3199H105.53C105.19 45.4699 104.52 46.4199 103.54 47.1599C102.56 47.8999 101.36 48.2699 99.93 48.2699C98.78 48.2699 97.74 48.0099 96.83 47.4999C95.92 46.9899 95.2 46.2699 94.69 45.3299C94.18 44.3899 93.92 43.3099 93.92 42.0899C93.92 40.8699 94.17 39.7599 94.68 38.8299C95.18 37.8899 95.89 37.1699 96.8 36.6699C97.71 36.1699 98.75 35.9099 99.93 35.9099C101.11 35.9099 102.09 36.1499 102.99 36.6499C103.89 37.1399 104.59 37.8399 105.09 38.7299C105.59 39.6299 105.84 40.6599 105.84 41.8299C105.84 42.2599 105.81 42.6499 105.75 42.9999H105.74ZM102.69 40.9699C102.68 40.1899 102.39 39.5699 101.85 39.0999C101.3 38.6299 100.63 38.3999 99.84 38.3999C99.09 38.3999 98.46 38.6299 97.95 39.0799C97.44 39.5299 97.13 40.1599 97.01 40.9699H102.69Z" fill="white"/>
<path d="M124.63 36.1101L121.13 48.0801H117.87L115.69 39.7201L113.51 48.0801H110.23L106.71 36.1101H109.78L111.9 45.2301L114.19 36.1101H117.39L119.64 45.2101L121.76 36.1101H124.66H124.63Z" fill="white"/>
<path d="M134.39 32.99V42.32C134.39 43.34 134.66 44.12 135.19 44.67C135.72 45.21 136.47 45.48 137.44 45.48C138.41 45.48 139.18 45.21 139.71 44.67C140.24 44.13 140.51 43.35 140.51 42.32V32.99H143.56V42.3C143.56 43.58 143.28 44.67 142.73 45.55C142.17 46.44 141.43 47.1 140.5 47.55C139.57 48 138.54 48.22 137.4 48.22C136.26 48.22 135.26 48 134.34 47.55C133.42 47.1 132.7 46.44 132.17 45.55C131.64 44.67 131.37 43.58 131.37 42.3V32.99H134.4H134.39Z" fill="white"/>
<path d="M151.11 36.4599C151.79 36.0899 152.57 35.9099 153.45 35.9099C154.47 35.9099 155.4 36.1599 156.23 36.6699C157.06 37.1799 157.71 37.8899 158.2 38.8199C158.68 39.7499 158.92 40.8199 158.92 42.0499C158.92 43.2799 158.68 44.3599 158.2 45.2999C157.72 46.2399 157.06 46.9699 156.23 47.4899C155.4 48.0099 154.48 48.2699 153.45 48.2699C152.57 48.2699 151.8 48.0899 151.13 47.7299C150.46 47.3699 149.92 46.9199 149.5 46.3699V53.7799H146.48V36.0999H149.5V37.8299C149.89 37.2799 150.42 36.8299 151.11 36.4599ZM155.39 40.1799C155.09 39.6499 154.7 39.2499 154.22 38.9799C153.74 38.7099 153.22 38.5699 152.65 38.5699C152.08 38.5699 151.59 38.7099 151.11 38.9899C150.63 39.2699 150.24 39.6799 149.94 40.2099C149.64 40.7399 149.5 41.3699 149.5 42.0899C149.5 42.8099 149.65 43.4399 149.94 43.9699C150.23 44.4999 150.62 44.9099 151.11 45.1899C151.59 45.4699 152.11 45.6099 152.65 45.6099C153.19 45.6099 153.73 45.4699 154.22 45.1799C154.7 44.8899 155.09 44.4799 155.39 43.9499C155.68 43.4199 155.83 42.7799 155.83 42.0499C155.83 41.3199 155.68 40.7099 155.39 40.1799Z" fill="white"/>
<path d="M161.06 38.8301C161.54 37.8901 162.2 37.1701 163.04 36.6701C163.88 36.1701 164.8 35.9101 165.83 35.9101C166.61 35.9101 167.35 36.0801 168.05 36.4201C168.76 36.7601 169.32 37.2101 169.74 37.7701V32.0901H172.81V48.0801H169.74V46.3101C169.37 46.9001 168.84 47.3801 168.16 47.7401C167.48 48.1001 166.7 48.2801 165.8 48.2801C164.79 48.2801 163.87 48.0201 163.04 47.5001C162.2 46.9801 161.55 46.2501 161.06 45.3101C160.58 44.3701 160.34 43.2801 160.34 42.0601C160.34 40.8401 160.58 39.7801 161.06 38.8401V38.8301ZM169.32 40.2001C169.03 39.6701 168.64 39.2701 168.15 38.9901C167.66 38.7101 167.13 38.5701 166.57 38.5701C166.01 38.5701 165.49 38.7101 165.01 38.9801C164.54 39.2501 164.15 39.6501 163.85 40.1801C163.55 40.7101 163.41 41.3301 163.41 42.0501C163.41 42.7701 163.56 43.4001 163.85 43.9401C164.14 44.4801 164.53 44.8901 165.02 45.1801C165.5 45.4701 166.02 45.6101 166.57 45.6101C167.12 45.6101 167.66 45.4701 168.15 45.1901C168.64 44.9101 169.03 44.5101 169.32 43.9801C169.61 43.4501 169.75 42.8201 169.75 42.0901C169.75 41.3601 169.61 40.7301 169.32 40.2001Z" fill="white"/>
<path d="M175.71 38.8299C176.19 37.8899 176.85 37.1699 177.68 36.6699C178.51 36.1699 179.43 35.9099 180.46 35.9099C181.35 35.9099 182.14 36.0899 182.81 36.4499C183.48 36.8099 184.02 37.2599 184.42 37.8099V36.0999H187.47V48.0699H184.42V46.3199C184.03 46.8799 183.5 47.3499 182.81 47.7099C182.12 48.0799 181.34 48.2599 180.44 48.2599C179.43 48.2599 178.51 47.9999 177.68 47.4799C176.85 46.9599 176.2 46.2299 175.71 45.2899C175.23 44.3499 174.99 43.2599 174.99 42.0399C174.99 40.8199 175.23 39.7599 175.71 38.8199V38.8299ZM183.97 40.1999C183.68 39.6699 183.29 39.2699 182.8 38.9899C182.31 38.7099 181.78 38.5699 181.22 38.5699C180.66 38.5699 180.14 38.7099 179.66 38.9799C179.19 39.2499 178.8 39.6499 178.5 40.1799C178.2 40.7099 178.06 41.3299 178.06 42.0499C178.06 42.7699 178.21 43.3999 178.5 43.9399C178.79 44.4799 179.18 44.8899 179.67 45.1799C180.15 45.4699 180.67 45.6099 181.22 45.6099C181.77 45.6099 182.31 45.4699 182.8 45.1899C183.29 44.9099 183.68 44.5099 183.97 43.9799C184.26 43.4499 184.4 42.8199 184.4 42.0899C184.4 41.3599 184.26 40.7299 183.97 40.1999Z" fill="white"/>
<path d="M193.94 38.5899V44.3799C193.94 44.7799 194.04 45.0699 194.23 45.2499C194.42 45.4299 194.75 45.5199 195.21 45.5199H196.61V48.0699H194.71C192.16 48.0699 190.89 46.8299 190.89 44.3499V38.5799H189.46V36.0899H190.89V33.1299H193.94V36.0899H196.62V38.5799H193.94V38.5899Z" fill="white"/>
<path d="M209.84 42.9999H201.09C201.16 43.8699 201.46 44.5399 202 45.0299C202.53 45.5199 203.19 45.7699 203.97 45.7699C205.09 45.7699 205.89 45.2899 206.37 44.3199H209.63C209.29 45.4699 208.62 46.4199 207.64 47.1599C206.66 47.8999 205.46 48.2699 204.03 48.2699C202.88 48.2699 201.84 48.0099 200.93 47.4999C200.02 46.9899 199.3 46.2699 198.79 45.3299C198.28 44.3899 198.02 43.3099 198.02 42.0899C198.02 40.8699 198.27 39.7599 198.78 38.8299C199.28 37.8899 199.99 37.1699 200.9 36.6699C201.81 36.1699 202.85 35.9099 204.03 35.9099C205.21 35.9099 206.19 36.1499 207.09 36.6499C207.99 37.1399 208.69 37.8399 209.19 38.7299C209.69 39.6299 209.94 40.6599 209.94 41.8299C209.94 42.2599 209.91 42.6499 209.85 42.9999H209.84ZM206.79 40.9699C206.78 40.1899 206.49 39.5699 205.95 39.0999C205.4 38.6299 204.73 38.3999 203.94 38.3999C203.19 38.3999 202.56 38.6299 202.05 39.0799C201.54 39.5299 201.23 40.1599 201.11 40.9699H206.79Z" fill="white"/>
<path d="M214.08 47.7399C213.3 47.3899 212.69 46.9099 212.23 46.2999C211.77 45.6899 211.53 45.0299 211.48 44.2899H214.53C214.59 44.7499 214.81 45.1299 215.21 45.4299C215.61 45.7299 216.1 45.8799 216.69 45.8799C217.28 45.8799 217.72 45.7599 218.04 45.5299C218.36 45.2999 218.53 44.9999 218.53 44.6399C218.53 44.2499 218.33 43.9599 217.94 43.7699C217.54 43.5699 216.91 43.3599 216.05 43.1299C215.16 42.9099 214.43 42.6899 213.86 42.4599C213.29 42.2299 212.8 41.8799 212.39 41.3999C211.98 40.9299 211.77 40.2899 211.77 39.4799C211.77 38.8199 211.96 38.2099 212.34 37.6599C212.72 37.1099 213.27 36.6799 213.98 36.3599C214.69 36.0399 215.53 35.8899 216.5 35.8899C217.93 35.8899 219.06 36.2499 219.91 36.9599C220.76 37.6699 221.23 38.6299 221.31 39.8499H218.42C218.38 39.3699 218.18 38.9999 217.83 38.7099C217.48 38.4299 217.01 38.2899 216.41 38.2899C215.86 38.2899 215.44 38.3899 215.15 38.5899C214.86 38.7899 214.71 39.0699 214.71 39.4299C214.71 39.8299 214.91 40.1399 215.31 40.3499C215.71 40.5599 216.34 40.7699 217.19 40.9899C218.06 41.2099 218.77 41.4299 219.33 41.6599C219.89 41.8899 220.38 42.2499 220.79 42.7299C221.2 43.2099 221.41 43.8499 221.43 44.6399C221.43 45.3299 221.24 45.9499 220.86 46.4999C220.48 47.0499 219.93 47.4799 219.22 47.7899C218.51 48.0999 217.68 48.2599 216.72 48.2599C215.76 48.2599 214.86 48.0799 214.08 47.7299V47.7399Z" fill="white"/>
<path d="M331.79 67.6699H94.28C92.8661 67.6699 91.72 68.8161 91.72 70.2299V70.5999C91.72 72.0138 92.8661 73.1599 94.28 73.1599H331.79C333.204 73.1599 334.35 72.0138 334.35 70.5999V70.2299C334.35 68.8161 333.204 67.6699 331.79 67.6699Z" fill="white"/>
<path d="M331.79 78.4199H94.28C92.8661 78.4199 91.72 79.5661 91.72 80.9799V81.3499C91.72 82.7638 92.8661 83.9099 94.28 83.9099H331.79C333.204 83.9099 334.35 82.7638 334.35 81.3499V80.9799C334.35 79.5661 333.204 78.4199 331.79 78.4199Z" fill="white"/>
<path d="M167.08 89.01H94.28C92.8661 89.01 91.72 90.1562 91.72 91.57V91.94C91.72 93.3539 92.8661 94.5 94.28 94.5H167.08C168.494 94.5 169.64 93.3539 169.64 91.94V91.57C169.64 90.1562 168.494 89.01 167.08 89.01Z" fill="white"/>
<path d="M82.35 73.1601C83.9627 73.1601 85.27 71.8527 85.27 70.2401C85.27 68.6274 83.9627 67.3201 82.35 67.3201C80.7373 67.3201 79.43 68.6274 79.43 70.2401C79.43 71.8527 80.7373 73.1601 82.35 73.1601Z" fill="#ED6A4C"/>
<path d="M331.79 137.67H94.28C92.8661 137.67 91.72 138.816 91.72 140.23V140.6C91.72 142.014 92.8661 143.16 94.28 143.16H331.79C333.204 143.16 334.35 142.014 334.35 140.6V140.23C334.35 138.816 333.204 137.67 331.79 137.67Z" fill="white"/>
<path d="M331.79 148.42H94.28C92.8661 148.42 91.72 149.566 91.72 150.98V151.35C91.72 152.764 92.8661 153.91 94.28 153.91H331.79C333.204 153.91 334.35 152.764 334.35 151.35V150.98C334.35 149.566 333.204 148.42 331.79 148.42Z" fill="white"/>
<path d="M167.08 159.01H94.28C92.8661 159.01 91.72 160.156 91.72 161.57V161.94C91.72 163.354 92.8661 164.5 94.28 164.5H167.08C168.494 164.5 169.64 163.354 169.64 161.94V161.57C169.64 160.156 168.494 159.01 167.08 159.01Z" fill="white"/>
<path d="M82.35 143.16C83.9627 143.16 85.27 141.853 85.27 140.24C85.27 138.627 83.9627 137.32 82.35 137.32C80.7373 137.32 79.43 138.627 79.43 140.24C79.43 141.853 80.7373 143.16 82.35 143.16Z" fill="#ED6A4C"/>
<path d="M331.79 105.67H94.28C92.8661 105.67 91.72 106.816 91.72 108.23V108.6C91.72 110.014 92.8661 111.16 94.28 111.16H331.79C333.204 111.16 334.35 110.014 334.35 108.6V108.23C334.35 106.816 333.204 105.67 331.79 105.67Z" fill="white"/>
<path d="M331.79 116.42H94.28C92.8661 116.42 91.72 117.566 91.72 118.98V119.35C91.72 120.764 92.8661 121.91 94.28 121.91H331.79C333.204 121.91 334.35 120.764 334.35 119.35V118.98C334.35 117.566 333.204 116.42 331.79 116.42Z" fill="white"/>
<path d="M82.35 111.16C83.9627 111.16 85.27 109.853 85.27 108.24C85.27 106.627 83.9627 105.32 82.35 105.32C80.7373 105.32 79.43 106.627 79.43 108.24C79.43 109.853 80.7373 111.16 82.35 111.16Z" fill="#ED6A4C"/>
<path d="M289.795 115.383L243.374 120.919C236.673 121.718 231.888 127.798 232.687 134.5L246.481 250.18C247.28 256.882 253.361 261.666 260.062 260.867L306.483 255.332C313.185 254.533 317.97 248.453 317.17 241.751L303.376 126.071C302.577 119.369 296.497 114.584 289.795 115.383Z" fill="#B2B2B2"/>
<path d="M288.254 117.662L245.398 122.772C238.697 123.571 233.912 129.652 234.711 136.353L248.012 247.903C248.811 254.604 254.892 259.389 261.593 258.59L304.45 253.48C311.151 252.681 315.936 246.6 315.137 239.899L301.835 128.349C301.036 121.648 294.956 116.863 288.254 117.662Z" fill="white"/>
<mask id="mask0_220_1601" style="mask-type:luminance" maskUnits="userSpaceOnUse" x="234" y="117" width="82" height="142">
<path d="M288.141 117.978L245.582 123.052C238.881 123.851 234.096 129.932 234.895 136.633L248.125 247.577C248.924 254.279 255.004 259.064 261.706 258.264L304.264 253.19C310.965 252.391 315.75 246.31 314.951 239.609L301.722 128.665C300.923 121.963 294.842 117.178 288.141 117.978Z" fill="white"/>
</mask>
<g mask="url(#mask0_220_1601)">
<path d="M288.141 117.978L245.582 123.053C238.881 123.852 234.096 129.932 234.895 136.634L248.125 247.578C248.924 254.279 255.004 259.064 261.706 258.265L304.264 253.19C310.965 252.391 315.75 246.31 314.951 239.609L301.722 128.665C300.923 121.964 294.842 117.179 288.141 117.978Z" fill="#F6F6F6"/>
<g filter="url(#filter0_d_220_1601)">
<path d="M310.229 108.531L223.285 118.899L226.681 147.377L313.625 137.01L310.229 108.531Z" fill="white"/>
</g>
<path d="M252.12 132C251.1 132.12 250.38 133.08 250.51 134.14C250.64 135.2 251.56 135.96 252.58 135.84C253.6 135.72 254.32 134.76 254.19 133.7C254.06 132.64 253.14 131.88 252.12 132ZM252.48 134.99C251.91 135.06 251.39 134.63 251.32 134.04C251.25 133.45 251.65 132.91 252.22 132.84C252.79 132.77 253.31 133.2 253.38 133.79C253.45 134.38 253.05 134.92 252.48 134.99Z" fill="#192441"/>
<path d="M256.04 131.53C255.02 131.65 254.3 132.61 254.43 133.67L254.72 136.11C254.75 136.34 254.95 136.51 255.18 136.48C255.41 136.45 255.56 136.24 255.54 136.01L255.44 135.16C255.76 135.33 256.13 135.41 256.51 135.36C257.53 135.24 258.25 134.28 258.12 133.22C257.99 132.16 257.07 131.4 256.05 131.52L256.04 131.53ZM256.4 134.52C255.92 134.58 255.47 134.29 255.3 133.82C255.27 133.74 255.25 133.65 255.24 133.57C255.17 132.98 255.57 132.44 256.14 132.37C256.71 132.3 257.23 132.73 257.3 133.32C257.37 133.91 256.97 134.45 256.4 134.52Z" fill="#192441"/>
<path d="M260.02 131.06C259 131.18 258.28 132.14 258.41 133.2L258.7 135.64C258.73 135.87 258.93 136.04 259.16 136.01C259.39 135.98 259.54 135.77 259.52 135.54L259.42 134.69C259.74 134.86 260.11 134.94 260.49 134.89C261.51 134.77 262.23 133.81 262.1 132.75C261.97 131.69 261.05 130.93 260.03 131.05L260.02 131.06ZM260.38 134.05C259.9 134.11 259.45 133.82 259.28 133.35C259.25 133.27 259.23 133.18 259.22 133.1C259.15 132.51 259.55 131.97 260.12 131.9C260.69 131.83 261.21 132.26 261.28 132.85C261.35 133.44 260.95 133.98 260.38 134.05Z" fill="#192441"/>
<path d="M264.43 130.96C264.4 130.73 264.2 130.56 263.97 130.59C262.95 130.71 262.23 131.67 262.36 132.73L262.54 134.22C262.57 134.45 262.77 134.62 263 134.59C263.23 134.56 263.38 134.35 263.36 134.12L263.18 132.63C263.11 132.04 263.51 131.5 264.08 131.43C264.3 131.4 264.46 131.19 264.44 130.96H264.43Z" fill="#192441"/>
<path d="M265.183 134.325C265.451 134.293 265.642 134.04 265.609 133.76C265.575 133.481 265.331 133.28 265.062 133.312C264.793 133.344 264.602 133.597 264.636 133.877C264.669 134.156 264.914 134.357 265.183 134.325Z" fill="#ED6A4C"/>
<path d="M247.39 131.66C247.47 131.93 247.46 132.24 247.33 132.51C247.17 132.86 246.85 133.09 246.48 133.14C246.86 133.5 247.11 133.99 247.17 134.53C247.32 135.75 246.48 136.86 245.31 137C244.5 137.1 243.74 136.71 243.3 136.06L243.54 138.09C243.55 138.2 243.55 138.32 243.54 138.42C244.14 138.7 244.82 138.82 245.52 138.73C247.62 138.48 249.11 136.5 248.85 134.32C248.72 133.26 248.2 132.3 247.4 131.65L247.39 131.66Z" fill="#34B9CA"/>
<path d="M244.77 132.56C245.18 132.51 245.6 132.59 245.97 132.78C246.39 133 246.89 132.82 247.1 132.39C247.3 131.96 247.13 131.43 246.71 131.21C246.04 130.87 245.3 130.73 244.56 130.82C242.53 131.06 241.06 132.92 241.21 135.02L241.23 135.22L241.6 138.3C241.66 138.78 242.08 139.13 242.54 139.07C242.94 139.02 243.24 138.68 243.28 138.28C243.28 138.22 243.28 138.16 243.28 138.1L242.91 135.02C242.76 133.8 243.6 132.69 244.77 132.55V132.56Z" fill="#34B9CA"/>
<path d="M245.205 136.19C245.962 136.099 246.499 135.386 246.405 134.596C246.311 133.807 245.621 133.24 244.864 133.33C244.108 133.42 243.57 134.133 243.665 134.923C243.759 135.713 244.449 136.28 245.205 136.19Z" fill="#ED6A4C"/>
<path d="M289.76 126.49L296.93 125.63" stroke="#192441" stroke-miterlimit="10" stroke-linecap="round"/>
<path d="M290.1 129.4L297.28 128.55" stroke="#192441" stroke-miterlimit="10" stroke-linecap="round"/>
<path d="M290.45 132.32L297.62 131.47" stroke="#192441" stroke-miterlimit="10" stroke-linecap="round"/>
</g>
<path d="M250.58 211.831L248.494 212.08C247.398 212.211 246.614 213.206 246.745 214.303L247.263 218.642C247.393 219.739 248.389 220.522 249.485 220.391L251.571 220.143C252.667 220.012 253.451 219.017 253.32 217.92L252.802 213.581C252.672 212.484 251.676 211.701 250.58 211.831Z" fill="#192441"/>
<path d="M257.542 211.003L255.457 211.252C254.36 211.383 253.577 212.378 253.708 213.474L254.225 217.814C254.356 218.911 255.351 219.694 256.448 219.563L258.533 219.314C259.63 219.183 260.413 218.188 260.283 217.091L259.765 212.752C259.634 211.655 258.639 210.872 257.542 211.003Z" fill="#192441"/>
<path d="M264.505 210.175L262.42 210.424C261.323 210.554 260.54 211.55 260.671 212.646L261.188 216.986C261.319 218.082 262.314 218.866 263.411 218.735L265.496 218.486C266.593 218.355 267.376 217.36 267.245 216.263L266.728 211.924C266.597 210.827 265.602 210.044 264.505 210.175Z" fill="#192441"/>
<path d="M271.449 209.348L269.364 209.596C268.267 209.727 267.484 210.722 267.615 211.819L268.132 216.158C268.263 217.255 269.258 218.038 270.355 217.908L272.44 217.659C273.537 217.528 274.32 216.533 274.189 215.436L273.672 211.097C273.541 210 272.546 209.217 271.449 209.348Z" fill="#192441"/>
<path d="M278.412 208.519L276.327 208.768C275.23 208.899 274.447 209.894 274.578 210.991L275.095 215.33C275.226 216.427 276.221 217.21 277.318 217.079L279.403 216.831C280.5 216.7 281.283 215.705 281.152 214.608L280.635 210.269C280.504 209.172 279.509 208.389 278.412 208.519Z" fill="#192441"/>
<path d="M285.375 207.691L283.289 207.94C282.193 208.071 281.41 209.066 281.54 210.163L282.058 214.502C282.189 215.599 283.184 216.382 284.28 216.251L286.366 216.002C287.462 215.872 288.246 214.876 288.115 213.78L287.597 209.44C287.467 208.344 286.471 207.561 285.375 207.691Z" fill="#192441"/>
<path d="M292.327 206.863L290.242 207.112C289.145 207.242 288.362 208.238 288.493 209.334L289.01 213.674C289.141 214.77 290.136 215.553 291.233 215.423L293.318 215.174C294.415 215.043 295.198 214.048 295.068 212.951L294.55 208.612C294.419 207.515 293.424 206.732 292.327 206.863Z" fill="#192441"/>
<path d="M299.29 206.035L297.205 206.283C296.108 206.414 295.325 207.409 295.456 208.506L295.973 212.845C296.104 213.942 297.099 214.725 298.196 214.594L300.281 214.346C301.378 214.215 302.161 213.22 302.03 212.123L301.513 207.784C301.382 206.687 300.387 205.904 299.29 206.035Z" fill="#192441"/>
<path d="M306.253 205.196L304.168 205.445C303.071 205.576 302.288 206.571 302.419 207.668L302.936 212.007C303.067 213.104 304.062 213.887 305.159 213.756L307.244 213.508C308.341 213.377 309.124 212.382 308.993 211.285L308.476 206.946C308.345 205.849 307.35 205.066 306.253 205.196Z" fill="#192441"/>
<path d="M251.78 221.621L249.695 221.869C248.598 222 247.815 222.995 247.946 224.092L248.463 228.431C248.594 229.528 249.589 230.311 250.686 230.18L252.771 229.932C253.868 229.801 254.651 228.806 254.52 227.709L254.003 223.37C253.872 222.273 252.877 221.49 251.78 221.621Z" fill="#192441"/>
<path d="M258.743 220.792L256.658 221.041C255.561 221.172 254.778 222.167 254.909 223.264L255.426 227.603C255.557 228.7 256.552 229.483 257.649 229.352L259.734 229.103C260.831 228.972 261.614 227.977 261.483 226.881L260.966 222.541C260.835 221.444 259.84 220.661 258.743 220.792Z" fill="#192441"/>
<path d="M265.706 219.964L263.621 220.213C262.524 220.343 261.741 221.339 261.871 222.435L262.389 226.775C262.52 227.871 263.515 228.655 264.612 228.524L266.697 228.275C267.794 228.144 268.577 227.149 268.446 226.052L267.929 221.713C267.798 220.616 266.803 219.833 265.706 219.964Z" fill="#192441"/>
<path d="M272.649 219.137L270.563 219.386C269.467 219.516 268.684 220.511 268.814 221.608L269.332 225.947C269.463 227.044 270.458 227.827 271.554 227.697L273.64 227.448C274.737 227.317 275.52 226.322 275.389 225.225L274.871 220.886C274.741 219.789 273.745 219.006 272.649 219.137Z" fill="#192441"/>
<path d="M279.611 218.298L277.526 218.547C276.429 218.678 275.646 219.673 275.777 220.77L276.295 225.109C276.425 226.206 277.42 226.989 278.517 226.858L280.602 226.61C281.699 226.479 282.482 225.484 282.352 224.387L281.834 220.048C281.703 218.951 280.708 218.168 279.611 218.298Z" fill="#192441"/>
<path d="M286.575 217.48L284.49 217.729C283.393 217.86 282.61 218.855 282.741 219.952L283.258 224.291C283.389 225.388 284.384 226.171 285.481 226.04L287.566 225.791C288.663 225.661 289.446 224.666 289.316 223.569L288.798 219.229C288.667 218.133 287.672 217.35 286.575 217.48Z" fill="#192441"/>
<path d="M293.528 216.652L291.443 216.901C290.346 217.031 289.563 218.027 289.694 219.123L290.211 223.463C290.342 224.559 291.337 225.343 292.434 225.212L294.519 224.963C295.616 224.832 296.399 223.837 296.268 222.74L295.751 218.401C295.62 217.304 294.625 216.521 293.528 216.652Z" fill="#192441"/>
<path d="M300.491 215.824L298.406 216.072C297.309 216.203 296.526 217.198 296.657 218.295L297.174 222.634C297.305 223.731 298.3 224.514 299.397 224.383L301.482 224.135C302.579 224.004 303.362 223.009 303.231 221.912L302.714 217.573C302.583 216.476 301.588 215.693 300.491 215.824Z" fill="#192441"/>
<path d="M307.454 214.985L305.368 215.234C304.272 215.365 303.489 216.36 303.619 217.457L304.137 221.796C304.268 222.893 305.263 223.676 306.359 223.545L308.445 223.297C309.542 223.166 310.325 222.171 310.194 221.074L309.676 216.735C309.546 215.638 308.55 214.855 307.454 214.985Z" fill="#192441"/>
<path d="M252.951 231.413L250.866 231.662C249.769 231.792 248.986 232.788 249.117 233.884L249.634 238.224C249.765 239.32 250.76 240.104 251.857 239.973L253.942 239.724C255.039 239.593 255.822 238.598 255.691 237.501L255.174 233.162C255.043 232.065 254.048 231.282 252.951 231.413Z" fill="#192441"/>
<path d="M259.904 230.586L257.819 230.834C256.722 230.965 255.939 231.96 256.07 233.057L256.587 237.396C256.718 238.493 257.713 239.276 258.81 239.146L260.895 238.897C261.992 238.766 262.775 237.771 262.644 236.674L262.127 232.335C261.996 231.238 261.001 230.455 259.904 230.586Z" fill="#192441"/>
<path d="M266.868 229.768L264.783 230.016C263.686 230.147 262.903 231.142 263.034 232.239L263.551 236.578C263.682 237.675 264.677 238.458 265.774 238.327L267.859 238.079C268.956 237.948 269.739 236.953 269.608 235.856L269.091 231.517C268.96 230.42 267.965 229.637 266.868 229.768Z" fill="#192441"/>
<path d="M273.821 228.929L271.736 229.178C270.639 229.309 269.856 230.304 269.986 231.401L270.504 235.74C270.635 236.837 271.63 237.62 272.727 237.489L274.812 237.24C275.909 237.11 276.692 236.115 276.561 235.018L276.044 230.678C275.913 229.582 274.918 228.799 273.821 228.929Z" fill="#192441"/>
<path d="M280.784 228.101L278.698 228.35C277.602 228.481 276.818 229.476 276.949 230.573L277.467 234.912C277.597 236.009 278.593 236.792 279.689 236.661L281.775 236.412C282.871 236.282 283.654 235.286 283.524 234.19L283.006 229.85C282.875 228.754 281.88 227.97 280.784 228.101Z" fill="#192441"/>
<path d="M287.746 227.273L285.661 227.521C284.564 227.652 283.781 228.647 283.912 229.744L284.429 234.083C284.56 235.18 285.555 235.963 286.652 235.833L288.737 235.584C289.834 235.453 290.617 234.458 290.486 233.361L289.969 229.022C289.838 227.925 288.843 227.142 287.746 227.273Z" fill="#192441"/>
<path d="M294.699 226.445L292.614 226.693C291.517 226.824 290.734 227.819 290.865 228.916L291.382 233.255C291.513 234.352 292.508 235.135 293.605 235.004L295.69 234.756C296.787 234.625 297.57 233.63 297.439 232.533L296.922 228.194C296.791 227.097 295.796 226.314 294.699 226.445Z" fill="#192441"/>
<path d="M301.652 225.608L299.567 225.856C298.47 225.987 297.687 226.982 297.818 228.079L298.335 232.418C298.466 233.515 299.461 234.298 300.558 234.167L302.643 233.919C303.74 233.788 304.523 232.793 304.392 231.696L303.875 227.357C303.744 226.26 302.749 225.477 301.652 225.608Z" fill="#192441"/>
<path d="M308.615 224.779L306.529 225.028C305.433 225.159 304.65 226.154 304.78 227.251L305.298 231.59C305.429 232.687 306.424 233.47 307.52 233.339L309.606 233.09C310.703 232.96 311.486 231.964 311.355 230.868L310.837 226.528C310.707 225.432 309.711 224.648 308.615 224.779Z" fill="#192441"/>
<path d="M261.026 240.388L251.99 241.465C250.893 241.596 250.11 242.591 250.241 243.688L250.758 248.027C250.889 249.124 251.884 249.907 252.981 249.776L262.017 248.699C263.114 248.568 263.897 247.573 263.766 246.476L263.249 242.137C263.118 241.04 262.123 240.257 261.026 240.388Z" fill="#192441"/>
<path d="M267.999 239.554L265.914 239.802C264.817 239.933 264.034 240.928 264.165 242.025L264.682 246.364C264.813 247.461 265.808 248.244 266.905 248.114L268.99 247.865C270.087 247.734 270.87 246.739 270.739 245.642L270.222 241.303C270.091 240.206 269.096 239.423 267.999 239.554Z" fill="#192441"/>
<path d="M295.858 236.231L272.87 238.972C271.774 239.103 270.991 240.098 271.121 241.195L271.639 245.534C271.77 246.631 272.765 247.414 273.861 247.284L296.849 244.542C297.945 244.412 298.729 243.417 298.598 242.32L298.08 237.98C297.95 236.884 296.954 236.101 295.858 236.231Z" fill="#192441"/>
<path d="M302.794 235.414L300.709 235.662C299.612 235.793 298.829 236.788 298.96 237.885L299.477 242.224C299.608 243.321 300.603 244.104 301.7 243.973L303.785 243.725C304.882 243.594 305.665 242.599 305.534 241.502L305.017 237.163C304.886 236.066 303.891 235.283 302.794 235.414Z" fill="#192441"/>
<path d="M309.757 234.575L307.672 234.824C306.575 234.955 305.792 235.95 305.923 237.047L306.44 241.386C306.571 242.483 307.566 243.266 308.663 243.135L310.748 242.886C311.845 242.756 312.628 241.761 312.497 240.664L311.98 236.324C311.849 235.228 310.854 234.445 309.757 234.575Z" fill="#192441"/>
<path d="M304.58 191.239L246.869 198.121C245.772 198.251 244.989 199.247 245.12 200.343L245.932 207.155C246.063 208.252 247.058 209.035 248.155 208.904L305.866 202.023C306.963 201.892 307.746 200.897 307.615 199.8L306.803 192.988C306.672 191.891 305.677 191.108 304.58 191.239Z" fill="white" stroke="#EDEDED" stroke-miterlimit="10"/>
<path d="M247.64 200.75L248.31 206.4" stroke="#192441" stroke-width="0.28" stroke-miterlimit="10"/>
<path d="M271.15 253.74L293.98 251.02" stroke="#192441" stroke-width="1.42" stroke-miterlimit="10" stroke-linecap="round"/>
<path opacity="0.5" d="M245.68 157.89L295.54 151.95C297.5 151.72 299.27 153.11 299.51 155.07L301.48 175.66C301.71 177.62 300.32 179.39 298.36 179.63L253.61 184.96C253.18 185.91 252.11 187.47 250.4 188.55C250.2 188.68 249.93 188.48 250.02 188.26C250.23 187.68 250.36 186.74 249.95 185.4L248.5 185.57C246.54 185.8 244.77 184.41 244.53 182.45L242.56 161.86C242.33 159.9 243.72 158.13 245.68 157.89Z" fill="#192441"/>
<path d="M247.97 195.9C249.621 195.9 250.96 194.561 250.96 192.91C250.96 191.259 249.621 189.92 247.97 189.92C246.319 189.92 244.98 191.259 244.98 192.91C244.98 194.561 246.319 195.9 247.97 195.9Z" fill="white" stroke="#192441" stroke-width="0.99" stroke-miterlimit="10"/>
<path d="M248.97 191.59C249.01 191.71 249 191.83 248.95 191.95C248.88 192.1 248.75 192.2 248.59 192.22C248.75 192.37 248.86 192.58 248.88 192.81C248.94 193.33 248.59 193.8 248.09 193.86C247.75 193.9 247.43 193.74 247.24 193.46L247.34 194.32C247.34 194.32 247.34 194.42 247.34 194.46C247.6 194.58 247.88 194.63 248.18 194.59C249.07 194.48 249.7 193.65 249.59 192.72C249.54 192.27 249.31 191.87 248.98 191.59H248.97Z" fill="#34B9CA"/>
<path d="M247.86 191.97C248.04 191.95 248.21 191.98 248.37 192.06C248.55 192.15 248.76 192.08 248.85 191.89C248.94 191.71 248.86 191.48 248.69 191.39C248.41 191.24 248.09 191.19 247.78 191.22C246.92 191.32 246.3 192.11 246.36 193L246.37 193.09L246.53 194.4C246.55 194.6 246.73 194.75 246.93 194.73C247.1 194.71 247.23 194.57 247.24 194.4C247.24 194.37 247.24 194.35 247.24 194.32L247.08 193.01C247.02 192.49 247.37 192.02 247.87 191.96L247.86 191.97Z" fill="#34B9CA"/>
<path d="M248.059 193.498C248.383 193.459 248.613 193.157 248.573 192.822C248.533 192.488 248.238 192.248 247.915 192.287C247.591 192.325 247.361 192.628 247.401 192.962C247.441 193.297 247.736 193.537 248.059 193.498Z" fill="#ED6A4C"/>
</g>
<defs>
<filter id="filter0_d_220_1601" x="219.285" y="104.531" width="98.3399" height="46.8457" filterUnits="userSpaceOnUse" color-interpolation-filters="sRGB">
<feFlood flood-opacity="0" result="BackgroundImageFix"/>
<feColorMatrix in="SourceAlpha" type="matrix" values="0 0 0 0 0 0 0 0 0 0 0 0 0 0 0 0 0 0 127 0" result="hardAlpha"/>
<feOffset/>
<feGaussianBlur stdDeviation="2"/>
<feColorMatrix type="matrix" values="0 0 0 0 0.113725 0 0 0 0 0.113725 0 0 0 0 0.105882 0 0 0 0.5 0"/>
<feBlend mode="normal" in2="BackgroundImageFix" result="effect1_dropShadow_220_1601"/>
<feBlend mode="normal" in="SourceGraphic" in2="effect1_dropShadow_220_1601" result="shape"/>
</filter>
<clipPath id="clip0_220_1601">
<rect width="373.51" height="268.42" fill="white"/>
</clipPath>
</defs>
</svg>
