<svg width="374" height="269" viewBox="0 0 374 269" fill="none" xmlns="http://www.w3.org/2000/svg">
<path opacity="0.5" d="M332.92 39.0199C331.5 33.3899 326.35 29.5599 320.61 29.4999C318.34 29.4699 316.08 29.4999 313.81 29.4999H54.17C53.45 29.4999 52.73 29.4799 52.02 29.5299C45.38 29.9699 40.3 35.5699 40.21 42.1599C40.17 45.0799 40.21 48.0099 40.21 50.9299V219.59C40.21 222.95 39.77 226.92 40.81 230.16C42.51 235.43 47.45 238.87 52.93 238.93C53.65 238.93 54.36 238.93 55.08 238.93H320.69C327.64 238.82 333.22 233.26 333.32 226.29C333.33 225.49 333.32 224.69 333.32 223.89V43.6699C333.32 42.0999 333.32 40.5699 332.93 39.0199H332.92Z" fill="#34B9CA"/>
<path d="M317.24 69.12C316.88 68.4 316.71 67.67 316.66 66.95C319.93 66.14 322.1 65.73 322.1 65.73C322.1 65.73 326.5 91.15 330.41 95.54L301.08 114.6C301.08 114.6 299.17 111 295.25 103.99C308.9 97.02 317.24 83.92 317.24 69.12Z" fill="#F4A39B"/>
<path d="M316.66 66.95C316.72 67.67 316.88 68.4 317.24 69.12C317.24 83.91 308.9 97.02 295.25 103.99C293.19 100.31 290.59 95.71 287.4 90.17C280.17 77.62 305.2 69.81 316.66 66.96V66.95Z" fill="#F4A39B"/>
<path opacity="0.1" d="M316.66 66.95C316.72 67.67 316.88 68.4 317.24 69.12C317.24 83.91 308.9 97.02 295.25 103.99C293.19 100.31 290.59 95.71 287.4 90.17C280.17 77.62 305.2 69.81 316.66 66.96V66.95Z" fill="#282323"/>
<path d="M273.22 25.1599C273.22 25.1599 260.51 42.2699 260.51 65.7299C260.51 89.1899 269.67 102.5 285.9 102.11C302.13 101.72 316.83 79.7099 315.74 63.5399C312.69 18.3299 273.22 25.1699 273.22 25.1699V25.1599Z" fill="#F4A39B"/>
<path d="M265.76 39.2699C265.76 39.2699 263.81 -4.89008 313.33 16.2499C345.88 30.1499 324.95 79.6999 324.95 79.6999C324.95 79.6999 313.23 85.8399 311.94 72.6799C310.65 59.5299 311.62 42.1399 301.22 38.4299C290.82 34.7199 265.77 39.2699 265.77 39.2699H265.76Z" fill="#1D1D1B"/>
<path d="M290.97 63.5501C291.41 63.5401 291.88 63.5401 292.24 63.7901C292.59 64.0301 292.73 64.4601 292.82 64.8601C292.94 65.4001 292.94 66.0601 292.48 66.4001C292.23 66.5801 291.89 66.6301 291.57 66.6401C291.15 66.6601 290.7 66.6401 290.34 66.4401C289.9 66.1901 289.67 65.7101 289.52 65.2401C289.34 64.7101 289.28 64.0201 289.75 63.6901C289.9 63.5901 290.08 63.5401 290.27 63.5101C290.63 63.4501 290.99 63.4501 291.35 63.5101" fill="#1D1D1B"/>
<path d="M291.02 62.93C291.54 62.92 292.07 62.95 292.53 63.22C292.99 63.49 293.23 63.95 293.38 64.43C293.63 65.23 293.66 66.32 292.9 66.87C292.45 67.2 291.9 67.25 291.35 67.26C290.83 67.27 290.26 67.17 289.84 66.86C289.46 66.58 289.2 66.19 289.02 65.77C288.84 65.34 288.72 64.9 288.72 64.44C288.72 63.88 289.01 63.34 289.55 63.07C290.09 62.81 290.8 62.79 291.39 62.89C291.73 62.94 292.04 63.21 291.99 63.57C291.95 63.88 291.65 64.2 291.28 64.14C291.08 64.11 290.88 64.1 290.68 64.09C290.7 64.09 290.8 64.09 290.68 64.09C290.62 64.09 290.56 64.1 290.5 64.11C290.4 64.12 290.31 64.14 290.22 64.16C290.05 64.2 290.32 64.11 290.17 64.18C290.07 64.24 290.14 64.19 290.17 64.18C290.14 64.2 290.11 64.23 290.09 64.25C290.03 64.3 290.17 64.13 290.11 64.24L290.06 64.31L290.1 64.24C290.1 64.24 290.08 64.29 290.07 64.32L290.05 64.4C290.07 64.3 290.07 64.29 290.06 64.36V64.4C290.05 64.46 290.06 64.56 290.04 64.62V64.54C290.04 64.54 290.04 64.58 290.04 64.61C290.04 64.65 290.04 64.68 290.05 64.72C290.07 64.87 290.12 65.02 290.16 65.17C290.1 65.03 290.19 65.26 290.16 65.17C290.17 65.2 290.18 65.23 290.2 65.26C290.23 65.33 290.26 65.41 290.3 65.48C290.33 65.54 290.37 65.65 290.42 65.69C290.34 65.62 290.38 65.64 290.41 65.67C290.45 65.71 290.48 65.76 290.52 65.8C290.54 65.83 290.57 65.87 290.6 65.88C290.48 65.81 290.56 65.85 290.59 65.86C290.63 65.89 290.67 65.91 290.71 65.94C290.59 65.89 290.69 65.93 290.71 65.94C290.75 65.96 290.79 65.97 290.84 65.99C290.88 66 290.99 66.04 290.85 66C290.94 66.03 291.05 66.03 291.15 66.04C291.23 66.04 291.32 66.04 291.4 66.04C291.43 66.04 291.61 66.04 291.45 66.04C291.48 66.04 291.52 66.04 291.55 66.04C291.63 66.04 291.72 66.03 291.8 66.01C291.83 66.01 291.87 66 291.9 65.99C291.93 65.99 291.97 65.98 292 65.97C291.93 65.99 291.91 66 291.96 65.98C291.98 65.97 292.06 65.95 292.07 65.93C292.04 65.98 292 65.99 292.05 65.93L292.09 65.9C292.14 65.85 292.14 65.86 292.07 65.93C292.08 65.93 292.12 65.87 292.12 65.86C292.13 65.85 292.22 65.75 292.15 65.83C292.09 65.89 292.15 65.82 292.17 65.79C292.18 65.76 292.19 65.74 292.2 65.71C292.2 65.68 292.22 65.66 292.22 65.63C292.2 65.72 292.2 65.73 292.2 65.69C292.2 65.62 292.22 65.56 292.22 65.49C292.22 65.44 292.22 65.4 292.22 65.35C292.22 65.3 292.25 65.27 292.22 65.38C292.23 65.32 292.2 65.22 292.19 65.16C292.18 65.07 292.16 64.98 292.14 64.9C292.12 64.82 292.1 64.75 292.08 64.68C292.04 64.53 292.14 64.8 292.08 64.66C292.06 64.62 292.04 64.58 292.02 64.53C292.01 64.5 291.99 64.48 291.98 64.45C291.93 64.34 292.06 64.54 291.96 64.41C291.94 64.38 291.91 64.35 291.88 64.32C291.79 64.22 291.98 64.38 291.86 64.31C291.86 64.31 291.71 64.22 291.8 64.27C291.88 64.31 291.71 64.24 291.69 64.23C291.67 64.22 291.6 64.2 291.59 64.2C291.68 64.22 291.68 64.22 291.61 64.2H291.56C291.35 64.17 291.13 64.17 290.92 64.18C290.57 64.18 290.28 63.81 290.32 63.5C290.37 63.13 290.66 62.94 291.03 62.93H291.02Z" fill="#1D1D1B"/>
<path d="M270.2 62.6699C270.82 62.5799 271.48 62.9999 271.62 63.5899C271.67 63.7899 271.66 63.9999 271.64 64.1999C271.62 64.4099 271.59 64.6299 271.49 64.8199C271.36 65.0599 271.13 65.2499 270.86 65.3399C270.3 65.5399 269.63 65.3599 269.21 64.9499C268.79 64.5399 268.61 63.9399 268.68 63.3799C268.7 63.2099 268.74 63.0399 268.82 62.8999C269.03 62.5299 269.5 62.3299 269.94 62.3599C270.38 62.3899 270.79 62.6399 271.08 62.9699" fill="#1D1D1B"/>
<path d="M270.08 62.0601C271.06 61.9301 272.01 62.5301 272.26 63.4401C272.33 63.6801 272.33 63.9501 272.31 64.2001C272.29 64.4501 272.26 64.6901 272.17 64.9201C272 65.3701 271.59 65.7601 271.11 65.9201C270.63 66.0801 270.09 66.0901 269.59 65.9101C269.09 65.7301 268.7 65.4001 268.42 64.9801C267.89 64.2001 267.83 62.9801 268.5 62.2801C268.88 61.8801 269.49 61.6801 270.05 61.7501C270.66 61.8201 271.2 62.1301 271.59 62.5701C271.81 62.8201 271.8 63.2401 271.52 63.4501C271.24 63.6601 270.83 63.6401 270.59 63.3701C270.56 63.3301 270.52 63.3001 270.49 63.2601C270.47 63.2401 270.41 63.1701 270.51 63.2601C270.45 63.2001 270.38 63.1601 270.31 63.1101C270.28 63.0901 270.25 63.0801 270.23 63.0601C270.1 62.9801 270.36 63.1001 270.21 63.0501C270.15 63.0301 270.04 62.9601 269.98 62.9701L270.06 62.9901C270.06 62.9901 270 62.9801 269.96 62.9801C269.93 62.9801 269.9 62.9801 269.87 62.9801C269.72 62.9701 269.98 62.9601 269.89 62.9801C269.85 62.9801 269.82 62.9801 269.78 62.9901C269.75 62.9901 269.72 63.0001 269.69 63.0101C269.54 63.0301 269.81 62.9501 269.69 63.0101C269.66 63.0201 269.64 63.0301 269.61 63.0401C269.58 63.0501 269.56 63.0701 269.53 63.0801L269.6 63.0401C269.6 63.0401 269.51 63.1101 269.5 63.1201C269.43 63.1701 269.48 63.1001 269.52 63.0901C269.5 63.0901 269.47 63.1501 269.45 63.1701C269.36 63.2601 269.42 63.2101 269.45 63.1701C269.42 63.2001 269.41 63.2501 269.4 63.2901C269.33 63.4301 269.39 63.3301 269.4 63.2901C269.37 63.3601 269.37 63.4701 269.37 63.5501C269.37 63.6101 269.35 63.7001 269.37 63.7501V63.6701C269.37 63.6701 269.37 63.7301 269.37 63.7601C269.37 63.7901 269.37 63.8201 269.38 63.8501C269.39 63.9201 269.41 64.0001 269.43 64.0701C269.46 64.1901 269.42 64.0501 269.42 64.0401C269.42 64.0801 269.46 64.1501 269.48 64.1901C269.51 64.2501 269.54 64.3101 269.58 64.3701C269.65 64.5001 269.49 64.2701 269.59 64.3801C269.61 64.4001 269.63 64.4301 269.65 64.4501C269.68 64.4801 269.7 64.5101 269.73 64.5301C269.78 64.5301 269.81 64.6101 269.73 64.5301C269.74 64.5301 269.79 64.5801 269.8 64.5901C269.84 64.6201 269.89 64.6501 269.93 64.6801C270.01 64.6801 270.01 64.7301 269.93 64.6801C269.95 64.6801 269.99 64.7101 270.01 64.7201C270.08 64.7501 270.15 64.7701 270.23 64.7901C270.38 64.8301 270.12 64.7801 270.21 64.7901C270.25 64.7901 270.29 64.8001 270.32 64.8001C270.35 64.8001 270.38 64.8001 270.41 64.8001C270.44 64.8001 270.47 64.8001 270.5 64.8001C270.41 64.8001 270.39 64.8001 270.44 64.8001C270.51 64.7901 270.57 64.7801 270.64 64.7601C270.79 64.7301 270.52 64.8201 270.65 64.7601C270.68 64.7501 270.71 64.7401 270.73 64.7201C270.74 64.7201 270.86 64.6401 270.78 64.7001C270.7 64.7601 270.81 64.6701 270.82 64.6701C270.84 64.6501 270.86 64.6301 270.89 64.6101C270.99 64.5301 270.81 64.7101 270.91 64.5801C270.93 64.5501 270.96 64.5201 270.97 64.4901C270.93 64.6201 270.95 64.5401 270.95 64.5101C270.96 64.4701 271 64.4101 271 64.3701C271 64.3801 270.98 64.5101 271 64.3901C271.01 64.3101 271.02 64.2301 271.03 64.1401C271.04 64.0501 271.07 63.9101 271.04 63.8301C271.04 63.8501 271.06 63.9701 271.04 63.8401C271.04 63.7901 271.03 63.7401 271.01 63.6901V63.6501C270.98 63.5901 270.99 63.6001 271.01 63.6901C271 63.6901 270.97 63.5901 270.96 63.5801C270.96 63.5801 270.92 63.5201 270.92 63.5101C270.98 63.5901 270.98 63.6001 270.94 63.5501C270.93 63.5301 270.92 63.5201 270.9 63.5001C270.88 63.4701 270.85 63.4501 270.83 63.4301C270.74 63.3301 270.94 63.5101 270.83 63.4301C270.8 63.4101 270.64 63.3201 270.63 63.3001C270.63 63.3101 270.78 63.3601 270.67 63.3201C270.63 63.3101 270.59 63.2901 270.56 63.2801H270.52C270.45 63.2501 270.47 63.2501 270.57 63.2801C270.54 63.2801 270.48 63.2701 270.45 63.2601C270.42 63.2601 270.4 63.2601 270.37 63.2601C270.3 63.2601 270.32 63.2601 270.42 63.2601C270.39 63.2601 270.37 63.2601 270.34 63.2601C270 63.3001 269.62 63.1001 269.57 62.7601C269.52 62.4401 269.73 62.0801 270.09 62.0301L270.08 62.0601Z" fill="#1D1D1B"/>
<path d="M282.07 61.2401C281.81 64.3901 280.84 67.4501 279.21 70.2001C278.42 71.5401 277.29 72.6601 276.49 73.9801C276.12 74.5901 275.85 75.4801 276.35 76.1001C276.86 76.7301 277.9 76.6801 278.65 76.6801C279.5 76.6801 279.39 77.9201 278.55 77.9201C277.02 77.9201 275.28 77.6001 274.86 75.9601C274.44 74.3001 275.6 72.9801 276.57 71.7501C279.01 68.6701 280.44 64.9801 280.76 61.1301C280.83 60.3301 282.14 60.4401 282.07 61.2401Z" fill="#1D1D1B"/>
<path d="M286.36 83.2099C286.21 83.8799 285.71 84.4499 285.21 84.9199C284.74 85.3599 284.17 85.7299 283.58 86.0199C282.27 86.6599 280.79 86.9199 279.34 87.0599C278.99 87.0899 278.64 86.9099 278.57 86.5599C278.51 86.2499 278.74 85.8699 279.09 85.8299C280.37 85.7099 281.66 85.5099 282.83 84.9799C283.76 84.5499 284.89 83.8099 285.12 82.7899C285.2 82.4599 285.66 82.3199 285.96 82.4199C286.33 82.5499 286.43 82.8899 286.35 83.2199L286.36 83.2099Z" fill="#1D1D1B"/>
<path d="M273.87 60.29C273.34 59.66 272.65 59.27 271.8 59.07C271.87 59.09 271.77 59.07 271.75 59.07C271.7 59.07 271.65 59.05 271.6 59.04C271.49 59.02 271.38 59.01 271.27 59C271.16 58.99 271.05 58.98 270.94 58.98C270.88 58.98 270.82 58.98 270.75 58.98C270.63 58.98 270.83 58.98 270.7 58.98C270.23 59.02 269.87 59.1 269.48 59.27C268.71 59.6 268.14 58.47 268.91 58.14C270.92 57.27 273.47 57.83 274.87 59.48C275.4 60.11 274.4 60.91 273.87 60.28V60.29Z" fill="#1D1D1B"/>
<path d="M288.74 58.7499C291.22 58.2999 294.03 58.6099 295.78 60.5399C296.34 61.1499 295.33 61.9499 294.78 61.3399C293.34 59.7599 291.01 59.6199 288.99 59.9799C288.16 60.1299 287.91 58.8999 288.74 58.7499Z" fill="#1D1D1B"/>
<path d="M276.35 52.76C276.73 53.45 276.35 54.31 275.56 54.51C274.84 54.69 274.33 54.17 273.7 53.93C273.13 53.71 272.5 53.61 271.89 53.68C271.18 53.76 270.53 54.08 269.82 54.17C269.55 54.2 269.21 54.09 269.1 53.82C268.81 53.08 269.41 52.66 270.08 52.44C270.7 52.24 271.34 52.09 271.99 52.01C273.29 51.86 274.59 51.97 275.85 52.31C276.19 52.4 276.36 52.81 276.24 53.11C276.11 53.45 275.74 53.57 275.4 53.48C274.53 53.25 273.61 53.14 272.71 53.2C272.25 53.23 271.8 53.29 271.35 53.39C271.13 53.44 270.91 53.49 270.7 53.56C270.6 53.59 270.5 53.62 270.4 53.66C270.11 53.76 270.31 53.76 270.32 53.55L270.26 53.23L270.28 53.3C270.04 53.18 269.8 53.07 269.56 52.95C270.14 52.88 270.66 52.65 271.22 52.53C271.78 52.41 272.4 52.39 272.97 52.48C273.54 52.57 274.1 52.74 274.62 53C274.75 53.07 274.88 53.14 275 53.21C275.03 53.23 275.21 53.31 275.23 53.33C275.16 53.23 275.25 53.5 275.14 53.31C274.75 52.59 275.93 52.06 276.32 52.78L276.35 52.76Z" fill="#1D1D1B"/>
<path d="M298.02 54.9C296.67 54.03 295.2 53.35 293.64 52.89C292.95 52.69 292.23 52.5 291.51 52.43C291.09 52.39 290.07 52.33 289.84 52.8C289.82 52.83 289.72 52.81 289.89 52.86C290.07 52.92 290.28 52.86 290.46 52.83C290.83 52.76 291.19 52.68 291.56 52.63C292.3 52.54 293.06 52.53 293.81 52.6C294.56 52.67 295.3 52.84 296.01 53.07C296.36 53.19 296.71 53.33 297.04 53.49C297.23 53.58 297.43 53.68 297.61 53.78C297.7 53.83 297.79 53.88 297.89 53.94C298.18 54.06 298.18 54.31 297.89 54.68C297.2 54.22 297.94 53.2 298.64 53.66C299.3 54.1 299.06 55.11 298.27 55.26C297.91 55.33 297.56 55.2 297.25 55.03C296.86 54.82 296.49 54.61 296.07 54.44C294.52 53.82 292.81 53.64 291.17 53.96C290.38 54.11 289.54 54.3 288.89 53.71C288.24 53.12 288.4 52.33 289.01 51.81C290.18 50.8 291.97 51.18 293.35 51.52C295.28 52 297.11 52.81 298.76 53.88C299.46 54.33 298.71 55.35 298.01 54.9H298.02Z" fill="#1D1D1B"/>
<path d="M289.98 52.34C290.55 52.42 291.13 52.45 291.7 52.43H291.52C291.71 52.43 291.9 52.42 292.09 52.4C292.27 52.38 292.44 52.4 292.59 52.5C292.72 52.59 292.84 52.75 292.86 52.9C292.91 53.21 292.7 53.59 292.34 53.63C291.52 53.71 290.69 53.71 289.87 53.59C289.53 53.54 289.22 53.26 289.27 52.91C289.31 52.59 289.61 52.29 289.98 52.34Z" fill="#1D1D1B"/>
<path d="M295.36 3.81006C284.71 7.31006 276.21 17.0101 272.65 28.6901L267.29 26.9301C267.29 26.9301 271.16 5.81006 295.36 3.81006Z" fill="white"/>
<path d="M306.23 4.1499C306.59 4.1999 306.93 4.2199 307.29 4.2799C347.44 10.1499 336.04 49.5899 336.04 49.5899L281.04 31.4699C284.7 18.4199 293.61 7.4399 306.23 4.1599V4.1499Z" fill="white"/>
<path d="M295.36 3.80999C298.6 3.53999 302.22 3.62999 306.23 4.14999C293.61 7.42999 284.7 18.42 281.04 31.46L272.65 28.69C276.21 17.01 284.71 7.30999 295.36 3.80999Z" fill="#EDEDED"/>
<path d="M336.04 49.58C336.04 49.58 310.66 32.09 279.4 23.42C249.09 15.01 258.7 28.36 263.82 34.09C265.11 35.54 267.03 36.25 268.94 35.95C274.31 35.11 286.79 34.07 301.66 39.03C321.58 45.67 336.03 49.58 336.03 49.58H336.04Z" fill="#F6F6F6"/>
<path d="M311.04 60.5099C311.04 60.5099 311.81 55.6899 314.94 56.6799C318.07 57.6799 318.3 66.4599 314.94 67.3899C311.58 68.3199 309.29 67.3899 309.29 67.3899L311.04 60.5099Z" fill="#F4A39B"/>
<mask id="mask0_220_1693" style="mask-type:luminance" maskUnits="userSpaceOnUse" x="40" y="29" width="294" height="210">
<path d="M332.92 39.0199C331.5 33.3899 326.35 29.5599 320.61 29.4999C318.34 29.4699 316.08 29.4999 313.81 29.4999H54.17C53.45 29.4999 52.73 29.4799 52.02 29.5299C45.38 29.9699 40.3 35.5699 40.21 42.1599C40.17 45.0799 40.21 48.0099 40.21 50.9299V219.59C40.21 222.95 39.77 226.92 40.81 230.16C42.51 235.43 47.45 238.87 52.93 238.93C53.65 238.93 54.36 238.93 55.08 238.93H320.69C327.64 238.82 333.22 233.26 333.32 226.29C333.33 225.49 333.32 224.69 333.32 223.89V43.6699C333.32 42.0999 333.32 40.5699 332.93 39.0199H332.92Z" fill="white"/>
</mask>
<g mask="url(#mask0_220_1693)">
<path d="M380.67 151.85C347.47 157.91 313.51 159.74 279.92 159.85C280.32 164.12 280.81 168.38 281.4 172.62C282.81 182.81 284.77 192.99 285.31 203.24C318.66 203.1 351.54 205.87 385.08 203.73C385 202.68 384.94 201.63 384.86 200.59C383.59 184.34 381.45 168.12 380.67 151.85Z" fill="#ED6A4C"/>
<path d="M380.41 135.85C380.54 129.42 380.78 122.3 376.6 117.4C374.88 115.39 372.58 113.98 370.31 112.61C364.98 109.38 359.64 106.16 354.31 102.93C350.19 100.44 346.02 97.9199 341.42 96.4799C331.67 93.4199 320.85 95.5499 311.76 100.22C302.66 104.89 295.01 111.91 287.7 119.05C284.43 122.24 281.1 125.65 279.66 129.98C278.65 133.03 278.66 136.31 278.73 139.53C278.89 146.31 279.28 153.09 279.92 159.84C313.5 159.74 347.47 157.9 380.67 151.84C380.41 146.51 380.3 141.18 380.41 135.84V135.85Z" fill="#ED6A4C"/>
<path d="M386.95 239.13C386.81 236.13 386.67 233.12 386.54 230.12C386.14 221.32 385.72 212.52 385.09 203.73C351.55 205.87 318.67 203.1 285.32 203.24C285.45 205.68 285.5 208.12 285.44 210.57C285.19 220.89 283.04 231.01 280.79 241.11C315.89 240.83 351.69 241.77 386.96 239.12L386.95 239.13Z" fill="#ED6A4C"/>
<g opacity="0.2">
<path d="M380.67 151.85C347.47 157.91 313.51 159.74 279.92 159.85C280.32 164.12 280.81 168.38 281.4 172.62C282.81 182.81 284.77 192.99 285.31 203.24C318.66 203.1 351.54 205.87 385.08 203.73C385 202.68 384.94 201.63 384.86 200.59C383.59 184.34 381.45 168.12 380.67 151.85Z" fill="#F6F6F6"/>
</g>
<path d="M247.41 199.64C247.41 199.64 239.28 192.38 236.18 188.7C233.08 185.02 235.77 172.76 231.03 174.56C226.29 176.36 228.87 184.33 228.33 186.82C227.79 189.31 215.52 181.6 213.94 189.32C212.36 197.04 211.75 211.94 219.16 210.69C226.57 209.44 243.21 213.09 243.21 213.09L247.41 199.64Z" fill="#F4A39B"/>
<path d="M272.76 136.28C272.76 136.28 279.05 122.16 287.7 119.05C296.35 115.94 305.64 126.26 307.71 138.3C309.77 150.34 329.69 215.02 317.37 228.43C309.72 236.76 240.97 223.27 237.19 211.57C237.19 211.57 235.13 192.99 242.69 192.3C250.26 191.61 274.08 192.64 282.47 193.68C282.47 193.68 264.65 155.56 272.76 136.26V136.28Z" fill="#192441"/>
</g>
<path d="M154.586 7.1373L67.9914 20.6357C58.7582 22.0749 52.44 30.7267 53.8793 39.9598L85.7123 244.174C87.1516 253.407 95.8033 259.725 105.036 258.286L191.631 244.787C200.864 243.348 207.182 234.696 205.743 225.463L173.91 21.2494C172.47 12.0162 163.819 5.69803 154.586 7.1373Z" fill="#B2B2B2"/>
<path d="M156.743 10.3939L66.9177 24.3959C60.2493 25.4354 55.6862 31.6839 56.7257 38.3523L88.9129 244.839C89.9524 251.507 96.2008 256.07 102.869 255.031L192.694 241.029C199.363 239.989 203.926 233.741 202.887 227.072L170.699 20.586C169.66 13.9176 163.411 9.35446 156.743 10.3939Z" fill="white"/>
<mask id="mask1_220_1693" style="mask-type:luminance" maskUnits="userSpaceOnUse" x="56" y="10" width="147" height="245">
<path d="M156.586 10.9461L67.2647 24.8696C60.5963 25.909 56.0332 32.1575 57.0727 38.8259L89.0982 244.275C90.1376 250.943 96.3861 255.506 103.054 254.467L192.376 240.543C199.044 239.504 203.607 233.255 202.568 226.587L170.542 21.1382C169.503 14.4698 163.254 9.90664 156.586 10.9461Z" fill="white"/>
</mask>
<g mask="url(#mask1_220_1693)">
<path d="M156.586 10.9459L67.2647 24.8693C60.5963 25.9088 56.0332 32.1573 57.0727 38.8257L89.0982 244.275C90.1376 250.943 96.3861 255.506 103.054 254.467L192.376 240.543C199.044 239.504 203.607 233.255 202.568 226.587L170.542 21.1379C169.503 14.4695 163.254 9.9064 156.586 10.9459Z" fill="#F6F6F6"/>
<g filter="url(#filter0_d_220_1693)">
<path d="M185.162 -5.18832L37.5251 17.8254L45.0614 66.1716L192.698 43.1578L185.162 -5.18832Z" fill="white"/>
</g>
<path d="M87.51 38.3597C85.79 38.6297 84.61 40.3097 84.89 42.0997C85.17 43.8897 86.8 45.1397 88.53 44.8697C90.25 44.5997 91.43 42.9197 91.15 41.1297C90.87 39.3397 89.24 38.0897 87.51 38.3597ZM88.3 43.4397C87.33 43.5897 86.42 42.8997 86.27 41.8897C86.11 40.8897 86.77 39.9497 87.74 39.7997C88.71 39.6497 89.62 40.3397 89.77 41.3497C89.92 42.3597 89.27 43.2897 88.3 43.4397Z" fill="#192441"/>
<path d="M94.16 37.3199C92.44 37.5899 91.26 39.2699 91.54 41.0599L92.19 45.2099C92.25 45.6099 92.61 45.8799 92.99 45.8199C93.37 45.7599 93.63 45.3899 93.57 44.9999L93.34 43.5499C93.9 43.8199 94.53 43.9299 95.18 43.8299C96.9 43.5599 98.08 41.8799 97.8 40.0899C97.52 38.2999 95.89 37.0499 94.16 37.3199ZM94.95 42.3999C94.14 42.5299 93.35 42.0699 93.03 41.2799C92.97 41.1399 92.93 40.9999 92.91 40.8499C92.75 39.8499 93.41 38.9099 94.38 38.7599C95.35 38.6099 96.26 39.2999 96.41 40.3099C96.57 41.3099 95.91 42.2499 94.94 42.3999H94.95Z" fill="#192441"/>
<path d="M100.92 36.2698C99.2 36.5398 98.02 38.2198 98.3 40.0098L98.95 44.1598C99.01 44.5598 99.37 44.8298 99.75 44.7698C100.13 44.7098 100.39 44.3398 100.33 43.9498L100.1 42.4998C100.66 42.7698 101.29 42.8798 101.94 42.7798C103.66 42.5098 104.84 40.8298 104.56 39.0398C104.28 37.2498 102.65 35.9998 100.92 36.2698ZM101.71 41.3498C100.9 41.4798 100.11 41.0198 99.79 40.2298C99.73 40.0898 99.69 39.9498 99.67 39.7998C99.51 38.7998 100.17 37.8598 101.14 37.7098C102.11 37.5598 103.02 38.2498 103.17 39.2598C103.33 40.2598 102.67 41.1998 101.7 41.3498H101.71Z" fill="#192441"/>
<path d="M108.42 35.8298C108.36 35.4298 108 35.1598 107.62 35.2198C105.9 35.4898 104.72 37.1698 105 38.9598L105.4 41.4998C105.46 41.8998 105.82 42.1698 106.2 42.1098C106.58 42.0498 106.84 41.6798 106.78 41.2898L106.38 38.7498C106.22 37.7498 106.88 36.8098 107.85 36.6598C108.23 36.5998 108.49 36.2298 108.43 35.8398L108.42 35.8298Z" fill="#192441"/>
<path d="M109.9 41.5472C110.353 41.4766 110.661 41.0389 110.587 40.5696C110.514 40.1003 110.088 39.7771 109.635 39.8477C109.182 39.9184 108.874 40.356 108.947 40.8253C109.02 41.2946 109.447 41.6178 109.9 41.5472Z" fill="#ED6A4C"/>
<path d="M79.41 38.0598C79.57 38.5198 79.57 39.0398 79.36 39.5098C79.1 40.1098 78.57 40.5298 77.94 40.6298C77.94 40.6298 77.94 40.6298 77.93 40.6298C78.6 41.2198 79.06 42.0298 79.2 42.9498C79.52 45.0198 78.17 46.9598 76.17 47.2698C74.8 47.4798 73.48 46.8698 72.68 45.7898L73.22 49.2398C73.25 49.4298 73.25 49.6198 73.22 49.8098C74.27 50.2498 75.43 50.4098 76.62 50.2198C80.18 49.6698 82.61 46.1998 82.03 42.4998C81.75 40.6898 80.79 39.0998 79.4 38.0398L79.41 38.0598Z" fill="#34B9CA"/>
<path d="M75 39.7697C75.7 39.6597 76.41 39.7697 77.06 40.0697C77.79 40.4097 78.64 40.0797 78.96 39.3297C79.28 38.5797 78.96 37.6897 78.22 37.3497C77.06 36.7997 75.79 36.6197 74.53 36.8097C71.08 37.3497 68.7 40.6097 69.08 44.1797L69.13 44.5297L69.95 49.7697C70.08 50.5897 70.82 51.1497 71.6 51.0297C72.28 50.9197 72.78 50.3297 72.81 49.6397C72.81 49.5397 72.81 49.4397 72.79 49.3297L71.97 44.0897C71.65 42.0197 73 40.0797 75 39.7697Z" fill="#34B9CA"/>
<path d="M75.9616 45.9602C77.2494 45.7595 78.1238 44.5085 77.9145 43.1661C77.7053 41.8237 76.4916 40.8982 75.2038 41.0989C73.9159 41.2997 73.0416 42.5506 73.2508 43.893C73.4601 45.2355 74.6737 46.161 75.9616 45.9602Z" fill="#ED6A4C"/>
<path d="M151.35 26.6397L163.53 24.7397" stroke="#192441" stroke-miterlimit="10" stroke-linecap="round"/>
<path d="M152.12 31.5897L164.3 29.6897" stroke="#192441" stroke-miterlimit="10" stroke-linecap="round"/>
<path d="M152.89 36.5499L165.07 34.6499" stroke="#192441" stroke-miterlimit="10" stroke-linecap="round"/>
</g>
<path d="M91.1462 174.429L84.8226 175.415C83.7312 175.585 82.9843 176.608 83.1545 177.699L84.7378 187.857C84.9079 188.948 85.9306 189.695 87.022 189.525L93.3456 188.539C94.437 188.369 95.1838 187.346 95.0137 186.255L93.4304 176.097C93.2602 175.006 92.2376 174.259 91.1462 174.429Z" fill="#192441"/>
<path d="M102.952 172.592L96.6282 173.578C95.5368 173.748 94.79 174.771 94.9601 175.862L96.5435 186.019C96.7136 187.111 97.7363 187.858 98.8276 187.688L105.151 186.702C106.243 186.532 106.99 185.509 106.819 184.418L105.236 174.26C105.066 173.169 104.043 172.422 102.952 172.592Z" fill="#192441"/>
<path d="M114.777 170.744L108.454 171.73C107.362 171.9 106.616 172.922 106.786 174.014L108.369 184.171C108.539 185.262 109.562 186.009 110.653 185.839L116.977 184.853C118.068 184.683 118.815 183.661 118.645 182.569L117.062 172.412C116.891 171.321 115.869 170.574 114.777 170.744Z" fill="#192441"/>
<path d="M126.593 168.905L120.269 169.891C119.178 170.061 118.431 171.084 118.601 172.175L120.185 182.332C120.355 183.424 121.377 184.171 122.469 184.001L128.792 183.015C129.884 182.845 130.631 181.822 130.461 180.731L128.877 170.573C128.707 169.482 127.684 168.735 126.593 168.905Z" fill="#192441"/>
<path d="M138.407 167.058L132.083 168.044C130.992 168.214 130.245 169.237 130.415 170.328L131.999 180.486C132.169 181.577 133.192 182.324 134.283 182.154L140.607 181.168C141.698 180.998 142.445 179.975 142.275 178.884L140.691 168.726C140.521 167.635 139.499 166.888 138.407 167.058Z" fill="#192441"/>
<path d="M150.223 165.22L143.899 166.205C142.808 166.376 142.061 167.398 142.231 168.49L143.814 178.647C143.984 179.738 145.007 180.485 146.098 180.315L152.422 179.329C153.513 179.159 154.26 178.136 154.09 177.045L152.507 166.888C152.337 165.796 151.314 165.05 150.223 165.22Z" fill="#192441"/>
<path d="M162.038 163.383L155.715 164.368C154.623 164.539 153.877 165.561 154.047 166.653L155.63 176.81C155.8 177.901 156.823 178.648 157.914 178.478L164.238 177.492C165.329 177.322 166.076 176.3 165.906 175.208L164.323 165.051C164.152 163.959 163.13 163.213 162.038 163.383Z" fill="#192441"/>
<path d="M173.854 161.544L167.53 162.53C166.439 162.7 165.692 163.723 165.862 164.814L167.446 174.971C167.616 176.063 168.638 176.81 169.73 176.639L176.053 175.654C177.145 175.484 177.892 174.461 177.721 173.37L176.138 163.212C175.968 162.121 174.945 161.374 173.854 161.544Z" fill="#192441"/>
<path d="M185.678 159.686L179.354 160.671C178.263 160.842 177.516 161.864 177.686 162.956L179.27 173.113C179.44 174.204 180.462 174.951 181.554 174.781L187.877 173.795C188.969 173.625 189.716 172.603 189.545 171.511L187.962 161.354C187.792 160.262 186.769 159.516 185.678 159.686Z" fill="#192441"/>
<path d="M93.7944 191.043L87.4708 192.029C86.3794 192.199 85.6325 193.221 85.8027 194.313L87.386 204.47C87.5561 205.562 88.5788 206.308 89.6702 206.138L95.9938 205.153C97.0852 204.982 97.832 203.96 97.6619 202.868L96.0786 192.711C95.9084 191.62 94.8858 190.873 93.7944 191.043Z" fill="#192441"/>
<path d="M105.61 189.206L99.2864 190.191C98.195 190.362 97.4482 191.384 97.6183 192.476L99.2017 202.633C99.3718 203.724 100.394 204.471 101.486 204.301L107.809 203.315C108.901 203.145 109.648 202.123 109.478 201.031L107.894 190.874C107.724 189.782 106.701 189.036 105.61 189.206Z" fill="#192441"/>
<path d="M117.426 187.367L111.102 188.353C110.011 188.523 109.264 189.546 109.434 190.637L111.017 200.795C111.187 201.886 112.21 202.633 113.301 202.463L119.625 201.477C120.716 201.307 121.463 200.284 121.293 199.193L119.71 189.035C119.54 187.944 118.517 187.197 117.426 187.367Z" fill="#192441"/>
<path d="M129.25 185.519L122.926 186.504C121.835 186.675 121.088 187.697 121.258 188.789L122.841 198.946C123.011 200.037 124.034 200.784 125.125 200.614L131.449 199.628C132.54 199.458 133.287 198.436 133.117 197.344L131.534 187.187C131.364 186.095 130.341 185.349 129.25 185.519Z" fill="#192441"/>
<path d="M141.055 183.682L134.732 184.668C133.64 184.838 132.893 185.86 133.064 186.952L134.647 197.109C134.817 198.2 135.84 198.947 136.931 198.777L143.255 197.791C144.346 197.621 145.093 196.599 144.923 195.507L143.34 185.35C143.169 184.259 142.147 183.512 141.055 183.682Z" fill="#192441"/>
<path d="M152.881 181.843L146.557 182.829C145.466 182.999 144.719 184.022 144.889 185.113L146.472 195.27C146.643 196.362 147.665 197.109 148.757 196.939L155.08 195.953C156.172 195.783 156.919 194.76 156.748 193.669L155.165 183.511C154.995 182.42 153.972 181.673 152.881 181.843Z" fill="#192441"/>
<path d="M164.687 179.996L158.363 180.982C157.272 181.152 156.525 182.175 156.695 183.266L158.278 193.424C158.448 194.515 159.471 195.262 160.562 195.092L166.886 194.106C167.977 193.936 168.724 192.913 168.554 191.822L166.971 181.664C166.801 180.573 165.778 179.826 164.687 179.996Z" fill="#192441"/>
<path d="M176.512 178.158L170.189 179.143C169.097 179.314 168.35 180.336 168.52 181.428L170.104 191.585C170.274 192.676 171.297 193.423 172.388 193.253L178.712 192.267C179.803 192.097 180.55 191.074 180.38 189.983L178.796 179.826C178.626 178.734 177.604 177.988 176.512 178.158Z" fill="#192441"/>
<path d="M188.316 176.311L181.993 177.296C180.901 177.467 180.154 178.489 180.325 179.581L181.908 189.738C182.078 190.829 183.101 191.576 184.192 191.406L190.516 190.42C191.607 190.25 192.354 189.228 192.184 188.136L190.6 177.979C190.43 176.887 189.408 176.141 188.316 176.311Z" fill="#192441"/>
<path d="M96.3848 207.675L90.0612 208.661C88.9698 208.831 88.223 209.854 88.3931 210.945L89.9764 221.103C90.1466 222.194 91.1692 222.941 92.2606 222.771L98.5843 221.785C99.6756 221.615 100.422 220.592 100.252 219.501L98.669 209.344C98.4989 208.252 97.4762 207.505 96.3848 207.675Z" fill="#192441"/>
<path d="M108.21 205.837L101.887 206.823C100.795 206.993 100.049 208.015 100.219 209.107L101.802 219.264C101.972 220.355 102.995 221.102 104.086 220.932L110.41 219.946C111.501 219.776 112.248 218.754 112.078 217.662L110.495 207.505C110.324 206.414 109.302 205.667 108.21 205.837Z" fill="#192441"/>
<path d="M120.016 204L113.692 204.986C112.601 205.156 111.854 206.178 112.024 207.27L113.608 217.427C113.778 218.519 114.8 219.265 115.892 219.095L122.216 218.11C123.307 217.939 124.054 216.917 123.884 215.825L122.3 205.668C122.13 204.577 121.107 203.83 120.016 204Z" fill="#192441"/>
<path d="M131.84 202.152L125.516 203.137C124.425 203.307 123.678 204.33 123.848 205.421L125.432 215.579C125.602 216.67 126.625 217.417 127.716 217.247L134.04 216.261C135.131 216.091 135.878 215.068 135.708 213.977L134.124 203.82C133.954 202.728 132.931 201.981 131.84 202.152Z" fill="#192441"/>
<path d="M143.646 200.304L137.322 201.29C136.231 201.46 135.484 202.483 135.654 203.574L137.237 213.732C137.408 214.823 138.43 215.57 139.522 215.4L145.845 214.414C146.937 214.244 147.683 213.221 147.513 212.13L145.93 201.972C145.76 200.881 144.737 200.134 143.646 200.304Z" fill="#192441"/>
<path d="M155.461 198.466L149.138 199.451C148.046 199.622 147.3 200.644 147.47 201.736L149.053 211.893C149.223 212.984 150.246 213.731 151.337 213.561L157.661 212.575C158.752 212.405 159.499 211.383 159.329 210.291L157.746 200.134C157.575 199.042 156.553 198.296 155.461 198.466Z" fill="#192441"/>
<path d="M167.287 196.627L160.963 197.613C159.872 197.783 159.125 198.806 159.295 199.897L160.879 210.055C161.049 211.146 162.071 211.893 163.163 211.723L169.486 210.737C170.578 210.567 171.325 209.544 171.154 208.453L169.571 198.295C169.401 197.204 168.378 196.457 167.287 196.627Z" fill="#192441"/>
<path d="M179.091 194.78L172.767 195.766C171.676 195.936 170.929 196.959 171.099 198.05L172.683 208.208C172.853 209.299 173.875 210.046 174.967 209.876L181.29 208.89C182.382 208.72 183.129 207.697 182.959 206.606L181.375 196.449C181.205 195.357 180.182 194.61 179.091 194.78Z" fill="#192441"/>
<path d="M190.917 192.942L184.593 193.928C183.502 194.098 182.755 195.12 182.925 196.212L184.508 206.369C184.678 207.46 185.701 208.207 186.792 208.037L193.116 207.051C194.207 206.881 194.954 205.859 194.784 204.767L193.201 194.61C193.031 193.519 192.008 192.772 190.917 192.942Z" fill="#192441"/>
<path d="M110.744 222.475L92.6029 225.303C91.5116 225.473 90.7647 226.496 90.9348 227.587L92.5182 237.745C92.6883 238.836 93.711 239.583 94.8024 239.413L112.943 236.585C114.035 236.415 114.782 235.392 114.611 234.301L113.028 224.144C112.858 223.052 111.835 222.305 110.744 222.475Z" fill="#192441"/>
<path d="M122.557 220.63L116.234 221.616C115.142 221.786 114.395 222.809 114.565 223.9L116.149 234.058C116.319 235.149 117.342 235.896 118.433 235.726L124.757 234.74C125.848 234.57 126.595 233.547 126.425 232.456L124.841 222.298C124.671 221.207 123.649 220.46 122.557 220.63Z" fill="#192441"/>
<path d="M169.87 213.255L128.045 219.774C126.954 219.944 126.207 220.967 126.377 222.058L127.96 232.216C128.13 233.307 129.153 234.054 130.244 233.884L172.069 227.364C173.161 227.194 173.908 226.171 173.737 225.08L172.154 214.923C171.984 213.831 170.961 213.084 169.87 213.255Z" fill="#192441"/>
<path d="M181.634 211.421L175.31 212.406C174.219 212.576 173.472 213.599 173.642 214.69L175.225 224.848C175.395 225.939 176.418 226.686 177.509 226.516L183.833 225.53C184.924 225.36 185.671 224.337 185.501 223.246L183.918 213.089C183.748 211.997 182.725 211.25 181.634 211.421Z" fill="#192441"/>
<path d="M193.449 209.584L187.126 210.569C186.034 210.74 185.287 211.762 185.458 212.854L187.041 223.011C187.211 224.102 188.234 224.849 189.325 224.679L195.649 223.693C196.74 223.523 197.487 222.5 197.317 221.409L195.734 211.252C195.563 210.16 194.541 209.414 193.449 209.584Z" fill="#192441"/>
<path d="M181.98 135.982L81.1873 151.694C80.0959 151.864 79.3491 152.887 79.5192 153.978L81.7586 168.345C81.9288 169.436 82.9514 170.183 84.0428 170.013L184.836 154.301C185.927 154.131 186.674 153.108 186.504 152.017L184.264 137.65C184.094 136.559 183.071 135.812 181.98 135.982Z" fill="white" stroke="#EDEDED" stroke-miterlimit="10"/>
<path d="M84.09 155.88L85.58 165.48" stroke="#192441" stroke-width="0.28" stroke-miterlimit="10"/>
<path d="M127.44 244.81L166.22 238.76" stroke="#192441" stroke-width="1.42" stroke-miterlimit="10" stroke-linecap="round"/>
<path opacity="0.5" d="M76.58 73.03L161.25 59.83C164.57 59.31 166.7 61.74 167.22 65.06L169.79 80.14C170.31 83.46 168.03 86.58 164.71 87.1L88.72 98.95C88.04 100.6 86.31 103.33 83.47 105.28C83.13 105.51 82.67 105.19 82.8 104.8C83.12 103.8 83.29 102.18 82.5 99.92L80.04 100.3C76.71 100.82 73.6 98.54 73.08 95.22L70.51 80.14C69.99 76.82 73.26 73.55 76.58 73.03Z" fill="#192441"/>
<path d="M79.61 117.93C82.4267 117.93 84.71 115.647 84.71 112.83C84.71 110.013 82.4267 107.73 79.61 107.73C76.7934 107.73 74.51 110.013 74.51 112.83C74.51 115.647 76.7934 117.93 79.61 117.93Z" fill="white" stroke="#192441" stroke-width="0.99" stroke-miterlimit="10"/>
<path d="M81.23 110.52C81.3 110.71 81.3 110.93 81.21 111.14C81.1 111.4 80.88 111.57 80.61 111.61C80.89 111.86 81.09 112.21 81.15 112.59C81.29 113.47 80.71 114.29 79.87 114.42C79.29 114.51 78.73 114.25 78.39 113.79L78.62 115.25C78.63 115.33 78.63 115.41 78.62 115.49C79.06 115.67 79.56 115.74 80.06 115.67C81.57 115.43 82.6 113.97 82.35 112.4C82.23 111.63 81.83 110.96 81.23 110.51V110.52Z" fill="#34B9CA"/>
<path d="M79.36 111.24C79.66 111.19 79.96 111.24 80.23 111.37C80.54 111.52 80.9 111.37 81.03 111.06C81.17 110.74 81.03 110.37 80.72 110.22C80.23 109.99 79.69 109.91 79.16 109.99C77.7 110.22 76.69 111.6 76.85 113.11L76.87 113.26L77.22 115.48C77.27 115.83 77.59 116.06 77.92 116.01C78.21 115.96 78.42 115.71 78.43 115.42C78.43 115.38 78.43 115.33 78.43 115.29L78.08 113.07C77.94 112.19 78.52 111.37 79.36 111.24Z" fill="#34B9CA"/>
<path d="M79.7684 113.86C80.3141 113.775 80.6847 113.246 80.5963 112.678C80.5078 112.111 79.9937 111.719 79.448 111.804C78.9023 111.89 78.5317 112.419 78.6201 112.986C78.7086 113.554 79.2227 113.945 79.7684 113.86Z" fill="#ED6A4C"/>
<path d="M102.18 104.12L166.98 94.1299C169.55 93.7299 171.95 95.4999 172.35 98.0699L174.56 112.42C174.96 114.99 173.19 117.39 170.62 117.79L167.46 118.28C167.73 119.59 168.23 121.54 169.01 123.09C169.4 123.86 168.68 124.71 167.85 124.47C165.24 123.72 162.86 122.18 160.32 119.38L105.81 127.78C103.24 128.18 100.84 126.41 100.44 123.84L98.23 109.49C97.83 106.92 99.6 104.52 102.17 104.12H102.18Z" fill="#ED6A4D"/>
<path d="M177.01 133.36C179.827 133.36 182.11 131.077 182.11 128.26C182.11 125.443 179.827 123.16 177.01 123.16C174.193 123.16 171.91 125.443 171.91 128.26C171.91 131.077 174.193 133.36 177.01 133.36Z" fill="#ED6A4C" stroke="#192441" stroke-width="0.99" stroke-miterlimit="10"/>
<path d="M151.25 39.22H244.62C249.95 39.22 254.27 43.54 254.27 48.87V78.62C254.27 83.95 249.95 88.27 244.62 88.27H238.07C238.22 91 238.62 95.12 239.72 98.49C240.27 100.16 238.54 101.67 236.94 100.93C231.9 98.6 227.55 94.73 223.28 88.27H151.26C145.93 88.27 141.61 83.95 141.61 78.62V48.87C141.61 43.54 145.93 39.22 151.26 39.22H151.25Z" fill="#ED6A4D"/>
<path d="M172.44 68.7301C176.146 68.7301 179.15 65.7259 179.15 62.0201C179.15 58.3142 176.146 55.3101 172.44 55.3101C168.734 55.3101 165.73 58.3142 165.73 62.0201C165.73 65.7259 168.734 68.7301 172.44 68.7301Z" fill="white"/>
<path d="M198.36 68.7301C202.066 68.7301 205.07 65.7259 205.07 62.0201C205.07 58.3142 202.066 55.3101 198.36 55.3101C194.654 55.3101 191.65 58.3142 191.65 62.0201C191.65 65.7259 194.654 68.7301 198.36 68.7301Z" fill="white"/>
<path d="M224.29 68.7301C227.996 68.7301 231 65.7259 231 62.0201C231 58.3142 227.996 55.3101 224.29 55.3101C220.584 55.3101 217.58 58.3142 217.58 62.0201C217.58 65.7259 220.584 68.7301 224.29 68.7301Z" fill="white"/>
<defs>
<filter id="filter0_d_220_1693" x="33.5251" y="-9.18823" width="163.173" height="79.3599" filterUnits="userSpaceOnUse" color-interpolation-filters="sRGB">
<feFlood flood-opacity="0" result="BackgroundImageFix"/>
<feColorMatrix in="SourceAlpha" type="matrix" values="0 0 0 0 0 0 0 0 0 0 0 0 0 0 0 0 0 0 127 0" result="hardAlpha"/>
<feOffset/>
<feGaussianBlur stdDeviation="2"/>
<feColorMatrix type="matrix" values="0 0 0 0 0.113725 0 0 0 0 0.113725 0 0 0 0 0.105882 0 0 0 0.5 0"/>
<feBlend mode="normal" in2="BackgroundImageFix" result="effect1_dropShadow_220_1693"/>
<feBlend mode="normal" in="SourceGraphic" in2="effect1_dropShadow_220_1693" result="shape"/>
</filter>
</defs>
</svg>
