<?xml version="1.0" encoding="UTF-8"?><svg id="Laag_1" xmlns="http://www.w3.org/2000/svg" viewBox="0 0 600 427"><defs><style>.cls-1{fill:none;}.cls-1,.cls-2,.cls-3,.cls-4{stroke-width:0px;}.cls-5{stroke:#fff;stroke-linecap:round;stroke-linejoin:round;stroke-width:5.53px;}.cls-5,.cls-3{fill:#ed6a4c;}.cls-2{fill:#0b2244;}.cls-4{fill:#00c5d2;}</style></defs><circle class="cls-3" cx="380.75" cy="89.18" r="3.25"/><path class="cls-4" d="m243.97,59.94c.34,1.8.02,3.73-1.05,5.38-1.36,2.1-3.67,3.35-6.17,3.35h-.05c2.24,2.57,3.51,5.88,3.51,9.39,0,7.9-6.43,14.33-14.33,14.33-5.44,0-10.18-3.05-12.61-7.53v13.16c0,.74-.11,1.45-.32,2.12,3.8,2.23,8.21,3.51,12.92,3.51,14.12,0,25.6-11.49,25.6-25.6,0-6.89-2.74-13.36-7.51-18.12h0Z"/><path class="cls-4" d="m225.87,63.73c2.78,0,5.48.8,7.8,2.31h0c2.61,1.7,6.1.96,7.8-1.65s.96-6.1-1.65-7.8h0c-4.15-2.71-8.97-4.14-13.95-4.14-13.67,0-24.88,10.78-25.57,24.28h-.03v21.29c0,3.11,2.52,5.64,5.64,5.64,2.72,0,4.98-1.92,5.52-4.48.08-.37.12-.76.12-1.16v-19.97c0-7.9,6.43-14.33,14.33-14.33h-.01Z"/><circle class="cls-3" cx="225.87" cy="78.05" r="9.26"/><path class="cls-2" d="m273.63,92.38h-.02c-1.04,0-1.98-.59-2.45-1.52l-9.75-19.5c-.68-1.36-.13-3.01,1.23-3.69,1.36-.68,3.01-.13,3.69,1.23l7.33,14.65,7.27-14.09c.7-1.35,2.36-1.88,3.71-1.19,1.35.7,1.88,2.36,1.19,3.71l-9.75,18.91c-.47.92-1.42,1.49-2.45,1.49"/><path class="cls-2" d="m310.03,92.38c-1.52,0-2.75-1.23-2.75-2.75v-18.91c0-1.52,1.23-2.75,2.75-2.75s2.75,1.23,2.75,2.75v18.91c0,1.52-1.23,2.75-2.75,2.75"/><path class="cls-2" d="m300.28,72.88c-3.86,0-7,3.14-7,7s3.14,7,7,7,7-3.14,7-7-3.14-7-7-7m0,19.5c-6.89,0-12.5-5.61-12.5-12.5s5.61-12.5,12.5-12.5,12.5,5.61,12.5,12.5-5.61,12.5-12.5,12.5"/><path class="cls-2" d="m340.29,91.58c-1.52,0-2.75-1.23-2.75-2.75v-18.19c0-1.52,1.23-2.75,2.75-2.75s2.75,1.23,2.75,2.75v18.19c0,1.52-1.23,2.75-2.75,2.75"/><path class="cls-2" d="m330.54,92.3c-6.89,0-12.5-5.61-12.5-12.5h5.51c0,3.86,3.14,7,7,7s7-3.14,7-7h5.51c0,6.89-5.61,12.5-12.5,12.5"/><path class="cls-2" d="m320.79,82.55c-1.52,0-2.75-1.23-2.75-2.75v-9.19c0-1.52,1.23-2.75,2.75-2.75s2.75,1.23,2.75,2.75v9.19c0,1.52-1.23,2.75-2.75,2.75"/><path class="cls-2" d="m351.52,92.32c-1.52,0-2.75-1.23-2.75-2.75v-24.78c0-1.52,1.23-2.75,2.75-2.75s2.75,1.23,2.75,2.75v24.78c0,1.52-1.23,2.75-2.75,2.75"/><path class="cls-2" d="m371.52,92.28c-6.89,0-12.5-5.61-12.5-12.5,0-1.52,1.23-2.75,2.75-2.75s2.75,1.23,2.75,2.75c0,3.86,3.14,7,7,7,1.52,0,2.75,1.23,2.75,2.75s-1.23,2.75-2.75,2.75"/><path class="cls-2" d="m361.77,82.53c-1.52,0-2.75-1.23-2.75-2.75v-14.94c0-1.52,1.23-2.75,2.75-2.75s2.75,1.23,2.75,2.75v14.94c0,1.52-1.23,2.75-2.75,2.75"/><path class="cls-2" d="m366.65,78.46h-4.88c-1.52,0-2.75-1.23-2.75-2.75s1.23-2.75,2.75-2.75h4.88c1.52,0,2.75,1.23,2.75,2.75s-1.23,2.75-2.75,2.75"/><g id="_362_Cloud_data_security"><path class="cls-2" d="m250.92,238.99h-1.27c-.84,0-1.69-.42-2.11-.84-.42-.84-.84-1.69-.42-2.11.84-3.38,1.27-6.76,1.27-9.71,0-21.95-17.73-39.67-39.68-39.67-16.88,0-31.66,10.55-37.14,26.59-.42.84-.85,1.26-1.69,1.69-.84.42-1.69,0-2.11-.42-6.33-4.22-13.93-6.75-21.95-6.75-21.95,0-39.68,17.73-39.68,39.68h0v.42c0,1.27-.85,2.53-2.11,2.53-19.84,2.54-34.61,19.42-34.61,39.26,0,21.95,17.73,39.67,39.68,39.67h81.89v-22.37c0-1.27.84-2.53,2.11-2.53l36.3-7.18h.84l36.3,7.18c1.27.42,2.11,1.27,2.11,2.53v18.99c16.88-6.75,27.86-23.21,27.86-41.36-.42-25.75-20.68-45.59-45.59-45.59Zm-105.53-5.49h58.25c1.27,0,2.53,1.27,2.53,2.54s-1.26,2.53-2.53,2.53h-58.25c-1.26,0-2.53-1.26-2.53-2.53s1.27-2.54,2.53-2.54Zm5.49,84.42h-42.21c-16.04,0-29.13-13.08-29.13-29.12,0-1.27,1.27-2.54,2.53-2.54s2.54,1.27,2.54,2.54c0,13.08,10.55,23.64,23.64,23.64h42.21c1.27,0,2.54,1.27,2.54,2.54s-.84,2.95-2.11,2.95Zm10.55-60.36c-2.96,0-5.49-2.53-5.49-5.49s2.54-5.49,5.49-5.49,5.49,2.53,5.49,5.49-2.54,5.49-5.49,5.49Zm63.31-2.96h-47.7c-1.27,0-2.53-1.26-2.53-2.53s1.27-2.53,2.53-2.53h47.7c1.27,0,2.53,1.27,2.53,2.53s-1.27,2.53-2.53,2.53Z"/><path class="cls-2" d="m288.07,209.86c3.03,0,5.49,2.46,5.49,5.49s-2.46,5.49-5.49,5.49-5.49-2.46-5.49-5.49,2.46-5.49,5.49-5.49Z"/><path class="cls-3" d="m177.05,162.17c3.03,0,5.49,2.46,5.49,5.49s-2.46,5.49-5.49,5.49-5.49-2.46-5.49-5.49,2.46-5.49,5.49-5.49Z"/><path class="cls-2" d="m119.23,183.27c3.03,0,5.49,2.46,5.49,5.49s-2.46,5.49-5.49,5.49-5.49-2.46-5.49-5.49,2.46-5.49,5.49-5.49Z"/><path class="cls-2" d="m77.02,236.04c3.03,0,5.49,2.46,5.49,5.49s-2.46,5.49-5.49,5.49-5.49-2.46-5.49-5.49,2.46-5.49,5.49-5.49Z"/><path class="cls-2" d="m82.08,352.11c3.03,0,5.49,2.46,5.49,5.49s-2.46,5.49-5.49,5.49-5.49-2.46-5.49-5.49,2.46-5.49,5.49-5.49Z"/><path class="cls-2" d="m171.99,352.11c3.03,0,5.49,2.46,5.49,5.49s-2.46,5.49-5.49,5.49-5.49-2.46-5.49-5.49,2.46-5.49,5.49-5.49Z"/><path class="cls-2" d="m79.55,173.14c0-4.22,3.38-8.02,8.02-8.02,1.69,0,2.95.42,4.22,1.27.84.42,1.69.42,2.53.42.84-.42,1.27-.84,1.69-1.69,1.26-5.91,6.75-10.13,12.66-10.13,7.17,0,13.08,5.91,13.08,13.08,0,1.27,1.27,2.54,2.53,2.54h37.15c1.26,0,2.53-1.27,2.53-2.54s-1.27-2.53-2.53-2.53h-34.61c-1.27-8.87-8.87-16.04-18.15-16.04-7.6,0-13.93,4.64-16.88,11.39-1.27-.42-2.54-.84-4.22-.84-6.33,0-11.82,4.65-13.09,10.56h-8.02c-1.27,0-2.53,1.27-2.53,2.53s1.26,2.53,2.53,2.53h10.55c1.27,0,2.53-1.27,2.53-2.53Z"/><path class="cls-3" d="m303.68,180.74h-18.57c-1.27-8.86-8.87-16.04-18.15-16.04-10.13,0-18.57,8.44-18.57,18.57,0,1.27,1.26,2.53,2.53,2.53s2.54-1.27,2.54-2.53c0-7.18,5.91-13.09,13.08-13.09s13.09,5.91,13.09,13.09c0,1.27,1.27,2.53,2.53,2.53h21.11c1.27,0,2.53-1.27,2.53-2.53s-.42-2.54-2.11-2.54Z"/><path class="cls-3" d="m95.59,204.8c0-7.18-5.91-13.08-13.08-13.08s-13.09,5.91-13.09,13.08,5.91,13.08,13.09,13.08,13.08-5.91,13.08-13.08Z"/><path class="cls-3" d="m121.76,355.07c-5.91,0-10.55,4.64-10.55,10.55s4.64,10.55,10.55,10.55,10.55-4.65,10.55-10.55-4.64-10.55-10.55-10.55Z"/><path class="cls-2" d="m222.22,170.18c8.87,0,16.04-7.18,16.04-16.04s-7.17-16.04-16.04-16.04-16.04,7.6-16.04,16.46,7.18,15.62,16.04,15.62Z"/></g><path class="cls-5" d="m231.11,288.66c-12.15,0-20.03,8.16-29.35,11.13-3.79,1.21-5.68,1.81-6.45,2.67-.77.85-.99,2.1-1.44,4.59-4.81,26.65,5.7,51.29,30.75,60.88,2.69,1.03,4.04,1.55,6.51,1.55s3.82-.52,6.51-1.55c25.05-9.59,35.54-34.23,30.73-60.88-.45-2.49-.67-3.74-1.44-4.59-.77-.85-2.66-1.46-6.45-2.66-9.32-2.97-17.21-11.13-29.37-11.13Z"/><path class="cls-5" d="m218.99,333.1s4.04,0,8.08,8.08c0,0,12.83-20.2,24.24-24.24"/><path class="cls-2" d="m345.13,247.33c2.8,0,5.07,2.27,5.07,5.07s-2.27,5.07-5.07,5.07-5.06-2.27-5.06-5.07,2.27-5.07,5.06-5.07Z"/><path class="cls-3" d="m355.68,357.51c3.03,0,5.49,2.46,5.49,5.49s-2.46,5.49-5.49,5.49-5.49-2.46-5.49-5.49,2.46-5.49,5.49-5.49Z"/><path class="cls-3" d="m551.11,315.3c3.03,0,5.49,2.46,5.49,5.49s-2.46,5.49-5.49,5.49-5.49-2.46-5.49-5.49,2.46-5.49,5.49-5.49Z"/><path class="cls-3" d="m524.52,141.39c3.03,0,5.49,2.46,5.49,5.49s-2.46,5.49-5.49,5.49-5.49-2.46-5.49-5.49,2.46-5.49,5.49-5.49Z"/><path class="cls-3" d="m429.55,341.89c0-1.27,1.27-2.53,2.54-2.53h89.49v-32.93c-2.11-2.11-3.8-3.8-5.49-5.91-21.53-21.95-21.53-22.37-21.53-65v-8.02c0-1.27.84-2.53,2.11-2.53l24.91-5.07v-40.94c0-10.55-8.44-18.99-18.99-18.99h-128.32c3.38,3.38,5.49,8.02,5.49,13.09v168.84c.42,16.46,12.24,23.64,22.37,24.48h5.49c10.13-.85,21.95-8.02,21.95-24.48Zm18.99-165.88c16.04,0,29.13,13.08,29.13,29.12s-13.08,29.13-29.13,29.13-29.12-13.09-29.12-29.13,13.08-29.12,29.12-29.12Zm-50.65,68.38h73.87c1.27,0,2.54,1.27,2.54,2.53s-1.27,2.53-2.54,2.53h-73.87c-1.27,0-2.53-1.27-2.53-2.53s1.27-2.53,2.53-2.53Zm0,16.04h79.35c1.27,0,2.54,1.27,2.54,2.53s-1.27,2.54-2.54,2.54h-79.35c-1.27,0-2.53-1.27-2.53-2.54s1.27-2.53,2.53-2.53Zm0,15.62h84.42c1.27,0,2.54,1.27,2.54,2.53s-1.26,2.53-2.54,2.53h-84.42c-1.27,0-2.53-1.27-2.53-2.53s1.27-2.53,2.53-2.53Zm0,16.04h89.91c1.27,0,2.53,1.27,2.53,2.53s-1.27,2.54-2.53,2.54h-89.91c-1.27,0-2.53-1.27-2.53-2.54s1.27-2.53,2.53-2.53Zm0,15.62h105.53c1.27,0,2.54,1.27,2.54,2.53s-1.27,2.53-2.54,2.53h-105.53c-1.27,0-2.53-1.27-2.53-2.53s1.27-2.53,2.53-2.53Zm0,21.11c-1.27,0-2.53-1.27-2.53-2.54s1.27-2.53,2.53-2.53h105.53c1.27,0,2.54,1.27,2.54,2.53s-1.27,2.54-2.54,2.54h-105.53Z"/><path class="cls-2" d="m556.18,186.56c4.22,0,8.02-3.38,8.02-8.02s-3.38-8.02-8.02-8.02-8.02,3.38-8.02,8.02,3.8,8.02,8.02,8.02Z"/><path class="cls-2" d="m448.54,228.77c13.09,0,23.64-10.55,23.64-23.64s-10.55-23.64-23.64-23.64-23.64,10.55-23.64,23.64,10.55,23.64,23.64,23.64Zm-10.55-26.6h8.02v-8.02c0-1.27,1.27-2.54,2.53-2.54s2.54,1.27,2.54,2.54v8.02h8.02c1.27,0,2.54,1.27,2.54,2.54s-1.27,2.53-2.54,2.53h-8.02v8.02c0,1.26-1.27,2.53-2.54,2.53s-2.53-1.27-2.53-2.53v-8.02h-8.02c-1.27,0-2.53-1.26-2.53-2.53s1.27-2.54,2.53-2.54Z"/><path class="cls-3" d="m426.59,363.41c-1.27,1.27-2.54,2.11-3.8,3.38h100.46c13.09,0,21.95-8.44,22.79-21.95h-111.02c-.84,7.18-3.38,13.93-8.44,18.57Z"/><path class="cls-3" d="m361.17,159.96c-7.18,0-13.09,5.91-13.09,13.09v29.12h26.59v-29.12c-.42-7.18-6.33-13.09-13.5-13.09Z"/><path class="cls-3" d="m353.15,315.72c0-4.22-3.38-8.02-8.02-8.02s-8.02,3.38-8.02,8.02c0,4.22,3.38,8.02,8.02,8.02s8.02-3.8,8.02-8.02Z"/><path class="cls-5" d="m519.33,220.95c-12.15,0-20.03,8.16-29.35,11.13-3.79,1.21-5.68,1.81-6.45,2.67-.77.85-.99,2.1-1.44,4.59-4.81,26.65,5.7,51.29,30.75,60.88,2.69,1.03,4.04,1.55,6.51,1.55s3.82-.52,6.51-1.55c25.05-9.59,35.54-34.23,30.73-60.88-.45-2.49-.67-3.74-1.44-4.59-.77-.85-2.66-1.46-6.45-2.66-9.32-2.97-17.21-11.13-29.37-11.13Z"/><path class="cls-5" d="m507.22,265.4s4.04,0,8.08,8.08c0,0,12.83-20.2,24.24-24.24"/><rect class="cls-1" x="-.5" y="-.5" width="600" height="427"/></svg>