<svg xmlns="http://www.w3.org/2000/svg" width="1052" height="665" viewBox="0 0 1052 665" fill="none"><g clip-path="url(#clip0_137_513)"><path d="M882.574 664.716C916.638 608.154 936.25 541.956 936.25 471.259C936.25 263.848 767.495 95.1157 560.084 95.1157C352.673 95.1157 183.963 263.871 183.963 471.282C183.963 541.979 203.575 608.177 237.64 664.716H882.596H882.574Z" fill="#94D1D9"></path><path d="M705.501 594.723C739.498 559.182 760.382 510.982 760.382 457.896C760.382 348.544 671.732 259.894 562.379 259.894C453.027 259.894 364.377 348.544 364.377 457.896C364.377 510.959 385.261 559.159 419.258 594.723H705.524H705.501Z" fill="#F7F7F7"></path><rect x="420.45" y="317.386" width="283.859" height="283.859" rx="141.929" fill="#ED6A4C" fill-opacity="0.8"></rect><path d="M916.069 664.665C866.51 664.665 826.208 624.346 826.208 574.803C826.208 525.261 866.527 484.942 916.069 484.942C965.612 484.942 1005.93 525.261 1005.93 574.803C1005.93 624.346 965.612 664.665 916.069 664.665Z" fill="#5CC1D1"></path><path d="M172.299 664.716C100.339 664.716 41.7979 606.176 41.7979 534.215C41.7979 462.255 100.339 403.714 172.299 403.714C244.259 403.714 302.8 462.255 302.8 534.215C302.8 606.176 244.259 664.716 172.299 664.716Z" fill="#5CC1D1"></path><path d="M563.725 459.446C563.725 459.446 534.653 558.797 545.558 571.19C571.91 601.108 636.878 592.179 636.878 592.179L767.738 587.997C767.738 587.997 765.455 576.348 742.747 572.063C720.038 567.778 710.493 579.452 710.493 579.452C691.403 568.368 600.135 537.551 600.135 537.551C598.775 537.038 598.108 535.088 598.672 533.395L616.428 482.077L563.725 459.471V459.446Z" fill="#F4A39B"></path><path d="M449.132 331.28C449.132 331.28 520.438 332.357 541.068 351.114C561.698 369.871 615.453 443.64 615.453 443.64L552.948 504.913L549.818 617.684L297.899 573.499L320.402 430.502L390.425 350.472L449.158 331.254L449.132 331.28Z" fill="#35B9CA"></path><path opacity="0.2" d="M386.037 403.74C386.037 403.74 380.11 451.979 367.614 478.792C355.118 505.606 341.827 520.924 348.575 536.088C355.324 551.253 377.672 557.283 377.672 557.283L328.946 573.473L287.892 543.709L336.977 446.257L386.063 403.714L386.037 403.74Z" fill="#1F2D49"></path><path d="M277.141 465.167C277.141 465.167 239.037 564.519 253.329 576.912C287.841 606.83 372.951 597.901 372.951 597.901L544.352 593.718C544.352 593.718 541.376 582.069 511.612 577.784C481.847 573.499 469.351 585.174 469.351 585.174C444.36 574.089 324.789 543.273 324.789 543.273C323.019 542.76 322.121 540.81 322.891 539.116L346.163 487.799L277.115 465.193L277.141 465.167Z" fill="#F4A39B"></path><path d="M449.132 331.28C449.132 331.28 359.865 332.126 328.305 369.203C296.744 406.28 269.392 469.94 269.392 469.94C269.392 469.94 314.629 494.932 344.983 501.475C344.983 501.475 362.252 478.254 377.134 425.884C392.016 373.514 449.158 331.254 449.158 331.254L449.132 331.28Z" fill="#35B9CA"></path><path d="M571.884 577.784L533.935 587.201C532.524 587.535 531.523 588.817 531.523 590.28C531.523 592.025 532.934 593.436 534.679 593.462L579.762 593.744L571.91 577.81L571.884 577.784Z" fill="#243651"></path><path d="M766.994 577.656H573.27C568.834 577.656 565.238 581.252 565.238 585.687C565.238 590.123 568.834 593.719 573.27 593.719H766.994C771.429 593.719 775.025 590.123 775.025 585.687C775.025 581.252 771.429 577.656 766.994 577.656Z" fill="#1F2D49"></path><path d="M542.505 531.111C542.505 531.111 525.826 532.805 523.62 522.746C521.747 514.176 563.75 403.535 576.4 370.564C578.53 364.996 583.867 361.352 589.82 361.352H833.553C836.401 361.352 839.172 362.224 841.507 363.892C843.945 365.611 845.177 368.588 844.689 371.513L843.765 377.107L542.505 531.111Z" fill="#192541"></path><path d="M586.356 373.335L531.138 523.747C529.829 527.314 532.472 531.111 536.295 531.111H783.723C786.495 531.111 788.958 529.366 789.882 526.775L843.791 377.081C845.176 373.232 842.328 369.178 838.223 369.178H592.308C589.666 369.178 587.279 370.82 586.381 373.309L586.356 373.335Z" fill="#1F2D49"></path><path d="M663.23 478.818L726.607 593.411H691.48L687.118 577.939L661.306 486.157C660.561 483.54 661.306 480.743 663.23 478.818Z" fill="#192541"></path><path d="M686.81 576.912C686.81 576.912 687.708 581.197 682.371 582.403C677.034 583.609 685.168 585.687 685.168 585.687L692.43 581.813L686.81 576.912Z" fill="#192541"></path><path d="M690.839 576.912C690.839 576.912 692.968 583.071 683.577 583.071H643.601C640.419 583.071 638.007 585.893 638.494 589.023C638.879 591.538 641.06 593.385 643.601 593.385H704.463L690.839 576.887V576.912Z" fill="#283D56"></path><path d="M663.229 478.818H709.236L740.925 584.276C742.284 588.844 738.872 593.411 734.125 593.411H695.483L692.583 583.096L663.255 478.818H663.229Z" fill="#283D56"></path><path d="M439.613 268.929L423.217 256.92C423.217 256.92 427.553 301.746 423.217 332.845C423.217 332.845 441.05 355.271 461.525 365.688C464.528 367.228 467.889 367.792 470.352 365.509C470.352 365.509 491.059 352.859 491.752 345.597C492.059 342.416 492.547 336.206 493.035 329.792C493.804 319.733 494.548 309.162 494.548 309.162L439.613 268.929Z" fill="#F4A39B"></path><path opacity="0.1" d="M493.009 329.766C493.778 319.707 494.523 309.136 494.523 309.136L439.587 268.903C434.66 310.906 473.123 329.74 493.009 329.74V329.766Z" fill="#282323"></path><path d="M419.701 243.834C419.701 243.834 409.387 218.817 414.031 197.648C418.675 176.48 437.432 180.713 441.665 178.892C445.899 177.07 443.282 168.192 460.217 163.368C477.152 158.544 493.163 177.455 511.817 175.864C530.471 174.273 535.038 169.347 540.478 176.403C545.917 183.459 540.478 189.771 540.478 189.771C540.478 189.771 550.69 191.875 549.792 198.572C548.894 205.269 545.917 207.373 542.582 208.605C542.582 208.605 544.25 213.069 540.016 216.662C535.474 220.536 527.494 220.331 525.005 220.459C517.641 220.844 505.838 233.75 505.838 233.75L434.609 260.307L419.676 243.886L419.701 243.834Z" fill="#282323"></path><path d="M525.031 220.408C525.031 220.408 515.512 221.665 504.119 212.813C492.727 203.96 468.633 190.002 457.523 197.597C446.412 205.192 443.59 213.762 443.59 235.931C443.59 258.101 430.606 253.354 430.606 253.354C430.606 253.354 432.197 239.421 427.425 238.138C422.652 236.855 415.878 238.985 414.467 243.603C413.056 248.222 415.083 260.153 423.14 261.359C431.197 262.565 436.251 297.256 464.681 313.19C493.111 329.124 508.994 319.785 517.924 311.163C534.653 295.024 528.675 248.376 525.031 220.356V220.408Z" fill="#F4A39B"></path><path d="M479.333 247.888C478.486 247.786 477.562 247.709 476.818 248.145C476.1 248.581 475.766 249.428 475.535 250.249C475.227 251.352 475.099 252.686 475.946 253.456C476.408 253.867 477.049 254.021 477.665 254.098C478.486 254.226 479.358 254.252 480.102 253.892C481.001 253.456 481.514 252.507 481.899 251.583C482.335 250.531 482.566 249.12 481.693 248.376C481.411 248.145 481.077 248.017 480.718 247.914C480.025 247.734 479.333 247.657 478.614 247.734" fill="#1D1D1B"></path><path d="M479.333 246.606C478.332 246.477 477.306 246.477 476.356 246.939C475.407 247.401 474.868 248.325 474.509 249.274C473.893 250.865 473.662 253.097 475.048 254.38C475.869 255.124 476.921 255.33 477.999 255.458C479.076 255.586 480.128 255.458 481.001 254.893C481.796 254.38 482.361 253.636 482.771 252.789C483.182 251.943 483.49 251.07 483.567 250.095C483.644 248.941 483.182 247.786 482.181 247.144C481.18 246.503 479.795 246.375 478.64 246.452C477.973 246.503 477.332 246.99 477.357 247.735C477.383 248.376 477.922 249.069 478.64 249.017C479.025 248.992 479.41 249.017 479.82 249.017C479.59 249.017 479.769 249.017 479.82 249.017C479.949 249.017 480.051 249.069 480.154 249.094C480.334 249.146 480.513 249.197 480.693 249.248C481.001 249.351 480.513 249.12 480.77 249.3C480.821 249.325 480.949 249.428 480.77 249.3C480.821 249.351 480.872 249.402 480.924 249.454C481.052 249.556 480.795 249.197 480.898 249.454C480.898 249.454 480.924 249.556 480.949 249.608L480.975 249.762C480.975 249.556 480.949 249.531 480.975 249.685V249.762C480.975 249.762 480.924 250.095 480.975 250.198V250.044C480.975 250.044 480.975 250.146 480.975 250.172C480.975 250.249 480.949 250.326 480.924 250.403C480.847 250.711 480.744 251.019 480.616 251.327C480.539 251.506 480.744 251.045 480.616 251.327C480.59 251.378 480.565 251.455 480.539 251.506C480.462 251.66 480.385 251.789 480.308 251.943C480.231 252.045 480.154 252.276 480.051 252.353C480.231 252.225 480.128 252.251 480.051 252.327C479.974 252.404 479.897 252.481 479.82 252.558C479.769 252.61 479.718 252.687 479.641 252.712C479.897 252.584 479.718 252.661 479.667 252.687C479.59 252.738 479.513 252.789 479.41 252.841C479.461 252.841 479.641 252.764 479.41 252.841C479.333 252.866 479.23 252.892 479.153 252.918C478.845 252.995 479.076 252.918 479.153 252.918C478.974 252.969 478.743 252.943 478.563 252.918C478.409 252.918 478.23 252.918 478.076 252.892C478.024 252.892 477.665 252.892 477.999 252.892C477.947 252.892 477.87 252.892 477.793 252.866C477.639 252.841 477.46 252.815 477.306 252.764C477.255 252.764 477.178 252.738 477.126 252.712C477.075 252.712 476.998 252.661 476.947 252.635C477.075 252.687 477.126 252.712 477.024 252.661C476.972 252.635 476.844 252.584 476.818 252.533C476.87 252.635 476.947 252.661 476.844 252.533L476.767 252.481C476.767 252.481 476.69 252.404 476.793 252.533C476.793 252.533 476.716 252.404 476.69 252.379C476.69 252.353 476.51 252.148 476.639 252.302C476.741 252.456 476.639 252.302 476.639 252.225C476.639 252.174 476.613 252.122 476.587 252.045C476.587 251.994 476.587 251.943 476.562 251.866C476.562 252.045 476.587 252.097 476.562 251.994C476.562 251.866 476.562 251.712 476.562 251.583C476.562 251.481 476.562 251.404 476.562 251.301C476.562 251.198 476.536 251.122 476.562 251.352C476.562 251.224 476.613 251.019 476.639 250.891C476.69 250.711 476.741 250.531 476.793 250.352C476.844 250.198 476.895 250.044 476.947 249.916C477.049 249.608 476.818 250.146 476.947 249.864C476.998 249.787 477.024 249.685 477.075 249.608C477.101 249.556 477.152 249.505 477.178 249.454C477.306 249.223 477.024 249.633 477.229 249.377C477.28 249.325 477.332 249.274 477.383 249.223C477.562 249.043 477.178 249.325 477.409 249.223C477.409 249.223 477.716 249.069 477.537 249.146C477.383 249.223 477.716 249.094 477.768 249.094C477.819 249.094 477.947 249.043 477.973 249.043C477.793 249.043 477.793 249.069 477.947 249.043H478.05C478.461 249.043 478.871 249.043 479.307 249.12C479.974 249.197 480.616 248.479 480.59 247.837C480.565 247.067 480.026 246.631 479.307 246.554L479.333 246.606Z" fill="#1D1D1B"></path><path d="M519.848 249.633C518.667 249.325 517.308 250.095 516.948 251.275C516.82 251.686 516.794 252.096 516.794 252.533C516.794 252.969 516.794 253.431 516.974 253.841C517.179 254.354 517.615 254.791 518.129 255.022C519.181 255.535 520.515 255.278 521.387 254.508C522.26 253.739 522.722 252.533 522.67 251.378C522.67 251.019 522.619 250.685 522.465 250.352C522.131 249.556 521.233 249.069 520.361 249.043C519.489 249.017 518.642 249.479 518.052 250.095" fill="#1D1D1B"></path><path d="M520.182 248.402C518.283 247.965 516.358 249.043 515.717 250.865C515.537 251.352 515.512 251.917 515.512 252.43C515.512 252.943 515.512 253.456 515.666 253.944C515.922 254.893 516.641 255.766 517.564 256.176C518.488 256.587 519.514 256.689 520.515 256.407C521.516 256.125 522.311 255.509 522.953 254.688C524.107 253.174 524.441 250.685 523.235 249.12C522.568 248.248 521.413 247.735 520.31 247.76C519.13 247.786 518.026 248.35 517.18 249.171C516.692 249.633 516.666 250.506 517.18 250.993C517.693 251.481 518.488 251.506 519.001 250.993C519.078 250.916 519.155 250.865 519.207 250.788C519.258 250.737 519.386 250.608 519.181 250.788C519.309 250.685 519.463 250.608 519.591 250.531C519.643 250.506 519.694 250.48 519.771 250.454C520.053 250.3 519.514 250.506 519.822 250.454C519.951 250.429 520.156 250.3 520.284 250.326H520.13C520.13 250.326 520.259 250.326 520.31 250.326C520.361 250.326 520.438 250.326 520.49 250.326C520.772 250.326 520.284 250.275 520.464 250.326C520.541 250.326 520.618 250.352 520.669 250.377C520.72 250.377 520.772 250.403 520.849 250.429C520.618 250.275 521.131 250.506 520.849 250.429C520.9 250.454 520.951 250.48 521.003 250.506C521.054 250.531 521.105 250.557 521.157 250.608L521.028 250.506C521.028 250.506 521.182 250.66 521.208 250.685C521.336 250.788 521.234 250.66 521.182 250.634C521.234 250.634 521.285 250.762 521.311 250.814C521.362 250.891 521.49 250.993 521.311 250.814C521.362 250.865 521.362 250.993 521.388 251.07C521.388 251.147 521.49 251.352 521.388 251.07C521.439 251.224 521.413 251.455 521.388 251.609C521.388 251.737 521.388 251.917 521.362 252.02V251.866C521.362 251.866 521.362 251.994 521.362 252.045C521.362 252.097 521.336 252.174 521.311 252.225C521.285 252.379 521.234 252.507 521.182 252.661C521.105 252.892 521.182 252.635 521.182 252.61C521.182 252.687 521.08 252.815 521.028 252.892C520.951 253.02 520.874 253.123 520.797 253.251C520.643 253.508 520.977 253.072 520.772 253.277C520.72 253.328 520.695 253.379 520.643 253.405C520.592 253.456 520.541 253.508 520.49 253.559C520.336 253.713 520.387 253.559 520.49 253.559C520.49 253.559 520.361 253.636 520.336 253.662C520.259 253.713 520.156 253.764 520.053 253.816C519.899 253.816 519.899 253.893 520.053 253.816C520.028 253.816 519.925 253.867 519.874 253.867C519.72 253.918 519.591 253.944 519.438 253.97C519.155 254.021 519.668 253.97 519.463 253.97C519.386 253.97 519.309 253.97 519.232 253.97C519.181 253.97 519.104 253.97 519.053 253.97C519.001 253.97 518.924 253.97 518.873 253.97C519.053 253.97 519.104 253.995 519.001 253.97C518.873 253.944 518.745 253.893 518.616 253.867C518.334 253.79 518.847 254.021 518.616 253.867C518.565 253.841 518.514 253.816 518.462 253.79C518.437 253.79 518.232 253.61 518.385 253.739C518.539 253.867 518.334 253.687 518.309 253.662C518.257 253.61 518.232 253.585 518.18 253.533C518.001 253.354 518.309 253.739 518.155 253.482C518.129 253.431 518.052 253.354 518.052 253.277C518.103 253.559 518.103 253.379 518.078 253.303C518.078 253.226 518.001 253.097 518.001 252.995C518.001 253.02 518.001 253.303 518.001 253.02C518.001 252.841 518.001 252.687 518.001 252.507C518.001 252.327 517.949 252.045 518.001 251.866C518.001 251.891 517.949 252.148 518.001 251.891C518.001 251.789 518.052 251.686 518.078 251.583V251.506C518.155 251.378 518.129 251.404 518.078 251.583C518.078 251.583 518.18 251.404 518.18 251.378C518.18 251.378 518.283 251.25 518.257 251.25C518.129 251.404 518.129 251.429 518.206 251.327C518.232 251.301 518.257 251.275 518.283 251.25C518.334 251.198 518.386 251.147 518.437 251.122C518.206 251.275 518.616 250.942 518.437 251.122C518.514 251.07 518.822 250.942 518.847 250.891C518.847 250.916 518.539 250.993 518.77 250.942C518.847 250.942 518.924 250.891 519.001 250.865H519.078C519.207 250.814 519.181 250.814 518.976 250.865C519.027 250.865 519.155 250.865 519.207 250.865C519.258 250.865 519.309 250.865 519.361 250.865C519.489 250.865 519.463 250.865 519.258 250.865C519.309 250.865 519.361 250.865 519.412 250.891C520.053 251.045 520.823 250.685 521.003 249.993C521.157 249.351 520.797 248.581 520.105 248.402H520.182Z" fill="#1D1D1B"></path><path d="M497.012 244.681C497.012 251.198 498.397 257.613 501.117 263.54C502.451 266.414 504.453 268.903 505.787 271.751C506.403 273.06 506.788 274.933 505.71 276.113C504.632 277.293 502.605 277.037 501.143 276.908C499.501 276.754 499.501 279.32 501.143 279.474C504.119 279.757 507.558 279.372 508.635 276.087C509.713 272.803 507.686 269.852 505.992 267.158C501.759 260.435 499.578 252.609 499.578 244.681C499.578 243.039 497.012 243.039 497.012 244.681Z" fill="#1D1D1B"></path><path d="M485.106 288.994C485.286 290.405 486.158 291.637 487.056 292.689C487.903 293.689 488.955 294.51 490.058 295.229C492.496 296.768 495.318 297.564 498.141 298.077C498.834 298.205 499.526 297.897 499.732 297.179C499.911 296.563 499.526 295.742 498.834 295.588C496.37 295.126 493.881 294.485 491.7 293.202C489.956 292.175 487.877 290.456 487.595 288.301C487.492 287.608 486.62 287.249 486.004 287.403C485.26 287.608 485.003 288.301 485.106 288.994Z" fill="#1D1D1B"></path><path d="M513.1 244.116C514.229 242.91 515.64 242.218 517.334 241.961C517.205 241.961 517.385 241.961 517.436 241.961C517.539 241.961 517.616 241.961 517.719 241.935C517.924 241.935 518.155 241.935 518.36 241.935C518.565 241.935 518.796 241.935 519.001 241.935C519.13 241.935 519.232 241.935 519.361 241.961C519.592 241.987 519.207 241.961 519.438 241.961C520.336 242.115 521.029 242.346 521.773 242.756C523.21 243.577 524.518 241.345 523.056 240.55C519.284 238.42 514.255 239.138 511.253 242.295C510.124 243.5 511.92 245.322 513.074 244.116H513.1Z" fill="#1D1D1B"></path><path d="M484.439 238.42C479.692 237.086 474.201 237.214 470.48 240.883C469.3 242.038 471.122 243.86 472.302 242.705C475.356 239.703 479.923 239.831 483.772 240.909C485.363 241.371 486.055 238.882 484.465 238.446L484.439 238.42Z" fill="#1D1D1B"></path><path d="M509.508 228.259C508.661 229.619 509.251 231.441 510.765 231.98C512.151 232.467 513.228 231.492 514.46 231.107C515.614 230.748 516.846 230.671 518.026 230.902C519.386 231.184 520.592 231.954 521.978 232.262C522.491 232.365 523.184 232.211 523.415 231.672C524.082 230.184 523.004 229.234 521.747 228.695C520.567 228.182 519.361 227.772 518.103 227.489C515.589 226.951 513.049 226.951 510.534 227.438C509.841 227.566 509.456 228.387 509.636 229.029C509.841 229.747 510.534 230.055 511.227 229.927C512.946 229.593 514.768 229.542 516.513 229.824C517.385 229.953 518.283 230.158 519.13 230.44C519.54 230.568 519.976 230.722 520.361 230.902C520.541 230.979 520.746 231.056 520.926 231.159C521.465 231.415 521.08 231.39 521.105 230.928L521.285 230.286L521.234 230.415L522.671 229.824C521.567 229.593 520.567 229.029 519.515 228.67C518.463 228.31 517.257 228.182 516.102 228.259C514.947 228.336 513.87 228.593 512.792 229.029C512.535 229.132 512.279 229.26 512.022 229.388C511.971 229.414 511.586 229.542 511.56 229.593C511.714 229.414 511.509 229.927 511.74 229.593C512.612 228.182 510.406 226.899 509.533 228.31L509.508 228.259Z" fill="#1D1D1B"></path><path d="M467.042 228.926C469.813 227.361 472.764 226.232 475.869 225.565C477.254 225.257 478.666 225.001 480.077 225.001C480.898 225.001 482.899 225.052 483.259 226.053C483.259 226.13 483.49 226.104 483.156 226.181C482.797 226.258 482.386 226.13 482.053 226.027C481.36 225.822 480.667 225.591 479.949 225.437C478.512 225.129 477.049 224.975 475.587 225.001C474.124 225.026 472.662 225.232 471.25 225.591C470.557 225.77 469.865 226.001 469.172 226.258C468.787 226.412 468.402 226.591 468.017 226.745C467.838 226.822 467.632 226.925 467.453 227.028C466.863 227.233 466.837 227.72 467.324 228.542C468.761 227.72 467.453 225.488 466.042 226.335C464.682 227.13 464.99 229.234 466.503 229.671C467.196 229.876 467.889 229.671 468.505 229.363C469.3 229.003 470.044 228.619 470.891 228.362C473.996 227.361 477.357 227.284 480.487 228.208C482.001 228.644 483.592 229.183 484.952 228.08C486.312 226.976 486.132 225.334 485.029 224.154C482.925 221.896 479.384 222.358 476.639 222.82C472.815 223.461 469.121 224.821 465.734 226.72C464.297 227.541 465.58 229.748 467.017 228.926H467.042Z" fill="#1D1D1B"></path><path d="M483.104 225.078C481.976 225.154 480.872 225.103 479.743 224.975L480.077 225.026C479.718 224.975 479.333 224.924 478.973 224.847C478.64 224.77 478.281 224.795 477.973 224.975C477.716 225.129 477.46 225.437 477.383 225.745C477.229 226.386 477.562 227.182 478.281 227.335C479.871 227.643 481.488 227.772 483.079 227.669C483.746 227.618 484.387 227.105 484.362 226.386C484.336 225.719 483.797 225.052 483.079 225.103L483.104 225.078Z" fill="#1D1D1B"></path><path d="M437.329 609.781H167.321V664.716H437.329V609.781Z" fill="#606772"></path><path d="M922.333 609.781H437.329V664.716H922.333V609.781Z" fill="#414A5E"></path><path d="M429.657 593.41H926.233C930.749 593.41 934.418 597.079 934.418 601.595C934.418 606.111 930.749 609.781 926.233 609.781H429.657V593.41Z" fill="#4D576B"></path><path d="M441.229 593.41H162.677C158.156 593.41 154.492 597.075 154.492 601.595C154.492 606.116 158.156 609.781 162.677 609.781H441.229C445.75 609.781 449.415 606.116 449.415 601.595C449.415 597.075 445.75 593.41 441.229 593.41Z" fill="#6E757F"></path><path opacity="0.3" d="M922.333 609.781H167.321V617.658H922.333V609.781Z" fill="#192541"></path><path d="M910.35 341.338C922.179 337.617 934.777 344.16 938.524 355.989C942.244 367.818 935.701 380.416 923.872 384.162C898.752 392.091 882.382 415.954 884.101 442.203C884.409 446.77 885.256 451.312 886.641 455.725C890.362 467.554 883.819 480.152 871.99 483.898C860.161 487.619 847.563 481.076 843.817 469.247C841.328 461.396 839.814 453.262 839.275 445.102C836.222 398.172 865.447 355.501 910.35 341.312V341.338Z" fill="#ED6A4D"></path><path d="M882.408 517.665C877.738 530.366 863.651 536.858 850.95 532.188C838.249 527.518 831.757 513.432 836.427 500.73C846.383 473.737 836.709 443.665 812.898 427.603C808.767 424.806 804.251 422.497 799.504 420.752C786.803 416.082 780.311 401.995 784.981 389.294C789.651 376.593 803.738 370.101 816.439 374.771C824.881 377.876 832.912 381.981 840.301 386.985C882.844 415.723 900.164 469.452 882.382 517.665H882.408Z" fill="#EB7763"></path><path d="M853.516 510.814C851.925 519.538 843.56 525.312 834.836 523.695C826.112 522.104 820.339 513.739 821.955 505.015C825.342 486.49 815.746 468.169 798.606 460.472C795.629 459.137 792.448 458.162 789.215 457.547C780.491 455.956 774.717 447.591 776.334 438.867C777.925 430.143 786.289 424.37 795.013 425.986C800.812 427.038 806.432 428.809 811.769 431.195C842.431 444.974 859.622 477.689 853.541 510.789L853.516 510.814Z" fill="#ED6A4D"></path><path d="M910.17 426.551C918.586 423.805 927.644 428.424 930.389 436.84C933.135 445.256 928.516 454.314 920.1 457.059C902.19 462.884 890.644 480.024 892.029 498.781C892.26 502.039 892.902 505.298 893.928 508.428C896.674 516.844 892.055 525.902 883.639 528.647C875.223 531.393 866.165 526.774 863.42 518.358C861.598 512.765 860.469 506.966 860.033 501.141C857.57 467.631 878.199 436.943 910.196 426.551H910.17Z" fill="#F08070"></path><path d="M869.424 507.017H822.083C816.951 507.017 812.949 511.482 813.513 516.588L821.313 585.662C821.801 589.998 825.445 593.282 829.807 593.308L867.14 593.59C873.888 562.338 886.384 524.568 869.424 507.017Z" fill="#DADADA"></path><path d="M892.671 507.017H869.424C886.385 524.593 873.889 562.338 867.141 593.59L884.204 593.718C888.591 593.744 892.286 590.485 892.825 586.149L901.267 516.665C901.883 511.533 897.88 507.017 892.723 507.017H892.671Z" fill="#F6F6F6"></path><path d="M442.666 178.224C442.666 178.224 435.943 170.501 428.169 181.868C428.169 181.868 413.441 210.144 422.575 240.37H428.759C428.759 240.37 419.034 220.536 442.666 178.25V178.224Z" fill="#DADADA"></path><path d="M427.201 280.225C437.944 279.287 445.742 268.09 444.617 255.215C443.493 242.34 433.873 232.663 423.13 233.601C412.386 234.539 404.589 245.737 405.713 258.611C406.837 271.486 416.457 281.163 427.201 280.225Z" fill="#F6F6F6"></path><path d="M420.729 273.731C428.239 273.075 433.69 265.242 432.904 256.235C432.117 247.228 425.391 240.458 417.881 241.114C410.371 241.77 404.92 249.603 405.706 258.61C406.493 267.616 413.218 274.386 420.729 273.731Z" fill="#DADADA"></path><path d="M434.891 271.032C440.408 281.424 451.108 287.12 461.192 292.252C462.654 292.996 463.963 290.79 462.475 290.046C452.776 285.119 442.409 279.731 437.098 269.749C436.328 268.287 434.096 269.595 434.891 271.032Z" fill="#DADADA"></path><path d="M465.81 288.018C464.194 287.608 462.603 286.915 460.91 287.403C459.113 287.941 458.036 289.661 458.549 291.534C459.011 293.202 460.55 294.305 462.013 295.023C463.604 295.819 465.477 296.281 467.17 295.562C468.633 294.946 469.865 293.509 469.839 291.867C469.813 290.225 468.479 288.788 466.939 288.198C466.093 287.865 465.118 287.788 464.194 287.762C463.347 287.762 462.423 287.711 461.654 288.147C460.73 288.686 460.422 289.84 460.807 290.815C461.166 291.713 461.833 292.329 462.603 292.868C463.373 293.407 464.399 293.971 465.4 293.946C466.58 293.946 467.709 293.022 467.761 291.816C467.812 290.79 467.093 289.969 466.118 289.712C465.99 289.686 465.836 289.661 465.708 289.635C465.58 289.609 465.426 289.584 465.272 289.584C465.22 289.584 464.938 289.532 465.143 289.584C465.323 289.584 465.118 289.584 465.066 289.584C464.989 289.584 464.912 289.558 464.835 289.532C464.784 289.532 464.707 289.507 464.656 289.481C464.912 289.558 464.605 289.404 464.835 289.584C464.297 289.147 463.552 289.07 463.014 289.584C462.552 290.046 462.475 290.944 463.014 291.405C463.45 291.765 463.886 291.996 464.451 292.073C464.707 292.124 464.938 292.15 465.195 292.175C465.528 292.201 464.912 292.124 465.246 292.175C465.374 292.201 465.477 292.227 465.605 292.252L465.451 292.201C465.451 292.201 465.554 292.252 465.4 292.15C465.374 292.124 465.246 291.893 465.349 292.098C465.272 291.944 465.195 291.713 465.297 291.534L465.349 291.457C465.349 291.457 465.451 291.405 465.323 291.457C465.323 291.328 465.682 291.482 465.297 291.405C465.477 291.431 464.989 291.303 465.041 291.328C464.912 291.277 464.604 291.123 464.425 290.995C464.014 290.738 463.706 290.559 463.373 290.148C463.501 290.302 463.27 289.969 463.27 289.969V290.046C463.245 289.892 463.27 289.892 463.27 290.046C463.219 290.148 463.219 290.225 463.142 290.302C463.091 290.353 463.039 290.379 462.988 290.405C463.116 290.379 463.142 290.379 463.065 290.405C462.885 290.405 463.296 290.405 463.27 290.405C463.424 290.405 463.578 290.405 463.706 290.405C464.04 290.405 464.348 290.405 464.681 290.405C465.272 290.43 465.759 290.482 466.324 290.738C466.093 290.636 466.452 290.815 466.452 290.815C466.529 290.867 466.58 290.892 466.657 290.944C466.965 291.123 466.555 290.815 466.785 291.046C466.862 291.123 466.965 291.226 467.042 291.303C467.273 291.534 466.991 291.149 467.145 291.431C467.145 291.431 467.324 291.816 467.222 291.559C467.247 291.636 467.273 291.713 467.299 291.79C467.324 291.944 467.324 291.944 467.299 291.79C467.299 291.867 467.299 291.944 467.299 292.021C467.299 292.329 467.376 291.867 467.299 292.15C467.299 292.175 467.145 292.534 467.273 292.278C467.222 292.38 467.17 292.483 467.093 292.586C467.093 292.611 466.939 292.765 467.093 292.611C467.016 292.714 466.939 292.791 466.837 292.868C466.837 292.868 466.503 293.125 466.709 292.971C466.606 293.048 466.503 293.099 466.401 293.176C466.324 293.227 466.247 293.253 466.17 293.279C466.272 293.227 466.272 293.227 466.17 293.279C465.272 293.586 464.322 293.355 463.45 292.945C462.962 292.714 462.5 292.432 462.064 292.124C461.833 291.97 461.808 291.944 461.577 291.713C461.346 291.482 461.32 291.457 461.192 291.226C461.192 291.226 461.038 290.841 461.089 291.021C461.089 290.944 461.012 290.507 461.012 290.687C461.012 290.687 461.012 290.251 461.012 290.482V290.353C461.012 290.353 461.012 290.43 461.064 290.302C461.141 290.071 460.935 290.353 461.141 290.199C461.192 290.148 461.243 290.097 461.32 290.046C461.218 290.122 461.218 290.122 461.32 290.046C461.346 290.046 461.679 289.892 461.448 289.969C461.551 289.917 461.679 289.892 461.782 289.866C461.808 289.866 462.193 289.815 461.91 289.84C462.064 289.84 462.218 289.84 462.398 289.84C462.654 289.84 462.783 289.892 463.065 289.943C463.758 290.097 464.425 290.353 465.118 290.533C465.81 290.713 466.503 290.328 466.709 289.635C466.914 288.942 466.478 288.224 465.81 288.044V288.018Z" fill="#1D1D1B"></path><path d="M343.033 265.233C358.582 252.327 367.845 236.111 367.845 218.483C367.845 176.402 315.142 142.302 250.122 142.302C185.103 142.302 132.399 176.402 132.399 218.483C132.399 260.563 185.103 294.664 250.122 294.664C274.755 294.664 297.591 289.763 316.502 281.398C324.738 286.53 335.9 290.559 350.5 290.405C356.632 290.353 359.506 282.784 355.016 278.627C351.193 275.086 346.959 270.596 343.033 265.233Z" fill="#1F2D49"></path><path d="M815.438 213.479H667.002C656.276 213.479 647.604 222.178 647.604 232.878V297.384C647.604 308.109 656.302 316.782 667.002 316.782H685.656L696.099 341.517C698.434 347.059 706.311 346.983 708.569 341.389L718.422 316.782H815.464C826.189 316.782 834.862 308.084 834.862 297.384V232.878C834.862 222.152 826.164 213.479 815.464 213.479H815.438Z" fill="#5CC1D1"></path><path d="M792.628 0.100586H567.035C551.537 0.100586 538.99 12.6734 538.99 28.1457V129.96C538.99 145.458 551.563 158.005 567.035 158.005H586.074C585.663 165.934 584.483 177.916 581.276 187.718C579.685 192.568 584.714 196.955 589.358 194.8C604.009 188.026 616.685 176.762 629.078 157.98H792.602C808.1 157.98 820.647 145.407 820.647 129.934V28.1457C820.647 12.6478 808.074 0.100586 792.602 0.100586H792.628Z" fill="#ED6A4D"></path><path d="M198.804 234.058C207.406 234.058 214.379 227.085 214.379 218.483C214.379 209.881 207.406 202.908 198.804 202.908C190.203 202.908 183.229 209.881 183.229 218.483C183.229 227.085 190.203 234.058 198.804 234.058Z" fill="white"></path><path d="M250.122 234.058C258.724 234.058 265.697 227.085 265.697 218.483C265.697 209.881 258.724 202.908 250.122 202.908C241.52 202.908 234.547 209.881 234.547 218.483C234.547 227.085 241.52 234.058 250.122 234.058Z" fill="white"></path><path d="M301.44 234.058C310.042 234.058 317.015 227.085 317.015 218.483C317.015 209.881 310.042 202.908 301.44 202.908C292.838 202.908 285.865 209.881 285.865 218.483C285.865 227.085 292.838 234.058 301.44 234.058Z" fill="white"></path><path d="M784.93 30.686H574.707C571.079 30.686 568.138 33.6212 568.138 37.2419C568.138 40.8626 571.079 43.7977 574.707 43.7977H784.93C788.558 43.7977 791.499 40.8626 791.499 37.2419C791.499 33.6212 788.558 30.686 784.93 30.686Z" fill="white"></path><path d="M784.93 56.3447H574.707C571.079 56.3447 568.138 59.2799 568.138 62.9006C568.138 66.5213 571.079 69.4564 574.707 69.4564H784.93C788.558 69.4564 791.499 66.5213 791.499 62.9006C791.499 59.2799 788.558 56.3447 784.93 56.3447Z" fill="white"></path><path d="M784.93 82.0039H574.707C571.079 82.0039 568.138 84.9391 568.138 88.5597C568.138 92.1804 571.079 95.1156 574.707 95.1156H784.93C788.558 95.1156 791.499 92.1804 791.499 88.5597C791.499 84.9391 788.558 82.0039 784.93 82.0039Z" fill="white"></path><path d="M687.401 107.663H574.707C571.079 107.663 568.138 110.598 568.138 114.218C568.138 117.839 571.079 120.774 574.707 120.774H687.401C691.028 120.774 693.969 117.839 693.969 114.218C693.969 110.598 691.028 107.663 687.401 107.663Z" fill="white"></path><path d="M760.323 237.111C764.121 240.319 766.02 244.937 766.02 250.89C766.02 256.125 764.275 260.256 760.811 263.309C757.321 266.363 752.754 267.928 747.058 268.056L746.621 274.342H731.714L731.2 257.202H737.41C741.31 257.202 744.312 256.766 746.365 255.868C748.418 254.97 749.47 253.379 749.47 251.096C749.47 249.53 749.059 248.324 748.212 247.426C747.366 246.528 746.237 246.092 744.8 246.092C743.183 246.092 741.977 246.554 741.13 247.503C740.284 248.453 739.873 249.736 739.873 251.326H723.939C723.811 247.811 724.555 244.63 726.146 241.73C727.711 238.831 730.123 236.521 733.33 234.828C736.537 233.134 740.515 232.288 745.21 232.288C751.471 232.288 756.5 233.904 760.298 237.111H760.323ZM732.099 295.742C730.277 294.1 729.379 292.021 729.379 289.507C729.379 286.992 730.277 284.888 732.099 283.22C733.92 281.553 736.307 280.732 739.283 280.732C742.259 280.732 744.594 281.553 746.39 283.22C748.212 284.888 749.11 286.992 749.11 289.507C749.11 292.021 748.212 294.048 746.39 295.716C744.569 297.384 742.208 298.205 739.283 298.205C736.358 298.205 733.895 297.384 732.099 295.742Z" fill="white"></path></g><defs><clipPath id="clip0_137_513"><rect width="1053.96" height="664.616" fill="white" transform="translate(0.87207 0.100586)"></rect></clipPath></defs></svg>